<?xml version="1.0" encoding="utf-8"?>
<!-- Generator: Adobe Illustrator 25.0.0, SVG Export Plug-In . SVG Version: 6.00 Build 0)  -->
<svg version="1.1" id="Layer_1" xmlns="http://www.w3.org/2000/svg" xmlns:xlink="http://www.w3.org/1999/xlink" x="0px" y="0px"
	 viewBox="0 0 565 175" style="enable-background:new 0 0 565 175;" xml:space="preserve">
<style type="text/css">
	.st0{fill:#87796F;}
	.st1{fill:#35414D;}
	.st2{fill-rule:evenodd;clip-rule:evenodd;fill:#FFF2E8;}
	.st3{fill-rule:evenodd;clip-rule:evenodd;fill:#FFE4CF;}
	.st4{fill-rule:evenodd;clip-rule:evenodd;fill:#CECECE;}
	.st5{fill:none;stroke:#35414D;stroke-width:1.9155;stroke-linecap:round;stroke-linejoin:round;stroke-miterlimit:13.3333;}
	.st6{fill:none;stroke:#35414D;stroke-width:0.8209;stroke-linecap:round;stroke-linejoin:round;stroke-miterlimit:13.3333;}
	.st7{fill-rule:evenodd;clip-rule:evenodd;fill:#838383;}
	.st8{fill-rule:evenodd;clip-rule:evenodd;fill:#FE9737;}
	.st9{fill-rule:evenodd;clip-rule:evenodd;fill:#B5ADB6;}
	.st10{fill-rule:evenodd;clip-rule:evenodd;fill:#F36B37;}
	.st11{fill-rule:evenodd;clip-rule:evenodd;fill:#595959;}
	.st12{fill-rule:evenodd;clip-rule:evenodd;fill:#35414D;}
	.st13{fill:#60A917;}
	.st14{fill:#FE9737;}
	.st15{fill:#D8D8D8;}
	.st16{fill-rule:evenodd;clip-rule:evenodd;fill:#99DD58;}
	.st17{fill:#FF5A5A;}
	.st18{fill-rule:evenodd;clip-rule:evenodd;fill:#97DA7B;}
	.st19{fill-rule:evenodd;clip-rule:evenodd;fill:#68CA44;}
	.st20{fill:none;stroke:#35414D;stroke-width:1.3289;stroke-linecap:round;stroke-linejoin:round;stroke-miterlimit:13.3333;}
	.st21{fill:#6F909E;}
	.st22{fill:none;stroke:#35414D;stroke-width:2.4776;stroke-linecap:round;stroke-linejoin:round;stroke-miterlimit:10;}
	.st23{fill:#EC5664;}
	.st24{fill:#DB4554;}
	.st25{fill:#F5F5FA;}
	.st26{fill:#E5E8EC;}
	.st27{fill:#FFCD57;}
	.st28{fill:#F2BB45;}
	.st29{fill:#F4BA43;}
	.st30{fill:#F1E8DC;}
	.st31{fill:#9A99A1;}
	.st32{fill:#54C1ED;}
	.st33{fill:#F4644D;}
	.st34{fill:#8BC932;}
	.st35{fill:#F9D36B;}
	.st36{fill:#EFDBC6;}
	.st37{fill:#E5CFBD;}
	.st38{fill:#46BEE8;}
	.st39{fill:#17AFDE;}
	.st40{fill:#FFB155;}
	.st41{fill-rule:evenodd;clip-rule:evenodd;fill:#F4644D;}
	.st42{fill:#E6F0F6;}
	.st43{fill:#AACFE2;}
	.st44{fill:#F19B40;}
	.st45{fill-rule:evenodd;clip-rule:evenodd;fill:#E8533A;}
</style>
<g>
	<g>
		<g>
			<path class="st0" d="M504.6,120.9c-3.9,0-7.6-2.1-9.6-5.5l-39.3-67.2c-1.5-2.6-1.9-5.5-1.2-8.4c0.7-2.9,2.6-5.3,5.1-6.8L507.7,5
				c1.7-1,3.6-1.5,5.6-1.5c3.9,0,7.6,2.1,9.6,5.5l39.3,67.2c1.5,2.6,1.9,5.5,1.2,8.4c-0.7,2.9-2.6,5.3-5.1,6.8l-48.1,28.1
				C508.5,120.4,506.5,120.9,504.6,120.9L504.6,120.9z"/>
			<path class="st1" d="M513.3,4.4c3.5,0,6.9,1.8,8.7,5l39.3,67.2c2.8,4.8,1.2,11-3.6,13.8l-48.1,28.1c-1.6,0.9-3.4,1.4-5.1,1.4
				c-3.5,0-6.9-1.8-8.7-5l-39.3-67.2c-2.8-4.8-1.2-11,3.6-13.8l48.1-28.1C509.8,4.8,511.6,4.4,513.3,4.4 M513.3,2.5
				c-2.1,0-4.2,0.6-6.1,1.6l-48.1,28.1c-2.8,1.6-4.7,4.2-5.6,7.3c-0.8,3.1-0.4,6.3,1.3,9.1l39.3,67.2c2.1,3.7,6.1,6,10.4,6
				c2.1,0,4.2-0.6,6.1-1.6l48.1-28.1c2.8-1.6,4.7-4.2,5.6-7.3c0.8-3.1,0.4-6.3-1.3-9.1L523.7,8.5C521.5,4.8,517.6,2.5,513.3,2.5
				L513.3,2.5z"/>
		</g>
		<g id="g7750_15_" transform="translate(18.5,457.4355)">
			<path id="path7752_15_" class="st2" d="M442.9-409.7l40.7,69.5c0.3,0.6,1.1,0.8,1.6,0.5l15.8-9.2l33.7-19.7l6.7-3.9
				c0.5-0.3,0.7-1.1,0.4-1.6L504.5-438l-0.4-0.7c-0.1-0.1-0.1-0.2-0.2-0.2l-8,4.7c-2.2,1.3-5.1,0.4-6.5-1.9l-4.6-7.9
				c-0.1,0-0.2,0-0.3,0.1l-0.7,0.4l-44.2,25.8c-0.5,0.3-0.7,1-0.4,1.6L442.9-409.7z"/>
		</g>
		<g id="g7754_15_" transform="translate(257.3203,504.5)">
			<path id="path7756_15_" class="st3" d="M235-484.7c12.5,3.9,25.4,14.6,34.3,29.9c1.9,3.3,3.6,6.7,5,10.1c0.4,1.1,0.9,2.2,1.2,3.3
				c0.5,1.3,0.9,2.6,1.3,3.9c3.6,12.2,3.6,24,0,33l19-11.1l6.7-3.9c0.5-0.3,0.7-1.1,0.4-1.6l-6.9-11.8l-9.1-15.6l-21.3-36.4
				l-0.4-0.7c-0.1-0.1-0.1-0.2-0.2-0.2l-19.1-5.1c-0.1,0-0.2,0-0.3,0.1l-0.7,0.4L235-484.7z"/>
		</g>
		<g id="g7758_15_" transform="translate(331.5508,504.1592)">
			<path id="path7760_15_" class="st4" d="M171.8-490.7l4.6,7.9c1.4,2.3,4.3,3.2,6.5,1.9l8-4.7c-0.2-0.1-0.4-0.1-0.9-0.3l-17.3-4.6
				C172.2-490.6,172-490.7,171.8-490.7"/>
		</g>
		<g id="g7762_15_" transform="translate(331.5508,504.1592)">
			<path id="path7764_15_" class="st5" d="M171.8-490.7l4.6,7.9c1.4,2.3,4.3,3.2,6.5,1.9l7.3-4.3"/>
		</g>
		<g id="g7766_15_" transform="translate(413.1929,241.0635)">
			<path id="path7768_15_" class="st5" d="M109.4-222.2l26.2,44.8l11.5,19.6c0.3,0.6,0.2,1.3-0.4,1.6l-40.4,23.7l-15.8,9.2
				c-0.5,0.3-1.3,0.1-1.6-0.5l-25.4-43.4 M64.2-166l-19.7-33.7c-0.3-0.6-0.2-1.3,0.4-1.6l44.2-25.8l0.7-0.4c0.3-0.2,0.5-0.1,1.3,0.1
				l18,4.8"/>
		</g>
		<g>
			<g id="g7770_15_" transform="translate(330.2446,64.9756)">
				<path id="path7772_15_" class="st6" d="M210.7,23.5c-1.7,1.2-3-0.8-3.6-0.3c-0.4,0.4-0.1,1.2-0.3,2.3c-0.2,1.2-0.9,1.2-1.8,0.9
					c-2.2-0.6-0.6,2.5-3.2,1.9"/>
			</g>
			<g id="g7774_15_" transform="translate(423.1602,447.0527)">
				<path id="path7776_15_" class="st4" d="M106.9-394.7l3.8-0.9l-0.8-3.2c-0.3-1-1.3-1.7-2.4-1.4c-1,0.3-1.7,1.3-1.4,2.4
					L106.9-394.7z"/>
			</g>
			<g id="g7778_15_" transform="translate(325.644,101.1182)">
				<path id="path7780_15_" class="st7" d="M213.1-15.4l2,2.7c0.1,0.2,0.1,0.2,0.2,0l0.5-3.3l0.6-3.5l-3.2-1.2l-2.3,2.5L213.1-15.4z
					"/>
			</g>
			<g id="g7782_15_" transform="translate(412.0854,441.0947)">
				<path id="path7784_15_" class="st8" d="M117.4-387.7l7.2,29.5l2.7-0.7l2.7-0.7l-6.7-27.4l-0.5-2.2c-0.1-0.5-0.6-0.7-1-0.6
					l-3.8,0.9C117.5-388.7,117.2-388.2,117.4-387.7"/>
			</g>
			<g id="g7786_15_" transform="translate(452.5229,474.4854)">
				<path id="path7788_15_" class="st9" d="M78.7-425.9l0.8,3.2l1.9-0.5l-0.8-3.2c-0.3-1-1.3-1.7-2.4-1.4c-0.3,0.1-0.6,0.3-0.9,0.5
					C78-427.1,78.5-426.6,78.7-425.9"/>
			</g>
			<g id="g7790_15_" transform="translate(441.9307,407.96)">
				<path id="path7792_15_" class="st10" d="M91.6-353.3l6.3,26.1l0.3,1.3l1.9-0.5l-6.7-27.4l-0.5-2.2c-0.1-0.5-0.6-0.7-1-0.6
					l-1.9,0.5c0.5-0.1,0.9,0.2,1,0.6L91.6-353.3z"/>
			</g>
			<g id="g7794_15_" transform="translate(357.9888,127.2178)">
				<path id="path7796_15_" class="st11" d="M182.2-45.2l-0.6,3.5l-0.2,1.1l1.3,1.8c0.1,0.2,0.1,0.2,0.2,0l0.5-3.3l0.6-3.5
					L182.2-45.2z"/>
			</g>
			<g id="g7798_15_" transform="translate(461.3545,402.1719)">
				<path id="path7800_15_" class="st6" d="M74.1-348l3.1-0.8l2.6,10.6"/>
			</g>
			<g id="g7802_15_" transform="translate(374.0615,313.9443)">
				<path id="path7804_15_" class="st6" d="M158.4-248.2l-3-12.4c-0.1-0.5,0.2-0.9,0.6-1l3.8-0.9c0.5-0.1,0.9,0.2,1,0.6l7.2,29.5
					l-5.4,1.3l-3.4-13.9"/>
			</g>
			<g id="g7806_15_" transform="translate(331.5225,66.168)">
				<path id="path7808_15_" class="st6" d="M209.4,22.2l0.5-3.3l0.6-3.5l-2.7,0.7l-2.7,0.7l2.1,2.9l2,2.7
					C209.4,22.4,209.4,22.4,209.4,22.2z"/>
			</g>
			<g id="g7810_15_" transform="translate(423.1602,447.0527)">
				<path id="path7812_15_" class="st6" d="M106.9-394.7l3.8-0.9l-0.8-3.2c-0.3-1-1.3-1.7-2.4-1.4c-1,0.3-1.7,1.3-1.4,2.4
					L106.9-394.7z"/>
			</g>
		</g>
		<g>
			<path class="st12" d="M489.3,78c-0.4,0.2-0.5,0.7-0.3,1l4.5,7.6c0.2,0.4,0.7,0.5,1,0.3l7.6-4.5c0.4-0.2,0.5-0.7,0.3-1l-2.2-3.8
				c-0.2-0.4-0.1-0.8,0.3-1s0.8-0.1,1,0.3l2.2,3.8c0.6,1.1,0.3,2.4-0.8,3l-7.6,4.5c-1.1,0.6-2.4,0.3-3-0.8l-4.5-7.6
				c-0.6-1.1-0.3-2.4,0.8-3l6.4-3.7c0.4-0.2,0.8-0.1,1,0.3c0.2,0.4,0.1,0.8-0.3,1L489.3,78z M498.2,72.2c0.1-0.4,0.5-0.6,0.9-0.5
				s0.6,0.5,0.5,0.9l-2.4,9.1c-0.1,0.4-0.5,0.6-0.9,0.5l-3-0.8c-0.4-0.1-0.6-0.5-0.5-0.9c0.1-0.4,0.5-0.6,0.9-0.5l2.3,0.6
				L498.2,72.2z"/>
		</g>
		<g>
			<path class="st1" d="M512.3,38.6c-0.2-0.1-0.5-0.1-0.7,0.1c-0.1,0.1-0.2,0.1-0.3,0.2l-3,3.6c-0.3,0.4-0.3,1,0.1,1.3
				c0.4,0.3,1,0.3,1.3-0.1l1.6-1.8l0.6,7.3l-4.3,0.4c-0.5,0-0.9,0.5-0.9,1c0,0,0,0,0,0l0.7,7.9c0,0.5,0.5,0.9,1,0.9c0,0,0,0,0,0
				c0.5,0,0.9-0.5,0.9-1c0,0,0,0,0,0l-0.6-7L513,51c0.5,0,0.9-0.5,0.9-1c0,0,0,0,0,0l-0.7-8.3l1.8,1.6c0.4,0.3,1,0.3,1.3-0.1
				c0.3-0.4,0.3-1-0.1-1.3l-3.6-3C512.5,38.7,512.4,38.7,512.3,38.6L512.3,38.6z"/>
			<path class="st13" d="M511.8,38.6c-0.2-0.1-0.5-0.1-0.7,0.1c-0.1,0.1-0.2,0.1-0.3,0.2l-3,3.6c-0.3,0.4-0.3,1,0.1,1.3
				c0.4,0.3,1,0.3,1.3-0.1l1.6-1.8l0.6,7.3l-4.3,0.4c-0.5,0-0.9,0.5-0.9,1c0,0,0,0,0,0l0.7,7.9c0,0.5,0.5,0.9,1,0.9c0,0,0,0,0,0
				c0.5,0,0.9-0.5,0.9-1c0,0,0,0,0,0l-0.6-7l4.3-0.4c0.5,0,0.9-0.5,0.9-1c0,0,0,0,0,0l-0.7-8.3l1.8,1.6c0.4,0.3,1,0.3,1.3-0.1
				s0.3-1-0.1-1.3l-3.6-3C512,38.6,511.9,38.6,511.8,38.6L511.8,38.6z"/>
		</g>
		<g>
			<g>
				<path class="st1" d="M492.6,55.6l-2.4-1.6c-0.4-0.3-0.6-0.9-0.3-1.3c0.3-0.4,0.9-0.6,1.3-0.3l1.6,1l2.6-4
					c0.3-0.4,0.9-0.6,1.3-0.3s0.6,0.9,0.3,1.3l-3.1,4.8C493.6,55.7,493.1,55.9,492.6,55.6L492.6,55.6z M486.5,53.7l-6.6,1.4
					c-0.5,0.1-0.8,0.6-0.7,1.1s0.6,0.8,1.1,0.7l6.6-1.4c0.5-0.1,0.8-0.6,0.7-1.1C487.5,53.9,487,53.5,486.5,53.7z M497.3,56.9
					c-0.4-0.3-1-0.2-1.3,0.3l-1.4,2.1l-2.1-1.4c-0.4-0.3-1-0.2-1.3,0.3c-0.3,0.4-0.2,1,0.3,1.3l2.1,1.4l-1.4,2.1
					c-0.3,0.4-0.2,1,0.3,1.3c0.4,0.3,1,0.2,1.3-0.3l1.4-2.1l2.1,1.4c0.4,0.3,1,0.2,1.3-0.3c0.3-0.4,0.2-1-0.3-1.3l-2.1-1.4l1.4-2.1
					C497.9,57.8,497.7,57.2,497.3,56.9L497.3,56.9z M488.1,61.2l-6.6,1.4c-0.5,0.1-0.8,0.6-0.7,1.1c0.1,0.5,0.6,0.8,1.1,0.7l6.6-1.4
					c0.5-0.1,0.8-0.6,0.7-1.1S488.6,61.1,488.1,61.2z"/>
			</g>
			<g>
				<path class="st14" d="M492.5,55l-2.4-1.6c-0.4-0.3-0.6-0.9-0.3-1.3c0.3-0.4,0.9-0.6,1.3-0.3l1.6,1l2.6-4
					c0.3-0.4,0.9-0.6,1.3-0.3c0.4,0.3,0.6,0.9,0.3,1.3l-3.1,4.8C493.5,55.2,492.9,55.3,492.5,55L492.5,55z M486.4,53.1l-6.6,1.4
					c-0.5,0.1-0.8,0.6-0.7,1.1c0.1,0.5,0.6,0.8,1.1,0.7l6.6-1.4c0.5-0.1,0.8-0.6,0.7-1.1C487.4,53.3,486.9,53,486.4,53.1z
					 M497.2,56.4c-0.4-0.3-1-0.2-1.3,0.3l-1.4,2.1l-2.1-1.4c-0.4-0.3-1-0.2-1.3,0.3c-0.3,0.4-0.2,1,0.3,1.3l2.1,1.4l-1.4,2.1
					c-0.3,0.4-0.2,1,0.3,1.3c0.4,0.3,1,0.2,1.3-0.3l1.4-2.1l2.1,1.4c0.4,0.3,1,0.2,1.3-0.3c0.3-0.4,0.2-1-0.3-1.3l-2.1-1.4l1.4-2.1
					C497.7,57.3,497.6,56.7,497.2,56.4L497.2,56.4z M488,60.6l-6.6,1.4c-0.5,0.1-0.8,0.6-0.7,1.1c0.1,0.5,0.6,0.8,1.1,0.7l6.6-1.4
					c0.5-0.1,0.8-0.6,0.7-1.1S488.5,60.5,488,60.6z"/>
			</g>
		</g>
		<g>
			<path class="st1" d="M513.5,67.4l-1.8-0.5c-0.2,0-0.3,0.1-0.4,0.2c0,0.2,0.1,0.3,0.2,0.4l1.8,0.5c0.1,0,0.2,0,0.2,0
				c0.1,0,0.1-0.1,0.1-0.2C513.8,67.6,513.7,67.4,513.5,67.4z M515.1,62.1c-0.2,0.1-0.2,0.3-0.1,0.4l0.9,1.6
				c0.1,0.2,0.3,0.2,0.4,0.1c0.2-0.1,0.2-0.3,0.1-0.4l-0.9-1.6C515.4,62.1,515.2,62,515.1,62.1z M521.3,61.3c-0.2,0-0.3,0.1-0.4,0.2
				l-0.5,1.8c0,0.2,0.1,0.3,0.2,0.4c0.1,0,0.2,0,0.2,0c0.1,0,0.1-0.1,0.1-0.2l0.5-1.8C521.6,61.5,521.5,61.3,521.3,61.3L521.3,61.3z
				 M525.9,64.9l-1.6,0.9c-0.2,0.1-0.2,0.3-0.1,0.4c0.1,0.2,0.3,0.2,0.4,0.1l1.6-0.9c0.2-0.1,0.2-0.3,0.1-0.4
				C526.2,64.9,526,64.8,525.9,64.9z M513.9,72l-1.6,0.9c-0.2,0.1-0.2,0.3-0.1,0.4c0.1,0.2,0.3,0.2,0.4,0.1l1.6-0.9
				c0.2-0.1,0.2-0.3,0.1-0.4C514.2,71.9,514,71.9,513.9,72z M523.7,66.6c-1.4-2.4-4.6-3.3-7-1.8c-2.4,1.4-3.3,4.6-1.8,7
				c0.5,0.8,1.2,1.5,2.1,2l3.7,2.3l-0.1,0.1c-0.5,0.3-0.7,1-0.4,1.5c0.2,0.3,0.4,0.5,0.7,0.5c-0.1,0.3,0,0.6,0.1,0.9
				c0.3,0.5,1,0.7,1.5,0.4l0.8-0.5c0.5,0.5,1.3,0.7,1.9,0.3c0.6-0.4,0.9-1.2,0.7-1.8l0.8-0.5c0.5-0.3,0.7-1,0.4-1.5
				c-0.2-0.3-0.4-0.5-0.7-0.5c0.1-0.3,0-0.6-0.1-0.9c-0.3-0.5-1-0.7-1.5-0.4l-0.1,0.1l-0.2-4.3C524.4,68.4,524.2,67.5,523.7,66.6z
				 M524.8,78.7c-0.3,0.2-0.8,0.2-1-0.1l1.5-0.9C525.3,78.1,525.1,78.5,524.8,78.7z M526.3,76.4l-4.3,2.5c-0.2,0.1-0.5,0.1-0.7-0.2
				c-0.1-0.2-0.1-0.5,0.2-0.7l4.3-2.5c0.2-0.1,0.5-0.1,0.7,0.2C526.6,76,526.5,76.3,526.3,76.4z M525,74.2c0.2-0.1,0.5-0.1,0.7,0.2
				c0.1,0.2,0.1,0.5-0.2,0.7l-4.3,2.5c-0.2,0.1-0.5,0.1-0.7-0.2s-0.1-0.5,0.2-0.7L525,74.2z M520.1,72.6l0.5-1l1.2,0l1.1,3.1
				l-0.7,0.4L520.1,72.6z M523.7,69.4l0.2,4.7l-0.5,0.3l-1.1-3.1L523,70c0.1-0.2,0-0.4-0.1-0.4c-0.2-0.1-0.4,0-0.4,0.1l-0.6,1.2
				l-1.4,0c-0.1,0-0.2,0.1-0.3,0.2l-0.6,1.2l-1.4,0c-0.2,0-0.3,0.1-0.3,0.3c0,0.2,0.1,0.3,0.3,0.3l1.5,0l2.1,2.5l-0.5,0.3l-4-2.4
				c0,0,0,0,0,0c-0.8-0.4-1.4-1-1.8-1.7c-1.3-2.1-0.5-4.9,1.6-6.1c2.1-1.3,4.9-0.5,6.1,1.6C523.6,67.7,523.8,68.5,523.7,69.4
				C523.7,69.4,523.7,69.4,523.7,69.4L523.7,69.4z"/>
			<path class="st15" d="M521.8,71.6l1.1,3.1l-0.7,0.4l-2.2-2.5l0.5-1L521.8,71.6z"/>
			<path class="st14" d="M523.1,66.9c0.4,0.7,0.6,1.6,0.6,2.5c0,0,0,0,0,0l0.2,4.7l-0.5,0.3l-1.1-3.1L523,70c0.1-0.2,0-0.4-0.1-0.4
				c-0.2-0.1-0.4,0-0.4,0.1l-0.6,1.2l-1.4,0c-0.1,0-0.2,0.1-0.3,0.2l-0.6,1.2l-1.4,0c-0.2,0-0.3,0.1-0.3,0.3c0,0.2,0.1,0.3,0.3,0.3
				l1.5,0l2.1,2.5l-0.5,0.3l-4-2.4c0,0,0,0,0,0c-0.8-0.4-1.4-1-1.8-1.7c-1.3-2.1-0.5-4.9,1.6-6.1C519.1,64.1,521.9,64.8,523.1,66.9
				L523.1,66.9z"/>
			<g>
				<path class="st15" d="M525.7,74.4c0.1,0.2,0.1,0.5-0.2,0.7l-4.3,2.5c-0.2,0.1-0.5,0.1-0.7-0.2c-0.1-0.2-0.1-0.5,0.2-0.7l4.3-2.5
					C525.2,74,525.5,74.1,525.7,74.4z"/>
				<path class="st15" d="M526.5,75.7c0.1,0.2,0.1,0.5-0.2,0.7l-4.3,2.5c-0.2,0.1-0.5,0.1-0.7-0.2c-0.1-0.2-0.1-0.5,0.2-0.7l4.3-2.5
					C526,75.4,526.3,75.5,526.5,75.7z"/>
				<path class="st15" d="M525.2,77.8c0.1,0.4-0.1,0.8-0.4,1c-0.3,0.2-0.8,0.2-1-0.1L525.2,77.8z"/>
			</g>
		</g>
		<g>
			<path class="st16" d="M488.6,77.8c-0.4,0.2-0.5,0.7-0.3,1l4.5,7.6c0.2,0.4,0.7,0.5,1,0.3l7.6-4.5c0.4-0.2,0.5-0.7,0.3-1l-2.2-3.8
				c-0.2-0.4-0.1-0.8,0.3-1s0.8-0.1,1,0.3l2.2,3.8c0.6,1.1,0.3,2.4-0.8,3l-7.6,4.5c-1.1,0.6-2.4,0.3-3-0.8l-4.5-7.6
				c-0.6-1.1-0.3-2.4,0.8-3l6.4-3.7c0.4-0.2,0.8-0.1,1,0.3c0.2,0.4,0.1,0.8-0.3,1L488.6,77.8z M497.4,72c0.1-0.4,0.5-0.6,0.9-0.5
				s0.6,0.5,0.5,0.9l-2.4,9.1c-0.1,0.4-0.5,0.6-0.9,0.5l-3-0.8c-0.4-0.1-0.6-0.5-0.5-0.9c0.1-0.4,0.5-0.6,0.9-0.5l2.3,0.6L497.4,72z
				"/>
		</g>
		<g>
			<path class="st1" d="M520.1,99.4C520.1,99.5,520,99.5,520.1,99.4c-0.3,0.2-0.6,0.2-0.9,0.2l-6.4-1.7l-1.7,6.5
				c-0.1,0.2-0.2,0.4-0.4,0.5l-0.1,0c0,0,0,0-0.1,0c-0.2,0.1-0.5,0.2-0.7,0.1c-0.5-0.1-0.8-0.7-0.7-1.2l1.7-6.5l-6.5-1.7
				c-0.5-0.2-0.8-0.8-0.6-1.3c0.1-0.2,0.2-0.4,0.4-0.5c0.2-0.1,0.5-0.2,0.7-0.1l6.5,1.7l1.7-6.4c0.1-0.2,0.2-0.4,0.5-0.6
				c0.2-0.1,0.5-0.2,0.8-0.1c0.5,0.1,0.8,0.6,0.7,1.1l-1.7,6.4l6.4,1.7c0.5,0.1,0.9,0.7,0.8,1.2c0,0,0,0,0,0
				C520.5,99.1,520.3,99.3,520.1,99.4z"/>
			<path class="st17" d="M520,98.9C520,98.9,519.9,98.9,520,98.9c-0.3,0.2-0.6,0.2-0.9,0.2l-6.4-1.7l-1.7,6.5
				c-0.1,0.2-0.2,0.4-0.4,0.5l-0.1,0c0,0,0,0-0.1,0c-0.2,0.1-0.5,0.2-0.7,0.1c-0.5-0.1-0.8-0.7-0.7-1.2l1.7-6.5l-6.5-1.7
				c-0.5-0.2-0.8-0.8-0.6-1.3c0.1-0.2,0.2-0.4,0.4-0.5c0.2-0.1,0.5-0.2,0.7-0.1l6.5,1.7l1.7-6.4c0.1-0.2,0.2-0.4,0.5-0.6
				c0.2-0.1,0.5-0.2,0.8-0.1c0.5,0.1,0.8,0.6,0.7,1.1l-1.7,6.4l6.4,1.7c0.5,0.1,0.9,0.7,0.8,1.2c0,0,0,0,0,0
				C520.4,98.6,520.2,98.8,520,98.9z"/>
		</g>
		<g>
			<g id="g7830_16_" transform="translate(293.2144,407.6475)">
				<path id="path7832_16_" class="st18" d="M209.4-379.6l-20.3,11.8c-0.3,0.2-0.5,0.6-0.3,1l2.2,3.7c0.2,0.3,0.6,0.5,1,0.3
					l20.3-11.8c0.3-0.2,0.5-0.6,0.3-1l-2.2-3.7C210.1-379.7,209.7-379.8,209.4-379.6"/>
			</g>
			<g id="g7834_16_" transform="translate(293.2144,407.6475)">
				<path id="path7836_16_" class="st19" d="M209.4-379.6l-5.8,3.4c0.3-0.2,0.8-0.1,1,0.3l2.2,3.7c0.2,0.3,0.1,0.8-0.3,1l5.8-3.4
					c0.3-0.2,0.5-0.6,0.3-1l-2.2-3.7C210.1-379.7,209.7-379.8,209.4-379.6"/>
			</g>
			<g id="g7838_16_" transform="translate(128.1699,407.6475)">
				<path id="path7840_16_" class="st20" d="M354.1-367.7l20.3-11.8c0.3-0.2,0.8-0.1,1,0.3l2.2,3.7c0.2,0.3,0.1,0.8-0.3,1
					l-20.3,11.8c-0.3,0.2-0.8,0.1-1-0.3l-2.2-3.7C353.7-367.1,353.8-367.5,354.1-367.7z"/>
			</g>
		</g>
		<g>
			<path class="st21" d="M486,12.9c-1.4-2.4-4.6-3.3-7-1.8c-2.4,1.4-3.3,4.6-1.8,7l-8.9,5.2l5.2,8.9c0.7,1.2,2.2,1.6,3.4,0.9
				l22.3-13c1.2-0.7,1.6-2.2,0.9-3.4l-5.2-8.9L486,12.9z"/>
			<path class="st22" d="M478.4,32.1l20.8-12.2c1.2-0.7,1.6-2.2,0.9-3.4l-5.2-8.9l-8.9,5.2c-1.4-2.4-4.6-3.3-7-1.8
				c-2.4,1.4-3.3,4.6-1.8,7l-8.9,5.2l5.2,8.9c0.7,1.2,2.2,1.6,3.4,0.9l3.1-1.8"/>
			<line class="st22" x1="476.6" y1="27.3" x2="494.3" y2="16.9"/>
			<g>
				<g>
					<line class="st22" x1="481.6" y1="15.5" x2="481.6" y2="15.5"/>
				</g>
			</g>
		</g>
	</g>
	<g>
		<g>
			<g>
				<path class="st23" d="M290.5,119.4l-1.6,1.6l-7.4-7.4l1.6-1.6c2-2,5.3-2,7.4,0C292.5,114.1,292.5,117.4,290.5,119.4L290.5,119.4
					z"/>
			</g>
			<g>
				<path class="st23" d="M299,144.8l-17.8,17.8c-11.4,11.4-29.9,11.4-41.3,0c-11.4-11.4-11.4-29.9,0-41.3l17.8-17.8
					c3.8-3.8,9.9-3.8,13.6,0l27.7,27.7C302.8,134.9,302.8,141,299,144.8z"/>
			</g>
			<g>
				<path class="st24" d="M273.4,168.2c-10.9,5.3-24.4,3.5-33.5-5.6c-5.7-5.7-8.6-13.2-8.6-20.7c0-7.5,2.9-14.9,8.6-20.7l17.8-17.8
					c1.7-1.7,3.8-2.6,6-2.8c-3,1.6-5.7,3.7-8.2,6.1c-14.2,14.2-14.2,37.3,0,51.5C260.6,163.5,266.9,166.7,273.4,168.2L273.4,168.2z"
					/>
			</g>
			<g>
				<path class="st1" d="M260.6,172.5c-7.8,0-15.7-3-21.6-8.9c-11.9-11.9-11.9-31.3,0-43.3l17.8-17.8c2.1-2.1,4.9-3.2,7.8-3.2
					c3,0,5.7,1.2,7.8,3.2l27.7,27.7c2.1,2.1,3.2,4.9,3.2,7.8s-1.2,5.7-3.2,7.8l-17.8,17.8C276.3,169.5,268.4,172.5,260.6,172.5
					L260.6,172.5z M264.5,102c-2.2,0-4.3,0.9-5.9,2.4l-17.8,17.8c-10.8,10.8-10.8,28.5,0,39.4c10.8,10.8,28.5,10.8,39.4,0l17.8-17.8
					c1.6-1.6,2.4-3.6,2.4-5.9s-0.9-4.3-2.4-5.9l-27.6-27.6C268.8,102.9,266.7,102,264.5,102L264.5,102z"/>
			</g>
			<g>
				<g>
					<path class="st25" d="M292.8,132.3L278.1,147c-6.2,6.2-16.4,6.2-22.6,0c-6.2-6.2-6.2-16.4,0-22.6l14.6-14.6
						c2.1-2.1,5.4-2.1,7.5,0l15.1,15.1C294.8,126.9,294.8,130.3,292.8,132.3z"/>
				</g>
				<g>
					<path class="st26" d="M270.8,151.2c-5.3,1.4-11.1-0.1-15.2-4.2c-3.1-3.1-4.7-7.2-4.7-11.3s1.6-8.2,4.7-11.3l14.6-14.6
						c2-2,5.2-2.1,7.3-0.2c-1.3,0.8-2.5,1.8-3.6,2.9c-8.9,8.9-13.8,28.2-4.9,37C269.5,150.1,270.1,150.7,270.8,151.2L270.8,151.2z"
						/>
				</g>
				<g>
					<path class="st1" d="M266.8,153c-4.4,0-8.9-1.7-12.3-5.1c-6.8-6.8-6.8-17.8,0-24.6l14.6-14.6c2.6-2.6,6.8-2.6,9.4,0l15.1,15.1
						c2.6,2.6,2.6,6.8,0,9.4L279.1,148C275.7,151.4,271.3,153,266.8,153L266.8,153z M273.9,109.6c-1,0-2,0.4-2.8,1.1l-14.6,14.6
						c-5.7,5.7-5.7,15,0,20.6c5.7,5.7,15,5.7,20.6,0l14.6-14.6c1.5-1.5,1.5-4,0-5.5l-15.1-15.1C275.9,110,274.9,109.6,273.9,109.6
						L273.9,109.6z"/>
				</g>
			</g>
			<g>
				<path class="st1" d="M288.9,122.4c-0.4,0-0.7-0.1-1-0.4l-7.4-7.4c-0.5-0.5-0.5-1.4,0-2l1.6-1.6c2.6-2.6,6.8-2.6,9.3,0
					c2.6,2.6,2.6,6.8,0,9.3l-1.6,1.6C289.6,122.3,289.2,122.4,288.9,122.4L288.9,122.4z M283.5,113.6l5.4,5.4l0.6-0.6
					c1.5-1.5,1.5-3.9,0-5.4c-1.5-1.5-3.9-1.5-5.4,0L283.5,113.6z"/>
			</g>
		</g>
		<g>
			<path class="st27" d="M278.7,129.5l-4.9,4.9c-1.7,1.7-4.3,1.7-6,0c-1.7-1.7-1.7-4.3,0-6l4.9-4.9c1.7-1.7,4.3-1.7,6,0
				C280.3,125.1,280.3,127.8,278.7,129.5z"/>
		</g>
		<g>
			<path class="st28" d="M274.2,133.9l-0.5,0.5c-1.6,1.6-4.3,1.7-6,0c-0.8-0.8-1.2-1.9-1.2-3c0-1.1,0.4-2.2,1.2-3l4.9-4.9
				c1.5-1.5,3.8-1.6,5.5-0.4c-4.2,4.5-6.3,9-4.9,10.5C273.5,133.8,273.8,133.9,274.2,133.9z"/>
		</g>
		<g>
			<path class="st1" d="M270.7,137c-1.5,0-2.9-0.6-4-1.6c-2.2-2.2-2.2-5.8,0-8l4.9-4.9c2.2-2.2,5.8-2.2,8,0c2.2,2.2,2.2,5.8,0,8
				l-4.9,4.9C273.6,136.5,272.2,137,270.7,137L270.7,137z M275.6,123.6c-0.7,0-1.5,0.3-2,0.8l-4.9,4.9c-1.1,1.1-1.1,2.9,0,4.1
				c1.1,1.1,3,1.1,4.1,0l4.9-4.9c1.1-1.1,1.1-2.9,0-4.1C277.1,123.9,276.4,123.6,275.6,123.6L275.6,123.6z"/>
		</g>
		<g>
			<ellipse class="st25" cx="320.9" cy="81.6" rx="27.1" ry="27.1"/>
		</g>
		<g>
			<path class="st26" d="M347.2,88.2c-3,11.8-13.6,20.5-26.3,20.5c-15,0-27.1-12.1-27.1-27.1c0-9.4,4.8-17.7,12.1-22.6
				c-0.5,2.1-0.8,4.3-0.8,6.6c0,15,12.1,27.1,27.1,27.1C337.7,92.7,342.9,91,347.2,88.2L347.2,88.2z"/>
		</g>
		<g>
			<ellipse class="st27" cx="320.9" cy="81.6" rx="17.8" ry="17.8"/>
		</g>
		<g>
			<path class="st29" d="M338.5,84.7c-1.5,8.4-8.8,14.7-17.6,14.7c-9.8,0-17.8-8-17.8-17.8c0-7.9,5.2-14.7,12.4-17
				c-0.2,1-0.3,2.1-0.3,3.1c0,9.8,8,17.8,17.8,17.8C334.9,85.6,336.7,85.3,338.5,84.7L338.5,84.7z"/>
		</g>
		<g>
			<path class="st1" d="M320.9,100.8c-10.6,0-19.2-8.6-19.2-19.2s8.6-19.2,19.2-19.2c10.6,0,19.2,8.6,19.2,19.2
				S331.5,100.8,320.9,100.8L320.9,100.8z M320.9,65.2c-9.1,0-16.4,7.4-16.4,16.4S311.8,98,320.9,98s16.4-7.4,16.4-16.4
				C337.3,72.5,330,65.2,320.9,65.2L320.9,65.2z"/>
		</g>
		<g>
			<path class="st1" d="M320.9,110.1c-15.7,0-28.5-12.8-28.5-28.5s12.8-28.5,28.5-28.5c15.7,0,28.5,12.8,28.5,28.5
				S336.6,110.1,320.9,110.1z M320.9,55.9c-14.2,0-25.7,11.5-25.7,25.7s11.5,25.7,25.7,25.7c14.2,0,25.7-11.5,25.7-25.7
				S335.1,55.9,320.9,55.9z"/>
		</g>
		<g>
			<g>
				<path class="st1" d="M320.9,83c-3,0-5.3-2.4-5.3-5.3s2.4-5.3,5.3-5.3c3,0,5.3,2.4,5.3,5.3c0,0.8-0.6,1.4-1.4,1.4
					s-1.4-0.6-1.4-1.4c0-1.4-1.2-2.6-2.6-2.6c-1.4,0-2.6,1.2-2.6,2.6s1.2,2.6,2.6,2.6c0.8,0,1.4,0.6,1.4,1.4
					C322.3,82.4,321.7,83,320.9,83L320.9,83z"/>
			</g>
			<g>
				<path class="st1" d="M320.9,90.9c-3,0-5.3-2.4-5.3-5.3c0-0.8,0.6-1.4,1.4-1.4s1.4,0.6,1.4,1.4c0,1.4,1.2,2.6,2.6,2.6
					c1.4,0,2.6-1.2,2.6-2.6s-1.2-2.6-2.6-2.6c-0.8,0-1.4-0.6-1.4-1.4s0.6-1.4,1.4-1.4c3,0,5.3,2.4,5.3,5.3
					C326.2,88.5,323.8,90.9,320.9,90.9L320.9,90.9z"/>
			</g>
			<g>
				<path class="st1" d="M320.9,75.1c-0.8,0-1.4-0.6-1.4-1.4v-2.5c0-0.8,0.6-1.4,1.4-1.4c0.8,0,1.4,0.6,1.4,1.4v2.5
					C322.3,74.4,321.7,75.1,320.9,75.1z"/>
			</g>
			<g>
				<path class="st1" d="M320.9,93.2c-0.8,0-1.4-0.6-1.4-1.4v-2.3c0-0.8,0.6-1.4,1.4-1.4c0.8,0,1.4,0.6,1.4,1.4v2.3
					C322.3,92.6,321.7,93.2,320.9,93.2z"/>
			</g>
		</g>
		<g>
			<path class="st1" d="M316.5,130.9c-1.6,0-3.1-0.6-4.3-1.8L296.1,113c-1.3-1.3-3.4-1.3-4.7,0c-0.5,0.5-1.4,0.5-2,0
				c-0.5-0.5-0.5-1.4,0-2c2.4-2.4,6.2-2.4,8.6,0l16.1,16.1c1.2,1.2,2.6,1.1,3.6,0.7s2.1-1.4,2.1-3.1v-16.1c0-0.8,0.6-1.4,1.4-1.4
				s1.4,0.6,1.4,1.4v16.1c0,2.5-1.4,4.7-3.8,5.6C318.1,130.7,317.2,130.9,316.5,130.9L316.5,130.9z"/>
		</g>
		<g>
			<path class="st1" d="M285.2,72.4c-0.3,0-0.6-0.1-0.8-0.3l-9.5-7.3c-0.6-0.5-0.7-1.3-0.3-1.9s1.3-0.7,1.9-0.3L286,70
				c0.6,0.5,0.7,1.3,0.3,1.9C286,72.2,285.6,72.4,285.2,72.4z"/>
		</g>
		<g>
			<path class="st1" d="M275.7,90.4c-0.4,0-0.8-0.2-1.1-0.5c-0.5-0.6-0.4-1.5,0.3-1.9l9.5-7.3c0.6-0.5,1.5-0.4,1.9,0.3
				c0.5,0.6,0.4,1.5-0.3,1.9l-9.5,7.3C276.3,90.3,276,90.4,275.7,90.4L275.7,90.4z"/>
		</g>
		<g>
			<path class="st1" d="M285.2,77.8h-9.5c-0.8,0-1.4-0.6-1.4-1.4s0.6-1.4,1.4-1.4h9.5c0.8,0,1.4,0.6,1.4,1.4S286,77.8,285.2,77.8z"
				/>
		</g>
	</g>
	<g>
		<path class="st30" d="M9.9,91.2l87.5,29.2c2.7,0.9,5.5-0.5,6.4-3.2l29.4-88.3L57.7,3.7L35.3,14.9L9.9,91.2z"/>
		<circle class="st31" cx="119" cy="31.3" r="1.9"/>
		<circle class="st31" cx="100.1" cy="25" r="1.9"/>
		<circle class="st31" cx="81.1" cy="18.7" r="1.9"/>
		<circle class="st31" cx="62.2" cy="12.4" r="1.9"/>
		<path class="st32" d="M82.1,54.7l-4.2,12.5l0,0l-7.2-2.4c-0.7-0.2-1-0.9-0.8-1.6l3.4-10.1c0.2-0.7,0.9-1,1.6-0.8L82.1,54.7
			L82.1,54.7z"/>
		<path class="st33" d="M113.2,45.3l-9.7,29c-0.2,0.7-0.9,1-1.6,0.8l-7.2-2.4l0,0l10.1-30.2c0.2-0.7,0.9-1,1.6-0.8l6,2
			C113.1,43.9,113.4,44.7,113.2,45.3z"/>
		<path class="st34" d="M92.6,51.2L86.3,70l0,0l-8.4-2.8l0,0l5.8-17.5c0.2-0.7,0.9-1,1.6-0.8L92.6,51.2L92.6,51.2z"/>
		<path class="st35" d="M103.1,47.6l-8.4,25.2l0,0L86.3,70l0,0l8-24c0.2-0.7,0.9-1,1.6-0.8L103.1,47.6L103.1,47.6z"/>
		<path class="st36" d="M21.9,95.2l-12-4l25.4-76.3l9.6-4.8L18.7,88.8C17.8,91.5,19.3,94.4,21.9,95.2z"/>
		<path class="st37" d="M35.3,14.9l12,4c2.7,0.9,5.5-0.5,6.4-3.2v0l4-12L35.3,14.9z"/>
		<path class="st31" d="M66.6,46.1l-26.4-8.8c-1-0.3-1.5-1.4-1.2-2.4c0.3-1,1.4-1.5,2.4-1.2l26.4,8.8c1,0.3,1.5,1.4,1.2,2.4
			C68.7,45.9,67.6,46.5,66.6,46.1z"/>
		<path class="st31" d="M56.6,51.9l-9.4-3.1c-1-0.3-1.5-1.4-1.2-2.4c0.3-1,1.4-1.5,2.4-1.2l9.4,3.1c1,0.3,1.5,1.4,1.2,2.4
			S57.6,52.2,56.6,51.9z"/>
		<path class="st31" d="M41.7,46.9l-4.2-1.4c-1-0.3-1.5-1.4-1.2-2.4c0.3-1,1.4-1.5,2.4-1.2l4.2,1.4c1,0.3,1.5,1.4,1.2,2.4
			C43.7,46.7,42.7,47.2,41.7,46.9z"/>
		<path class="st31" d="M69.3,38l-19.7-6.6c-1-0.3-1.5-1.4-1.2-2.4c0.3-1,1.4-1.5,2.4-1.2l19.7,6.6c1,0.3,1.5,1.4,1.2,2.4
			S70.3,38.3,69.3,38z"/>
		<circle class="st31" cx="45.3" cy="28" r="1.9"/>
		<circle class="st31" cx="62.7" cy="51.9" r="1.9"/>
		<path class="st31" d="M93.1,97.6l-26.4-8.8c-1-0.3-1.5-1.4-1.2-2.4c0.3-1,1.4-1.5,2.4-1.2L94.3,94c1,0.3,1.5,1.4,1.2,2.4
			S94.1,97.9,93.1,97.6z"/>
		<path class="st31" d="M83.2,103.3l-9.4-3.1c-1-0.3-1.5-1.4-1.2-2.4c0.3-1,1.4-1.5,2.4-1.2l9.4,3.1c1,0.3,1.5,1.4,1.2,2.4
			C85.3,103.1,84.2,103.7,83.2,103.3z"/>
		<path class="st31" d="M68.2,98.4L64,97c-1-0.3-1.5-1.4-1.2-2.4s1.4-1.5,2.4-1.2l4.2,1.4c1,0.3,1.5,1.4,1.2,2.4
			S69.2,98.7,68.2,98.4z"/>
		<path class="st31" d="M95.9,89.4l-19.7-6.6c-1-0.3-1.5-1.4-1.2-2.4c0.3-1,1.4-1.5,2.4-1.2l19.7,6.6c1,0.3,1.5,1.4,1.2,2.4
			S96.9,89.8,95.9,89.4z"/>
		<circle class="st31" cx="71.9" cy="79.4" r="1.9"/>
		<circle class="st31" cx="89.2" cy="103.4" r="1.9"/>
		<path class="st38" d="M58.1,93.6l2.4-7.1c0.4-1.2-0.2-2.6-1.4-3.1l-5.1-2.2c0-1.4-0.1-2.8-0.3-4.2l4.8-3c1.1-0.7,1.5-2.1,0.9-3.3
			L56,64c-0.6-1.2-2-1.7-3.2-1.2l-5.2,2c-1-1-2-1.9-3.2-2.8l1.3-5.5c0.3-1.3-0.4-2.6-1.7-3l-7.1-2.4c-1.2-0.4-2.6,0.2-3.1,1.4
			l-2.2,5.1c-1.4,0-2.8,0.1-4.2,0.3l-3-4.8c-0.7-1.1-2.1-1.5-3.3-0.9l-6.7,3.3c-1.2,0.6-1.7,2-1.2,3.2l2,5.2c-1,1-1.9,2-2.8,3.2
			L7,66c-1.3-0.3-2.6,0.4-3,1.7l-2.4,7.1c-0.4,1.2,0.2,2.6,1.4,3.1l5.1,2.2c0,1.4,0.1,2.8,0.3,4.2l-4.8,3c-1.1,0.7-1.5,2.1-0.9,3.3
			l3.3,6.7c0.6,1.2,2,1.7,3.2,1.2l5.2-2c1,1,2,1.9,3.2,2.8l-1.3,5.5c-0.3,1.3,0.4,2.6,1.7,3l7.1,2.4c1.2,0.4,2.6-0.2,3.1-1.4
			l2.2-5.1c1.4,0,2.8-0.1,4.2-0.3l3,4.8c0.7,1.1,2.1,1.5,3.3,0.9l6.7-3.3c1.2-0.6,1.7-2,1.2-3.2l-2-5.2c1-1,1.9-2,2.8-3.2l5.5,1.3
			C56.4,95.6,57.7,94.8,58.1,93.6L58.1,93.6z M27.7,90.9c-5.6-1.9-8.7-8-6.8-13.6c1.9-5.6,8-8.7,13.6-6.8s8.7,8,6.8,13.6l0,0
			C39.4,89.7,33.3,92.7,27.7,90.9z"/>
		<path class="st39" d="M21.1,52.4l-6.7,3.3c-1.2,0.6-1.7,2-1.2,3.2l2,5.2c3.3-3.2,7.6-5.3,12.1-6.1l-3-4.8
			C23.7,52.2,22.3,51.8,21.1,52.4L21.1,52.4z"/>
		<path class="st39" d="M8.5,84.4l-4.8,3c-1.1,0.7-1.5,2.1-0.9,3.3l3.4,6.7c0.6,1.2,2,1.7,3.2,1.2l5.2-2
			C11.4,93.1,9.3,88.9,8.5,84.4z"/>
		<path class="st39" d="M9.4,73.4c0.7-2.2,1.8-4.2,3.1-6.1L7,66c-1.3-0.3-2.6,0.4-3,1.7l-2.4,7.1c-0.4,1.2,0.2,2.6,1.4,3.1l5.1,2.2
			C8.3,77.9,8.7,75.6,9.4,73.4L9.4,73.4z"/>
		<path class="st39" d="M35.5,67.5C28.2,65,20.3,69,17.9,76.3s1.5,15.2,8.8,17.6s15.2-1.5,17.6-8.8l0,0
			C46.7,77.8,42.8,69.9,35.5,67.5z M29.1,86.7c-3.3-1.1-5.1-4.7-4-8c1.1-3.3,4.7-5.1,8-4c3.3,1.1,5.1,4.7,4,8
			C36,86,32.4,87.8,29.1,86.7z"/>
		<path class="st40" d="M123,39.7l-16.5,49.5l1.4,12.2c0.1,0.7,0.7,1.2,1.4,1.1c0.3,0,0.6-0.2,0.8-0.4l8.4-8.9L135,43.7L123,39.7z"
			/>
		<path class="st41" d="M137.4,36.5l-12-4l1.6-4.8c1.1-3.3,4.7-5.1,8-4c3.3,1.1,5.1,4.7,4,8L137.4,36.5z"/>
		<path class="st42" d="M125.4,32.5l12,4l-2.4,7.2l-12-4L125.4,32.5z"/>
		<path class="st43" d="M125.4,32.5l4.8,1.6l-2.4,7.2l-4.8-1.6L125.4,32.5z"/>
		<path class="st44" d="M112.3,99.7l-2.3,2.4c-0.5,0.5-1.3,0.5-1.8,0c-0.2-0.2-0.4-0.5-0.4-0.8l-1.4-12.2L123,39.7l4.8,1.6
			l-16.5,49.5L112.3,99.7z"/>
		<path class="st45" d="M133.8,23.4l-3.6,10.7l-4.8-1.6l1.6-4.8C127.9,24.8,130.8,23,133.8,23.4z"/>
		<g>
			<g>
				<path class="st1" d="M31.1,95.4c-1.6,0-3.2-0.3-4.7-0.8c-3.7-1.2-6.8-3.9-8.5-7.4c-1.8-3.5-2-7.5-0.8-11.2c2-6,7.6-10.1,14-10.1
					c1.6,0,3.1,0.3,4.7,0.8c2.9,0.9,5.3,2.7,7.1,5.1C43,72,43,72.2,43,72.4s-0.1,0.4-0.3,0.5c-0.2,0.1-0.4,0.2-0.5,0.2
					c-0.3,0-0.5-0.1-0.6-0.3c-2.5-3.3-6.3-5.2-10.5-5.2c-2.9,0-5.6,0.9-7.9,2.6c-2.8,2.1-4.6,5.2-5.1,8.6c-0.5,3.5,0.4,6.9,2.5,9.7
					c2.5,3.3,6.3,5.2,10.5,5.2c2.9,0,5.6-0.9,7.9-2.6c4.2-3.1,6.1-8.4,4.9-13.5c0-0.2,0-0.4,0.1-0.6c0.1-0.2,0.3-0.3,0.5-0.4
					c0.1,0,0.1,0,0.2,0c0.4,0,0.7,0.3,0.8,0.6c1.9,7.9-3.1,15.8-11,17.7C33.4,95.2,32.2,95.4,31.1,95.4z M31.1,87.8
					c-0.8,0-1.5-0.1-2.3-0.4c-1.8-0.6-3.3-1.9-4.1-3.6c-0.9-1.7-1-3.6-0.4-5.4c1-2.9,3.7-4.9,6.8-4.9c0.8,0,1.5,0.1,2.3,0.4
					c1.8,0.6,3.3,1.9,4.1,3.6c0.9,1.7,1,3.6,0.4,5.4C36.9,85.8,34.2,87.8,31.1,87.8z M31.1,75.1c-2.4,0-4.5,1.5-5.2,3.8
					c-0.5,1.4-0.4,2.9,0.3,4.2c0.7,1.3,1.8,2.3,3.2,2.8c0.6,0.2,1.2,0.3,1.7,0.3c2.4,0,4.5-1.5,5.2-3.8c1-2.9-0.6-6-3.5-7
					C32.3,75.2,31.7,75.1,31.1,75.1z"/>
				<path class="st1" d="M31.1,95.8c-1.6,0-3.2-0.3-4.8-0.8c-3.8-1.3-6.9-4-8.8-7.6c-1.8-3.6-2.1-7.7-0.8-11.6
					c2.1-6.2,7.8-10.4,14.4-10.4c1.6,0,3.2,0.3,4.8,0.8c2.9,1,5.5,2.8,7.3,5.3c0.2,0.3,0.3,0.6,0.2,0.9c0,0.3-0.2,0.6-0.5,0.8
					c-0.3,0.2-0.5,0.2-0.7,0.2c-0.4,0-0.7-0.2-1-0.5c-2.4-3.2-6.1-5.1-10.2-5.1c-2.8,0-5.4,0.9-7.6,2.5c-2.7,2-4.5,5-4.9,8.4
					c-0.5,3.4,0.4,6.7,2.4,9.4c2.4,3.2,6.1,5.1,10.2,5.1c2.8,0,5.4-0.9,7.6-2.5c4-3,5.9-8.1,4.7-13.1c-0.1-0.3,0-0.6,0.1-0.9
					c0.2-0.3,0.4-0.5,0.8-0.5c0.7-0.1,1.3,0.3,1.5,0.9c1.9,8.1-3.1,16.3-11.3,18.2C33.4,95.6,32.2,95.8,31.1,95.8z M31.1,66.3
					c-6.2,0-11.6,3.9-13.6,9.8c-1.2,3.6-0.9,7.5,0.8,10.9s4.7,6,8.3,7.2c2.5,0.8,5.2,1,7.8,0.4C42,92.8,46.8,85.1,45,77.4
					c0-0.2-0.2-0.3-0.4-0.3c-0.2,0-0.3,0.1-0.3,0.2c-0.1,0.1-0.1,0.2,0,0.3c1.2,5.2-0.8,10.7-5,13.9c-2.4,1.8-5.2,2.7-8.1,2.7
					c-4.3,0-8.2-2-10.8-5.4c-2.2-2.9-3.1-6.4-2.6-10c0.5-3.6,2.4-6.7,5.3-8.9c2.4-1.8,5.2-2.7,8.1-2.7c4.3,0,8.2,2,10.8,5.4
					c0.1,0.2,0.4,0.2,0.6,0.1c0.1-0.1,0.1-0.2,0.2-0.3c0-0.1,0-0.2-0.1-0.3c-1.8-2.3-4.2-4.1-6.9-5C34.1,66.6,32.6,66.3,31.1,66.3z
					 M31.1,88.2c-0.8,0-1.6-0.1-2.4-0.4c-1.9-0.6-3.5-2-4.4-3.8c-0.9-1.8-1-3.8-0.4-5.8c1-3.1,3.9-5.2,7.2-5.2
					c0.8,0,1.6,0.1,2.4,0.4c1.9,0.6,3.5,2,4.4,3.8c0.9,1.8,1,3.8,0.4,5.8C37.2,86.1,34.3,88.2,31.1,88.2z M31.1,73.9
					c-2.9,0-5.5,1.8-6.4,4.6c-0.6,1.7-0.4,3.5,0.4,5.1c0.8,1.6,2.2,2.8,3.9,3.4c0.7,0.2,1.4,0.3,2.1,0.3c2.9,0,5.5-1.8,6.4-4.6
					c0.6-1.7,0.4-3.5-0.4-5.1c-0.8-1.6-2.2-2.8-3.9-3.4C32.5,74,31.8,73.9,31.1,73.9z M31.1,86.6c-0.6,0-1.3-0.1-1.9-0.3
					c-1.5-0.5-2.7-1.6-3.4-3c-0.7-1.4-0.8-3-0.3-4.5c0.8-2.4,3.1-4.1,5.6-4.1c0.6,0,1.3,0.1,1.9,0.3c3.1,1,4.8,4.4,3.7,7.5
					C35.9,84.9,33.6,86.6,31.1,86.6z M31.1,75.5c-2.2,0-4.1,1.4-4.8,3.5c-0.4,1.3-0.3,2.7,0.3,3.9c0.6,1.2,1.7,2.1,3,2.6
					c0.5,0.2,1.1,0.3,1.6,0.3c2.2,0,4.1-1.4,4.8-3.5c0.9-2.7-0.6-5.6-3.2-6.5C32.2,75.6,31.6,75.5,31.1,75.5z"/>
			</g>
			<g>
				<path class="st1" d="M99,121.5c-0.6,0-1.3-0.1-1.9-0.3l-47.8-15.9l-0.5,0.5c-0.2,0.2-0.5,0.4-0.8,0.6l-6.7,3.3
					c-0.5,0.2-1,0.4-1.5,0.4c-1.2,0-2.2-0.6-2.8-1.6l-2.7-4.3l-0.7,0.1c-0.6,0.1-1.3,0.1-1.9,0.1l-0.7,0l-2,4.6c-0.5,1.2-1.7,2-3,2
					c-0.4,0-0.7-0.1-1.1-0.2l-7.1-2.4c-1.6-0.5-2.6-2.3-2.2-3.9l1.2-4.9l-0.5-0.4c-0.5-0.4-1-0.8-1.4-1.3l-0.5-0.5l-4.7,1.8
					c-0.4,0.2-0.8,0.2-1.2,0.2c-1.3,0-2.4-0.7-3-1.8L2.1,91c-0.8-1.5-0.2-3.4,1.2-4.3L7.6,84l-0.1-0.7c-0.1-0.6-0.1-1.3-0.1-1.9
					l0-0.7l-4.6-2c-1.6-0.7-2.4-2.5-1.8-4.1l2.4-7.1c0.5-1.4,1.7-2.3,3.2-2.3c0.3,0,0.5,0,0.8,0.1l4.9,1.2l0.4-0.5
					c0.4-0.5,0.8-1,1.3-1.4l0.5-0.5l-1.8-4.7c-0.6-1.6,0.1-3.4,1.6-4.2l6.7-3.3c0.5-0.2,1-0.4,1.5-0.4c1.2,0,2.2,0.6,2.8,1.6
					l2.7,4.3l0.7-0.1c0.6-0.1,1.3-0.1,1.9-0.1l0.7,0l2-4.6c0.5-1.2,1.7-2,3-2c0.4,0,0.7,0.1,1.1,0.2l7.1,2.4
					c1.6,0.5,2.6,2.3,2.2,3.9l-1.2,4.9l0.5,0.4c0.5,0.4,1,0.8,1.4,1.3l0.5,0.5l4.7-1.8c0.4-0.2,0.8-0.2,1.2-0.2c1.3,0,2.4,0.7,3,1.8
					l3.4,6.7c0.8,1.5,0.2,3.4-1.2,4.3l-4.3,2.7l0.1,0.7c0.1,0.6,0.1,1.3,0.1,1.9l0,0.7l4.6,2c1.6,0.7,2.4,2.5,1.8,4.1l-2.4,7.1
					c-0.5,1.4-1.7,2.3-3.2,2.3c-0.3,0-0.5,0-0.8-0.1L50,94.9l-0.4,0.5c-0.4,0.5-0.8,1-1.2,1.4l-0.5,0.5l1.8,4.7
					c0.1,0.3,0.2,0.6,0.2,0.9l0.1,0.7l47.7,15.9c0.4,0.1,0.9,0.2,1.3,0.2c1.8,0,3.5-1.2,4-2.9l3-9c0.1-0.3,0.4-0.6,0.8-0.6
					c0.1,0,0.2,0,0.3,0c0.4,0.1,0.7,0.6,0.5,1l-3,9C103.8,119.9,101.6,121.5,99,121.5L99,121.5z M14.6,95.7c0.2,0,0.4,0.1,0.6,0.3
					c0.9,1,2,1.9,3.1,2.7c0.3,0.2,0.4,0.5,0.3,0.8l-1.3,5.5c-0.2,0.9,0.3,1.7,1.1,2l7.1,2.4c0.2,0.1,0.4,0.1,0.5,0.1
					c0.7,0,1.3-0.4,1.6-1l2.2-5.1c0.1-0.3,0.4-0.5,0.7-0.5l0.5,0c1.2,0,2.4-0.1,3.6-0.3c0,0,0.1,0,0.1,0c0.3,0,0.5,0.1,0.7,0.4
					l3,4.8c0.3,0.5,0.9,0.8,1.5,0.8c0.3,0,0.5-0.1,0.8-0.2l6.7-3.3c0.8-0.4,1.2-1.3,0.8-2.2l-2-5.2c-0.1-0.3,0-0.7,0.2-0.9
					c1-0.9,1.9-2,2.7-3.1c0.2-0.2,0.4-0.3,0.7-0.3c0.1,0,0.1,0,0.2,0l5.5,1.3c0.1,0,0.3,0,0.4,0c0.7,0,1.4-0.5,1.6-1.2l2.4-7.1
					c0.3-0.8-0.1-1.8-0.9-2.1l-5.1-2.2c-0.3-0.1-0.5-0.4-0.5-0.8c0-1.4-0.1-2.7-0.3-4c-0.1-0.3,0.1-0.6,0.4-0.8l4.8-3
					c0.8-0.5,1-1.4,0.6-2.2l-3.3-6.7c-0.3-0.6-0.9-1-1.5-1c-0.2,0-0.4,0-0.6,0.1l-5.2,2c-0.1,0-0.2,0.1-0.3,0.1
					c-0.2,0-0.4-0.1-0.6-0.3c-0.9-1-2-1.9-3.1-2.7c-0.3-0.2-0.4-0.5-0.3-0.8l1.3-5.5c0.2-0.9-0.3-1.8-1.1-2L36.7,52
					c-0.2-0.1-0.4-0.1-0.5-0.1c-0.7,0-1.3,0.4-1.6,1l-2.2,5.1c-0.1,0.3-0.4,0.5-0.7,0.5l-0.5,0c-1.2,0-2.4,0.1-3.6,0.3
					c0,0-0.1,0-0.1,0c-0.3,0-0.5-0.1-0.7-0.4l-3-4.8c-0.3-0.5-0.9-0.8-1.5-0.8c-0.3,0-0.5,0.1-0.8,0.2l-6.7,3.3
					c-0.8,0.4-1.2,1.3-0.8,2.2l2,5.2c0.1,0.3,0,0.7-0.2,0.9c-1,0.9-1.9,2-2.7,3.1c-0.2,0.2-0.4,0.3-0.7,0.3c-0.1,0-0.1,0-0.2,0
					l-5.5-1.3c-0.1,0-0.3,0-0.4,0c-0.7,0-1.4,0.5-1.6,1.2l-2.4,7.1c-0.3,0.8,0.1,1.8,0.9,2.1l5.1,2.2C8.8,79.6,9,79.9,9,80.2
					c0,1.4,0.1,2.7,0.3,4c0.1,0.3-0.1,0.6-0.4,0.8l-4.8,3c-0.8,0.5-1,1.4-0.6,2.2l3.3,6.7c0.3,0.6,0.9,1,1.5,1c0.2,0,0.4,0,0.6-0.1
					l5.2-2C14.4,95.7,14.5,95.7,14.6,95.7z"/>
				<path class="st1" d="M99,121.9c-0.7,0-1.3-0.1-2-0.3l-47.6-15.8l-0.3,0.3c-0.3,0.3-0.6,0.5-0.9,0.7l-6.7,3.3
					c-0.5,0.3-1.1,0.4-1.7,0.4c-1.3,0-2.5-0.7-3.2-1.8l-2.5-4.1l-0.4,0c-0.6,0.1-1.3,0.1-1.9,0.1l-0.4,0l-1.9,4.4
					c-0.6,1.4-1.9,2.3-3.4,2.3c-0.4,0-0.8-0.1-1.2-0.2l-7.1-2.4c-1.8-0.6-2.9-2.5-2.5-4.4l1.1-4.7L16,99.5c-0.5-0.4-1-0.8-1.5-1.3
					l-0.3-0.3l-4.5,1.8c-0.4,0.2-0.9,0.3-1.4,0.3c-1.4,0-2.7-0.8-3.3-2.1l-3.3-6.7c-0.9-1.7-0.3-3.9,1.4-4.9l4.1-2.5l0-0.4
					C7.1,82.7,7,82,7,81.4L7,81L2.6,79c-1.8-0.8-2.7-2.8-2.1-4.6l2.4-7.1c0.5-1.5,1.9-2.6,3.5-2.6c0.3,0,0.6,0,0.9,0.1L12,66
					l0.3-0.3c0.4-0.5,0.8-1,1.3-1.5l0.3-0.3l-1.8-4.5c-0.7-1.8,0.1-3.9,1.8-4.7l6.7-3.3c0.5-0.3,1.1-0.4,1.7-0.4
					c1.3,0,2.5,0.7,3.2,1.8l2.5,4.1l0.4,0c0.6-0.1,1.3-0.1,1.9-0.1l0.4,0l1.9-4.4c0.6-1.4,1.9-2.3,3.4-2.3c0.4,0,0.8,0.1,1.2,0.2
					l7.1,2.4c1.8,0.6,2.9,2.5,2.5,4.4l-1.1,4.7l0.3,0.3c0.5,0.4,1,0.8,1.5,1.3l0.3,0.3l4.5-1.8c0.4-0.2,0.9-0.3,1.4-0.3
					c1.4,0,2.7,0.8,3.3,2.1l3.3,6.7c0.9,1.7,0.3,3.9-1.4,4.9L55,77.6l0,0.4c0.1,0.6,0.1,1.3,0.1,1.9l0,0.4l4.4,1.9
					c1.8,0.8,2.7,2.8,2.1,4.6L59.3,94c-0.5,1.5-1.9,2.6-3.5,2.6c-0.3,0-0.6,0-0.9-0.1l-4.7-1.1l-0.3,0.3c-0.4,0.5-0.8,1-1.3,1.5
					l-0.3,0.3l1.8,4.5c0.1,0.3,0.2,0.7,0.2,1.1l0,0.4l47.4,15.8c0.4,0.1,0.8,0.2,1.2,0.2c1.7,0,3.1-1.1,3.6-2.6l3-9
					c0.2-0.6,0.9-1,1.5-0.8c0.3,0.1,0.6,0.3,0.7,0.6c0.1,0.3,0.2,0.6,0.1,0.9l-3,9C104.1,120.2,101.7,121.9,99,121.9z M49.3,104.8
					l0.2,0.1l47.8,15.9c0.6,0.2,1.1,0.3,1.7,0.3c2.4,0,4.4-1.5,5.2-3.7l3-9c0-0.1,0-0.2,0-0.3c0-0.1-0.1-0.2-0.2-0.2
					c-0.2-0.1-0.4,0-0.5,0.3l-3,9c-0.6,1.9-2.4,3.2-4.4,3.2c-0.5,0-1-0.1-1.5-0.2l-48-16l-0.1-1c0-0.3-0.1-0.6-0.2-0.8l-1.9-5
					l0.7-0.7c0.4-0.5,0.8-0.9,1.2-1.4l0.6-0.7l5.2,1.2c1.5,0.4,3-0.5,3.4-1.9l2.4-7.1c0.5-1.4-0.2-3-1.6-3.6l-4.9-2.1l0-0.9
					c0-0.6-0.1-1.2-0.1-1.9l-0.1-0.9l4.5-2.8c1.3-0.8,1.8-2.5,1.1-3.8l-3.4-6.7c-0.7-1.3-2.3-2-3.7-1.4l-5,1.9L47,63.7
					c-0.5-0.4-0.9-0.8-1.4-1.2l-0.7-0.6l1.2-5.2c0.4-1.5-0.5-3-1.9-3.4l-7.1-2.4c-1.4-0.5-3,0.2-3.6,1.6l-2.1,4.9l-0.9,0
					c-0.6,0-1.3,0.1-1.9,0.1l-0.9,0.1l-2.8-4.5C24,51.8,22.3,51.4,21,52l-6.7,3.3c-1.3,0.7-2,2.3-1.4,3.7l1.9,5l-0.6,0.7
					c-0.4,0.5-0.8,0.9-1.2,1.4l-0.6,0.7l-5.2-1.2c-1.5-0.4-3,0.5-3.4,1.9l-2.4,7.1c-0.5,1.4,0.2,3,1.6,3.6l4.9,2.1l0,0.9
					c0,0.6,0.1,1.3,0.1,1.9l0.1,0.9L3.5,87c-1.3,0.8-1.8,2.5-1.1,3.8l3.3,6.7c0.7,1.3,2.3,2,3.7,1.4l5-1.9l0.7,0.7
					c0.5,0.4,0.9,0.8,1.4,1.2l0.7,0.6l-1.2,5.2c-0.4,1.5,0.5,3,1.9,3.4l7.1,2.4c1.4,0.5,3-0.2,3.6-1.6l2.1-4.9l0.9,0
					c0.6,0,1.3-0.1,1.9-0.1l0.9-0.1l2.8,4.5c0.8,1.3,2.5,1.8,3.8,1.1l6.7-3.3c0.3-0.1,0.5-0.3,0.7-0.5L49.3,104.8z M26,109.8
					c-0.2,0-0.5,0-0.7-0.1l-7.1-2.4c-1-0.3-1.7-1.4-1.4-2.5l1.3-5.5c0-0.2,0-0.3-0.2-0.4c-1.1-0.8-2.2-1.7-3.1-2.7
					c-0.1-0.1-0.3-0.2-0.4-0.1l-5.2,2c-1,0.4-2.2-0.1-2.7-1l-3.3-6.7c-0.5-1-0.2-2.2,0.8-2.8l4.8-3c0.1-0.1,0.2-0.2,0.2-0.4
					c-0.2-1.4-0.3-2.7-0.3-4.1c0-0.2-0.1-0.3-0.2-0.4l-5.1-2.2c-1-0.4-1.5-1.6-1.2-2.6l2.4-7.1c0.3-1,1.5-1.6,2.5-1.4l5.5,1.3
					c0.2,0,0.3-0.1,0.4-0.2c0.8-1.1,1.7-2.2,2.7-3.1c0.1-0.1,0.2-0.3,0.1-0.4l-2-5.2c-0.4-1,0-2.2,1-2.7l6.7-3.3
					c1-0.5,2.2-0.1,2.8,0.8l3,4.8c0.1,0.1,0.2,0.2,0.3,0.2c1.3-0.2,2.5-0.3,3.7-0.3l0.5,0c0.2,0,0.3-0.1,0.4-0.2l2.2-5.1
					c0.4-1,1.6-1.5,2.6-1.2l7.1,2.4c1,0.3,1.7,1.4,1.4,2.5L44,62c0,0.2,0,0.3,0.2,0.4c1.1,0.8,2.2,1.7,3.1,2.7
					c0.1,0.1,0.3,0.2,0.4,0.1l5.2-2c1-0.4,2.2,0.1,2.7,1l3.3,6.7c0.5,1,0.2,2.2-0.8,2.8l-4.8,3c-0.1,0.1-0.2,0.2-0.2,0.4
					c0.2,1.4,0.3,2.7,0.3,4.1c0,0.2,0.1,0.3,0.2,0.4l5.1,2.2c1,0.4,1.5,1.6,1.2,2.6l-2.4,7.1c-0.3,1-1.5,1.6-2.5,1.4l-5.5-1.3
					c-0.2,0-0.3,0.1-0.4,0.2c-0.8,1.1-1.7,2.2-2.7,3.1c-0.1,0.1-0.2,0.3-0.1,0.4l2,5.2c0.4,1,0,2.2-1,2.7l-6.7,3.3
					c-1,0.5-2.2,0.1-2.8-0.8l-3-4.8c-0.1-0.1-0.2-0.2-0.3-0.2c-1.3,0.2-2.5,0.3-3.7,0.3l-0.5,0c-0.2,0-0.3,0.1-0.4,0.2l-2.2,5.1
					C27.6,109.3,26.9,109.8,26,109.8z M14.6,95.3c0.3,0,0.7,0.1,0.9,0.4c0.9,1,1.9,1.8,3,2.6c0.4,0.3,0.6,0.8,0.5,1.3l-1.3,5.5
					c-0.2,0.7,0.2,1.3,0.9,1.5l7.1,2.4c0.6,0.2,1.4-0.1,1.6-0.7l2.2-5.1c0.2-0.4,0.6-0.7,1.1-0.7l0.5,0c1.2,0,2.4-0.1,3.5-0.3
					c0.5-0.1,1,0.1,1.2,0.6l3,4.8c0.3,0.6,1.1,0.8,1.7,0.5l6.7-3.3c0.6-0.3,0.9-1,0.6-1.7l-2-5.2c-0.2-0.5-0.1-1,0.3-1.3
					c1-0.9,1.8-1.9,2.6-3c0.3-0.4,0.8-0.6,1.3-0.5l5.5,1.3c0.6,0.2,1.3-0.2,1.5-0.9l2.4-7.1c0.2-0.6-0.1-1.4-0.7-1.6l-5.1-2.2
					c-0.5-0.2-0.7-0.6-0.7-1.1c0-1.3-0.1-2.7-0.3-4c-0.1-0.5,0.1-1,0.6-1.2l4.8-3c0.6-0.4,0.8-1.1,0.5-1.7l-3.3-6.7
					c-0.3-0.6-1-0.9-1.7-0.6L48,66c-0.5,0.2-1,0.1-1.3-0.3c-0.9-1-1.9-1.8-3-2.6c-0.4-0.3-0.6-0.8-0.5-1.3l1.3-5.5
					c0.2-0.7-0.2-1.3-0.9-1.5l-7.1-2.4c-0.6-0.2-1.4,0.1-1.6,0.7l-2.2,5.1C32.5,58.7,32,59,31.6,59l-0.5,0c-1.2,0-2.4,0.1-3.5,0.3
					c-0.5,0.1-1-0.1-1.2-0.6l-3-4.8c-0.3-0.6-1.1-0.8-1.7-0.5L15,56.8c-0.6,0.3-0.9,1-0.6,1.7l2,5.2c0.2,0.5,0.1,1-0.3,1.3
					c-1,0.9-1.8,1.9-2.6,3c-0.3,0.4-0.8,0.6-1.3,0.5l-5.5-1.3c-0.6-0.2-1.3,0.2-1.5,0.9l-2.4,7.1c-0.2,0.6,0.1,1.3,0.7,1.6l5.1,2.2
					c0.5,0.2,0.7,0.6,0.7,1.1c0,1.3,0.1,2.7,0.3,4c0.1,0.5-0.1,1-0.6,1.2l-4.8,3c-0.6,0.4-0.8,1.1-0.5,1.7l3.3,6.7
					c0.3,0.6,1,0.9,1.7,0.6l5.2-2C14.3,95.3,14.4,95.3,14.6,95.3z"/>
			</g>
			<g>
				<path class="st1" d="M102.3,76c-0.2,0-0.4,0-0.7-0.1L70.5,65.5c-1.1-0.4-1.7-1.5-1.3-2.6l3.4-10.1c0.3-0.8,1.1-1.4,2-1.4
					c0.2,0,0.4,0,0.7,0.1l6.4,2.1l1.4-4.3c0.3-0.8,1.1-1.4,2-1.4c0.2,0,0.4,0,0.7,0.1l6.4,2.1l1.5-4.5c0.3-0.8,1.1-1.4,2-1.4
					c0.2,0,0.4,0,0.7,0.1l6.4,2.1l1.4-4.3c0.3-0.8,1.1-1.4,2-1.4c0.2,0,0.4,0,0.7,0.1l6,2c1.1,0.4,1.7,1.5,1.3,2.6l-9.7,29
					C104,75.5,103.2,76,102.3,76z M95.8,72.3l6.9,2.3l10-29.9l-6.9-2.3L95.8,72.3z M87.4,69.5l6.9,2.3l7.9-23.7l-6.9-2.3L87.4,69.5z
					 M79,66.7l6.9,2.3l5.7-17.2l-6.9-2.3L79,66.7z M70.6,63.9l6.9,2.3l3.6-10.9l-6.9-2.3L70.6,63.9z"/>
				<path class="st1" d="M102.3,76.4c-0.3,0-0.5,0-0.8-0.1L70.4,65.9c-1.3-0.4-2-1.8-1.6-3.1l3.4-10.1c0.3-1,1.3-1.7,2.4-1.7
					c0.3,0,0.5,0,0.8,0.1l6,2l1.3-3.9c0.3-1,1.3-1.7,2.4-1.7c0.3,0,0.5,0,0.8,0.1l6,2l1.4-4.1c0.4-1.3,1.9-2,3.1-1.6l6,2l1.3-3.9
					c0.4-1.3,1.9-2,3.1-1.6l6,2c1.3,0.4,2,1.8,1.6,3.1l-9.7,29C104.4,75.8,103.4,76.4,102.3,76.4z M74.5,51.8
					c-0.7,0-1.4,0.5-1.6,1.1L69.6,63c-0.3,0.9,0.2,1.8,1.1,2.1l31.2,10.4c0.9,0.3,1.8-0.2,2.1-1.1l9.7-29c0.3-0.9-0.2-1.8-1.1-2.1
					l-6-2c-0.9-0.3-1.8,0.2-2.1,1.1l-1.6,4.7l-6.8-2.3c-0.9-0.3-1.8,0.2-2.1,1.1l-1.6,4.9l-6.8-2.3c-0.9-0.3-1.8,0.2-2.1,1.1
					l-1.6,4.7L75,51.9C74.9,51.9,74.7,51.8,74.5,51.8z M102.9,75.1l-7.6-2.5l0.1-0.4l10.1-30.3l7.6,2.5l-0.1,0.4L102.9,75.1z
					 M96.3,72l6.1,2l9.7-29.1l-6.1-2L96.3,72z M94.5,72.3l-7.6-2.5L95,45.3l7.6,2.5L94.5,72.3z M87.9,69.2l6.1,2l7.6-22.9l-6.1-2
					L87.9,69.2z M86.1,69.5l-7.6-2.5l6-18l7.6,2.5L86.1,69.5z M79.5,66.4l6.1,2L91,52L85,50L79.5,66.4z M77.7,66.7l-7.6-2.5L74,52.4
					l7.6,2.5L77.7,66.7z M71.1,63.6l6.1,2l3.4-10.2l-6.1-2L71.1,63.6z"/>
			</g>
			<g>
				<path class="st1" d="M119,32.2c-0.1,0-0.2,0-0.3,0c-0.2-0.1-0.4-0.2-0.5-0.4c-0.1-0.2-0.1-0.4,0-0.6c0.1-0.3,0.4-0.6,0.8-0.6
					c0.1,0,0.2,0,0.3,0c0.2,0.1,0.4,0.2,0.5,0.4c0.1,0.2,0.1,0.4,0,0.6C119.7,31.9,119.4,32.2,119,32.2z"/>
				<path class="st1" d="M119,32.6c-0.1,0-0.3,0-0.4-0.1c-0.3-0.1-0.6-0.3-0.7-0.6c-0.1-0.3-0.2-0.6-0.1-0.9c0.2-0.6,0.9-1,1.5-0.8
					c0.3,0.1,0.6,0.3,0.7,0.6c0.1,0.3,0.2,0.6,0.1,0.9C120,32.2,119.6,32.6,119,32.6z M119,30.9c-0.2,0-0.3,0.1-0.4,0.3
					c0,0.1,0,0.2,0,0.3c0,0.1,0.1,0.2,0.2,0.2c0.2,0.1,0.4,0,0.5-0.3c0-0.1,0-0.2,0-0.3c0-0.1-0.1-0.2-0.2-0.2
					C119.1,31,119.1,30.9,119,30.9z"/>
			</g>
			<g>
				<path class="st1" d="M100.1,25.8c-0.1,0-0.2,0-0.3,0c-0.4-0.1-0.7-0.6-0.5-1c0.1-0.3,0.4-0.6,0.8-0.6c0.1,0,0.2,0,0.3,0
					c0.4,0.1,0.7,0.6,0.5,1C100.7,25.6,100.4,25.8,100.1,25.8z"/>
				<path class="st1" d="M100.1,26.2c-0.1,0-0.3,0-0.4-0.1c-0.3-0.1-0.6-0.3-0.7-0.6s-0.2-0.6-0.1-0.9c0.2-0.6,0.9-1,1.5-0.8
					c0.3,0.1,0.6,0.3,0.7,0.6c0.1,0.3,0.2,0.6,0.1,0.9C101.1,25.9,100.6,26.2,100.1,26.2z M100.1,24.6c-0.2,0-0.3,0.1-0.4,0.3
					c0,0.1,0,0.2,0,0.3c0,0.1,0.1,0.2,0.2,0.2c0.2,0.1,0.4-0.1,0.5-0.3c0-0.1,0-0.2,0-0.3s-0.1-0.2-0.2-0.2
					C100.2,24.6,100.1,24.6,100.1,24.6z"/>
			</g>
			<g>
				<path class="st1" d="M81.1,19.5c-0.1,0-0.2,0-0.3,0c-0.4-0.1-0.7-0.6-0.5-1c0.1-0.3,0.4-0.6,0.8-0.6c0.1,0,0.2,0,0.3,0
					c0.4,0.1,0.7,0.6,0.5,1C81.8,19.3,81.5,19.5,81.1,19.5z"/>
				<path class="st1" d="M81.1,19.9c-0.1,0-0.3,0-0.4-0.1c-0.3-0.1-0.6-0.3-0.7-0.6s-0.2-0.6-0.1-0.9c0.2-0.6,0.9-1,1.5-0.8
					c0.3,0.1,0.6,0.3,0.7,0.6c0.1,0.3,0.2,0.6,0.1,0.9C82.1,19.6,81.7,19.9,81.1,19.9z M81.1,18.3c-0.2,0-0.3,0.1-0.4,0.3
					c0,0.1,0,0.2,0,0.3s0.1,0.2,0.2,0.2c0.2,0.1,0.4,0,0.5-0.3c0-0.1,0-0.2,0-0.3c0-0.1-0.1-0.2-0.2-0.2
					C81.2,18.3,81.2,18.3,81.1,18.3z"/>
			</g>
			<g>
				<path class="st1" d="M62.2,13.2c-0.1,0-0.2,0-0.3,0c-0.2-0.1-0.4-0.2-0.5-0.4c-0.1-0.2-0.1-0.4,0-0.6c0.1-0.3,0.4-0.6,0.8-0.6
					c0.1,0,0.2,0,0.3,0c0.2,0.1,0.4,0.2,0.5,0.4c0.1,0.2,0.1,0.4,0,0.6C62.8,13,62.5,13.2,62.2,13.2z"/>
				<path class="st1" d="M62.2,13.6c-0.1,0-0.3,0-0.4-0.1c-0.3-0.1-0.6-0.3-0.7-0.6c-0.1-0.3-0.2-0.6-0.1-0.9c0.2-0.6,0.9-1,1.5-0.8
					c0.3,0.1,0.6,0.3,0.7,0.6c0.1,0.3,0.2,0.6,0.1,0.9C63.2,13.3,62.7,13.6,62.2,13.6z M62.2,12c-0.2,0-0.3,0.1-0.4,0.3
					c0,0.1,0,0.2,0,0.3c0,0.1,0.1,0.2,0.2,0.2c0.2,0.1,0.4,0,0.5-0.3c0-0.1,0-0.2,0-0.3c0-0.1-0.1-0.2-0.2-0.2
					C62.3,12,62.2,12,62.2,12z"/>
			</g>
			<g>
				<path class="st1" d="M67.2,45.1c-0.1,0-0.2,0-0.3,0l-26.4-8.8c-0.4-0.1-0.7-0.6-0.5-1c0.1-0.3,0.4-0.6,0.8-0.6
					c0.1,0,0.2,0,0.3,0l26.4,8.8c0.4,0.1,0.7,0.6,0.5,1C67.8,44.9,67.5,45.1,67.2,45.1z"/>
				<path class="st1" d="M67.2,45.5c-0.1,0-0.3,0-0.4-0.1l-26.4-8.8c-0.6-0.2-1-0.9-0.8-1.5c0.2-0.6,0.9-1,1.5-0.8l26.4,8.8
					c0.6,0.2,1,0.9,0.8,1.5C68.2,45.2,67.7,45.5,67.2,45.5z M40.8,35.1c-0.2,0-0.3,0.1-0.4,0.3c-0.1,0.2,0,0.4,0.3,0.5l26.4,8.8
					c0.2,0.1,0.4,0,0.5-0.3c0.1-0.2,0-0.4-0.3-0.5l-26.4-8.8C40.9,35.1,40.8,35.1,40.8,35.1z"/>
			</g>
			<g>
				<path class="st1" d="M57.2,50.9c-0.1,0-0.2,0-0.3,0l-9.4-3.1c-0.4-0.1-0.7-0.6-0.5-1c0.1-0.3,0.4-0.6,0.8-0.6c0.1,0,0.2,0,0.3,0
					l9.4,3.1c0.2,0.1,0.4,0.2,0.5,0.4c0.1,0.2,0.1,0.4,0,0.6C57.9,50.7,57.6,50.9,57.2,50.9z"/>
				<path class="st1" d="M57.2,51.3c-0.1,0-0.3,0-0.4-0.1l-9.4-3.1c-0.6-0.2-1-0.9-0.8-1.5c0.2-0.6,0.9-1,1.5-0.8l9.4,3.1
					c0.3,0.1,0.6,0.3,0.7,0.6c0.1,0.3,0.2,0.6,0.1,0.9C58.2,51,57.8,51.3,57.2,51.3z M47.8,46.5c-0.2,0-0.3,0.1-0.4,0.3
					c-0.1,0.2,0,0.4,0.3,0.5l9.4,3.1c0.2,0.1,0.4-0.1,0.5-0.3c0-0.1,0-0.2,0-0.3c0-0.1-0.1-0.2-0.2-0.2L48,46.6
					C47.9,46.6,47.9,46.5,47.8,46.5z"/>
			</g>
			<g>
				<path class="st1" d="M42.3,45.9c-0.1,0-0.2,0-0.3,0l-4.2-1.4c-0.4-0.1-0.7-0.6-0.5-1c0.1-0.3,0.4-0.6,0.8-0.6c0.1,0,0.2,0,0.3,0
					l4.2,1.4c0.4,0.1,0.7,0.6,0.5,1C42.9,45.7,42.6,45.9,42.3,45.9L42.3,45.9z"/>
				<path class="st1" d="M42.3,46.3c-0.1,0-0.3,0-0.4-0.1l-4.2-1.4c-0.6-0.2-1-0.9-0.8-1.5c0.2-0.6,0.9-1,1.5-0.8l4.2,1.4
					c0.6,0.2,1,0.9,0.8,1.5C43.3,46,42.8,46.3,42.3,46.3z M38.1,43.3c-0.2,0-0.3,0.1-0.4,0.3c-0.1,0.2,0,0.4,0.3,0.5l4.2,1.4
					c0.2,0.1,0.4,0,0.5-0.3c0.1-0.2,0-0.4-0.3-0.5l-4.2-1.4C38.2,43.3,38.1,43.3,38.1,43.3z"/>
			</g>
			<g>
				<path class="st1" d="M69.9,37c-0.1,0-0.2,0-0.3,0L50,30.4c-0.4-0.1-0.7-0.6-0.5-1c0.1-0.3,0.4-0.6,0.8-0.6c0.1,0,0.2,0,0.3,0
					l19.7,6.6c0.4,0.1,0.7,0.6,0.5,1C70.6,36.8,70.3,37,69.9,37L69.9,37z"/>
				<path class="st1" d="M69.9,37.4c-0.1,0-0.3,0-0.4-0.1l-19.7-6.6c-0.6-0.2-1-0.9-0.8-1.5c0.2-0.6,0.9-1,1.5-0.8L70.3,35
					c0.6,0.2,1,0.9,0.8,1.5C70.9,37.1,70.4,37.4,69.9,37.4z M50.2,29.2c-0.2,0-0.3,0.1-0.4,0.3c-0.1,0.2,0,0.4,0.3,0.5l19.7,6.6
					c0.2,0.1,0.4,0,0.5-0.3c0.1-0.2,0-0.4-0.3-0.5l-19.7-6.6C50.3,29.2,50.3,29.2,50.2,29.2z"/>
			</g>
			<g>
				<path class="st1" d="M45.3,28.8c-0.1,0-0.2,0-0.3,0c-0.4-0.1-0.7-0.6-0.5-1c0.1-0.3,0.4-0.6,0.8-0.6c0.1,0,0.2,0,0.3,0
					c0.2,0.1,0.4,0.2,0.5,0.4c0.1,0.2,0.1,0.4,0,0.6C46,28.6,45.7,28.8,45.3,28.8z"/>
				<path class="st1" d="M45.3,29.2c-0.1,0-0.3,0-0.4-0.1c-0.6-0.2-1-0.9-0.8-1.5c0.2-0.6,0.9-1,1.5-0.8c0.3,0.1,0.6,0.3,0.7,0.6
					c0.1,0.3,0.2,0.6,0.1,0.9C46.3,28.9,45.8,29.2,45.3,29.2z M45.3,27.6c-0.2,0-0.3,0.1-0.4,0.3c-0.1,0.2,0,0.4,0.3,0.5
					c0.2,0.1,0.4-0.1,0.5-0.3c0-0.1,0-0.2,0-0.3c0-0.1-0.1-0.2-0.2-0.2C45.4,27.6,45.4,27.6,45.3,27.6z"/>
			</g>
			<g>
				<path class="st1" d="M62.7,52.7c-0.1,0-0.2,0-0.3,0c-0.2-0.1-0.4-0.2-0.5-0.4c-0.1-0.2-0.1-0.4,0-0.6c0.1-0.3,0.4-0.6,0.8-0.6
					c0.1,0,0.2,0,0.3,0c0.2,0.1,0.4,0.2,0.5,0.4c0.1,0.2,0.1,0.4,0,0.6C63.3,52.5,63,52.7,62.7,52.7z"/>
				<path class="st1" d="M62.7,53.1c-0.1,0-0.3,0-0.4-0.1c-0.3-0.1-0.6-0.3-0.7-0.6c-0.1-0.3-0.2-0.6-0.1-0.9c0.2-0.6,0.9-1,1.5-0.8
					c0.3,0.1,0.6,0.3,0.7,0.6c0.1,0.3,0.2,0.6,0.1,0.9C63.7,52.8,63.2,53.1,62.7,53.1z M62.7,51.5c-0.2,0-0.3,0.1-0.4,0.3
					c0,0.1,0,0.2,0,0.3c0,0.1,0.1,0.2,0.2,0.2c0.2,0.1,0.4,0,0.5-0.3c0-0.1,0-0.2,0-0.3c0-0.1-0.1-0.2-0.2-0.2
					C62.8,51.5,62.7,51.5,62.7,51.5z"/>
			</g>
			<g>
				<path class="st1" d="M93.7,96.6c-0.1,0-0.2,0-0.3,0l-26.4-8.8c-0.2-0.1-0.4-0.2-0.5-0.4c-0.1-0.2-0.1-0.4,0-0.6
					c0.1-0.3,0.4-0.6,0.8-0.6c0.1,0,0.2,0,0.3,0L94,95c0.4,0.1,0.7,0.6,0.5,1C94.4,96.4,94.1,96.6,93.7,96.6z"/>
				<path class="st1" d="M93.7,97c-0.1,0-0.3,0-0.4-0.1L67,88.2c-0.3-0.1-0.6-0.3-0.7-0.6c-0.1-0.3-0.2-0.6-0.1-0.9
					c0.2-0.6,0.9-1,1.5-0.8l26.4,8.8c0.6,0.2,1,0.9,0.8,1.5C94.7,96.7,94.3,97,93.7,97z M67.3,86.6c-0.2,0-0.3,0.1-0.4,0.3
					c0,0.1,0,0.2,0,0.3c0,0.1,0.1,0.2,0.2,0.2l26.4,8.8c0.2,0.1,0.4,0,0.5-0.3c0.1-0.2,0-0.4-0.3-0.5l-26.4-8.8
					C67.4,86.6,67.4,86.6,67.3,86.6z"/>
			</g>
			<g>
				<path class="st1" d="M83.8,102.4c-0.1,0-0.2,0-0.3,0l-9.4-3.1c-0.2-0.1-0.4-0.2-0.5-0.4c-0.1-0.2-0.1-0.4,0-0.6
					c0.1-0.3,0.4-0.6,0.8-0.6c0.1,0,0.2,0,0.3,0l9.4,3.1c0.2,0.1,0.4,0.2,0.5,0.4c0.1,0.2,0.1,0.4,0,0.6
					C84.4,102.1,84.1,102.4,83.8,102.4L83.8,102.4z"/>
				<path class="st1" d="M83.8,102.8c-0.1,0-0.3,0-0.4-0.1L74,99.6c-0.3-0.1-0.6-0.3-0.7-0.6c-0.1-0.3-0.2-0.6-0.1-0.9
					c0.2-0.6,0.9-1,1.5-0.8l9.4,3.1c0.3,0.1,0.6,0.3,0.7,0.6c0.1,0.3,0.2,0.6,0.1,0.9C84.8,102.4,84.3,102.8,83.8,102.8z M74.4,98
					c-0.2,0-0.3,0.1-0.4,0.3c0,0.1,0,0.2,0,0.3c0,0.1,0.1,0.2,0.2,0.2l9.4,3.1c0.2,0.1,0.4,0,0.5-0.3c0-0.1,0-0.2,0-0.3
					c0-0.1-0.1-0.2-0.2-0.2L74.5,98C74.5,98,74.4,98,74.4,98z"/>
			</g>
			<g>
				<path class="st1" d="M68.8,97.4c-0.1,0-0.2,0-0.3,0l-4.2-1.4c-0.2-0.1-0.4-0.2-0.5-0.4c-0.1-0.2-0.1-0.4,0-0.6
					c0.1-0.3,0.4-0.6,0.8-0.6c0.1,0,0.2,0,0.3,0l4.2,1.4c0.4,0.1,0.7,0.6,0.5,1C69.5,97.1,69.2,97.4,68.8,97.4z"/>
				<path class="st1" d="M68.8,97.8c-0.1,0-0.3,0-0.4-0.1l-4.2-1.4c-0.3-0.1-0.6-0.3-0.7-0.6c-0.1-0.3-0.2-0.6-0.1-0.9
					c0.2-0.6,0.9-1,1.5-0.8l4.2,1.4c0.3,0.1,0.6,0.3,0.7,0.6c0.1,0.3,0.2,0.6,0.1,0.9C69.8,97.4,69.3,97.8,68.8,97.8z M64.6,94.8
					c-0.2,0-0.3,0.1-0.4,0.3c0,0.1,0,0.2,0,0.3c0,0.1,0.1,0.2,0.2,0.2l4.2,1.4c0.2,0.1,0.4,0,0.5-0.3c0-0.1,0-0.2,0-0.3
					c0-0.1-0.1-0.2-0.2-0.2l-4.2-1.4C64.7,94.8,64.7,94.8,64.6,94.8z"/>
			</g>
			<g>
				<path class="st1" d="M96.5,88.4c-0.1,0-0.2,0-0.3,0l-19.7-6.6c-0.2-0.1-0.4-0.2-0.5-0.4c-0.1-0.2-0.1-0.4,0-0.6
					c0.1-0.3,0.4-0.6,0.8-0.6c0.1,0,0.2,0,0.3,0l19.7,6.6c0.4,0.1,0.7,0.6,0.5,1C97.1,88.2,96.8,88.4,96.5,88.4z"/>
				<path class="st1" d="M96.5,88.9c-0.1,0-0.3,0-0.4-0.1l-19.7-6.6c-0.3-0.1-0.6-0.3-0.7-0.6c-0.1-0.3-0.2-0.6-0.1-0.9
					c0.2-0.6,0.9-1,1.5-0.8l19.7,6.6c0.6,0.2,1,0.9,0.8,1.5C97.4,88.5,97,88.9,96.5,88.9z M76.8,80.7c-0.2,0-0.3,0.1-0.4,0.3
					c0,0.1,0,0.2,0,0.3c0,0.1,0.1,0.2,0.2,0.2L96.3,88c0.2,0.1,0.4,0,0.5-0.3c0.1-0.2,0-0.4-0.3-0.5l-19.7-6.6
					C76.9,80.7,76.8,80.7,76.8,80.7z"/>
			</g>
			<g>
				<path class="st1" d="M71.9,80.2c-0.1,0-0.2,0-0.3,0c-0.2-0.1-0.4-0.2-0.5-0.4c-0.1-0.2-0.1-0.4,0-0.6c0.1-0.3,0.4-0.6,0.8-0.6
					c0.1,0,0.2,0,0.3,0c0.2,0.1,0.4,0.2,0.5,0.4c0.1,0.2,0.1,0.4,0,0.6C72.5,80,72.2,80.2,71.9,80.2L71.9,80.2z"/>
				<path class="st1" d="M71.9,80.7c-0.1,0-0.3,0-0.4-0.1c-0.3-0.1-0.6-0.3-0.7-0.6c-0.1-0.3-0.2-0.6-0.1-0.9c0.2-0.6,0.9-1,1.5-0.8
					c0.3,0.1,0.6,0.3,0.7,0.6c0.1,0.3,0.2,0.6,0.1,0.9C72.8,80.3,72.4,80.7,71.9,80.7z M71.9,79c-0.2,0-0.3,0.1-0.4,0.3
					c0,0.1,0,0.2,0,0.3c0,0.1,0.1,0.2,0.2,0.2c0.2,0.1,0.4,0,0.5-0.3c0-0.1,0-0.2,0-0.3c0-0.1-0.1-0.2-0.2-0.2
					C71.9,79,71.9,79,71.9,79z"/>
			</g>
			<g>
				<path class="st1" d="M89.2,104.2c-0.1,0-0.2,0-0.3,0c-0.4-0.1-0.7-0.6-0.5-1c0.1-0.3,0.4-0.6,0.8-0.6c0.1,0,0.2,0,0.3,0
					c0.2,0.1,0.4,0.2,0.5,0.4c0.1,0.2,0.1,0.4,0,0.6C89.9,103.9,89.6,104.2,89.2,104.2z"/>
				<path class="st1" d="M89.2,104.6c-0.1,0-0.3,0-0.4-0.1c-0.3-0.1-0.6-0.3-0.7-0.6s-0.2-0.6-0.1-0.9c0.2-0.6,0.9-1,1.5-0.8
					c0.3,0.1,0.6,0.3,0.7,0.6c0.1,0.3,0.2,0.6,0.1,0.9C90.2,104.2,89.7,104.6,89.2,104.6z M89.2,103c-0.2,0-0.3,0.1-0.4,0.3
					c0,0.1,0,0.2,0,0.3s0.1,0.2,0.2,0.2c0.2,0.1,0.4,0,0.5-0.3c0-0.1,0-0.2,0-0.3c0-0.1-0.1-0.2-0.2-0.2C89.3,103,89.3,103,89.2,103
					z"/>
			</g>
			<g>
				<path class="st1" d="M109.1,103.3c-1.1,0-1.9-0.8-2.1-1.8l-1.4-12.2c0-0.1,0-0.2,0-0.3l20.5-61.5l-68-22.7L54.5,16
					c-0.8,2.4-3,4-5.6,4c-0.6,0-1.3-0.1-1.9-0.3l-11.2-3.7L25.4,47.2c-0.1,0.3-0.4,0.6-0.8,0.6c-0.1,0-0.2,0-0.3,0
					c-0.2-0.1-0.4-0.2-0.5-0.4c-0.1-0.2-0.1-0.4,0-0.6l10.7-32c0.1-0.2,0.2-0.4,0.4-0.5L57.4,3c0.1-0.1,0.2-0.1,0.4-0.1
					c0.1,0,0.2,0,0.3,0l68.9,23l0.5-0.6c1.4-1.7,3.4-2.8,5.6-2.8c0.8,0,1.5,0.1,2.3,0.4c3.7,1.2,5.7,5.3,4.5,9l-20.5,61.5
					c0,0.1-0.1,0.2-0.2,0.3l-8.4,8.9c-0.3,0.4-0.8,0.6-1.3,0.6C109.3,103.3,109.2,103.3,109.1,103.3z M107.3,89.3l1.5,13l9-9.5
					L134,44.2l-10.5-3.5L107.3,89.3z M124,39.2l10.5,3.5l1.9-5.7l-10.5-3.5L124,39.2z M133,24.2c-2.4,0-4.5,1.5-5.2,3.8l-1.3,4
					l10.5,3.5l1.3-4c1-2.9-0.6-6-3.5-7C134.2,24.3,133.6,24.2,133,24.2z M37.4,14.8l10.1,3.4c0.4,0.1,0.9,0.2,1.3,0.2
					c1.8,0,3.5-1.2,4-2.9l3.4-10.1L37.4,14.8z"/>
				<path class="st1" d="M109.1,103.7c-1.3,0-2.3-0.9-2.5-2.2l-1.4-12.2c0-0.2,0-0.4,0.1-0.5l20.4-61.2L58.5,5.3l-3.6,10.8
					c-0.9,2.6-3.3,4.3-6,4.3c-0.7,0-1.3-0.1-2-0.3l-10.8-3.6L25.8,47.3c-0.2,0.6-0.9,1-1.5,0.8c-0.3-0.1-0.6-0.3-0.7-0.6
					c-0.1-0.3-0.2-0.6-0.1-0.9l10.7-32c0.1-0.3,0.3-0.6,0.6-0.7L57.2,2.6c0.3-0.1,0.6-0.2,0.9-0.1l68.6,22.9l0.3-0.4
					c1.4-1.8,3.6-2.9,6-2.9c0.8,0,1.6,0.1,2.4,0.4c3.9,1.3,6.1,5.6,4.8,9.5l-20.5,61.5c-0.1,0.2-0.1,0.3-0.3,0.4l-8.4,8.9
					c-0.4,0.4-0.9,0.7-1.5,0.8C109.3,103.7,109.2,103.7,109.1,103.7z M108.8,102.9c0.2,0,0.4,0,0.5,0c0.4,0,0.7-0.2,1-0.5l8.4-8.9
					c0,0,0.1-0.1,0.1-0.1l20.5-61.5c1.2-3.5-0.7-7.3-4.3-8.5c-0.7-0.2-1.4-0.3-2.1-0.3c-2.1,0-4,0.9-5.3,2.6l-0.7,0.8l-0.3-0.1
					l-68.9-23c-0.1,0-0.2,0-0.3,0L35.2,14.6c-0.1,0-0.2,0.1-0.2,0.2l-10.7,32c0,0.1,0,0.2,0,0.3c0,0.1,0.1,0.2,0.2,0.2
					c0.2,0.1,0.4,0,0.5-0.3l10.5-31.6l11.6,3.9c0.6,0.2,1.1,0.3,1.7,0.3c2.4,0,4.4-1.5,5.2-3.7L58,4.2l0.4,0.1l68.4,22.8l-0.1,0.4
					l-20.5,61.5c0,0.1,0,0.1,0,0.2l1.4,12.2c0.1,0.6,0.4,1.1,1,1.3l-1.5-13.5l0-0.1l16.3-49l11.2,3.7l-0.1,0.4L118.1,93l-0.1,0.1
					L108.8,102.9z M107.7,89.3l1.4,12l8.3-8.8l16-48.1l-9.7-3.2L107.7,89.3z M134.7,43.2l-11.2-3.7l2.1-6.4l11.2,3.7L134.7,43.2z
					 M124.5,38.9l9.7,3.2l1.6-4.9l-9.7-3.2L124.5,38.9z M137.1,36l-11.2-3.7l1.5-4.4c0.8-2.4,3.1-4.1,5.6-4.1c0.6,0,1.3,0.1,1.9,0.3
					c3.1,1,4.8,4.4,3.7,7.5L137.1,36z M126.9,31.7l9.7,3.2l1.2-3.6c0.9-2.7-0.6-5.6-3.2-6.5c-0.5-0.2-1.1-0.3-1.6-0.3
					c-2.2,0-4.1,1.4-4.8,3.5L126.9,31.7z M48.9,18.8c-0.5,0-1-0.1-1.5-0.2l-11.1-3.7L57.1,4.5l-3.7,11.1
					C52.7,17.5,50.9,18.8,48.9,18.8z M38.5,14.7l9.2,3.1c0.4,0.1,0.8,0.2,1.2,0.2c1.7,0,3.1-1.1,3.6-2.6l3.1-9.2L38.5,14.7z"/>
			</g>
		</g>
	</g>
</g>
</svg>
