<?xml version="1.0" encoding="utf-8"?>
<!-- Generator: Adobe Illustrator 25.0.0, SVG Export Plug-In . SVG Version: 6.00 Build 0)  -->
<svg version="1.1" id="Layer_1" xmlns="http://www.w3.org/2000/svg" xmlns:xlink="http://www.w3.org/1999/xlink" x="0px" y="0px"
	 viewBox="0 0 56 56" style="enable-background:new 0 0 56 56;" xml:space="preserve">
<style type="text/css">
	.st0{clip-path:url(#SVGID_2_);}
	.st1{fill:#F16571;}
	.st2{fill:#F04A59;}
	.st3{fill:#D6EEF4;}
	.st4{fill:#ACDFEA;}
	.st5{fill:#FAA81C;}
	.st6{fill:#F89A1C;}
	.st7{fill:#FFF3DF;}
	.st8{fill:#36424E;}
	.st9{fill:#E1D3CE;}
	.st10{fill:#6EACCB;}
	.st11{fill:#3693BD;}
	.st12{fill:#FFE5C2;}
	.st13{fill:#FEC367;}
</style>
<g id="g8067" transform="matrix(1.3333333,0,0,-1.3333333,0,682.66667)">
	<g id="g8069">
		<g>
			<defs>
				<rect id="SVGID_1_" x="1" y="471" width="40" height="40"/>
			</defs>
			<clipPath id="SVGID_2_">
				<use xlink:href="#SVGID_1_"  style="overflow:visible;"/>
			</clipPath>
			<g id="g8071" class="st0">
				<g id="g8077" transform="translate(436.9355,88.5508)">
					<g id="path8079">
						<path class="st1" d="M-405.3,392.6h-6c-0.8,0-1.5-0.6-1.6-1.4l-0.3-2.8c0-0.2,0.1-0.4,0.4-0.4h9.1c0.2,0,0.4,0.2,0.4,0.4
							l-0.3,2.8C-403.8,392-404.5,392.6-405.3,392.6"/>
					</g>
				</g>
				<g id="g8081" transform="translate(469.8604,15.46)">
					<g id="path8083">
						<path class="st2" d="M-436.3,461.4l-0.3,2.8c-0.1,0.8-0.8,1.4-1.6,1.4h-1.9c0.8,0,1.5-0.6,1.6-1.4l0.4-3.2h1.6
							C-436.5,461-436.3,461.2-436.3,461.4"/>
					</g>
				</g>
				<g id="path8085">
					<path class="st3" d="M30.9,486.5H8v17.6h22.9V486.5z"/>
				</g>
				<g id="path8087">
					<path class="st4" d="M28.9,486.5h1.9v17.6h-1.9V486.5z"/>
				</g>
				<g id="g8089" transform="translate(460.0869,256.6738)">
					<g id="path8091">
						<path class="st5" d="M-427.1,234.4v6.6c0,0.8-0.7,1.5-1.5,1.5h-5.6c-0.8,0-1.5-0.7-1.5-1.5v-6.6H-427.1z"/>
					</g>
				</g>
				<g id="g8093" transform="translate(434.1699,395.1689)">
					<g id="path8095">
						<path class="st6" d="M-402.7,104h-0.4v-8.1h1.9v6.6C-401.2,103.3-401.9,104-402.7,104"/>
					</g>
				</g>
				<g id="g8097" transform="translate(412.3955,289.8447)">
					<g id="path8099">
						<path class="st7" d="M-382.2,203.1v1.5h-3.1v-1.5c0-0.3-0.2-0.6-0.6-0.7l-1.8-0.4c0-4,1.8-4.4,3.9-4.4c2.1,0,3.9,0.4,3.9,4.4
							l-1.8,0.4C-382,202.5-382.2,202.8-382.2,203.1"/>
					</g>
				</g>
				<g id="g8101" transform="translate(171.3076,243.3818)">
					<g id="path8103">
						<path class="st8" d="M-155.3,246.4c-0.1,0-0.2,0-0.3,0.1l-3.2,2.2c-0.2,0.1-0.3,0.4-0.1,0.6c0.1,0.2,0.4,0.3,0.6,0.1l3.2-2.2
							c0.2-0.1,0.3-0.4,0.1-0.6C-155,246.5-155.1,246.4-155.3,246.4z"/>
					</g>
				</g>
				<g id="g8105" transform="translate(440.3115,158.9639)">
					<g id="path8107">
						<path class="st9" d="M-408.5,326.4h-24.7c-0.4,0-0.6,0.3-0.6,0.6v0.7c0,0.4,0.3,0.6,0.6,0.6h24.7c0.4,0,0.6-0.3,0.6-0.6V327
							C-407.9,326.6-408.2,326.4-408.5,326.4"/>
					</g>
				</g>
				<g id="g8109" transform="translate(440.3115,470.3105)">
					<g id="path8111">
						<path class="st9" d="M-408.5,33.2h-24.7c-0.4,0-0.6,0.3-0.6,0.6v0.7c0,0.4,0.3,0.6,0.6,0.6h24.7c0.4,0,0.6-0.3,0.6-0.6v-0.7
							C-407.9,33.5-408.2,33.2-408.5,33.2"/>
					</g>
				</g>
				<g id="g8113" transform="translate(504.4824,118.0313)">
					<g id="path8115">
						<path class="st10" d="M-468.9,364.9l-0.2,6.7c-0.1,1-0.8,1.9-1.9,2.1l-1,0.2c-0.1-1.8-1.8-3.2-3.9-3.2c-2.1,0-3.9,1.4-3.9,3.2
							l-1-0.2c-1-0.2-1.8-1.1-1.9-2.1l-0.1-1c0-0.4-0.5-0.6-0.8-0.4l-2.5,1.7c-0.5,0.3-1.1,0.2-1.4-0.3l-0.2-0.3
							c-0.3-0.5-0.2-1.1,0.3-1.5l3.7-2.4c0.3-0.2,0.6-0.2,0.9-0.2h2.5v-3.5c0-0.8,0.7-1.5,1.5-1.5h7.3
							C-470,362.3-468.9,363.5-468.9,364.9"/>
					</g>
				</g>
				<g id="g8117" transform="translate(504.4824,118.0313)">
					<g id="path8119">
						<path class="st11" d="M-468.9,364.9l-0.2,6.7c-0.1,1-0.8,1.9-1.9,2.1l-1,0.2c0-0.5-0.2-1-0.5-1.4c0.8-0.4,1.3-1.1,1.3-2
							l0.2-6.7c0-0.6-0.2-1.1-0.5-1.5C-470,362.4-468.9,363.5-468.9,364.9"/>
					</g>
				</g>
				<g id="g8121" transform="translate(310.3789,181.2529)">
					<g id="path8123">
						<path class="st8" d="M-286.2,303.6c-0.2,0-0.5,0.2-0.5,0.5v1.3c0,0.2,0.2,0.5,0.5,0.5s0.5-0.2,0.5-0.5v-1.3
							C-285.7,303.8-285.9,303.6-286.2,303.6z"/>
					</g>
				</g>
				<g id="g8125" transform="translate(461.6357,181.2529)">
					<g id="path8127">
						<path class="st8" d="M-428.6,298.6c-0.2,0-0.5,0.2-0.5,0.5v6.3c0,0.2,0.2,0.5,0.5,0.5s0.5-0.2,0.5-0.5v-6.3
							C-428.1,298.8-428.3,298.6-428.6,298.6z"/>
					</g>
				</g>
				<g id="g8129" transform="translate(339.0527,338.7949)">
					<g id="path8131">
						<path class="st7" d="M-313.2,157.1c0-0.7,0.3-1.4,0.9-1.9c0.4-0.4,1.1-1.1,1.9-1.1c0.8,0,1.4,0.7,1.9,1.1
							c0.6,0.5,0.9,1.2,0.9,1.9l0,3.7h-5.6L-313.2,157.1z"/>
					</g>
				</g>
				<g id="g8133" transform="translate(400.376,401.2178)">
					<g id="path8135">
						<path class="st12" d="M-370.9,98.3l0-3.7c0-0.7-0.3-1.4-0.9-1.9c-0.2-0.2-0.6-0.5-0.9-0.8c0.3-0.2,0.6-0.3,1-0.3
							c0.8,0,1.4,0.7,1.9,1.1c0.6,0.5,0.9,1.2,0.9,1.9l0,3.7H-370.9z"/>
					</g>
				</g>
				<g id="g8137" transform="translate(460.0869,361.9043)">
					<g id="path8139">
						<path class="st13" d="M-427.1,135.3c0,0-1.5,0.1-2,1.5c0,0-3.6-2.9-6.7-1.5v0.7c0,2.2,1.8,4,4,4h0.7c2.2,0,4-1.8,4-4V135.3z"
							/>
					</g>
				</g>
				<g id="g8141" transform="translate(205.4287,226.5508)">
					<g id="path8143">
						<path class="st7" d="M-187.4,262.7l-0.4-0.5c-0.2-0.4-0.7-0.5-1.1-0.2l-0.3,0.2c-0.5,0.3-0.6,1-0.3,1.5c0.3,0.5,1,0.6,1.5,0.3
							l0.3-0.2C-187.3,263.6-187.2,263.1-187.4,262.7"/>
					</g>
				</g>
				<g id="g8145" transform="translate(78.5547,426.1211)">
					<g id="path8147">
						<path class="st8" d="M-56.9,74.4h-11c-0.2,0-0.5,0.2-0.5,0.5s0.2,0.5,0.5,0.5h11c0.2,0,0.5-0.2,0.5-0.5S-56.7,74.4-56.9,74.4z
							"/>
					</g>
				</g>
				<g id="g8149" transform="translate(78.5547,374.0557)">
					<g id="path8151">
						<path class="st8" d="M-56.9,123.4h-11c-0.2,0-0.5,0.2-0.5,0.5s0.2,0.5,0.5,0.5h11c0.2,0,0.5-0.2,0.5-0.5
							S-56.7,123.4-56.9,123.4z"/>
					</g>
				</g>
				<g id="g8153" transform="translate(78.5547,321.9902)">
					<g id="path8155">
						<path class="st8" d="M-62.5,172.4H-68c-0.2,0-0.5,0.2-0.5,0.5s0.2,0.5,0.5,0.5h5.5c0.2,0,0.5-0.2,0.5-0.5
							S-62.2,172.4-62.5,172.4z"/>
					</g>
				</g>
				<g id="g8157" transform="translate(392.0869,442.4639)">
					<g id="path8159">
						<path class="st5" d="M-363.1,59.5h-0.7c-0.2,0-0.4,0-0.6,0c1.7-0.3,3-1.5,3.3-3.2c0.5-1.4,2-1.5,2-1.5v0.7
							C-359.1,57.7-360.9,59.5-363.1,59.5"/>
					</g>
				</g>
				<g id="g8161" transform="translate(440.3115,470.3105)">
					<g id="path8163">
						<path class="st8" d="M-408.5,32.8h-24.7c-0.6,0-1.1,0.5-1.1,1.1v0.7c0,0.6,0.5,1.1,1.1,1.1h24.7c0.6,0,1.1-0.5,1.1-1.1v-0.7
							C-407.4,33.3-407.9,32.8-408.5,32.8z M-433.2,34.7c-0.1,0-0.2-0.1-0.2-0.2v-0.7c0-0.1,0.1-0.2,0.2-0.2h24.7
							c0.1,0,0.2,0.1,0.2,0.2v0.7c0,0.1-0.1,0.2-0.2,0.2H-433.2z"/>
					</g>
				</g>
				<g id="g8165" transform="translate(33.8926,470.3105)">
					<g id="path8167">
						<path class="st8" d="M-25.9,16.5c-0.2,0-0.5,0.2-0.5,0.5v16.3c0,0.2,0.2,0.5,0.5,0.5c0.2,0,0.5-0.2,0.5-0.5V16.9
							C-25.5,16.7-25.7,16.5-25.9,16.5z"/>
					</g>
				</g>
				<g id="g8169" transform="translate(424.7529,434.1113)">
					<g id="path8171">
						<path class="st8" d="M-393.9,66.9c-0.2,0-0.5,0.2-0.5,0.5v2.1c0,0.2,0.2,0.5,0.5,0.5s0.5-0.2,0.5-0.5v-2.1
							C-393.4,67.1-393.6,66.9-393.9,66.9z"/>
					</g>
				</g>
				<g id="g8173" transform="translate(59.7451,191.9834)">
					<g id="path8175">
						<path class="st8" d="M-38,292.9h-14.6c-0.6,0-1.1,0.5-1.1,1.1v0.7c0,0.6,0.5,1.1,1.1,1.1h2.4c0.2,0,0.5-0.2,0.5-0.5
							s-0.2-0.5-0.5-0.5h-2.4c-0.1,0-0.2-0.1-0.2-0.2V294c0-0.1,0.1-0.2,0.2-0.2H-38c0.2,0,0.5-0.2,0.5-0.5S-37.8,292.9-38,292.9z"
							/>
					</g>
				</g>
				<g id="g8177" transform="translate(208.5098,191.9834)">
					<g id="path8179">
						<path class="st8" d="M-190.3,294.8h-7c-0.2,0-0.5,0.2-0.5,0.5s0.2,0.5,0.5,0.5h7c0.2,0,0.5-0.2,0.5-0.5
							S-190,294.8-190.3,294.8z"/>
					</g>
				</g>
				<g id="g8181" transform="translate(317.3818,82.1348)">
					<g id="path8183">
						<path class="st8" d="M-284.2,393.9h-9.1c-0.2,0-0.4,0.1-0.6,0.3c-0.2,0.2-0.2,0.4-0.2,0.6l0.3,2.8c0.1,0.5,0.3,1,0.7,1.4
							c0.2,0.2,0.5,0.1,0.6-0.1s0.1-0.5-0.1-0.6c-0.2-0.2-0.4-0.5-0.4-0.8l-0.3-2.7h8.9l-0.3,2.7c0,0.1-0.1,0.3-0.1,0.4
							c-0.1,0.2,0,0.5,0.2,0.6c0.2,0.1,0.5,0,0.6-0.2c0.1-0.2,0.2-0.5,0.2-0.7l0.3-2.8c0-0.2,0-0.5-0.2-0.6S-284,393.9-284.2,393.9z
							"/>
					</g>
				</g>
				<g id="g8185" transform="translate(453.1904,271.4102)">
					<g id="path8187">
						<path class="st8" d="M-420.6,220C-420.7,220-420.7,220-420.6,220l-1.9,0.4c-0.5,0.1-0.9,0.6-0.9,1.1v0.6
							c0,0.2,0.2,0.5,0.5,0.5s0.5-0.2,0.5-0.5v-0.6c0-0.1,0.1-0.2,0.2-0.3l1.8-0.4c0.2-0.1,0.4-0.3,0.3-0.5
							C-420.2,220.2-420.4,220-420.6,220z"/>
					</g>
				</g>
				<g id="g8189" transform="translate(359.6191,301.21)">
					<g id="path8191">
						<path class="st8" d="M-334.9,190.2c-0.2,0-0.4,0.1-0.4,0.4c-0.1,0.2,0.1,0.5,0.3,0.5l1.8,0.4c0.1,0,0.2,0.1,0.2,0.3v0.7
							c0,0.2,0.2,0.5,0.5,0.5s0.5-0.2,0.5-0.5v-0.7c0-0.6-0.4-1-0.9-1.1L-334.9,190.2C-334.9,190.2-334.9,190.2-334.9,190.2z"/>
					</g>
				</g>
				<g id="g8193" transform="translate(183.2949,212.208)">
					<g id="path8195">
						<path class="st8" d="M-150.2,267.7h-7.3c-1.1,0-2,0.9-2,2v3h-2c-0.4,0-0.8,0.1-1.1,0.3l-3.7,2.4c-0.3,0.2-0.5,0.4-0.6,0.7
							c-0.1,0.2,0,0.5,0.3,0.6c0.2,0.1,0.5,0,0.6-0.3c0-0.1,0.1-0.2,0.2-0.3l3.7-2.4c0.2-0.1,0.4-0.2,0.6-0.2h2.5
							c0.2,0,0.5-0.2,0.5-0.5v-3.5c0-0.6,0.5-1.1,1.1-1.1h7.3c0.6,0,1.1,0.2,1.5,0.6c0.4,0.4,0.6,0.9,0.6,1.5l-0.2,6.7
							c-0.1,0.8-0.7,1.5-1.5,1.7l-0.5,0.1c-0.4-1.8-2.2-3.2-4.3-3.2c-2.2,0-4,1.3-4.3,3.2l-0.5-0.1c-0.8-0.2-1.4-0.9-1.5-1.7l-0.1-1
							c0-0.3-0.2-0.6-0.5-0.8c-0.3-0.2-0.7-0.1-1,0.1l-2.5,1.7c-0.1,0-0.1,0.1-0.2,0.1c-0.2,0-0.4,0.3-0.4,0.5
							c0,0.2,0.3,0.4,0.5,0.4c0.2,0,0.4-0.1,0.6-0.2l2.5-1.7c0,0,0.1,0,0.1,0l0.1,1c0.1,1.2,1,2.3,2.2,2.5l1,0.2
							c0.1,0,0.3,0,0.4-0.1c0.1-0.1,0.2-0.2,0.2-0.3c0.1-1.6,1.6-2.8,3.5-2.8c1.9,0,3.4,1.2,3.5,2.8c0,0.1,0.1,0.3,0.2,0.3
							s0.2,0.1,0.4,0.1l1-0.2c1.2-0.3,2.1-1.3,2.2-2.5l0.2-6.7c0-0.8-0.3-1.6-0.8-2.2C-148.7,268-149.4,267.7-150.2,267.7z"/>
					</g>
				</g>
				<g id="g8197" transform="translate(205.4287,226.5508)">
					<g id="path8199">
						<path class="st8" d="M-188.4,261.4c-0.2,0-0.5,0.1-0.7,0.2l-0.3,0.2c-0.3,0.2-0.6,0.6-0.7,1c-0.1,0.4,0,0.8,0.2,1.2
							c0.5,0.7,1.4,0.9,2.2,0.4l0.3-0.2c0.3-0.2,0.5-0.5,0.5-0.8c0.1-0.3,0-0.6-0.2-0.9l-0.4-0.5
							C-187.6,261.6-188,261.4-188.4,261.4z M-188.5,263.7c-0.2,0-0.4-0.1-0.5-0.3c-0.1-0.1-0.1-0.3-0.1-0.5s0.1-0.3,0.3-0.4
							l0.3-0.2c0.1-0.1,0.4-0.1,0.5,0.1l0.4,0.5h0c0,0.1,0.1,0.2,0,0.2c0,0.1-0.1,0.2-0.1,0.2l-0.3,0.2
							C-188.2,263.7-188.4,263.7-188.5,263.7z"/>
					</g>
				</g>
				<g id="g8201" transform="translate(311.9277,361.9043)">
					<g id="path8203">
						<path class="st8" d="M-287.7,129.5c-0.2,0-0.5,0.2-0.5,0.5v5.4c0,0.2,0.2,0.5,0.5,0.5s0.5-0.2,0.5-0.5v-5.4
							C-287.2,129.7-287.4,129.5-287.7,129.5z"/>
					</g>
				</g>
				<g id="g8205" transform="translate(460.0869,329.0703)">
					<g id="path8207">
						<path class="st8" d="M-427.1,165.8c-0.2,0-0.5,0.2-0.5,0.5v1.9c0,0.2,0.2,0.5,0.5,0.5s0.5-0.2,0.5-0.5v-1.9
							C-426.7,166-426.9,165.8-427.1,165.8z"/>
					</g>
				</g>
				<g id="g8209" transform="translate(460.0869,269.9766)">
					<g id="path8211">
						<path class="st8" d="M-427.1,221.4c-0.2,0-0.5,0.2-0.5,0.5v1.7c0,0.2,0.2,0.5,0.5,0.5s0.5-0.2,0.5-0.5v-1.7
							C-426.7,221.6-426.9,221.4-427.1,221.4z"/>
					</g>
				</g>
				<g id="g8213" transform="translate(338.9121,355.4189)">
					<g id="path8215">
						<path class="st8" d="M-310.3,137c-0.9,0-1.5,0.6-2,1c-0.1,0.1-0.1,0.1-0.2,0.2c-0.6,0.5-1,1.4-1,2.2l0,1
							c0,0.2,0.2,0.5,0.4,0.5c0.3,0,0.5-0.2,0.5-0.4l0-1c0-0.6,0.3-1.2,0.7-1.6c0.1-0.1,0.2-0.1,0.2-0.2c0.4-0.3,0.8-0.8,1.4-0.8
							c0.5,0,1,0.4,1.4,0.8c0.1,0.1,0.2,0.1,0.2,0.2c0.4,0.4,0.7,1,0.7,1.6l0,2.1c0,0.2,0.2,0.4,0.5,0.4c0,0,0,0,0,0
							c0.2,0,0.4-0.2,0.4-0.5l0-2.1c0-0.9-0.4-1.7-1-2.2c-0.1-0.1-0.1-0.1-0.2-0.2C-308.8,137.6-309.4,137-310.3,137z"/>
					</g>
				</g>
				<g id="g8217" transform="translate(460.0869,361.9043)">
					<g id="path8219">
						<path class="st8" d="M-434,134.5c-0.7,0-1.3,0.1-2,0.4c-0.2,0.1-0.3,0.2-0.3,0.4v0.7c0,2.4,2,4.4,4.4,4.4h0.7
							c2.4,0,4.4-2,4.4-4.4v-0.7c0-0.1-0.1-0.2-0.1-0.3c-0.1-0.1-0.2-0.1-0.3-0.1c-0.1,0-1.4,0.1-2.2,1.3
							C-430.1,135.6-432,134.5-434,134.5z M-435.4,135.6c2.7-1,5.9,1.5,5.9,1.6c0.1,0.1,0.3,0.1,0.4,0.1c0.1,0,0.3-0.1,0.3-0.3
							c0.2-0.6,0.8-1,1.1-1.1v0.2c0,1.9-1.6,3.5-3.5,3.5h-0.7c-1.9,0-3.5-1.6-3.5-3.5V135.6z"/>
					</g>
				</g>
			</g>
		</g>
	</g>
</g>
</svg>
