<?xml version="1.0" encoding="utf-8"?>
<!-- Generator: Adobe Illustrator 25.0.0, SVG Export Plug-In . SVG Version: 6.00 Build 0)  -->
<svg version="1.1" id="Layer_1" xmlns="http://www.w3.org/2000/svg" xmlns:xlink="http://www.w3.org/1999/xlink" x="0px" y="0px"
	 viewBox="0 0 56 56" style="enable-background:new 0 0 56 56;" xml:space="preserve">
<style type="text/css">
	.st0{fill:#36424E;}
	.st1{fill:#FED270;}
	.st2{fill:#7FB3E0;}
	.st3{fill:#FAC96A;}
	.st4{fill:#9AC6EA;}
	.st5{fill:#FFE187;}
</style>
<g>
	<path class="st0" d="M46.8,8H17c-1.2,0-2.2,1-2.2,2.2v4.2c-0.2-0.1-0.4-0.2-0.5-0.2c-0.4-0.1-1.1-0.2-1.9,0.3
		c-0.2,0.1-0.3,0.2-0.5,0.3c-1.5,0.9-3.3,1.9-4,3.2c-1.1,2-1.2,5.2-0.4,8c1.5,5.2,4.2,9.7,8,13.4c3.7,3.8,8.2,6.5,13.4,8
		c1.2,0.4,2.5,0.6,3.8,0.6c1.6,0,3.1-0.3,4.2-0.9c1.4-0.7,2.4-2.5,3.2-4c0.1-0.2,0.2-0.3,0.3-0.5c0.5-0.8,0.4-1.4,0.3-1.9
		c-0.3-0.9-1-1.4-1.5-1.6l-7-3.6c-0.9-0.5-1.9-0.3-2.4,0.4l-1.6,2.6c-0.2,0.3-0.4,0.5-0.9,0.2c-2.3-1.1-5.2-3.7-6.3-4.8
		c0-0.1-0.1-0.1-0.2-0.2h25.9c1.2,0,2.2-1,2.2-2.2V10.2C49.1,9,48.1,8,46.8,8z M30.2,38l0.9-1.4c0,0,0.3,0,0.5,0.1l7,3.6
		c0.4,0.2,0.7,0.5,0.8,0.8c0.1,0.2,0,0.5-0.1,0.8c-0.1,0.1-0.2,0.3-0.2,0.4l-0.1,0.1L30.2,38z M15.7,25.5c-1,0.6-1.3,1.6-0.8,2.7
		c1.2,2.5,4,5.5,5.1,6.7l0,0c1.2,1.1,4.2,3.9,6.7,5.1h0c1.1,0.5,2.1,0.2,2.7-0.8l0-0.1l8.7,4.5c-0.5,0.8-1.2,1.8-1.9,2.2
		c-1.7,0.9-4.4,1-6.9,0.2c-5-1.5-9.3-4-12.8-7.6c-3.6-3.6-6.2-7.9-7.6-12.8c-0.7-2.5-0.6-5.3,0.2-6.9c0.4-0.8,1.4-1.4,2.2-1.9
		L15.7,25.5L15.7,25.5z M31.9,22L17.3,9.4h29.1L31.9,22z M29.2,21.5l2.2,1.9c0.3,0.2,0.7,0.2,0.9,0l2.2-1.9L47,32.3
		c-0.1,0-0.1,0-0.2,0H19.6c-0.4-0.5-0.8-1-1.2-1.4L29.2,21.5z M18.3,23.8L17,24.7L12.5,16c0,0,0,0,0.1,0l0,0
		c0.2-0.1,0.3-0.2,0.5-0.3c0.3-0.2,0.5-0.2,0.8-0.1c0.3,0.1,0.6,0.4,0.8,0.8l3.6,7C18.4,23.6,18.4,23.8,18.3,23.8z M17.6,29.8
		c-0.6-0.8-1-1.6-1.3-2.2c-0.2-0.5-0.1-0.7,0.2-0.9l2.6-1.6c0.7-0.4,0.9-1.4,0.4-2.4l-3.3-6.4v-6l12,10.4L17.6,29.8z M35.7,20.6
		l12-10.4V31L35.7,20.6z"/>
	<path class="st1" d="M19.1,25l-2.6,1.6c-0.3,0.2-0.5,0.4-0.3,1c0.3,0.7,0.8,1.5,1.4,2.2l10.7-9.2L16.1,10.1c0,0,0,0.1,0,0.1v6
		l3.3,6.4C19.9,23.6,19.8,24.5,19.1,25L19.1,25z"/>
	<path class="st2" d="M39,42.4c0.1-0.2,0.2-0.3,0.3-0.5c0.2-0.3,0.2-0.6,0.2-0.8c-0.1-0.3-0.4-0.6-0.8-0.8l-7-3.6
		c-0.3-0.1-0.5-0.2-0.6-0.1L30.2,38l8.7,4.5C38.9,42.5,39,42.4,39,42.4L39,42.4z"/>
	<path class="st1" d="M35.6,20.6l12.1,10.5V10.2c0,0,0-0.1,0-0.1L35.6,20.6z"/>
	<path class="st2" d="M18.4,23.9c0.1,0,0-0.3-0.1-0.6l-3.6-7c-0.2-0.4-0.5-0.7-0.8-0.8c-0.2-0.1-0.5,0-0.8,0.2
		c-0.2,0.1-0.3,0.2-0.5,0.3c0,0-0.1,0-0.1,0.1l4.5,8.7L18.4,23.9z"/>
	<path class="st3" d="M32.3,23.4c-0.1,0.1-0.3,0.2-0.4,0.2c-0.2,0-0.3-0.1-0.4-0.2l-2.3-1.9l-10.9,9.4c0.4,0.5,0.8,1,1.2,1.5h27.3
		c0.1,0,0.2,0,0.3,0L34.6,21.5L32.3,23.4z"/>
	<path class="st4" d="M20.1,34.8c-1.1-1.2-3.9-4.2-5.1-6.7c-0.5-1-0.2-2,0.8-2.6l0.1-0.1l-4.6-8.8c-1,0.6-1.9,1.2-2.2,2
		c-0.9,1.7-1,4.5-0.2,7c1.5,5,4.1,9.3,7.7,12.9l0,0c3.6,3.6,7.9,6.2,12.9,7.7c2.5,0.7,5.3,0.6,7-0.2c0.7-0.4,1.4-1.3,2-2.2l-8.8-4.6
		l-0.1,0.1c-0.6,1-1.6,1.2-2.6,0.8C24.3,38.8,21.3,36,20.1,34.8C20.1,34.8,20.1,34.8,20.1,34.8L20.1,34.8z"/>
	<path class="st5" d="M46.6,9.4H17.2l14.7,12.7L46.6,9.4z"/>
</g>
</svg>
