<?xml version="1.0" encoding="utf-8"?>
<!-- Generator: Adobe Illustrator 25.0.0, SVG Export Plug-In . SVG Version: 6.00 Build 0)  -->
<svg version="1.1" id="Layer_1" xmlns="http://www.w3.org/2000/svg" xmlns:xlink="http://www.w3.org/1999/xlink" x="0px" y="0px"
	 viewBox="0 0 56 56" style="enable-background:new 0 0 56 56;" xml:space="preserve">
<style type="text/css">
	.st0{fill:#F37E97;}
	.st1{fill:#A6C6E8;}
	.st2{fill:#36424E;}
	.st3{fill:#FFFFFF;}
	.st4{fill:#B7BCCE;}
	.st5{fill:#FFCE64;}
	.st6{fill:#FBC6AF;}
</style>
<g>
	<g>
		<g>
			<g>
				<path class="st0" d="M28,20.2v15.4H9.9v-19c0-1.2,1-2.2,2.2-2.2h10c0,1.7,0.7,3.2,1.9,4.3l0,2.6l2.2-1.3
					C26.8,20.2,27.4,20.2,28,20.2z"/>
			</g>
			<g>
				<path class="st1" d="M46.1,16.6v19H28V20.2c3.2,0,5.8-2.6,5.8-5.8h10C45.1,14.4,46.1,15.4,46.1,16.6z"/>
			</g>
		</g>
		<g>
			<g>
				<path class="st2" d="M28,36.3H9.9c-0.3,0-0.6-0.3-0.6-0.6v-19c0-1.6,1.3-2.8,2.8-2.8h10c0.3,0,0.6,0.3,0.6,0.6
					c0,1.5,0.6,2.9,1.7,3.9c0.1,0.1,0.2,0.3,0.2,0.4l0,1.6l1.4-0.8c0.1-0.1,0.3-0.1,0.5-0.1c0.5,0.2,1,0.2,1.5,0.2
					c0.3,0,0.6,0.3,0.6,0.6v15.4C28.6,36,28.3,36.3,28,36.3z M10.5,35.1h16.9V20.8c-0.4,0-0.7-0.1-1-0.2l-2,1.2
					c-0.2,0.1-0.4,0.1-0.6,0c-0.2-0.1-0.3-0.3-0.3-0.5l0-2.3c-1.1-1.1-1.7-2.5-1.9-4h-9.5c-0.9,0-1.7,0.7-1.7,1.7V35.1z"/>
			</g>
			<g>
				<path class="st2" d="M46.1,36.3H28c-0.3,0-0.6-0.3-0.6-0.6V20.2c0-0.3,0.3-0.6,0.6-0.6c2.9,0,5.2-2.4,5.2-5.2
					c0-0.3,0.3-0.6,0.6-0.6h10c1.6,0,2.8,1.3,2.8,2.8v19C46.7,36,46.4,36.3,46.1,36.3z M28.6,35.1h16.9V16.6c0-0.9-0.7-1.7-1.7-1.7
					h-9.5c-0.3,3.1-2.7,5.5-5.8,5.8V35.1z"/>
			</g>
		</g>
		<g>
			<g>
				<path class="st3" d="M21.1,41h22.8c1.2,0,2.2-1,2.2-2.2v-3.1H9.9v3.1c0,1.2,1,2.2,2.2,2.2h2.1H21.1z"/>
			</g>
			<g>
				<polygon class="st4" points="31.5,41 24.5,41 23.3,47.4 32.7,47.4 				"/>
			</g>
			<g>
				<path class="st2" d="M43.9,41.6H21.1c-0.3,0-0.6-0.3-0.6-0.6c0-0.3,0.3-0.6,0.6-0.6h22.8c0.9,0,1.7-0.7,1.7-1.7v-2.5H10.5v2.5
					c0,0.9,0.7,1.7,1.7,1.7h2.1c0.3,0,0.6,0.3,0.6,0.6c0,0.3-0.3,0.6-0.6,0.6h-2.1c-1.6,0-2.8-1.3-2.8-2.8v-3.1
					c0-0.3,0.3-0.6,0.6-0.6h36.2c0.3,0,0.6,0.3,0.6,0.6v3.1C46.7,40.3,45.4,41.6,43.9,41.6z"/>
			</g>
			<g>
				<path class="st2" d="M32.7,48h-9.3c-0.2,0-0.3-0.1-0.4-0.2c-0.1-0.1-0.2-0.3-0.1-0.5l1.2-6.4c0.1-0.3,0.3-0.5,0.6-0.5h7
					c0.3,0,0.5,0.2,0.6,0.5l1.2,6.4c0,0.2,0,0.3-0.1,0.5C33,47.9,32.8,48,32.7,48z M24,46.8H32l-1-5.3h-6L24,46.8z"/>
			</g>
			<g>
				<path class="st2" d="M34.6,48H21.4c-0.3,0-0.6-0.3-0.6-0.6c0-0.3,0.3-0.6,0.6-0.6h13.2c0.3,0,0.6,0.3,0.6,0.6
					C35.2,47.7,34.9,48,34.6,48z"/>
			</g>
		</g>
		<g>
			<g>
				<path class="st5" d="M24.3,32.1H13.4v-2.9c0-1.8,1.4-3.2,3.2-3.2h4.5c1.8,0,3.2,1.4,3.2,3.2V32.1z"/>
			</g>
			<g>
				<path class="st2" d="M16.5,32.7c-0.3,0-0.6-0.3-0.6-0.6v-2.2c0-0.3,0.3-0.6,0.6-0.6s0.6,0.3,0.6,0.6v2.2
					C17.1,32.4,16.8,32.7,16.5,32.7z"/>
			</g>
			<g>
				<path class="st2" d="M21.3,32.7c-0.3,0-0.6-0.3-0.6-0.6v-2.2c0-0.3,0.3-0.6,0.6-0.6s0.6,0.3,0.6,0.6v2.2
					C21.9,32.4,21.6,32.7,21.3,32.7z"/>
			</g>
			<g>
				<path class="st2" d="M18.9,26.6c-1.7,0-3.1-1.4-3.1-3.1v-0.9c0-1.7,1.4-3.1,3.1-3.1c1.7,0,3.1,1.4,3.1,3.1v0.9
					C21.9,25.2,20.6,26.6,18.9,26.6z M18.9,20.7c-1,0-1.9,0.9-1.9,1.9v0.9c0,1,0.9,1.9,1.9,1.9c1,0,1.9-0.9,1.9-1.9v-0.9
					C20.8,21.5,19.9,20.7,18.9,20.7z"/>
			</g>
		</g>
		<g>
			<g>
				<path class="st5" d="M42.5,32.1H31.6v-2.9c0-1.8,1.4-3.2,3.2-3.2h4.5c1.8,0,3.2,1.4,3.2,3.2L42.5,32.1L42.5,32.1z"/>
			</g>
			<g>
				<path class="st2" d="M24.3,32.7H13.4c-0.3,0-0.6-0.3-0.6-0.6v-2.9c0-2.1,1.7-3.8,3.8-3.8h4.5c2.1,0,3.8,1.7,3.8,3.8v2.9
					C24.9,32.4,24.7,32.7,24.3,32.7z M14,31.5h9.7v-2.3c0-1.4-1.2-2.6-2.6-2.6h-4.5c-1.4,0-2.6,1.2-2.6,2.6V31.5z"/>
			</g>
			<g>
				<path class="st2" d="M42.5,32.7H31.6c-0.3,0-0.6-0.3-0.6-0.6v-2.9c0-2.1,1.7-3.8,3.8-3.8h4.5c2.1,0,3.8,1.7,3.8,3.8v2.9
					C43.1,32.4,42.8,32.7,42.5,32.7z M32.2,31.5h9.7v-2.3c0-1.4-1.2-2.6-2.6-2.6h-4.5c-1.4,0-2.6,1.2-2.6,2.6V31.5z"/>
			</g>
			<g>
				<path class="st2" d="M34.7,32.7c-0.3,0-0.6-0.3-0.6-0.6v-2.2c0-0.3,0.3-0.6,0.6-0.6s0.6,0.3,0.6,0.6v2.2
					C35.3,32.4,35,32.7,34.7,32.7z"/>
			</g>
			<g>
				<path class="st2" d="M39.5,32.7c-0.3,0-0.6-0.3-0.6-0.6v-2.2c0-0.3,0.3-0.6,0.6-0.6s0.6,0.3,0.6,0.6v2.2
					C40,32.4,39.8,32.7,39.5,32.7z"/>
			</g>
			<g>
				<path class="st6" d="M37.1,20.1c-1.4,0-2.5,1.1-2.5,2.5v0.9c0,1.4,1.1,2.5,2.5,2.5c1.4,0,2.5-1.1,2.5-2.5v-0.9
					C39.5,21.2,38.4,20.1,37.1,20.1z"/>
			</g>
			<g>
				<path class="st6" d="M18.9,20.1c-1.4,0-2.5,1.1-2.5,2.5v0.9c0,1.4,1.1,2.5,2.5,2.5c1.4,0,2.5-1.1,2.5-2.5v-0.9
					C21.4,21.2,20.3,20.1,18.9,20.1z"/>
			</g>
			<g>
				<path class="st6" d="M37.1,20.1c-1.4,0-2.5,1.1-2.5,2.5v0.9c0,1.4,1.1,2.5,2.5,2.5c1.4,0,2.5-1.1,2.5-2.5v-0.9
					C39.5,21.2,38.4,20.1,37.1,20.1z"/>
			</g>
			<g>
				<path class="st2" d="M18.9,26.6c-1.7,0-3.1-1.4-3.1-3.1v-0.9c0-1.7,1.4-3.1,3.1-3.1c1.7,0,3.1,1.4,3.1,3.1v0.9
					C21.9,25.2,20.6,26.6,18.9,26.6z M18.9,20.7c-1,0-1.9,0.9-1.9,1.9v0.9c0,1,0.9,1.9,1.9,1.9c1,0,1.9-0.9,1.9-1.9v-0.9
					C20.8,21.5,19.9,20.7,18.9,20.7z"/>
			</g>
			<g>
				<path class="st2" d="M18.9,26.6c-1.7,0-3.1-1.4-3.1-3.1v-0.9c0-1.7,1.4-3.1,3.1-3.1c1.7,0,3.1,1.4,3.1,3.1v0.9
					C21.9,25.2,20.6,26.6,18.9,26.6z M18.9,20.7c-1,0-1.9,0.9-1.9,1.9v0.9c0,1,0.9,1.9,1.9,1.9c1,0,1.9-0.9,1.9-1.9v-0.9
					C20.8,21.5,19.9,20.7,18.9,20.7z"/>
			</g>
			<g>
				<path class="st2" d="M37.1,26.6c-1.7,0-3.1-1.4-3.1-3.1v-0.9c0-1.7,1.4-3.1,3.1-3.1c1.7,0,3.1,1.4,3.1,3.1v0.9
					C40.1,25.2,38.8,26.6,37.1,26.6z M37.1,20.7c-1,0-1.9,0.9-1.9,1.9v0.9c0,1,0.9,1.9,1.9,1.9c1,0,1.9-0.9,1.9-1.9v-0.9
					C39,21.5,38.1,20.7,37.1,20.7z"/>
			</g>
		</g>
		<g>
			<path class="st3" d="M28,8.6c-3.2,0-5.8,2.6-5.8,5.8c0,1.7,0.7,3.2,1.9,4.3l0,2.6l2.2-1.3c0.5,0.2,1.1,0.3,1.7,0.3
				c3.2,0,5.8-2.6,5.8-5.8S31.2,8.6,28,8.6z"/>
		</g>
		<g>
			<path class="st2" d="M24,21.9c-0.1,0-0.2,0-0.3-0.1c-0.2-0.1-0.3-0.3-0.3-0.5l0-2.3c-1.2-1.2-1.9-2.8-1.9-4.5
				c0-3.5,2.9-6.4,6.4-6.4s6.4,2.9,6.4,6.4s-2.9,6.4-6.4,6.4c-0.6,0-1.1-0.1-1.6-0.2l-2,1.2C24.2,21.8,24.1,21.9,24,21.9z M28,9.2
				c-2.9,0-5.2,2.4-5.2,5.2c0,1.5,0.6,2.9,1.7,3.9c0.1,0.1,0.2,0.3,0.2,0.4l0,1.6l1.4-0.8c0.1-0.1,0.3-0.1,0.5-0.1
				c0.5,0.2,1,0.2,1.5,0.2c2.9,0,5.2-2.4,5.2-5.2S30.9,9.2,28,9.2z"/>
		</g>
		<g>
			<path class="st2" d="M30,13.4H26c-0.3,0-0.6-0.3-0.6-0.6c0-0.3,0.3-0.6,0.6-0.6H30c0.3,0,0.6,0.3,0.6,0.6
				C30.5,13.1,30.3,13.4,30,13.4z"/>
		</g>
		<g>
			<path class="st2" d="M27.9,16.4H26c-0.3,0-0.6-0.3-0.6-0.6c0-0.3,0.3-0.6,0.6-0.6h1.9c0.3,0,0.6,0.3,0.6,0.6
				C28.5,16.2,28.2,16.4,27.9,16.4z"/>
		</g>
		<g>
			<path class="st2" d="M17.7,41.6c-0.2,0-0.3-0.1-0.4-0.2c-0.1-0.1-0.2-0.3-0.2-0.4c0-0.2,0.1-0.3,0.2-0.4c0.1,0,0.1-0.1,0.2-0.1
				c0.2-0.1,0.5,0,0.6,0.1c0.1,0.1,0.2,0.3,0.2,0.4c0,0.1-0.1,0.3-0.2,0.4C18,41.5,17.8,41.6,17.7,41.6z"/>
		</g>
	</g>
</g>
</svg>
