<svg width="620" height="165" viewBox="0 0 620 165" fill="none" xmlns="http://www.w3.org/2000/svg">
<mask id="mask0_3855_30571" style="mask-type:alpha" maskUnits="userSpaceOnUse" x="0" y="0" width="620" height="165">
<path d="M0 10C0 4.47715 4.47715 0 10 0H610C615.523 0 620 4.47715 620 10V165H0V10Z" fill="#D9D9D9"/>
</mask>
<g mask="url(#mask0_3855_30571)">
<mask id="mask1_3855_30571" style="mask-type:luminance" maskUnits="userSpaceOnUse" x="0" y="-1" width="621" height="163">
<path d="M620.4 -0.200012H0.400391V161.8H620.4V-0.200012Z" fill="white"/>
</mask>
<g mask="url(#mask1_3855_30571)">
<path fill-rule="evenodd" clip-rule="evenodd" d="M510 97.7C510.7 102.8 512 109 513.8 114.1C514 114.7 514.6 115 515.3 114.9L557.2 108.8C559.4 108.5 558 105.9 557.3 103.5C554.5 93 553.4 81.6 553.3 70C553.2 55.6 551.4 38.1 548.3 23.2C548.2 22.6 547.5 22.1 546.7 22.2L504.7 28.3C503.9 28.4 503.3 29.1 503.5 29.8C506.6 45 508.4 62.6 508.5 77.7C508.6 85 509.1 91.6 510 97.7Z" fill="#7DDF96"/>
<path d="M549 38.3C550.6 49.1 551.6 60.7 551.8 70.1C552 76.3 552.6 83.3 553.5 89.7C554.3 95.3 555.7 102.7 557.8 108.1L516.5 114.1C515.6 111.7 513.4 105.6 511.9 95.3C511.1 89.5 510.5 83.2 510.4 76.5C510.2 66.9 509.1 55.2 507.5 44.4C506.7 38.6 505.7 33.2 504.7 28.7L546.2 22.7C547.2 27.1 548.2 32.4 549 38.3ZM551.8 37.9C550.9 31.4 549.8 25.4 548.6 20.5C548.5 19.9 547.9 19.5 547.3 19.6L502.5 26.1C501.9 26.2 501.5 26.8 501.5 27.4V27.5C502.7 32.4 503.8 38.3 504.7 44.8C506.2 55.2 507.3 66.8 507.5 76.6C507.7 83.4 508.2 89.8 509.1 95.7C511.1 109.7 514.3 116.2 514.4 116.5C514.6 116.9 515.1 117.2 515.6 117.1L560.4 110.6C561 110.5 561.4 109.9 561.4 109.3C561.4 109.2 561.3 109.1 561.3 109C559.2 104.7 557.5 97.3 556.3 89.3C555.4 82.9 554.8 76.1 554.6 70.1C554.4 60.2 553.3 48.4 551.8 37.9Z" fill="#0D9353"/>
<path d="M551 36.5C552.6 47.9 553.7 60.1 553.9 70.1C554 76.7 554.6 84 555.6 90.7C556.5 96.6 557.9 104.4 560.2 110.1L514.6 116.7C513.6 114.2 511.3 107.8 509.7 96.9C508.8 90.8 508.3 84.1 508.2 77.1C508 67 506.9 54.6 505.3 43.2C504.4 37.1 503.4 31.4 502.3 26.7L548 20C549 24.7 550.1 30.3 551 36.5ZM554.1 36C553.1 29.2 551.9 22.8 550.7 17.7C550.6 17.1 550 16.7 549.3 16.8L499.8 23.9C499.1 24 498.6 24.6 498.7 25.3V25.4C500 30.5 501.1 36.8 502.1 43.6C503.7 54.6 504.8 66.8 505 77.1C505.1 84.2 505.7 91 506.6 97.2C508.7 112 512.2 118.8 512.3 119.1C512.5 119.6 513.1 119.8 513.6 119.8L563.1 112.7C563.8 112.6 564.3 112 564.2 111.3C564.2 111.2 564.1 111.1 564.1 110.9C561.8 106.4 560 98.6 558.7 90.2C557.7 83.5 557.1 76.3 557 69.9C556.8 59.5 555.7 47.1 554.1 36Z" fill="#35414D"/>
<path fill-rule="evenodd" clip-rule="evenodd" d="M547.9 30.4C547.5 28 547.1 25.7 546.6 23.4C546.5 22.9 546 22.5 545.4 22.6L538.5 23.6C539.6 29 545.3 31 547.9 30.4Z" fill="#0D9353"/>
<path fill-rule="evenodd" clip-rule="evenodd" d="M511.8 27.5L504.8 28.5C504.2 28.6 503.8 29.2 503.9 29.8C504.3 32.1 504.8 34.4 505.1 36.8C507.8 36.4 512.3 32.7 511.8 27.5Z" fill="#0D9353"/>
<path fill-rule="evenodd" clip-rule="evenodd" d="M513.6 107.4C514.1 109.7 514.6 111.9 515.3 113.9C515.4 114.4 515.9 114.6 516.4 114.6L523 113.7C522.6 111 518.9 106.3 513.6 107.4Z" fill="#0D9353"/>
<path fill-rule="evenodd" clip-rule="evenodd" d="M550.2 109.6L557 108.6C558.6 108.4 557.5 106.2 557 104.2C556.7 103 556.4 101.9 556.2 100.7C552.4 101.9 549.9 105.6 550.2 109.6Z" fill="#0D9353"/>
<path fill-rule="evenodd" clip-rule="evenodd" d="M510.701 71.1C512.301 82 522.401 89.6 533.201 88C544.001 86.4 551.601 76.3 550.001 65.4C548.401 54.5 538.301 46.9 527.501 48.5C516.701 50.1 509.201 60.3 510.701 71.1Z" fill="#0D9353"/>
<path d="M534.964 103.157C537.588 102.778 539.408 100.344 539.029 97.7206C538.65 95.0969 536.216 93.2771 533.592 93.6559C530.969 94.0348 529.149 96.4688 529.528 99.0924C529.907 101.716 532.341 103.536 534.964 103.157Z" fill="#0D9353"/>
<path d="M526.263 42.8657C528.887 42.4869 530.707 40.0529 530.328 37.4292C529.949 34.8055 527.515 32.9857 524.891 33.3646C522.268 33.7434 520.448 36.1774 520.827 38.801C521.205 41.4247 523.639 43.2445 526.263 42.8657Z" fill="#0D9353"/>
<path fill-rule="evenodd" clip-rule="evenodd" d="M521.299 69.4C520.699 64.5 526.899 62 527.199 64.6C527.299 65.3 526.799 65.9 526.099 66C522.499 66.4 523.099 71.9 526.799 71.5C531.499 70.9 526.699 63.4 533.799 62.6C540.599 61.8 541.899 72.2 535.099 73C533.499 73.2 533.199 70.7 534.799 70.5C538.399 70.1 537.799 64.6 534.099 65C529.399 65.6 534.199 73.1 527.099 73.9C524.199 74.3 521.599 72.3 521.299 69.4Z" fill="#7DDF96"/>
<path fill-rule="evenodd" clip-rule="evenodd" d="M537.1 67.5C536.9 65.9 538.9 66 540.3 65.9C541.9 65.7 542.2 68.2 540.6 68.4C539.2 68.5 537.3 69.1 537.1 67.5Z" fill="#7DDF96"/>
<path fill-rule="evenodd" clip-rule="evenodd" d="M519.199 69.7C518.999 68.1 520.999 68.2 522.399 68.1C523.999 67.9 524.299 70.4 522.699 70.6C521.199 70.6 519.299 71.2 519.199 69.7Z" fill="#7DDF96"/>
<path fill-rule="evenodd" clip-rule="evenodd" d="M124.6 70.6C125 75.8 126 82 127.4 87.2C127.6 87.8 128.2 88.2 128.9 88.1L171.1 84.6C173.3 84.4 172 81.8 171.6 79.4C169.5 68.8 169 57.3 169.6 45.8C170.3 31.4 169.6 13.9 167.5 -1.20002C167.4 -1.90002 166.7 -2.30002 166 -2.30002L123.7 1.19998C122.9 1.29998 122.3 1.89998 122.4 2.59998C124.6 17.9 125.3 35.6 124.5 50.7C124 57.8 124.1 64.5 124.6 70.6Z" fill="#7DDF96"/>
<path d="M167.1 13.6C168 24.4 168.3 36.1 168 45.5C167.8 51.7 168 58.7 168.5 65.1C169 70.7 169.9 78.2 171.7 83.7L130.1 87.2C129.3 84.8 127.5 78.5 126.7 68.2C126.2 62.4 126.1 56 126.3 49.4C126.6 39.8 126.3 28.1 125.4 17.1C124.9 11.2 124.3 5.79999 123.5 1.29999L165.2 -2.20001C166 2.29999 166.6 7.69999 167.1 13.6ZM169.9 13.4C169.4 6.89999 168.6 0.799989 167.7 -4.20001C167.6 -4.80001 167.1 -5.20001 166.5 -5.10001L121.4 -1.30001C120.8 -1.20001 120.3 -0.700011 120.4 -0.100011V-1.09673e-05C121.3 4.89999 122 11 122.6 17.4C123.5 27.9 123.9 39.5 123.5 49.3C123.3 56.1 123.4 62.5 123.9 68.5C125.1 82.6 127.9 89.3 128 89.6C128.2 90.1 128.6 90.3 129.1 90.3L174.2 86.5C174.8 86.4 175.3 85.9 175.2 85.3C175.2 85.2 175.2 85.1 175.1 84.9C173.2 80.5 172 73 171.3 64.9C170.8 58.5 170.6 51.7 170.8 45.6C171.2 35.8 170.8 24 169.9 13.4Z" fill="#0D9353"/>
<path d="M169.2 11.9C170.2 23.3 170.5 35.6 170.1 45.6C169.8 52.2 170 59.5 170.6 66.3C171.1 72.2 172.1 80.1 174.1 85.9L128.2 89.7C127.3 87.2 125.4 80.6 124.5 69.6C124 63.4 123.9 56.8 124.1 49.8C124.5 39.7 124.2 27.3 123.2 15.8C122.7 9.59998 122 3.89998 121.2 -0.900018L167.3 -4.80002C168 -1.81198e-05 168.7 5.69998 169.2 11.9ZM172.3 11.7C171.7 4.79998 170.9 -1.60002 170 -6.80002C169.9 -7.40002 169.3 -7.80002 168.7 -7.80002L118.9 -3.60002C118.2 -3.50002 117.7 -2.90002 117.8 -2.30002V-2.20002C118.7 2.99998 119.5 9.39998 120.1 16.2C121 27.2 121.4 39.5 121 49.8C120.7 56.9 120.8 63.7 121.4 70C122.6 84.9 125.7 91.9 125.8 92.2C126 92.7 126.5 93 127 92.9L176.8 88.7C177.5 88.6 178 88 177.9 87.4C177.9 87.3 177.9 87.1 177.8 87C175.8 82.4 174.4 74.5 173.7 66C173.1 59.2 173 52.1 173.2 45.7C173.6 35.3 173.2 22.8 172.3 11.7Z" fill="#35414D"/>
<path fill-rule="evenodd" clip-rule="evenodd" d="M166.499 5.69999C166.299 3.29999 165.999 0.999989 165.699 -1.30001C165.599 -1.90001 165.099 -2.20001 164.599 -2.20001L157.699 -1.60001C158.299 3.69999 163.799 5.99999 166.499 5.69999Z" fill="#0D9353"/>
<path fill-rule="evenodd" clip-rule="evenodd" d="M130.6 0.599976L123.6 1.19998C123 1.29998 122.6 1.79997 122.6 2.39997C122.9 4.69998 123.2 6.99997 123.4 9.39997C126.1 9.19998 130.8 5.89998 130.6 0.599976Z" fill="#0D9353"/>
<path fill-rule="evenodd" clip-rule="evenodd" d="M127.6 80.4C127.9 82.7 128.4 85 128.9 87C129 87.5 129.5 87.8 129.9 87.7L136.5 87.1C136.4 84.6 133 79.7 127.6 80.4Z" fill="#0D9353"/>
<path fill-rule="evenodd" clip-rule="evenodd" d="M164.1 84.9L171 84.3C172.6 84.2 171.7 81.9 171.3 79.9C171.1 78.7 170.9 77.6 170.7 76.4C166.7 77.3 163.9 80.8 164.1 84.9Z" fill="#0D9353"/>
<path fill-rule="evenodd" clip-rule="evenodd" d="M126.9 44.1C127.8 55.1 137.4 63.2 148.4 62.3C159.3 61.4 167.5 51.7 166.5 40.8C165.6 29.8 156 21.7 145 22.6C134.2 23.5 126 33.1 126.9 44.1Z" fill="#0D9353"/>
<path d="M149.195 77.4849C151.837 77.2638 153.799 74.9431 153.578 72.3014C153.357 69.6598 151.036 67.6974 148.395 67.9185C145.753 68.1395 143.791 70.4602 144.012 73.1019C144.233 75.7436 146.553 77.7059 149.195 77.4849Z" fill="#0D9353"/>
<path d="M144.195 16.7795C146.837 16.5584 148.799 14.2377 148.578 11.596C148.357 8.95429 146.036 6.99199 143.395 7.21306C140.753 7.43413 138.791 9.75485 139.012 12.3965C139.233 15.0382 141.553 17.0005 144.195 16.7795Z" fill="#0D9353"/>
<path fill-rule="evenodd" clip-rule="evenodd" d="M137.5 43C137.2 38.1 143.6 35.9 143.7 38.6C143.7 39.3 143.2 39.9 142.5 39.9C138.9 40.1 139.2 45.7 142.8 45.4C147.5 45.1 143.2 37.3 150.3 36.9C157.2 36.5 157.8 47 150.9 47.4C149.3 47.5 149.1 45 150.8 44.9C154.4 44.7 154.1 39.1 150.5 39.4C145.8 39.7 150.1 47.5 143 47.9C140.2 48.1 137.7 45.9 137.5 43Z" fill="#7DDF96"/>
<path fill-rule="evenodd" clip-rule="evenodd" d="M153.5 42C153.4 40.4 155.4 40.6 156.8 40.6C158.4 40.5 158.6 43 156.9 43.1C155.5 43.2 153.6 43.6 153.5 42Z" fill="#7DDF96"/>
<path fill-rule="evenodd" clip-rule="evenodd" d="M135.4 43.1C135.3 41.5 137.3 41.7 138.7 41.7C140.3 41.6 140.5 44.1 138.8 44.2C137.4 44.2 135.5 44.7 135.4 43.1Z" fill="#7DDF96"/>
<path fill-rule="evenodd" clip-rule="evenodd" d="M233.7 150.1C238.8 149.1 244.9 147.4 249.9 145.4C250.5 145.2 250.8 144.5 250.6 143.8L242.2 102.3C241.8 100.1 239.3 101.7 236.9 102.4C226.6 105.8 215.2 107.5 203.7 108.2C189.3 109.1 172 111.9 157.3 115.8C156.7 116 156.3 116.7 156.4 117.4L164.8 159C165 159.8 165.7 160.3 166.4 160.1C181.4 156.2 198.8 153.4 213.9 152.4C221 152.1 227.7 151.3 233.7 150.1Z" fill="#7DDF96"/>
<path d="M172.201 114.4C182.901 112.2 194.401 110.6 203.801 109.8C210.001 109.3 216.901 108.3 223.201 107C228.701 105.9 236.101 104.1 241.301 101.7L249.601 142.6C247.301 143.7 241.301 146.2 231.101 148.2C225.401 149.4 219.101 150.2 212.501 150.8C202.901 151.6 191.301 153.3 180.601 155.4C174.801 156.6 169.501 157.8 165.101 159.1L156.801 118C161.101 116.8 166.401 115.6 172.201 114.4ZM171.701 111.6C165.301 112.9 159.301 114.3 154.501 115.8C153.901 116 153.601 116.5 153.701 117.1L162.701 161.5C162.801 162.1 163.401 162.5 164.101 162.4H164.201C169.001 161 174.901 159.5 181.301 158.3C191.601 156.2 203.101 154.5 212.901 153.7C219.601 153.1 226.001 152.3 231.901 151.1C245.801 148.3 252.101 144.8 252.401 144.6C252.801 144.4 253.101 143.9 253.001 143.4L244.001 99C243.901 98.4 243.201 98 242.601 98.1C242.501 98.1 242.401 98.2 242.301 98.2C238.101 100.6 230.901 102.7 222.901 104.3C216.601 105.6 209.801 106.5 203.801 107C193.801 107.8 182.101 109.5 171.701 111.6Z" fill="#0D9353"/>
<path d="M170.3 112.5C181.5 110.2 193.7 108.5 203.6 107.7C210.2 107.2 217.4 106.2 224.1 104.8C229.9 103.6 237.7 101.7 243.2 99.1L252.3 144.3C249.9 145.5 243.6 148.1 232.8 150.3C226.7 151.5 220.1 152.4 213.1 152.9C203 153.7 190.7 155.4 179.4 157.7C173.3 158.9 167.7 160.3 163.1 161.6L154 116.3C158.6 115.1 164.2 113.8 170.3 112.5ZM169.7 109.5C162.9 110.9 156.6 112.4 151.6 113.9C151 114.1 150.6 114.7 150.8 115.3L160.7 164.3C160.8 165 161.5 165.4 162.1 165.3H162.2C167.2 163.8 173.5 162.2 180.2 160.9C191.1 158.7 203.2 156.9 213.5 156.1C220.6 155.6 227.3 154.7 233.5 153.4C248.1 150.5 254.8 146.6 255 146.5C255.5 146.2 255.7 145.7 255.6 145.2L245.7 96.2C245.6 95.5 244.9 95.1 244.3 95.2C244.2 95.2 244.1 95.3 243.9 95.3C239.5 97.9 231.9 100.1 223.5 101.8C216.9 103.1 209.7 104.1 203.4 104.6C193 105.5 180.7 107.3 169.7 109.5Z" fill="#35414D"/>
<path fill-rule="evenodd" clip-rule="evenodd" d="M164.401 115.9C162.101 116.4 159.701 117 157.501 117.5C157.001 117.6 156.601 118.2 156.701 118.7L158.101 125.5C163.401 124.3 165.101 118.6 164.401 115.9Z" fill="#0D9353"/>
<path fill-rule="evenodd" clip-rule="evenodd" d="M163.5 152.2L164.9 159.1C165 159.7 165.6 160.1 166.2 159.9C168.4 159.3 170.7 158.8 173.1 158.3C172.6 155.6 168.7 151.4 163.5 152.2Z" fill="#0D9353"/>
<path fill-rule="evenodd" clip-rule="evenodd" d="M243.1 145.9C245.3 145.3 247.5 144.6 249.5 143.9C249.9 143.7 250.2 143.3 250.1 142.8L248.8 136.3C246.2 136.7 241.8 140.7 243.1 145.9Z" fill="#0D9353"/>
<path fill-rule="evenodd" clip-rule="evenodd" d="M243.401 109.2L242.001 102.4C241.701 100.8 239.601 102 237.601 102.6C236.501 103 235.301 103.3 234.201 103.6C235.501 107.5 239.301 109.8 243.401 109.2Z" fill="#0D9353"/>
<path fill-rule="evenodd" clip-rule="evenodd" d="M207.1 150.8C217.9 148.6 224.9 138.1 222.7 127.4C220.5 116.7 210 109.7 199.2 111.9C188.4 114.1 181.4 124.6 183.6 135.3C185.8 146 196.4 153 207.1 150.8Z" fill="#0D9353"/>
<path d="M233.934 130.401C236.532 129.877 238.214 127.345 237.689 124.747C237.165 122.149 234.634 120.467 232.035 120.991C229.437 121.516 227.755 124.047 228.28 126.646C228.804 129.244 231.335 130.926 233.934 130.401Z" fill="#0D9353"/>
<path d="M174.246 142.504C176.845 141.98 178.526 139.448 178.002 136.85C177.478 134.251 174.946 132.57 172.348 133.094C169.749 133.619 168.068 136.15 168.592 138.749C169.116 141.347 171.648 143.029 174.246 142.504Z" fill="#0D9353"/>
<path fill-rule="evenodd" clip-rule="evenodd" d="M204.8 140.4C200 141.3 197.1 135.2 199.7 134.7C200.4 134.6 201 135 201.1 135.7C201.7 139.3 207.2 138.3 206.6 134.7C205.8 130.1 198.6 135.2 197.3 128.2C196.1 121.4 206.4 119.6 207.6 126.4C207.9 128 205.4 128.4 205.2 126.8C204.6 123.2 199.1 124.2 199.7 127.8C200.5 132.4 207.8 127.3 209 134.3C209.6 137.2 207.7 139.9 204.8 140.4Z" fill="#7DDF96"/>
<path fill-rule="evenodd" clip-rule="evenodd" d="M202.001 124.6C200.401 124.9 200.401 122.9 200.201 121.5C199.901 119.9 202.401 119.5 202.601 121.1C202.901 122.5 203.601 124.4 202.001 124.6Z" fill="#7DDF96"/>
<path fill-rule="evenodd" clip-rule="evenodd" d="M205.2 142.5C203.6 142.8 203.6 140.8 203.4 139.4C203.1 137.8 205.6 137.4 205.8 139C206.1 140.3 206.7 142.2 205.2 142.5Z" fill="#7DDF96"/>
<path fill-rule="evenodd" clip-rule="evenodd" d="M391.3 170.9C396.3 172.3 402.5 173.5 407.8 174C408.4 174 409 173.6 409.2 172.9L420.3 132.1C420.9 130 418 130.2 415.5 129.9C404.8 128.3 393.8 124.7 383.2 120.2C369.9 114.6 353.2 109.2 338.3 106.1C337.7 106 337 106.4 336.8 107.2L325.6 148.2C325.4 149 325.8 149.8 326.5 149.9C341.7 153.1 358.5 158.4 372.4 164.3C379.1 167.1 385.4 169.3 391.3 170.9Z" fill="#7DDF96"/>
<path d="M352.4 111.5C362.9 114.4 374 118 382.7 121.6C388.5 123.9 395.1 126.1 401.3 127.8C406.8 129.3 414.1 131 419.9 131.2L408.9 171.5C406.4 171.4 399.9 171 389.8 168.2C384.1 166.7 378.2 164.6 372 162.1C363.1 158.5 351.9 154.8 341.4 151.9C335.7 150.4 330.4 149.1 325.9 148.2L336.9 107.8C341.4 108.7 346.6 109.9 352.4 111.5ZM353.1 108.8C346.8 107.1 340.8 105.7 335.9 104.8C335.3 104.7 334.8 105.1 334.6 105.6L322.7 149.3C322.5 149.9 322.9 150.5 323.5 150.7H323.6C328.5 151.6 334.5 152.9 340.7 154.6C350.8 157.4 361.9 161 371 164.7C377.3 167.2 383.4 169.3 389.1 170.9C402.8 174.6 410 174.3 410.3 174.3C410.8 174.3 411.2 173.9 411.3 173.5L423.2 129.8C423.4 129.2 423 128.6 422.4 128.4C422.3 128.4 422.2 128.4 422 128.4C417.2 128.6 409.8 127.3 401.9 125.1C395.7 123.4 389.2 121.2 383.6 119C374.6 115.2 363.4 111.6 353.1 108.8Z" fill="#0D9353"/>
<path d="M351.501 109C362.601 112 374.201 115.9 383.401 119.7C389.501 122.2 396.401 124.5 403.001 126.3C408.701 127.9 416.501 129.6 422.601 129.8L410.501 174.3C407.801 174.3 401.001 173.8 390.401 170.9C384.401 169.3 378.101 167.1 371.601 164.5C362.201 160.7 350.501 156.7 339.301 153.7C333.301 152.1 327.701 150.8 322.901 149.9L335.001 105.3C339.901 106 345.401 107.3 351.501 109ZM352.301 106C345.601 104.2 339.301 102.7 334.101 101.9C333.501 101.8 332.901 102.2 332.701 102.8L319.601 151C319.401 151.7 319.801 152.3 320.401 152.5H320.501C325.701 153.4 331.901 154.8 338.601 156.6C349.301 159.5 360.901 163.4 370.501 167.3C377.101 170 383.501 172.2 389.601 173.9C404.001 177.8 411.701 177.4 412.001 177.4C412.501 177.4 413.001 177 413.101 176.5L426.201 128.3C426.401 127.6 426.001 126.9 425.401 126.8C425.301 126.8 425.101 126.8 425.001 126.8C419.901 127.1 412.101 125.7 403.801 123.5C397.301 121.7 390.401 119.4 384.501 117C374.901 112.8 363.101 108.9 352.301 106Z" fill="#35414D"/>
<path fill-rule="evenodd" clip-rule="evenodd" d="M344.701 109.3C342.401 108.7 340.101 108.2 337.801 107.7C337.301 107.6 336.701 107.9 336.601 108.4L334.801 115.1C340.101 116.4 344.101 112 344.701 109.3Z" fill="#0D9353"/>
<path fill-rule="evenodd" clip-rule="evenodd" d="M327.6 141.3L325.8 148.1C325.6 148.7 326 149.3 326.6 149.4C328.9 149.9 331.2 150.4 333.5 151C334.2 148.5 332.7 143 327.6 141.3Z" fill="#0D9353"/>
<path fill-rule="evenodd" clip-rule="evenodd" d="M418.299 138.7L420.099 132.1C420.499 130.5 418.099 130.7 416.099 130.3C414.899 130.1 413.799 129.9 412.599 129.6C411.999 133.7 414.399 137.5 418.299 138.7Z" fill="#0D9353"/>
<path fill-rule="evenodd" clip-rule="evenodd" d="M367.3 159.7C377.9 162.6 388.9 156.3 391.8 145.8C394.7 135.2 388.4 124.3 377.8 121.4C367.2 118.5 356.2 124.8 353.3 135.3C350.4 145.8 356.7 156.8 367.3 159.7Z" fill="#0D9353"/>
<path d="M406.289 150.197C406.985 147.639 405.476 145.001 402.918 144.305C400.36 143.609 397.722 145.118 397.026 147.676C396.33 150.234 397.839 152.872 400.397 153.568C402.955 154.264 405.593 152.755 406.289 150.197Z" fill="#0D9353"/>
<path d="M347.537 134.147C348.233 131.589 346.724 128.951 344.166 128.255C341.608 127.558 338.97 129.068 338.274 131.626C337.578 134.184 339.087 136.821 341.645 137.518C344.203 138.214 346.841 136.705 347.537 134.147Z" fill="#0D9353"/>
<path fill-rule="evenodd" clip-rule="evenodd" d="M369.8 149.3C365.1 147.9 365.2 141.2 367.8 142C368.5 142.2 368.8 142.9 368.6 143.5C367.6 147 372.9 148.6 373.9 145.1C375.2 140.6 366.5 142 368.5 135.1C370.5 128.5 380.5 131.5 378.6 138.1C378.1 139.7 375.8 138.9 376.2 137.4C377.2 133.9 371.9 132.3 370.9 135.8C369.6 140.3 378.3 138.9 376.3 145.8C375.5 148.6 372.6 150.1 369.8 149.3Z" fill="#7DDF96"/>
<path fill-rule="evenodd" clip-rule="evenodd" d="M374.399 134C372.899 133.5 373.799 131.8 374.199 130.4C374.699 128.8 376.999 129.6 376.599 131.1C376.199 132.5 375.899 134.4 374.399 134Z" fill="#7DDF96"/>
<path fill-rule="evenodd" clip-rule="evenodd" d="M369.2 151.4C367.7 150.9 368.6 149.2 369 147.8C369.5 146.2 371.8 147 371.4 148.5C371 149.8 370.8 151.8 369.2 151.4Z" fill="#7DDF96"/>
<path fill-rule="evenodd" clip-rule="evenodd" d="M317.999 18.3C313.499 21 308.299 24.5 304.299 28.1C303.799 28.5 303.799 29.2 304.099 29.8L325.799 66.2C326.899 68.1 328.799 65.8 330.699 64.3C339.299 57.7 349.499 52.3 360.099 47.8C373.399 42.2 388.799 33.8 401.399 25.3C401.899 24.9 402.099 24.1 401.699 23.5L379.899 -13.1C379.499 -13.8 378.599 -14 378.099 -13.6C365.299 -4.90003 349.699 3.49997 335.799 9.39997C329.299 12.2 323.299 15.2 317.999 18.3Z" fill="#7DDF96"/>
<path d="M387.799 31.6C378.399 37.2 368.099 42.6 359.499 46.4C353.799 48.9 347.599 52.2 342.099 55.5C337.199 58.4 330.899 62.5 326.799 66.6L305.399 30.7C307.199 28.9 311.999 24.6 320.999 19.3C325.999 16.3 331.699 13.4 337.699 10.7C346.499 6.8 356.899 1.3 366.299 -4.3C371.399 -7.3 375.999 -10.3 379.699 -12.9L401.099 23.1C397.499 25.6 392.899 28.5 387.799 31.6ZM389.299 34C394.899 30.6 400.099 27.3 404.099 24.4C404.599 24.1 404.699 23.4 404.399 22.9L381.199 -16C380.899 -16.5 380.199 -16.7 379.599 -16.4C379.599 -16.4 379.499 -16.4 379.499 -16.3C375.499 -13.4 370.399 -10 364.799 -6.7C355.799 -1.3 345.499 4.1 336.499 8.1C330.299 10.9 324.599 13.8 319.499 16.9C307.299 24.1 302.499 29.6 302.299 29.8C301.999 30.2 301.899 30.7 302.199 31.1L325.399 70C325.699 70.6 326.399 70.7 326.999 70.4C327.099 70.3 327.199 70.3 327.299 70.2C330.499 66.6 336.599 62.2 343.599 58C349.099 54.7 355.199 51.6 360.699 49.1C369.699 45 380.099 39.5 389.299 34Z" fill="#0D9353"/>
<path d="M390.299 32.7C380.399 38.6 369.599 44.2 360.399 48.3C354.399 50.9 347.899 54.3 341.999 57.8C336.899 60.8 330.199 65.2 325.899 69.5L302.299 29.9C304.199 28 309.3 23.4 318.7 17.8C324 14.6 329.899 11.6 336.399 8.79999C345.699 4.69999 356.7 -1.00001 366.6 -6.90001C371.9 -10.1 376.8 -13.2 380.7 -16L404.399 23.7C400.399 26.4 395.599 29.5 390.299 32.7ZM391.899 35.4C397.799 31.9 403.299 28.3 407.499 25.2C407.999 24.8 408.099 24.1 407.799 23.6L382.2 -19.4C381.8 -20 381.099 -20.2 380.499 -19.9C380.499 -19.9 380.399 -19.9 380.399 -19.8C376.199 -16.7 370.799 -13.2 364.899 -9.70001C355.399 -4.00001 344.6 1.69999 335.1 5.79999C328.6 8.69999 322.5 11.8 317.1 15C304.3 22.6 299.3 28.5 299.1 28.7C298.8 29.1 298.699 29.7 298.999 30.1L324.6 73C325 73.6 325.699 73.8 326.299 73.5C326.399 73.4 326.5 73.4 326.6 73.2C329.9 69.3 336.3 64.7 343.7 60.3C349.5 56.8 355.899 53.5 361.799 51C371.199 46.9 382.199 41.1 391.899 35.4Z" fill="#35414D"/>
<path fill-rule="evenodd" clip-rule="evenodd" d="M394.699 27.6C396.699 26.3 398.699 25 400.699 23.8C401.199 23.5 401.299 22.9 400.999 22.4L397.399 16.4C392.899 19.4 393.199 25.3 394.699 27.6Z" fill="#0D9353"/>
<path fill-rule="evenodd" clip-rule="evenodd" d="M310.499 25.4C308.599 26.7 306.699 28.1 305.099 29.5C304.699 29.8 304.599 30.3 304.899 30.8L308.299 36.5C310.599 35.1 313.499 29.9 310.499 25.4Z" fill="#0D9353"/>
<path fill-rule="evenodd" clip-rule="evenodd" d="M322.5 60.1L326 66C326.8 67.4 328.4 65.6 330 64.4C331 63.7 331.9 63 332.9 62.3C330.4 59.1 326 58.2 322.5 60.1Z" fill="#0D9353"/>
<path fill-rule="evenodd" clip-rule="evenodd" d="M342.8 8.89998C333.4 14.5 330.2 26.8 335.8 36.2C341.4 45.6 353.7 48.7 363.1 43.1C372.5 37.5 375.7 25.2 370.1 15.8C364.5 6.29998 352.3 3.19998 342.8 8.89998Z" fill="#0D9353"/>
<path d="M329.165 45.213C331.443 43.8557 332.188 40.9094 330.831 38.6322C329.474 36.355 326.527 35.6093 324.25 36.9666C321.973 38.3239 321.227 41.2702 322.585 43.5474C323.942 45.8246 326.888 46.5703 329.165 45.213Z" fill="#0D9353"/>
<path d="M381.458 14.0251C383.735 12.6678 384.481 9.72146 383.124 7.44428C381.767 5.1671 378.82 4.42138 376.543 5.77867C374.266 7.13597 373.52 10.0823 374.878 12.3595C376.235 14.6366 379.181 15.3824 381.458 14.0251Z" fill="#0D9353"/>
<path fill-rule="evenodd" clip-rule="evenodd" d="M348.499 17.9C352.799 15.5 357.499 20.2 355.199 21.6C354.599 21.9 353.899 21.7 353.499 21.1C351.699 17.9 346.899 20.7 348.699 23.8C350.999 27.9 356.099 20.6 359.599 26.8C362.999 32.8 353.799 37.9 350.499 32C349.699 30.6 351.899 29.4 352.699 30.8C354.499 34 359.299 31.2 357.499 28.1C355.199 24 350.099 31.3 346.599 25.1C344.999 22.5 345.899 19.3 348.499 17.9Z" fill="#7DDF96"/>
<path fill-rule="evenodd" clip-rule="evenodd" d="M356.3 31.8C357.7 31 358.3 32.9 359 34.1C359.8 35.5 357.6 36.7 356.8 35.3C356.2 34.1 354.9 32.6 356.3 31.8Z" fill="#7DDF96"/>
<path fill-rule="evenodd" clip-rule="evenodd" d="M347.4 16.1C348.8 15.3 349.4 17.2 350.1 18.4C350.9 19.8 348.7 21 347.9 19.6C347.3 18.4 346 16.8 347.4 16.1Z" fill="#7DDF96"/>
<path fill-rule="evenodd" clip-rule="evenodd" d="M-17.0008 86.3C-18.8008 91.2 -20.5008 97.3 -21.4008 102.5C-21.5008 103.1 -21.1008 103.7 -20.4008 104L19.3992 118.4C21.4992 119.2 21.3992 116.2 21.9992 113.8C24.4992 103.2 28.8992 92.6 34.1992 82.4C40.8992 69.6 47.5992 53.4 51.8992 38.8C52.0992 38.2 51.6992 37.5 50.9992 37.2L11.0992 22.7C10.2992 22.4 9.49919 22.8 9.29919 23.4C4.89919 38.2 -1.80081 54.6 -8.80081 68C-12.2008 74.4 -14.9008 80.5 -17.0008 86.3Z" fill="#7DDF96"/>
<path d="M45.3992 52.3C41.6992 62.5 37.0992 73.3 32.8992 81.7C30.0992 87.3 27.3992 93.7 25.1992 99.7C23.2992 105 20.9992 112.2 20.2992 118L-18.9008 103.8C-18.6008 101.3 -17.6008 94.9 -14.1008 85.1C-12.1008 79.6 -9.60078 73.8 -6.60078 67.8C-2.30078 59.2 2.29922 48.4 5.99922 38.1C7.99922 32.6 9.69922 27.4 10.8992 22.9L50.2992 37.1C49.0992 41.5 47.4992 46.7 45.3992 52.3ZM48.0992 53.2C50.2992 47 52.1992 41.2 53.4992 36.3C53.5992 35.7 53.2992 35.1 52.7992 34.9L10.1992 19.6C9.59922 19.4 8.99922 19.7 8.69922 20.3V20.4C7.39922 25.2 5.59922 31 3.39922 37.1C-0.200783 47 -4.70078 57.7 -9.10078 66.5C-12.1008 72.5 -14.7008 78.5 -16.7008 84.1C-21.5008 97.4 -21.8008 104.7 -21.8008 105C-21.8008 105.5 -21.5008 105.9 -21.1008 106.1L21.4992 121.5C22.0992 121.7 22.6992 121.4 22.9992 120.8C22.9992 120.7 23.0992 120.6 23.0992 120.4C23.2992 115.6 25.1992 108.3 27.9992 100.7C30.1992 94.6 32.8992 88.4 35.5992 83C39.8992 74.1 44.4992 63.2 48.0992 53.2Z" fill="#0D9353"/>
<path d="M48 51.6C44.1 62.4 39.3 73.7 34.8 82.6C31.8 88.5 28.9 95.2 26.6 101.6C24.6 107.2 22.2 114.8 21.5 120.9L-21.8 105.2C-21.5 102.5 -20.5 95.8 -16.8 85.4C-14.7 79.6 -12 73.5 -8.9 67.2C-4.3 58.2 0.6 46.8 4.5 35.9C6.6 30.1 8.4 24.6 9.6 19.9L53.1 35.6C51.9 40.3 50.2 45.7 48 51.6ZM51 52.6C53.4 46.1 55.3 39.9 56.6 34.8C56.8 34.2 56.4 33.6 55.8 33.3L8.8 16.3C8.1 16.1 7.4 16.4 7.2 17V17.1C5.9 22.2 4 28.3 1.6 34.8C-2.2 45.2 -6.9 56.5 -11.6 65.7C-14.8 72.1 -17.5 78.3 -19.7 84.2C-24.8 98.2 -25 105.9 -25 106.2C-25 106.7 -24.7 107.2 -24.2 107.4L22.8 124.4C23.5 124.6 24.2 124.3 24.4 123.7C24.4 123.6 24.5 123.5 24.5 123.3C24.6 118.2 26.6 110.5 29.5 102.5C31.8 96.1 34.7 89.5 37.6 83.8C42.3 74.6 47.2 63.2 51 52.6Z" fill="#35414D"/>
<path fill-rule="evenodd" clip-rule="evenodd" d="M48.1987 44.8C48.9987 42.5 49.6987 40.3 50.3987 38.1C50.5987 37.6 50.2987 37 49.7987 36.8L43.1987 34.4C41.5987 39.6 45.5987 44 48.1987 44.8Z" fill="#0D9353"/>
<path fill-rule="evenodd" clip-rule="evenodd" d="M17.7 25.2L11.1 22.8C10.5 22.6 9.9 22.9 9.7 23.5C9 25.7 8.3 28 7.5 30.2C10 31.2 15.7 30.1 17.7 25.2Z" fill="#0D9353"/>
<path fill-rule="evenodd" clip-rule="evenodd" d="M13 115.8L19.5 118.1C21 118.7 21.1 116.2 21.6 114.3C21.9 113.1 22.2 112 22.5 110.8C18.5 109.9 14.5 112 13 115.8Z" fill="#0D9353"/>
<path fill-rule="evenodd" clip-rule="evenodd" d="M-3.80032 63.2C-7.50032 73.5 -2.20032 85 8.09968 88.7C18.3997 92.4 29.7997 87 33.5997 76.7C37.2997 66.4 31.9997 54.9 21.6997 51.2C11.3997 47.5 -0.00031662 52.9 -3.80032 63.2Z" fill="#0D9353"/>
<path d="M8.7404 99.9791C9.64199 97.4862 8.35193 94.7343 5.85896 93.8327C3.36599 92.9311 0.614152 94.2212 -0.287442 96.7142C-1.18904 99.2071 0.101032 101.959 2.594 102.861C5.08697 103.762 7.8388 102.472 8.7404 99.9791Z" fill="#0D9353"/>
<path d="M29.4162 42.7148C30.3178 40.2218 29.0277 37.47 26.5347 36.5684C24.0418 35.6668 21.2899 36.9569 20.3883 39.4499C19.4867 41.9428 20.7768 44.6947 23.2698 45.5963C25.7627 46.4978 28.5146 45.2078 29.4162 42.7148Z" fill="#0D9353"/>
<path fill-rule="evenodd" clip-rule="evenodd" d="M6.30082 66.6C8.10082 62 14.8008 62.7 13.8008 65.2C13.6008 65.8 12.8008 66.2 12.2008 65.9C8.80082 64.6 6.80082 69.7 10.2008 71.1C14.6008 72.8 13.9008 63.9 20.6008 66.5C27.0008 69 23.2008 78.8 16.8008 76.3C15.3008 75.7 16.2008 73.4 17.7008 74C21.1008 75.3 23.1008 70.2 19.7008 68.8C15.3008 67.1 16.0008 76 9.30082 73.4C6.60082 72.4 5.30082 69.3 6.30082 66.6Z" fill="#7DDF96"/>
<path fill-rule="evenodd" clip-rule="evenodd" d="M21.201 72.4C21.801 70.9 23.501 72 24.801 72.5C26.301 73.1 25.401 75.4 23.901 74.8C22.601 74.3 20.701 73.9 21.201 72.4Z" fill="#7DDF96"/>
<path fill-rule="evenodd" clip-rule="evenodd" d="M4.30065 65.9C4.90065 64.4 6.60065 65.5 7.90065 66C9.40065 66.6 8.50065 68.9 7.00065 68.3C5.70065 67.7 3.80065 67.3 4.30065 65.9Z" fill="#7DDF96"/>
<path d="M74.4 115.9C85.1143 115.9 93.8 107.214 93.8 96.5C93.8 85.7857 85.1143 77.1 74.4 77.1C63.6857 77.1 55 85.7857 55 96.5C55 107.214 63.6857 115.9 74.4 115.9Z" fill="#FFCD57"/>
<path d="M93.0002 91C95.6002 99.9 91.5002 109.6 83.0002 113.8C73.4002 118.6 61.8002 114.6 57.0002 105C53.1002 97.2 55.0002 88.2 60.9002 82.4C61.2002 83.5 61.6002 84.6 62.2002 85.6C67.0002 95.2 78.6002 99.1 88.2002 94.4C90.0002 93.6 91.7002 92.4 93.0002 91Z" fill="#F4BA43"/>
<path d="M83.7 115.2C73.4 120.3 60.8 116.1 55.7 105.8C50.6 95.5 54.8 82.9 65.1 77.8C75.4 72.7 88 76.9 93.1 87.2C98.2 97.5 94 110.1 83.7 115.2ZM66.4 80.5C57.6 84.9 53.9 95.7 58.3 104.5C62.7 113.3 73.5 117 82.3 112.6C91.1 108.2 94.8 97.4 90.4 88.6C86 79.7 75.3 76.1 66.4 80.5Z" fill="#35414D"/>
<path d="M75.0997 97.9C72.1997 99.3 68.6997 98.2 67.2997 95.3C65.8997 92.4 66.9997 88.9 69.8997 87.5C72.7997 86.1 76.2997 87.2 77.6997 90.1C78.0997 90.8 77.7997 91.8 76.9997 92.1C76.2997 92.5 75.2997 92.2 74.9997 91.4C74.2997 90 72.5997 89.5 71.2997 90.1C69.8997 90.8 69.3997 92.5 69.9997 93.8C70.6997 95.2 72.3997 95.7 73.6997 95.1C74.3997 94.7 75.3997 95 75.6997 95.8C76.0997 96.6 75.7997 97.5 75.0997 97.9Z" fill="#35414D"/>
<path d="M78.9002 105.6C76.0002 107 72.5002 105.9 71.1002 103C70.7002 102.3 71.0002 101.3 71.8002 101C72.5002 100.6 73.5002 100.9 73.8002 101.7C74.5002 103.1 76.2002 103.6 77.5002 103C78.9002 102.3 79.4002 100.6 78.8002 99.3C78.1002 97.9 76.4002 97.4 75.1002 98C74.4002 98.4 73.4002 98.1 73.1002 97.3C72.7002 96.6 73.0002 95.6 73.8002 95.3C76.7002 93.9 80.2002 95 81.6002 97.9C83.0002 100.6 81.8002 104.1 78.9002 105.6Z" fill="#35414D"/>
<path d="M71.2006 90.1C70.5006 90.5 69.5006 90.2 69.2006 89.4L68.0006 87C67.6006 86.3 67.9006 85.3 68.7006 85C69.4006 84.6 70.4006 84.9 70.7006 85.7L71.9006 88.1C72.3006 88.8 72.0006 89.8 71.2006 90.1Z" fill="#35414D"/>
<path d="M79.9991 107.8C79.2991 108.2 78.2991 107.9 77.9991 107.1L76.8991 104.8C76.4991 104.1 76.7991 103.1 77.5991 102.8C78.2991 102.4 79.2991 102.7 79.5991 103.5L80.6991 105.8C81.0991 106.5 80.7991 107.5 79.9991 107.8Z" fill="#35414D"/>
<path d="M239.9 60.5C250.614 60.5 259.3 51.8143 259.3 41.1C259.3 30.3857 250.614 21.7 239.9 21.7C229.186 21.7 220.5 30.3857 220.5 41.1C220.5 51.8143 229.186 60.5 239.9 60.5Z" fill="#FFCD57"/>
<path d="M258.5 35.6C261.1 44.5 257 54.2 248.5 58.4C238.9 63.2 227.3 59.2 222.5 49.6C218.6 41.8 220.5 32.8 226.4 27C226.7 28.1 227.1 29.2 227.7 30.2C232.5 39.8 244.1 43.7 253.7 39C255.5 38.2 257.1 37 258.5 35.6Z" fill="#F4BA43"/>
<path d="M249.2 59.8C238.9 64.9 226.3 60.7 221.2 50.4C216.1 40.1 220.3 27.5 230.6 22.4C240.9 17.3 253.5 21.5 258.6 31.8C263.7 42.1 259.5 54.7 249.2 59.8ZM231.9 25C223.1 29.4 219.4 40.2 223.8 49C228.2 57.8 239 61.5 247.8 57.1C256.6 52.7 260.3 41.9 255.9 33.1C251.5 24.3 240.7 20.7 231.9 25Z" fill="#35414D"/>
<path d="M240.5 42.4C237.6 43.8 234.1 42.7 232.7 39.8C231.3 36.9 232.4 33.4 235.3 32C238.2 30.6 241.7 31.7 243.1 34.6C243.5 35.3 243.2 36.3 242.4 36.6C241.7 37 240.7 36.7 240.4 35.9C239.7 34.5 238 34 236.7 34.6C235.3 35.3 234.8 37 235.4 38.3C236.1 39.7 237.8 40.2 239.1 39.6C239.8 39.2 240.8 39.5 241.1 40.3C241.6 41.2 241.3 42.1 240.5 42.4Z" fill="#35414D"/>
<path d="M244.4 50.2C241.5 51.6 238 50.5 236.6 47.6C236.2 46.9 236.5 45.9 237.3 45.6C238 45.2 239 45.5 239.3 46.3C240 47.7 241.7 48.2 243 47.6C244.4 46.9 244.9 45.2 244.3 43.9C243.7 42.6 241.9 42 240.6 42.6C239.9 43 238.9 42.7 238.6 41.9C238.2 41.2 238.5 40.2 239.3 39.9C242.2 38.5 245.7 39.6 247.1 42.5C248.4 45.2 247.2 48.7 244.4 50.2Z" fill="#35414D"/>
<path d="M236.701 34.7C236.001 35.1 235.001 34.8 234.701 34L233.501 31.6C233.101 30.9 233.401 29.9 234.201 29.6C234.901 29.2 235.901 29.5 236.201 30.3L237.401 32.7C237.701 33.4 237.401 34.3 236.701 34.7Z" fill="#35414D"/>
<path d="M245.499 52.4C244.799 52.8 243.799 52.5 243.499 51.7L242.399 49.4C241.999 48.7 242.299 47.7 243.099 47.4C243.799 47 244.799 47.3 245.099 48.1L246.199 50.4C246.499 51.1 246.199 52 245.499 52.4Z" fill="#35414D"/>
<path d="M447.599 107C458.314 107 466.999 98.3143 466.999 87.6C466.999 76.8856 458.314 68.2 447.599 68.2C436.885 68.2 428.199 76.8856 428.199 87.6C428.199 98.3143 436.885 107 447.599 107Z" fill="#FFCD57"/>
<path d="M466.199 82.1C468.799 91 464.699 100.7 456.199 104.9C446.599 109.7 434.999 105.7 430.199 96.1C426.299 88.3 428.199 79.3 434.099 73.5C434.399 74.6 434.799 75.7 435.399 76.7C440.199 86.3 451.799 90.2 461.399 85.5C463.199 84.6 464.799 83.5 466.199 82.1Z" fill="#F4BA43"/>
<path d="M456.899 106.3C446.599 111.4 433.999 107.2 428.899 96.9C423.799 86.6 427.999 74 438.299 68.9C448.599 63.8 461.199 68 466.299 78.3C471.399 88.6 467.199 101.1 456.899 106.3ZM439.599 71.5C430.799 75.9 427.099 86.7 431.499 95.5C435.899 104.3 446.699 108 455.499 103.6C464.299 99.2 467.999 88.4 463.599 79.6C459.199 70.7 448.399 67.1 439.599 71.5Z" fill="#35414D"/>
<path d="M448.199 88.9C445.299 90.3 441.799 89.2 440.399 86.3C438.999 83.4 440.099 79.9 442.999 78.5C445.899 77.1 449.399 78.2 450.799 81.1C451.199 81.8 450.899 82.8 450.099 83.1C449.299 83.4 448.399 83.2 448.099 82.4C447.399 81 445.699 80.5 444.399 81.1C443.099 81.7 442.499 83.5 443.099 84.8C443.799 86.2 445.499 86.7 446.799 86.1C447.499 85.7 448.499 86 448.799 86.8C449.299 87.6 448.999 88.5 448.199 88.9Z" fill="#35414D"/>
<path d="M452.099 96.6C449.199 98 445.699 96.9 444.299 94C443.899 93.3 444.199 92.3 444.999 92C445.699 91.6 446.699 91.9 446.999 92.7C447.699 94.1 449.399 94.6 450.699 94C452.099 93.3 452.599 91.6 451.999 90.3C451.299 88.9 449.599 88.4 448.299 89C447.599 89.4 446.599 89.1 446.299 88.3C445.899 87.6 446.199 86.6 446.999 86.3C449.899 84.9 453.399 86 454.799 88.9C456.099 91.7 454.899 95.2 452.099 96.6Z" fill="#35414D"/>
<path d="M444.4 81.2C443.7 81.6 442.7 81.3 442.4 80.5L441.2 78.1C440.8 77.4 441.1 76.4 441.9 76.1C442.6 75.7 443.6 76 443.9 76.8L445.1 79.2C445.4 79.9 445.1 80.8 444.4 81.2Z" fill="#35414D"/>
<path d="M453.198 98.9C452.498 99.3 451.498 99 451.198 98.2L450.098 95.9C449.698 95.2 449.998 94.2 450.798 93.9C451.498 93.5 452.498 93.8 452.798 94.6L453.898 96.9C454.198 97.6 453.898 98.5 453.198 98.9Z" fill="#35414D"/>
<path d="M612.701 91.1C623.415 91.1 632.101 82.4143 632.101 71.7C632.101 60.9857 623.415 52.3 612.701 52.3C601.986 52.3 593.301 60.9857 593.301 71.7C593.301 82.4143 601.986 91.1 612.701 91.1Z" fill="#FFCD57"/>
<path d="M631.301 66.2C633.901 75.1 629.801 84.8 621.301 89C611.701 93.8 600.101 89.8 595.301 80.2C591.401 72.4 593.301 63.4 599.201 57.6C599.501 58.7 599.901 59.8 600.501 60.8C605.301 70.4 616.901 74.3 626.501 69.6C628.301 68.7 629.901 67.6 631.301 66.2Z" fill="#F4BA43"/>
<path d="M622.001 90.4C611.701 95.5 599.101 91.3 594.001 81C588.901 70.7 593.101 58.1 603.401 53C613.701 47.9 626.301 52.1 631.401 62.4C636.501 72.7 632.301 85.3 622.001 90.4ZM604.701 55.6C595.901 60 592.201 70.8 596.601 79.6C601.001 88.4 611.801 92.1 620.601 87.7C629.401 83.3 633.101 72.5 628.701 63.7C624.301 54.9 613.501 51.2 604.701 55.6Z" fill="#35414D"/>
<path d="M613.4 73C610.5 74.4 607 73.3 605.6 70.4C604.2 67.5 605.3 64 608.2 62.6C611.1 61.2 614.6 62.3 616 65.2C616.4 65.9 616.1 66.9 615.3 67.2C614.6 67.6 613.6 67.3 613.3 66.5C612.6 65.1 610.9 64.6 609.6 65.2C608.2 65.9 607.7 67.6 608.3 68.9C609 70.3 610.7 70.8 612 70.2C612.7 69.8 613.7 70.1 614 70.9C614.4 71.7 614.1 72.7 613.4 73Z" fill="#35414D"/>
<path d="M617.201 80.7C614.301 82.1 610.801 81 609.401 78.1C609.001 77.4 609.301 76.4 610.101 76.1C610.801 75.7 611.801 76 612.101 76.8C612.801 78.2 614.501 78.7 615.801 78.1C617.201 77.4 617.701 75.7 617.101 74.4C616.401 73 614.701 72.5 613.401 73.1C612.701 73.5 611.701 73.2 611.401 72.4C611.101 71.6 611.301 70.7 612.101 70.4C615.001 69 618.501 70.1 619.901 73C621.201 75.8 620.001 79.3 617.201 80.7Z" fill="#35414D"/>
<path d="M609.501 65.3C608.801 65.7 607.801 65.4 607.501 64.6L606.301 62.2C605.901 61.5 606.201 60.5 607.001 60.2C607.801 59.9 608.701 60.1 609.001 60.9L610.201 63.3C610.501 64 610.301 64.9 609.501 65.3Z" fill="#35414D"/>
<path d="M618.3 83C617.6 83.4 616.6 83.1 616.3 82.3L615.2 80C614.8 79.3 615.1 78.3 615.9 78C616.6 77.6 617.6 77.9 617.9 78.7L619 81C619.3 81.7 619 82.6 618.3 83Z" fill="#35414D"/>
</g>
</g>
</svg>
