<svg width="197" height="158" viewBox="0 0 197 158" fill="none" xmlns="http://www.w3.org/2000/svg">
<path d="M180.287 135.367C166.472 150.386 145.567 158 118.163 158H108.316V130.162L116.233 128.573C129.723 125.867 139.107 120.544 144.129 112.733C146.75 108.525 148.236 103.707 148.442 98.75H118.163C115.551 98.75 113.047 97.7096 111.2 95.8577C109.353 94.0058 108.316 91.494 108.316 88.875V19.75C108.316 8.85788 117.149 0 128.01 0H187.091C189.703 0 192.207 1.04039 194.054 2.89232C195.901 4.74423 196.938 7.25598 196.938 9.875V59.25L196.909 88.0751C196.997 89.1712 198.868 115.143 180.287 135.367ZM19.6938 0H78.7752C81.3868 0 83.8914 1.04039 85.7381 2.89232C87.5847 4.74423 88.6221 7.25598 88.6221 9.875V59.25L88.5926 88.0751C88.6812 89.1712 90.5521 115.143 71.971 135.367C58.1558 150.386 37.2508 158 9.84691 158H0V130.162L7.91692 128.573C21.4072 125.867 30.7913 120.544 35.8132 112.733C38.4343 108.525 39.9206 103.707 40.1261 98.75H9.84691C7.23534 98.75 4.73074 97.7096 2.88408 95.8577C1.03743 94.0058 0 91.494 0 88.875V19.75C0 8.85788 8.83267 0 19.6938 0Z" fill="#D8F3E7"/>
</svg>
