<?xml version="1.0" encoding="utf-8"?>
<!-- Generator: Adobe Illustrator 25.0.0, SVG Export Plug-In . SVG Version: 6.00 Build 0)  -->
<svg version="1.1" id="Layer_1" xmlns="http://www.w3.org/2000/svg" xmlns:xlink="http://www.w3.org/1999/xlink" x="0px" y="0px"
	 viewBox="0 0 565 175" style="enable-background:new 0 0 565 175;" xml:space="preserve">
<style type="text/css">
	.st0{fill:#87796F;}
	.st1{fill:#FFF2E8;}
	.st2{fill:#FEDA9B;}
	.st3{fill:#FFB954;}
	.st4{fill:#FF5D5D;}
	.st5{fill:#FF5A5A;}
	.st6{fill:#C1A897;}
	.st7{fill:#FFFFFF;}
	.st8{fill:#35414D;}
	.st9{fill:#F0FCFF;}
	.st10{fill:#D7ECFE;}
	.st11{fill:#FFBD63;}
	.st12{fill:#EAC892;}
	.st13{fill:#FF7E8E;}
	.st14{fill:#F45175;}
	.st15{fill:#EAEBEC;}
</style>
<g>
	<g>
		<g>
			<path class="st0" d="M258.5,82.2l-15.7,5.2L226,132.3c-1.5,4.2,0.6,8.8,4.7,10.3l75.2,28c4.2,1.5,8.8-0.6,10.3-4.7l16.8-44.9
				l-8.6-13.9"/>
		</g>
		<g>
			
				<rect x="251.6" y="66.9" transform="matrix(0.3494 -0.937 0.937 0.3494 92.9598 336.6656)" class="st1" width="74.6" height="68.9"/>
		</g>
		<g>
			<path class="st2" d="M287.9,141.7l-25.6-9.5l-19.5-44.8L226,132.3c-1.5,4.2,0.6,8.8,4.7,10.3l75.2,28c4.2,1.5,8.8-0.6,10.3-4.7
				l16.8-44.9L287.9,141.7z"/>
		</g>
		<g>
			<path class="st3" d="M229.9,140.9l35.6-14.2c9.3-3.7,20,0.2,24.6,9.2l17.6,34.1L229.9,140.9z"/>
		</g>
		<g>
			<g>
				<path class="st4" d="M312.4,95.4c3.2-1.5,4.6-5.2,3.1-8.4s-5.2-4.6-8.4-3.1L312.4,95.4z"/>
			</g>
			<g>
				<path class="st5" d="M284.6,110.6l-9.5,4.3c-4.3,2-9.4,0.1-11.4-4.3l0,0c-2-4.3-0.1-9.4,4.3-11.4l9.5-4.3L284.6,110.6z"/>
			</g>
		</g>
		<g>
			<polygon class="st0" points="284.6,110.6 289.7,121.7 282.9,124.8 277.9,113.7 			"/>
		</g>
		<g>
			<polygon class="st6" points="284.6,110.6 277.4,94.9 300.9,70.2 318.6,109 			"/>
		</g>
		<g>
			<polygon class="st7" points="309.9,109.4 318.6,109 300.9,70.2 294.9,76.6 			"/>
		</g>
		<g>
			<path class="st8" d="M287,74c-0.3-0.1-0.6-0.4-0.7-0.7c-0.1-0.3-0.2-0.7,0-1c0.1-0.3,0.4-0.6,0.7-0.7c0.3-0.1,0.7-0.2,1,0
				c0.3,0.1,0.6,0.4,0.7,0.7s0.2,0.7,0,1c-0.1,0.3-0.4,0.6-0.7,0.7C287.7,74.1,287.4,74.1,287,74z"/>
		</g>
		<g>
			<path class="st8" d="M272.9,68.7c-0.7-0.2-1-1-0.8-1.7c0.2-0.7,1-1,1.7-0.8l7.4,2.7c0.7,0.2,1,1,0.8,1.7c-0.2,0.7-1,1-1.7,0.8
				L272.9,68.7z"/>
		</g>
		<g>
			<path class="st8" d="M269.1,79c-0.7-0.2-1-1-0.8-1.7c0.2-0.7,1-1,1.7-0.8l8.8,3.3c0.7,0.2,1,1,0.8,1.7s-1,1-1.7,0.8L269.1,79z"/>
		</g>
		<g>
			<path class="st8" d="M230.2,143.9c-4.8-1.8-7.3-7.2-5.5-12L241.5,87c0.1-0.4,0.4-0.6,0.8-0.8l15.7-5.2l0,0l0.3-0.1l10-26.9
				c0.2-0.7,1-1,1.7-0.8l22.4,8.3c0.7,0.2,1,1,0.8,1.7s-1,1-1.7,0.8l-21.2-7.9l-18.1,48.6c0,0,0,0,0,0c0,0,0,0,0,0l-0.1,0.3
				l9.9,21.7l2.9-1.2c4.8-1.9,10.1-2,15-0.2c0.2,0.1,0.4,0.1,0.6,0.2l1.6,0.6l-4.9-10.8l-1.6,0.7c-2.4,1.1-5.1,1.2-7.6,0.3
				c-2.5-0.9-4.4-2.8-5.5-5.2c-1.1-2.4-1.2-5.1-0.3-7.6c0.9-2.5,2.8-4.4,5.2-5.5l9.3-4.2L300,69.4c0.3-0.3,0.7-0.5,1.1-0.4
				c0.1,0,0.2,0,0.2,0.1c0.3,0.1,0.6,0.4,0.7,0.7l5.7,12.5l0.5-0.1c1.4-0.3,2.8-0.1,4.1,0.3c1.9,0.7,3.4,2.1,4.3,4
				c0.8,1.9,0.9,3.9,0.2,5.9c-0.5,1.3-1.3,2.5-2.4,3.3l-0.4,0.3l5.7,12.5c0.2,0.4,0.2,0.8-0.1,1.2c-0.2,0.4-0.6,0.6-1,0.6l-32.1,1.5
				l4.3,9.4c0.3,0.6,0,1.4-0.6,1.7l-7.7,3.5l1.1,0.7c3.2,2,5.9,4.8,7.6,8.2l1.5,2.8l21.7-9.9l0.1-0.3l0,0l9.3-24.9
				c0.2-0.7,1-1,1.7-0.8c0.7,0.2,1,1,0.8,1.7l-0.8,2.3l0.2,0.3l0,0l8.3,13.4l0.3,0.5c0.2,0.3,0.3,0.8,0.1,1.1l-16.8,44.9
				c-1.8,4.8-7.2,7.3-12,5.5L230.2,143.9z M231.6,141.6l74.3,27.7l-17-32.9c-2.1-4.1-5.6-7.2-9.8-8.7c-4.2-1.6-8.9-1.5-13.1,0.2
				l-20.9,8.4l11,4.1c0.7,0.2,1,1,0.8,1.7c-0.2,0.7-1,1-1.7,0.8l-13.7-5.1L231.6,141.6z M293.9,140.3l14.9,29c0,0,0,0.1,0.1,0.1
				l0.2,0.5l0.5-0.1c2.5-0.3,4.6-2,5.4-4.3l15.7-42L293.9,140.3z M227.2,132.8c-0.9,2.3-0.4,5,1.3,6.8l0.4,0.4l0.5-0.2
				c0,0,0.1,0,0.1-0.1l30.3-12.1l-16.8-36.8L227.2,132.8z M279.6,114.3l4,8.8l4.4-2l-4-8.8L279.6,114.3z M268.5,100.4
				c-1.8,0.8-3.1,2.3-3.8,4.1c-0.7,1.8-0.6,3.8,0.2,5.6c0.8,1.8,2.3,3.1,4.1,3.8c1.8,0.7,3.8,0.6,5.6-0.2l8.3-3.8l-6.1-13.3
				L268.5,100.4z M317.6,126.6l13.5-6.2l-7-11.3L317.6,126.6z M244.5,88.2l6.2,13.5l6.6-17.7L244.5,88.2z M279,95.2l6.4,14.1l22.5-1
				l-13.4-29.4L279,95.2z M296.4,76.8l14.3,31.3l6-0.3l-16.1-35.3L296.4,76.8z M311.5,84.9c-0.5-0.2-1.1-0.3-1.6-0.3l-1.1,0l4.2,9.1
				l0.7-0.8c0.4-0.4,0.6-0.9,0.8-1.4c0.5-1.3,0.4-2.6-0.1-3.9C313.8,86.3,312.8,85.4,311.5,84.9z"/>
		</g>
		<g>
			<path class="st5" d="M323.7,84.4c-0.3-0.1-0.6-0.4-0.7-0.7c-0.3-0.6,0-1.4,0.6-1.7l10.2-4.6c0.3-0.1,0.7-0.2,1,0
				c0.3,0.1,0.6,0.4,0.7,0.7c0.3,0.6,0,1.4-0.6,1.7l-10.2,4.6C324.3,84.5,324,84.6,323.7,84.4z"/>
		</g>
		<g>
			<path class="st5" d="M318.2,78.1c-0.7-0.2-1-1-0.8-1.7l1.4-3.7c0.2-0.7,1-1,1.7-0.8c0.7,0.2,1,1,0.8,1.7l-1.4,3.7
				C319.6,78,318.8,78.3,318.2,78.1z"/>
		</g>
		<g>
			<path class="st5" d="M324.8,92.5c-0.7-0.2-1-1-0.8-1.7c0.2-0.7,1-1,1.7-0.8l3.8,1.4c0.7,0.2,1,1,0.8,1.7s-1,1-1.7,0.8L324.8,92.5
				z"/>
		</g>
		<g>
			<path class="st8" d="M262.7,145.9c-0.4-0.1-0.7-0.5-0.9-0.8c-0.2-0.4-0.2-0.8,0-1.2c0.1-0.4,0.5-0.7,0.8-0.9
				c0.4-0.2,0.8-0.2,1.2,0c0.4,0.1,0.7,0.5,0.9,0.8c0.2,0.4,0.2,0.8,0,1.2s-0.5,0.7-0.8,0.9C263.5,146,263.1,146,262.7,145.9z"/>
		</g>
	</g>
	<g>
		<g>
			<g>
				<path class="st0" d="M98.5,31.8l4.2,26.6L18.7,93.8L2.6,72.2l30.9-52.9c1.1-1.9,3.4-2.9,5.6-2.3L98.5,31.8z"/>
			</g>
			<g>
				<path class="st9" d="M97.5,75.8l-66.5,28c-2.1,0.9-4.6-0.1-5.5-2.2l-20.2-48l5.1-5l0-7.8L71.9,15c2.1-0.9,4.6,0.1,5.5,2.2
					l22.4,53.1C100.7,72.5,99.7,74.9,97.5,75.8z"/>
			</g>
			<g>
				<path class="st10" d="M75.6,13.4l-5.8,2.4c2.1-0.9,4.6,0.1,5.5,2.2l22.4,53.1c0.9,2.1-0.1,4.6-2.2,5.5l5.8-2.4
					c2.1-0.9,3.1-3.4,2.2-5.5L81.1,15.7C80.2,13.5,77.7,12.5,75.6,13.4z"/>
			</g>
			<g>
				<polygon class="st2" points="20.2,114 2.6,72.4 42.8,75.1 35.5,95.3 				"/>
			</g>
			<g>
				<polygon class="st2" points="116,73.6 98.5,32 72.4,62.7 93.6,72.5 				"/>
			</g>
			<g>
				<path class="st11" d="M118.7,79.9l-95.9,40.4l30.9-52.9c1.1-1.9,3.4-2.9,5.6-2.3L118.7,79.9z"/>
			</g>
			<g>
				<path class="st11" d="M118.7,79.9l-95.9,40.4l30.9-52.9c1.1-1.9,3.4-2.9,5.6-2.3L118.7,79.9z"/>
			</g>
			<g>
				<polygon class="st12" points="42.8,75.1 20.2,114 22.8,120.3 60.8,76.4 				"/>
			</g>
			<g>
				<polygon class="st12" points="72.4,62.7 116,73.6 118.7,79.9 60.8,76.4 				"/>
			</g>
			<g>
				<path class="st13" d="M87.1,15.6c1.7,3.9,2.2,18.5-7.9,20.6C71.8,37.8,64,33.9,61,26.6c-3-7.2-0.5-15.4,5.8-19.7
					C75.3,1.1,86.5,14,87.1,15.6z"/>
			</g>
			<g>
				<path class="st14" d="M66.9,6.8c7.5-1.6,15.2,2.3,18.3,9.6c3.1,7.3,0.4,15.5-5.9,19.8C89.3,34.2,94.9,23.4,90.9,14
					C87,4.6,75.4,1.1,66.9,6.8z"/>
			</g>
			<g>
				<path class="st10" d="M5.3,53.7l7.6-3.2c0.7-0.3,1.1-1.2,0.8-1.9l-3.2-7.7L5.3,53.7z"/>
			</g>
			<g>
				<path class="st3" d="M118.7,79.9l-95.9,40.4l30.9-52.9c1.1-1.9,3.4-2.9,5.6-2.3L118.7,79.9z"/>
			</g>
		</g>
		<g>
			<g>
				<path class="st8" d="M3.2,73.7c-0.4,0.2-1,0.2-1.4-0.1c-0.7-0.4-1-1.4-0.6-2.1l6.2-10.6c0.4-0.7,1.4-1,2.1-0.6
					c0.7,0.4,1,1.4,0.6,2.1L3.9,73C3.7,73.3,3.5,73.5,3.2,73.7z"/>
			</g>
			<g>
				<path class="st8" d="M99.1,33.3c-0.3,0.1-0.6,0.2-1,0.1l-8.8-2.2c-0.8-0.2-1.4-1.1-1.1-1.9c0.2-0.8,1.1-1.4,1.9-1.1l8.8,2.2
					c0.8,0.2,1.4,1.1,1.1,1.9C99.8,32.7,99.5,33.1,99.1,33.3z"/>
			</g>
			<g>
				<path class="st8" d="M57.3,22.8c-0.3,0.1-0.6,0.2-1,0.1l-17.6-4.4c-1.5-0.4-3,0.3-3.8,1.6l-9.2,15.7c-0.4,0.7-1.4,1-2.1,0.6
					c-0.7-0.4-1-1.4-0.6-2.1l9.2-15.7c1.5-2.5,4.5-3.8,7.3-3.1L57,19.9c0.8,0.2,1.4,1.1,1.1,1.9C58.1,22.3,57.7,22.7,57.3,22.8z"/>
			</g>
			<g>
				<path class="st8" d="M13.9,74c-0.8,0.3-1.7,0-2.1-0.8L3.9,54.3c-0.2-0.4-0.2-0.8,0-1.2l5.2-12.8c0.2-0.4,0.5-0.7,0.8-0.9
					l48.6-20.5c0.8-0.3,1.7,0,2.1,0.8s0,1.7-0.8,2.1L11.7,42L7,53.6l7.7,18.3C15.1,72.7,14.7,73.6,13.9,74z"/>
			</g>
			<g>
				<path class="st8" d="M91.8,41.3c-0.8,0.3-1.7,0-2.1-0.8l-3.5-8.3c-0.3-0.8,0-1.7,0.8-2.1c0.8-0.3,1.7,0,2.1,0.8l3.5,8.3
					C93,40,92.6,41,91.8,41.3z"/>
			</g>
			<g>
				<path class="st8" d="M48.7,77c-0.2,0.1-0.5,0.1-0.7,0.1l-42.9-3l5.5,13.1c0.3,0.8,0,1.7-0.8,2.1c-0.8,0.3-1.7,0-2.1-0.8L1.2,73
					C1,72.5,1,71.9,1.4,71.5c0.3-0.4,0.8-0.7,1.4-0.7l45.4,3.1c0.9,0.1,1.5,0.8,1.5,1.7C49.6,76.2,49.2,76.7,48.7,77z"/>
			</g>
			<g>
				<path class="st8" d="M23.4,121.8c-0.8,0.3-1.7,0-2.1-0.8l-10.9-26c-0.3-0.8,0-1.7,0.8-2.1c0.8-0.3,1.7,0,2.1,0.8l10.9,26
					C24.6,120.5,24.2,121.4,23.4,121.8z"/>
			</g>
			<g>
				<path class="st8" d="M119.3,81.4c-0.8,0.3-1.7,0-2.1-0.8L98.1,35L69.6,68.4c-0.6,0.7-1.6,0.7-2.2,0.2c-0.7-0.6-0.7-1.6-0.2-2.2
					L97.3,31c0.4-0.4,0.9-0.6,1.4-0.5c0.5,0.1,1,0.4,1.2,0.9l20.2,47.9C120.5,80.1,120.1,81,119.3,81.4z"/>
			</g>
			<g>
				<path class="st8" d="M119.3,81.4l-95.9,40.4c-0.6,0.3-1.3,0.1-1.8-0.4c-0.4-0.5-0.5-1.2-0.2-1.8l30.9-52.9
					c1.5-2.5,4.5-3.8,7.3-3.1l38.9,9.7c0.8,0.2,1.4,1.1,1.1,1.9c-0.2,0.8-1.1,1.4-1.9,1.1l-38.9-9.7c-1.5-0.4-3,0.3-3.8,1.6
					L26.5,117l87.2-36.7l-9.3-2.3c-0.8-0.2-1.4-1.1-1.1-1.9s1.1-1.4,1.9-1.1l13.8,3.5c0.7,0.2,1.1,0.7,1.2,1.4
					C120.3,80.5,119.9,81.1,119.3,81.4z"/>
			</g>
			<g>
				<path class="st8" d="M82.9,36.8c-9.1,3.8-19.5-0.5-23.3-9.5C55.7,18.2,60,7.7,69,3.9c2-0.9,4.2-1.3,6.4-1.4
					c0.9,0,1.6,0.7,1.6,1.5c0,0.9-0.7,1.6-1.5,1.6c-1.8,0.1-3.6,0.4-5.3,1.1c-7.5,3.1-11,11.8-7.8,19.2c3.1,7.5,11.8,11,19.2,7.8
					s11-11.8,7.8-19.2c-1.5-3.6-4.3-6.4-7.9-7.9c-0.8-0.3-1.2-1.3-0.8-2.1c0.3-0.8,1.3-1.2,2.1-0.8c4.3,1.8,7.7,5.2,9.6,9.5
					C96.2,22.5,91.9,32.9,82.9,36.8z"/>
			</g>
			<g>
				<g>
					<g>
						<path class="st8" d="M78.4,25.4c-2.5,1-5.5-0.5-6.7-3.4c-1.2-2.9-0.1-5.9,2.4-7c2.5-1.1,5.2,0.3,6.5,3.3
							C81.8,21.2,80.8,24.4,78.4,25.4z M75.3,17.9c-0.8,0.3-1.3,1.5-0.7,2.9c0.6,1.4,1.8,2,2.6,1.7c0.7-0.3,1.1-1.6,0.5-3
							C77.1,18.2,76.1,17.6,75.3,17.9z"/>
					</g>
				</g>
				<g>
					<g>
						<path class="st8" d="M80.2,30.9C80.2,30.9,80.2,30.9,80.2,30.9c-4.7,1.8-10.1,0.3-13.2-3.7c-3.7-4.8-3-11.7,1.6-15.6
							c2.3-2,5.3-3,8.4-2.7c3.1,0.3,5.8,1.7,7.8,4.1c1.4,1.8,2.1,3.8,2.1,6.5c0,1.8-0.8,4.1-3.2,5.1c-0.9,0.4-1.8,0.4-2.8,0
							c-1-0.4-1.8-1.2-2.2-2.2l-1.2-2.9c-0.3-0.8,0.1-1.7,0.8-2c0,0,0,0,0,0c0.8-0.3,1.7,0.1,2,0.9l1.2,2.9c0.1,0.2,0.3,0.4,0.5,0.5
							c0.1,0,0.2,0.1,0.3,0c1.1-0.5,1.2-1.6,1.2-2.1c0-2-0.5-3.3-1.4-4.6c-1.4-1.7-3.4-2.7-5.6-2.9c-2.2-0.2-4.4,0.5-6.1,1.9
							c-3.3,2.9-3.9,7.8-1.2,11.3c2.2,2.9,6.1,4,9.5,2.7c0.8-0.3,1.7,0.1,2,0.9C81.4,29.7,81,30.6,80.2,30.9z"/>
					</g>
					<g>
						<path class="st8" d="M86,21c-0.2,0.1-0.4,0.1-0.6,0.1c-0.9,0-1.6-0.7-1.6-1.5c0-2-0.5-3.3-1.4-4.6c-0.5-0.7-0.4-1.7,0.3-2.2
							c0.7-0.5,1.7-0.4,2.2,0.3c1.4,1.8,2.1,3.8,2.1,6.5C87,20.2,86.6,20.8,86,21z"/>
					</g>
				</g>
			</g>
			<g>
				<path class="st8" d="M13.6,51.9l-7.6,3.2c-0.8,0.3-1.7,0-2.1-0.8s0-1.7,0.8-2.1l7.5-3.2l-3.2-7.6c-0.3-0.8,0-1.7,0.8-2.1
					c0.8-0.3,1.7,0,2.1,0.8l3.2,7.7C15.9,49.5,15.1,51.2,13.6,51.9z"/>
			</g>
			<g>
				<g>
					<path class="st8" d="M56.8,37.7l-21,8.8c-0.8,0.3-1.7,0-2.1-0.8c-0.3-0.8,0-1.7,0.8-2.1l21-8.8c0.8-0.3,1.7,0,2.1,0.8
						C58,36.4,57.6,37.4,56.8,37.7z"/>
				</g>
				<g>
					<path class="st8" d="M74,44L40.3,58.2c-0.8,0.3-1.7,0-2.1-0.8s0-1.7,0.8-2.1l33.7-14.2c0.8-0.3,1.7,0,2.1,0.8
						C75.2,42.8,74.8,43.7,74,44z"/>
				</g>
				<g>
					<path class="st8" d="M59.7,57.1L30.9,69.2c-0.8,0.3-1.7,0-2.1-0.8c-0.3-0.8,0-1.7,0.8-2.1l28.8-12.1c0.8-0.3,1.7,0,2.1,0.8
						C60.9,55.8,60.5,56.8,59.7,57.1z"/>
				</g>
				<g>
					<path class="st8" d="M34.3,60.7l-6,2.5c-0.8,0.3-1.7,0-2.1-0.8c-0.3-0.8,0-1.7,0.8-2.1l6-2.5c0.8-0.3,1.7,0,2.1,0.8
						C35.5,59.5,35.1,60.4,34.3,60.7z"/>
				</g>
				<g>
					<path class="st8" d="M76.6,50l-10.9,4.6c-0.8,0.3-1.7,0-2.1-0.8c-0.3-0.8,0-1.7,0.8-2.1l10.9-4.6c0.8-0.3,1.7,0,2.1,0.8
						C77.7,48.7,77.4,49.7,76.6,50z"/>
				</g>
			</g>
		</g>
	</g>
	<g>
		<g>
			<path class="st0" d="M550.2,73.6l-16.4,20.8l-81.6-37l4.8-26.1l58.8-13c2.1-0.5,4.3,0.5,5.4,2.4L550.2,73.6z"/>
		</g>
		<g>
			<polygon class="st2" points="438.6,71.9 456.9,31.5 481.8,62.4 462.3,70.5 			"/>
		</g>
		<g>
			<polygon class="st2" points="531.8,114.2 550.2,73.7 510.5,75.4 517.7,97.2 			"/>
		</g>
		<g>
			<path class="st11" d="M529,120.3l-93.2-42.3l58.8-13c2.1-0.5,4.3,0.5,5.4,2.4L529,120.3z"/>
		</g>
		<g>
			<path class="st11" d="M529,120.3l-93.2-42.3l58.8-13c2.1-0.5,4.3,0.5,5.4,2.4L529,120.3z"/>
		</g>
		<g>
			<polygon class="st12" points="481.8,62.4 438.6,71.9 435.8,78.1 492.9,76.1 			"/>
		</g>
		<g>
			<polygon class="st12" points="510.5,75.4 531.8,114.2 529,120.3 492.9,76.1 			"/>
		</g>
		<g>
			<path class="st3" d="M529,120.3l-93.2-42.3l58.8-13c2.1-0.5,4.3,0.5,5.4,2.4L529,120.3z"/>
		</g>
		<g>
			<path class="st8" d="M456.3,32.7c-0.4-0.2-0.8-0.6-0.9-1.1c-0.2-0.8,0.3-1.7,1.2-1.8l11.8-2.6c0.8-0.2,1.7,0.3,1.8,1.2
				c0.2,0.8-0.3,1.7-1.2,1.8l-11.8,2.6C457,32.9,456.6,32.8,456.3,32.7z"/>
		</g>
		<g>
			<path class="st8" d="M549.6,75c-0.3-0.1-0.5-0.4-0.7-0.7l-4.3-7.9c-0.4-0.7-0.1-1.7,0.6-2.1c0.7-0.4,1.7-0.1,2.1,0.6l4.3,7.9
				c0.4,0.7,0.1,1.7-0.6,2.1C550.5,75.2,550,75.2,549.6,75z"/>
		</g>
		<g>
			<path class="st8" d="M497.7,23.5c-0.4-0.2-0.8-0.6-0.9-1.1c-0.2-0.8,0.3-1.7,1.2-1.8l17.5-3.9c2.8-0.6,5.7,0.7,7.1,3.2l8.6,15.7
				c0.4,0.7,0.1,1.7-0.6,2.1c-0.7,0.4-1.7,0.1-2.1-0.6l-8.6-15.7c-0.7-1.3-2.2-2-3.7-1.7l-17.5,3.9C498.3,23.7,498,23.7,497.7,23.5z
				"/>
		</g>
		<g>
			<path class="st8" d="M484.4,67.8c-0.2-0.1-0.4-0.2-0.6-0.4l-26.5-32.9l-5.8,12.8c-0.4,0.8-1.3,1.1-2,0.8c-0.8-0.4-1.1-1.3-0.8-2
				l6.8-15.1c0.2-0.5,0.7-0.8,1.2-0.9c0.5-0.1,1.1,0.1,1.4,0.6l28.1,34.9c0.5,0.7,0.4,1.6-0.2,2.2C485.5,67.9,484.9,68,484.4,67.8z"
				/>
		</g>
		<g>
			<path class="st8" d="M435.1,79.5c-0.8-0.4-1.1-1.3-0.8-2l11.4-25.3c0.4-0.8,1.3-1.1,2-0.8c0.8,0.4,1.1,1.3,0.8,2l-11.4,25.3
				C436.8,79.5,435.9,79.8,435.1,79.5z"/>
		</g>
		<g>
			<path class="st8" d="M528.4,121.7c-0.8-0.4-1.1-1.3-0.8-2l20.1-44.3l-43.1,1.8c-0.9,0-1.6-0.6-1.6-1.5c0-0.9,0.6-1.6,1.5-1.6
				l45.7-1.9c0.5,0,1,0.2,1.3,0.7c0.3,0.4,0.3,1,0.1,1.5L530.4,121C530.1,121.8,529.2,122.1,528.4,121.7z"/>
		</g>
		<g>
			<path class="st8" d="M528.4,121.7l-93.2-42.3c-0.6-0.3-1-0.9-0.9-1.6c0.1-0.7,0.6-1.2,1.2-1.3l58.8-13c2.8-0.6,5.7,0.7,7.1,3.2
				l19,34.6c0.4,0.7,0.1,1.7-0.6,2.1c-0.7,0.4-1.7,0.1-2.1-0.6l-19-34.6c-0.7-1.3-2.3-2-3.7-1.7l-54.3,12l84.8,38.4l-4.5-8.2
				c-0.4-0.7-0.1-1.7,0.6-2.1c0.7-0.4,1.7-0.1,2.1,0.6l6.8,12.3c0.3,0.6,0.2,1.3-0.2,1.8C529.7,121.9,529,122,528.4,121.7z"/>
		</g>
		<g>
			<g>
				<g>
					<path class="st7" d="M552.6,42.3L538,74.5l-45.4,7.6c-1.6,0.3-3.2-0.5-4-1.8l-24.2-39.2L479,8.9c2.1-4.5,7.5-6.5,12.3-4.3
						l56.5,25.6C552.5,32.3,554.7,37.7,552.6,42.3z"/>
				</g>
			</g>
			<g>
				<g>
					<path class="st15" d="M540.3,69.4l-2.3,5.1l-45.4,7.6c-1.6,0.3-3.2-0.5-4-1.8l-24.2-39.2L479,8.9c2.1-4.5,7.5-6.5,12.3-4.3
						l30,17c-12.4-1.7-22.1,0.5-24.9,6.8c-4.5,10,10.3,26.5,33.1,36.9C533.1,66.8,536.7,68.3,540.3,69.4z"/>
				</g>
			</g>
			<g>
				<g>
					<path class="st13" d="M548.5,51.3l4.1-9c2.1-4.5-0.1-10-4.8-12.1L491.3,4.6C486.5,2.4,481,4.4,479,8.9l-4.1,9L548.5,51.3z"/>
				</g>
			</g>
			<g>
				<g>
					<path class="st14" d="M551.5,44.6l-3,6.6l-73.6-33.4l4.1-9c2.1-4.5,7.5-6.5,12.3-4.3l3.2,1.5c-0.8,7.1,16.1,24.2,41,35.5
						C540.6,43.8,546.8,42.9,551.5,44.6z"/>
				</g>
			</g>
			<g>
				<g>
					<path class="st8" d="M489.8,82.9c-0.9-0.4-1.7-1.1-2.3-2l-24.2-39.2c-0.2-0.3-0.2-0.7-0.1-1.1l14.6-32.2
						c2.3-5.1,8.5-7.3,13.9-4.9l56.5,25.6c5.3,2.4,7.8,8.5,5.5,13.7L539.1,75c-0.2,0.3-0.5,0.6-0.9,0.7l-45.4,7.6
						C491.8,83.4,490.8,83.3,489.8,82.9L489.8,82.9z M465.8,41l23.9,38.7c0.6,0.9,1.7,1.4,2.7,1.2l44.8-7.5l14.3-31.6
						c1.8-3.9-0.1-8.7-4.2-10.5L490.8,5.6c-4.1-1.9-8.9-0.2-10.7,3.8L465.8,41z"/>
				</g>
			</g>
			<g>
				<g>
					<path class="st8" d="M548.1,52.3L474.4,19c-0.6-0.3-0.9-1-0.6-1.6l4.1-9c2.3-5.1,8.5-7.3,13.9-4.9l56.5,25.6
						c5.3,2.4,7.8,8.5,5.5,13.7l-4.1,9C549.4,52.4,548.7,52.6,548.1,52.3z M476.5,17.4l71.4,32.4l3.6-7.9c1.8-3.9-0.1-8.7-4.2-10.5
						L490.8,5.6c-4.1-1.9-8.9-0.2-10.7,3.8L476.5,17.4z"/>
				</g>
			</g>
			<g>
				<g>
					<path class="st8" d="M509.5,44.1l-27.8-12.6c-0.6-0.3-0.9-1-0.6-1.6s1-0.8,1.6-0.6L510.4,42c0.6,0.3,0.9,1,0.6,1.6
						S510.1,44.4,509.5,44.1z"/>
				</g>
			</g>
			<g>
				<g>
					<path class="st8" d="M517.1,55.7l-38.5-17.5c-0.6-0.3-0.9-1-0.6-1.6c0.3-0.6,1-0.8,1.6-0.6l38.5,17.5c0.6,0.3,0.9,1,0.6,1.6
						S517.7,56,517.1,55.7z"/>
				</g>
			</g>
			<g>
				<g>
					<path class="st8" d="M503.3,57.7l-27.8-12.6c-0.6-0.3-0.9-1-0.6-1.6s1-0.8,1.6-0.6l27.8,12.6c0.6,0.3,0.9,1,0.6,1.6
						S503.9,57.9,503.3,57.7z"/>
				</g>
			</g>
			<g>
				<g>
					<g>
						<path class="st7" d="M493.9,16.1c-0.9,2-3.4,2.9-5.5,1.9c-2.1-1-3.1-3.4-2.2-5.4s3.4-2.9,5.5-1.9
							C493.9,11.7,494.8,14.1,493.9,16.1z"/>
					</g>
				</g>
				<g>
					<g>
						<path class="st15" d="M493.8,16.5c-1,1.8-3.3,2.5-5.3,1.6c-2.1-1-3.1-3.4-2.2-5.4c0.9-1.9,3.1-2.8,5.1-2.1
							c-0.1,0.1-0.1,0.2-0.2,0.3c-0.9,2,0.1,4.4,2.2,5.4C493.5,16.4,493.6,16.4,493.8,16.5L493.8,16.5z"/>
					</g>
				</g>
				<g>
					<g>
						<path class="st8" d="M487.9,19.1c-2.7-1.2-4-4.4-2.8-7c1.2-2.6,4.4-3.7,7.1-2.5c2.7,1.2,4,4.4,2.8,7S490.7,20.4,487.9,19.1z
							 M491.3,11.8c-1.5-0.7-3.2-0.1-3.9,1.4c-0.6,1.4,0,3.1,1.5,3.8c1.5,0.7,3.2,0.1,3.9-1.4C493.5,14.2,492.8,12.5,491.3,11.8z"/>
					</g>
				</g>
			</g>
			<g>
				<g>
					<g>
						<path class="st7" d="M506.9,22c-0.9,2-3.4,2.9-5.5,1.9c-2.1-1-3.1-3.4-2.2-5.4c0.9-2,3.4-2.9,5.5-1.9
							C506.9,17.6,507.8,20,506.9,22z"/>
					</g>
				</g>
				<g>
					<g>
						<path class="st15" d="M506.7,22.3c-1,1.8-3.3,2.5-5.3,1.6c-2.1-1-3.1-3.4-2.2-5.4c0.9-1.9,3.1-2.8,5.1-2.1
							c-0.1,0.1-0.1,0.2-0.2,0.3c-0.9,2,0.1,4.4,2.2,5.4C506.5,22.3,506.6,22.3,506.7,22.3z"/>
					</g>
				</g>
				<g>
					<g>
						<path class="st8" d="M500.9,25c-2.7-1.2-4-4.4-2.8-7c1.2-2.6,4.4-3.7,7.1-2.5c2.7,1.2,4,4.4,2.8,7
							C506.8,25.1,503.6,26.3,500.9,25z M504.3,17.7c-1.5-0.7-3.2-0.1-3.9,1.4c-0.6,1.4,0,3.1,1.5,3.8c1.5,0.7,3.2,0.1,3.9-1.4
							C506.4,20.1,505.8,18.4,504.3,17.7z"/>
					</g>
				</g>
			</g>
			<g>
				<g>
					<g>
						<path class="st7" d="M519.9,27.9c-0.9,2-3.4,2.9-5.5,1.9c-2.1-1-3.1-3.4-2.2-5.4c0.9-2,3.4-2.9,5.5-1.9
							C519.8,23.5,520.8,25.9,519.9,27.9z"/>
					</g>
				</g>
				<g>
					<g>
						<path class="st15" d="M519.7,28.2c-1,1.8-3.3,2.5-5.3,1.6c-2.1-1-3.1-3.4-2.2-5.4c0.9-1.9,3.1-2.8,5.1-2.1
							c-0.1,0.1-0.1,0.2-0.2,0.3c-0.9,2,0.1,4.4,2.2,5.4C519.5,28.1,519.6,28.2,519.7,28.2L519.7,28.2z"/>
					</g>
				</g>
				<g>
					<g>
						<path class="st8" d="M513.9,30.9c-2.7-1.2-4-4.4-2.8-7c1.2-2.6,4.4-3.7,7.1-2.5s4,4.4,2.8,7C519.8,31,516.6,32.2,513.9,30.9z
							 M517.2,23.6c-1.5-0.7-3.2-0.1-3.9,1.4c-0.6,1.4,0,3.1,1.5,3.8c1.5,0.7,3.2,0.1,3.9-1.4C519.4,26,518.7,24.2,517.2,23.6z"/>
					</g>
				</g>
			</g>
		</g>
		<g>
			<g>
				<g>
					<g>
						<circle class="st9" cx="548.8" cy="47.7" r="13.7"/>
					</g>
				</g>
			</g>
			<g>
				<g>
					<g>
						<g>
							<path class="st8" d="M541.5,50.3c-0.4-0.2-0.7-0.5-0.8-0.9l-1.6-5c-0.2-0.7,0.1-1.5,0.8-1.8l4.8-2.1c0.7-0.3,1.6,0,1.9,0.7
								s0,1.6-0.7,1.9l-3.6,1.6l1.2,3.8c0.2,0.8-0.2,1.6-1,1.8C542.1,50.5,541.8,50.4,541.5,50.3z"/>
						</g>
					</g>
				</g>
				<g>
					<g>
						<g>
							<path class="st8" d="M551.7,54.9c-0.3-0.1-0.6-0.4-0.7-0.7c-0.3-0.7,0-1.6,0.7-1.9l3.6-1.6l-1.2-3.8c-0.2-0.8,0.2-1.6,1-1.8
								c0.8-0.2,1.6,0.2,1.8,1l1.6,5c0.2,0.7-0.1,1.5-0.8,1.8l-4.8,2.1C552.5,55.1,552.1,55.1,551.7,54.9z"/>
						</g>
					</g>
				</g>
				<g>
					<g>
						<g>
							<path class="st8" d="M545.1,51.8c-0.2-0.1-0.3-0.2-0.5-0.4c-0.5-0.6-0.5-1.5,0.1-2.1l6.3-5.7c0.6-0.5,1.5-0.5,2.1,0.1
								c0.5,0.6,0.5,1.5-0.1,2.1l-6.3,5.7C546.2,51.9,545.6,52,545.1,51.8L545.1,51.8z"/>
						</g>
					</g>
				</g>
			</g>
			<g>
				<g>
					<g>
						<path class="st8" d="M542.6,61.5c-7.6-3.5-11-12.5-7.6-20.1s12.5-11,20.1-7.6s11,12.5,7.6,20.1S550.2,64.9,542.6,61.5z
							 M553.9,36.5c-6.2-2.8-13.4-0.1-16.2,6.1s-0.1,13.4,6.1,16.2c6.2,2.8,13.4,0.1,16.2-6.1S560,39.3,553.9,36.5z"/>
					</g>
				</g>
			</g>
		</g>
	</g>
</g>
</svg>
