<?xml version="1.0" encoding="utf-8"?>
<!-- Generator: Adobe Illustrator 25.0.0, SVG Export Plug-In . SVG Version: 6.00 Build 0)  -->
<svg version="1.1" id="Layer_1" xmlns="http://www.w3.org/2000/svg" xmlns:xlink="http://www.w3.org/1999/xlink" x="0px" y="0px"
	 viewBox="0 0 585 175" style="enable-background:new 0 0 585 175;" xml:space="preserve">
<style type="text/css">
	.st0{fill:#87796F;}
	.st1{fill:#35414D;}
	.st2{fill-rule:evenodd;clip-rule:evenodd;fill:#FFF2E8;}
	.st3{fill-rule:evenodd;clip-rule:evenodd;fill:#FFE4CF;}
	.st4{fill-rule:evenodd;clip-rule:evenodd;fill:#CECECE;}
	.st5{fill:none;stroke:#35414D;stroke-width:1.9885;stroke-linecap:round;stroke-linejoin:round;stroke-miterlimit:13.3333;}
	.st6{fill:none;stroke:#35414D;stroke-width:0.8522;stroke-linecap:round;stroke-linejoin:round;stroke-miterlimit:13.3333;}
	.st7{fill-rule:evenodd;clip-rule:evenodd;fill:#838383;}
	.st8{fill-rule:evenodd;clip-rule:evenodd;fill:#FE9737;}
	.st9{fill-rule:evenodd;clip-rule:evenodd;fill:#B5ADB6;}
	.st10{fill-rule:evenodd;clip-rule:evenodd;fill:#F36B37;}
	.st11{fill-rule:evenodd;clip-rule:evenodd;fill:#595959;}
	.st12{fill-rule:evenodd;clip-rule:evenodd;fill:#35414D;}
	.st13{fill:#60A917;}
	.st14{fill:#FE9737;}
	.st15{fill:#D8D8D8;}
	.st16{fill-rule:evenodd;clip-rule:evenodd;fill:#99DD58;}
	.st17{fill:#FF5A5A;}
	.st18{fill-rule:evenodd;clip-rule:evenodd;fill:#97DA7B;}
	.st19{fill-rule:evenodd;clip-rule:evenodd;fill:#68CA44;}
	.st20{fill:none;stroke:#35414D;stroke-width:1.3796;stroke-linecap:round;stroke-linejoin:round;stroke-miterlimit:13.3333;}
	.st21{fill:#6F909E;}
	.st22{fill:none;stroke:#35414D;stroke-width:2.572;stroke-linecap:round;stroke-linejoin:round;stroke-miterlimit:10;}
	.st23{fill:#E8EDF2;}
	.st24{fill:#C5D3DD;}
	.st25{fill:#90D8F9;}
	.st26{fill:#75CEF9;}
	.st27{fill:#FFD064;}
	.st28{fill:#EBB044;}
	.st29{fill:#DD636E;}
	.st30{fill:#C63D4F;}
	.st31{fill-rule:evenodd;clip-rule:evenodd;fill:#FFFFFF;}
	.st32{fill-rule:evenodd;clip-rule:evenodd;fill:#76D6B2;}
	.st33{fill-rule:evenodd;clip-rule:evenodd;fill:#A2E4CA;}
	.st34{fill-rule:evenodd;clip-rule:evenodd;fill:#FCEEBA;}
	.st35{fill-rule:evenodd;clip-rule:evenodd;fill:#FFCD57;}
</style>
<g>
	<g>
		<g>
			<path class="st0" d="M521.6,126.1c-3.7,0-7.2-2-9.1-5.2l-41.8-71.4c-2.9-5-1.2-11.5,3.8-14.4l51.5-30.2c1.6-0.9,3.5-1.4,5.3-1.4
				c3.7,0,7.2,2,9.1,5.2l41.8,71.4c1.4,2.4,1.8,5.3,1.1,8c-0.7,2.7-2.4,5-4.9,6.4l-51.5,30.2C525.3,125.7,523.5,126.1,521.6,126.1
				C521.6,126.1,521.6,126.1,521.6,126.1z"/>
			<path class="st1" d="M531.4,4.5c3.3,0,6.5,1.7,8.3,4.7l41.8,71.4c2.7,4.6,1.1,10.4-3.4,13.1l-51.5,30.2c-1.5,0.9-3.2,1.3-4.8,1.3
				c-3.3,0-6.5-1.7-8.3-4.7L471.6,49c-2.7-4.6-1.1-10.4,3.4-13.1l51.5-30.2C528.1,4.9,529.7,4.5,531.4,4.5 M531.4,2.5
				c-2,0-4,0.5-5.8,1.6L474,34.2c-2.7,1.6-4.5,4-5.3,7c-0.8,3-0.4,6.1,1.2,8.7l41.8,71.4c2.1,3.5,5.9,5.7,10,5.7c2,0,4-0.5,5.8-1.6
				L579,95.4c2.7-1.6,4.5-4,5.3-7c0.8-3,0.4-6.1-1.2-8.7L541.3,8.2C539.3,4.7,535.4,2.5,531.4,2.5L531.4,2.5z"/>
		</g>
		<g id="g7750_14_" transform="translate(18.5,457.4355)">
			<path id="path7752_14_" class="st2" d="M458.7-407.6l42.2,72.2c0.4,0.6,1.1,0.8,1.7,0.5l16.4-9.6l35-20.5l7-4.1
				c0.6-0.3,0.7-1.1,0.4-1.7L522.6-437l-0.4-0.7c-0.1-0.1-0.1-0.2-0.2-0.2l-8.3,4.9c-2.3,1.3-5.3,0.4-6.7-2l-4.8-8.2
				c-0.1,0-0.2,0-0.3,0.1l-0.8,0.4l-45.8,26.8c-0.6,0.3-0.7,1.1-0.4,1.7L458.7-407.6z"/>
		</g>
		<g id="g7754_14_" transform="translate(257.3203,504.5)">
			<path id="path7756_14_" class="st3" d="M251.9-483.7c12.9,4,26.3,15.1,35.6,31c2,3.5,3.7,7,5.2,10.5c0.5,1.1,0.9,2.3,1.3,3.4
				c0.5,1.4,0.9,2.7,1.3,4.1c3.7,12.6,3.7,24.9,0,34.2l19.7-11.5l7-4.1c0.6-0.3,0.7-1.1,0.4-1.7l-7.2-12.2l-9.5-16.2l-22.1-37.8
				l-0.4-0.7c-0.1-0.1-0.1-0.2-0.2-0.2l-19.8-5.3c-0.1,0-0.2,0-0.3,0.1l-0.8,0.5L251.9-483.7z"/>
		</g>
		<g id="g7758_14_" transform="translate(331.5508,504.1592)">
			<path id="path7760_14_" class="st4" d="M189.1-490l4.8,8.2c1.4,2.4,4.4,3.3,6.7,2l8.3-4.9c-0.2-0.1-0.4-0.1-0.9-0.3l-17.9-4.8
				C189.6-489.9,189.3-490,189.1-490"/>
		</g>
		<g id="g7762_14_" transform="translate(331.5508,504.1592)">
			<path id="path7764_14_" class="st5" d="M189.1-490l4.8,8.2c1.4,2.4,4.4,3.3,6.7,2l7.5-4.4"/>
		</g>
		<g id="g7766_14_" transform="translate(413.1929,241.0635)">
			<path id="path7768_14_" class="st5" d="M127.5-221.2l27.2,46.5l11.9,20.3c0.4,0.6,0.2,1.4-0.4,1.7l-42,24.6l-16.4,9.6
				c-0.6,0.3-1.3,0.1-1.7-0.5l-26.3-45 M80.6-162.9l-20.4-34.9c-0.4-0.6-0.2-1.4,0.4-1.7l45.8-26.8l0.8-0.4c0.3-0.2,0.5-0.1,1.3,0.1
				l18.7,5"/>
		</g>
		<g>
			<g id="g7770_14_" transform="translate(330.2446,64.9756)">
				<path id="path7772_14_" class="st6" d="M229.4,27.2c-1.7,1.3-3.1-0.8-3.8-0.3c-0.4,0.4-0.1,1.2-0.3,2.4c-0.2,1.2-0.9,1.2-1.9,1
					c-2.2-0.6-0.7,2.6-3.3,2"/>
			</g>
			<g id="g7774_14_" transform="translate(423.1602,447.0527)">
				<path id="path7776_14_" class="st4" d="M125.3-392.5l3.9-1l-0.8-3.4c-0.3-1.1-1.4-1.7-2.4-1.5c-1.1,0.3-1.8,1.4-1.5,2.4
					L125.3-392.5z"/>
			</g>
			<g id="g7778_14_" transform="translate(325.644,101.1182)">
				<path id="path7780_14_" class="st7" d="M231.8-11.9l2.1,2.8c0.1,0.2,0.2,0.2,0.2,0l0.6-3.4l0.6-3.7l-3.3-1.2l-2.4,2.6
					L231.8-11.9z"/>
			</g>
			<g id="g7782_14_" transform="translate(412.0854,441.0947)">
				<path id="path7784_14_" class="st8" d="M135.7-385.5l7.5,30.7l2.8-0.7l2.8-0.7l-6.9-28.4l-0.5-2.2c-0.1-0.5-0.6-0.8-1.1-0.7
					l-3.9,1C135.9-386.4,135.6-385.9,135.7-385.5"/>
			</g>
			<g id="g7786_14_" transform="translate(452.5229,474.4854)">
				<path id="path7788_14_" class="st9" d="M97.1-423.8l0.8,3.4l2-0.5l-0.8-3.4c-0.3-1.1-1.4-1.7-2.4-1.5c-0.4,0.1-0.7,0.3-0.9,0.5
					C96.3-425,96.9-424.5,97.1-423.8"/>
			</g>
			<g id="g7790_14_" transform="translate(441.9307,407.96)">
				<path id="path7792_14_" class="st10" d="M110.1-351l6.6,27.1l0.3,1.3l2-0.5l-6.9-28.4l-0.5-2.2c-0.1-0.5-0.6-0.8-1.1-0.7l-2,0.5
					c0.5-0.1,1,0.2,1.1,0.7L110.1-351z"/>
			</g>
			<g id="g7794_14_" transform="translate(357.9888,127.2178)">
				<path id="path7796_14_" class="st11" d="M201-41.8l-0.6,3.7l-0.2,1.1l1.4,1.9c0.1,0.2,0.2,0.2,0.2,0l0.6-3.4l0.6-3.7L201-41.8z"
					/>
			</g>
			<g id="g7798_14_" transform="translate(461.3545,402.1719)">
				<path id="path7800_14_" class="st6" d="M92.6-345.7l3.3-0.8l2.7,11"/>
			</g>
			<g id="g7802_14_" transform="translate(374.0615,313.9443)">
				<path id="path7804_14_" class="st6" d="M176.9-245.4l-3.1-12.9c-0.1-0.5,0.2-1,0.7-1.1l3.9-1c0.5-0.1,1,0.2,1.1,0.7l7.5,30.7
					l-5.7,1.4l-3.5-14.4"/>
			</g>
			<g id="g7806_14_" transform="translate(331.5225,66.168)">
				<path id="path7808_14_" class="st6" d="M228.2,25.8l0.6-3.4l0.6-3.7l-2.8,0.7l-2.8,0.7l2.2,3l2.1,2.8
					C228.2,26,228.2,26,228.2,25.8z"/>
			</g>
			<g id="g7810_14_" transform="translate(423.1602,447.0527)">
				<path id="path7812_14_" class="st6" d="M125.3-392.5l3.9-1l-0.8-3.4c-0.3-1.1-1.4-1.7-2.4-1.5c-1.1,0.3-1.8,1.4-1.5,2.4
					L125.3-392.5z"/>
			</g>
		</g>
		<g>
			<path class="st12" d="M506.1,81.2c-0.4,0.2-0.5,0.7-0.3,1l4.6,7.9c0.2,0.4,0.7,0.5,1,0.3l7.9-4.6c0.4-0.2,0.5-0.7,0.3-1l-2.3-4
				c-0.2-0.4-0.1-0.8,0.3-1c0.4-0.2,0.8-0.1,1,0.3l2.3,4c0.6,1.1,0.3,2.5-0.8,3.1l-7.9,4.6c-1.1,0.6-2.5,0.3-3.1-0.8l-4.6-7.9
				c-0.6-1.1-0.3-2.5,0.8-3.1L512,76c0.4-0.2,0.8-0.1,1,0.3c0.2,0.4,0.1,0.8-0.3,1L506.1,81.2z M515.3,75.2c0.1-0.4,0.5-0.7,0.9-0.5
				c0.4,0.1,0.7,0.5,0.5,0.9l-2.5,9.4c-0.1,0.4-0.5,0.7-0.9,0.5l-3.1-0.8c-0.4-0.1-0.7-0.5-0.5-0.9c0.1-0.4,0.5-0.7,0.9-0.5l2.4,0.6
				L515.3,75.2z"/>
		</g>
		<g>
			<path class="st1" d="M530,40.4c-0.2-0.1-0.5-0.1-0.7,0.1c-0.1,0.1-0.2,0.1-0.3,0.2l-3.1,3.7c-0.3,0.4-0.3,1,0.1,1.4
				c0.4,0.3,1,0.3,1.4-0.1l1.6-1.9l0.6,7.6l-4.5,0.4c-0.5,0-0.9,0.5-0.9,1c0,0,0,0,0,0l0.7,8.2c0,0.5,0.5,0.9,1,0.9c0,0,0,0,0,0
				c0.5,0,0.9-0.5,0.9-1c0,0,0,0,0,0l-0.6-7.2l4.5-0.4c0.5,0,0.9-0.5,0.9-1c0,0,0,0,0,0l-0.7-8.6l1.9,1.6c0.4,0.3,1,0.3,1.4-0.1
				c0.3-0.4,0.3-1-0.1-1.4l-3.7-3.1C530.2,40.5,530.1,40.4,530,40.4L530,40.4z"/>
			<path class="st13" d="M529.4,40.3c-0.2-0.1-0.5-0.1-0.7,0.1c-0.1,0.1-0.2,0.1-0.3,0.2l-3.1,3.7c-0.3,0.4-0.3,1,0.1,1.4
				c0.4,0.3,1,0.3,1.4-0.1l1.6-1.9l0.6,7.6l-4.5,0.4c-0.5,0-0.9,0.5-0.9,1c0,0,0,0,0,0l0.7,8.2c0,0.5,0.5,0.9,1,0.9c0,0,0,0,0,0
				c0.5,0,0.9-0.5,0.9-1c0,0,0,0,0,0l-0.6-7.2l4.5-0.4c0.5,0,0.9-0.5,0.9-1c0,0,0,0,0,0l-0.7-8.6l1.9,1.6c0.4,0.3,1,0.3,1.4-0.1
				c0.3-0.4,0.3-1-0.1-1.4l-3.7-3.1C529.7,40.4,529.5,40.3,529.4,40.3L529.4,40.3z"/>
		</g>
		<g>
			<g>
				<path class="st1" d="M509.6,57.9l-2.5-1.6c-0.5-0.3-0.6-0.9-0.3-1.4c0.3-0.5,0.9-0.6,1.4-0.3l1.7,1.1l2.7-4.2
					c0.3-0.5,0.9-0.6,1.4-0.3s0.6,0.9,0.3,1.4l-3.2,5C510.6,58.1,510,58.2,509.6,57.9L509.6,57.9z M503.2,56l-6.8,1.5
					c-0.5,0.1-0.9,0.6-0.8,1.2s0.6,0.9,1.2,0.8l6.8-1.5c0.5-0.1,0.9-0.6,0.8-1.2C504.3,56.2,503.7,55.8,503.2,56z M514.4,59.4
					c-0.5-0.3-1.1-0.2-1.4,0.3l-1.4,2.2l-2.2-1.4c-0.5-0.3-1.1-0.2-1.4,0.3c-0.3,0.5-0.2,1.1,0.3,1.4l2.2,1.4l-1.4,2.2
					c-0.3,0.5-0.2,1.1,0.3,1.4c0.5,0.3,1.1,0.2,1.4-0.3l1.4-2.2l2.2,1.4c0.5,0.3,1.1,0.2,1.4-0.3c0.3-0.5,0.2-1.1-0.3-1.4l-2.2-1.4
					l1.4-2.2C515,60.3,514.9,59.7,514.4,59.4L514.4,59.4z M504.9,63.8l-6.8,1.5c-0.5,0.1-0.9,0.6-0.8,1.2c0.1,0.5,0.6,0.9,1.2,0.8
					l6.8-1.5c0.5-0.1,0.9-0.6,0.8-1.2C505.9,64,505.4,63.6,504.9,63.8z"/>
			</g>
			<g>
				<path class="st14" d="M509.4,57.4l-2.5-1.6c-0.5-0.3-0.6-0.9-0.3-1.4c0.3-0.5,0.9-0.6,1.4-0.3l1.7,1.1l2.7-4.2
					c0.3-0.5,0.9-0.6,1.4-0.3c0.5,0.3,0.6,0.9,0.3,1.4l-3.2,5C510.5,57.5,509.9,57.7,509.4,57.4L509.4,57.4z M503.1,55.4l-6.8,1.5
					c-0.5,0.1-0.9,0.6-0.8,1.2c0.1,0.5,0.6,0.9,1.2,0.8l6.8-1.5c0.5-0.1,0.9-0.6,0.8-1.2S503.6,55.3,503.1,55.4z M514.3,58.8
					c-0.5-0.3-1.1-0.2-1.4,0.3l-1.4,2.2l-2.2-1.4c-0.5-0.3-1.1-0.2-1.4,0.3c-0.3,0.5-0.2,1.1,0.3,1.4l2.2,1.4l-1.4,2.2
					c-0.3,0.5-0.2,1.1,0.3,1.4c0.5,0.3,1.1,0.2,1.4-0.3l1.4-2.2l2.2,1.4c0.5,0.3,1.1,0.2,1.4-0.3c0.3-0.5,0.2-1.1-0.3-1.4l-2.2-1.4
					l1.4-2.2C514.9,59.7,514.7,59.1,514.3,58.8L514.3,58.8z M504.7,63.2l-6.8,1.5c-0.5,0.1-0.9,0.6-0.8,1.2c0.1,0.5,0.6,0.9,1.2,0.8
					l6.8-1.5c0.5-0.1,0.9-0.6,0.8-1.2C505.8,63.4,505.3,63.1,504.7,63.2z"/>
			</g>
		</g>
		<g>
			<path class="st1" d="M531.2,70.2l-1.9-0.5c-0.2,0-0.4,0.1-0.4,0.2c0,0.2,0.1,0.4,0.2,0.4l1.9,0.5c0.1,0,0.2,0,0.3,0
				c0.1,0,0.1-0.1,0.2-0.2C531.5,70.4,531.4,70.2,531.2,70.2z M532.9,64.7c-0.2,0.1-0.2,0.3-0.1,0.5l1,1.7c0.1,0.2,0.3,0.2,0.5,0.1
				c0.2-0.1,0.2-0.3,0.1-0.5l-1-1.7C533.3,64.7,533.1,64.6,532.9,64.7z M539.4,63.8c-0.2,0-0.4,0.1-0.4,0.2l-0.5,1.9
				c0,0.2,0.1,0.4,0.2,0.4c0.1,0,0.2,0,0.3,0c0.1,0,0.1-0.1,0.2-0.2l0.5-1.9C539.6,64.1,539.5,63.9,539.4,63.8L539.4,63.8z
				 M544.1,67.7l-1.7,1c-0.2,0.1-0.2,0.3-0.1,0.5c0.1,0.2,0.3,0.2,0.5,0.1l1.7-1c0.2-0.1,0.2-0.3,0.1-0.5
				C544.5,67.6,544.3,67.6,544.1,67.7z M531.6,75l-1.7,1c-0.2,0.1-0.2,0.3-0.1,0.5c0.1,0.2,0.3,0.2,0.5,0.1l1.7-1
				c0.2-0.1,0.2-0.3,0.1-0.5C532,74.9,531.8,74.9,531.6,75z M541.8,69.4c-1.5-2.5-4.8-3.4-7.3-1.9c-2.5,1.5-3.4,4.8-1.9,7.3
				c0.5,0.9,1.3,1.6,2.2,2.1l3.8,2.3l-0.2,0.1c-0.6,0.3-0.7,1-0.4,1.6c0.2,0.3,0.4,0.5,0.7,0.5c-0.1,0.3,0,0.6,0.1,0.9
				c0.3,0.6,1,0.7,1.6,0.4l0.8-0.5c0.5,0.6,1.3,0.7,2,0.3c0.7-0.4,1-1.2,0.7-1.9l0.8-0.5c0.6-0.3,0.7-1,0.4-1.6
				c-0.2-0.3-0.4-0.5-0.7-0.5c0.1-0.3,0-0.6-0.1-0.9c-0.3-0.6-1-0.7-1.6-0.4l-0.2,0.1l-0.2-4.5C542.6,71.3,542.3,70.3,541.8,69.4z
				 M543,82c-0.4,0.2-0.8,0.2-1.1-0.1l1.5-0.9C543.5,81.4,543.3,81.8,543,82z M544.5,79.6l-4.4,2.6c-0.2,0.1-0.5,0.1-0.7-0.2
				c-0.1-0.2-0.1-0.5,0.2-0.7l4.4-2.6c0.2-0.1,0.5-0.1,0.7,0.2C544.9,79.1,544.8,79.4,544.5,79.6z M543.2,77.3
				c0.2-0.1,0.5-0.1,0.7,0.2s0.1,0.5-0.2,0.7l-4.4,2.6c-0.2,0.1-0.5,0.1-0.7-0.2s-0.1-0.5,0.2-0.7L543.2,77.3z M538.1,75.6l0.6-1.1
				l1.2,0l1.1,3.2l-0.7,0.4L538.1,75.6z M541.9,72.3l0.2,4.8l-0.5,0.3l-1.1-3.2l0.7-1.3c0.1-0.2,0-0.4-0.1-0.4
				c-0.2-0.1-0.4,0-0.4,0.1l-0.7,1.3l-1.4,0c-0.1,0-0.2,0.1-0.3,0.2l-0.7,1.3l-1.4,0c-0.2,0-0.3,0.1-0.3,0.3c0,0.2,0.1,0.3,0.3,0.3
				l1.5,0l2.2,2.5l-0.5,0.3l-4.1-2.5c0,0,0,0,0,0c-0.8-0.4-1.5-1-1.9-1.8c-1.3-2.2-0.5-5.1,1.7-6.4c2.2-1.3,5.1-0.5,6.4,1.7
				C541.7,70.5,541.9,71.4,541.9,72.3C541.9,72.3,541.9,72.3,541.9,72.3L541.9,72.3z"/>
			<path class="st15" d="M539.8,74.6l1.1,3.2l-0.7,0.4l-2.2-2.6l0.6-1.1L539.8,74.6z"/>
			<path class="st14" d="M541.2,69.7c0.5,0.8,0.7,1.7,0.6,2.5c0,0,0,0,0,0l0.2,4.8l-0.5,0.3l-1.1-3.2l0.7-1.3c0.1-0.2,0-0.4-0.1-0.4
				c-0.2-0.1-0.4,0-0.4,0.1l-0.7,1.3l-1.4,0c-0.1,0-0.2,0.1-0.3,0.2l-0.7,1.3l-1.4,0c-0.2,0-0.3,0.1-0.3,0.3c0,0.2,0.1,0.3,0.3,0.3
				l1.5,0l2.2,2.5l-0.5,0.3l-4.1-2.5c0,0,0,0,0,0c-0.8-0.4-1.5-1-1.9-1.8c-1.3-2.2-0.5-5.1,1.7-6.4
				C537.1,66.8,539.9,67.5,541.2,69.7L541.2,69.7z"/>
			<g>
				<path class="st15" d="M543.9,77.4c0.1,0.2,0.1,0.5-0.2,0.7l-4.4,2.6c-0.2,0.1-0.5,0.1-0.7-0.2s-0.1-0.5,0.2-0.7l4.4-2.6
					C543.4,77.1,543.7,77.2,543.9,77.4z"/>
				<path class="st15" d="M544.7,78.9c0.1,0.2,0.1,0.5-0.2,0.7l-4.4,2.6c-0.2,0.1-0.5,0.1-0.7-0.2c-0.1-0.2-0.1-0.5,0.2-0.7l4.4-2.6
					C544.3,78.6,544.6,78.6,544.7,78.9z"/>
				<path class="st15" d="M543.4,81c0.1,0.4-0.1,0.8-0.5,1c-0.4,0.2-0.8,0.2-1.1-0.1L543.4,81z"/>
			</g>
		</g>
		<g>
			<path class="st16" d="M505.4,81c-0.4,0.2-0.5,0.7-0.3,1l4.6,7.9c0.2,0.4,0.7,0.5,1,0.3l7.9-4.6c0.4-0.2,0.5-0.7,0.3-1l-2.3-4
				c-0.2-0.4-0.1-0.8,0.3-1c0.4-0.2,0.8-0.1,1,0.3l2.3,4c0.6,1.1,0.3,2.5-0.8,3.1l-7.9,4.6c-1.1,0.6-2.5,0.3-3.1-0.8l-4.6-7.9
				c-0.6-1.1-0.3-2.5,0.8-3.1l6.6-3.9c0.4-0.2,0.8-0.1,1,0.3c0.2,0.4,0.1,0.8-0.3,1L505.4,81z M514.6,75c0.1-0.4,0.5-0.7,0.9-0.5
				c0.4,0.1,0.7,0.5,0.5,0.9l-2.5,9.4c-0.1,0.4-0.5,0.7-0.9,0.5l-3.1-0.8c-0.4-0.1-0.7-0.5-0.5-0.9c0.1-0.4,0.5-0.7,0.9-0.5l2.4,0.6
				L514.6,75z"/>
		</g>
		<g>
			<path class="st1" d="M538.1,103.5C538.1,103.5,538,103.5,538.1,103.5c-0.4,0.2-0.6,0.2-0.9,0.2l-6.6-1.7l-1.8,6.7
				c-0.1,0.2-0.2,0.4-0.5,0.5l-0.1,0c0,0,0,0-0.1,0c-0.2,0.1-0.5,0.2-0.7,0.1c-0.5-0.1-0.9-0.7-0.7-1.3l1.8-6.7l-6.7-1.8
				c-0.5-0.2-0.8-0.8-0.6-1.3c0.1-0.2,0.2-0.4,0.5-0.6c0.2-0.1,0.5-0.2,0.7-0.1l6.7,1.7l1.7-6.6c0.1-0.2,0.2-0.5,0.5-0.6
				c0.3-0.1,0.5-0.2,0.8-0.1c0.5,0.1,0.8,0.6,0.7,1.1l-1.7,6.7l6.7,1.7c0.6,0.1,0.9,0.7,0.8,1.2c0,0,0,0,0,0
				C538.5,103.2,538.3,103.4,538.1,103.5z"/>
			<path class="st17" d="M538,102.9C537.9,103,537.9,103,538,102.9c-0.4,0.2-0.6,0.2-0.9,0.2l-6.6-1.7l-1.8,6.7
				c-0.1,0.2-0.2,0.4-0.5,0.5l-0.1,0c0,0,0,0-0.1,0c-0.2,0.1-0.5,0.2-0.7,0.1c-0.5-0.1-0.9-0.7-0.7-1.3l1.8-6.7l-6.7-1.8
				c-0.5-0.2-0.8-0.8-0.6-1.3c0.1-0.2,0.2-0.4,0.5-0.6c0.2-0.1,0.5-0.2,0.7-0.1l6.7,1.7l1.7-6.6c0.1-0.2,0.2-0.5,0.5-0.6
				c0.3-0.1,0.5-0.2,0.8-0.1c0.5,0.1,0.8,0.6,0.7,1.1l-1.7,6.7l6.7,1.7c0.6,0.1,0.9,0.7,0.8,1.2c0,0,0,0,0,0
				C538.4,102.6,538.2,102.8,538,102.9z"/>
		</g>
		<g>
			<g id="g7830_15_" transform="translate(293.2144,407.6475)">
				<path id="path7832_15_" class="st18" d="M226.7-378.2l-21,12.3c-0.4,0.2-0.5,0.7-0.3,1l2.3,3.9c0.2,0.4,0.7,0.5,1,0.3l21-12.3
					c0.4-0.2,0.5-0.7,0.3-1l-2.3-3.9C227.5-378.3,227-378.4,226.7-378.2"/>
			</g>
			<g id="g7834_15_" transform="translate(293.2144,407.6475)">
				<path id="path7836_15_" class="st19" d="M226.7-378.2l-6,3.5c0.4-0.2,0.8-0.1,1,0.3l2.3,3.9c0.2,0.4,0.1,0.8-0.3,1l6-3.5
					c0.4-0.2,0.5-0.7,0.3-1l-2.3-3.9C227.5-378.3,227-378.4,226.7-378.2"/>
			</g>
			<g id="g7838_15_" transform="translate(128.1699,407.6475)">
				<path id="path7840_15_" class="st20" d="M370.7-365.9l21-12.3c0.4-0.2,0.8-0.1,1,0.3l2.3,3.9c0.2,0.4,0.1,0.8-0.3,1l-21,12.3
					c-0.4,0.2-0.8,0.1-1-0.3l-2.3-3.9C370.2-365.3,370.3-365.7,370.7-365.9z"/>
			</g>
		</g>
		<g>
			<path class="st21" d="M502.7,13.6c-1.5-2.5-4.7-3.4-7.3-1.9c-2.5,1.5-3.4,4.7-1.9,7.3l-9.2,5.4l5.4,9.2c0.7,1.2,2.3,1.6,3.5,0.9
				l23.1-13.5c1.2-0.7,1.6-2.3,0.9-3.5l-5.4-9.2L502.7,13.6z"/>
			<path class="st22" d="M494.8,33.6l21.6-12.6c1.2-0.7,1.6-2.3,0.9-3.5l-5.4-9.2l-9.2,5.4c-1.5-2.5-4.7-3.4-7.3-1.9
				c-2.5,1.5-3.4,4.7-1.9,7.3l-9.2,5.4l5.4,9.2c0.7,1.2,2.3,1.6,3.5,0.9l3.2-1.9"/>
			<line class="st22" x1="493" y1="28.6" x2="511.3" y2="17.8"/>
			<g>
				<g>
					<line class="st22" x1="498.1" y1="16.3" x2="498.1" y2="16.3"/>
				</g>
			</g>
		</g>
	</g>
	<g>
		<g>
			<g>
				<path class="st23" d="M81.2,118.3L4.7,86.5c-2.3-0.9-3.3-3.5-2.4-5.8l27.4-66l84.7,35.2l-27.4,66
					C86.1,118.1,83.5,119.2,81.2,118.3z"/>
			</g>
			<g>
				<path class="st24" d="M108,65.3C108,65.3,108,65.3,108,65.3l6.4-15.3l-21-8.7C92.5,51.3,98.2,61.2,108,65.3z"/>
			</g>
			<g>
				<path class="st24" d="M7.7,82.9l27.4-66l-5.4-2.2l-27.4,66c-0.9,2.3,0.1,4.8,2.4,5.8l5.4,2.2C7.8,87.8,6.7,85.2,7.7,82.9z"/>
			</g>
			<g>
				<g>
					<g>
						<path class="st25" d="M115.3,36.3L38.7,4.5c-2.3-0.9-4.8,0.1-5.8,2.4l-4.3,10.4l84.7,35.2l4.3-10.4
							C118.6,39.8,117.5,37.2,115.3,36.3z"/>
					</g>
				</g>
			</g>
			<g>
				<g>
					<g>
						<path class="st26" d="M115.3,36.3L98,29.1c-1.1,1.5-2.1,3.2-2.8,5c-1.4,3.3-1.9,6.7-1.8,10.1l20,8.3l4.3-10.4
							C118.6,39.8,117.5,37.2,115.3,36.3L115.3,36.3z"/>
					</g>
				</g>
			</g>
			<g>
				<g>
					<g>
						<path class="st26" d="M44.1,6.7l-5.4-2.2c-2.3-0.9-4.8,0.1-5.8,2.4l-4.3,10.4l5.4,2.2l4.3-10.4C39.3,6.9,41.9,5.8,44.1,6.7z"
							/>
					</g>
				</g>
			</g>
			<g>
				<g>
					<circle class="st27" cx="117.2" cy="43.2" r="18.3"/>
				</g>
			</g>
			<g>
				<g>
					<path class="st28" d="M103.7,37.6c3.6-8.8,13.3-13.2,22.2-10.5c-0.5-0.3-1.1-0.6-1.7-0.8c-9.3-3.9-20.1,0.5-23.9,9.9
						s0.5,20.1,9.9,23.9c0.6,0.2,1.2,0.4,1.7,0.6C103.7,56.4,100,46.4,103.7,37.6z"/>
				</g>
			</g>
			<g>
				<g>
					<g>
						<path class="st29" d="M86.3,94.6L55.6,73.2c-1.2-0.8-2.7-0.1-3,1.2L46,111.3c-0.3,1.5,1.2,2.7,2.6,2.1l8.2-3.4
							c1-0.4,2.1,0.1,2.5,1l3.4,8.2c0.4,1,1.5,1.4,2.5,1l13.9-5.7c1-0.4,1.4-1.5,1-2.5l-3.4-8.2c-0.4-1,0.1-2.1,1-2.5l8.2-3.4
							C87.3,97.4,87.5,95.5,86.3,94.6L86.3,94.6z"/>
					</g>
				</g>
			</g>
			<g>
				<g>
					<g>
						<g>
							<path class="st30" d="M52.4,108.6l6-33.5l-2.8-2c-1.2-0.8-2.7-0.1-3,1.2L46,111.3c-0.3,1.5,1.2,2.7,2.6,2.1l6.4-2.6
								C53.6,111.3,52.1,110.1,52.4,108.6z"/>
						</g>
					</g>
					<g>
						<g>
							<path class="st30" d="M69.1,116.7l-3.4-8.2c-0.4-1-1.5-1.4-2.5-1l-6.4,2.6c1-0.4,2.1,0.1,2.5,1l3.4,8.2c0.4,1,1.5,1.4,2.5,1
								l6.4-2.6C70.6,118.1,69.5,117.6,69.1,116.7z"/>
						</g>
					</g>
				</g>
			</g>
		</g>
		<g>
			<path class="st1" d="M22.9,31.2c0.8,0.4,1.8,0,2.2-0.9l4.5-10.8l61.1,25.4c0.8,0.4,1.8,0,2.2-0.9c0.4-0.8,0-1.8-0.9-2.2
				L30.8,16.4l3.7-8.9c0.6-1.4,2.2-2.1,3.6-1.5l57.3,23.8c0.8,0.4,1.8,0,2.2-0.9s0-1.8-0.9-2.2L39.4,3c-3.1-1.3-6.7,0.2-8,3.3L22,29
				C21.6,29.9,22,30.9,22.9,31.2L22.9,31.2z"/>
			<path class="st1" d="M40.1,99.4L5.3,85c-1.4-0.6-2.1-2.2-1.5-3.6l18-43.3c0.4-0.8,0-1.8-0.9-2.2c-0.8-0.4-1.8,0-2.2,0.9l-18,43.3
				c-1.3,3.1,0.2,6.7,3.3,8l34.7,14.4c0.8,0.4,1.8,0,2.2-0.9S40.9,99.7,40.1,99.4z"/>
			<path class="st1" d="M107.9,65.5c-0.8-0.4-1.8,0-2.2,0.9l-19.6,47.2c-0.4,0.8,0,1.8,0.9,2.2c0.8,0.4,1.8,0,2.2-0.9l19.6-47.2
				C109.2,66.9,108.8,65.9,107.9,65.5z"/>
			<path class="st1" d="M39.8,12.2c-0.8-0.4-1.8,0-2.2,0.9s0,1.8,0.9,2.2l1.6,0.7c0.8,0.4,1.8,0,2.2-0.9s0-1.8-0.9-2.2L39.8,12.2z"
				/>
			<path class="st1" d="M47.5,15.3c-0.8-0.4-1.8,0-2.2,0.9s0,1.8,0.9,2.2l1.6,0.7c0.8,0.4,1.8,0,2.2-0.9s0-1.8-0.9-2.2L47.5,15.3z"
				/>
			<path class="st1" d="M55.1,18.5c-0.8-0.4-1.8,0-2.2,0.9c-0.4,0.8,0,1.8,0.9,2.2l1.6,0.7c0.8,0.4,1.8,0,2.2-0.9
				c0.4-0.8,0-1.8-0.9-2.2L55.1,18.5z"/>
			<path class="st1" d="M124.8,24.8c-10.2-4.2-21.9,0.6-26.1,10.8s0.6,21.9,10.8,26.1s21.9-0.6,26.1-10.8S135,29,124.8,24.8z
				 M110.8,58.6c-8.5-3.5-12.5-13.3-9-21.8c3.5-8.5,13.3-12.5,21.8-9s12.5,13.3,9,21.8S119.3,62.1,110.8,58.6z"/>
			<path class="st1" d="M119.6,37.2c1.2,0.5,1.8,1.9,1.3,3.2c-0.4,0.8,0,1.8,0.9,2.2c0.8,0.4,1.8,0,2.2-0.9c1-2.4,0.2-5.1-1.7-6.6
				l0.9-2.1c0.4-0.8,0-1.8-0.9-2.2s-1.8,0-2.2,0.9l-0.9,2.1c-2.5-0.2-4.9,1.1-5.9,3.5c-1.2,2.9,0.2,6.3,3.1,7.5c0,0,0.1,0,0.1,0
				c1.2,0.6,1.7,1.9,1.2,3.1c-0.5,1.2-1.9,1.8-3.2,1.3c-1.2-0.5-1.8-1.9-1.3-3.2c0.4-0.8,0-1.8-0.9-2.2c-0.8-0.4-1.8,0-2.2,0.9
				c-1,2.4-0.2,5.1,1.7,6.6l-0.9,2.1c-0.4,0.8,0,1.8,0.9,2.2c0.8,0.4,1.8,0,2.2-0.9l0.9-2.1c2.5,0.2,4.9-1.1,5.9-3.5
				c1.2-2.9-0.2-6.3-3.1-7.5c0,0-0.1,0-0.1,0c-1.2-0.6-1.7-1.9-1.2-3.1C117,37.3,118.4,36.7,119.6,37.2L119.6,37.2z"/>
			<path class="st1" d="M56.8,65.7c2.4,1,4.2,3.2,4.7,5.7c0.2,0.9,1.1,1.5,2,1.3c0.9-0.2,1.5-1.1,1.3-2c-0.7-3.7-3.2-6.7-6.7-8.2
				c-2.8-1.1-5.8-1.2-8.6,0c-2.8,1.1-4.9,3.3-6.1,6.1c-1.4,3.3-1.1,7,0.7,10c0.2,0.3,0.5,0.6,0.8,0.7c0.5,0.2,1,0.2,1.5-0.1
				c0.8-0.5,1-1.5,0.6-2.3c-1.3-2.2-1.5-4.7-0.5-7.1c0.8-1.9,2.3-3.5,4.3-4.3C52.7,64.9,54.8,64.9,56.8,65.7L56.8,65.7z"/>
			<path class="st1" d="M68.8,75.4c-0.1,0.9,0.5,1.8,1.4,1.9c0.9,0.1,1.8-0.5,1.9-1.4c1.4-8.5-3.2-16.8-11.2-20.1
				c-9.4-3.9-20.3,0.6-24.2,10c-1.6,3.9-1.9,8.3-0.7,12.3c1.2,4,3.7,7.5,7.1,9.9c0.1,0.1,0.2,0.1,0.3,0.2c0.7,0.3,1.5,0.1,2-0.6
				c0.5-0.7,0.4-1.8-0.4-2.3c-5.8-4.1-8-11.7-5.3-18.3c3.2-7.7,12.1-11.4,19.9-8.2C66.1,61.6,69.9,68.4,68.8,75.4z"/>
			<path class="st1" d="M78.2,103.2c0-0.1,0-0.2,0-0.2c0,0,0.1-0.1,0.1-0.1l8.2-3.4c1.2-0.5,2.1-1.6,2.2-2.9
				c0.1-1.3-0.4-2.6-1.5-3.3L56.5,71.8c-1-0.7-2.3-0.8-3.4-0.4c-1.1,0.5-1.9,1.5-2.2,2.7L44.4,111c-0.2,1.3,0.3,2.6,1.3,3.4
				c1,0.8,2.4,1,3.6,0.5l8.2-3.4c0.1-0.1,0.3,0,0.3,0.1l3.4,8.2c0.4,0.9,1.1,1.6,1.9,1.9s1.8,0.4,2.7,0l13.9-5.7
				c0.9-0.4,1.6-1.1,1.9-1.9c0.4-0.9,0.4-1.9,0-2.7L78.2,103.2z M78.4,113.1l-13.9,5.7c-0.1,0.1-0.3,0-0.3-0.1l-3.4-8.2
				c-0.4-0.9-1.1-1.6-1.9-1.9c-0.8-0.4-1.8-0.4-2.7,0l-8.2,3.4c0,0-0.1,0.1-0.3,0c-0.1-0.1-0.1-0.2-0.1-0.3l6.6-36.9
				c0-0.1,0.1-0.2,0.2-0.2c0.1,0,0.2,0,0.3,0L85.3,96c0,0,0.1,0.1,0.1,0.2c0,0.2-0.1,0.2-0.2,0.2l-8.2,3.4c-0.9,0.4-1.6,1.1-1.9,1.9
				c-0.4,0.9-0.4,1.9,0,2.7l3.4,8.2c0,0.1,0,0.2,0,0.2C78.6,113,78.5,113,78.4,113.1L78.4,113.1z"/>
		</g>
	</g>
	<g id="Layer_35_4_">
		<g>
			<g>
				<path class="st31" d="M300.2,143.1l-0.9,10.1l-1.3,14.8l9.9-10l4.9,11.4l11.2-4.8l-4.8-11.5l14-0.2l-11.5-9.3l-7.9-6.4l-7.9-6.4
					l-4.6-3.6L301,133L300.2,143.1z"/>
			</g>
			<g>
				<path class="st32" d="M296.9,116.4c-4.4,1.9-6.4,6.9-4.6,11.3c1.5,3.6,5,5.5,8.7,5.3l0.4-5.7l4.5,3.7c2.7-2.4,3.8-6.4,2.2-9.8
					C306.4,116.6,301.4,114.6,296.9,116.4L296.9,116.4z"/>
			</g>
			<g>
				<path class="st33" d="M292.9,107.2c-9.6,4.1-14,15-9.9,24.6c3,7.1,9.9,11.4,17.1,11.5l0.9-10.1c-3.6,0.3-7.2-1.7-8.7-5.3
					c-1.9-4.4,0.2-9.4,4.6-11.3c4.4-1.9,9.4,0.2,11.3,4.6c1.5,3.6,0.5,7.4-2.2,9.8l7.9,6.4c4.2-4.5,6.1-10.8,4.7-17
					c-2.7-2.8-4.6-6.2-5.8-9.9C307.6,105.7,299.9,104.2,292.9,107.2L292.9,107.2z"/>
			</g>
			<g>
				<path class="st32" d="M288.9,97.8c-11.5,4.8-18.1,16.2-17.5,27.8c2.5,3.7,3.9,8.3,3.7,12.8c5,9,14.3,14.4,24.2,14.7l0.9-10.1
					c-7.2-0.1-14.1-4.3-17.1-11.5c-4.1-9.6,0.4-20.5,9.9-24.6c7-3,14.6-1.3,19.9,3.3c-1.2-4-1.4-8.1-0.5-12.3
					C305.1,94.9,296.7,94.5,288.9,97.8L288.9,97.8z"/>
			</g>
			<g>
				<path class="st34" d="M275.7,162.3c-1.2,3,0.2,6.4,3.2,7.7c3,1.2,6.4-0.2,7.7-3.4c1.2-3-0.2-6.5-3.3-7.8
					C280.4,157.9,276.9,159.3,275.7,162.3L275.7,162.3z"/>
			</g>
			<g>
				<path class="st35" d="M235.6,129.6c-4.2,10.5,0.9,22.5,11.4,26.7c10.5,4.2,22.5-0.9,26.7-11.4c0.9-2.2,1.4-4.4,1.5-6.7
					c0.2-4.6-1-9.1-3.7-12.8c-2.2-3.2-5.3-5.8-9.1-7.3C251.7,114.2,239.8,119.2,235.6,129.6z"/>
			</g>
			<g>
				<path class="st34" d="M257.4,89.7c-1.3,3.3,0.2,7.1,3.6,8.4c3.3,1.3,7.1-0.2,8.4-3.6c1.3-3.3-0.2-7.1-3.6-8.4
					C262.5,84.8,258.7,86.5,257.4,89.7z"/>
			</g>
			<g>
				<path class="st34" d="M289.9,70.5c-1.9,4.7,0.4,10.2,5.2,12.1c4.8,2,10.2-0.4,12.1-5.2s-0.4-10.2-5.2-12.1
					C297.3,63.4,291.8,65.8,289.9,70.5z"/>
			</g>
			<g>
				<path class="st35" d="M312.3,98.2c-0.9,4.2-0.7,8.3,0.5,12.3c1.1,3.7,3.1,7,5.8,9.9c2.4,2.4,5.2,4.4,8.6,5.7
					c0.7,0.3,1.3,0.5,1.9,0.6c12.1,3.8,25.2-2.3,30.1-14.3c5.1-12.6-1.1-26.9-13.7-31.9s-26.9,0.9-32,13.5
					C313,95.4,312.5,96.8,312.3,98.2L312.3,98.2z"/>
			</g>
			<g>
				<path class="st32" d="M318.6,120.3c1.4,6.2-0.5,12.5-4.7,17l7.9,6.4c4.2-4.7,6.7-10.7,7.2-16.9c-0.6-0.2-1.3-0.4-1.9-0.6
					C323.8,124.7,321,122.8,318.6,120.3L318.6,120.3z"/>
			</g>
			<g>
				<path class="st1" d="M361,113.1c5.4-13.5-1.2-28.9-14.7-34.4c-13.5-5.4-29,1-34.4,14.6c-0.3,0.7-0.6,1.5-0.8,2.2
					c-7.4-2.7-15.6-2.7-22.7,0.5c-10.2,4.3-17.3,14-18.5,24.9c-2-1.7-4.2-3.3-6.7-4.3c-11.4-4.6-24.5,1-29.1,12.4
					c-4.6,11.4,1,24.5,12.4,29.1c11.4,4.6,24.5-1,29.1-12.4c0.3-0.8,0.7-1.6,0.8-2.4c3.4,4.2,7.7,7.5,12.7,9.5
					c2.7,1.1,5.4,1.8,8.4,2.1l-1.1,12.8c0,0.8,0.3,1.5,1.1,1.9l0.1,0c0.7,0.3,1.5,0.1,2-0.4l8.1-8l3.8,8.9c0.4,1,1.5,1.4,2.4,1
					l11.3-4.7c0.5-0.2,0.8-0.6,1-1.1s0.1-1,0.1-1.5l-3.8-8.9l11.4-0.2c0.8,0,1.4-0.5,1.7-1.3c0.3-0.7,0-1.6-0.6-2.1l-10.1-8.1
					c3.3-4.2,5.4-9.1,6.2-14.3C343.1,131.8,356,125.4,361,113.1L361,113.1z M316.8,121.1c1,4.8-0.2,9.7-3.2,13.6l-5-4
					c2.3-3,2.8-6.9,1.2-10.4c-2.3-5.3-8.5-7.9-13.8-5.6c-2.6,1.1-4.6,3.1-5.7,5.8s-1,5.5,0.1,8.1c1.1,2.6,3.2,4.7,5.8,5.7
					c0.8,0.3,1.7,0.5,2.7,0.7l-0.5,6.4c-6-0.7-11.3-4.6-13.7-10.2c-1.8-4.2-1.8-8.8-0.1-12.9c1.7-4.2,4.9-7.4,9.1-9.2
					c5.8-2.5,12.8-1.4,17.6,2.7C312.4,115,314.3,118.3,316.8,121.1L316.8,121.1z M302.8,125.7c-0.5-0.5-1.3-0.5-1.9-0.2
					c-0.6,0.3-1,0.9-1.2,1.5l-0.4,4c-2.3-0.4-4.3-1.9-5.2-4c-0.7-1.6-0.7-3.5,0-5.2s2-3,3.6-3.6c3.4-1.4,7.4,0.2,8.9,3.6
					c1,2.3,0.7,4.7-0.8,6.5L302.8,125.7z M247.6,154.6c-9.6-3.9-14.2-14.7-10.3-24.3c3.9-9.6,14.7-14.2,24.3-10.3
					c9.6,3.9,14.2,14.7,10.3,24.3C268.1,153.9,257.2,158.5,247.6,154.6z M277,137.9c0.1-4.5-1.2-9.1-3.7-12.9
					c-0.3-11,6.2-21.3,16.4-25.6c6.5-2.8,13.9-2.8,20.5-0.2c-0.4,2.3-0.4,4.7-0.1,6.9c-5.4-2.9-12.1-3.3-17.9-0.9
					c-5,2.1-9.1,6.1-11.1,11.2c-2,5.1-2,10.7,0.2,15.8c2.2,5.2,6.3,9.1,11.2,11.1c1.7,0.7,3.6,1.2,5.5,1.4l-0.5,6.4
					C289.1,150.3,281.3,145.4,277,137.9L277,137.9z M319.2,151.4c-0.7,0-1.2,0.3-1.6,0.9c-0.3,0.5-0.3,1.2-0.1,1.7l4.1,9.7l-7.8,3.3
					l-4.1-9.7c-0.3-0.6-0.8-1-1.3-1.1c-0.6-0.1-1.2,0-1.7,0.5l-6.4,6.3l0.8-9.7l1.9-22.4l1.8,1.4l15.7,12.6l7.6,6.1L319.2,151.4z
					 M321.6,141l-5-4c2.8-3.6,4.3-7.9,4.3-12.3c1.7,1.2,3.5,2.2,5.5,3l0.6,0.2C326.5,132.8,324.6,137.2,321.6,141z M327.9,124.3
					c-11.7-4.7-17.3-18-12.6-29.5c4.7-11.7,17.9-17.2,29.6-12.5c11.7,4.6,17.3,17.9,12.7,29.4C352.8,123.4,339.5,129,327.9,124.3
					L327.9,124.3z"/>
				<path class="st1" d="M337.5,101.7l-0.9-0.4c-1.5-0.6-2.3-2.4-1.7-3.9c0.3-0.7,0.9-1.2,1.6-1.6c0.8-0.3,1.6-0.3,2.3,0l0.6,0.2
					l4.7,1.9c0.9,0.4,2.1-0.1,2.4-1c0.4-0.9-0.1-2.1-1.1-2.5l-2.9-1.2l1.1-2.7c0.4-0.9-0.1-2.1-1-2.4s-2.1,0.1-2.4,1l-1.1,2.8
					c-1.4-0.3-2.6-0.1-3.9,0.4c-1.6,0.7-3,2-3.6,3.6c-1.4,3.5,0.3,7.3,3.7,8.7l0.9,0.4c1.5,0.6,2.3,2.4,1.7,3.9
					c-0.6,1.5-2.4,2.3-3.9,1.7l-5.4-2.2c-0.9-0.4-2.1,0.1-2.4,1c-0.4,0.9,0.1,2.1,1,2.4l3.3,1.3l-1.1,2.8c-0.4,0.9,0.1,2.1,1,2.4
					c0.9,0.4,2.1-0.1,2.4-1l1.1-2.8c3,0.5,6.1-1.2,7.3-4.2C342.6,107.1,341,103.1,337.5,101.7L337.5,101.7z"/>
				<path class="st1" d="M294.5,84.4c5.8,2.3,12.2-0.4,14.6-6.2c2.3-5.8-0.4-12.2-6.2-14.6c-5.8-2.3-12.2,0.4-14.6,6.2
					S288.7,82.1,294.5,84.4z M301.4,67.1c3.8,1.5,5.7,5.9,4.1,9.7c-1.5,3.8-5.9,5.7-9.7,4.1s-5.7-5.9-4.1-9.7
					C293.3,67.4,297.5,65.5,301.4,67.1z"/>
				<path class="st1" d="M260.2,99.8c4.3,1.7,9.1-0.3,10.8-4.6c1.7-4.3-0.3-9.1-4.6-10.8s-9.1,0.3-10.8,4.6
					C254,93.3,255.9,98.1,260.2,99.8z M265,87.8c2.3,0.9,3.5,3.6,2.5,6c-0.9,2.3-3.6,3.5-6,2.5c-2.4-1-3.4-3.6-2.4-5.9
					C260.1,88.1,262.7,86.9,265,87.8z"/>
				<path class="st1" d="M255.8,135.8l-0.8-0.3c-1.2-0.5-1.7-1.8-1.2-2.9c0.5-1.2,1.8-1.7,2.9-1.2l0.5,0.2l3.9,1.6
					c0.9,0.4,2.1-0.1,2.4-1c0.4-0.9-0.1-2.1-1-2.4l-2.2-0.9l0.8-2c0.4-0.9-0.1-2.1-1-2.4c-0.9-0.4-2.1,0.1-2.4,1l-0.8,2.1
					c-2.7-0.4-5.4,1-6.4,3.6c-1.2,3,0.2,6.5,3.3,7.8l0.8,0.3c1.2,0.5,1.7,1.8,1.2,2.9s-1.8,1.7-2.9,1.2l-4.5-1.8
					c-0.9-0.4-2.1,0.1-2.4,1c-0.4,0.9,0.1,2.1,1,2.4l2.5,1l-0.8,2c-0.4,0.9,0.1,2.1,1,2.4c0.9,0.4,2.1-0.1,2.4-1l0.8-2.1
					c2.6,0.2,5.2-1.1,6.2-3.7C260.2,140.5,258.8,137,255.8,135.8z"/>
				<path class="st1" d="M284.1,157.4c-4-1.6-8.6,0.3-10.2,4.3c-1.6,4,0.3,8.6,4.3,10.2c4,1.6,8.6-0.3,10.2-4.3S288,159,284.1,157.4
					z M279.7,168.3c-2.1-0.8-3.1-3.3-2.3-5.3s3.3-3.1,5.3-2.3c2.1,0.8,3.1,3.3,2.3,5.3S281.7,169.2,279.7,168.3z"/>
			</g>
		</g>
	</g>
</g>
</svg>
