<?xml version="1.0" encoding="utf-8"?>
<!-- Generator: Adobe Illustrator 25.0.0, SVG Export Plug-In . SVG Version: 6.00 Build 0)  -->
<svg version="1.1" id="Layer_1" xmlns="http://www.w3.org/2000/svg" xmlns:xlink="http://www.w3.org/1999/xlink" x="0px" y="0px"
	 viewBox="0 0 564 175" style="enable-background:new 0 0 564 175;" xml:space="preserve">
<style type="text/css">
	.st0{fill:#FD646F;}
	.st1{fill:#FC4755;}
	.st2{fill:#F5F5F5;}
	.st3{fill:#E6E6E6;}
	.st4{fill:#50758D;}
	.st5{fill:#2B597F;}
	.st6{fill:#918291;}
	.st7{fill:#7A6E79;}
	.st8{fill:#35414D;}
	.st9{fill:#EC5664;}
	.st10{fill:#87828E;}
	.st11{fill:#A4A4A5;}
	.st12{fill:#C63D4F;}
	.st13{fill:#FFCF66;}
	.st14{fill:#E8BA5D;}
	.st15{fill:#EFBC62;}
	.st16{fill:#E8EDF2;}
	.st17{fill:#C5D3DD;}
	.st18{fill:#DD636E;}
	.st19{fill:#90D8F9;}
	.st20{fill:#75CEF9;}
	.st21{fill:#FFD064;}
	.st22{fill:#EBB044;}
</style>
<g>
	<g id="g367_5_">
		<g id="g373_5_" transform="translate(439.5,223.5)">
			<g id="path375_5_">
				<path class="st0" d="M-332-146.7c-10.1,28.3-41.3,43-69.5,32.8c-28.3-10.1-43-41.3-32.8-69.5c10.1-28.3,41.3-43,69.5-32.8
					C-336.5-206.1-321.8-174.9-332-146.7"/>
			</g>
		</g>
		<g id="g377_5_" transform="translate(439.5,223.5)">
			<g id="path379_5_">
				<path class="st1" d="M-332-146.7c-10.1,28.3-41.3,43-69.5,32.8c-15.3-5.5-26.7-17.2-32.2-31.2c6.2,11.1,16.3,20.2,29.2,24.8
					c28.3,10.1,59.4-4.5,69.5-32.8c4.6-12.9,4.1-26.5-0.6-38.3C-328.3-178.2-326.5-162-332-146.7"/>
			</g>
		</g>
		<g id="g381_5_" transform="translate(386.5,223.5)">
			<g id="path383_5_">
				<path class="st2" d="M-291.5-151.2c7.7-21.3-3.4-44.8-24.8-52.5c-21.3-7.7-44.8,3.4-52.5,24.8s3.4,44.8,24.8,52.5
					C-322.7-118.8-299.2-129.8-291.5-151.2"/>
			</g>
		</g>
		<g id="g385_5_" transform="translate(386.5,223.5)">
			<g id="path387_5_">
				<path class="st3" d="M-291.5-151.2c-7.7,21.3-31.2,32.4-52.5,24.8c-11.9-4.3-20.6-13.4-24.6-24.4c4.7,8.1,12.1,14.6,21.6,18
					c21.3,7.7,44.8-3.4,52.5-24.8c3.4-9.5,3.1-19.3-0.1-28.1C-288.8-175.6-287.3-163-291.5-151.2"/>
			</g>
		</g>
		<g id="g389_5_" transform="translate(333.5,223.5)">
			<g id="path391_5_">
				<path class="st0" d="M-251.1-155.7c5.2-14.4-2.3-30.3-16.7-35.4c-14.4-5.2-30.3,2.3-35.4,16.7s2.3,30.3,16.7,35.4
					C-272.1-133.8-256.3-141.3-251.1-155.7"/>
			</g>
		</g>
		<g id="g393_5_" transform="translate(333.5,223.5)">
			<g id="path395_5_">
				<path class="st1" d="M-251.1-155.7c-5.2,14.4-21,21.9-35.4,16.7c-8.4-3-14.5-9.7-17-17.6c3.2,5,8,9,14,11.1
					c14.4,5.2,30.3-2.3,35.4-16.7c2.1-6,2.1-12.2,0.3-17.9C-249.4-173-248.1-164.1-251.1-155.7"/>
			</g>
		</g>
		<g id="g397_5_" transform="translate(167.5,223.5)">
			<g id="path399_5_">
				<path class="st2" d="M-124.4-169.8c2.6-7.3,10.7-11.1,18-8.5c7.3,2.6,11.1,10.7,8.5,18s-10.7,11.1-18,8.5
					S-127.1-162.5-124.4-169.8"/>
			</g>
		</g>
		<g id="g401_5_" transform="translate(427.8701,153.4102)">
			<g id="path403_5_">
				<path class="st1" d="M-329.1-61c-2.1,2.6-4.3,4.9-6.8,7.1l-9.5-9.4c2.5-2.1,4.8-4.4,6.8-7.1L-329.1-61z"/>
			</g>
		</g>
		<g id="g405_5_" transform="translate(379.46,175.98)">
			<g id="path407_5_">
				<path class="st3" d="M-290.2-93c-2,2.7-4.3,5-6.8,7.1l-9.6-9.5c2.6-1.9,4.9-4.4,6.7-7.2L-290.2-93z"/>
			</g>
		</g>
		<g id="g409_5_" transform="translate(330.6895,198.7202)">
			<g id="path411_5_">
				<path class="st1" d="M-251.1-125.3c-1.8,2.8-4.1,5.2-6.7,7.2l-9.9-9.8c2.9-1.6,5.2-4.1,6.5-7.4L-251.1-125.3z"/>
			</g>
		</g>
		<g id="g413_5_" transform="translate(279.4902,222.6001)">
			<g id="path415_5_">
				<path class="st3" d="M-210-159.2c-1.2,3.3-3.6,5.9-6.5,7.4l-9.2-9.2c-1.8-1.8-1.9-4.6-0.4-6.6c0.1-0.1,0.2-0.2,0.3-0.4
					c1-1,2.2-1.4,3.5-1.5c1.3,0,2.5,0.5,3.5,1.4L-210-159.2z"/>
			</g>
		</g>
		<g id="g417_5_" transform="translate(500.6787,412.1377)">
			<g id="path419_5_">
				<path class="st4" d="M-362.6-374.8c0.4,0.2,0.3,0.7,0,0.9l-6.8,3.2l-4.2,2l-11.4,5.4c-0.7,0.3-1.6,0.3-2.3-0.1l-11.8-6.6
					l12.7-5.9l4.2-2l7.8-3.6L-362.6-374.8z"/>
			</g>
		</g>
		<g id="g421_5_" transform="translate(480.6104,387.5)">
			<g id="path423_5_">
				<path class="st5" d="M-349.4-346l-4.2,2l-12.8-7.2l4.2-2L-349.4-346z"/>
			</g>
		</g>
		<g id="g425_5_" transform="translate(422.1299,444.1099)">
			<g id="path427_5_">
				<path class="st4" d="M-300-421l-7.7,3.5l-4.2,1.9l-12.6,5.8l2.5-13.4c0.1-0.8,0.7-1.5,1.4-1.8l11.5-5.4l4.2-2l6.9-3.3
					c0.4-0.2,0.8,0.1,0.7,0.5L-300-421z"/>
			</g>
		</g>
		<g id="g429_6_" transform="translate(398.0996,420.6001)">
			<g id="path431_6_">
				<path class="st5" d="M-283.6-394l-4.2,1.9l2.7-14.9l4.2-2L-283.6-394z"/>
			</g>
		</g>
		<g id="g433_6_" transform="translate(467.8398,447.3398)">
			<g id="path435_6_">
				<path class="st6" d="M-334.6-421.1c-0.4,1.2-1.3,2.2-2.5,2.8l-71.4,33.7c-2.3,1.1-5,0.2-6.3-1.9c-0.1-0.1-0.2-0.3-0.2-0.4
					c-0.6-1.2-0.6-2.6-0.2-3.8c0.4-1.2,1.3-2.2,2.5-2.8l71.4-33.7c2.5-1.2,5.4-0.1,6.5,2.3c0.1,0.2,0.1,0.3,0.2,0.5
					C-334.2-423.3-334.2-422.2-334.6-421.1"/>
			</g>
		</g>
		<g id="g437_5_" transform="translate(467.8398,447.3398)">
			<g id="path439_5_">
				<path class="st7" d="M-334.6-421.1c-0.4,1.2-1.3,2.2-2.5,2.8l-71.4,33.7c-2.3,1.1-5,0.2-6.3-1.9l80.2-37.8
					C-334.2-423.3-334.2-422.2-334.6-421.1"/>
			</g>
		</g>
		<g id="g441_5_" transform="translate(381.9443,261.9277)">
			<g id="path443_5_">
				<path class="st8" d="M-284.8-197.5c-0.1,0-0.1,0-0.2,0c-0.9-0.1-1.5-0.9-1.4-1.7c0.6-5.6,0-11.1-1.7-16.5c-0.3-0.8,0.2-1.7,1-2
					c0.8-0.3,1.7,0.2,2,1c1.9,5.8,2.5,11.8,1.9,17.8C-283.3-198.1-284-197.5-284.8-197.5z"/>
			</g>
		</g>
		<g id="g445_5_" transform="translate(324.7061,351.2832)">
			<g id="path447_5_">
				<path class="st8" d="M-268.3-250.2c-4.9,0-9.7-0.8-14.4-2.5c-10.7-3.8-19.3-11.6-24.1-21.9c-4.9-10.3-5.4-21.9-1.6-32.6
					c7.9-22.1,32.4-33.7,54.5-25.7c9.1,3.3,16.7,9.4,21.8,17.6c0.5,0.7,0.2,1.7-0.5,2.2c-0.7,0.5-1.7,0.2-2.2-0.5
					c-4.7-7.6-11.7-13.3-20.2-16.3c-9.9-3.6-20.6-3-30.2,1.5c-9.5,4.5-16.7,12.4-20.3,22.4c-3.6,9.9-3,20.6,1.5,30.2
					c4.5,9.5,12.4,16.7,22.4,20.3c9.9,3.6,20.6,3,30.2-1.5c9.5-4.5,16.7-12.4,20.3-22.4c0.1-0.3,0.2-0.7,0.4-1.1
					c0.3-0.8,1.2-1.3,2-1c0.8,0.3,1.3,1.2,1,2c-0.1,0.4-0.3,0.8-0.4,1.1c-3.8,10.7-11.6,19.3-21.9,24.1
					C-256-251.5-262.1-250.2-268.3-250.2z"/>
			</g>
		</g>
		<g id="g449_5_" transform="translate(314.7051,285.0156)">
			<g id="path451_5_">
				<path class="st8" d="M-258.4-197.3c-3.3,0-6.6-0.6-9.9-1.7c-10-3.6-17.3-12.3-19-22.7c-0.1-0.9,0.4-1.7,1.3-1.8
					c0.9-0.1,1.7,0.4,1.8,1.3c1.5,9.3,8,17,17,20.2c13.5,4.9,28.5-2.2,33.4-15.8c1.8-4.9,2-10.2,0.7-15.2c-0.2-0.8,0.3-1.7,1.1-1.9
					c0.8-0.2,1.7,0.3,1.9,1.1c1.4,5.7,1.2,11.6-0.8,17.1C-235.1-204.7-246.4-197.3-258.4-197.3z"/>
			</g>
		</g>
		<g id="g453_5_" transform="translate(115.627,201.8657)">
			<g id="path455_5_">
				<path class="st8" d="M-86.7-145.9c-0.1,0-0.2,0-0.2,0c-0.9-0.1-1.5-0.9-1.3-1.8c0.3-1.9,0.8-3.8,1.4-5.6
					c2.6-7.4,8-13.3,15.1-16.6c7.1-3.3,15-3.7,22.4-1.1c5.7,2.1,10.6,5.8,14.1,10.7c0.5,0.7,0.3,1.7-0.4,2.2s-1.7,0.3-2.2-0.4
					c-3.1-4.4-7.4-7.7-12.5-9.6c-6.6-2.4-13.7-2-20,1c-6.3,3-11.1,8.2-13.4,14.8c-0.6,1.6-1,3.3-1.3,5
					C-85.2-146.4-85.9-145.9-86.7-145.9z"/>
			</g>
		</g>
		<g id="g457_5_" transform="translate(105.9727,404.7573)">
			<g id="path459_5_">
				<path class="st8" d="M-6.6-378c-0.5,0-0.9-0.2-1.3-0.6c-6.1-7.9-14.4-13.9-23.9-17.4c-9.6-3.5-20-4.1-29.9-1.7
					c-0.9,0.2-1.7-0.3-1.9-1.2c-0.2-0.9,0.3-1.7,1.2-1.9c10.5-2.5,21.5-1.9,31.7,1.8c10.1,3.6,18.8,10,25.3,18.4
					c0.5,0.7,0.4,1.7-0.3,2.2C-6-378.1-6.3-378-6.6-378z"/>
			</g>
		</g>
		<g id="g461_5_" transform="translate(406.1338,338.8818)">
			<g id="path463_5_">
				<path class="st8" d="M-349.8-224.4c-6.4,0-12.8-1.1-18.9-3.3c-14.1-5.1-25.3-15.3-31.7-28.8c-6.4-13.5-7.1-28.7-2.1-42.8
					c5.3-14.9,16.8-26.9,31.5-32.9c0.8-0.3,1.7,0.1,2.1,0.9c0.3,0.8-0.1,1.7-0.9,2.1c-13.8,5.7-24.7,17-29.7,31
					c-4.8,13.3-4.1,27.6,1.9,40.4c6,12.8,16.6,22.4,29.9,27.2c13.3,4.8,27.6,4.1,40.4-1.9c12.8-6,22.4-16.6,27.2-29.9
					c3.4-9.4,4-19.6,1.9-29.3c-0.2-0.9,0.3-1.7,1.2-1.9c0.9-0.2,1.7,0.3,1.9,1.2c2.3,10.3,1.6,21.1-2,31.1
					c-5.1,14.1-15.3,25.3-28.8,31.7C-333.5-226.2-341.6-224.4-349.8-224.4z"/>
			</g>
		</g>
		<g id="g465_5_" transform="translate(274.7295,246.1509)">
			<g id="path467_5_">
				<path class="st8" d="M-218.4-172c-1.8,0-3.6-0.3-5.3-0.9c-3.9-1.4-7.1-4.3-8.9-8.1c-1.8-3.8-2-8-0.6-12c1.4-3.9,4.3-7.1,8.1-8.9
					c3.8-1.8,8.1-2,12-0.6c2.2,0.8,4.2,2,5.8,3.7c0.6,0.6,0.6,1.6,0,2.2c-0.6,0.6-1.6,0.6-2.2,0c-1.3-1.3-2.9-2.3-4.6-2.9
					c-6.5-2.3-13.7,1.1-16,7.5c-1.1,3.1-1,6.5,0.5,9.6c1.4,3,3.9,5.3,7.1,6.4c3.1,1.1,6.5,1,9.6-0.5c3-1.4,5.3-3.9,6.4-7.1
					c0.6-1.7,0.8-3.4,0.7-5.1c-0.1-0.9,0.6-1.6,1.5-1.7c0.9-0.1,1.6,0.6,1.7,1.5c0.2,2.2-0.1,4.3-0.9,6.4c-1.4,3.9-4.3,7.1-8.1,8.9
					C-213.8-172.5-216.1-172-218.4-172z"/>
			</g>
		</g>
		<g id="g469_5_" transform="translate(212.8672,239.4443)">
			<g id="path471_5_">
				<path class="st8" d="M-155.6-174.7c-2.4,0-4.8-1.4-5.9-3.7c-1.5-3.2-0.1-7.1,3.1-8.6l71.4-33.7c3.2-1.5,7.1-0.1,8.6,3.1
					c0.7,1.6,0.8,3.3,0.2,5c-0.6,1.6-1.8,2.9-3.3,3.7l-71.4,33.7C-153.7-174.9-154.7-174.7-155.6-174.7z M-84.2-218.2
					c-0.5,0-1,0.1-1.4,0.3l-71.4,33.7l0,0c-1.7,0.8-2.4,2.8-1.6,4.4c0.8,1.7,2.8,2.4,4.4,1.6l71.4-33.7c0.8-0.4,1.4-1,1.7-1.9
					c0.3-0.8,0.3-1.7-0.1-2.5C-81.8-217.5-83-218.2-84.2-218.2z M-157.7-185.7L-157.7-185.7L-157.7-185.7z"/>
			</g>
		</g>
		<g id="g473_5_" transform="translate(390.6611,419.603)">
			<g id="path475_5_">
				<path class="st8" d="M-278-391.8c-0.1,0-0.2,0-0.3,0c-0.9-0.2-1.4-1-1.3-1.8l2.4-13.3c0.2-0.9,1-1.4,1.8-1.3
					c0.9,0.2,1.4,1,1.3,1.8l-2.4,13.3C-276.6-392.3-277.3-391.8-278-391.8z"/>
			</g>
		</g>
		<g id="g477_5_" transform="translate(421.46,448.3306)">
			<g id="path479_5_">
				<path class="st8" d="M-323.7-413.1c-0.1,0-0.2,0-0.3,0c-0.9-0.2-1.4-1-1.3-1.8l2.6-14c0.1-0.5,0.4-0.9,0.9-1.1l24.7-11.7
					c0.5-0.3,1.2-0.2,1.6,0.2c0.5,0.4,0.7,1,0.6,1.5l-2.7,14.1c-0.2,0.9-1,1.4-1.9,1.3c-0.9-0.2-1.4-1-1.3-1.9l2.1-11l-21.1,10
					l-2.4,13.2C-322.3-413.6-322.9-413.1-323.7-413.1z"/>
			</g>
		</g>
		<g id="g481_5_" transform="translate(420.3096,389.9541)">
			<g id="path483_5_">
				<path class="st8" d="M-291.4-346c-0.3,0-0.5-0.1-0.8-0.2l-11.8-6.6c-0.8-0.4-1-1.4-0.6-2.2c0.4-0.8,1.4-1,2.2-0.6l11.8,6.6
					c0.8,0.4,1,1.4,0.6,2.2C-290.3-346.3-290.9-346-291.4-346z"/>
			</g>
		</g>
		<g id="g485_6_" transform="translate(449.2891,420.7114)">
			<g id="path487_5_">
				<path class="st8" d="M-334.9-369.7c-0.3,0-0.5-0.1-0.8-0.2l-12.4-6.9c-0.8-0.4-1-1.4-0.6-2.2c0.4-0.8,1.4-1,2.2-0.6l11.7,6.5
					l21-10l-9.6-5.4c-0.8-0.4-1-1.4-0.6-2.2s1.4-1,2.2-0.6l12.3,6.9c0.5,0.3,0.8,0.8,0.8,1.4c0,0.6-0.4,1.1-0.9,1.4l-24.5,11.6
					C-334.4-369.7-334.6-369.7-334.9-369.7z"/>
			</g>
		</g>
	</g>
	<g>
		<g>
			<g>
				<g>
					<g>
						<g>
							<g>
								<path class="st9" d="M475.5,105.8l14.8,14.8c1.7,1.7,4.4,1.7,6.1,0c1.7-1.7,1.7-4.4,0-6.1l-14.8-14.8L475.5,105.8z"/>
							</g>
							<g>
								<path class="st10" d="M489,98.4l-6.2,6.2c-3.9,3.9-10.3,3.9-14.2,0c-3.9-3.9-3.9-10.3,0-14.2l6.2-6.2L489,98.4z"/>
							</g>
							<g>
								<path class="st9" d="M494.2,48.2l30.9,31c1.1,1.2,0.5,3.1-1.1,3.3c-14.2,1.9-21.9,3-32.2,13.2l-2.8,2.8l-14.2-14.3l2.8-2.8
									c10.2-10.2,11.3-18,13.3-32.1C491.1,47.7,493.1,47,494.2,48.2L494.2,48.2z"/>
							</g>
							<g>
								<path class="st11" d="M487,100.5l-4.1,4.1c-3.9,3.9-10.3,3.9-14.2,0c-2-2-2.9-4.5-2.9-7.1c0-2.6,1-5.2,3-7.1l4.1-4.1
									c-2,2-3,4.5-3,7.1c0,2.6,1,5.2,2.9,7.1C476.7,104.4,483.1,104.4,487,100.5z"/>
							</g>
							<g>
								<path class="st12" d="M494.2,48.2l30.9,31c1.1,1.1,0.5,3.1-1.1,3.3c-1.1,0.2-2.3,0.3-3.3,0.5l-30.2-30.3
									c0.2-1.1,0.3-2.2,0.5-3.3C491.1,47.7,493.1,47,494.2,48.2L494.2,48.2z"/>
							</g>
						</g>
					</g>
				</g>
			</g>
		</g>
		<g>
			<g>
				<g>
					<circle class="st13" cx="540.4" cy="93.1" r="21.9"/>
				</g>
				<g>
					<path class="st14" d="M549.7,112.9c-1,0.5-2.2,0.9-3.3,1.2c-11.6,3.4-23.8-3.4-27.1-15c-3.4-11.6,3.4-23.8,15-27.1
						c1.1-0.3,2.3-0.6,3.5-0.7c-9.6,4.5-14.7,15.4-11.7,25.9C529.1,107.7,539.2,114.2,549.7,112.9L549.7,112.9z"/>
				</g>
				<g>
					<path class="st14" d="M561.4,87c3.4,11.6-3.4,23.8-15,27.1c-1.1,0.3-2.3,0.6-3.5,0.7c9.6-4.5,14.7-15.4,11.7-25.9
						c-3-10.5-13.2-17-23.7-15.7c1-0.5,2.2-0.9,3.3-1.2C545.9,68.7,558.1,75.4,561.4,87z"/>
				</g>
			</g>
		</g>
		<g>
			<g>
				<g>
					<circle class="st13" cx="540.8" cy="21.8" r="18"/>
				</g>
				<g>
					<path class="st15" d="M548.5,38.1c-0.9,0.4-1.8,0.7-2.7,1c-9.5,2.7-19.5-2.7-22.2-12.3c-2.7-9.5,2.7-19.5,12.3-22.2
						c0.9-0.3,1.9-0.5,2.8-0.6c-7.8,3.7-12,12.6-9.6,21.2C531.6,33.8,539.9,39.1,548.5,38.1L548.5,38.1z"/>
				</g>
				<g>
					<path class="st14" d="M558.1,16.9c2.7,9.5-2.7,19.5-12.3,22.2c-0.9,0.3-1.9,0.5-2.8,0.6c7.8-3.7,12-12.6,9.6-21.2
						c-2.5-8.6-10.8-13.9-19.4-12.8c0.9-0.4,1.8-0.7,2.7-1C545.4,1.8,555.3,7.3,558.1,16.9L558.1,16.9z"/>
				</g>
			</g>
		</g>
		<g>
			<path class="st8" d="M519.9,54.4c-0.2,0-0.5-0.1-0.6-0.3c-0.4-0.4-0.4-0.9,0-1.3l8-8c0.2-0.2,0.4-0.3,0.6-0.3
				c0.2,0,0.5,0.1,0.6,0.3c0.4,0.4,0.4,0.9,0,1.3l-8,8C520.3,54.3,520.1,54.4,519.9,54.4L519.9,54.4z"/>
			<path class="st8" d="M519.9,54.9c-0.4,0-0.7-0.1-1-0.4c-0.3-0.3-0.4-0.6-0.4-1c0-0.4,0.1-0.7,0.4-1l8-8c0.5-0.5,1.4-0.5,2,0
				c0.3,0.3,0.4,0.6,0.4,1c0,0.4-0.1,0.7-0.4,1l-8,8C520.6,54.7,520.2,54.9,519.9,54.9z M527.9,45.1c-0.1,0-0.2,0-0.3,0.1l-8,8
				c-0.1,0.1-0.1,0.2-0.1,0.3c0,0.1,0,0.2,0.1,0.3c0.2,0.2,0.5,0.2,0.6,0l8-8c0.1-0.1,0.1-0.2,0.1-0.3c0-0.1,0-0.2-0.1-0.3
				C528.1,45.1,528,45.1,527.9,45.1z"/>
		</g>
		<g>
			<path class="st8" d="M512.4,46.9c-0.1,0-0.2,0-0.3-0.1c-0.5-0.2-0.7-0.7-0.6-1.2l4.2-11.8c0.1-0.4,0.5-0.6,0.9-0.6
				c0.1,0,0.2,0,0.3,0.1c0.2,0.1,0.4,0.2,0.5,0.5c0.1,0.2,0.1,0.5,0,0.7l-4.2,11.8C513.1,46.7,512.8,46.9,512.4,46.9L512.4,46.9z"/>
			<path class="st8" d="M512.4,47.4c-0.2,0-0.3,0-0.5-0.1c-0.3-0.1-0.6-0.4-0.8-0.7c-0.2-0.3-0.2-0.7-0.1-1.1l4.2-11.8
				c0.2-0.7,1.1-1.1,1.8-0.8c0.4,0.1,0.6,0.4,0.8,0.7c0.2,0.3,0.2,0.7,0.1,1.1l-4.2,11.8C513.5,47,513,47.4,512.4,47.4z M516.6,33.7
				c-0.2,0-0.4,0.1-0.4,0.3L512,45.8c0,0.1,0,0.2,0,0.3c0.1,0.1,0.1,0.2,0.3,0.2c0.2,0.1,0.5,0,0.6-0.3l4.2-11.8c0-0.1,0-0.2,0-0.3
				c-0.1-0.1-0.1-0.2-0.3-0.2C516.7,33.7,516.6,33.7,516.6,33.7z"/>
		</g>
		<g>
			<path class="st8" d="M527.3,61.9c-0.4,0-0.7-0.2-0.9-0.6c-0.2-0.5,0.1-1,0.6-1.2l11.9-4.1c0.1,0,0.2-0.1,0.3-0.1
				c0.4,0,0.7,0.2,0.9,0.6c0.2,0.5-0.1,1-0.6,1.2c-0.1,0-11.6,4-11.9,4.2C527.5,61.9,527.4,61.9,527.3,61.9L527.3,61.9z"/>
			<path class="st8" d="M527.3,62.4c-0.6,0-1.1-0.4-1.3-0.9c-0.1-0.3-0.1-0.7,0.1-1.1c0.2-0.3,0.4-0.6,0.8-0.7l11.9-4.1
				c0.7-0.2,1.5,0.2,1.8,0.9c0.3,0.7-0.1,1.5-0.8,1.8c-0.1,0-11.6,4-11.9,4.2C527.6,62.4,527.5,62.4,527.3,62.4z M539.2,56.4
				c-0.1,0-0.1,0-0.1,0l-11.9,4.1c-0.1,0-0.2,0.1-0.3,0.2c-0.1,0.1-0.1,0.2,0,0.3c0.1,0.2,0.2,0.3,0.4,0.3c0,0,0.1,0,0.1,0
				c0.3-0.1,11.8-4.1,11.9-4.1c0.1,0,0.2-0.1,0.3-0.2c0.1-0.1,0.1-0.2,0-0.3C539.6,56.5,539.4,56.4,539.2,56.4z"/>
		</g>
		<g>
			<path class="st8" d="M495.5,82.4c-4.9,2.9-8,6.1-8.1,6.3c-0.7,0.8-0.6,1.9,0.1,2.6c0.8,0.7,1.9,0.6,2.6-0.1c0,0,2.8-3,7.2-5.6
				c0.9-0.5,1.2-1.6,0.7-2.5C497.5,82.1,496.3,81.8,495.5,82.4L495.5,82.4z"/>
		</g>
		<g>
			<path class="st8" d="M502.8,79.2c-0.2,0.1-0.5,0.1-0.7,0.2c-1,0.3-1.5,1.3-1.2,2.3c0.3,1,1.3,1.5,2.3,1.2c0,0,0.2,0,0.6-0.2
				c1-0.3,1.5-1.3,1.3-2.3C504.8,79.5,503.8,78.9,502.8,79.2L502.8,79.2z"/>
		</g>
		<g>
			<path class="st8" d="M493.4,122.8c-1.4,0-2.7-0.5-3.7-1.5l-12.9-13l-0.5,0.2c0,0-0.2,0-0.6,0c-1.5,0-5-0.7-7.6-3.3
				c-4.3-4.3-4.3-11.2,0-15.5l2.4-2.4c15-14.9,16.5-16.4,19.5-38.1c0.2-1.6,1.6-2.5,2.9-2.5c0.8,0,1.5,0.3,2,0.9l29.3,29.4l0.7-0.6
				c2.6-2.4,5.7-4.2,9.2-5.2c2.1-0.6,4.2-0.9,6.3-0.9c10.1,0,19.1,6.8,21.9,16.5c3.5,12.1-3.5,24.8-15.6,28.3
				c-2.1,0.6-4.2,0.9-6.3,0.9c0,0,0,0,0,0c-10.1,0-19.1-6.8-21.9-16.5c-1.3-4.6-1.2-9.4,0.4-13.9l0.5-1.5l-1.5,0.2
				c-15.8,2.4-20.7,7.4-25.8,12.6c-1.2,1.2-2.5,2.5-3.9,3.7l-1.6,1.4l2.1,0.2c0.7,0.1,1.4,0.2,2,0.2c1.3,0.2,2.3,0.3,3.2,0.3
				c1.6,0,2.7-0.4,3.7-1.4c0.2-0.2,0.4-0.3,0.6-0.3c0.2,0,0.5,0.1,0.6,0.3c0.4,0.4,0.4,0.9,0,1.3c-1.4,1.4-2.9,2-5,2
				c-0.9,0-1.9-0.1-2.9-0.2c-0.4,0-0.8-0.1-1.1-0.1l-2.6-0.3l9.9,9.9c2,2.1,2,5.4,0,7.4C496.1,122.3,494.8,122.8,493.4,122.8z
				 M484.1,104.7c-1.3,1.3-1.8,1.8-3.8,2.8l-1.2,0.6l11.9,11.9c0.6,0.6,1.5,1,2.4,1c0.9,0,1.8-0.4,2.4-1c0.6-0.6,1-1.5,1-2.4
				c0-0.9-0.4-1.8-1-2.4L484.7,104L484.1,104.7z M540.3,72.1c-2,0-3.9,0.3-5.8,0.8c-5.4,1.6-9.8,5.1-12.6,10
				c-2.7,4.9-3.3,10.6-1.8,16c2.6,8.9,10.9,15.2,20.2,15.2c2,0,3.9-0.3,5.8-0.8c11.1-3.2,17.6-14.9,14.4-26
				C557.9,78.3,549.6,72.1,540.3,72.1z M469.3,91c-1.7,1.7-2.7,4-2.7,6.5c0,2.4,0.9,4.7,2.7,6.5c1.7,1.7,4,2.7,6.5,2.7
				c2.4,0,4.7-0.9,6.5-2.7l5.5-5.5l-12.9-13L469.3,91z M492.5,48.5c-0.5,0.2-0.7,0.5-0.8,0.9c-2.3,16.8-3.6,22.7-15,34l-0.7,0.7
				l12.9,13l0.7-0.7c10.2-10.2,15.9-12.3,30.2-14.4l0.4-0.1l0.2-0.4c0.5-0.9,1.2-1.9,1.8-2.7l0.5-0.7l-29.7-29.8l-0.5,0h-0.1
				L492.5,48.5z"/>
			<path class="st8" d="M493.4,123.3c-1.5,0-3-0.6-4.1-1.7l-12.7-12.8l-0.3,0.1c-0.1,0-0.3,0.1-0.7,0.1c-1.6,0-5.3-0.7-8-3.4
				c-4.5-4.5-4.4-11.7,0-16.2l2.4-2.4c14.9-14.8,16.4-16.3,19.4-37.8c0.3-1.9,1.9-2.9,3.3-2.9c0.9,0,1.7,0.4,2.4,1l29,29.1l0.3-0.3
				c2.7-2.5,5.8-4.3,9.3-5.3c2.1-0.6,4.3-0.9,6.4-0.9c10.3,0,19.5,6.9,22.4,16.8c3.6,12.3-3.6,25.3-15.9,28.8
				c-2.1,0.6-4.3,0.9-6.4,0.9c-10.3,0-19.5-6.9-22.4-16.8c-1.4-4.7-1.2-9.6,0.4-14.2l0.3-0.7l-0.8,0.1c-15.7,2.4-20.5,7.3-25.5,12.4
				c-1.2,1.3-2.5,2.5-3.9,3.8l-0.8,0.7l1.1,0.1c0.7,0.1,1.3,0.1,1.9,0.2c1.4,0.2,2.4,0.3,3.2,0.3c1.5,0,2.4-0.4,3.3-1.3
				c0.5-0.5,1.4-0.5,2,0c0.5,0.5,0.5,1.4,0,2c-1.5,1.5-3.1,2.1-5.3,2.1c-1,0-2-0.1-2.9-0.2c-0.4-0.1-0.8-0.1-1.1-0.1l-1.3-0.1l9,9
				c2.2,2.2,2.2,5.9,0,8.1C496.3,122.7,494.9,123.3,493.4,123.3z M476.8,107.8l13.1,13.2c0.9,0.9,2.1,1.4,3.4,1.4
				c1.3,0,2.5-0.5,3.4-1.4c1.9-1.9,1.9-4.9,0-6.8l-10.8-10.9l3.9,0.4c0.4,0,0.7,0.1,1.1,0.1c1,0.1,1.9,0.2,2.8,0.2
				c1.9,0,3.4-0.6,4.6-1.8c0.2-0.2,0.2-0.5,0-0.6c-0.2-0.2-0.5-0.2-0.6,0c-1.1,1.1-2.3,1.6-4,1.6c-0.9,0-1.9-0.1-3.2-0.3
				c-0.7-0.1-1.3-0.2-1.9-0.2l-3.2-0.3l2.4-2.1c1.4-1.2,2.6-2.5,3.8-3.7c5.2-5.3,10.1-10.3,26.1-12.8l2.3-0.4l-0.8,2.2
				c-1.6,4.4-1.7,9.1-0.4,13.6c2.7,9.5,11.6,16.2,21.5,16.2c2.1,0,4.2-0.3,6.2-0.9c11.8-3.4,18.7-15.8,15.3-27.7
				c-2.7-9.5-11.6-16.2-21.5-16.2c-2.1,0-4.2,0.3-6.2,0.9c-3.4,1-6.4,2.7-9,5.1l-1,0.9l-29.6-29.7c-0.5-0.5-1.1-0.7-1.7-0.7
				c-1.1,0-2.2,0.7-2.4,2.1c-3,21.8-4.6,23.4-19.7,38.3l-2.4,2.4c-4.1,4.1-4.1,10.8,0,14.9c2.5,2.5,5.9,3.2,7.3,3.2
				c0.3,0,0.4,0,0.4,0L476.8,107.8z M493.4,121.4c-1,0-2-0.4-2.8-1.1l-12.3-12.4l1.7-0.9c2-1,2.4-1.4,3.7-2.7v0l1-1l11.4,11.4
				c0.7,0.7,1.1,1.7,1.1,2.8c0,1-0.4,2-1.1,2.8C495.4,121,494.4,121.4,493.4,121.4z M479.9,108.2l11.4,11.4c1.1,1.1,3.1,1.1,4.2,0
				c0.6-0.6,0.9-1.3,0.9-2.1c0-0.8-0.3-1.5-0.9-2.1l-10.7-10.8l-0.3,0.3c-1.3,1.3-1.9,1.9-3.9,2.9L479.9,108.2z M540.4,114.6
				c-9.5,0-18-6.4-20.6-15.5c-1.6-5.5-0.9-11.3,1.8-16.3c2.8-5,7.3-8.7,12.8-10.3c1.9-0.6,3.9-0.8,5.9-0.8c9.5,0,18,6.4,20.6,15.5
				c3.3,11.4-3.3,23.3-14.7,26.6C544.4,114.3,542.4,114.6,540.4,114.6z M540.3,72.6c-1.9,0-3.8,0.3-5.7,0.8c-5.3,1.5-9.6,5-12.3,9.8
				c-2.6,4.8-3.3,10.3-1.8,15.6c2.5,8.7,10.6,14.8,19.7,14.8c1.9,0,3.8-0.3,5.7-0.8c10.9-3.1,17.2-14.5,14-25.4
				C557.6,78.7,549.4,72.6,540.3,72.6z M475.8,107.1c-2.6,0-5-1-6.8-2.8c-1.8-1.8-2.8-4.2-2.8-6.8c0-2.6,1-5,2.8-6.8l5.9-5.9
				l13.6,13.6l-5.9,5.9C480.7,106.1,478.3,107.1,475.8,107.1z M474.8,86.1l-5.2,5.2c-1.6,1.6-2.5,3.8-2.5,6.1c0,2.3,0.9,4.5,2.5,6.1
				c1.6,1.6,3.8,2.6,6.2,2.6c2.3,0,4.5-0.9,6.1-2.5l5.2-5.2L474.8,86.1z M489,97.8l-13.6-13.6l1-1c11.2-11.2,12.5-17,14.9-33.8
				c0-0.6,0.4-1.1,1.1-1.3l0.5-0.1l0.7,0.1l0.1,0.1l30,30l-0.8,1c-0.7,0.8-1.3,1.7-1.8,2.7l-0.3,0.6l-0.7,0.1
				c-14.2,2-19.8,4.1-30,14.2L489,97.8z M476.8,84.1L489,96.5l0.3-0.3c10.3-10.3,16.1-12.4,30.5-14.5l0.2,0l0.1-0.2
				c0.6-1,1.2-1.9,1.9-2.8l0.3-0.3L493.1,49l-0.3,0l-0.1,0c-0.3,0.1-0.4,0.3-0.4,0.5c-2.4,17-3.7,22.9-15.1,34.3L476.8,84.1z"/>
		</g>
		<g>
			<path class="st8" d="M540.8,40.7c-8.4,0-15.8-5.6-18.1-13.6c-2.9-10,2.9-20.5,12.9-23.4c1.7-0.5,3.5-0.7,5.2-0.7
				c8.4,0,15.8,5.6,18.1,13.6c1.4,4.8,0.8,9.9-1.6,14.3c-2.4,4.4-6.4,7.6-11.3,9C544.3,40.5,542.6,40.7,540.8,40.7
				C540.8,40.7,540.8,40.7,540.8,40.7z M540.8,4.8c-1.6,0-3.2,0.2-4.7,0.7c-4.4,1.3-8,4.1-10.2,8.1s-2.7,8.6-1.5,13
				c2.1,7.3,8.8,12.3,16.4,12.3c1.6,0,3.2-0.2,4.7-0.7c4.4-1.3,8-4.2,10.2-8.1c2.2-4,2.7-8.6,1.5-13C555.1,9.9,548.4,4.8,540.8,4.8z
				"/>
			<path class="st8" d="M540.8,41.2L540.8,41.2c-8.6,0-16.2-5.7-18.6-14c-3-10.2,3-21,13.2-23.9c1.7-0.5,3.6-0.8,5.4-0.8
				c8.6,0,16.2,5.7,18.6,14c1.4,5,0.8,10.2-1.7,14.7c-2.5,4.5-6.6,7.8-11.6,9.2C544.4,40.9,542.6,41.2,540.8,41.2z M540.8,3.4
				c-1.7,0-3.4,0.2-5.1,0.7c-9.7,2.8-15.4,13-12.6,22.8c2.3,7.8,9.5,13.3,17.7,13.3c1.7,0,3.4-0.2,5.1-0.7c4.7-1.4,8.6-4.5,11-8.8
				c2.4-4.3,2.9-9.3,1.6-14C556.2,8.9,549,3.4,540.8,3.4z M540.8,39.3c-7.8,0-14.7-5.2-16.8-12.7c-1.3-4.5-0.8-9.2,1.5-13.3
				c2.3-4.1,6-7.1,10.5-8.4c1.6-0.5,3.2-0.7,4.8-0.7c7.8,0,14.7,5.2,16.8,12.7c1.3,4.5,0.8,9.2-1.5,13.3c-2.3,4.1-6,7.1-10.5,8.4
				C544.1,39.1,542.5,39.3,540.8,39.3z M540.8,5.3c-1.5,0-3.1,0.2-4.6,0.7c-4.2,1.2-7.8,4-9.9,7.9c-2.1,3.9-2.6,8.4-1.4,12.6
				c2,7.1,8.6,12,15.9,12c1.5,0,3.1-0.2,4.6-0.7c4.2-1.2,7.8-4,9.9-7.9c2.1-3.9,2.6-8.4,1.4-12.6C554.7,10.2,548.2,5.3,540.8,5.3z"
				/>
		</g>
		<g>
			<g>
				<g>
					<path class="st8" d="M541.3,94.8c-3.2,1-6.5-0.8-7.5-4c-1-3.2,0.8-6.5,4-7.5c3.2-1,6.5,0.8,7.5,4c0.3,0.8-0.2,1.7-1,2
						c-0.8,0.3-1.7-0.2-2-1c-0.5-1.5-2.1-2.4-3.6-1.9c-1.5,0.5-2.4,2.1-1.9,3.6c0.5,1.5,2.1,2.4,3.6,1.9c0.8-0.3,1.7,0.2,2,1
						C542.6,93.6,542.1,94.5,541.3,94.8L541.3,94.8z"/>
				</g>
			</g>
			<g>
				<g>
					<path class="st8" d="M543.9,103.3c-3.2,1-6.5-0.8-7.5-4c-0.3-0.8,0.2-1.7,1-2c0.8-0.3,1.7,0.2,2,1c0.5,1.5,2.1,2.4,3.6,1.9
						s2.4-2.1,1.9-3.6c-0.5-1.5-2.1-2.4-3.6-1.9c-0.8,0.3-1.7-0.2-2-1c-0.3-0.8,0.2-1.7,1-2c3.2-1,6.5,0.8,7.5,4
						C548.9,98.9,547.1,102.3,543.9,103.3L543.9,103.3z"/>
				</g>
			</g>
			<g>
				<g>
					<path class="st8" d="M538.6,86.3c-0.8,0.3-1.7-0.2-2-1l-0.8-2.7c-0.3-0.8,0.2-1.7,1-2c0.8-0.3,1.7,0.2,2,1l0.8,2.7
						C539.9,85.1,539.5,86,538.6,86.3z"/>
				</g>
			</g>
			<g>
				<g>
					<path class="st8" d="M544.7,105.7c-0.8,0.3-1.7-0.2-2-1l-0.8-2.5c-0.3-0.8,0.2-1.7,1-2c0.8-0.3,1.7,0.2,2,1l0.8,2.5
						C546,104.6,545.5,105.5,544.7,105.7z"/>
				</g>
			</g>
		</g>
		<g>
			<g>
				<g>
					<path class="st8" d="M541.2,23.3c-2.9,0.9-5.9-0.7-6.8-3.6c-0.9-2.9,0.7-5.9,3.6-6.8c2.9-0.9,5.9,0.7,6.8,3.6
						c0.2,0.7-0.2,1.5-0.9,1.8c-0.7,0.2-1.5-0.2-1.8-0.9c-0.4-1.4-1.9-2.2-3.3-1.7s-2.2,1.9-1.7,3.3c0.4,1.4,1.9,2.2,3.3,1.7
						c0.7-0.2,1.5,0.2,1.8,0.9C542.4,22.3,542,23.1,541.2,23.3L541.2,23.3z"/>
				</g>
			</g>
			<g>
				<g>
					<path class="st8" d="M543.6,31c-2.9,0.9-5.9-0.7-6.8-3.6c-0.2-0.7,0.2-1.5,0.9-1.8c0.7-0.2,1.5,0.2,1.8,0.9
						c0.4,1.4,1.9,2.2,3.3,1.7s2.2-1.9,1.7-3.3c-0.4-1.4-1.9-2.2-3.3-1.7c-0.7,0.2-1.5-0.2-1.8-0.9c-0.2-0.7,0.2-1.5,0.9-1.8
						c2.9-0.9,5.9,0.7,6.8,3.6C548.1,27,546.5,30.1,543.6,31L543.6,31z"/>
				</g>
			</g>
			<g>
				<g>
					<path class="st8" d="M538.8,15.6c-0.7,0.2-1.5-0.2-1.8-0.9l-0.8-2.4c-0.2-0.7,0.2-1.5,0.9-1.8c0.7-0.2,1.5,0.2,1.8,0.9l0.8,2.4
						C540,14.5,539.6,15.3,538.8,15.6z"/>
				</g>
			</g>
			<g>
				<g>
					<path class="st8" d="M544.3,33.3c-0.7,0.2-1.5-0.2-1.8-0.9l-0.7-2.3c-0.2-0.7,0.2-1.5,0.9-1.8c0.7-0.2,1.5,0.2,1.8,0.9l0.7,2.3
						C545.5,32.2,545.1,33,544.3,33.3z"/>
				</g>
			</g>
		</g>
	</g>
	<g>
		<g>
			<g>
				<path class="st16" d="M334.7,130.6l-67.9,39.7c-2,1.2-4.6,0.5-5.8-1.5l-34.3-58.6l75.2-44l34.3,58.6
					C337.4,126.9,336.7,129.4,334.7,130.6z"/>
			</g>
			<g>
				<path class="st17" d="M336.2,124.9l-16.1-27.5l-8.9,5.2l5.8,10c0.6,1,0.2,2.3-0.8,2.9l-23.9,14l11.3,19.4l30.9-18.1
					C336.7,129.4,337.4,126.9,336.2,124.9z"/>
			</g>
			<g>
				<g>
					<g>
						<path class="st18" d="M316.3,115.4l-53.9,31.5c-1,0.6-2.3,0.2-2.9-0.8l-17-29.1c-0.6-1-0.2-2.3,0.8-2.9l53.9-31.5
							c1-0.6,2.3-0.2,2.9,0.8l17,29.1C317.7,113.5,317.3,114.8,316.3,115.4z"/>
					</g>
				</g>
			</g>
			<g>
				<g>
					<g>
						<path class="st12" d="M263.5,143.8l-17-29.1c-0.6-1-0.2-2.3,0.8-2.9l-3.9,2.3c-1,0.6-1.3,1.9-0.8,2.9l17,29.1
							c0.6,1,1.9,1.3,2.9,0.8l3.9-2.3C265.3,145.2,264.1,144.8,263.5,143.8z"/>
					</g>
				</g>
			</g>
			<g>
				<path class="st17" d="M265.8,166.1l-34.3-58.6l-4.8,2.8l34.3,58.6c1.2,2,3.7,2.7,5.8,1.5l4.8-2.8
					C269.5,168.7,266.9,168.1,265.8,166.1z"/>
			</g>
			<g>
				<g>
					<g>
						<path class="st19" d="M292.1,57.8l-67.9,39.7c-2,1.2-2.7,3.7-1.5,5.8l5.4,9.2l75.2-44l-5.4-9.2
							C296.7,57.3,294.1,56.6,292.1,57.8z"/>
					</g>
				</g>
			</g>
			<g>
				<g>
					<g>
						<path class="st20" d="M228.9,94.8l-4.8,2.8c-2,1.2-2.7,3.7-1.5,5.8l5.4,9.2l4.8-2.8l-5.4-9.2C226.3,98.5,226.9,96,228.9,94.8z
							"/>
					</g>
				</g>
			</g>
			<g>
				<g>
					<g>
						<path class="st12" d="M289.8,124.8l2.7,4.5l23.9-14c1-0.6,1.3-1.9,0.8-2.9l-5.8-10l-18.4,10.8
							C288.8,115.6,287.5,120.8,289.8,124.8z"/>
					</g>
				</g>
			</g>
			<g>
				<g>
					<g>
						<path class="st18" d="M286.1,150.2l-3.6-6.2c-0.4-0.7,0.1-1.5,0.8-1.6l10.1-0.7l-5.5,8.5C287.5,150.9,286.5,150.9,286.1,150.2
							L286.1,150.2z"/>
					</g>
				</g>
			</g>
			<g>
				<path class="st16" d="M280.1,124.4l7.8-13.3c0.4-0.7-0.1-1.6-0.9-1.6l-15.4,0.3c-0.8,0-1.3,0.9-0.9,1.6l7.6,13
					C278.7,125.1,279.7,125.1,280.1,124.4L280.1,124.4z"/>
			</g>
			<g>
				<g>
					<path class="st21" d="M360.8,138.7l-39.5,23.1c-1.5,0.9-3.4,0.4-4.3-1.1l-22.6-38.6c-0.9-1.5-0.4-3.4,1.1-4.3L335,94.7
						c1.5-0.9,3.4-0.4,4.3,1.1l22.6,38.6C362.8,135.9,362.3,137.8,360.8,138.7z"/>
				</g>
			</g>
			<g>
				<g>
					<path class="st22" d="M320.8,158.4l-22.6-38.6c-0.9-1.5-0.4-3.4,1.1-4.3l-3.9,2.3c-1.5,0.9-2,2.8-1.1,4.3l22.6,38.6
						c0.9,1.5,2.8,2,4.3,1.1l3.9-2.3C323.6,160.4,321.7,159.9,320.8,158.4z"/>
				</g>
			</g>
			<g>
				<g>
					<g>
						<path class="st18" d="M344.5,104.8l-8.9,5.2c-1.5,0.9-3.4,0.4-4.3-1.1l-5.2-8.9l8.9-5.2c1.5-0.9,3.4-0.4,4.3,1.1L344.5,104.8z
							"/>
					</g>
				</g>
			</g>
		</g>
		<g>
			<path class="st8" d="M301.3,148.3L265.9,169c-1.3,0.7-2.9,0.3-3.6-0.9l-14.9-25.5c-0.4-0.8-1.4-1-2.2-0.6s-1,1.4-0.6,2.2
				l14.9,25.5c1.6,2.8,5.2,3.7,7.9,2.1l35.3-20.7c0.8-0.4,1-1.4,0.6-2.2C303,148.1,302,147.9,301.3,148.3z"/>
			<path class="st8" d="M242.5,137.3c0.8-0.4,1-1.4,0.6-2.2l-12.9-22l52-30.4c0.8-0.4,1-1.4,0.6-2.2c-0.4-0.8-1.4-1-2.2-0.6
				l-52,30.4l-4.6-7.9c-0.7-1.3-0.3-2.9,0.9-3.6l67.9-39.7c1.3-0.7,2.9-0.3,3.6,0.9l4.6,7.9l-13.6,8c-0.8,0.4-1,1.4-0.6,2.2
				c0.4,0.8,1.4,1,2.2,0.6l13.6-8l15,25.7c0.4,0.8,1.4,1,2.2,0.6c0.8-0.4,1-1.4,0.6-2.2l-21.2-36.3c-1.6-2.8-5.2-3.7-7.9-2.1
				l-67.9,39.7c-2.8,1.6-3.7,5.2-2.1,7.9l19.1,32.6C240.8,137.5,241.8,137.7,242.5,137.3L242.5,137.3z"/>
			<path class="st8" d="M230.6,101.2c-0.8,0.4-1,1.4-0.6,2.2s1.4,1,2.2,0.6l1.4-0.8c0.8-0.4,1-1.4,0.6-2.2s-1.4-1-2.2-0.6
				L230.6,101.2z"/>
			<path class="st8" d="M237.4,97.2c-0.8,0.4-1,1.4-0.6,2.2c0.4,0.8,1.4,1,2.2,0.6l1.4-0.8c0.8-0.4,1-1.4,0.6-2.2
				c-0.4-0.8-1.4-1-2.2-0.6L237.4,97.2z"/>
			<path class="st8" d="M244.2,93.2c-0.8,0.4-1,1.4-0.6,2.2s1.4,1,2.2,0.6l1.4-0.8c0.8-0.4,1-1.4,0.6-2.2s-1.4-1-2.2-0.6L244.2,93.2
				z"/>
			<g>
				<path class="st8" d="M287,151.2c-0.5,0-1-0.3-1.3-0.8l-1.6-2.7l-5.7,3.3c-0.1,0-0.2,0.1-0.2,0.1c-0.2,0-0.3-0.1-0.4-0.2
					c-0.1-0.1-0.1-0.3,0-0.4c0-0.1,0.1-0.2,0.2-0.3l5.7-3.3l-1.6-2.7c-0.3-0.5-0.3-1,0-1.5c0.2-0.5,0.7-0.8,1.2-0.8l10-0.6l3.4-2
					c0.1,0,0.2-0.1,0.2-0.1c0.2,0,0.3,0.1,0.4,0.2c0.1,0.1,0.1,0.3,0.1,0.4c0,0.1-0.1,0.2-0.2,0.3l-3.4,2l-5.5,8.4
					c-0.1,0.2-0.3,0.4-0.5,0.5C287.5,151.1,287.3,151.2,287,151.2L287,151.2z M282.4,142.9l4.6,7.8l5.5-8.5L282.4,142.9z"/>
				<path class="st8" d="M287,151.6L287,151.6c-0.7,0-1.3-0.4-1.7-1l-1.4-2.3l-5.3,3.1c-0.4,0.2-1,0.1-1.2-0.3
					c-0.1-0.2-0.2-0.4-0.1-0.7c0-0.1,0.1-0.4,0.4-0.5l5.3-3.1l-1.4-2.3c-0.3-0.6-0.4-1.3,0-1.9c0.3-0.6,0.9-1,1.6-1l9.9-0.6l3.3-1.9
					c0.4-0.2,1-0.1,1.2,0.3c0.1,0.2,0.2,0.4,0.1,0.7c-0.1,0.2-0.2,0.4-0.4,0.5l-3.3,1.9l-5.4,8.3c-0.2,0.3-0.4,0.5-0.6,0.6
					C287.7,151.5,287.3,151.6,287,151.6z M282.2,143.5c0,0.2,0.1,0.3,0.2,0.5l1.8,3.1l-6,3.5l0,0.1l6-3.5l1.8,3.1
					c0.1,0.2,0.2,0.3,0.4,0.4L282.2,143.5z M293.3,141.8l-5.7,8.8c0,0,0,0,0,0c0.1-0.1,0.3-0.2,0.4-0.4l5.6-8.5l3.4-2l0-0.1l-3.6,2
					l-10,0.6c-0.2,0-0.3,0.1-0.5,0.2L293.3,141.8z M283.1,143.3l3.9,6.7l4.7-7.2L283.1,143.3z"/>
			</g>
			<path class="st8" d="M268.1,160.8c0.8-0.4,1-1.4,0.6-2.2l-2.1-3.6c-0.4-0.8-1.4-1-2.2-0.6c-0.8,0.4-1,1.4-0.6,2.2l2.1,3.6
				C266.4,161,267.4,161.2,268.1,160.8z"/>
			<path class="st8" d="M274,155.5l-2.1-3.6c-0.4-0.8-1.4-1-2.2-0.6c-0.8,0.4-1,1.4-0.6,2.2l2.1,3.6c0.4,0.8,1.4,1,2.2,0.6
				S274.4,156.3,274,155.5z"/>
			<path class="st8" d="M287,107.9l-15.4,0.3c-0.9,0-1.8,0.5-2.2,1.3c-0.5,0.8-0.5,1.8,0,2.6l7.6,13c0.5,0.8,1.3,1.3,2.3,1.3
				c0.5,0,0.9-0.1,1.3-0.4c0.4-0.2,0.7-0.5,0.9-0.9l7.8-13.3c0.5-0.8,0.5-1.8,0-2.7C288.8,108.4,287.9,107.9,287,107.9L287,107.9z
				 M279.2,122.8l-6.7-11.5l13.6-0.3L279.2,122.8z"/>
			<path class="st8" d="M334.7,105c0,0-0.1,0-0.1,0c-0.2,0-0.2-0.2-0.3-0.2c0-0.1-0.1-0.2,0-0.4l0.5-1.7l-1.7-0.5
				c-0.2,0-0.3-0.2-0.3-0.2c0-0.1-0.1-0.2,0-0.4c0.1-0.2,0.2-0.4,0.5-0.4c0,0,0.1,0,0.1,0l1.7,0.5l0.5-1.7c0.1-0.2,0.2-0.4,0.5-0.4
				c0,0,0.1,0,0.1,0c0.2,0,0.2,0.2,0.3,0.2c0,0.1,0.1,0.2,0,0.4l-0.5,1.7l1.7,0.5c0.3,0.1,0.4,0.3,0.3,0.6c0,0.2-0.2,0.2-0.2,0.3
				c-0.1,0-0.2,0.1-0.2,0.1c0,0-0.1,0-0.1,0l-1.7-0.5l-0.5,1.7c0,0.2-0.2,0.3-0.2,0.3C334.9,105,334.8,105,334.7,105z"/>
			<path class="st8" d="M315.3,144.5c0.2,0,0.4-0.1,0.5-0.2c0.5-0.3,0.9-1,0.8-1.6l-0.4-2.1l4.5-2.7l1.7,1.4
				c0.7,0.5,1.7,0.4,2.2-0.2c0.5-0.7,0.4-1.7-0.2-2.2l-10.1-8.2c0,0,0,0,0,0c-0.6-0.5-1.4-0.5-2.1-0.1c0,0,0,0,0,0
				c-0.7,0.4-1,1.1-0.9,1.9c0,0,0,0,0,0l2.1,12.8C313.7,144.1,314.5,144.7,315.3,144.5L315.3,144.5z M315,133.3l3.1,2.5l-2.5,1.5
				L315,133.3z"/>
			<path class="st8" d="M327.4,135.7c0.2,0.3,0.5,0.5,0.9,0.6c0.4,0.1,0.8,0,1.2-0.2l0,0c0.1-0.1,2.2-1.3,3-1.8
				c3.1-1.9,3.8-6,1.6-9.7c-2.3-3.9-6-5.2-9.3-3.3l-2.9,1.7c-0.4,0.2-0.6,0.6-0.7,1c-0.1,0.4,0,0.8,0.2,1.2
				C321.3,125.3,327.3,135.6,327.4,135.7z M326.4,124.1c2.6-1.5,4.5,1.3,5,2.2c1.1,1.9,1.3,4.2-0.5,5.4c-0.4,0.2-1,0.6-1.6,1
				c-0.7-1.2-3.7-6.3-4.5-7.6L326.4,124.1z"/>
			<path class="st8" d="M343.3,124.6c-1,0.6-2.3,0.8-3.4,0.4c-0.8-0.3-1.7,0.2-2,1c-0.3,0.8,0.2,1.7,1,2c1.9,0.6,4.1,0.3,5.9-0.7
				c2.3-1.3,3.3-3.9,2.5-6.1c-0.6-1.7-2.4-3.2-5.7-2.6c-1.6,0.3-3.1,0.5-3.6,0.5c-0.4-0.1-0.6-0.4-0.6-0.5c-0.1-0.2-0.2-0.7,0.3-1.3
				c1.2-1.3,3.2-1,3.3-1c0.9,0.1,1.7-0.4,1.8-1.3c0.1-0.9-0.4-1.7-1.3-1.8c-0.2,0-3.7-0.6-6.1,2c-1.2,1.3-1.6,3.1-1,4.6
				c0.6,1.5,1.9,2.4,3.5,2.5c0.1,0,0.2,0,0.2,0c0.1,0,1.9-0.2,3.9-0.6c0.6-0.1,1.9-0.2,2.2,0.6C344.7,123,344.3,124,343.3,124.6
				L343.3,124.6z"/>
			<path class="st8" d="M334.2,93.3l-8.9,5.2l-10.8,6.3l-13-22.3c-1-1.8-3.3-2.3-5-1.3l-53.9,31.5c-1.8,1-2.3,3.3-1.3,5l17,29.1
				c1,1.8,3.3,2.3,5,1.3l33.2-19.4l19.1,32.7c1.3,2.3,4.2,3,6.5,1.7l39.5-23.1c2.3-1.3,3-4.2,1.7-6.5l-9.7-16.6
				c-0.4-0.8-1.4-1-2.2-0.6c-0.8,0.4-1,1.4-0.6,2.2l9.7,16.6c0.4,0.8,0.2,1.7-0.6,2.2l-39.5,23.1c-0.8,0.4-1.7,0.2-2.2-0.6
				l-22.6-38.6c-0.4-0.8-0.2-1.7,0.6-2.2l29.2-17.1l4.4,7.6c1.3,2.3,4.2,3,6.5,1.7l7.6-4.4l3,5.2c0.4,0.8,1.4,1,2.2,0.6
				s1-1.4,0.6-2.2l-3.8-6.5l-5.2-8.9C339.4,92.8,336.5,92,334.2,93.3z M293,122.9l1.9,3.2l-33.2,19.4c-0.3,0.1-0.6,0.1-0.7-0.2
				l-17-29.1c-0.1-0.3-0.1-0.6,0.2-0.7L298,84c0.3-0.1,0.6-0.1,0.7,0.2l13,22.3l-17.1,10C292.4,117.8,291.7,120.7,293,122.9z
				 M334.8,108.6c-0.8,0.4-1.7,0.2-2.2-0.6l-4.4-7.6l7.6-4.4c0.8-0.4,1.7-0.2,2.2,0.6l4.4,7.6L334.8,108.6z"/>
			<path class="st8" d="M349.6,128l-32.3,18.9c-0.8,0.4-1,1.4-0.6,2.2s1.4,1,2.2,0.6l32.3-18.9c0.8-0.4,1-1.4,0.6-2.2
				C351.4,127.8,350.4,127.6,349.6,128z"/>
			<path class="st8" d="M352.9,133.6l-32.3,18.9c-0.8,0.4-1,1.4-0.6,2.2c0.4,0.8,1.4,1,2.2,0.6l32.3-18.9c0.8-0.4,1-1.4,0.6-2.2
				C354.6,133.4,353.7,133.2,352.9,133.6z"/>
		</g>
	</g>
</g>
</svg>
