<?xml version="1.0" encoding="utf-8"?>
<!-- Generator: Adobe Illustrator 25.0.0, SVG Export Plug-In . SVG Version: 6.00 Build 0)  -->
<svg version="1.1" id="Layer_1" xmlns="http://www.w3.org/2000/svg" xmlns:xlink="http://www.w3.org/1999/xlink" x="0px" y="0px"
	 viewBox="0 0 152.9 150" style="enable-background:new 0 0 152.9 150;" xml:space="preserve">
<style type="text/css">
	.st0{fill-rule:evenodd;clip-rule:evenodd;fill:#FFE177;}
	.st1{fill-rule:evenodd;clip-rule:evenodd;fill:#FFD064;}
	.st2{fill-rule:evenodd;clip-rule:evenodd;fill:#ECEFF1;}
	.st3{fill-rule:evenodd;clip-rule:evenodd;fill:#D1D1D6;}
	.st4{fill-rule:evenodd;clip-rule:evenodd;fill:#8AC9FE;}
	.st5{fill-rule:evenodd;clip-rule:evenodd;fill:#ECBA78;}
	.st6{fill-rule:evenodd;clip-rule:evenodd;fill:#837683;}
	.st7{fill-rule:evenodd;clip-rule:evenodd;fill:#685E68;}
	.st8{fill-rule:evenodd;clip-rule:evenodd;fill:#E3A76F;}
	.st9{fill-rule:evenodd;clip-rule:evenodd;fill:#C48958;}
	.st10{fill-rule:evenodd;clip-rule:evenodd;fill:#35414D;}
</style>
<g>
	<g>
		<g>
			<g>
				<path class="st0" d="M79.6,13.1c5.7,1.4,11.1,3.6,16.1,6.7l10.4-4.6l12.3,12.3l-4.6,10.4c3.1,5,5.3,10.4,6.7,16.1l10.7,4.1v17.4
					l-10.7,4.1c-1.4,5.7-3.6,11.1-6.7,16.1l4.6,10.4l-12.3,12.3l-10.4-4.6c-5,3.1-10.4,5.3-16.1,6.7l-4.1,10.7H58.1L54,120.5
					c-5.7-1.4-11.1-3.6-16.1-6.7l-10.4,4.6l-12.3-12.3l4.6-10.4c-3.1-5-5.3-10.4-6.7-16.1L2.5,75.5V58.1L13.1,54
					c1.4-5.7,3.6-11.1,6.7-16.1l-4.6-10.4l12.3-12.3l10.4,4.6c5-3.1,10.4-5.3,16.1-6.7l4.1-10.7h17.4L79.6,13.1z"/>
			</g>
			<g>
				<path class="st1" d="M37.9,113.8l-10.4,4.6l-1.6-1.6l9.8-4.3C36.4,113,37.2,113.4,37.9,113.8z M79.6,13.1
					c5.6,1.3,11,3.5,15.9,6.5c0.1,0,0.1,0.1,0.2,0.1l-3,1.3c-5-3.1-12.7-6.6-18.4-8L70.3,2.5h5.3L79.6,13.1z M25.9,16.8l1.6-1.6
					l10.4,4.6c-0.8,0.4-1.5,0.9-2.3,1.3L25.9,16.8z M102.5,16.8l3.6-1.6l12.3,12.3l-4.6,10.4c3.1,5,5.3,10.4,6.7,16.1l10.7,4.1v17.4
					l-10.7,4.1c-1.4,5.7-3.6,11.1-6.7,16.1l4.6,10.4l-12.3,12.3l-3.6-1.6l10.7-10.7l-4.6-10.4c3.1-5,5.3-10.4,6.7-16.1l10.7-4.1
					V58.1L115.2,54c-1.4-5.7-3.6-11.1-6.7-16.1l4.6-10.4L102.5,16.8z M95.5,114c-4.9,3-10.3,5.2-15.9,6.5l-4.1,10.7h-5.3l4.1-10.7
					c5.7-1.4,13.4-4.9,18.4-8l3,1.3C95.6,113.9,95.6,113.9,95.5,114z"/>
			</g>
			<g>
				<ellipse class="st2" cx="66.8" cy="66.8" rx="37.4" ry="37.4"/>
			</g>
			<g>
				<path class="st3" d="M66.8,29.4c0.9,0,1.8,0,2.6,0.1C50,30.8,34.7,47,34.7,66.8c0,19.8,15.3,36,34.8,37.3
					c-0.9,0.1-1.7,0.1-2.6,0.1c-20.7,0-37.4-16.7-37.4-37.4S46.2,29.4,66.8,29.4z"/>
			</g>
		</g>
		<g>
			<path class="st4" d="M44.2,62.1c2.7-2.7,7-2.7,9.7,0l7,7l18.8-18.8c2.7-2.7,7-2.7,9.7,0v0c2.7,2.7,2.7,7,0,9.7L65.9,83.4
				c-3.4,3.4-8,2-11-1L44.2,71.8C41.6,69.1,41.6,64.7,44.2,62.1L44.2,62.1z"/>
		</g>
		<g>
			<g>
				<path class="st5" d="M146.9,110.3v31.4c0,3.2-2.6,5.9-5.9,5.9H79.7c-3.2,0-5.9-2.6-5.9-5.9v-31.4L146.9,110.3z"/>
			</g>
			<g>
				<path class="st6" d="M100.2,92.6l-5.6,0v-7.7c0-3.5,2.8-6.3,6.3-6.3h18.8c3.5,0,6.3,2.8,6.3,6.3v7.7l-5.6,0v-7.7
					c0-0.4-0.3-0.7-0.7-0.7H101c-0.4,0-0.7,0.3-0.7,0.7L100.2,92.6L100.2,92.6z"/>
			</g>
			<g>
				<path class="st7" d="M100.2,92.6l-5.6,0v0h3.2v-7.7c0-0.4,0.3-0.7,0.7-0.7h2.3c-0.4,0-0.7,0.3-0.7,0.7L100.2,92.6z M117.4,78.6
					h2.3c3.5,0,6.3,2.8,6.3,6.3v7.7l-2.3,0v-7.7C123.7,81.5,120.8,78.6,117.4,78.6z"/>
			</g>
			<g>
				<path class="st8" d="M146.9,110.3v31.4c0,3.2-2.6,5.9-5.9,5.9h-4.7c3.2,0,5.9-2.6,5.9-5.9v-31.4H146.9z"/>
			</g>
			<g>
				<path class="st8" d="M75.6,116.6c-0.6-0.4-1.3-0.8-1.8-1.3c-2.1-1.7-3.6-3.9-3.6-6.7V94.2c0-1.7,1.4-3,3-3h74.2c1.7,0,3,1.4,3,3
					v14.3c0,2.8-1.5,5-3.6,6.7c-0.6,0.5-1.2,0.9-1.8,1.3C132.8,124.3,87.8,124.3,75.6,116.6L75.6,116.6z"/>
			</g>
			<g>
				<path class="st9" d="M131.3,91.2H89.4v9.8c0,2.1,1.7,3.8,3.8,3.8h34.4c2.1,0,3.8-1.7,3.8-3.8L131.3,91.2z"/>
			</g>
			<g>
				<path class="st9" d="M142.2,91.2h5.2c1.7,0,3,1.4,3,3v14.3c0,2.8-1.5,5-3.6,6.7c-0.6,0.5-1.2,0.9-1.8,1.3
					c-0.8,0.5-1.8,1-2.8,1.4V91.2z"/>
			</g>
			<g>
				<path class="st6" d="M117.7,123.3c0,4.1-3.3,7.4-7.4,7.4s-7.4-3.3-7.4-7.4c0-4.1,3.3-7.4,7.4-7.4
					C114.4,115.9,117.7,119.2,117.7,123.3z"/>
			</g>
			<g>
				<path class="st7" d="M117.7,123.3c0,4.1-3.3,7.4-7.4,7.4c-0.4,0-0.8,0-1.2-0.1c3.5-0.6,6.2-3.6,6.2-7.3c0-3.7-2.7-6.7-6.2-7.3
					c0.4-0.1,0.8-0.1,1.2-0.1C114.4,115.9,117.7,119.2,117.7,123.3z"/>
			</g>
		</g>
	</g>
	<g>
		<path class="st10" d="M141,145.1H79.7c-1.9,0-3.4-1.5-3.4-3.4v-21.9c6.6,3.1,17.1,4.3,24.3,4.8c0.6,4.9,4.7,8.6,9.8,8.6
			c5,0,9.2-3.8,9.8-8.6c6.4-0.4,17.5-1.6,24.3-4.8v21.9C144.4,143.5,142.9,145.1,141,145.1L141,145.1z M59.8,128.7h11.5v-12.3
			c-2.4-2.3-3.6-4.9-3.6-7.8v-0.4c-0.3,0-0.6,0-0.9,0c-22.8,0-41.4-18.6-41.4-41.4S44,25.5,66.8,25.5c22.8,0,41.4,18.6,41.4,41.4
			c0,3.2-0.4,6.3-1.1,9.4h12.6c0.7,0,1.5,0.1,2.2,0.3l6.8-2.6v-14l-9.1-3.5c-0.8-0.3-1.3-0.9-1.5-1.7c-1.3-5.4-3.4-10.6-6.4-15.4
			c-0.4-0.7-0.5-1.6-0.1-2.3l3.9-8.9l-9.9-9.9l-8.9,4c-0.7,0.3-1.6,0.3-2.3-0.2c-4.8-2.9-9.9-5.1-15.4-6.4c-0.8-0.2-1.4-0.8-1.7-1.5
			l-3.5-9.1h-14L56.3,14c-0.3,0.8-0.9,1.3-1.7,1.5C49.2,16.8,44,19,39.2,21.9c-0.7,0.4-1.6,0.5-2.3,0.2l-8.9-4L18.1,28l4,8.9
			c0.3,0.7,0.3,1.6-0.2,2.3c-2.9,4.8-5.1,9.9-6.4,15.4c-0.2,0.8-0.8,1.4-1.5,1.7l-9.1,3.5v14l9.1,3.5c0.8,0.3,1.3,0.9,1.5,1.7
			c1.3,5.4,3.4,10.6,6.4,15.4c0.4,0.7,0.5,1.6,0.1,2.3l-3.9,8.9l9.9,9.9l8.9-4c0.7-0.3,1.6-0.3,2.3,0.2c4.8,2.9,9.9,5.1,15.4,6.4
			c0.8,0.2,1.4,0.8,1.7,1.5L59.8,128.7z M122.9,88.7v-3.8c0-1.8-1.4-3.2-3.2-3.2H101c-1.8,0-3.2,1.4-3.2,3.2v3.8h-0.6v-3.8
			c0-2.1,1.7-3.8,3.8-3.8h18.8c2.1,0,3.8,1.7,3.8,3.8v3.8H122.9z M128.8,93.7v7.3c0,0.7-0.6,1.3-1.3,1.3H93.2
			c-0.7,0-1.3-0.6-1.3-1.3v-7.3H128.8z M118,88.7h-15.3v-2.1H118V88.7z M67.8,94.2v9c-0.3,0-0.6,0-0.9,0
			c-20.1,0-36.4-16.3-36.4-36.4s16.3-36.4,36.4-36.4c20.1,0,36.4,16.3,36.4,36.4c0,3.2-0.4,6.3-1.2,9.4H101c-4.8,0-8.7,3.9-8.7,8.8
			v3.8h-19C70.2,88.7,67.8,91.2,67.8,94.2L67.8,94.2z M115.3,123.3c0-2.7-2.2-4.9-4.9-4.9c-2.7,0-4.9,2.2-4.9,4.9
			c0,2.7,2.2,4.9,4.9,4.9C113.1,128.2,115.3,126,115.3,123.3z M148,94.2v14.3c0,1.8-0.9,3.3-2.7,4.8c-0.5,0.4-1,0.8-1.6,1.1
			c-4,2.6-13,4.4-24.2,5.1c-1.5-3.6-5-6.2-9.1-6.2c-4.1,0-7.7,2.6-9.1,6.2C90,118.9,81,117.1,77,114.5c-0.6-0.4-1.1-0.8-1.6-1.1
			c-1.8-1.5-2.7-3-2.7-4.8V94.2c0-0.3,0.2-0.5,0.6-0.5h13.7v7.3c0,3.4,2.8,6.2,6.2,6.2h34.3c3.4,0,6.2-2.8,6.2-6.2v-7.3h13.7
			C147.7,93.7,148,93.9,148,94.2L148,94.2z M147.5,88.7h-19v-3.8c0-1.9-0.6-3.7-1.6-5.1l5.2-2c1-0.4,1.6-1.3,1.6-2.3V58.1
			c0-1-0.6-1.9-1.6-2.3l-9.5-3.6c-1.3-5.1-3.3-9.9-6-14.4l4.1-9.3c0.4-0.9,0.2-2-0.5-2.7l-12.3-12.3c-0.7-0.7-1.8-0.9-2.7-0.5
			L95.9,17c-4.5-2.6-9.4-4.6-14.4-6l-3.6-9.5c-0.4-1-1.3-1.6-2.3-1.6H58.1c-1,0-1.9,0.6-2.3,1.6L52.2,11c-5.1,1.3-9.9,3.3-14.4,6
			l-9.3-4.1c-0.9-0.4-2-0.2-2.7,0.5L13.4,25.7c-0.7,0.7-0.9,1.8-0.5,2.7l4.1,9.3c-2.6,4.5-4.6,9.4-6,14.4l-9.5,3.6
			C0.6,56.2,0,57.1,0,58.1v17.4c0,1,0.6,1.9,1.6,2.3l9.5,3.6c1.3,5.1,3.3,9.9,6,14.4l-4.1,9.3c-0.4,0.9-0.2,2,0.5,2.7l12.3,12.3
			c0.7,0.7,1.8,0.9,2.7,0.5l9.3-4.1c4.5,2.6,9.3,4.6,14.4,6l3.6,9.5c0.4,1,1.3,1.6,2.3,1.6h13.2v8c0,4.6,3.7,8.3,8.3,8.3H141
			c4.6,0,8.3-3.7,8.3-8.3v-25.3c2.4-2.3,3.6-4.9,3.6-7.8V94.2C152.9,91.2,150.5,88.7,147.5,88.7L147.5,88.7z M87.6,58.2L64.1,81.7
			c-3.1,3.2-7.1-0.6-7.5-1L46,70c-1.7-1.7-1.7-4.5,0-6.2c0.8-0.8,1.9-1.3,3.1-1.3c1.2,0,2.3,0.5,3.1,1.3l7,7c1,1,2.5,1,3.5,0
			l18.8-18.8c0.8-0.8,1.9-1.3,3.1-1.3c1.2,0,2.3,0.5,3.1,1.3c0.8,0.8,1.3,1.9,1.3,3.1C88.9,56.2,88.5,57.3,87.6,58.2z M91.1,48.5
			c3.6,3.6,3.6,9.6,0,13.2L67.6,85.2c-1.8,1.8-4,2.7-6.4,2.7c-2.7,0-5.6-1.2-8.1-3.7L42.5,73.5c-3.6-3.6-3.6-9.6,0-13.2
			c1.8-1.8,4.1-2.7,6.6-2.7s4.8,1,6.6,2.7l5.2,5.2L78,48.5C81.6,44.8,87.5,44.8,91.1,48.5L91.1,48.5z"/>
	</g>
</g>
</svg>
