<?xml version="1.0" encoding="utf-8"?>
<!-- Generator: Adobe Illustrator 25.0.0, SVG Export Plug-In . SVG Version: 6.00 Build 0)  -->
<svg version="1.1" id="Layer_1" xmlns="http://www.w3.org/2000/svg" xmlns:xlink="http://www.w3.org/1999/xlink" x="0px" y="0px"
	 viewBox="0 0 152 150" style="enable-background:new 0 0 152 150;" xml:space="preserve">
<style type="text/css">
	.st0{fill:#E0E0E0;}
	.st1{fill:#EEEEEE;}
	.st2{fill:#FFC107;}
	.st3{fill:#FFB300;}
	.st4{fill:#FFD54F;}
	.st5{fill:#FFFFFF;}
	.st6{fill:#35414D;}
</style>
<g id="Filled_outline">
	<g id="Color_1_">
		<g>
			<path class="st0" d="M28,77.9h0.8V26.1c0-1.9,0.8-3.7,2.2-5l7-6.6L8.6,31.1c-3.4,1.9-4.6,6.2-2.6,9.6c0,0,0,0,0,0L28,77.9z"/>
		</g>
		<g>
			<path class="st0" d="M124,77.9l22-37.3c2-3.4,0.8-7.6-2.6-9.6c0,0,0,0,0,0l-20.2-11.4v58.3H124z"/>
		</g>
		<g>
			<path class="st1" d="M123.2,77.9V9c0-3.9-3.2-7-7.2-7H54c-1.9,0-3.7,0.7-5,2L31,21.1c-1.4,1.3-2.2,3.1-2.2,5v51.8H123.2z"/>
		</g>
		<g>
			<path class="st0" d="M45.5,25.4c4,0,7.2-3.1,7.2-7V2.1C51.3,2.4,50,3,49,4L31,21.1c-1.2,1.1-1.9,2.6-2.1,4.3H45.5z"/>
		</g>
		<g>
			<path class="st2" d="M15.1,81.4v56.1c0,5.8,4.8,10.5,10.8,10.5h100.4c5.9,0,10.8-4.7,10.8-10.5V81.4c0-1.9-1.6-3.5-3.6-3.5H18.6
				C16.7,77.9,15.1,79.5,15.1,81.4z"/>
		</g>
		<g>
			<path class="st3" d="M95.1,77.9V148h31.1c5.9,0,10.8-4.7,10.8-10.5V81.4c0-1.9-1.6-3.5-3.6-3.5H95.1z"/>
		</g>
		<g>
			<path class="st4" d="M2.9,92l10-11.6c1.4-1.6,3.4-2.5,5.5-2.5h76.7L81.2,94c-2,2.4-5.1,3.7-8.2,3.7H5.6c-2,0-3.6-1.6-3.6-3.5
				C2,93.4,2.3,92.6,2.9,92L2.9,92z"/>
		</g>
		<g>
			<path class="st2" d="M149.1,92l-10-11.6c-1.4-1.6-3.4-2.5-5.5-2.5H95.1L109,94c2,2.4,5.1,3.7,8.2,3.7h29.1c2,0,3.6-1.6,3.6-3.5
				C150,93.4,149.7,92.6,149.1,92L149.1,92z"/>
		</g>
		<g>
			<path class="st5" d="M27.6,128.1h15.5c1,0,1.8,0.8,1.8,1.8v5.8c0,1-0.8,1.8-1.8,1.8H27.6c-1,0-1.8-0.8-1.8-1.8v-5.8
				C25.8,128.9,26.6,128.1,27.6,128.1z"/>
		</g>
	</g>
	<g id="Outline">
		<g>
			<path class="st6" d="M110.7,38.8H41.3c-1,0-1.8,0.8-1.8,1.8s0.8,1.8,1.8,1.8h69.3c1,0,1.8-0.8,1.8-1.8S111.6,38.8,110.7,38.8z"/>
			<path class="st6" d="M110.7,42.5H41.3c-1.1,0-2-0.9-2-2c0-1.1,0.9-2,2-2h69.3c1.1,0,2,0.9,2,2C112.7,41.6,111.8,42.5,110.7,42.5z
				 M41.3,39c-0.9,0-1.5,0.7-1.5,1.5c0,0.8,0.7,1.5,1.5,1.5h69.3c0.9,0,1.5-0.7,1.5-1.5c0-0.8-0.7-1.5-1.5-1.5H41.3z"/>
		</g>
		<g>
			<path class="st6" d="M110.7,58.6H41.3c-1,0-1.8,0.8-1.8,1.8s0.8,1.8,1.8,1.8h69.3c1,0,1.8-0.8,1.8-1.8S111.6,58.6,110.7,58.6z"/>
			<path class="st6" d="M110.7,62.4H41.3c-1.1,0-2-0.9-2-2c0-1.1,0.9-2,2-2h69.3c1.1,0,2,0.9,2,2C112.7,61.5,111.8,62.4,110.7,62.4z
				 M41.3,58.9c-0.9,0-1.5,0.7-1.5,1.5c0,0.8,0.7,1.5,1.5,1.5h69.3c0.9,0,1.5-0.7,1.5-1.5c0-0.8-0.7-1.5-1.5-1.5H41.3z"/>
		</g>
		<g>
			<path class="st6" d="M110.7,18.9H73c-1,0-1.8,0.8-1.8,1.8s0.8,1.8,1.8,1.8h37.6c1,0,1.8-0.8,1.8-1.8S111.6,18.9,110.7,18.9z"/>
			<path class="st6" d="M110.7,22.7H73c-1.1,0-2-0.9-2-2s0.9-2,2-2h37.6c1.1,0,2,0.9,2,2S111.8,22.7,110.7,22.7z M73,19.2
				c-0.9,0-1.5,0.7-1.5,1.5c0,0.8,0.7,1.5,1.5,1.5h37.6c0.9,0,1.5-0.7,1.5-1.5c0-0.8-0.7-1.5-1.5-1.5H73z"/>
		</g>
		<g>
			<path class="st6" d="M5.6,99.5h7.6v38c0,6.8,5.6,12.3,12.5,12.3h100.4c6.9,0,12.5-5.5,12.5-12.3v-38h7.6c3,0,5.4-2.4,5.4-5.3
				c0-1.2-0.4-2.4-1.3-3.4l-10-11.6c-1.7-2-4.2-3.1-6.8-3.1h-6.5l20.5-34.7c2.5-4.2,1-9.5-3.3-12L125,18.6V9c0-4.8-4-8.8-9-8.8H54
				c-2.3,0-4.6,0.9-6.2,2.5L36.9,13.1L7.7,29.5c-4.3,2.4-5.7,7.8-3.3,12l20.5,34.7h-6.5c-2.6,0-5.1,1.1-6.8,3.1l-10,11.6
				c-1.9,2.2-1.6,5.5,0.6,7.4C3.1,99.1,4.4,99.5,5.6,99.5L5.6,99.5z M93.3,146.2H25.8c-4.9,0-9-3.9-9-8.8v-38H73
				c3.7,0,7.2-1.6,9.6-4.4l10.8-12.5V146.2z M135.1,137.5c0,4.8-4,8.8-9,8.8H96.9V82.7l10.8,12.5c2.4,2.8,5.9,4.4,9.6,4.4h17.9
				V137.5z M125,22.7l17.5,9.9c2.6,1.5,3.4,4.7,2,7.2l-19.5,33V22.7z M133.6,79.7c1.6,0,3.1,0.7,4.1,1.9l10,11.6
				c0.6,0.7,0.5,1.8-0.2,2.5c-0.3,0.3-0.7,0.4-1.2,0.4h-29.1c-2.6,0-5.1-1.1-6.8-3.1L99,79.7H133.6z M32.2,22.4l18-17.1
				c0.2-0.2,0.4-0.4,0.7-0.5v13.6c0,2.9-2.4,5.3-5.4,5.3H31.3C31.5,23.1,31.8,22.7,32.2,22.4z M30.6,27.1h14.9c4.9,0,9-3.9,9-8.8
				V3.8H116c3,0,5.4,2.4,5.4,5.3v67.2H30.6L30.6,27.1z M7.5,39.8c-1.5-2.5-0.6-5.7,2-7.2L28,22.1c-0.7,1.2-1,2.6-1,4v46.7L7.5,39.8z
				 M4.3,93.1l10-11.6c1-1.2,2.5-1.9,4.1-1.9h72.9L79.8,92.9c-1.7,2-4.2,3.1-6.8,3.1H5.6c-1,0-1.8-0.8-1.8-1.8
				C3.8,93.9,4,93.5,4.3,93.1L4.3,93.1z"/>
			<path class="st6" d="M126.2,150H25.8c-7,0-12.8-5.6-12.8-12.5V99.8H5.6c-1.3,0-2.6-0.5-3.6-1.3c-1.2-1-1.9-2.3-2-3.8
				c-0.1-1.5,0.3-2.9,1.3-4l10-11.6c1.8-2,4.3-3.2,7-3.2c0,0,0,0,0,0h6L4.2,41.6c-1.2-2.1-1.6-4.5-0.9-6.8c0.6-2.3,2.2-4.3,4.3-5.5
				l29.2-16.5L47.6,2.5C49.3,0.9,51.6,0,54,0c0,0,0,0,0,0h62c5.1,0,9.2,4,9.2,9v9.5l19.2,10.8c2.1,1.2,3.7,3.2,4.3,5.5
				c0.6,2.3,0.3,4.7-0.9,6.8l-20.2,34.3h6c0,0,0,0,0,0c2.7,0,5.3,1.2,7,3.2l10,11.6c0.9,1,1.3,2.3,1.3,3.5c0,1.5-0.6,2.9-1.6,3.9
				c-1.1,1-2.5,1.6-4,1.6H139v37.7C139,144.4,133.2,150,126.2,150z M18.4,76.4c-2.6,0-5,1.1-6.7,3L1.7,91c-0.9,1-1.3,2.3-1.2,3.6
				c0.1,1.3,0.8,2.5,1.8,3.4c0.9,0.8,2.1,1.2,3.3,1.2h7.9v38.2c0,6.6,5.5,12,12.3,12h100.4c6.8,0,12.3-5.4,12.3-12V99.3h7.9
				c1.4,0,2.7-0.5,3.6-1.5c1-0.9,1.5-2.2,1.5-3.5c0-1.2-0.4-2.3-1.2-3.2l-10-11.6c-1.7-1.9-4.1-3-6.7-3c0,0,0,0,0,0h-6.9l20.7-35
				c1.2-2,1.5-4.2,0.9-6.4c-0.6-2.2-2-4.1-4.1-5.2l-19.5-11V9c0-4.7-3.9-8.5-8.7-8.5H54c0,0,0,0,0,0c-2.3,0-4.4,0.9-6.1,2.4L37,13.2
				L7.8,29.8c-2,1.1-3.5,3-4.1,5.2c-0.6,2.2-0.3,4.5,0.9,6.4l20.7,35H18.4C18.4,76.4,18.4,76.4,18.4,76.4z M126.2,146.5H96.7V82
				l11.2,13c2.3,2.7,5.8,4.3,9.4,4.3c0,0,0,0,0,0h18.1v38.2C135.4,142.4,131.3,146.5,126.2,146.5z M97.2,146h29
				c4.8,0,8.7-3.8,8.7-8.5V99.8h-17.6c0,0,0,0,0,0c-3.8,0-7.3-1.6-9.8-4.4l-10.3-12V146z M93.6,146.5H25.8c-5.1,0-9.2-4-9.2-9V99.3
				H73c0,0,0,0,0,0c3.6,0,7.1-1.6,9.4-4.3l11.2-13V146.5z M17.1,99.8v37.7c0,4.7,3.9,8.5,8.7,8.5h67.3V83.4l-10.3,12
				c-2.4,2.8-6,4.4-9.8,4.4c0,0,0,0,0,0H17.1z M117.3,96.3c-2.7,0-5.3-1.2-7-3.2L98.4,79.4h35.2c1.7,0,3.2,0.7,4.3,2l10,11.6
				c0.4,0.4,0.5,0.9,0.5,1.5c0,0.5-0.3,1-0.7,1.4c-0.4,0.3-0.8,0.5-1.3,0.5H117.3C117.3,96.3,117.3,96.3,117.3,96.3z M99.5,79.9
				l11.1,12.8c1.7,1.9,4.1,3,6.6,3c0,0,0,0,0,0h29.1c0.4,0,0.7-0.1,1-0.4c0.3-0.3,0.5-0.6,0.5-1c0-0.4-0.1-0.8-0.4-1.1l-10-11.6
				c-1-1.1-2.4-1.8-3.9-1.8H99.5z M73,96.3C73,96.3,73,96.3,73,96.3H5.6c0,0,0,0,0,0c-0.5,0-1.1-0.2-1.4-0.6
				c-0.4-0.4-0.6-0.9-0.6-1.4c0-0.5,0.2-0.9,0.5-1.3l10-11.6c1.1-1.2,2.6-2,4.3-2h73.4L80,93.1C78.3,95.1,75.7,96.3,73,96.3z
				 M5.6,95.8H73c0,0,0,0,0,0c2.6,0,5-1.1,6.6-3l11.1-12.8H18.4c-1.5,0-2.9,0.6-3.9,1.8L4.4,93.4c-0.2,0.3-0.3,0.6-0.3,0.9
				c0,0.4,0.2,0.8,0.4,1.1C4.8,95.6,5.2,95.8,5.6,95.8C5.6,95.8,5.6,95.8,5.6,95.8z M121.7,76.4H30.3V26.9h15.2
				c4.8,0,8.7-3.8,8.7-8.5V3.5H116c3.1,0,5.6,2.5,5.6,5.5V76.4z M30.8,75.9h90.3V9c0-2.8-2.3-5-5.1-5H54.7v14.4c0,5-4.1,9-9.2,9
				H30.8V75.9z M27.3,73.7l-20-33.8c-0.7-1.3-0.9-2.7-0.6-4.1c0.4-1.4,1.3-2.6,2.6-3.4l19.3-10.9l-0.4,0.8c-0.6,1.2-1,2.6-1,3.9
				V73.7z M7.7,39.6l19.1,32.3V26.1c0-1.2,0.2-2.3,0.7-3.4L9.6,32.8c-1.2,0.7-2,1.8-2.4,3.1C6.8,37.1,7,38.5,7.7,39.6L7.7,39.6z
				 M124.7,73.7V22.2l17.9,10.1c1.3,0.7,2.2,1.9,2.6,3.4c0.4,1.4,0.2,2.9-0.6,4.2L124.7,73.7z M125.2,23.1v48.8l19.1-32.3
				c0.7-1.1,0.9-2.5,0.5-3.8c-0.3-1.3-1.2-2.4-2.4-3.1L125.2,23.1z M45.5,23.9H30.9l0.2-0.4c0.3-0.5,0.6-0.9,1-1.3l0,0l18-17.1
				c0.2-0.2,0.5-0.4,0.7-0.6l0.4-0.3v14.1C51.1,21.4,48.6,23.9,45.5,23.9z M31.7,23.4h13.8c2.8,0,5.1-2.2,5.1-5V5.2
				c-0.1,0.1-0.2,0.1-0.3,0.2l-18,17.1C32.1,22.8,31.9,23.1,31.7,23.4z"/>
		</g>
		<g>
			<path class="st6" d="M85,135.2H74.2c-1,0-1.8,0.8-1.8,1.8s0.8,1.8,1.8,1.8H85c1,0,1.8-0.8,1.8-1.8S85.9,135.2,85,135.2z"/>
			<path class="st6" d="M85,138.9H74.2c-1.1,0-2-0.9-2-2s0.9-2,2-2H85c1.1,0,2,0.9,2,2S86.1,138.9,85,138.9z M74.2,135.4
				c-0.9,0-1.5,0.7-1.5,1.5s0.7,1.5,1.5,1.5H85c0.9,0,1.5-0.7,1.5-1.5s-0.7-1.5-1.5-1.5H74.2z"/>
		</g>
		<g>
			<path class="st6" d="M72.4,127.6c0,1,0.8,1.8,1.8,1.8H85c1,0,1.8-0.8,1.8-1.8c0-1-0.8-1.8-1.8-1.8H74.2
				C73.2,125.8,72.4,126.6,72.4,127.6z"/>
			<path class="st6" d="M85,129.6H74.2c-1.1,0-2-0.9-2-2c0-1.1,0.9-2,2-2H85c1.1,0,2,0.9,2,2C87,128.7,86.1,129.6,85,129.6z
				 M74.2,126.1c-0.9,0-1.5,0.7-1.5,1.5c0,0.8,0.7,1.5,1.5,1.5H85c0.9,0,1.5-0.7,1.5-1.5c0-0.8-0.7-1.5-1.5-1.5H74.2z"/>
		</g>
		<g>
			<path class="st6" d="M43.1,126.4H27.6c-2,0-3.6,1.6-3.6,3.5l0,0v5.8c0,1.9,1.6,3.5,3.6,3.5l0,0h15.5c2,0,3.6-1.6,3.6-3.5l0,0
				v-5.8C46.7,128,45.1,126.4,43.1,126.4L43.1,126.4z M27.6,135.7v-5.8h15.5v5.8H27.6z"/>
			<path class="st6" d="M43.1,139.5H27.6c-2.1,0-3.8-1.7-3.8-3.8v-5.8c0-2.1,1.7-3.8,3.8-3.8h15.5c2.1,0,3.8,1.7,3.8,3.8v5.8
				C47,137.8,45.2,139.5,43.1,139.5z M27.6,126.6c-1.8,0-3.3,1.5-3.3,3.3v5.8c0,1.8,1.5,3.3,3.3,3.3h15.5c1.8,0,3.3-1.5,3.3-3.3
				v-5.8c0-1.8-1.5-3.3-3.3-3.3H27.6z M43.4,136h-16v-6.3h16V136z M27.8,135.5h15v-5.3h-15V135.5z"/>
		</g>
	</g>
</g>
</svg>
