<?xml version="1.0" encoding="utf-8"?>
<!-- Generator: Adobe Illustrator 25.0.0, SVG Export Plug-In . SVG Version: 6.00 Build 0)  -->
<svg version="1.1" id="Layer_1" xmlns="http://www.w3.org/2000/svg" xmlns:xlink="http://www.w3.org/1999/xlink" x="0px" y="0px"
	 viewBox="0 0 152.2 150" style="enable-background:new 0 0 152.2 150;" xml:space="preserve">
<style type="text/css">
	.st0{fill:#FF415B;}
	.st1{fill:#FFFFFF;}
	.st2{fill:#FFB655;}
	.st3{fill:#B6BAF2;}
	.st4{fill:#5E6E82;}
	.st5{fill:#35414D;}
</style>
<g>
	<path class="st0" d="M37.6,78.4L7.4,48.5c-5.7-5.7-5.7-14.9,0-20.6L33.2,2.3l111.5,110.1l-26.2,25.8c-5.6,5.6-14.7,5.6-20.3,0
		l-26.2-25.8L37.6,78.4z"/>
	<path class="st1" d="M30.2,33.7c2.9,2.9,2.9,7.6,0,10.5c-2.9,2.9-7.7,2.9-10.6,0c-2.9-2.9-2.9-7.6,0-10.5
		C22.5,30.8,27.3,30.8,30.2,33.7z"/>
	<path class="st2" d="M104.4,11.6l34.3,34.3l-91.5,91.5l-34.3-34.3L104.4,11.6z"/>
	<path class="st3" d="M47.2,137.4l-3.7,3.7c-9.5,9.5-24.8,9.5-34.3,0c-9.5-9.5-9.5-24.8,0-34.3l3.7-3.7L47.2,137.4z"/>
	<path class="st4" d="M150.1,3.3L129.4,7l15.6,15.6L150.1,3.3z"/>
	<path class="st1" d="M129.4,7l-25,4.5l34.3,34.3l6.2-23.3L129.4,7z"/>
	<path class="st5" d="M89.7,47.6l0.2,0.1c0.5,0.3,1.1,0.5,1.6,0.5c1,0,2.1-0.5,2.7-1.5c0.9-1.5,0.5-3.4-1-4.3L93,42.3
		c-1.5-0.9-3.4-0.5-4.3,1C87.8,44.8,88.3,46.7,89.7,47.6z"/>
	<path class="st5" d="M90.6,110.3l-0.2-0.1c-1.5-0.9-3.4-0.5-4.3,1c-0.9,1.5-0.5,3.4,1,4.3l0.2,0.1c0.5,0.3,1.1,0.5,1.6,0.5
		c1,0,2.1-0.5,2.7-1.5C92.5,113.1,92.1,111.2,90.6,110.3z"/>
	<path class="st5" d="M26.4,150c-7.1,0-13.7-2.7-18.6-7.7c-5-5-7.7-11.6-7.7-18.6S2.7,110,7.7,105l26.9-26.9L5.7,49.6
		C2.6,46.5,0.8,42.4,0.8,38s1.7-8.5,4.9-11.6l26-25.7C32.2,0.2,32.7,0,33.2,0c0.6,0,1.1,0.2,1.5,0.6L65,30.5l0.1,0
		c0.1,0.1,0.2,0.1,0.3,0.2c0.1,0.1,0.1,0.1,0.2,0.2l0,0.1l8.1,8l29.2-29.2c0,0,0.2-0.2,0.2-0.2l0.1,0l0.1-0.1c0,0,0.1-0.1,0.1-0.1
		c0.1-0.1,0.2-0.1,0.3-0.1c0.1,0,0.2-0.1,0.3-0.1L149.7,1c0.1,0,0.3,0,0.4,0c0.6,0,1.2,0.2,1.6,0.7c0.5,0.5,0.7,1.3,0.5,2
		l-11.4,42.6c0,0.1-0.1,0.2-0.1,0.3c0,0.1-0.1,0.2-0.1,0.2c-0.1,0.1-0.1,0.2-0.1,0.2c-0.1,0.1-0.1,0.2-0.2,0.2l-29,29l35,34.6
		c0.4,0.4,0.6,0.9,0.6,1.5c0,0.6-0.2,1.1-0.6,1.5l-26.3,26c-3.1,3-7.1,4.7-11.5,4.7c-4.3,0-8.4-1.7-11.5-4.7l-24.8-24.5L45,142.3
		C40,147.3,33.4,150,26.4,150z M10.7,108c-4.2,4.2-6.5,9.7-6.5,15.7c0,5.9,2.3,11.5,6.5,15.7c4.2,4.2,9.7,6.5,15.7,6.5
		c5.9,0,11.5-2.3,15.7-6.5l2.2-2.2l-31.3-31.3L10.7,108z M75.1,112.2l24.8,24.5c2.3,2.2,5.3,3.5,8.5,3.5c3.2,0,6.3-1.2,8.5-3.5
		l24.8-24.5l-7.2-7.1l-7.1,7c-0.4,0.4-0.9,0.6-1.5,0.6c-0.6,0-1.1-0.2-1.5-0.6c-0.8-0.8-0.8-2.2,0-3l7.1-7L120.2,91l-7.1,7
		c-0.4,0.4-0.9,0.6-1.5,0.6c-0.6,0-1.1-0.2-1.5-0.6c-0.8-0.8-0.8-2.2,0-3l7-6.9l-9-8.9L75.1,112.2z M39.2,126.1l8,8l88.5-88.5l-8-8
		L39.2,126.1z M82.9,51.2c0.6,0,1.1,0.2,1.5,0.6c0.4,0.4,0.6,0.9,0.6,1.5c0,0.6-0.2,1.1-0.6,1.5l-58.3,58.3l10.1,10.1l88.5-88.5
		l-10.1-10.1l-13.6,13.6c-0.4,0.4-0.9,0.6-1.5,0.6c-0.6,0-1.1-0.2-1.5-0.6c-0.8-0.8-0.8-2.2,0-3l13.6-13.6l-7.3-7.3l-88.5,88.5
		l7.3,7.3l58.3-58.3C81.8,51.4,82.4,51.2,82.9,51.2z M8.7,29.3c-2.3,2.3-3.6,5.4-3.6,8.6c0,3.3,1.3,6.3,3.6,8.6l28.9,28.5L70.7,42
		l-6.9-6.8l-6.9,6.8c-0.4,0.4-0.9,0.6-1.5,0.6c-0.6,0-1.1-0.2-1.5-0.6c-0.8-0.8-0.8-2.2,0-3l6.9-6.8L50.5,22.1l-7,6.9
		c-0.4,0.4-0.9,0.6-1.5,0.6c-0.6,0-1.1-0.2-1.5-0.6c-0.4-0.4-0.6-0.9-0.6-1.5c0-0.6,0.2-1.1,0.6-1.5l6.9-6.8l-14.2-14L8.7,29.3z
		 M108.7,12.7l28.9,28.9l5-18.5L128.6,9.1L108.7,12.7z M133.7,8.2l10.1,10.1l3.4-12.6L133.7,8.2z"/>
	<path class="st5" d="M24.9,48.3c-2.6,0-5-1-6.8-2.8c-1.8-1.8-2.8-4.2-2.8-6.8c0-2.6,1-5,2.8-6.8c1.8-1.8,4.2-2.8,6.8-2.8
		s5,1,6.8,2.8c1.8,1.8,2.8,4.2,2.8,6.8c0,2.6-1,5-2.8,6.8C29.9,47.3,27.5,48.3,24.9,48.3z M24.9,33.4c-1.4,0-2.8,0.6-3.8,1.6
		c-1,1-1.6,2.3-1.6,3.8s0.6,2.7,1.6,3.7c1,1,2.4,1.6,3.8,1.6c1.5,0,2.8-0.6,3.8-1.6c1-1,1.6-2.3,1.6-3.7S29.8,36,28.7,35
		C27.7,34,26.4,33.4,24.9,33.4z"/>
	<path class="st5" d="M106.4,133c-0.6,0-1.1-0.2-1.5-0.6l-8.6-8.6c-0.4-0.4-0.6-0.9-0.6-1.5c0-0.6,0.2-1.1,0.6-1.5
		c0.4-0.4,0.9-0.6,1.5-0.6c0.6,0,1.1,0.2,1.5,0.6l7.1,7.1l7.3-7.3c0.4-0.4,0.9-0.6,1.5-0.6c0.6,0,1.1,0.2,1.5,0.6
		c0.4,0.4,0.6,0.9,0.6,1.5c0,0.6-0.2,1.1-0.6,1.5l-8.8,8.8C107.4,132.8,106.9,133,106.4,133z"/>
</g>
</svg>
