<?xml version="1.0" encoding="utf-8"?>
<!-- Generator: Adobe Illustrator 25.0.0, SVG Export Plug-In . SVG Version: 6.00 Build 0)  -->
<svg version="1.1" baseProfile="tiny" id="Layer_1" xmlns="http://www.w3.org/2000/svg" xmlns:xlink="http://www.w3.org/1999/xlink"
	 x="0px" y="0px" viewBox="0 0 204.12 66" overflow="visible" xml:space="preserve">
<g>
	<g>
		<path fill="#DB2122" d="M172.06,63h-140c-16.57,0-30-13.43-30-30v0c0-16.57,13.43-30,30-30h140c16.57,0,30,13.43,30,30v0
			C202.06,49.57,188.63,63,172.06,63z"/>
	</g>
	<g>
		<path fill="#FFFFFF" d="M39.64,41.81V24.19h6.17c2.14,0,3.76,0.41,4.86,1.23c1.1,0.82,1.66,2.02,1.66,3.6
			c0,0.86-0.22,1.62-0.67,2.28c-0.44,0.66-1.06,1.14-1.85,1.45c0.9,0.22,1.61,0.68,2.13,1.37s0.78,1.53,0.78,2.52
			c0,1.69-0.54,2.98-1.62,3.85c-1.08,0.87-2.62,1.31-4.62,1.33H39.64z M43.27,31.57h2.69c1.83-0.03,2.75-0.76,2.75-2.19
			c0-0.8-0.23-1.37-0.7-1.72c-0.46-0.35-1.2-0.53-2.2-0.53h-2.54V31.57z M43.27,34.14v4.75h3.11c0.85,0,1.52-0.2,2-0.61
			c0.48-0.41,0.72-0.97,0.72-1.69c0-1.61-0.83-2.43-2.5-2.46H43.27z"/>
		<path fill="#FFFFFF" d="M69.91,33.4c0,1.73-0.31,3.25-0.92,4.56c-0.61,1.3-1.49,2.31-2.63,3.02c-1.14,0.71-2.45,1.06-3.92,1.06
			c-1.46,0-2.76-0.35-3.91-1.05c-1.15-0.7-2.03-1.7-2.66-3.01s-0.95-2.8-0.96-4.49v-0.87c0-1.73,0.31-3.26,0.94-4.58
			c0.62-1.32,1.51-2.33,2.65-3.04c1.14-0.71,2.44-1.06,3.91-1.06c1.47,0,2.77,0.35,3.91,1.06c1.14,0.71,2.02,1.72,2.65,3.04
			c0.62,1.32,0.94,2.84,0.94,4.56V33.4z M66.23,32.6c0-1.85-0.33-3.25-0.99-4.21c-0.66-0.96-1.6-1.44-2.83-1.44
			c-1.22,0-2.16,0.47-2.82,1.42s-1,2.34-1,4.17v0.86c0,1.8,0.33,3.19,0.99,4.19c0.66,0.99,1.61,1.49,2.85,1.49
			c1.22,0,2.15-0.48,2.81-1.43c0.65-0.96,0.98-2.35,0.99-4.18V32.6z"/>
		<path fill="#FFFFFF" d="M87.01,33.4c0,1.73-0.31,3.25-0.92,4.56c-0.61,1.3-1.49,2.31-2.63,3.02c-1.14,0.71-2.45,1.06-3.92,1.06
			c-1.46,0-2.76-0.35-3.91-1.05c-1.15-0.7-2.03-1.7-2.66-3.01s-0.95-2.8-0.96-4.49v-0.87c0-1.73,0.31-3.26,0.94-4.58
			c0.62-1.32,1.51-2.33,2.65-3.04c1.14-0.71,2.44-1.06,3.91-1.06c1.47,0,2.77,0.35,3.91,1.06c1.14,0.71,2.02,1.72,2.65,3.04
			c0.62,1.32,0.94,2.84,0.94,4.56V33.4z M83.34,32.6c0-1.85-0.33-3.25-0.99-4.21c-0.66-0.96-1.6-1.44-2.83-1.44
			c-1.22,0-2.16,0.47-2.82,1.42s-1,2.34-1,4.17v0.86c0,1.8,0.33,3.19,0.99,4.19c0.66,0.99,1.61,1.49,2.85,1.49
			c1.22,0,2.15-0.48,2.81-1.43c0.65-0.96,0.98-2.35,0.99-4.18V32.6z"/>
		<path fill="#FFFFFF" d="M95.16,34.74l-1.89,2.03v5.03h-3.63V24.19h3.63v7.98l1.6-2.19l4.49-5.79h4.46l-6.25,7.83l6.43,9.79h-4.32
			L95.16,34.74z"/>
		<path fill="#FFFFFF" d="M125.86,41.81h-3.63l-7.06-11.59v11.59h-3.63V24.19h3.63l7.08,11.61V24.19h3.62V41.81z"/>
		<path fill="#FFFFFF" d="M143.5,33.4c0,1.73-0.31,3.25-0.92,4.56c-0.61,1.3-1.49,2.31-2.63,3.02c-1.14,0.71-2.45,1.06-3.92,1.06
			c-1.46,0-2.76-0.35-3.91-1.05c-1.15-0.7-2.03-1.7-2.66-3.01s-0.95-2.8-0.96-4.49v-0.87c0-1.73,0.31-3.26,0.94-4.58
			c0.62-1.32,1.51-2.33,2.65-3.04c1.14-0.71,2.44-1.06,3.91-1.06c1.47,0,2.77,0.35,3.91,1.06c1.14,0.71,2.02,1.72,2.65,3.04
			c0.62,1.32,0.94,2.84,0.94,4.56V33.4z M139.82,32.6c0-1.85-0.33-3.25-0.99-4.21c-0.66-0.96-1.6-1.44-2.83-1.44
			c-1.22,0-2.16,0.47-2.82,1.42s-1,2.34-1,4.17v0.86c0,1.8,0.33,3.19,0.99,4.19c0.66,0.99,1.61,1.49,2.85,1.49
			c1.22,0,2.15-0.48,2.81-1.43c0.65-0.96,0.98-2.35,0.99-4.18V32.6z"/>
		<path fill="#FFFFFF" d="M159.85,36.73l2.37-12.53h3.62l-3.91,17.61h-3.65l-2.87-11.78l-2.87,11.78h-3.65l-3.91-17.61h3.62
			l2.38,12.51l2.9-12.51h3.07L159.85,36.73z"/>
	</g>
</g>
</svg>
