<?xml version="1.0" encoding="utf-8"?>
<!-- Generator: Adobe Illustrator 25.0.0, SVG Export Plug-In . SVG Version: 6.00 Build 0)  -->
<svg version="1.1" id="Layer_1" xmlns="http://www.w3.org/2000/svg" xmlns:xlink="http://www.w3.org/1999/xlink" x="0px" y="0px"
	 viewBox="0 0 150 14.7" style="enable-background:new 0 0 150 14.7;" xml:space="preserve">
<style type="text/css">
	.st0{fill:#FFD36C;}
</style>
<g>
	<path class="st0" d="M6,13.3c-0.1-0.2-0.2-0.5-0.2-0.9c-0.7,0.7-1.5,1.1-2.4,1.1c-0.8,0-1.5-0.2-2.1-0.7c-0.5-0.5-0.8-1.1-0.8-1.8
		c0-0.9,0.3-1.6,1-2.1c0.7-0.5,1.6-0.7,2.9-0.7h1.4V7.5c0-0.5-0.2-0.9-0.5-1.2C5,6,4.6,5.8,4,5.8c-0.5,0-1,0.1-1.3,0.4
		c-0.4,0.3-0.5,0.6-0.5,1H0.7c0-0.4,0.2-0.8,0.5-1.2C1.4,5.5,1.8,5.2,2.3,5S3.4,4.6,4,4.6c1,0,1.8,0.2,2.3,0.7s0.8,1.2,0.9,2v3.9
		c0,0.8,0.1,1.4,0.3,1.9v0.1H6z M3.6,12.2c0.5,0,0.9-0.1,1.3-0.4s0.7-0.5,0.9-0.9V9.2H4.6c-1.8,0-2.7,0.5-2.7,1.6
		c0,0.5,0.2,0.8,0.5,1.1C2.7,12.1,3.1,12.2,3.6,12.2z"/>
	<path class="st0" d="M11.4,13.3H10V1.2h1.5V13.3z"/>
	<path class="st0" d="M15.7,13.3h-1.5V1.2h1.5V13.3z"/>
	<path class="st0" d="M18.3,2.5c0-0.2,0.1-0.4,0.2-0.6s0.4-0.2,0.6-0.2s0.5,0.1,0.6,0.2s0.2,0.4,0.2,0.6c0,0.2-0.1,0.4-0.2,0.6
		c-0.1,0.2-0.4,0.2-0.6,0.2s-0.5-0.1-0.6-0.2C18.4,3,18.3,2.8,18.3,2.5z M19.9,13.3h-1.5V4.8h1.5V13.3z"/>
	<path class="st0" d="M24,4.8l0,1.1c0.7-0.8,1.5-1.2,2.6-1.2c1.8,0,2.7,1,2.7,3.1v5.6h-1.5V7.7c0-0.6-0.1-1.1-0.4-1.4
		s-0.7-0.4-1.3-0.4c-0.5,0-0.9,0.1-1.2,0.4c-0.4,0.3-0.6,0.6-0.8,1v6.1h-1.5V4.8H24z"/>
	<path class="st0" d="M37.1,13.3c-0.1-0.2-0.2-0.5-0.2-0.9c-0.7,0.7-1.5,1.1-2.4,1.1c-0.8,0-1.5-0.2-2.1-0.7
		c-0.5-0.5-0.8-1.1-0.8-1.8c0-0.9,0.3-1.6,1-2.1c0.7-0.5,1.6-0.7,2.9-0.7h1.4V7.5c0-0.5-0.2-0.9-0.5-1.2c-0.3-0.3-0.8-0.5-1.4-0.5
		c-0.5,0-1,0.1-1.3,0.4c-0.4,0.3-0.5,0.6-0.5,1h-1.5c0-0.4,0.2-0.8,0.5-1.2c0.3-0.4,0.7-0.7,1.2-0.9s1.1-0.3,1.7-0.3
		c1,0,1.8,0.2,2.3,0.7s0.8,1.2,0.9,2v3.9c0,0.8,0.1,1.4,0.3,1.9v0.1H37.1z M34.7,12.2c0.5,0,0.9-0.1,1.3-0.4s0.7-0.5,0.9-0.9V9.2
		h-1.1c-1.8,0-2.7,0.5-2.7,1.6c0,0.5,0.2,0.8,0.5,1.1C33.8,12.1,34.2,12.2,34.7,12.2z"/>
	<path class="st0" d="M40.6,9c0-1.3,0.3-2.4,0.9-3.2C42.2,5,43,4.6,44,4.6c1,0,1.8,0.3,2.4,1V1.2h1.5v12.1h-1.3l-0.1-0.9
		c-0.6,0.7-1.4,1.1-2.4,1.1c-1,0-1.8-0.4-2.4-1.2c-0.6-0.8-0.9-1.9-0.9-3.2V9z M42.1,9.2c0,1,0.2,1.7,0.6,2.3c0.4,0.5,1,0.8,1.7,0.8
		c0.9,0,1.6-0.4,2-1.2V7.1c-0.4-0.8-1.1-1.2-2-1.2c-0.7,0-1.3,0.3-1.7,0.8C42.3,7.3,42.1,8.1,42.1,9.2z"/>
	<path class="st0" d="M53.2,11.4l2.1-6.6h1.5l-3.1,8.5h-1.1l-3.1-8.5H51L53.2,11.4z"/>
	<path class="st0" d="M62,13.5c-1.2,0-2.1-0.4-2.8-1.1s-1.1-1.8-1.1-3.1V9c0-0.8,0.2-1.6,0.5-2.3s0.8-1.2,1.4-1.6
		c0.6-0.4,1.2-0.6,1.9-0.6c1.1,0,2,0.4,2.6,1.1c0.6,0.7,0.9,1.8,0.9,3.1v0.6h-5.8c0,0.8,0.3,1.5,0.7,2s1.1,0.8,1.8,0.8
		c0.5,0,1-0.1,1.3-0.3c0.4-0.2,0.7-0.5,0.9-0.8l0.9,0.7C64.5,12.9,63.4,13.5,62,13.5z M61.8,5.8c-0.6,0-1.1,0.2-1.5,0.6
		c-0.4,0.4-0.6,1-0.7,1.8h4.3V8.2c0-0.7-0.2-1.3-0.6-1.7C62.9,6,62.4,5.8,61.8,5.8z"/>
	<path class="st0" d="M68.7,4.8l0,1.1c0.7-0.8,1.5-1.2,2.6-1.2c1.8,0,2.7,1,2.7,3.1v5.6h-1.5V7.7c0-0.6-0.1-1.1-0.4-1.4
		s-0.7-0.4-1.3-0.4c-0.5,0-0.9,0.1-1.2,0.4c-0.4,0.3-0.6,0.6-0.8,1v6.1h-1.5V4.8H68.7z"/>
	<path class="st0" d="M78.6,2.7v2.1h1.6v1.1h-1.6v5.3c0,0.3,0.1,0.6,0.2,0.8c0.1,0.2,0.4,0.3,0.7,0.3c0.2,0,0.4,0,0.7-0.1v1.2
		c-0.4,0.1-0.8,0.2-1.1,0.2c-0.7,0-1.1-0.2-1.5-0.6c-0.3-0.4-0.5-1-0.5-1.7V5.9h-1.6V4.8h1.6V2.7H78.6z"/>
	<path class="st0" d="M87.5,12.5c-0.6,0.7-1.4,1-2.5,1c-0.9,0-1.6-0.3-2.1-0.8s-0.7-1.3-0.7-2.3V4.8h1.5v5.5c0,1.3,0.5,1.9,1.6,1.9
		c1.1,0,1.9-0.4,2.2-1.2V4.8h1.5v8.5h-1.4L87.5,12.5z"/>
	<path class="st0" d="M95.6,6.1c-0.2,0-0.5-0.1-0.7-0.1c-1,0-1.6,0.4-2,1.2v6.1h-1.5V4.8h1.4l0,1c0.5-0.8,1.2-1.1,2-1.1
		c0.3,0,0.5,0,0.6,0.1V6.1z"/>
	<path class="st0" d="M100.6,13.5c-1.2,0-2.1-0.4-2.8-1.1s-1.1-1.8-1.1-3.1V9c0-0.8,0.2-1.6,0.5-2.3c0.3-0.7,0.8-1.2,1.4-1.6
		c0.6-0.4,1.2-0.6,1.9-0.6c1.1,0,2,0.4,2.6,1.1c0.6,0.7,0.9,1.8,0.9,3.1v0.6h-5.8c0,0.8,0.3,1.5,0.7,2c0.5,0.5,1.1,0.8,1.8,0.8
		c0.5,0,1-0.1,1.3-0.3c0.4-0.2,0.7-0.5,0.9-0.8l0.9,0.7C103.1,12.9,102.1,13.5,100.6,13.5z M100.4,5.8c-0.6,0-1.1,0.2-1.5,0.6
		s-0.6,1-0.7,1.8h4.3V8.2c0-0.7-0.2-1.3-0.6-1.7S101.1,5.8,100.4,5.8z"/>
	<path class="st0" d="M110.9,11.1c0-0.4-0.1-0.7-0.4-0.9c-0.3-0.2-0.8-0.4-1.6-0.6c-0.7-0.2-1.3-0.3-1.8-0.6c-0.4-0.2-0.8-0.5-1-0.8
		c-0.2-0.3-0.3-0.7-0.3-1.1c0-0.7,0.3-1.3,0.9-1.8c0.6-0.5,1.3-0.7,2.3-0.7c1,0,1.8,0.2,2.4,0.8c0.6,0.5,0.9,1.1,0.9,1.9h-1.5
		c0-0.4-0.2-0.7-0.5-1c-0.3-0.3-0.8-0.4-1.3-0.4c-0.5,0-0.9,0.1-1.2,0.3s-0.5,0.5-0.5,0.9c0,0.4,0.1,0.6,0.4,0.8
		c0.3,0.2,0.8,0.4,1.5,0.5c0.7,0.2,1.3,0.4,1.8,0.6c0.5,0.2,0.8,0.5,1,0.8c0.2,0.3,0.3,0.7,0.3,1.2c0,0.8-0.3,1.4-0.9,1.8
		c-0.6,0.5-1.4,0.7-2.4,0.7c-0.7,0-1.3-0.1-1.8-0.4s-0.9-0.6-1.2-1c-0.3-0.4-0.4-0.9-0.4-1.4h1.5c0,0.5,0.2,0.9,0.6,1.2
		c0.4,0.3,0.8,0.4,1.4,0.4c0.6,0,1-0.1,1.3-0.3C110.8,11.7,110.9,11.4,110.9,11.1z"/>
	<path class="st0" d="M114.7,12.6c0-0.3,0.1-0.5,0.2-0.6c0.2-0.2,0.4-0.3,0.7-0.3c0.3,0,0.5,0.1,0.7,0.3c0.2,0.2,0.2,0.4,0.2,0.6
		c0,0.2-0.1,0.4-0.2,0.6s-0.4,0.2-0.7,0.2c-0.3,0-0.5-0.1-0.7-0.2C114.7,13,114.7,12.8,114.7,12.6z"/>
	<path class="st0" d="M122.6,12.3c0.5,0,1-0.2,1.4-0.5c0.4-0.3,0.6-0.7,0.6-1.2h1.4c0,0.5-0.2,1-0.5,1.4s-0.7,0.8-1.2,1.1
		c-0.5,0.3-1.1,0.4-1.6,0.4c-1.2,0-2.1-0.4-2.8-1.2c-0.7-0.8-1-1.8-1-3.2V8.9c0-0.8,0.2-1.6,0.5-2.2s0.7-1.2,1.3-1.5
		c0.6-0.4,1.2-0.5,2-0.5c1,0,1.8,0.3,2.4,0.9c0.6,0.6,1,1.3,1,2.2h-1.4c0-0.6-0.3-1-0.6-1.4c-0.4-0.4-0.8-0.5-1.4-0.5
		c-0.7,0-1.3,0.3-1.7,0.8s-0.6,1.3-0.6,2.3v0.3c0,1,0.2,1.7,0.6,2.3C121.3,12,121.9,12.3,122.6,12.3z"/>
	<path class="st0" d="M127.6,9c0-0.8,0.2-1.6,0.5-2.3c0.3-0.7,0.8-1.2,1.4-1.5s1.3-0.5,2-0.5c1.2,0,2.1,0.4,2.8,1.2s1.1,1.9,1.1,3.2
		v0.1c0,0.8-0.2,1.6-0.5,2.2c-0.3,0.7-0.8,1.2-1.4,1.5c-0.6,0.4-1.3,0.6-2,0.6c-1.2,0-2.1-0.4-2.8-1.2c-0.7-0.8-1.1-1.9-1.1-3.2V9z
		 M129.1,9.2c0,0.9,0.2,1.7,0.7,2.3c0.4,0.6,1,0.9,1.8,0.9c0.7,0,1.3-0.3,1.8-0.9c0.4-0.6,0.7-1.4,0.7-2.4c0-0.9-0.2-1.7-0.7-2.3
		c-0.4-0.6-1-0.9-1.8-0.9c-0.7,0-1.3,0.3-1.7,0.9C129.3,7.3,129.1,8.1,129.1,9.2z"/>
	<path class="st0" d="M138.9,4.8l0,0.9c0.6-0.7,1.5-1.1,2.5-1.1c1.2,0,2,0.5,2.4,1.4c0.3-0.4,0.7-0.7,1.1-1c0.5-0.3,1-0.4,1.6-0.4
		c1.9,0,2.8,1,2.9,3v5.7h-1.5V7.7c0-0.6-0.1-1.1-0.4-1.4s-0.7-0.5-1.4-0.5c-0.5,0-1,0.2-1.4,0.5c-0.4,0.3-0.6,0.8-0.6,1.3v5.7h-1.5
		V7.7c0-1.2-0.6-1.9-1.8-1.9c-1,0-1.6,0.4-2,1.2v6.2h-1.5V4.8H138.9z"/>
</g>
</svg>
