<?xml version="1.0" encoding="utf-8"?>
<!-- Generator: Adobe Illustrator 25.0.0, SVG Export Plug-In . SVG Version: 6.00 Build 0)  -->
<svg version="1.1" id="Layer_1" xmlns="http://www.w3.org/2000/svg" xmlns:xlink="http://www.w3.org/1999/xlink" x="0px" y="0px"
	 viewBox="0 0 554 175" style="enable-background:new 0 0 554 175;" xml:space="preserve">
<style type="text/css">
	.st0{fill-rule:evenodd;clip-rule:evenodd;fill:#F4F6F8;}
	.st1{fill-rule:evenodd;clip-rule:evenodd;fill:#E0E1E2;}
	.st2{fill-rule:evenodd;clip-rule:evenodd;fill:#CECECE;}
	.st3{fill:#35414D;}
	.st4{fill:#B3A4EE;}
	.st5{fill:#AC92EA;}
	.st6{fill:#FBD277;}
	.st7{fill:#B4DF80;}
	.st8{fill:#9ED26A;}
	.st9{fill:#FDCD56;}
	.st10{fill:#434A54;}
	.st11{fill:#FFA733;}
	.st12{fill:#FF5A5A;}
	.st13{fill:#D6DF58;}
	.st14{fill:#87796F;}
	.st15{fill-rule:evenodd;clip-rule:evenodd;fill:#FFF2E8;}
	.st16{fill-rule:evenodd;clip-rule:evenodd;fill:#FFE4CF;}
	.st17{fill:none;stroke:#35414D;stroke-width:1.955;stroke-linecap:round;stroke-linejoin:round;stroke-miterlimit:13.3333;}
	.st18{fill:none;stroke:#35414D;stroke-width:0.8379;stroke-linecap:round;stroke-linejoin:round;stroke-miterlimit:13.3333;}
	.st19{fill-rule:evenodd;clip-rule:evenodd;fill:#838383;}
	.st20{fill-rule:evenodd;clip-rule:evenodd;fill:#FE9737;}
	.st21{fill-rule:evenodd;clip-rule:evenodd;fill:#B5ADB6;}
	.st22{fill-rule:evenodd;clip-rule:evenodd;fill:#F36B37;}
	.st23{fill-rule:evenodd;clip-rule:evenodd;fill:#595959;}
	.st24{fill-rule:evenodd;clip-rule:evenodd;fill:#35414D;}
	.st25{fill:#60A917;}
	.st26{fill:#FE9737;}
	.st27{fill:#D8D8D8;}
	.st28{fill-rule:evenodd;clip-rule:evenodd;fill:#99DD58;}
	.st29{fill-rule:evenodd;clip-rule:evenodd;fill:#97DA7B;}
	.st30{fill-rule:evenodd;clip-rule:evenodd;fill:#68CA44;}
	.st31{fill:none;stroke:#35414D;stroke-width:1.3564;stroke-linecap:round;stroke-linejoin:round;stroke-miterlimit:13.3333;}
	.st32{fill:#6F909E;}
	.st33{fill:none;stroke:#35414D;stroke-width:2.5288;stroke-linecap:round;stroke-linejoin:round;stroke-miterlimit:10;}
	.st34{fill:#F1E8DC;}
	.st35{fill:#9A99A1;}
	.st36{fill:#54C1ED;}
	.st37{fill:#F4644D;}
	.st38{fill:#8BC932;}
	.st39{fill:#F9D36B;}
	.st40{fill:#EFDBC6;}
	.st41{fill:#E5CFBD;}
	.st42{fill:#46BEE8;}
	.st43{fill:#17AFDE;}
	.st44{fill:#FFB155;}
	.st45{fill-rule:evenodd;clip-rule:evenodd;fill:#F4644D;}
	.st46{fill:#E6F0F6;}
	.st47{fill:#AACFE2;}
	.st48{fill:#F19B40;}
	.st49{fill-rule:evenodd;clip-rule:evenodd;fill:#E8533A;}
</style>
<g>
	<g>
		<g id="g7750_17_" transform="translate(18.5,457.4355)">
			<g id="path7752_17_">
				<path class="st0" d="M18.7-445.4l-34.9,80c-0.3,0.7,0,1.4,0.6,1.7l18.2,7.9l38.9,16.9l7.7,3.4c0.6,0.3,1.4-0.1,1.7-0.7l32-73.5
					l0.3-0.8c0-0.1,0.1-0.2,0.1-0.3l-9.2-4c-2.5-1.1-3.6-4.2-2.5-6.9l4-9.1c-0.1-0.1-0.2-0.1-0.3-0.2l-0.9-0.4l-50.8-22.2
					c-0.6-0.3-1.4,0-1.7,0.7L18.7-445.4z"/>
			</g>
		</g>
		<g id="g7754_18_" transform="translate(257.3203,504.5)">
			<g id="path7756_18_">
				<path class="st1" d="M-175.8-483.3c4.6,13.4,3.5,31.5-4.2,49.2c-1.7,3.8-3.6,7.4-5.6,10.8c-0.7,1.1-1.4,2.1-2.1,3.2
					c-0.8,1.2-1.7,2.5-2.6,3.6c-8.4,10.9-18.7,18.4-28.9,21.1l21.9,9.5l7.7,3.4c0.6,0.3,1.4-0.1,1.7-0.7l5.9-13.6l7.8-18l18.3-41.9
					l0.3-0.8c0-0.1,0.1-0.2,0.1-0.3l-7.7-20c-0.1-0.1-0.2-0.1-0.3-0.2l-0.9-0.4L-175.8-483.3z"/>
			</g>
		</g>
		<g id="g7758_17_" transform="translate(331.5508,504.1592)">
			<g id="path7760_17_">
				<path class="st2" d="M-237.5-477.4l-4,9.1c-1.2,2.7-0.1,5.8,2.5,6.9l9.2,4c0-0.2-0.1-0.4-0.3-0.9l-7-18.1
					C-237.3-476.9-237.4-477.2-237.5-477.4"/>
			</g>
		</g>
		<g id="g7762_17_" transform="translate(331.5508,504.1592)">
			<g id="path7764_17_">
				<path class="st3" d="M-231.2-456.4l-8.4-3.6c-3.3-1.4-4.7-5.4-3.2-8.8l4-9.1c0.3-0.7,1.2-1.1,1.9-0.8c0,0,0,0,0,0
					c0.7,0.3,1.1,1.2,0.8,1.9l-4,9.1c-0.8,1.9-0.1,4.2,1.7,4.9l8.4,3.6c0.7,0.3,1.1,1.2,0.8,1.9
					C-229.6-456.4-230.5-456.1-231.2-456.4z"/>
			</g>
		</g>
		<g id="g7766_17_" transform="translate(413.1929,241.0635)">
			<g id="path7768_17_">
				<path class="st3" d="M-346.1-117.7l-64.7-28.2c-1.4-0.6-2-2.2-1.4-3.6l38.1-87.3c0.6-1.4,2.2-2.1,3.6-1.5l51.7,22.5
					c0.9,0.4,1.1,1,1.4,1.7l0.1,0.3l7.3,18.8c0.1,0.3,0.1,0.7,0,1c0,0.2,0,0.4-0.1,0.6l-32.3,74.1
					C-343.1-117.8-344.7-117.1-346.1-117.7z M-409.4-148.5l64.3,28l32.2-73.8l-7.2-18.7c0-0.1-0.1-0.1-0.1-0.2l-51.2-22.3
					L-409.4-148.5z"/>
			</g>
		</g>
		<g>
			<g>
				<g>
					<g>
						<path class="st4" d="M19.3,73.8l15.1,6.6l-1.8,4.2L17.5,78L19.3,73.8z"/>
					</g>
					<g>
						<path class="st5" d="M34.4,80.4l-1.8,4.2L17.5,78l0.6-1.3l1.9,0.8c4.4,1.9,8.7,2.4,10.8,1.3L34.4,80.4z"/>
					</g>
					<g>
						<path class="st6" d="M37.6,81.8l15.1,6.6l-1.8,4.2L35.8,86L37.6,81.8z"/>
					</g>
					<g>
						<path class="st7" d="M56,89.8l15.1,6.6l-1.8,4.2L54.2,94L56,89.8z"/>
					</g>
					<g>
						<path class="st8" d="M71.1,96.4l-1.8,4.2L54.2,94l0.6-1.3l1.9,0.8c4.4,1.9,8.7,2.4,10.8,1.3L71.1,96.4z"/>
					</g>
					<g>
						<path class="st9" d="M52.7,88.4l-1.8,4.2L35.8,86l0.6-1.3l1.9,0.8c4.4,1.9,8.7,2.4,10.8,1.3L52.7,88.4z"/>
					</g>
				</g>
				<g>
					<g>
						<path class="st10" d="M30.1,90.2L20.5,86c-0.4-0.2-0.5-0.6-0.3-1.1c0.2-0.4,0.6-0.7,1-0.5l9.7,4.2c0.4,0.2,0.5,0.6,0.3,1.1
							C30.9,90.1,30.5,90.4,30.1,90.2z"/>
					</g>
					<g>
						<path class="st11" d="M17.9,84.9L15,83.6c-0.4-0.2-0.5-0.6-0.3-1.1s0.6-0.7,1-0.5l2.8,1.2c0.4,0.2,0.5,0.6,0.3,1.1
							C18.7,84.8,18.2,85,17.9,84.9z"/>
					</g>
					<g>
						<path class="st10" d="M28,95.2l-15.1-6.6c-0.4-0.2-0.5-0.6-0.3-1.1c0.2-0.4,0.6-0.7,1-0.5l15.1,6.6c0.4,0.2,0.5,0.6,0.3,1.1
							C28.8,95.1,28.3,95.3,28,95.2z"/>
					</g>
					<g>
						<path class="st10" d="M48.5,98.2L38.8,94c-0.4-0.2-0.5-0.6-0.3-1.1c0.2-0.4,0.6-0.7,1-0.5l9.7,4.2c0.4,0.2,0.5,0.6,0.3,1.1
							C49.3,98.1,48.8,98.4,48.5,98.2z"/>
					</g>
					<g>
						<path class="st12" d="M36.2,92.8l-2.8-1.2c-0.4-0.2-0.5-0.6-0.3-1.1c0.2-0.4,0.6-0.7,1-0.5l2.8,1.2c0.4,0.2,0.5,0.6,0.3,1.1
							S36.5,93,36.2,92.8z"/>
					</g>
					<g>
						<path class="st10" d="M46.3,103.2l-15.1-6.6c-0.4-0.2-0.5-0.6-0.3-1.1s0.6-0.7,1-0.5l15.1,6.6c0.4,0.2,0.5,0.6,0.3,1.1
							C47.1,103.1,46.7,103.3,46.3,103.2z"/>
					</g>
					<g>
						<path class="st10" d="M66.8,106.2l-9.7-4.2c-0.4-0.2-0.5-0.6-0.3-1.1c0.2-0.4,0.6-0.7,1-0.5l9.7,4.2c0.4,0.2,0.5,0.6,0.3,1.1
							C67.6,106.1,67.2,106.3,66.8,106.2z"/>
					</g>
					<g>
						<path class="st13" d="M54.5,100.8l-2.8-1.2c-0.4-0.2-0.5-0.6-0.3-1.1c0.2-0.4,0.6-0.7,1-0.5l2.8,1.2c0.4,0.2,0.5,0.6,0.3,1.1
							S54.9,101,54.5,100.8z"/>
					</g>
					<g>
						<path class="st10" d="M64.6,111.1l-15.1-6.6c-0.4-0.2-0.5-0.6-0.3-1.1c0.2-0.4,0.6-0.7,1-0.5l15.1,6.6
							c0.4,0.2,0.5,0.6,0.3,1.1C65.4,111.1,65,111.3,64.6,111.1z"/>
					</g>
				</g>
				<g>
					<g>
						<g>
							<path class="st3" d="M82.2,67.8L32.7,46.2c-0.5-0.2-0.8-0.9-0.6-1.4c0.2-0.5,0.9-0.8,1.4-0.6l49.5,21.6
								c0.5,0.2,0.8,0.9,0.6,1.4S82.8,68,82.2,67.8L82.2,67.8z"/>
						</g>
						<g>
							<path class="st3" d="M70.6,67.1L31.1,49.9c-0.5-0.2-0.8-0.9-0.6-1.4s0.9-0.8,1.4-0.6l39.6,17.2c0.5,0.2,0.8,0.9,0.6,1.4
								S71.2,67.4,70.6,67.1z"/>
						</g>
						<g>
							<path class="st3" d="M78,77.4L28.5,55.9c-0.5-0.2-0.8-0.9-0.6-1.4c0.2-0.5,0.9-0.8,1.4-0.6l49.5,21.6
								c0.5,0.2,0.8,0.9,0.6,1.4S78.5,77.7,78,77.4L78,77.4z"/>
						</g>
						<g>
							<path class="st3" d="M71.7,79.1L26.9,59.6c-0.5-0.2-0.8-0.9-0.6-1.4c0.2-0.5,0.9-0.8,1.4-0.6l44.9,19.6
								c0.5,0.2,0.8,0.9,0.6,1.4C72.9,79.1,72.3,79.3,71.7,79.1z"/>
						</g>
						<g>
							<path class="st3" d="M73.8,87.1L24.3,65.5c-0.5-0.2-0.8-0.9-0.6-1.4c0.2-0.5,0.9-0.8,1.4-0.6l49.5,21.6
								c0.5,0.2,0.8,0.9,0.6,1.4S74.3,87.4,73.8,87.1L73.8,87.1z"/>
						</g>
						<g>
							<path class="st3" d="M57.6,84.5l-35-15.2c-0.5-0.2-0.8-0.9-0.6-1.4c0.2-0.5,0.9-0.8,1.4-0.6l35,15.2c0.5,0.2,0.8,0.9,0.6,1.4
								C58.8,84.5,58.1,84.7,57.6,84.5z"/>
						</g>
					</g>
					<g>
						<path class="st3" d="M84.8,61.9L35.2,40.4c-0.5-0.2-0.8-0.9-0.6-1.4l1.8-4.2c0.2-0.5,0.9-0.8,1.4-0.6l49.5,21.6
							c0.5,0.2,0.8,0.9,0.6,1.4l-1.8,4.2C85.9,61.9,85.3,62.2,84.8,61.9z M37.1,38.8l47.5,20.7l1-2.2L38,36.6L37.1,38.8z"/>
					</g>
				</g>
			</g>
		</g>
		<g>
			<g>
				<g>
					<path class="st6" d="M44.8,16.3l22.8,10l-5.2,11.9l-22.8-10L44.8,16.3z"/>
				</g>
				<g>
					<path class="st3" d="M68,25.3l-22.8-10c-0.5-0.2-1.2,0-1.4,0.6l-5.2,11.9c-0.2,0.5,0,1.2,0.6,1.4l22.8,10
						c0.5,0.2,1.2,0,1.4-0.6l5.2-11.9C68.8,26.2,68.6,25.5,68,25.3z M61.9,36.8L41,27.7l4.3-10l20.9,9.1L61.9,36.8z"/>
				</g>
			</g>
			<g>
				<g>
					<path class="st3" d="M84.5,32.8l-12.2-5.3c-0.4-0.2-0.8,0.2-1.1,0.7c-0.2,0.5-0.1,1.1,0.2,1.3l12.2,5.3
						c0.4,0.2,0.8-0.2,1.1-0.7C84.9,33.5,84.8,32.9,84.5,32.8z"/>
				</g>
				<g>
					<path class="st3" d="M83,38.9l-13.2-5.7c-0.4-0.2-0.9,0.1-1.1,0.7S68.6,35,69,35.2l13.2,5.7c0.4,0.2,0.9-0.1,1.1-0.7
						S83.4,39.1,83,38.9z"/>
				</g>
			</g>
		</g>
	</g>
	<g>
		<g>
			<path class="st14" d="M492.7,122.6c-4.4,0-8.5-2.3-10.7-6.1l-39.1-66.8c-1.7-2.8-2.1-6.2-1.3-9.4c0.8-3.2,2.9-5.9,5.7-7.5
				l47.3-27.7c1.9-1.1,4-1.7,6.2-1.7c4.4,0,8.5,2.3,10.7,6.1l39.1,66.8c1.7,2.8,2.1,6.2,1.3,9.4c-0.8,3.2-2.9,5.9-5.7,7.5
				l-47.3,27.7C497,122,494.8,122.6,492.7,122.6L492.7,122.6z"/>
			<path class="st3" d="M500.8,4.4c3.9,0,7.7,2,9.8,5.6l39.1,66.8c3.2,5.4,1.3,12.4-4.1,15.6l-47.3,27.7c-1.8,1.1-3.8,1.6-5.7,1.6
				c-3.9,0-7.7-2-9.8-5.6l-39.1-66.8c-3.2-5.4-1.3-12.4,4.1-15.6L495.1,6C496.9,4.9,498.9,4.4,500.8,4.4 M500.8,2.5
				c-2.3,0-4.7,0.6-6.7,1.8L446.8,32c-6.3,3.7-8.5,11.9-4.8,18.2l39.1,66.8c2.4,4.1,6.8,6.6,11.5,6.6c2.3,0,4.7-0.6,6.7-1.8
				l47.3-27.7c3.1-1.8,5.3-4.7,6.2-8.1c0.9-3.4,0.4-7-1.4-10.1L512.3,9.1C509.9,5,505.5,2.5,500.8,2.5L500.8,2.5z"/>
		</g>
		<g id="g7750_16_" transform="translate(18.5,457.4355)">
			<path id="path7752_16_" class="st15" d="M429.8-409.1l41.5,70.9c0.3,0.6,1.1,0.8,1.6,0.5l16.1-9.4l34.4-20.1l6.8-4
				c0.6-0.3,0.7-1.1,0.4-1.7L492.6-438l-0.4-0.7c-0.1-0.1-0.1-0.2-0.2-0.2l-8.2,4.8c-2.2,1.3-5.2,0.4-6.6-1.9l-4.7-8.1
				c-0.1,0-0.2,0-0.3,0.1l-0.8,0.4l-45.1,26.4c-0.6,0.3-0.7,1.1-0.4,1.7L429.8-409.1z"/>
		</g>
		<g id="g7754_16_" transform="translate(257.3203,504.5)">
			<path id="path7756_16_" class="st16" d="M222.5-484.7c12.7,4,25.9,14.9,35,30.5c2,3.4,3.7,6.8,5.1,10.3c0.5,1.1,0.9,2.2,1.3,3.3
				c0.5,1.3,0.9,2.7,1.3,4c3.7,12.4,3.6,24.4,0,33.7l19.4-11.3l6.8-4c0.6-0.3,0.7-1.1,0.4-1.7l-7-12l-9.3-15.9l-21.7-37.2l-0.4-0.7
				c-0.1-0.1-0.1-0.2-0.2-0.2l-19.5-5.2c-0.1,0-0.2,0-0.3,0.1l-0.8,0.4L222.5-484.7z"/>
		</g>
		<g id="g7758_16_" transform="translate(331.5508,504.1592)">
			<path id="path7760_16_" class="st2" d="M159.4-490.9l4.7,8.1c1.4,2.4,4.4,3.2,6.6,1.9l8.2-4.8c-0.2-0.1-0.4-0.1-0.9-0.3
				l-17.6-4.7C159.9-490.8,159.6-490.9,159.4-490.9"/>
		</g>
		<g id="g7762_16_" transform="translate(331.5508,504.1592)">
			<path id="path7764_16_" class="st17" d="M159.4-490.9l4.7,8.1c1.4,2.4,4.4,3.2,6.6,1.9l7.4-4.3"/>
		</g>
		<g id="g7766_16_" transform="translate(413.1929,241.0635)">
			<path id="path7768_16_" class="st17" d="M97.5-222.3l26.7,45.7l11.7,20c0.3,0.6,0.2,1.3-0.4,1.7l-41.3,24.1l-16.1,9.4
				c-0.6,0.3-1.3,0.1-1.6-0.5l-25.9-44.3 M51.4-164.9l-20.1-34.4c-0.3-0.6-0.2-1.3,0.4-1.7l45.1-26.4l0.8-0.4
				c0.3-0.2,0.5-0.1,1.3,0.1l18.3,4.9"/>
		</g>
		<g>
			<g id="g7770_21_" transform="translate(330.2446,64.9756)">
				<path id="path7772_21_" class="st18" d="M199.1,24.9c-1.7,1.3-3.1-0.8-3.7-0.3c-0.4,0.4-0.1,1.2-0.3,2.3
					c-0.2,1.2-0.9,1.2-1.9,0.9c-2.2-0.6-0.7,2.5-3.3,2"/>
			</g>
			<g id="g7774_21_" transform="translate(423.1602,447.0527)">
				<path id="path7776_21_" class="st2" d="M95.2-394.1L99-395l-0.8-3.3c-0.3-1.1-1.3-1.7-2.4-1.5c-1.1,0.3-1.7,1.3-1.5,2.4
					L95.2-394.1z"/>
			</g>
			<g id="g7778_21_" transform="translate(325.644,101.1182)">
				<path id="path7780_21_" class="st19" d="M201.5-14l2,2.7c0.1,0.2,0.1,0.2,0.2,0l0.6-3.3l0.6-3.6l-3.2-1.2l-2.3,2.5L201.5-14z"/>
			</g>
			<g id="g7782_21_" transform="translate(412.0854,441.0947)">
				<path id="path7784_21_" class="st20" d="M105.6-387.1l7.3,30.1l2.8-0.7l2.8-0.7l-6.8-27.9l-0.5-2.2c-0.1-0.5-0.6-0.8-1.1-0.6
					l-3.9,0.9C105.8-388,105.5-387.5,105.6-387.1"/>
			</g>
			<g id="g7786_21_" transform="translate(452.5229,474.4854)">
				<path id="path7788_21_" class="st21" d="M66.9-425.3l0.8,3.3l1.9-0.5l-0.8-3.3c-0.3-1.1-1.3-1.7-2.4-1.5
					c-0.4,0.1-0.7,0.3-0.9,0.5C66.2-426.5,66.7-426,66.9-425.3"/>
			</g>
			<g id="g7790_21_" transform="translate(441.9307,407.96)">
				<path id="path7792_21_" class="st22" d="M79.9-352.6l6.5,26.6l0.3,1.3l1.9-0.5l-6.8-27.9l-0.5-2.2c-0.1-0.5-0.6-0.8-1.1-0.6
					l-1.9,0.5c0.5-0.1,0.9,0.2,1.1,0.6L79.9-352.6z"/>
			</g>
			<g id="g7794_21_" transform="translate(357.9888,127.2178)">
				<path id="path7796_21_" class="st23" d="M170.6-44l-0.6,3.6l-0.2,1.1l1.4,1.8c0.1,0.2,0.1,0.2,0.2,0l0.6-3.3l0.6-3.6L170.6-44z"
					/>
			</g>
			<g id="g7798_21_" transform="translate(461.3545,402.1719)">
				<path id="path7800_21_" class="st18" d="M62.4-347.3l3.2-0.8l2.6,10.9"/>
			</g>
			<g id="g7802_21_" transform="translate(374.0615,313.9443)">
				<path id="path7804_21_" class="st18" d="M146.7-247.3l-3.1-12.6c-0.1-0.5,0.2-0.9,0.6-1.1l3.9-0.9c0.5-0.1,0.9,0.2,1.1,0.6
					l7.3,30.1l-5.6,1.4l-3.5-14.2"/>
			</g>
			<g id="g7806_21_" transform="translate(331.5225,66.168)">
				<path id="path7808_21_" class="st18" d="M197.9,23.6l0.6-3.3l0.6-3.6l-2.8,0.7l-2.8,0.7l2.2,2.9l2,2.7
					C197.8,23.8,197.8,23.8,197.9,23.6z"/>
			</g>
			<g id="g7810_21_" transform="translate(423.1602,447.0527)">
				<path id="path7812_21_" class="st18" d="M95.2-394.1L99-395l-0.8-3.3c-0.3-1.1-1.3-1.7-2.4-1.5c-1.1,0.3-1.7,1.3-1.5,2.4
					L95.2-394.1z"/>
			</g>
		</g>
		<g>
			<path class="st24" d="M476.7,79.2c-0.4,0.2-0.5,0.7-0.3,1L481,88c0.2,0.4,0.7,0.5,1,0.3l7.8-4.6c0.4-0.2,0.5-0.7,0.3-1l-2.3-3.9
				c-0.2-0.4-0.1-0.8,0.3-1c0.4-0.2,0.8-0.1,1,0.3l2.3,3.9c0.6,1.1,0.3,2.5-0.8,3.1l-7.8,4.6c-1.1,0.6-2.5,0.3-3.1-0.8l-4.6-7.8
				c-0.6-1.1-0.3-2.5,0.8-3.1l6.5-3.8c0.4-0.2,0.8-0.1,1,0.3c0.2,0.4,0.1,0.8-0.3,1L476.7,79.2z M485.7,73.3
				c0.1-0.4,0.5-0.6,0.9-0.5c0.4,0.1,0.6,0.5,0.5,0.9l-2.4,9.3c-0.1,0.4-0.5,0.6-0.9,0.5l-3.1-0.8c-0.4-0.1-0.6-0.5-0.5-0.9
				c0.1-0.4,0.5-0.6,0.9-0.5l2.4,0.6L485.7,73.3z"/>
		</g>
		<g>
			<path class="st3" d="M500.2,39c-0.2-0.1-0.5-0.1-0.7,0.1c-0.1,0.1-0.2,0.1-0.3,0.2l-3.1,3.6c-0.3,0.4-0.3,1,0.1,1.3
				c0.4,0.3,1,0.3,1.3-0.1l1.6-1.9l0.6,7.5l-4.4,0.4c-0.5,0-0.9,0.5-0.9,1c0,0,0,0,0,0l0.7,8c0,0.5,0.5,0.9,1,0.9c0,0,0,0,0,0
				c0.5,0,0.9-0.5,0.9-1c0,0,0,0,0,0l-0.6-7.1l4.4-0.4c0.5,0,0.9-0.5,0.9-1c0,0,0,0,0,0l-0.7-8.4l1.9,1.6c0.4,0.3,1,0.3,1.3-0.1
				c0.3-0.4,0.3-1-0.1-1.3l-3.6-3.1C500.4,39.1,500.3,39,500.2,39L500.2,39z"/>
			<path class="st25" d="M499.6,38.9c-0.2-0.1-0.5-0.1-0.7,0.1c-0.1,0.1-0.2,0.1-0.3,0.2l-3.1,3.6c-0.3,0.4-0.3,1,0.1,1.3
				c0.4,0.3,1,0.3,1.3-0.1l1.6-1.9l0.6,7.5l-4.4,0.4c-0.5,0-0.9,0.5-0.9,1c0,0,0,0,0,0l0.7,8c0,0.5,0.5,0.9,1,0.9c0,0,0,0,0,0
				c0.5,0,0.9-0.5,0.9-1c0,0,0,0,0,0l-0.6-7.1l4.4-0.4c0.5,0,0.9-0.5,0.9-1c0,0,0,0,0,0l-0.7-8.4l1.9,1.6c0.4,0.3,1,0.3,1.3-0.1
				s0.3-1-0.1-1.3l-3.6-3.1C499.8,39,499.7,39,499.6,38.9L499.6,38.9z"/>
		</g>
		<g>
			<g>
				<path class="st3" d="M480.1,56.3l-2.5-1.6c-0.5-0.3-0.6-0.9-0.3-1.4c0.3-0.5,0.9-0.6,1.4-0.3l1.6,1.1L483,50
					c0.3-0.5,0.9-0.6,1.4-0.3c0.5,0.3,0.6,0.9,0.3,1.4l-3.2,4.9C481.1,56.4,480.5,56.6,480.1,56.3L480.1,56.3z M473.8,54.3l-6.7,1.4
					c-0.5,0.1-0.9,0.6-0.8,1.2s0.6,0.9,1.2,0.8l6.7-1.4c0.5-0.1,0.9-0.6,0.8-1.2C474.9,54.6,474.3,54.2,473.8,54.3z M484.8,57.7
					c-0.5-0.3-1.1-0.2-1.4,0.3l-1.4,2.2l-2.2-1.4c-0.5-0.3-1.1-0.2-1.4,0.3c-0.3,0.5-0.2,1.1,0.3,1.4l2.2,1.4l-1.4,2.2
					c-0.3,0.5-0.2,1.1,0.3,1.4c0.5,0.3,1.1,0.2,1.4-0.3l1.4-2.2l2.2,1.4c0.5,0.3,1.1,0.2,1.4-0.3c0.3-0.5,0.2-1.1-0.3-1.4l-2.2-1.4
					l1.4-2.2C485.4,58.6,485.3,58,484.8,57.7L484.8,57.7z M475.5,62l-6.7,1.4c-0.5,0.1-0.9,0.6-0.8,1.2c0.1,0.5,0.6,0.9,1.2,0.8
					l6.7-1.4c0.5-0.1,0.9-0.6,0.8-1.2C476.5,62.2,476,61.9,475.5,62z"/>
			</g>
			<g>
				<path class="st26" d="M480,55.7l-2.5-1.6c-0.5-0.3-0.6-0.9-0.3-1.4c0.3-0.5,0.9-0.6,1.4-0.3l1.6,1.1l2.7-4.1
					c0.3-0.5,0.9-0.6,1.4-0.3c0.5,0.3,0.6,0.9,0.3,1.4l-3.2,4.9C481,55.9,480.4,56,480,55.7L480,55.7z M473.7,53.8l-6.7,1.4
					c-0.5,0.1-0.9,0.6-0.8,1.2c0.1,0.5,0.6,0.9,1.2,0.8l6.7-1.4c0.5-0.1,0.9-0.6,0.8-1.2C474.7,54,474.2,53.6,473.7,53.8z
					 M484.7,57.1c-0.5-0.3-1.1-0.2-1.4,0.3l-1.4,2.2l-2.2-1.4c-0.5-0.3-1.1-0.2-1.4,0.3s-0.2,1.1,0.3,1.4l2.2,1.4l-1.4,2.2
					c-0.3,0.5-0.2,1.1,0.3,1.4s1.1,0.2,1.4-0.3l1.4-2.2l2.2,1.4c0.5,0.3,1.1,0.2,1.4-0.3c0.3-0.5,0.2-1.1-0.3-1.4l-2.2-1.4l1.4-2.2
					C485.3,58,485.2,57.4,484.7,57.1L484.7,57.1z M475.3,61.4l-6.7,1.4c-0.5,0.1-0.9,0.6-0.8,1.2c0.1,0.5,0.6,0.9,1.2,0.8l6.7-1.4
					c0.5-0.1,0.9-0.6,0.8-1.2C476.4,61.6,475.9,61.3,475.3,61.4z"/>
			</g>
		</g>
		<g>
			<path class="st3" d="M501.4,68.3l-1.9-0.5c-0.2,0-0.4,0.1-0.4,0.2c0,0.2,0.1,0.4,0.2,0.4l1.9,0.5c0.1,0,0.2,0,0.2,0
				s0.1-0.1,0.2-0.2C501.7,68.5,501.6,68.4,501.4,68.3z M503,63c-0.2,0.1-0.2,0.3-0.1,0.4l1,1.7c0.1,0.2,0.3,0.2,0.4,0.1
				c0.2-0.1,0.2-0.3,0.1-0.4l-1-1.7C503.4,62.9,503.2,62.9,503,63z M509.4,62.1c-0.2,0-0.4,0.1-0.4,0.2l-0.5,1.9
				c0,0.2,0.1,0.4,0.2,0.4c0.1,0,0.2,0,0.2,0c0.1,0,0.1-0.1,0.2-0.2l0.5-1.9C509.7,62.3,509.6,62.1,509.4,62.1L509.4,62.1z
				 M514,65.8l-1.7,1c-0.2,0.1-0.2,0.3-0.1,0.4c0.1,0.2,0.3,0.2,0.4,0.1l1.7-1c0.2-0.1,0.2-0.3,0.1-0.4
				C514.4,65.8,514.2,65.8,514,65.8z M501.8,73l-1.7,1c-0.2,0.1-0.2,0.3-0.1,0.4c0.1,0.2,0.3,0.2,0.4,0.1l1.7-1
				c0.2-0.1,0.2-0.3,0.1-0.4C502.1,73,501.9,72.9,501.8,73z M511.8,67.5c-1.5-2.5-4.7-3.3-7.2-1.9c-2.5,1.5-3.3,4.7-1.9,7.2
				c0.5,0.9,1.2,1.6,2.1,2l3.8,2.3l-0.2,0.1c-0.5,0.3-0.7,1-0.4,1.6c0.2,0.3,0.4,0.5,0.7,0.5c-0.1,0.3,0,0.6,0.1,0.9
				c0.3,0.5,1,0.7,1.6,0.4l0.8-0.5c0.5,0.5,1.3,0.7,2,0.3c0.7-0.4,0.9-1.2,0.7-1.9l0.8-0.5c0.5-0.3,0.7-1,0.4-1.6
				c-0.2-0.3-0.4-0.5-0.7-0.5c0.1-0.3,0-0.6-0.1-0.9c-0.3-0.5-1-0.7-1.6-0.4l-0.2,0.1l-0.2-4.4C512.5,69.4,512.3,68.4,511.8,67.5z
				 M512.9,79.9c-0.3,0.2-0.8,0.2-1.1-0.1l1.5-0.9C513.4,79.3,513.3,79.7,512.9,79.9z M514.5,77.5l-4.3,2.5
				c-0.2,0.1-0.5,0.1-0.7-0.2c-0.1-0.2-0.1-0.5,0.2-0.7l4.3-2.5c0.2-0.1,0.5-0.1,0.7,0.2C514.8,77.1,514.7,77.4,514.5,77.5z
				 M513.1,75.3c0.2-0.1,0.5-0.1,0.7,0.2c0.1,0.2,0.1,0.5-0.2,0.7l-4.3,2.5c-0.2,0.1-0.5,0.1-0.7-0.2c-0.1-0.2-0.1-0.5,0.2-0.7
				L513.1,75.3z M508.1,73.6l0.6-1.1l1.2,0l1.1,3.2l-0.7,0.4L508.1,73.6z M511.8,70.4l0.2,4.8l-0.5,0.3l-1.1-3.1l0.7-1.3
				c0.1-0.2,0-0.4-0.1-0.4c-0.2-0.1-0.4,0-0.4,0.1l-0.7,1.3l-1.4,0c-0.1,0-0.2,0.1-0.3,0.2l-0.7,1.3l-1.4,0c-0.2,0-0.3,0.1-0.3,0.3
				c0,0.2,0.1,0.3,0.3,0.3l1.5,0l2.2,2.5l-0.5,0.3l-4.1-2.5c0,0,0,0,0,0c-0.8-0.4-1.4-1-1.9-1.8c-1.3-2.2-0.5-5,1.6-6.3
				c2.2-1.3,5-0.5,6.3,1.6C511.7,68.6,511.9,69.5,511.8,70.4C511.8,70.4,511.8,70.4,511.8,70.4L511.8,70.4z"/>
			<path class="st27" d="M509.9,72.6l1.1,3.2l-0.7,0.4l-2.2-2.5l0.6-1.1L509.9,72.6z"/>
			<path class="st26" d="M511.2,67.9c0.4,0.8,0.7,1.6,0.6,2.5c0,0,0,0,0,0l0.2,4.8l-0.5,0.3l-1.1-3.1l0.7-1.3c0.1-0.2,0-0.4-0.1-0.4
				c-0.2-0.1-0.4,0-0.4,0.1l-0.7,1.3l-1.4,0c-0.1,0-0.2,0.1-0.3,0.2l-0.7,1.3l-1.4,0c-0.2,0-0.3,0.1-0.3,0.3c0,0.2,0.1,0.3,0.3,0.3
				l1.5,0l2.2,2.5l-0.5,0.3l-4.1-2.5c0,0,0,0,0,0c-0.8-0.4-1.4-1-1.9-1.8c-1.3-2.2-0.5-5,1.6-6.3C507.1,65,509.9,65.7,511.2,67.9
				L511.2,67.9z"/>
			<g>
				<path class="st27" d="M513.8,75.5c0.1,0.2,0.1,0.5-0.2,0.7l-4.3,2.5c-0.2,0.1-0.5,0.1-0.7-0.2c-0.1-0.2-0.1-0.5,0.2-0.7l4.3-2.5
					C513.4,75.1,513.7,75.2,513.8,75.5z"/>
				<path class="st27" d="M514.6,76.9c0.1,0.2,0.1,0.5-0.2,0.7l-4.3,2.5c-0.2,0.1-0.5,0.1-0.7-0.2c-0.1-0.2-0.1-0.5,0.2-0.7l4.3-2.5
					C514.2,76.6,514.5,76.6,514.6,76.9z"/>
				<path class="st27" d="M513.4,78.9c0.1,0.4-0.1,0.8-0.4,1c-0.3,0.2-0.8,0.2-1.1-0.1L513.4,78.9z"/>
			</g>
		</g>
		<g>
			<path class="st28" d="M476,79c-0.4,0.2-0.5,0.7-0.3,1l4.6,7.8c0.2,0.4,0.7,0.5,1,0.3l7.8-4.6c0.4-0.2,0.5-0.7,0.3-1l-2.3-3.9
				c-0.2-0.4-0.1-0.8,0.3-1c0.4-0.2,0.8-0.1,1,0.3l2.3,3.9c0.6,1.1,0.3,2.5-0.8,3.1l-7.8,4.6c-1.1,0.6-2.5,0.3-3.1-0.8l-4.6-7.8
				c-0.6-1.1-0.3-2.5,0.8-3.1l6.5-3.8c0.4-0.2,0.8-0.1,1,0.3s0.1,0.8-0.3,1L476,79z M485,73.1c0.1-0.4,0.5-0.6,0.9-0.5
				c0.4,0.1,0.6,0.5,0.5,0.9l-2.4,9.3c-0.1,0.4-0.5,0.6-0.9,0.5l-3.1-0.8c-0.4-0.1-0.6-0.5-0.5-0.9c0.1-0.4,0.5-0.6,0.9-0.5l2.4,0.6
				L485,73.1z"/>
		</g>
		<g>
			<path class="st3" d="M508.1,101.1C508.1,101.1,508.1,101.1,508.1,101.1c-0.4,0.2-0.6,0.2-0.9,0.2l-6.5-1.7l-1.7,6.6
				c-0.1,0.2-0.2,0.4-0.4,0.5l-0.1,0c0,0,0,0-0.1,0c-0.2,0.1-0.5,0.2-0.7,0.1c-0.5-0.1-0.9-0.7-0.7-1.2l1.7-6.6l-6.6-1.7
				c-0.5-0.2-0.8-0.8-0.6-1.3c0.1-0.2,0.2-0.4,0.5-0.6c0.2-0.1,0.5-0.2,0.7-0.1l6.6,1.7l1.7-6.5c0.1-0.2,0.2-0.5,0.5-0.6
				c0.2-0.1,0.5-0.2,0.8-0.1c0.5,0.1,0.8,0.6,0.7,1.1l-1.7,6.6l6.6,1.7c0.6,0.1,0.9,0.7,0.8,1.2c0,0,0,0,0,0
				C508.5,100.7,508.3,100.9,508.1,101.1z"/>
			<path class="st12" d="M508,100.5C508,100.5,508,100.6,508,100.5c-0.4,0.2-0.6,0.2-0.9,0.2l-6.5-1.7l-1.7,6.6
				c-0.1,0.2-0.2,0.4-0.4,0.5l-0.1,0c0,0,0,0-0.1,0c-0.2,0.1-0.5,0.2-0.7,0.1c-0.5-0.1-0.9-0.7-0.7-1.2l1.7-6.6l-6.6-1.7
				c-0.5-0.2-0.8-0.8-0.6-1.3c0.1-0.2,0.2-0.4,0.5-0.6c0.2-0.1,0.5-0.2,0.7-0.1l6.6,1.7l1.7-6.5c0.1-0.2,0.2-0.5,0.5-0.6
				c0.2-0.1,0.5-0.2,0.8-0.1c0.5,0.1,0.8,0.6,0.7,1.1l-1.7,6.6l6.6,1.7c0.6,0.1,0.9,0.7,0.8,1.2c0,0,0,0,0,0
				C508.4,100.2,508.2,100.4,508,100.5z"/>
		</g>
		<g>
			<g id="g7830_17_" transform="translate(293.2144,407.6475)">
				<path id="path7832_17_" class="st29" d="M197-379.4l-20.7,12.1c-0.4,0.2-0.5,0.7-0.3,1l2.2,3.8c0.2,0.4,0.7,0.5,1,0.3l20.7-12.1
					c0.4-0.2,0.5-0.7,0.3-1l-2.2-3.8C197.8-379.5,197.4-379.6,197-379.4"/>
			</g>
			<g id="g7834_17_" transform="translate(293.2144,407.6475)">
				<path id="path7836_17_" class="st30" d="M197-379.4l-5.9,3.4c0.4-0.2,0.8-0.1,1,0.3l2.2,3.8c0.2,0.4,0.1,0.8-0.3,1l5.9-3.4
					c0.4-0.2,0.5-0.7,0.3-1l-2.2-3.8C197.8-379.5,197.4-379.6,197-379.4"/>
			</g>
			<g id="g7838_17_" transform="translate(128.1699,407.6475)">
				<path id="path7840_17_" class="st31" d="M341.4-367.3l20.7-12.1c0.4-0.2,0.8-0.1,1,0.3l2.2,3.8c0.2,0.4,0.1,0.8-0.3,1
					l-20.7,12.1c-0.4,0.2-0.8,0.1-1-0.3l-2.2-3.8C340.9-366.7,341-367.1,341.4-367.3z"/>
			</g>
		</g>
		<g>
			<path class="st32" d="M473.3,12.7c-1.5-2.5-4.7-3.3-7.2-1.9c-2.5,1.5-3.3,4.7-1.9,7.2l-9,5.3l5.3,9c0.7,1.2,2.3,1.6,3.5,0.9
				l22.8-13.3c1.2-0.7,1.6-2.3,0.9-3.5l-5.3-9L473.3,12.7z"/>
			<path class="st33" d="M465.5,32.3l21.2-12.4c1.2-0.7,1.6-2.3,0.9-3.5l-5.3-9l-9,5.3c-1.5-2.5-4.7-3.3-7.2-1.9
				c-2.5,1.5-3.3,4.7-1.9,7.2l-9,5.3l5.3,9c0.7,1.2,2.3,1.6,3.5,0.9l3.2-1.9"/>
			<line class="st33" x1="463.8" y1="27.4" x2="481.8" y2="16.8"/>
			<g>
				<g>
					<line class="st33" x1="468.8" y1="15.3" x2="468.8" y2="15.3"/>
				</g>
			</g>
		</g>
	</g>
	<g>
		<path class="st34" d="M215.4,142.7l85.2,28.4c2.6,0.9,5.4-0.5,6.2-3.1l28.7-86L262,57.4l-21.8,10.9L215.4,142.7z"/>
		<circle class="st35" cx="321.7" cy="84.3" r="1.8"/>
		<circle class="st35" cx="303.2" cy="78.2" r="1.8"/>
		<circle class="st35" cx="284.8" cy="72" r="1.8"/>
		<circle class="st35" cx="266.3" cy="65.9" r="1.8"/>
		<path class="st36" d="M285.7,107.1l-4,12.2l0,0l-7-2.3c-0.6-0.2-1-0.9-0.8-1.6l3.3-9.8c0.2-0.6,0.9-1,1.6-0.8L285.7,107.1
			L285.7,107.1z"/>
		<path class="st37" d="M316,98l-9.4,28.3c-0.2,0.6-0.9,1-1.6,0.8l-7-2.3l0,0l9.8-29.4c0.2-0.6,0.9-1,1.6-0.8l5.8,1.9
			C315.9,96.6,316.2,97.3,316,98z"/>
		<path class="st38" d="M295.9,103.7l-6.1,18.2l0,0l-8.2-2.7l0,0l5.7-17.1c0.2-0.6,0.9-1,1.6-0.8L295.9,103.7L295.9,103.7z"/>
		<path class="st39" d="M306.2,100.1l-8.2,24.5l0,0l-8.2-2.7l0,0l7.8-23.4c0.2-0.6,0.9-1,1.6-0.8L306.2,100.1L306.2,100.1z"/>
		<path class="st40" d="M227.1,146.6l-11.7-3.9l24.8-74.3l9.3-4.7L224,140.3C223.1,142.9,224.5,145.7,227.1,146.6z"/>
		<path class="st41" d="M240.2,68.4l11.7,3.9c2.6,0.9,5.4-0.5,6.2-3.1v0l3.9-11.7L240.2,68.4z"/>
		<path class="st35" d="M270.6,98.7l-25.7-8.6c-1-0.3-1.5-1.4-1.2-2.3c0.3-1,1.4-1.5,2.3-1.2l25.7,8.6c1,0.3,1.5,1.4,1.2,2.3
			C272.6,98.5,271.6,99.1,270.6,98.7z"/>
		<path class="st35" d="M260.9,104.3l-9.1-3c-1-0.3-1.5-1.4-1.2-2.3c0.3-1,1.4-1.5,2.3-1.2l9.1,3c1,0.3,1.5,1.4,1.2,2.3
			C262.9,104.1,261.9,104.7,260.9,104.3z"/>
		<path class="st35" d="M246.4,99.5l-4.1-1.4c-1-0.3-1.5-1.4-1.2-2.3c0.3-1,1.4-1.5,2.3-1.2l4.1,1.4c1,0.3,1.5,1.4,1.2,2.3
			C248.4,99.3,247.3,99.8,246.4,99.5z"/>
		<path class="st35" d="M273.3,90.8l-19.2-6.4c-1-0.3-1.5-1.4-1.2-2.3c0.3-1,1.4-1.5,2.3-1.2l19.2,6.4c1,0.3,1.5,1.4,1.2,2.3
			C275.3,90.6,274.2,91.1,273.3,90.8z"/>
		<circle class="st35" cx="249.9" cy="81.1" r="1.8"/>
		<circle class="st35" cx="266.8" cy="104.4" r="1.8"/>
		<path class="st35" d="M296.5,148.9l-25.7-8.6c-1-0.3-1.5-1.4-1.2-2.3c0.3-1,1.4-1.5,2.3-1.2l25.7,8.6c1,0.3,1.5,1.4,1.2,2.3
			C298.5,148.7,297.4,149.2,296.5,148.9z"/>
		<path class="st35" d="M286.8,154.5l-9.1-3c-1-0.3-1.5-1.4-1.2-2.3c0.3-1,1.4-1.5,2.3-1.2l9.1,3c1,0.3,1.5,1.4,1.2,2.3
			C288.8,154.3,287.7,154.8,286.8,154.5z"/>
		<path class="st35" d="M272.2,149.6l-4.1-1.4c-1-0.3-1.5-1.4-1.2-2.3c0.3-1,1.4-1.5,2.3-1.2l4.1,1.4c1,0.3,1.5,1.4,1.2,2.3
			C274.2,149.4,273.2,149.9,272.2,149.6z"/>
		<path class="st35" d="M299.1,140.9l-19.2-6.4c-1-0.3-1.5-1.4-1.2-2.3c0.3-1,1.4-1.5,2.3-1.2l19.2,6.4c1,0.3,1.5,1.4,1.2,2.3
			C301.1,140.7,300.1,141.2,299.1,140.9z"/>
		<circle class="st35" cx="275.8" cy="131.2" r="1.8"/>
		<circle class="st35" cx="292.7" cy="154.5" r="1.8"/>
		<path class="st42" d="M262.4,145l2.3-6.9c0.4-1.2-0.2-2.5-1.3-3l-5-2.2c0-1.4-0.1-2.7-0.3-4.1l4.6-2.9c1.1-0.7,1.5-2.1,0.9-3.2
			l-3.3-6.5c-0.6-1.1-1.9-1.7-3.1-1.2l-5.1,2c-0.9-1-2-1.9-3.1-2.7l1.2-5.3c0.3-1.2-0.4-2.5-1.6-2.9l-6.9-2.3
			c-1.2-0.4-2.5,0.2-3,1.3l-2.2,5c-1.4,0-2.7,0.1-4.1,0.3l-2.9-4.6c-0.7-1.1-2.1-1.5-3.2-0.9l-6.5,3.3c-1.1,0.6-1.7,1.9-1.2,3.1
			l2,5.1c-1,0.9-1.9,2-2.7,3.1l-5.3-1.2c-1.2-0.3-2.5,0.4-2.9,1.6l-2.3,6.9c-0.4,1.2,0.2,2.5,1.3,3l5,2.2c0,1.4,0.1,2.7,0.3,4.1
			l-4.6,2.9c-1.1,0.7-1.5,2.1-0.9,3.2l3.3,6.5c0.6,1.1,1.9,1.7,3.1,1.2l5.1-2c0.9,1,2,1.9,3.1,2.7l-1.2,5.3
			c-0.3,1.2,0.4,2.5,1.6,2.9l6.9,2.3c1.2,0.4,2.5-0.2,3-1.3l2.2-5c1.4,0,2.7-0.1,4.1-0.3l2.9,4.6c0.7,1.1,2.1,1.5,3.2,0.9l6.5-3.3
			c1.1-0.6,1.7-1.9,1.2-3.1l-2-5.1c1-0.9,1.9-2,2.7-3.1l5.3,1.2C260.7,146.9,261.9,146.2,262.4,145L262.4,145z M232.7,142.3
			c-5.5-1.8-8.5-7.8-6.6-13.3c1.8-5.5,7.8-8.5,13.3-6.6c5.5,1.8,8.5,7.8,6.6,13.3l0,0C244.1,141.2,238.2,144.1,232.7,142.3z"/>
		<path class="st43" d="M226.4,104.8l-6.5,3.3c-1.1,0.6-1.7,1.9-1.2,3.1l2,5.1c3.2-3.1,7.4-5.2,11.8-5.9l-2.9-4.6
			C228.9,104.7,227.5,104.3,226.4,104.8L226.4,104.8z"/>
		<path class="st43" d="M214.1,136l-4.6,2.9c-1.1,0.7-1.5,2.1-0.9,3.2l3.3,6.5c0.6,1.1,1.9,1.7,3.1,1.2l5.1-2
			C216.9,144.5,214.8,140.4,214.1,136z"/>
		<path class="st43" d="M214.9,125.3c0.7-2.1,1.7-4.1,3-5.9l-5.3-1.2c-1.2-0.3-2.5,0.4-2.9,1.6l-2.3,6.9c-0.4,1.2,0.2,2.5,1.3,3
			l5,2.2C213.8,129.6,214.2,127.4,214.9,125.3L214.9,125.3z"/>
		<path class="st43" d="M240.3,119.5c-7.1-2.4-14.8,1.5-17.1,8.6s1.5,14.8,8.6,17.1s14.8-1.5,17.1-8.6l0,0
			C251.3,129.5,247.4,121.9,240.3,119.5z M234.1,138.2c-3.2-1.1-5-4.6-3.9-7.8c1.1-3.2,4.6-5,7.8-3.9c3.2,1.1,5,4.6,3.9,7.8
			C240.8,137.5,237.3,139.3,234.1,138.2z"/>
		<path class="st44" d="M325.5,92.5l-16.1,48.2l1.4,11.9c0.1,0.7,0.7,1.2,1.4,1.1c0.3,0,0.6-0.2,0.8-0.4l8.2-8.7l16.1-48.2
			L325.5,92.5z"/>
		<path class="st45" d="M339.6,89.3l-11.7-3.9l1.6-4.7c1.1-3.2,4.6-5,7.8-3.9c3.2,1.1,5,4.6,3.9,7.8L339.6,89.3z"/>
		<path class="st46" d="M327.9,85.5l11.7,3.9l-2.3,7l-11.7-3.9L327.9,85.5z"/>
		<path class="st47" d="M327.9,85.5l4.7,1.6l-2.3,7l-4.7-1.6L327.9,85.5z"/>
		<path class="st48" d="M315.1,150.9l-2.2,2.3c-0.5,0.5-1.2,0.5-1.7,0c-0.2-0.2-0.3-0.5-0.4-0.8l-1.4-11.9l16.1-48.2l4.7,1.6
			l-16.1,48.2L315.1,150.9z"/>
		<path class="st49" d="M336,76.6L332.6,87l-4.7-1.6l1.6-4.7C330.4,78,333.1,76.3,336,76.6z"/>
		<g>
			<g>
				<path class="st3" d="M236,146.7c-1.5,0-3.1-0.2-4.5-0.7c-3.6-1.2-6.6-3.8-8.3-7.2c-1.7-3.4-2-7.3-0.8-10.9
					c2-5.9,7.4-9.8,13.6-9.8c1.5,0,3.1,0.2,4.5,0.7c2.8,0.9,5.2,2.7,6.9,5c0.1,0.2,0.2,0.4,0.1,0.6s-0.1,0.4-0.3,0.5
					c-0.2,0.1-0.4,0.2-0.5,0.2c-0.3,0-0.5-0.1-0.6-0.3c-2.4-3.2-6.2-5.1-10.2-5.1c-2.8,0-5.4,0.9-7.7,2.6c-2.7,2-4.5,5-5,8.4
					c-0.5,3.4,0.4,6.7,2.4,9.5c2.4,3.2,6.2,5.1,10.2,5.1c2.8,0,5.4-0.9,7.7-2.6c4-3,5.9-8.2,4.8-13.1c0-0.2,0-0.4,0.1-0.6
					c0.1-0.2,0.3-0.3,0.5-0.4c0.1,0,0.1,0,0.2,0c0.4,0,0.7,0.2,0.8,0.6c1.8,7.7-3,15.4-10.7,17.2C238.3,146.6,237.2,146.7,236,146.7
					z M236,139.3c-0.7,0-1.5-0.1-2.2-0.4c-1.8-0.6-3.2-1.8-4-3.5c-0.8-1.7-1-3.5-0.4-5.3c0.9-2.8,3.6-4.8,6.6-4.8
					c0.7,0,1.5,0.1,2.2,0.4c1.8,0.6,3.2,1.8,4,3.5c0.8,1.7,1,3.5,0.4,5.3C241.7,137.4,239,139.3,236,139.3z M236,127
					c-2.3,0-4.4,1.5-5.1,3.7c-0.5,1.4-0.3,2.8,0.3,4.1c0.6,1.3,1.7,2.2,3.1,2.7c0.6,0.2,1.1,0.3,1.7,0.3c2.3,0,4.4-1.5,5.1-3.7
					c0.9-2.8-0.6-5.9-3.4-6.8C237.2,127.1,236.6,127,236,127z"/>
				<path class="st3" d="M236,147.1c-1.6,0-3.2-0.3-4.7-0.8c-3.7-1.2-6.8-3.9-8.5-7.4c-1.8-3.5-2-7.5-0.8-11.2c2-6,7.6-10.1,14-10.1
					c1.6,0,3.1,0.3,4.7,0.8c2.9,1,5.3,2.7,7.1,5.1c0.2,0.3,0.3,0.6,0.2,0.9c0,0.3-0.2,0.6-0.5,0.8c-0.3,0.2-0.5,0.2-0.7,0.2
					c-0.4,0-0.7-0.2-1-0.5c-2.4-3.1-6-4.9-9.9-4.9c-2.7,0-5.3,0.9-7.4,2.5c-2.6,2-4.3,4.9-4.8,8.2c-0.5,3.3,0.4,6.5,2.4,9.2
					c2.4,3.1,6,4.9,9.9,4.9c2.7,0,5.3-0.9,7.4-2.5c3.9-2.9,5.7-7.9,4.6-12.7c-0.1-0.3,0-0.6,0.1-0.9c0.2-0.3,0.4-0.5,0.7-0.5
					c0.7-0.1,1.3,0.3,1.4,0.9c1.9,7.9-3.1,15.8-11,17.7C238.3,147,237.2,147.1,236,147.1z M236,118.4c-6,0-11.3,3.8-13.2,9.5
					c-1.2,3.5-0.9,7.3,0.8,10.6s4.5,5.8,8.1,7c2.4,0.8,5.1,0.9,7.6,0.3c7.5-1.8,12.1-9.3,10.4-16.7c0-0.2-0.2-0.3-0.4-0.3
					c-0.2,0-0.3,0.1-0.3,0.2c-0.1,0.1-0.1,0.2,0,0.3c1.2,5.1-0.7,10.4-4.9,13.5c-2.3,1.7-5,2.6-7.9,2.6c-4.2,0-8-1.9-10.5-5.3
					c-2.1-2.8-3-6.3-2.5-9.8c0.5-3.5,2.3-6.6,5.1-8.7c2.3-1.7,5-2.6,7.9-2.6c4.2,0,8,1.9,10.5,5.3c0.1,0.2,0.4,0.2,0.5,0.1
					c0.1-0.1,0.1-0.2,0.2-0.3s0-0.2-0.1-0.3c-1.7-2.3-4-4-6.7-4.9C239,118.7,237.5,118.4,236,118.4z M236,139.7
					c-0.8,0-1.6-0.1-2.3-0.4c-1.9-0.6-3.4-1.9-4.2-3.7c-0.9-1.8-1-3.7-0.4-5.6c1-3,3.8-5,7-5c0.8,0,1.6,0.1,2.3,0.4
					c1.9,0.6,3.4,1.9,4.2,3.7c0.9,1.8,1,3.7,0.4,5.6C242,137.7,239.2,139.7,236,139.7z M236,125.8c-2.8,0-5.3,1.8-6.2,4.5
					c-0.6,1.7-0.4,3.4,0.4,5c0.8,1.6,2.1,2.7,3.8,3.3c0.7,0.2,1.4,0.3,2.1,0.3c2.8,0,5.3-1.8,6.2-4.5c0.6-1.7,0.4-3.4-0.4-5
					c-0.8-1.6-2.1-2.7-3.8-3.3C237.4,125.9,236.7,125.8,236,125.8z M236,138.1c-0.6,0-1.2-0.1-1.8-0.3c-1.5-0.5-2.6-1.5-3.3-2.9
					c-0.7-1.4-0.8-2.9-0.3-4.4c0.8-2.4,3-3.9,5.5-3.9c0.6,0,1.2,0.1,1.8,0.3c3,1,4.6,4.3,3.6,7.3C240.7,136.5,238.5,138.1,236,138.1
					z M236,127.4c-2.1,0-4,1.4-4.7,3.4c-0.4,1.3-0.3,2.6,0.3,3.8c0.6,1.2,1.6,2.1,2.9,2.5c0.5,0.2,1,0.3,1.6,0.3
					c2.1,0,4-1.4,4.7-3.4c0.9-2.6-0.5-5.4-3.1-6.3C237.1,127.5,236.6,127.4,236,127.4z"/>
			</g>
			<g>
				<path class="st3" d="M302.2,172.1c-0.6,0-1.2-0.1-1.8-0.3l-46.5-15.5l-0.5,0.4c-0.2,0.2-0.5,0.4-0.8,0.6l-6.5,3.3
					c-0.5,0.2-1,0.4-1.5,0.4c-1.1,0-2.2-0.6-2.8-1.5l-2.6-4.2l-0.7,0.1c-0.6,0.1-1.2,0.1-1.9,0.1l-0.7,0l-2,4.5c-0.5,1.2-1.7,2-3,2
					c-0.4,0-0.7-0.1-1-0.2l-6.9-2.3c-1.6-0.5-2.5-2.2-2.1-3.8l1.1-4.8l-0.5-0.4c-0.5-0.4-0.9-0.8-1.4-1.2l-0.5-0.5l-4.6,1.8
					c-0.4,0.2-0.8,0.2-1.2,0.2c-1.2,0-2.3-0.7-2.9-1.8l-3.3-6.5c-0.8-1.5-0.2-3.3,1.2-4.2l4.2-2.6l-0.1-0.7
					c-0.1-0.6-0.1-1.2-0.1-1.8l0-0.7l-4.5-2c-1.5-0.7-2.3-2.4-1.8-4l2.3-6.9c0.4-1.3,1.7-2.2,3.1-2.2c0.3,0,0.5,0,0.8,0.1l4.8,1.1
					l0.4-0.5c0.4-0.5,0.8-0.9,1.2-1.4l0.5-0.5l-1.8-4.6c-0.6-1.6,0.1-3.4,1.6-4.1l6.5-3.3c0.5-0.2,1-0.4,1.5-0.4
					c1.1,0,2.2,0.6,2.8,1.5l2.6,4.2l0.7-0.1c0.6-0.1,1.2-0.1,1.8-0.1l0.7,0l2-4.5c0.5-1.2,1.7-2,3-2c0.4,0,0.7,0.1,1,0.2l6.9,2.3
					c1.6,0.5,2.5,2.2,2.1,3.8l-1.1,4.8l0.5,0.4c0.5,0.4,1,0.8,1.4,1.2l0.5,0.5l4.6-1.8c0.4-0.2,0.8-0.2,1.2-0.2
					c1.2,0,2.3,0.7,2.9,1.8l3.3,6.5c0.8,1.5,0.2,3.3-1.2,4.2l-4.2,2.6l0.1,0.7c0.1,0.6,0.1,1.2,0.1,1.9l0,0.7l4.5,2
					c1.5,0.7,2.3,2.4,1.8,4l-2.3,6.9c-0.4,1.3-1.7,2.2-3.1,2.2c-0.3,0-0.5,0-0.8-0.1l-4.8-1.1l-0.4,0.5c-0.4,0.5-0.8,0.9-1.2,1.4
					l-0.5,0.5l1.8,4.6c0.1,0.3,0.2,0.6,0.2,0.9l0.1,0.7l46.4,15.5c0.4,0.1,0.9,0.2,1.3,0.2c1.8,0,3.4-1.1,3.9-2.8l2.9-8.8
					c0.1-0.3,0.4-0.5,0.7-0.5c0.1,0,0.2,0,0.2,0c0.4,0.1,0.6,0.6,0.5,1l-2.9,8.8C306.8,170.5,304.7,172.1,302.2,172.1L302.2,172.1z
					 M220,147c0.2,0,0.4,0.1,0.6,0.2c0.9,0.9,1.9,1.8,3,2.6c0.3,0.2,0.4,0.5,0.3,0.8l-1.2,5.3c-0.2,0.8,0.3,1.7,1.1,2l6.9,2.3
					c0.2,0.1,0.3,0.1,0.5,0.1c0.7,0,1.3-0.4,1.5-1l2.2-5c0.1-0.3,0.4-0.5,0.7-0.5l0.5,0c1.2,0,2.3-0.1,3.5-0.3c0,0,0.1,0,0.1,0
					c0.3,0,0.5,0.1,0.7,0.4l2.9,4.6c0.3,0.5,0.8,0.8,1.4,0.8c0.3,0,0.5-0.1,0.8-0.2l6.5-3.3c0.8-0.4,1.1-1.3,0.8-2.1l-2-5.1
					c-0.1-0.3,0-0.6,0.2-0.9c1-0.9,1.8-1.9,2.6-3c0.1-0.2,0.4-0.3,0.6-0.3c0.1,0,0.1,0,0.2,0l5.3,1.2c0.1,0,0.3,0,0.4,0
					c0.7,0,1.4-0.5,1.6-1.2l2.3-6.9c0.3-0.8-0.1-1.7-0.9-2.1l-5-2.2c-0.3-0.1-0.5-0.4-0.5-0.7c0-1.3-0.1-2.6-0.3-3.9
					c-0.1-0.3,0.1-0.6,0.4-0.8l4.6-2.9c0.7-0.4,1-1.4,0.6-2.2l-3.3-6.5c-0.3-0.6-0.9-0.9-1.5-0.9c-0.2,0-0.4,0-0.6,0.1l-5.1,2
					c-0.1,0-0.2,0.1-0.3,0.1c-0.2,0-0.4-0.1-0.6-0.2c-0.9-1-1.9-1.8-3-2.6c-0.3-0.2-0.4-0.5-0.3-0.8l1.2-5.3c0.2-0.8-0.3-1.7-1.1-2
					l-6.9-2.3c-0.2-0.1-0.3-0.1-0.5-0.1c-0.7,0-1.3,0.4-1.5,1l-2.2,5c-0.1,0.3-0.4,0.5-0.7,0.5l-0.4,0c-1.2,0-2.4,0.1-3.5,0.3
					c0,0-0.1,0-0.1,0c-0.3,0-0.5-0.1-0.7-0.4l-2.9-4.6c-0.3-0.5-0.8-0.8-1.4-0.8c-0.3,0-0.5,0.1-0.8,0.2l-6.5,3.3
					c-0.8,0.4-1.1,1.3-0.8,2.1l2,5.1c0.1,0.3,0,0.6-0.2,0.9c-1,0.9-1.8,1.9-2.6,3c-0.1,0.2-0.4,0.3-0.6,0.3c-0.1,0-0.1,0-0.2,0
					l-5.3-1.2c-0.1,0-0.3,0-0.4,0c-0.7,0-1.4,0.5-1.6,1.2l-2.3,6.9c-0.3,0.8,0.1,1.7,0.9,2.1l5,2.2c0.3,0.1,0.5,0.4,0.5,0.7
					c0,1.3,0.1,2.6,0.3,3.9c0.1,0.3-0.1,0.6-0.4,0.8l-4.6,2.9c-0.7,0.5-1,1.4-0.6,2.2l3.3,6.5c0.3,0.6,0.9,0.9,1.5,0.9
					c0.2,0,0.4,0,0.6-0.1l5.1-2C219.8,147,219.9,147,220,147z"/>
				<path class="st3" d="M302.2,172.5c-0.7,0-1.3-0.1-1.9-0.3L254,156.8l-0.3,0.3c-0.3,0.3-0.6,0.5-0.9,0.6l-6.5,3.3
					c-0.5,0.3-1.1,0.4-1.6,0.4c-1.3,0-2.4-0.6-3.1-1.7l-2.5-4l-0.4,0c-0.6,0.1-1.2,0.1-1.9,0.1l-0.4,0l-1.9,4.3
					c-0.6,1.3-1.9,2.2-3.3,2.2c-0.4,0-0.8-0.1-1.2-0.2l-6.9-2.3c-1.8-0.6-2.8-2.5-2.4-4.3l1.1-4.6l-0.3-0.3c-0.5-0.4-1-0.8-1.4-1.2
					l-0.3-0.3l-4.4,1.7c-0.4,0.2-0.9,0.3-1.3,0.3c-1.4,0-2.6-0.8-3.3-2l-3.3-6.5c-0.8-1.7-0.3-3.8,1.3-4.7l4-2.5l0-0.4
					c-0.1-0.6-0.1-1.2-0.1-1.9l0-0.4l-4.3-1.9c-1.7-0.7-2.6-2.7-2-4.5l2.3-6.9c0.5-1.5,1.9-2.5,3.4-2.5c0.3,0,0.6,0,0.8,0.1l4.6,1.1
					l0.3-0.3c0.4-0.5,0.8-1,1.2-1.4l0.3-0.3l-1.7-4.4c-0.7-1.7,0.1-3.8,1.8-4.6l6.5-3.3c0.5-0.3,1.1-0.4,1.6-0.4
					c1.3,0,2.4,0.6,3.1,1.7l2.5,4l0.4,0c0.6-0.1,1.2-0.1,1.9-0.1l0.4,0l1.9-4.3c0.6-1.3,1.9-2.2,3.3-2.2c0.4,0,0.8,0.1,1.2,0.2
					l6.9,2.3c1.8,0.6,2.8,2.5,2.4,4.3l-1.1,4.6l0.3,0.3c0.5,0.4,1,0.8,1.4,1.2l0.3,0.3l4.4-1.7c0.4-0.2,0.9-0.3,1.3-0.3
					c1.4,0,2.6,0.8,3.3,2l3.3,6.5c0.8,1.7,0.3,3.8-1.3,4.7l-4,2.5l0,0.4c0.1,0.6,0.1,1.3,0.1,1.9l0,0.4l4.3,1.9
					c1.7,0.7,2.6,2.7,2,4.5l-2.3,6.9c-0.5,1.5-1.9,2.5-3.4,2.5c-0.3,0-0.6,0-0.8-0.1l-4.6-1.1l-0.3,0.3c-0.4,0.5-0.8,1-1.2,1.4
					l-0.3,0.3l1.7,4.4c0.1,0.3,0.2,0.7,0.2,1l0,0.4l46.2,15.4c0.4,0.1,0.8,0.2,1.2,0.2c1.6,0,3-1,3.6-2.6l2.9-8.8
					c0.2-0.6,0.9-1,1.5-0.7c0.3,0.1,0.5,0.3,0.7,0.6c0.1,0.3,0.2,0.6,0.1,0.9l-2.9,8.8C307.2,170.8,304.8,172.5,302.2,172.5z
					 M253.8,155.9l0.2,0.1l46.5,15.5c0.5,0.2,1.1,0.3,1.7,0.3c2.3,0,4.3-1.5,5-3.6l2.9-8.8c0-0.1,0-0.2,0-0.3c0-0.1-0.1-0.2-0.2-0.2
					c-0.2-0.1-0.4,0-0.5,0.2l-2.9,8.8c-0.6,1.9-2.4,3.1-4.3,3.1c-0.5,0-1-0.1-1.4-0.2l-46.7-15.6l-0.1-1c0-0.3-0.1-0.6-0.2-0.8
					l-1.9-4.8l0.6-0.7c0.4-0.4,0.8-0.9,1.2-1.4l0.6-0.7l5,1.2c1.4,0.3,2.9-0.5,3.4-1.9l2.3-6.9c0.5-1.4-0.2-2.9-1.6-3.5l-4.7-2.1
					l0-0.9c0-0.6-0.1-1.2-0.1-1.8l-0.1-0.9l4.4-2.7c1.2-0.8,1.7-2.4,1-3.7l-3.3-6.5c-0.6-1.3-2.2-1.9-3.6-1.4l-4.8,1.9l-0.7-0.6
					c-0.4-0.4-0.9-0.8-1.4-1.2l-0.7-0.6l1.2-5c0.3-1.4-0.5-2.9-1.9-3.4l-6.9-2.3c-1.4-0.5-2.9,0.2-3.5,1.6l-2.1,4.7l-0.9,0
					c-0.6,0-1.2,0.1-1.8,0.1l-0.9,0.1l-2.7-4.4c-0.8-1.2-2.4-1.7-3.7-1l-6.5,3.3c-1.3,0.6-1.9,2.2-1.4,3.6l1.9,4.8l-0.6,0.7
					c-0.4,0.4-0.8,0.9-1.2,1.4l-0.6,0.7l-5-1.2c-1.4-0.3-2.9,0.5-3.4,1.9l-2.3,6.9c-0.5,1.4,0.2,2.9,1.6,3.5l4.7,2.1l0,0.9
					c0,0.6,0.1,1.2,0.1,1.8l0.1,0.9l-4.4,2.7c-1.2,0.8-1.7,2.4-1,3.7l3.3,6.5c0.6,1.3,2.2,1.9,3.6,1.4l4.8-1.9l0.7,0.6
					c0.4,0.4,0.9,0.8,1.4,1.2l0.7,0.6l-1.2,5c-0.3,1.4,0.5,2.9,1.9,3.4l6.9,2.3c1.4,0.5,2.9-0.2,3.5-1.6l2.1-4.7l0.9,0
					c0.6,0,1.2-0.1,1.8-0.1l0.9-0.1l2.7,4.4c0.8,1.2,2.4,1.7,3.7,1l6.5-3.3c0.3-0.1,0.5-0.3,0.7-0.5L253.8,155.9z M231.1,160.7
					c-0.2,0-0.4,0-0.7-0.1l-6.9-2.3c-1-0.3-1.6-1.4-1.4-2.4l1.2-5.3c0-0.2,0-0.3-0.2-0.4c-1.1-0.8-2.1-1.7-3-2.6
					c-0.1-0.1-0.3-0.2-0.4-0.1l-5.1,2c-1,0.4-2.2-0.1-2.6-1l-3.3-6.5c-0.5-1-0.2-2.1,0.8-2.7l4.6-2.9c0.1-0.1,0.2-0.2,0.2-0.4
					c-0.2-1.3-0.3-2.7-0.3-4c0-0.2-0.1-0.3-0.2-0.4l-5-2.2c-1-0.4-1.5-1.5-1.1-2.6l2.3-6.9c0.3-1,1.4-1.6,2.4-1.4l5.3,1.2
					c0.2,0,0.3-0.1,0.4-0.2c0.8-1.1,1.7-2.1,2.6-3c0.1-0.1,0.2-0.3,0.1-0.4l-2-5.1c-0.4-1,0-2.1,1-2.6l6.5-3.3
					c0.9-0.5,2.1-0.1,2.7,0.8l2.9,4.6c0.1,0.1,0.2,0.2,0.3,0.2c1.2-0.2,2.4-0.3,3.6-0.3l0.4,0c0.2,0,0.3-0.1,0.4-0.2l2.2-5
					c0.4-1,1.6-1.5,2.6-1.1l6.9,2.3c1,0.3,1.6,1.4,1.4,2.4l-1.2,5.3c0,0.2,0,0.3,0.2,0.4c1.1,0.8,2.1,1.7,3,2.6
					c0.1,0.1,0.3,0.2,0.4,0.1l5.1-2c1-0.4,2.2,0.1,2.6,1l3.3,6.5c0.5,1,0.1,2.1-0.8,2.7l-4.6,2.9c-0.1,0.1-0.2,0.2-0.2,0.4
					c0.2,1.3,0.3,2.7,0.3,4c0,0.2,0.1,0.3,0.2,0.4l5,2.2c1,0.4,1.5,1.5,1.1,2.6l-2.3,6.9c-0.3,1-1.4,1.6-2.4,1.4l-5.3-1.2
					c-0.2,0-0.3,0.1-0.4,0.2c-0.8,1.1-1.7,2.1-2.6,3c-0.1,0.1-0.2,0.3-0.1,0.4l2,5.1c0.4,1,0,2.1-1,2.6l-6.5,3.3
					c-0.9,0.5-2.2,0.1-2.7-0.8l-2.9-4.6c-0.1-0.1-0.2-0.2-0.3-0.2c-1.2,0.2-2.4,0.3-3.6,0.3l-0.5,0c-0.2,0-0.3,0.1-0.4,0.2l-2.2,5
					C232.7,160.2,232,160.7,231.1,160.7z M220,146.6c0.3,0,0.6,0.1,0.9,0.4c0.9,0.9,1.9,1.8,2.9,2.5c0.4,0.3,0.6,0.8,0.5,1.2
					L223,156c-0.2,0.6,0.2,1.3,0.8,1.5l6.9,2.3c0.6,0.2,1.3-0.1,1.6-0.7l2.2-5c0.2-0.4,0.6-0.7,1.1-0.7l0.5,0c1.1,0,2.3-0.1,3.4-0.3
					c0.5-0.1,1,0.1,1.2,0.5l2.9,4.6c0.3,0.5,1.1,0.8,1.7,0.5l6.5-3.3c0.6-0.3,0.9-1,0.6-1.6l-2-5.1c-0.2-0.4-0.1-1,0.3-1.3
					c0.9-0.9,1.8-1.9,2.5-2.9c0.3-0.4,0.8-0.6,1.2-0.5l5.3,1.2c0.6,0.2,1.3-0.2,1.5-0.8l2.3-6.9c0.2-0.6-0.1-1.3-0.7-1.6l-5-2.2
					c-0.4-0.2-0.7-0.6-0.7-1.1c0-1.3-0.1-2.6-0.3-3.9c-0.1-0.5,0.1-0.9,0.5-1.2l4.6-2.9c0.6-0.3,0.8-1.1,0.5-1.7l-3.3-6.5
					c-0.3-0.6-1-0.9-1.6-0.6l-5.1,2c-0.4,0.2-1,0.1-1.3-0.3c-0.9-0.9-1.9-1.8-2.9-2.5c-0.4-0.3-0.6-0.8-0.5-1.2l1.2-5.3
					c0.2-0.6-0.2-1.3-0.8-1.5l-6.9-2.3c-0.6-0.2-1.3,0.1-1.6,0.7l-2.2,5c-0.2,0.4-0.6,0.7-1.1,0.7l-0.4,0c-1.1,0-2.3,0.1-3.4,0.3
					c-0.5,0.1-1-0.1-1.2-0.5l-2.9-4.6c-0.3-0.5-1.1-0.8-1.7-0.5l-6.5,3.3c-0.6,0.3-0.9,1-0.6,1.6l2,5.1c0.2,0.4,0.1,1-0.3,1.3
					c-0.9,0.9-1.8,1.9-2.5,2.9c-0.3,0.4-0.8,0.6-1.2,0.5l-5.3-1.2c-0.6-0.1-1.3,0.2-1.5,0.8l-2.3,6.9c-0.2,0.6,0.1,1.3,0.7,1.6
					l5,2.2c0.4,0.2,0.7,0.6,0.7,1.1c0,1.3,0.1,2.6,0.3,3.9c0.1,0.5-0.1,0.9-0.5,1.2l-4.6,2.9c-0.6,0.3-0.8,1.1-0.5,1.7l3.3,6.5
					c0.3,0.6,1,0.9,1.6,0.6l5.1-2C219.7,146.6,219.8,146.6,220,146.6z"/>
			</g>
			<g>
				<path class="st3" d="M305.4,127.9c-0.2,0-0.4,0-0.6-0.1l-30.4-10.1c-1.1-0.4-1.6-1.5-1.3-2.6l3.3-9.8c0.3-0.8,1-1.4,1.9-1.4
					c0.2,0,0.4,0,0.6,0.1l6.3,2.1l1.4-4.2c0.3-0.8,1-1.4,1.9-1.4c0.2,0,0.4,0,0.6,0.1l6.3,2.1l1.5-4.4c0.3-0.8,1-1.4,1.9-1.4
					c0.2,0,0.4,0,0.6,0.1l6.3,2.1l1.4-4.2c0.3-0.8,1-1.4,1.9-1.4c0.2,0,0.4,0,0.6,0.1l5.8,1.9c1.1,0.4,1.6,1.5,1.3,2.6l-9.4,28.3
					C307.1,127.3,306.3,127.9,305.4,127.9z M299,124.2l6.7,2.2l9.7-29.1l-6.7-2.2L299,124.2z M290.9,121.5l6.7,2.2l7.7-23l-6.7-2.2
					L290.9,121.5z M282.7,118.7l6.7,2.2l5.6-16.7l-6.7-2.2L282.7,118.7z M274.5,116l6.7,2.2l3.6-10.7l-6.7-2.2L274.5,116z"/>
				<path class="st3" d="M305.4,128.3c-0.3,0-0.5,0-0.8-0.1L274.3,118c-1.3-0.4-1.9-1.8-1.5-3.1l3.3-9.8c0.3-1,1.3-1.7,2.3-1.7
					c0.3,0,0.5,0,0.8,0.1l5.9,2l1.3-3.8c0.3-1,1.3-1.7,2.3-1.7c0.3,0,0.5,0,0.8,0.1l5.9,2l1.3-4c0.4-1.2,1.8-1.9,3.1-1.5l5.9,2
					l1.3-3.8c0.4-1.2,1.8-1.9,3.1-1.5l5.8,1.9c1.3,0.4,1.9,1.8,1.5,3.1l-9.4,28.3C307.4,127.6,306.5,128.3,305.4,128.3z
					 M278.3,104.3c-0.7,0-1.3,0.4-1.5,1.1l-3.3,9.8c-0.3,0.8,0.2,1.8,1,2.1l30.4,10.1c0.8,0.3,1.8-0.2,2.1-1l9.4-28.3
					c0.3-0.8-0.2-1.8-1-2.1l-5.8-1.9c-0.9-0.3-1.8,0.2-2.1,1l-1.5,4.5l-6.6-2.2c-0.9-0.3-1.8,0.2-2.1,1l-1.6,4.8L289,101
					c-0.8-0.3-1.8,0.2-2.1,1l-1.5,4.5l-6.6-2.2C278.7,104.3,278.5,104.3,278.3,104.3z M306,126.9l-7.4-2.5l0.1-0.4l9.8-29.5l7.4,2.5
					l-0.1,0.4L306,126.9z M299.5,123.9l5.9,2l9.5-28.4l-5.9-2L299.5,123.9z M297.8,124.2l-7.4-2.5l7.9-23.8l7.4,2.5L297.8,124.2z
					 M291.4,121.2l5.9,2l7.4-22.3l-5.9-2L291.4,121.2z M289.6,121.5l-7.4-2.5l5.8-17.5l7.4,2.5L289.6,121.5z M283.2,118.5l5.9,2
					l5.3-16l-5.9-2L283.2,118.5z M281.4,118.7l-7.4-2.5l3.8-11.4l7.4,2.5L281.4,118.7z M275,115.8l5.9,2l3.3-9.9l-5.9-2L275,115.8z"
					/>
			</g>
			<g>
				<path class="st3" d="M321.7,85.1c-0.1,0-0.2,0-0.2,0c-0.2-0.1-0.4-0.2-0.5-0.4c-0.1-0.2-0.1-0.4,0-0.6c0.1-0.3,0.4-0.5,0.7-0.5
					c0.1,0,0.2,0,0.2,0c0.2,0.1,0.4,0.2,0.5,0.4c0.1,0.2,0.1,0.4,0,0.6C322.3,84.9,322,85.1,321.7,85.1z"/>
				<path class="st3" d="M321.7,85.5c-0.1,0-0.3,0-0.4-0.1c-0.3-0.1-0.5-0.3-0.7-0.6c-0.1-0.3-0.2-0.6-0.1-0.9
					c0.2-0.6,0.9-0.9,1.5-0.8c0.3,0.1,0.5,0.3,0.7,0.6c0.1,0.3,0.2,0.6,0.1,0.9C322.7,85.2,322.2,85.5,321.7,85.5z M321.7,84
					c-0.2,0-0.3,0.1-0.4,0.3c0,0.1,0,0.2,0,0.3c0,0.1,0.1,0.2,0.2,0.2c0.2,0.1,0.4,0,0.5-0.2c0-0.1,0-0.2,0-0.3
					c0-0.1-0.1-0.2-0.2-0.2C321.8,84,321.7,84,321.7,84z"/>
			</g>
			<g>
				<path class="st3" d="M303.2,79c-0.1,0-0.2,0-0.2,0c-0.4-0.1-0.6-0.6-0.5-1c0.1-0.3,0.4-0.5,0.7-0.5c0.1,0,0.2,0,0.2,0
					c0.4,0.1,0.6,0.6,0.5,1C303.9,78.8,303.6,79,303.2,79z"/>
				<path class="st3" d="M303.2,79.4c-0.1,0-0.3,0-0.4-0.1c-0.3-0.1-0.5-0.3-0.7-0.6c-0.1-0.3-0.2-0.6-0.1-0.9
					c0.2-0.6,0.9-1,1.5-0.7c0.3,0.1,0.5,0.3,0.7,0.6c0.1,0.3,0.2,0.6,0.1,0.9C304.2,79.1,303.7,79.4,303.2,79.4z M303.2,77.8
					c-0.2,0-0.3,0.1-0.4,0.3c0,0.1,0,0.2,0,0.3c0,0.1,0.1,0.2,0.2,0.2c0.2,0.1,0.4,0,0.5-0.2c0-0.1,0-0.2,0-0.3
					c0-0.1-0.1-0.2-0.2-0.2C303.3,77.8,303.3,77.8,303.2,77.8z"/>
			</g>
			<g>
				<path class="st3" d="M284.8,72.8c-0.1,0-0.2,0-0.2,0c-0.4-0.1-0.6-0.6-0.5-1c0.1-0.3,0.4-0.5,0.7-0.5c0.1,0,0.2,0,0.2,0
					c0.4,0.1,0.6,0.6,0.5,1C285.4,72.6,285.1,72.8,284.8,72.8z"/>
				<path class="st3" d="M284.8,73.2c-0.1,0-0.3,0-0.4-0.1c-0.3-0.1-0.5-0.3-0.7-0.6c-0.1-0.3-0.2-0.6-0.1-0.9
					c0.2-0.6,0.9-1,1.5-0.7c0.3,0.1,0.5,0.3,0.7,0.6c0.1,0.3,0.2,0.6,0.1,0.9C285.7,72.9,285.3,73.2,284.8,73.2z M284.8,71.7
					c-0.2,0-0.3,0.1-0.4,0.3c0,0.1,0,0.2,0,0.3c0,0.1,0.1,0.2,0.2,0.2c0.2,0.1,0.4,0,0.5-0.2c0-0.1,0-0.2,0-0.3s-0.1-0.2-0.2-0.2
					C284.9,71.7,284.8,71.7,284.8,71.7z"/>
			</g>
			<g>
				<path class="st3" d="M266.3,66.7c-0.1,0-0.2,0-0.2,0c-0.2-0.1-0.4-0.2-0.5-0.4c-0.1-0.2-0.1-0.4,0-0.6c0.1-0.3,0.4-0.5,0.7-0.5
					c0.1,0,0.2,0,0.2,0c0.2,0.1,0.4,0.2,0.5,0.4c0.1,0.2,0.1,0.4,0,0.6C266.9,66.5,266.6,66.7,266.3,66.7z"/>
				<path class="st3" d="M266.3,67.1c-0.1,0-0.3,0-0.4-0.1c-0.3-0.1-0.5-0.3-0.7-0.6c-0.1-0.3-0.2-0.6-0.1-0.9
					c0.2-0.6,0.9-0.9,1.5-0.7c0.3,0.1,0.5,0.3,0.7,0.6c0.1,0.3,0.2,0.6,0.1,0.9C267.3,66.7,266.8,67.1,266.3,67.1z M266.3,65.5
					c-0.2,0-0.3,0.1-0.4,0.3c0,0.1,0,0.2,0,0.3c0,0.1,0.1,0.2,0.2,0.2c0.2,0.1,0.4,0,0.5-0.2c0-0.1,0-0.2,0-0.3
					c0-0.1-0.1-0.2-0.2-0.2C266.4,65.5,266.4,65.5,266.3,65.5z"/>
			</g>
			<g>
				<path class="st3" d="M271.2,97.8c-0.1,0-0.2,0-0.2,0l-25.7-8.6c-0.4-0.1-0.6-0.6-0.5-1c0.1-0.3,0.4-0.5,0.7-0.5
					c0.1,0,0.2,0,0.2,0l25.7,8.6c0.4,0.1,0.6,0.6,0.5,1C271.8,97.6,271.5,97.8,271.2,97.8z"/>
				<path class="st3" d="M271.2,98.2c-0.1,0-0.3,0-0.4-0.1l-25.7-8.6c-0.6-0.2-1-0.9-0.8-1.5c0.2-0.6,0.9-1,1.5-0.8l25.7,8.6
					c0.6,0.2,1,0.9,0.7,1.5C272.2,97.8,271.7,98.2,271.2,98.2z M245.5,88c-0.2,0-0.3,0.1-0.4,0.3c-0.1,0.2,0,0.4,0.2,0.5l25.7,8.6
					c0.2,0.1,0.4,0,0.5-0.2c0.1-0.2,0-0.4-0.2-0.5l-25.7-8.6C245.6,88,245.5,88,245.5,88z"/>
			</g>
			<g>
				<path class="st3" d="M261.5,103.4c-0.1,0-0.2,0-0.2,0l-9.1-3c-0.4-0.1-0.6-0.6-0.5-1c0.1-0.3,0.4-0.5,0.7-0.5c0.1,0,0.2,0,0.2,0
					l9.1,3c0.2,0.1,0.4,0.2,0.5,0.4c0.1,0.2,0.1,0.4,0,0.6C262.2,103.2,261.9,103.4,261.5,103.4z"/>
				<path class="st3" d="M261.5,103.8c-0.1,0-0.3,0-0.4-0.1l-9.1-3c-0.6-0.2-1-0.9-0.7-1.5c0.2-0.6,0.9-1,1.5-0.8l9.1,3
					c0.3,0.1,0.5,0.3,0.7,0.6c0.1,0.3,0.2,0.6,0.1,0.9C262.5,103.4,262,103.8,261.5,103.8z M252.4,99.2c-0.2,0-0.3,0.1-0.4,0.3
					c-0.1,0.2,0,0.4,0.2,0.5l9.1,3c0.2,0.1,0.4,0,0.5-0.2c0-0.1,0-0.2,0-0.3c0-0.1-0.1-0.2-0.2-0.2l-9.1-3
					C252.5,99.2,252.4,99.2,252.4,99.2z"/>
			</g>
			<g>
				<path class="st3" d="M246.9,98.5c-0.1,0-0.2,0-0.2,0l-4.1-1.4c-0.4-0.1-0.6-0.6-0.5-1c0.1-0.3,0.4-0.5,0.7-0.5
					c0.1,0,0.2,0,0.2,0l4.1,1.4c0.4,0.1,0.6,0.6,0.5,1C247.6,98.3,247.3,98.5,246.9,98.5L246.9,98.5z"/>
				<path class="st3" d="M246.9,98.9c-0.1,0-0.3,0-0.4-0.1l-4.1-1.4c-0.6-0.2-1-0.9-0.7-1.5c0.2-0.6,0.9-1,1.5-0.7l4.1,1.4
					c0.6,0.2,1,0.9,0.8,1.5C247.9,98.6,247.5,98.9,246.9,98.9z M242.9,96c-0.2,0-0.3,0.1-0.4,0.3c-0.1,0.2,0,0.4,0.2,0.5l4.1,1.4
					c0.2,0.1,0.4,0,0.5-0.2c0.1-0.2,0-0.4-0.2-0.5L243,96C242.9,96,242.9,96,242.9,96z"/>
			</g>
			<g>
				<path class="st3" d="M273.9,89.8c-0.1,0-0.2,0-0.2,0l-19.2-6.4c-0.4-0.1-0.6-0.6-0.5-1c0.1-0.3,0.4-0.5,0.7-0.5
					c0.1,0,0.2,0,0.2,0l19.2,6.4c0.4,0.1,0.6,0.6,0.5,1C274.5,89.6,274.2,89.8,273.9,89.8L273.9,89.8z"/>
				<path class="st3" d="M273.9,90.2c-0.1,0-0.3,0-0.4-0.1l-19.2-6.4c-0.6-0.2-1-0.9-0.7-1.5c0.2-0.6,0.9-0.9,1.5-0.7l19.2,6.4
					c0.6,0.2,1,0.9,0.7,1.5C274.8,89.9,274.4,90.2,273.9,90.2z M254.7,82.3c-0.2,0-0.3,0.1-0.4,0.3c-0.1,0.2,0,0.4,0.2,0.5l19.2,6.4
					c0.2,0.1,0.4,0,0.5-0.2c0.1-0.2,0-0.4-0.2-0.5l-19.2-6.4C254.8,82.3,254.7,82.3,254.7,82.3z"/>
			</g>
			<g>
				<path class="st3" d="M249.9,81.9c-0.1,0-0.2,0-0.2,0c-0.4-0.1-0.6-0.6-0.5-1c0.1-0.3,0.4-0.5,0.7-0.5c0.1,0,0.2,0,0.2,0
					c0.2,0.1,0.4,0.2,0.5,0.4c0.1,0.2,0.1,0.4,0,0.6C250.5,81.6,250.2,81.9,249.9,81.9z"/>
				<path class="st3" d="M249.9,82.2c-0.1,0-0.3,0-0.4-0.1c-0.6-0.2-1-0.9-0.7-1.5c0.2-0.6,0.9-1,1.5-0.8c0.3,0.1,0.5,0.3,0.7,0.6
					c0.1,0.3,0.2,0.6,0.1,0.9C250.9,81.9,250.4,82.2,249.9,82.2z M249.9,80.7c-0.2,0-0.3,0.1-0.4,0.3c-0.1,0.2,0,0.4,0.2,0.5
					c0.2,0.1,0.4,0,0.5-0.2c0-0.1,0-0.2,0-0.3c0-0.1-0.1-0.2-0.2-0.2C250,80.7,249.9,80.7,249.9,80.7z"/>
			</g>
			<g>
				<path class="st3" d="M266.8,105.1c-0.1,0-0.2,0-0.2,0c-0.2-0.1-0.4-0.2-0.5-0.4c-0.1-0.2-0.1-0.4,0-0.6c0.1-0.3,0.4-0.5,0.7-0.5
					c0.1,0,0.2,0,0.2,0c0.2,0.1,0.4,0.2,0.5,0.4c0.1,0.2,0.1,0.4,0,0.6C267.4,104.9,267.1,105.1,266.8,105.1z"/>
				<path class="st3" d="M266.8,105.5c-0.1,0-0.3,0-0.4-0.1c-0.3-0.1-0.5-0.3-0.7-0.6c-0.1-0.3-0.2-0.6-0.1-0.9
					c0.2-0.6,0.9-0.9,1.5-0.8c0.3,0.1,0.5,0.3,0.7,0.6c0.1,0.3,0.2,0.6,0.1,0.9C267.8,105.2,267.3,105.5,266.8,105.5z M266.8,104
					c-0.2,0-0.3,0.1-0.4,0.3c0,0.1,0,0.2,0,0.3c0,0.1,0.1,0.2,0.2,0.2c0.2,0.1,0.4,0,0.5-0.2c0-0.1,0-0.2,0-0.3
					c0-0.1-0.1-0.2-0.2-0.2C266.9,104,266.8,104,266.8,104z"/>
			</g>
			<g>
				<path class="st3" d="M297.1,147.9c-0.1,0-0.2,0-0.2,0l-25.7-8.6c-0.2-0.1-0.4-0.2-0.5-0.4c-0.1-0.2-0.1-0.4,0-0.6
					c0.1-0.3,0.4-0.5,0.7-0.5c0.1,0,0.2,0,0.2,0l25.7,8.6c0.4,0.1,0.6,0.6,0.5,1C297.7,147.7,297.4,147.9,297.1,147.9z"/>
				<path class="st3" d="M297.1,148.3c-0.1,0-0.3,0-0.4-0.1l-25.7-8.6c-0.3-0.1-0.5-0.3-0.7-0.6c-0.1-0.3-0.2-0.6-0.1-0.9
					c0.2-0.6,0.9-1,1.5-0.8l25.7,8.6c0.6,0.2,1,0.9,0.8,1.5C298,148,297.6,148.3,297.1,148.3z M271.3,138.1c-0.2,0-0.3,0.1-0.4,0.3
					c0,0.1,0,0.2,0,0.3c0,0.1,0.1,0.2,0.2,0.2l25.7,8.6c0.2,0.1,0.4,0,0.5-0.2c0.1-0.2,0-0.4-0.2-0.5l-25.7-8.6
					C271.4,138.2,271.4,138.1,271.3,138.1z"/>
			</g>
			<g>
				<path class="st3" d="M287.4,153.5c-0.1,0-0.2,0-0.2,0l-9.1-3c-0.2-0.1-0.4-0.2-0.5-0.4c-0.1-0.2-0.1-0.4,0-0.6
					c0.1-0.3,0.4-0.5,0.7-0.5c0.1,0,0.2,0,0.2,0l9.1,3c0.2,0.1,0.4,0.2,0.5,0.4c0.1,0.2,0.1,0.4,0,0.6
					C288,153.3,287.7,153.5,287.4,153.5L287.4,153.5z"/>
				<path class="st3" d="M287.4,153.9c-0.1,0-0.3,0-0.4-0.1l-9.1-3c-0.3-0.1-0.5-0.3-0.7-0.6c-0.1-0.3-0.2-0.6-0.1-0.9
					c0.2-0.6,0.9-1,1.5-0.8l9.1,3c0.3,0.1,0.5,0.3,0.7,0.6c0.1,0.3,0.2,0.6,0.1,0.9C288.3,153.6,287.9,153.9,287.4,153.9z
					 M278.2,149.3c-0.2,0-0.3,0.1-0.4,0.3c0,0.1,0,0.2,0,0.3c0,0.1,0.1,0.2,0.2,0.2l9.1,3c0.2,0.1,0.4,0,0.5-0.2c0-0.1,0-0.2,0-0.3
					c0-0.1-0.1-0.2-0.2-0.2l-9.1-3C278.3,149.3,278.3,149.3,278.2,149.3z"/>
			</g>
			<g>
				<path class="st3" d="M272.8,148.6c-0.1,0-0.2,0-0.2,0l-4.1-1.4c-0.2-0.1-0.4-0.2-0.5-0.4c-0.1-0.2-0.1-0.4,0-0.6
					c0.1-0.3,0.4-0.5,0.7-0.5c0.1,0,0.2,0,0.2,0l4.1,1.4c0.4,0.1,0.6,0.6,0.5,1C273.4,148.4,273.1,148.6,272.8,148.6z"/>
				<path class="st3" d="M272.8,149c-0.1,0-0.3,0-0.4-0.1l-4.1-1.4c-0.3-0.1-0.5-0.3-0.7-0.6c-0.1-0.3-0.2-0.6-0.1-0.9
					c0.2-0.6,0.9-0.9,1.5-0.7l4.1,1.4c0.3,0.1,0.5,0.3,0.7,0.6c0.1,0.3,0.2,0.6,0.1,0.9C273.8,148.7,273.3,149,272.8,149z
					 M268.7,146.1c-0.2,0-0.3,0.1-0.4,0.3c0,0.1,0,0.2,0,0.3c0,0.1,0.1,0.2,0.2,0.2l4.1,1.4c0.2,0.1,0.4,0,0.5-0.2
					c0-0.1,0-0.2,0-0.3c0-0.1-0.1-0.2-0.2-0.2l-4.1-1.4C268.8,146.1,268.7,146.1,268.7,146.1z"/>
			</g>
			<g>
				<path class="st3" d="M299.7,139.9c-0.1,0-0.2,0-0.2,0l-19.2-6.4c-0.2-0.1-0.4-0.2-0.5-0.4c-0.1-0.2-0.1-0.4,0-0.6
					c0.1-0.3,0.4-0.5,0.7-0.5c0.1,0,0.2,0,0.2,0l19.2,6.4c0.4,0.1,0.6,0.6,0.5,1C300.3,139.7,300,139.9,299.7,139.9z"/>
				<path class="st3" d="M299.7,140.3c-0.1,0-0.3,0-0.4-0.1l-19.2-6.4c-0.3-0.1-0.5-0.3-0.7-0.6c-0.1-0.3-0.2-0.6-0.1-0.9
					c0.2-0.6,0.9-0.9,1.5-0.8l19.2,6.4c0.6,0.2,1,0.9,0.8,1.5C300.7,140,300.2,140.3,299.7,140.3z M280.5,132.4
					c-0.2,0-0.3,0.1-0.4,0.3c0,0.1,0,0.2,0,0.3c0,0.1,0.1,0.2,0.2,0.2l19.2,6.4c0.2,0.1,0.4,0,0.5-0.2c0.1-0.2,0-0.4-0.2-0.5
					l-19.2-6.4C280.6,132.4,280.6,132.4,280.5,132.4z"/>
			</g>
			<g>
				<path class="st3" d="M275.8,132c-0.1,0-0.2,0-0.2,0c-0.2-0.1-0.4-0.2-0.5-0.4c-0.1-0.2-0.1-0.4,0-0.6c0.1-0.3,0.4-0.5,0.7-0.5
					c0.1,0,0.2,0,0.2,0c0.2,0.1,0.4,0.2,0.5,0.4c0.1,0.2,0.1,0.4,0,0.6C276.4,131.7,276.1,132,275.8,132L275.8,132z"/>
				<path class="st3" d="M275.8,132.4c-0.1,0-0.3,0-0.4-0.1c-0.3-0.1-0.5-0.3-0.7-0.6c-0.1-0.3-0.2-0.6-0.1-0.9
					c0.2-0.6,0.9-1,1.5-0.8c0.3,0.1,0.5,0.3,0.7,0.6c0.1,0.3,0.2,0.6,0.1,0.9C276.7,132,276.3,132.4,275.8,132.4z M275.7,130.8
					c-0.2,0-0.3,0.1-0.4,0.3c0,0.1,0,0.2,0,0.3c0,0.1,0.1,0.2,0.2,0.2c0.2,0.1,0.4,0,0.5-0.2c0-0.1,0-0.2,0-0.3
					c0-0.1-0.1-0.2-0.2-0.2C275.8,130.8,275.8,130.8,275.7,130.8z"/>
			</g>
			<g>
				<path class="st3" d="M292.7,155.3c-0.1,0-0.2,0-0.2,0c-0.4-0.1-0.6-0.6-0.5-1c0.1-0.3,0.4-0.5,0.7-0.5c0.1,0,0.2,0,0.2,0
					c0.2,0.1,0.4,0.2,0.5,0.4c0.1,0.2,0.1,0.4,0,0.6C293.3,155,293,155.3,292.7,155.3z"/>
				<path class="st3" d="M292.7,155.7c-0.1,0-0.3,0-0.4-0.1c-0.3-0.1-0.5-0.3-0.7-0.6c-0.1-0.3-0.2-0.6-0.1-0.9
					c0.2-0.6,0.9-1,1.5-0.7c0.3,0.1,0.5,0.3,0.7,0.6c0.1,0.3,0.2,0.6,0.1,0.9C293.6,155.3,293.2,155.7,292.7,155.7z M292.7,154.1
					c-0.2,0-0.3,0.1-0.4,0.3c0,0.1,0,0.2,0,0.3c0,0.1,0.1,0.2,0.2,0.2c0.2,0.1,0.4,0,0.5-0.2c0-0.1,0-0.2,0-0.3
					c0-0.1-0.1-0.2-0.2-0.2C292.7,154.1,292.7,154.1,292.7,154.1z"/>
			</g>
			<g>
				<path class="st3" d="M312.1,154.4c-1,0-1.9-0.8-2-1.8l-1.4-11.9c0-0.1,0-0.2,0-0.3l20-59.9l-66.2-22.1l-3.6,10.9
					c-0.8,2.3-3,3.9-5.4,3.9c-0.6,0-1.2-0.1-1.8-0.3l-10.9-3.6l-10.1,30.4c-0.1,0.3-0.4,0.5-0.7,0.5c-0.1,0-0.2,0-0.2,0
					c-0.2-0.1-0.4-0.2-0.5-0.4c-0.1-0.2-0.1-0.4,0-0.6l10.4-31.2c0.1-0.2,0.2-0.4,0.4-0.5l21.8-10.9c0.1-0.1,0.2-0.1,0.4-0.1
					c0.1,0,0.2,0,0.2,0l67.1,22.4l0.5-0.6c1.3-1.7,3.3-2.7,5.5-2.7c0.7,0,1.5,0.1,2.2,0.4c3.6,1.2,5.6,5.2,4.4,8.8l-20,59.9
					c0,0.1-0.1,0.2-0.2,0.3l-8.2,8.7c-0.3,0.3-0.8,0.6-1.2,0.6C312.2,154.4,312.1,154.4,312.1,154.4z M310.3,140.8l1.4,12.6l8.7-9.2
					l15.8-47.3L326,93.5L310.3,140.8z M326.5,92l10.2,3.4l1.8-5.5l-10.2-3.4L326.5,92z M335.3,77.4c-2.3,0-4.4,1.5-5.1,3.7l-1.3,3.9
					l10.2,3.4l1.3-3.9c0.9-2.8-0.6-5.9-3.4-6.8C336.4,77.4,335.9,77.4,335.3,77.4z M242.2,68.2l9.9,3.3c0.4,0.1,0.9,0.2,1.3,0.2
					c1.8,0,3.4-1.1,3.9-2.8l3.3-9.9L242.2,68.2z"/>
				<path class="st3" d="M312.1,154.8c-1.2,0-2.3-0.9-2.4-2.1l-1.4-11.9c0-0.2,0-0.3,0.1-0.5l19.8-59.5l-65.4-21.8l-3.5,10.6
					c-0.8,2.5-3.2,4.2-5.8,4.2c-0.7,0-1.3-0.1-1.9-0.3l-10.6-3.5l-10,30c-0.2,0.6-0.9,0.9-1.5,0.8c-0.3-0.1-0.5-0.3-0.7-0.6
					c-0.1-0.3-0.2-0.6-0.1-0.9L239.1,68c0.1-0.3,0.3-0.5,0.6-0.7l21.8-10.9c0.3-0.1,0.6-0.2,0.9-0.1l66.8,22.3l0.3-0.4
					c1.4-1.8,3.5-2.8,5.8-2.8c0.8,0,1.6,0.1,2.3,0.4c3.8,1.3,5.9,5.4,4.6,9.3l-20,59.9c-0.1,0.2-0.1,0.3-0.3,0.4l-8.2,8.7
					c-0.4,0.4-0.9,0.7-1.5,0.7C312.2,154.8,312.1,154.8,312.1,154.8z M311.7,154c0.2,0,0.3,0,0.5,0c0.4,0,0.7-0.2,1-0.5l8.2-8.7
					c0,0,0.1-0.1,0.1-0.1l20-59.9c1.1-3.4-0.7-7.1-4.1-8.3c-0.7-0.2-1.4-0.3-2.1-0.3c-2,0-3.9,0.9-5.2,2.5l-0.6,0.8l-0.3-0.1
					l-67.1-22.4c-0.1,0-0.2,0-0.3,0L240,68c-0.1,0-0.2,0.1-0.2,0.2l-10.4,31.2c0,0.1,0,0.2,0,0.3c0,0.1,0.1,0.2,0.2,0.2
					c0.2,0.1,0.4,0,0.5-0.2l10.3-30.8l11.3,3.8c0.5,0.2,1.1,0.3,1.7,0.3c2.3,0,4.3-1.5,5-3.6l3.8-11.3l0.4,0.1l66.6,22.2l-0.1,0.4
					l-20,59.9c0,0.1,0,0.1,0,0.2l1.4,11.9c0.1,0.6,0.4,1.1,0.9,1.3l-1.5-13.2l0-0.1L325.8,93l10.9,3.6l-0.1,0.4l-15.8,47.4l-0.1,0.1
					L311.7,154z M310.7,140.8l1.3,11.7l8.1-8.6l15.6-46.8l-9.4-3.1L310.7,140.8z M337,95.9L326,92.2l2.1-6.3l10.9,3.6L337,95.9z
					 M327,91.7l9.4,3.1l1.6-4.8l-9.4-3.1L327,91.7z M339.3,88.9l-10.9-3.6l1.4-4.3c0.8-2.4,3-3.9,5.5-3.9c0.6,0,1.2,0.1,1.8,0.3
					c3,1,4.7,4.3,3.6,7.3L339.3,88.9z M329.4,84.7l9.4,3.1l1.2-3.5c0.9-2.6-0.5-5.4-3.1-6.3c-0.5-0.2-1-0.3-1.6-0.3
					c-2.1,0-4,1.4-4.7,3.4L329.4,84.7z M253.4,72.1c-0.5,0-1-0.1-1.4-0.2l-10.8-3.6l20.1-10.1L257.7,69
					C257.1,70.9,255.4,72.1,253.4,72.1z M243.3,68.1l9,3c0.4,0.1,0.8,0.2,1.2,0.2c1.6,0,3-1,3.6-2.6l3-9L243.3,68.1z"/>
			</g>
		</g>
	</g>
</g>
</svg>
