<svg width="620" height="175" viewBox="0 0 620 175" fill="none" xmlns="http://www.w3.org/2000/svg">
<g clip-path="url(#clip0_4006_3782)">
<path fill-rule="evenodd" clip-rule="evenodd" d="M263.7 169.199C254.5 169.199 243.2 168.499 233.9 166.699C232.8 166.499 232 165.399 232 164.199V88.999C232 84.999 236.9 86.899 241.2 87.399C260.4 89.599 280.8 88.699 301.1 85.899C326.5 82.399 357.7 81.099 384.7 82.699C385.9 82.799 386.8 83.899 386.8 85.199V160.699C386.8 162.099 385.7 163.299 384.5 163.199C357 161.599 325.6 162.899 299 166.499C286.4 168.299 274.5 169.199 263.7 169.199Z" fill="#7DDF96"/>
<path d="M358.2 85.4004C368.7 85.4004 378.4 85.7004 386.3 86.4004V160.8C378.1 160.2 368.4 159.8 358 159.8C338.5 159.8 317.7 160.9 300.7 162.9C289 164.3 277.7 165 267.3 165C248.8 165 237.5 162.8 233.1 161.7V87.5004C243.2 89.9004 256.5 90.4004 266.6 90.4004C278.1 90.4004 290.4 89.7004 301.4 88.4004C318.2 86.6004 338.9 85.4004 358.2 85.4004ZM358.2 80.4004C339.3 80.4004 318.3 81.5004 300.9 83.5004C290.2 84.8004 278.1 85.5004 266.7 85.5004C252.3 85.5004 238.9 84.4004 230.8 81.7004C230.6 81.6004 230.4 81.6004 230.2 81.6004C229.1 81.6004 228.2 82.5004 228.2 83.6004V164.1C228.2 165 228.8 165.7 229.6 166C230.1 166.2 242.4 170.1 267.5 170.1C278.1 170.1 289.6 169.4 301.5 168C318.9 165.9 339.5 164.9 358.2 164.9C369.7 164.9 380.5 165.3 389.4 166.1C389.5 166.1 389.5 166.1 389.6 166.1C390.7 166.1 391.6 165.2 391.6 164.1V83.7004C391.6 82.7004 390.8 81.8004 389.7 81.7004C380.8 80.8004 369.9 80.4004 358.2 80.4004Z" fill="#0D9353"/>
<path d="M360.9 81.5C372 81.5 382.2 81.9 390.6 82.6V164.7C382 164 371.8 163.6 360.7 163.6C340.2 163.6 318.2 164.9 300.3 167.1C287.9 168.6 276.1 169.4 265.1 169.4C245.6 169.4 233.7 167 229 165.8V83.9C239.6 86.5 253.7 87.1 264.3 87.1C276.4 87.1 289.4 86.3 301 84.9C318.8 82.8 340.5 81.5 360.9 81.5ZM360.9 76C341 76 318.9 77.2 300.5 79.5C289.2 80.9 276.5 81.7 264.4 81.7C249.2 81.7 235.1 80.4 226.6 77.5C226.4 77.4 226.1 77.4 225.9 77.4C224.8 77.4 223.7 78.4 223.7 79.6V168.4C223.7 169.4 224.3 170.2 225.2 170.5C225.7 170.7 238.7 175 265.2 175C276.4 175 288.4 174.2 301 172.7C319.3 170.4 341 169.3 360.7 169.3C372.9 169.3 384.3 169.7 393.6 170.7C393.7 170.7 393.7 170.7 393.8 170.7C395 170.7 396 169.7 396 168.5V79.6C396 78.5 395.2 77.5 394 77.4C384.7 76.4 373.2 76 360.9 76Z" fill="#35414D"/>
<path fill-rule="evenodd" clip-rule="evenodd" d="M372.4 85.3008C376.7 85.4008 380.9 85.5008 385 85.7008C386 85.8008 386.8 86.6008 386.8 87.6008V100.001C377 99.5008 372.1 90.2008 372.4 85.3008Z" fill="#0D9353"/>
<path fill-rule="evenodd" clip-rule="evenodd" d="M386.7 148.201V160.701C386.7 161.801 385.8 162.601 384.7 162.601C380.6 162.401 376.4 162.301 372.2 162.201C372.1 157.401 377.3 148.601 386.7 148.201Z" fill="#0D9353"/>
<path fill-rule="evenodd" clip-rule="evenodd" d="M245.7 165.301C241.6 165.001 237.5 164.601 233.8 164.001C233 163.901 232.3 163.101 232.3 162.301V150.501C237.1 150.301 246.3 155.701 245.7 165.301Z" fill="#0D9353"/>
<path fill-rule="evenodd" clip-rule="evenodd" d="M232.399 101.4V89.1C232.399 86.2 236.499 87.6 240.099 87.9C242.199 88.1 244.299 88.3 246.499 88.4C245.599 95.6 239.599 101 232.399 101.4Z" fill="#0D9353"/>
<path fill-rule="evenodd" clip-rule="evenodd" d="M310.2 161.1C290.7 161.1 274.8 145.3 274.8 125.8C274.8 106.3 290.7 90.5 310.2 90.5C329.7 90.5 345.6 106.3 345.6 125.8C345.6 145.3 329.7 161.1 310.2 161.1Z" fill="#0D9353"/>
<path d="M256.2 135.1C260.895 135.1 264.7 131.294 264.7 126.6C264.7 121.905 260.895 118.1 256.2 118.1C251.506 118.1 247.7 121.905 247.7 126.6C247.7 131.294 251.506 135.1 256.2 135.1Z" fill="#0D9353"/>
<path d="M364.5 135.1C369.194 135.1 373 131.294 373 126.6C373 121.905 369.194 118.1 364.5 118.1C359.806 118.1 356 121.905 356 126.6C356 131.294 359.806 135.1 364.5 135.1Z" fill="#0D9353"/>
<path fill-rule="evenodd" clip-rule="evenodd" d="M310.2 142.201C301.5 142.201 298.3 130.701 303.1 130.701C304.3 130.701 305.3 131.701 305.3 132.901C305.3 139.401 315.2 139.401 315.2 132.901C315.2 124.601 300.9 131.301 300.9 118.701C300.9 106.501 319.6 106.501 319.6 118.701C319.6 121.601 315.2 121.601 315.2 118.701C315.2 112.201 305.3 112.201 305.3 118.701C305.3 127.001 319.6 120.301 319.6 132.901C319.5 138.001 315.3 142.201 310.2 142.201Z" fill="#7DDF96"/>
<path fill-rule="evenodd" clip-rule="evenodd" d="M310.2 113.7C307.4 113.7 308 110.2 308 107.7C308 104.8 312.4 104.8 312.4 107.7C312.4 110.3 313 113.7 310.2 113.7Z" fill="#7DDF96"/>
<path fill-rule="evenodd" clip-rule="evenodd" d="M310.2 145.9C307.4 145.9 308 142.4 308 139.9C308 137 312.4 137 312.4 139.9C312.4 142.5 313 145.9 310.2 145.9Z" fill="#7DDF96"/>
<path d="M607.501 113.601L591.201 129.901C589.301 131.801 586.301 131.801 584.401 129.901C582.501 128.001 582.501 125.001 584.401 123.101L600.701 106.801L607.501 113.601Z" fill="#EC5664"/>
<path d="M592.5 105.501L599.3 112.301C603.6 116.601 610.6 116.601 615 112.301C619.4 108.001 619.3 101.001 615 96.6008L608.2 89.8008L592.5 105.501Z" fill="#87828E"/>
<path d="M586.8 50.2L552.8 84.3C551.5 85.6 552.3 87.7 554 88C569.6 90.1 578.1 91.3 589.4 102.5L592.4 105.5L608 89.8L605 86.8C593.7 75.6 592.6 67 590.4 51.5C590.3 49.7 588.1 49 586.8 50.2Z" fill="#EC5664"/>
<path d="M594.8 107.799L599.3 112.299C603.6 116.599 610.6 116.599 615 112.299C617.2 110.099 618.2 107.299 618.2 104.499C618.2 101.699 617.1 98.7992 614.9 96.6992L610.4 92.1992C612.6 94.3992 613.6 97.1992 613.7 99.9992C613.7 102.799 612.6 105.699 610.5 107.799C606.1 112.099 599.1 112.099 594.8 107.799Z" fill="#A4A4A5"/>
<path d="M586.8 50.2001L552.8 84.3001C551.5 85.6001 552.3 87.7001 554 88.0001C555.3 88.2001 556.5 88.3001 557.7 88.5001L591 55.1001C590.8 53.9001 590.7 52.7001 590.5 51.4001C590.3 49.7001 588.1 49.0001 586.8 50.2001Z" fill="#C63D4F"/>
<path d="M536.1 123.8C549.41 123.8 560.2 113.01 560.2 99.6996C560.2 86.3895 549.41 75.5996 536.1 75.5996C522.79 75.5996 512 86.3895 512 99.6996C512 113.01 522.79 123.8 536.1 123.8Z" fill="#FFCF66"/>
<path d="M525.801 121.501C527.001 122.001 528.201 122.501 529.401 122.901C542.201 126.601 555.601 119.201 559.201 106.401C562.901 93.6008 555.501 80.2008 542.701 76.6008C541.401 76.2008 540.201 76.0008 538.901 75.8008C549.401 80.8008 555.101 92.7008 551.701 104.301C548.501 115.701 537.301 122.901 525.801 121.501Z" fill="#E8BA5D"/>
<path d="M512.901 93.0001C509.201 105.8 516.601 119.2 529.401 122.9C530.701 123.3 531.9 123.5 533.2 123.7C522.7 118.7 517.001 106.8 520.401 95.2001C523.701 83.7001 534.901 76.5001 546.401 77.9001C545.201 77.4001 544 76.9001 542.8 76.5001C530 72.8001 516.601 80.2001 512.901 93.0001Z" fill="#E8BA5D"/>
<path d="M535.601 41.1C546.536 41.1 555.401 32.2352 555.401 21.3C555.401 10.3648 546.536 1.5 535.601 1.5C524.666 1.5 515.801 10.3648 515.801 21.3C515.801 32.2352 524.666 41.1 535.601 41.1Z" fill="#FFCF66"/>
<path d="M527.101 39.0992C528.001 39.4992 529.001 39.8992 530.101 40.1992C540.601 43.1992 551.501 37.1992 554.501 26.6992C557.501 16.1992 551.501 5.29922 541.001 2.29922C540.001 1.99922 538.901 1.79922 537.901 1.69922C546.501 5.79922 551.101 15.5992 548.401 24.9992C545.701 34.3992 536.601 40.2992 527.101 39.0992Z" fill="#EFBC62"/>
<path d="M516.6 15.8004C513.6 26.3004 519.6 37.2004 530.1 40.3004C531.1 40.6004 532.2 40.8004 533.2 40.9004C524.6 36.8004 519.9 27.0004 522.7 17.6004C525.4 8.20036 534.6 2.30036 544 3.50036C543.1 3.10036 542.1 2.70036 541 2.40036C530.6 -0.699642 519.6 5.30036 516.6 15.8004Z" fill="#E8BA5D"/>
<path d="M558.601 57.1008C558.901 57.1008 559.101 57.0008 559.301 56.8008C559.701 56.4008 559.701 55.8008 559.301 55.4008L550.501 46.6008C550.301 46.4008 550.101 46.3008 549.801 46.3008C549.501 46.3008 549.301 46.4008 549.101 46.6008C548.701 47.0008 548.701 47.6008 549.101 48.0008L557.901 56.8008C558.101 57.0008 558.401 57.1008 558.601 57.1008Z" fill="#35414D"/>
<path d="M557.6 57.2L548.8 48.4C548.5 48.1 548.4 47.7 548.4 47.3C548.4 46.9 548.6 46.5 548.8 46.2C549.4 45.6 550.4 45.6 550.9 46.2L559.7 55C560 55.3 560.1 55.7 560.1 56.1C560.1 56.5 559.9 56.9 559.7 57.2C559.4 57.5 559 57.6 558.6 57.6C558.2 57.6 557.8 57.5 557.6 57.2ZM549.5 47C549.4 47.1 549.4 47.2 549.4 47.3C549.4 47.4 549.5 47.6 549.5 47.6L558.3 56.4C558.5 56.6 558.8 56.6 559 56.4C559.1 56.3 559.1 56.2 559.1 56.1C559.1 56 559 55.8 559 55.8L550.2 47C550.1 46.9 550 46.9 549.9 46.9C549.7 46.8 549.6 46.9 549.5 47Z" fill="#35414D"/>
<path d="M566.9 48.7992C567 48.7992 567.1 48.7992 567.2 48.6992C567.7 48.4992 568 47.8992 567.8 47.3992L563.2 34.3992C563.1 33.9992 562.7 33.6992 562.3 33.6992C562.2 33.6992 562.1 33.6992 562 33.7992C561.7 33.8992 561.5 34.0992 561.4 34.2992C561.3 34.4992 561.3 34.7992 561.4 35.0992L566 48.0992C566 48.5992 566.4 48.7992 566.9 48.7992Z" fill="#35414D"/>
<path d="M565.4 48.2998L560.8 35.2998C560.7 34.8998 560.7 34.4998 560.9 34.0998C561.1 33.6998 561.4 33.4998 561.8 33.2998C562.6 32.9998 563.5 33.4998 563.7 34.1998L568.3 47.1998C568.4 47.5998 568.4 47.9998 568.2 48.3998C568 48.7998 567.7 48.9998 567.3 49.1998C567.1 49.2998 567 49.2998 566.8 49.2998C566.2 49.3998 565.6 48.9998 565.4 48.2998ZM562.1 34.2998C562 34.2998 561.9 34.3998 561.8 34.5998C561.7 34.6998 561.7 34.8998 561.8 34.9998L566.4 47.9998C566.5 48.1998 566.8 48.3998 567 48.2998C567.1 48.2998 567.2 48.1998 567.3 47.9998C567.4 47.8998 567.4 47.6998 567.3 47.5998L562.7 34.5998C562.6 34.3998 562.4 34.2998 562.2 34.2998C562.2 34.2998 562.2 34.2998 562.1 34.2998Z" fill="#35414D"/>
<path d="M550.4 65.4008C550.8 65.4008 551.2 65.1008 551.3 64.7008C551.5 64.2008 551.2 63.6008 550.7 63.4008L537.7 58.9008C537.6 58.9008 537.5 58.8008 537.4 58.8008C537 58.8008 536.6 59.1008 536.5 59.5008C536.3 60.0008 536.6 60.6008 537.1 60.8008C537.2 60.8008 549.9 65.3008 550.2 65.4008C550.2 65.3008 550.3 65.4008 550.4 65.4008Z" fill="#35414D"/>
<path d="M550 65.8004C549.6 65.7004 537 61.3004 536.9 61.2004C536.1 60.9004 535.7 60.1004 536 59.3004C536.3 58.5004 537.1 58.1004 537.9 58.4004L550.9 62.9004C551.3 63.0004 551.6 63.3004 551.8 63.7004C552 64.1004 552 64.5004 551.9 64.9004C551.7 65.5004 551.1 65.9004 550.5 65.9004C550.3 65.9004 550.1 65.9004 550 65.8004ZM536.9 59.6004C536.9 59.7004 536.9 59.9004 536.9 60.0004C537 60.1004 537.1 60.2004 537.2 60.2004C537.3 60.2004 550 64.6004 550.3 64.8004H550.4C550.6 64.8004 550.8 64.7004 550.9 64.5004C550.9 64.4004 550.9 64.2004 550.9 64.1004C550.8 64.0004 550.7 63.9004 550.6 63.8004L537.6 59.3004C537.5 59.3004 537.5 59.3004 537.4 59.3004C537.1 59.3004 537 59.4004 536.9 59.6004Z" fill="#35414D"/>
<path d="M585.5 87.8997C590.9 90.9996 594.3 94.6997 594.4 94.7997C595.2 95.5997 595.1 96.8996 594.3 97.6996C593.5 98.4996 592.2 98.3996 591.4 97.5996C591.4 97.5996 588.3 94.2997 583.4 91.3997C582.4 90.7997 582.1 89.5996 582.7 88.5996C583.3 87.5996 584.5 87.2997 585.5 87.8997Z" fill="#35414D"/>
<path d="M577.401 84.4012C577.601 84.5012 577.901 84.5012 578.101 84.6012C579.201 84.9012 579.801 86.1012 579.401 87.1012C579.101 88.2012 578.001 88.8012 576.901 88.5012C576.901 88.5012 576.701 88.4012 576.201 88.3012C575.101 88.0012 574.501 86.9012 574.801 85.8012C575.101 84.7012 576.301 84.1012 577.401 84.4012Z" fill="#35414D"/>
<path d="M583.7 130.699C581.4 128.399 581.4 124.799 583.7 122.499L594.6 111.599L591.7 111.899C591.3 111.899 590.9 111.999 590.5 111.999C589.4 112.099 588.4 112.299 587.3 112.299C585 112.299 583.3 111.599 581.8 110.099C581.4 109.699 581.4 109.099 581.8 108.699C582 108.499 582.2 108.399 582.5 108.399C582.8 108.399 583 108.499 583.2 108.699C584.3 109.799 585.5 110.299 587.2 110.299C588.2 110.299 589.3 110.199 590.7 109.999C591.3 109.899 592.1 109.799 592.9 109.799L595.2 109.599L593.4 107.999C591.9 106.599 590.5 105.199 589.2 103.899C583.6 98.1992 578.3 92.6992 560.8 90.0992L559.1 89.7992L559.7 91.3992C561.5 96.3992 561.6 101.599 560.2 106.699C557.1 117.399 547.2 124.899 536.1 124.899C533.8 124.899 531.4 124.599 529.1 123.899C515.8 120.099 508.1 106.099 511.9 92.7992C515 82.0992 524.9 74.5992 536 74.5992C538.3 74.5992 540.7 74.8992 543 75.5992C546.8 76.6992 550.2 78.5992 553.1 81.2992L553.8 81.9992L586.1 49.5992C586.7 48.9992 587.5 48.6992 588.3 48.6992C589.7 48.6992 591.2 49.6992 591.5 51.4992C594.8 75.2992 596.5 76.9992 613 93.3992L615.7 96.0992C620.4 100.799 620.4 108.499 615.7 113.199C612.8 116.099 608.9 116.799 607.3 116.799C606.9 116.799 606.7 116.799 606.7 116.699L606.1 116.499L591.9 130.799C590.8 131.899 589.4 132.499 587.8 132.499C586.2 132.299 584.8 131.799 583.7 130.699ZM597.3 111.699L585.1 123.899C584.4 124.599 584 125.599 584 126.599C584 127.599 584.4 128.599 585.1 129.299C585.8 129.999 586.8 130.399 587.8 130.399C588.8 130.399 589.8 129.999 590.5 129.299L603.6 116.199L602.3 115.599C600.1 114.499 599.5 113.899 598.1 112.499L597.3 111.699ZM513.9 93.2992C510.4 105.499 517.5 118.399 529.7 121.899C531.8 122.499 533.9 122.799 536.1 122.799C546.3 122.799 555.5 115.899 558.3 106.099C560 100.199 559.3 93.9992 556.3 88.4992C553.3 83.0992 548.4 79.1992 542.5 77.3992C540.4 76.7992 538.3 76.4992 536.1 76.4992C525.9 76.5992 516.7 83.3992 513.9 93.2992ZM608.2 91.2992L594 105.499L600.1 111.599C602 113.499 604.5 114.499 607.2 114.499C609.9 114.499 612.4 113.399 614.3 111.499C616.2 109.599 617.2 107.099 617.2 104.399C617.2 101.699 616.1 99.1992 614.2 97.2992L608.2 91.2992ZM588.5 50.5992H588.4H587.9L555.3 83.2992L555.9 83.9992C556.6 84.8992 557.3 85.8992 557.9 86.9992L558.2 87.3992L558.7 87.4992C574.4 89.6992 580.7 92.0992 592 103.299L592.7 103.999L606.9 89.6992L606.2 88.9992C593.7 76.5992 592.3 70.0992 589.7 51.5992C589.7 51.0992 589.4 50.7992 588.9 50.5992H588.5Z" fill="#35414D"/>
<path d="M583.3 131C580.8 128.5 580.8 124.6 583.3 122.1L593.2 112.2L591.8 112.4C591.4 112.4 591 112.5 590.5 112.5C589.4 112.6 588.3 112.8 587.3 112.8C584.9 112.8 583.1 112.1 581.5 110.5C580.9 109.9 580.9 108.9 581.5 108.3C582.1 107.7 583.1 107.7 583.6 108.3C584.6 109.3 585.7 109.7 587.3 109.7C588.2 109.7 589.3 109.6 590.8 109.4C591.4 109.3 592.1 109.2 592.9 109.2L594.1 109.1L593.2 108.3C591.7 106.9 590.3 105.5 588.9 104.2C583.3 98.4996 578.1 93.1996 560.8 90.4996L559.9 90.3996L560.2 91.1996C562 96.2996 562.1 101.7 560.7 106.8C557.6 117.7 547.4 125.3 536.1 125.3C533.7 125.3 531.3 125 529 124.3C515.4 120.4 507.6 106.1 511.5 92.5996C514.6 81.6996 524.8 74.0996 536.1 74.0996C538.5 74.0996 540.9 74.3996 543.2 75.0996C547.1 76.1996 550.5 78.1996 553.5 80.8996L553.9 81.1996L585.8 49.1996C586.5 48.4996 587.4 48.0996 588.4 48.0996C590 48.0996 591.8 49.1996 592.1 51.2996C595.4 74.8996 597.1 76.5996 613.5 92.8996L616.2 95.5996C621.1 100.5 621.1 108.5 616.2 113.4C613.2 116.4 609.2 117.2 607.4 117.2C607 117.2 606.7 117.2 606.6 117.1L606.3 117L592.3 131C591.1 132.2 589.5 132.8 587.8 132.8C586.1 132.9 584.5 132.2 583.3 131ZM606.8 116.1C606.8 116.1 606.9 116.1 607.3 116.1C608.9 116.1 612.6 115.4 615.3 112.6C619.8 108.1 619.8 100.8 615.3 96.1996L612.6 93.4996C596 76.9996 594.3 75.2996 591 51.2996C590.8 49.7996 589.5 48.9996 588.3 48.9996C587.6 48.9996 586.9 49.2996 586.4 49.7996L553.8 82.4996L552.7 81.4996C549.9 78.8996 546.6 76.9996 542.8 75.8996C540.6 75.2996 538.3 74.8996 536 74.8996C525.1 74.8996 515.4 82.1996 512.4 92.6996C508.6 105.7 516.2 119.4 529.2 123.2C531.4 123.8 533.7 124.2 536 124.2C546.9 124.2 556.6 116.9 559.6 106.4C561 101.4 560.9 96.2996 559.2 91.3996L558.3 88.9996L560.9 89.3996C578.5 92.0996 583.9 97.5996 589.6 103.4C590.9 104.7 592.3 106.1 593.8 107.4L596.4 109.7L592.9 110.1C592.2 110.2 591.5 110.3 590.8 110.3C589.4 110.5 588.2 110.6 587.2 110.6C585.3 110.6 584 110.1 582.8 108.9C582.6 108.7 582.3 108.7 582.1 108.9C581.9 109.1 581.9 109.4 582.1 109.6C583.5 111 585.1 111.6 587.2 111.6C588.2 111.6 589.3 111.5 590.3 111.3C590.7 111.2 591.1 111.2 591.5 111.2L595.8 110.7L583.9 122.7C581.8 124.8 581.9 128.1 583.9 130.2C584.9 131.2 586.2 131.7 587.6 131.7C589 131.7 590.3 131.2 591.3 130.2L605.7 115.7L606.8 116.1ZM584.8 129.6C584 128.8 583.5 127.7 583.5 126.6C583.5 125.5 583.9 124.4 584.7 123.6L597.2 111L598.3 112.1C599.7 113.5 600.2 114 602.4 115.1L604.3 116.1L590.7 129.7C589.9 130.5 588.8 131 587.7 131C586.6 130.9 585.6 130.4 584.8 129.6ZM602 116C599.7 114.9 599.1 114.2 597.7 112.8L597.3 112.4L585.5 124.3C584.9 124.9 584.5 125.7 584.6 126.6C584.6 127.5 584.9 128.3 585.6 128.9C586.8 130.1 589 130.1 590.2 128.9L602.8 116.3L602 116ZM529.5 122.4C517 118.8 509.7 105.7 513.4 93.1996C516.3 83.0996 525.6 76.0996 536.1 76.0996C538.3 76.0996 540.5 76.3996 542.6 76.9996C548.7 78.7996 553.7 82.7996 556.7 88.2996C559.7 93.7996 560.5 100.2 558.7 106.2C555.8 116.3 546.5 123.3 536 123.3C533.9 123.3 531.7 123 529.5 122.4ZM514.4 93.3996C510.9 105.4 517.9 117.9 529.8 121.4C531.8 122 533.9 122.3 536.1 122.3C546.1 122.3 555 115.6 557.8 106C559.5 100.2 558.8 94.0996 555.9 88.7996C553 83.4996 548.2 79.6996 542.4 77.9996C540.4 77.3996 538.3 77.0996 536.1 77.0996C526.1 77.0996 517.2 83.7996 514.4 93.3996ZM599.7 112L593.2 105.6L608.1 90.5996L614.6 96.9996C616.6 98.9996 617.7 101.6 617.7 104.5C617.7 107.3 616.6 110 614.6 112C612.6 114 609.9 115.1 607.1 115.1C604.3 115 601.7 113.9 599.7 112ZM594.7 105.5L600.4 111.2C602.2 113 604.6 114 607.1 114C609.7 114 612.1 113 613.9 111.2C615.7 109.4 616.7 107 616.7 104.4C616.7 101.8 615.7 99.3996 613.9 97.5996L608.2 91.8996L594.7 105.5ZM591.4 103.7C580.3 92.5996 574 90.2996 558.4 88.0996L557.7 87.9996L557.3 87.3996C556.7 86.3996 556 85.3996 555.3 84.4996L554.5 83.3996L587.5 50.2996L587.6 50.1996L588.3 50.0996L588.8 50.1996C589.5 50.4996 589.9 50.9996 590 51.5996C592.6 69.9996 594 76.3996 606.3 88.6996L607.4 89.7996L592.5 104.8L591.4 103.7ZM605.7 89.4996C593.1 76.9996 591.7 70.4996 589.1 51.6996C589.1 51.3996 588.9 51.2996 588.6 51.0996H588.5H588.1L555.9 83.3996L556.2 83.7996C557 84.7996 557.7 85.7996 558.3 86.7996L558.4 86.9996H558.6C574.5 89.2996 580.8 91.5996 592.1 102.9L592.5 103.3L606 89.7996L605.7 89.4996Z" fill="#35414D"/>
<path d="M535.6 42C533.7 42 531.7 41.7 529.9 41.2C524.6 39.7 520.2 36.1 517.5 31.3C514.8 26.4 514.2 20.8 515.7 15.5C518.2 6.7 526.5 0.5 535.7 0.5C537.6 0.5 539.6 0.8 541.4 1.3C552.4 4.5 558.8 16 555.6 27C553 35.9 544.8 42 535.6 42ZM517.6 16.1C516.2 20.9 516.8 26 519.2 30.4C521.6 34.8 525.6 38 530.4 39.4C532.1 39.9 533.8 40.1 535.6 40.1C543.9 40.1 551.3 34.5 553.6 26.6C555 21.8 554.4 16.7 552 12.3C549.6 7.9 545.6 4.7 540.8 3.3C539.1 2.8 537.4 2.6 535.6 2.6C527.3 2.5 519.9 8.1 517.6 16.1Z" fill="#35414D"/>
<path d="M529.7 41.7004C524.2 40.1004 519.7 36.5004 517 31.5004C514.2 26.5004 513.6 20.8004 515.2 15.3004C517.8 6.20039 526.2 -0.0996094 535.6 -0.0996094C537.6 -0.0996094 539.6 0.200391 541.5 0.700391C552.8 4.00039 559.3 15.8004 556 27.0004C553.4 36.1004 545 42.4004 535.6 42.4004C533.6 42.5004 531.6 42.3004 529.7 41.7004ZM516.1 15.7004C514.6 20.9004 515.2 26.3004 517.8 31.1004C520.4 35.8004 524.7 39.3004 529.9 40.8004C531.7 41.3004 533.6 41.6004 535.5 41.6004C544.5 41.6004 552.5 35.6004 555 27.0004C558.1 16.3004 551.9 5.00039 541.2 1.90039C539.4 1.40039 537.5 1.10039 535.6 1.10039C526.6 1.00039 518.6 7.00039 516.1 15.7004ZM530.2 39.8004C525.3 38.4004 521.2 35.1004 518.7 30.6004C516.2 26.1004 515.6 20.9004 517 16.0004C519.4 7.70039 527 2.00039 535.6 2.00039C537.4 2.00039 539.2 2.30039 540.9 2.80039C545.8 4.20039 549.9 7.50039 552.4 12.0004C554.9 16.5004 555.5 21.7004 554.1 26.6004C551.7 34.8004 544.1 40.5004 535.6 40.5004C533.8 40.5004 532 40.3004 530.2 39.8004ZM518.1 16.2004C516.8 20.9004 517.3 25.8004 519.7 30.1004C522.1 34.4004 525.9 37.5004 530.6 38.8004C532.2 39.3004 533.9 39.5004 535.6 39.5004C543.7 39.5004 550.9 34.1004 553.1 26.3004C554.4 21.6004 553.9 16.7004 551.5 12.4004C549.1 8.10039 545.3 5.00039 540.6 3.70039C539 3.20039 537.3 3.00039 535.6 3.00039C527.5 3.00039 520.3 8.50039 518.1 16.2004Z" fill="#35414D"/>
<path d="M535 101.501C531.5 100.401 529.6 96.6007 530.8 93.2007C531.9 89.7007 535.7 87.8007 539.1 89.0007C542.6 90.1007 544.5 93.9007 543.3 97.3007C543 98.2007 542 98.7007 541.1 98.4007C540.2 98.1007 539.7 97.1007 540 96.2007C540.5 94.5007 539.6 92.7007 538 92.2007C536.3 91.7007 534.5 92.6007 534 94.2007C533.5 95.9007 534.4 97.7007 536 98.2007C536.9 98.5007 537.4 99.5007 537.1 100.401C536.8 101.301 535.9 101.801 535 101.501Z" fill="#35414D"/>
<path d="M531.9 110.802C528.4 109.702 526.5 105.902 527.7 102.502C528 101.602 529 101.102 529.9 101.402C530.8 101.702 531.3 102.702 531 103.602C530.5 105.302 531.4 107.102 533 107.602C534.6 108.102 536.5 107.202 537 105.602C537.5 103.902 536.6 102.102 535 101.602C534.1 101.302 533.6 100.302 533.9 99.4021C534.2 98.5021 535.2 98.0021 536.1 98.3021C539.6 99.4021 541.5 103.202 540.3 106.602C539.1 110.002 535.4 111.902 531.9 110.802Z" fill="#35414D"/>
<path d="M538 92.2013C537.1 91.9013 536.6 90.9013 536.9 90.0013L537.9 87.1013C538.2 86.2013 539.2 85.7013 540.1 86.0013C541 86.3013 541.5 87.3013 541.2 88.2013L540.2 91.1013C539.9 92.0013 538.9 92.5013 538 92.2013Z" fill="#35414D"/>
<path d="M531 113.501C530.1 113.201 529.6 112.201 529.9 111.301L530.8 108.601C531.1 107.701 532.1 107.201 533 107.501C533.9 107.801 534.4 108.801 534.1 109.701L533.2 112.401C532.9 113.301 531.9 113.801 531 113.501Z" fill="#35414D"/>
<path d="M535 22.9014C531.8 21.9014 530 18.6014 531 15.4014C532 12.2014 535.3 10.4014 538.5 11.4014C541.7 12.4014 543.5 15.7014 542.5 18.9014C542.3 19.7014 541.4 20.2014 540.6 19.9014C539.8 19.7014 539.3 18.8014 539.6 18.0014C540.1 16.5014 539.2 14.9014 537.7 14.4014C536.2 13.9014 534.6 14.8014 534.1 16.3014C533.6 17.8014 534.5 19.4014 536 19.9014C536.8 20.1014 537.3 21.0014 537 21.8014C536.7 22.7014 535.9 23.1014 535 22.9014Z" fill="#35414D"/>
<path d="M532.5 31.4001C529.3 30.4001 527.5 27.1001 528.5 23.9001C528.7 23.1001 529.6 22.6001 530.4 22.9001C531.2 23.2001 531.7 24.0001 531.4 24.8001C530.9 26.3001 531.8 27.9001 533.3 28.4001C534.8 28.9001 536.4 28.0001 536.9 26.5001C537.4 25.0001 536.5 23.4001 535 22.9001C534.2 22.7001 533.7 21.8001 534 21.0001C534.2 20.2001 535.1 19.7001 535.9 20.0001C539.1 21.0001 540.9 24.3001 539.9 27.5001C539 30.5001 535.6 32.3001 532.5 31.4001Z" fill="#35414D"/>
<path d="M537.6 14.4009C536.8 14.2009 536.3 13.3009 536.6 12.5009L537.4 9.80089C537.6 9.00089 538.5 8.50089 539.3 8.80089C540.1 9.00089 540.6 9.90089 540.3 10.7009L539.5 13.4009C539.3 14.1009 538.4 14.6009 537.6 14.4009Z" fill="#35414D"/>
<path d="M531.7 33.9001C530.9 33.7001 530.4 32.8001 530.7 32.0001L531.5 29.5001C531.7 28.7001 532.6 28.2001 533.4 28.5001C534.2 28.7001 534.7 29.6001 534.4 30.4001L533.6 32.9001C533.4 33.6001 532.6 34.1001 531.7 33.9001Z" fill="#35414D"/>
<path d="M12.2998 113.601L28.5998 129.901C30.4998 131.801 33.4998 131.801 35.3998 129.901C37.2998 128.001 37.2998 125.001 35.3998 123.101L19.0998 106.801L12.2998 113.601Z" fill="#EC5664"/>
<path d="M27.2001 105.501L20.4001 112.301C16.1001 116.601 9.10011 116.601 4.70011 112.301C0.300108 108.001 0.400108 101.001 4.70011 96.6008L11.5001 89.8008L27.2001 105.501Z" fill="#87828E"/>
<path d="M32.9006 50.2001L66.9006 84.3001C68.2006 85.6001 67.4006 87.7001 65.7006 88.0001C50.1006 90.1001 41.6006 91.3001 30.3006 102.5L27.3006 105.5L11.6006 89.8001L14.6006 86.8001C25.9006 75.6001 27.1006 67.0001 29.2006 51.4001C29.5006 49.7001 31.7006 49.0001 32.9006 50.2001Z" fill="#EC5664"/>
<path d="M25.0006 107.799L20.5006 112.299C16.2006 116.599 9.20059 116.599 4.80059 112.299C2.60059 110.099 1.60059 107.299 1.60059 104.499C1.60059 101.699 2.70059 98.7992 4.90059 96.6992L9.40059 92.1992C7.20059 94.3992 6.20059 97.1992 6.10059 99.9992C6.10059 102.799 7.20059 105.699 9.30059 107.799C13.6006 112.099 20.6006 112.099 25.0006 107.799Z" fill="#A4A4A5"/>
<path d="M32.9002 50.2001L66.9002 84.3001C68.2002 85.6001 67.4002 87.7001 65.7002 88.0001C64.4002 88.2001 63.2002 88.3001 62.0002 88.5001L28.7002 55.1001C28.9002 53.9001 29.0002 52.7001 29.2002 51.4001C29.5002 49.7001 31.7002 49.0001 32.9002 50.2001Z" fill="#C63D4F"/>
<path d="M83.6996 123.8C97.0097 123.8 107.8 113.01 107.8 99.6996C107.8 86.3895 97.0097 75.5996 83.6996 75.5996C70.3895 75.5996 59.5996 86.3895 59.5996 99.6996C59.5996 113.01 70.3895 123.8 83.6996 123.8Z" fill="#FFCF66"/>
<path d="M93.9999 121.499C92.7999 121.999 91.5999 122.499 90.3999 122.899C77.5999 126.599 64.1999 119.199 60.5999 106.399C56.7999 93.5992 64.1999 80.1992 76.9999 76.4992C78.2999 76.0992 79.4999 75.8992 80.7999 75.6992C70.2999 80.6992 64.5999 92.5992 67.9999 104.199C71.2999 115.699 82.3999 122.899 93.9999 121.499Z" fill="#E8BA5D"/>
<path d="M106.8 93.0001C110.5 105.8 103.1 119.2 90.2998 122.9C88.9998 123.3 87.7998 123.5 86.4998 123.7C96.9998 118.7 102.7 106.8 99.2998 95.2001C95.9998 83.7001 84.7998 76.5001 73.2998 77.9001C74.4998 77.4001 75.6998 76.9001 76.8998 76.5001C89.7998 72.8001 103.1 80.2001 106.8 93.0001Z" fill="#E8BA5D"/>
<path d="M84.1994 41.1C95.1346 41.1 103.999 32.2352 103.999 21.3C103.999 10.3648 95.1346 1.5 84.1994 1.5C73.2642 1.5 64.3994 10.3648 64.3994 21.3C64.3994 32.2352 73.2642 41.1 84.1994 41.1Z" fill="#FFCF66"/>
<path d="M92.599 39.0992C91.699 39.4992 90.699 39.8992 89.599 40.1992C79.099 43.1992 68.199 37.1992 65.199 26.6992C62.199 16.1992 68.199 5.29922 78.699 2.29922C79.699 1.99922 80.799 1.79922 81.799 1.69922C73.199 5.69922 68.599 15.4992 71.299 24.9992C73.999 34.3992 83.199 40.2992 92.599 39.0992Z" fill="#EFBC62"/>
<path d="M103.199 15.7996C106.199 26.2996 100.199 37.1996 89.6992 40.2996C88.6992 40.5996 87.5992 40.7996 86.5992 40.8996C95.1992 36.7996 99.8992 26.9996 97.0992 17.5996C94.2992 8.0996 85.1992 2.2996 75.6992 3.3996C76.5992 2.9996 77.5992 2.5996 78.6992 2.2996C89.1992 -0.700401 100.099 5.2996 103.199 15.7996Z" fill="#E8BA5D"/>
<path d="M61.0996 57.1008C60.7996 57.1008 60.5996 57.0008 60.3996 56.8008C59.9996 56.4008 59.9996 55.8008 60.3996 55.4008L69.1996 46.6008C69.3996 46.4008 69.5996 46.3008 69.8996 46.3008C70.1996 46.3008 70.3996 46.4008 70.5996 46.6008C70.9996 47.0008 70.9996 47.6008 70.5996 48.0008L61.7996 56.8008C61.5996 57.0008 61.3996 57.1008 61.0996 57.1008Z" fill="#35414D"/>
<path d="M61.0996 57.6C60.6996 57.6 60.2996 57.4 59.9996 57.2C59.6996 56.9 59.5996 56.5 59.5996 56.1C59.5996 55.7 59.7996 55.3 59.9996 55L68.7996 46.2C69.3996 45.6 70.3996 45.6 70.8996 46.2C71.1996 46.5 71.2996 46.9 71.2996 47.3C71.2996 47.7 71.0996 48.1 70.8996 48.4L62.0996 57.2C61.8996 57.5 61.4996 57.6 61.0996 57.6ZM69.8996 46.8C69.7996 46.8 69.5996 46.9 69.5996 46.9L60.7996 55.7C60.6996 55.8 60.6996 55.9 60.6996 56C60.6996 56.1 60.7996 56.3 60.7996 56.3C60.9996 56.5 61.2996 56.5 61.4996 56.3L70.2996 47.5C70.3996 47.4 70.3996 47.3 70.3996 47.2C70.3996 47.1 70.2996 46.9 70.2996 46.9C70.1996 46.9 70.0996 46.8 69.8996 46.8Z" fill="#35414D"/>
<path d="M52.9001 48.8012C52.8001 48.8012 52.7001 48.8012 52.6001 48.7012C52.1001 48.5012 51.8001 47.9012 52.0001 47.4012L56.6001 34.4012C56.7001 34.0012 57.1001 33.7012 57.5001 33.7012C57.6001 33.7012 57.7001 33.7012 57.8001 33.8012C58.1001 33.9012 58.3001 34.1012 58.4001 34.3012C58.5001 34.5012 58.5001 34.8012 58.4001 35.1012L53.8001 48.1012C53.7001 48.6012 53.3001 48.8012 52.9001 48.8012Z" fill="#35414D"/>
<path d="M52.8997 49.4004C52.6997 49.4004 52.5997 49.4004 52.3997 49.3004C51.9997 49.2004 51.6997 48.9004 51.4997 48.5004C51.2997 48.1004 51.2997 47.7004 51.3997 47.3004L55.9997 34.3004C56.2997 33.5004 57.1997 33.1004 57.8997 33.4004C58.2997 33.5004 58.5997 33.8004 58.7997 34.2004C58.9997 34.6004 58.9997 35.0004 58.8997 35.4004L54.2997 48.4004C54.0997 49.0004 53.4997 49.4004 52.8997 49.4004ZM57.4997 34.3004C57.2997 34.3004 57.0997 34.4004 56.9997 34.6004L52.3997 47.6004C52.3997 47.7004 52.3997 47.9004 52.3997 48.0004C52.4997 48.1004 52.5997 48.2004 52.6997 48.3004C52.9997 48.4004 53.1997 48.2004 53.2997 48.0004L57.8997 35.0004C57.8997 34.9004 57.8997 34.7004 57.8997 34.6004C57.7997 34.5004 57.6997 34.4004 57.5997 34.3004H57.4997Z" fill="#35414D"/>
<path d="M69.2996 65.3988C68.8996 65.3988 68.4996 65.0988 68.3996 64.6988C68.1996 64.1988 68.4996 63.5988 68.9996 63.3988L81.9996 58.8988C82.0996 58.8988 82.1996 58.7988 82.2996 58.7988C82.6996 58.7988 83.0996 59.0988 83.1996 59.4988C83.3996 59.9988 83.0996 60.5988 82.5996 60.7988C82.4996 60.7988 69.7996 65.2988 69.4996 65.3988C69.4996 65.2988 69.3996 65.3988 69.2996 65.3988Z" fill="#35414D"/>
<path d="M69.2997 65.8994C68.6997 65.8994 68.0997 65.4994 67.8997 64.8994C67.7997 64.4994 67.7997 64.0994 67.9997 63.6994C68.1997 63.2994 68.4997 63.0994 68.8997 62.8994L81.8997 58.3994C82.6997 58.0994 83.5997 58.5994 83.7997 59.2994C84.0997 60.0994 83.6997 60.9994 82.8997 61.1994C82.7997 61.1994 70.0997 65.6994 69.7997 65.7994C69.5997 65.8994 69.4997 65.8994 69.2997 65.8994ZM82.3997 59.2994C82.2997 59.2994 82.2997 59.2994 82.1997 59.2994L69.1997 63.7994C69.0997 63.7994 68.9997 63.8994 68.8997 64.0994C68.7997 64.1994 68.7997 64.3994 68.8997 64.4994C68.9997 64.6994 69.1997 64.7994 69.3997 64.7994H69.4997C69.7997 64.6994 82.4997 60.2994 82.5997 60.1994C82.6997 60.1994 82.7997 60.0994 82.8997 59.9994C82.9997 59.8994 82.9997 59.6994 82.8997 59.5994C82.7997 59.3994 82.5997 59.2994 82.3997 59.2994Z" fill="#35414D"/>
<path d="M34.3 87.8997C28.9 90.9996 25.5 94.6997 25.4 94.7997C24.6 95.5997 24.7 96.8996 25.5 97.6996C26.3 98.4996 27.6 98.3996 28.4 97.5996C28.4 97.5996 31.5 94.2997 36.4 91.3997C37.4 90.7997 37.7 89.5996 37.1 88.5996C36.5 87.5996 35.2 87.2997 34.3 87.8997Z" fill="#35414D"/>
<path d="M42.3997 84.3992C42.1997 84.4992 41.8997 84.4992 41.6997 84.5992C40.5997 84.8992 39.9997 86.0992 40.3997 87.0992C40.6997 88.1992 41.7997 88.7992 42.8997 88.4992C42.8997 88.4992 43.0997 88.3992 43.5997 88.2992C44.6997 87.9992 45.2997 86.8992 44.9997 85.7992C44.5997 84.6992 43.4997 84.0992 42.3997 84.3992Z" fill="#35414D"/>
<path d="M32.0002 132.3C30.5002 132.3 29.0002 131.7 27.9002 130.6L13.7002 116.3L13.1002 116.5C13.1002 116.5 12.9002 116.6 12.5002 116.6C10.8002 116.6 6.9002 115.8 4.1002 113C-0.599805 108.3 -0.599805 100.6 4.1002 95.9L6.8002 93.2C23.3002 76.8 25.0002 75.1 28.3002 51.3C28.6002 49.5 30.1002 48.5 31.5002 48.5C32.3002 48.5 33.1002 48.8 33.7002 49.4L66.0002 81.8L66.7002 81.1C69.6002 78.4 73.0002 76.5 76.8002 75.4C79.1002 74.7 81.4002 74.4 83.8002 74.4C94.9002 74.4 104.9 81.9 107.9 92.6C111.7 105.9 104 119.9 90.7002 123.7C88.4002 124.4 86.1002 124.7 83.7002 124.7C72.6002 124.7 62.6002 117.2 59.6002 106.5C58.1002 101.4 58.3002 96.1 60.1002 91.2L60.7002 89.6L58.9002 90C41.5002 92.7 36.2002 98.1 30.5002 103.8C29.2002 105.2 27.8002 106.6 26.3002 107.9L24.5002 109.5L26.8002 109.7C27.6002 109.8 28.3002 109.9 29.0002 109.9C30.4002 110.1 31.5002 110.2 32.5002 110.2C34.2002 110.2 35.4002 109.7 36.5002 108.6C36.7002 108.4 36.9002 108.3 37.2002 108.3C37.5002 108.3 37.7002 108.4 37.9002 108.6C38.3002 109 38.3002 109.6 37.9002 110C36.4002 111.5 34.7002 112.2 32.4002 112.2C31.4002 112.2 30.3002 112.1 29.2002 111.9C28.8002 111.8 28.4002 111.8 28.0002 111.8L25.1002 111.5L36.0002 122.4C38.3002 124.7 38.2002 128.3 36.0002 130.6C35.0002 131.8 33.5002 132.3 32.0002 132.3ZM21.7002 112.4C20.3002 113.8 19.7002 114.4 17.5002 115.5L16.2002 116.1L29.3002 129.2C30.0002 129.9 31.0002 130.3 32.0002 130.3C33.0002 130.3 34.0002 129.9 34.7002 129.2C35.4002 128.5 35.8002 127.5 35.8002 126.5C35.8002 125.5 35.4002 124.5 34.7002 123.8L22.5002 111.6L21.7002 112.4ZM83.7002 76.6C81.5002 76.6 79.4002 76.9 77.3002 77.5C71.4002 79.2 66.5002 83.1 63.5002 88.6C60.5002 94 59.8002 100.2 61.5002 106.2C64.3002 116 73.5002 122.9 83.7002 122.9C85.9002 122.9 88.0002 122.6 90.1002 122C102.3 118.5 109.4 105.6 105.9 93.4C103 83.4 93.9002 76.6 83.7002 76.6ZM5.5002 97.3C3.6002 99.2 2.5002 101.7 2.5002 104.4C2.5002 107.1 3.5002 109.6 5.4002 111.5C7.3002 113.4 9.8002 114.5 12.5002 114.5C15.2002 114.5 17.7002 113.5 19.6002 111.6L25.7002 105.5L11.6002 91.3L5.5002 97.3ZM31.0002 50.6C30.5002 50.8 30.2002 51.2 30.2002 51.6C27.6002 70.1 26.2002 76.6 13.7002 89L13.0002 89.8L27.2002 104.1L27.9002 103.4C39.1002 92.2 45.4002 89.9 61.2002 87.6L61.7002 87.5L62.0002 87.1C62.6002 86.1 63.3002 85.1 64.0002 84.1L64.6002 83.4L31.9002 50.6H31.4002H31.3002H31.0002Z" fill="#35414D"/>
<path d="M31.9998 132.899C30.2998 132.899 28.6998 132.199 27.4998 131.099L13.4998 117.099L13.1998 117.199C13.0998 117.199 12.8998 117.299 12.3998 117.299C10.6998 117.299 6.5998 116.499 3.5998 113.499C-1.3002 108.599 -1.3002 100.599 3.5998 95.6992L6.29981 92.9992C22.6998 76.6992 24.3998 74.9992 27.6998 51.3992C27.9998 49.2992 29.7998 48.1992 31.3998 48.1992C32.3998 48.1992 33.2998 48.5992 33.9998 49.2992L65.8998 81.2992L66.2998 80.9992C69.1998 78.2992 72.6998 76.2992 76.5998 75.1992C78.8998 74.4992 81.2998 74.1992 83.6998 74.1992C95.0998 74.1992 105.2 81.7992 108.3 92.6992C112.2 106.299 104.4 120.499 90.7998 124.399C88.4998 125.099 86.0998 125.399 83.6998 125.399C72.2998 125.399 62.1998 117.799 59.0998 106.899C57.5998 101.699 57.7998 96.2992 59.5998 91.2992L59.8998 90.4992L58.9998 90.5992C41.6998 93.2992 36.4998 98.5992 30.8998 104.299C29.4998 105.699 28.1998 107.099 26.5998 108.399L25.6998 109.199L26.8998 109.299C27.6998 109.399 28.2998 109.499 28.9998 109.499C30.4998 109.699 31.5998 109.799 32.4998 109.799C34.0998 109.799 35.0998 109.399 36.1998 108.399C36.7998 107.799 37.7998 107.799 38.2998 108.399C38.8998 108.999 38.8998 109.999 38.2998 110.599C36.6998 112.199 34.8998 112.899 32.4998 112.899C31.3998 112.899 30.2998 112.799 29.2998 112.599C28.7998 112.499 28.3998 112.499 27.9998 112.499L26.5998 112.299L36.4998 122.199C38.9998 124.699 38.8998 128.699 36.4998 131.099C35.1998 132.199 33.5998 132.899 31.9998 132.899ZM13.7998 115.799L28.1998 130.299C29.1998 131.299 30.4998 131.799 31.8998 131.799C33.2998 131.799 34.5998 131.299 35.5998 130.299C37.6998 128.199 37.6998 124.899 35.5998 122.799L23.6998 110.799L27.9998 111.299C28.3998 111.299 28.7998 111.399 29.1998 111.399C30.2998 111.499 31.2998 111.699 32.2998 111.699C34.3998 111.699 35.9998 111.099 37.3998 109.699C37.5998 109.499 37.5998 109.199 37.3998 108.999C37.1998 108.799 36.8998 108.799 36.6998 108.999C35.4998 110.199 34.1998 110.699 32.2998 110.699C31.2998 110.699 30.1998 110.599 28.6998 110.399C27.9998 110.299 27.2998 110.199 26.5998 110.199L23.0998 109.799L25.6998 107.499C27.1998 106.199 28.5998 104.799 29.8998 103.499C35.5998 97.6992 40.9998 92.1992 58.5998 89.4992L61.1998 89.0992L60.2998 91.4992C58.5998 96.3992 58.3998 101.499 59.8998 106.499C62.8998 116.999 72.5998 124.299 83.4998 124.299C85.7998 124.299 88.0998 123.999 90.2998 123.299C103.3 119.499 110.9 105.899 107.1 92.7992C104.1 82.2992 94.3998 74.9992 83.4998 74.9992C81.1998 74.9992 78.8998 75.2992 76.6998 75.9992C72.9998 77.0992 69.6998 78.8992 66.7998 81.5992L65.6998 82.5992L33.2998 49.8992C32.7998 49.3992 32.0998 49.0992 31.3998 49.0992C30.1998 49.0992 28.9998 49.8992 28.6998 51.3992C25.3998 75.3992 23.5998 77.0992 7.0998 93.5992L4.39981 96.2992C-0.100195 100.799 -0.100195 108.099 4.39981 112.699C7.09981 115.399 10.8998 116.199 12.3998 116.199C12.6998 116.199 12.8998 116.199 12.8998 116.199L13.7998 115.799ZM31.9998 130.899C30.8998 130.899 29.7998 130.499 28.9998 129.599L15.3998 115.999L17.2998 114.999C19.4998 113.899 19.9998 113.399 21.3998 111.999L22.4998 110.899L34.9998 123.499C35.7998 124.299 36.2998 125.399 36.1998 126.499C36.1998 127.599 35.7998 128.699 34.8998 129.499C34.1998 130.399 33.0998 130.899 31.9998 130.899ZM17.0998 116.299L29.6998 128.899C30.8998 130.099 33.0998 130.099 34.2998 128.899C34.8998 128.299 35.2998 127.499 35.2998 126.599C35.2998 125.699 34.9998 124.899 34.3998 124.299L22.5998 112.399L22.1998 112.799C20.7998 114.199 20.1998 114.799 17.8998 115.999L17.0998 116.299ZM83.6998 123.299C73.1998 123.299 63.8998 116.299 60.9998 106.199C59.2998 100.199 59.9998 93.7992 62.9998 88.2992C66.0998 82.7992 71.0998 78.7992 77.0998 76.9992C79.1998 76.3992 81.3998 76.0992 83.5998 76.0992C94.0998 76.0992 103.4 83.0992 106.3 93.1992C109.9 105.699 102.7 118.799 90.1998 122.399C88.0998 122.999 85.8998 123.299 83.6998 123.299ZM83.6998 77.0992C81.5998 77.0992 79.4998 77.3992 77.3998 77.9992C71.5998 79.6992 66.7998 83.4992 63.8998 88.7992C60.9998 94.0992 60.2998 100.199 61.9998 105.999C64.7998 115.599 73.6998 122.299 83.6998 122.299C85.7998 122.299 87.8998 121.999 89.9998 121.399C102 117.899 108.9 105.399 105.4 93.3992C102.6 83.7992 93.6998 77.0992 83.6998 77.0992ZM12.5998 114.999C9.7998 114.999 7.0998 113.899 5.0998 111.899C3.0998 109.899 1.9998 107.199 1.9998 104.399C1.9998 101.599 3.0998 98.8992 5.0998 96.8992L11.5998 90.4992L26.4998 105.499L19.9998 111.899C18.0998 113.899 15.3998 114.999 12.5998 114.999ZM11.5998 91.9992L5.89981 97.6992C3.99981 99.4992 2.9998 101.899 2.9998 104.399C2.9998 106.999 3.99981 109.399 5.79981 111.199C7.59981 112.999 9.9998 113.999 12.5998 113.999C15.0998 113.999 17.4998 112.999 19.2998 111.199L24.9998 105.499L11.5998 91.9992ZM27.1998 104.799L12.2998 89.7992L13.3998 88.6992C25.6998 76.3992 27.0998 69.9992 29.6998 51.5992C29.6998 50.9992 30.1998 50.3992 30.8998 50.1992L31.3998 50.0992L32.0998 50.1992L32.1998 50.2992L65.1998 83.3992L64.3998 84.4992C63.6998 85.3992 62.9998 86.3992 62.3998 87.3992L61.9998 87.9992L61.2998 88.0992C45.6998 90.2992 39.4998 92.6992 28.2998 103.699L27.1998 104.799ZM13.6998 89.7992L27.1998 103.299L27.5998 102.899C38.8998 91.5992 45.2998 89.1992 61.0998 86.9992H61.2998L61.3998 86.7992C61.9998 85.6992 62.6998 84.6992 63.4998 83.7992L63.7998 83.3992L31.6998 51.0992H31.2998H31.1998C30.8998 51.1992 30.7998 51.3992 30.6998 51.6992C28.0998 70.3992 26.6998 76.8992 14.0998 89.4992L13.6998 89.7992Z" fill="#35414D"/>
<path d="M84.1994 42C74.9994 42 66.7994 35.8 64.1994 27C61.0994 16 67.3994 4.5 78.3994 1.3C80.2994 0.8 82.1994 0.5 84.0994 0.5C93.2994 0.5 101.499 6.7 104.099 15.5C105.599 20.8 104.999 26.4 102.299 31.3C99.5994 36.2 95.1994 39.7 89.8994 41.2C88.0994 41.8 86.0994 42 84.1994 42ZM84.1994 2.5C82.3994 2.5 80.6994 2.7 78.9994 3.2C74.1994 4.6 70.1994 7.8 67.7994 12.2C65.3994 16.6 64.7994 21.6 66.1994 26.5C68.4994 34.5 75.8994 40 84.1994 40C85.8994 40 87.6994 39.8 89.3994 39.3C94.1994 37.9 98.1994 34.7 100.599 30.3C102.999 25.9 103.599 20.9 102.199 16C99.8994 8.1 92.4994 2.5 84.1994 2.5Z" fill="#35414D"/>
<path d="M84.1994 42.5C74.7994 42.5 66.3994 36.2 63.7994 27.1C60.4994 15.9 66.9994 4.1 78.2994 0.8C80.1994 0.3 82.1994 0 84.1994 0C93.5994 0 101.999 6.3 104.599 15.4C106.199 20.8 105.499 26.6 102.799 31.6C99.9994 36.6 95.4994 40.2 90.0994 41.8C88.1994 42.3 86.1994 42.5 84.1994 42.5ZM84.1994 1C82.2994 1 80.3994 1.3 78.5994 1.8C67.7994 4.9 61.5994 16.2 64.6994 26.9C67.1994 35.5 75.1994 41.5 84.1994 41.5C86.0994 41.5 87.9994 41.2 89.7994 40.7C94.9994 39.2 99.2994 35.8 101.899 31C104.499 26.3 105.099 20.8 103.599 15.6C101.099 7 93.0994 1 84.1994 1ZM84.1994 40.5C75.6994 40.5 68.0994 34.8 65.6994 26.6C64.2994 21.7 64.8994 16.5 67.3994 12C69.8994 7.5 73.9994 4.2 78.8994 2.8C80.5994 2.3 82.3994 2 84.1994 2C92.6994 2 100.299 7.7 102.699 15.9C104.099 20.8 103.499 26 100.999 30.5C98.4994 35 94.3994 38.3 89.4994 39.7C87.7994 40.3 85.9994 40.5 84.1994 40.5ZM84.1994 3C82.4994 3 80.7994 3.2 79.1994 3.7C74.4994 5 70.6994 8.1 68.2994 12.4C65.8994 16.7 65.3994 21.6 66.6994 26.3C68.8994 34.1 76.0994 39.5 84.1994 39.5C85.8994 39.5 87.5994 39.3 89.1994 38.8C93.8994 37.5 97.6994 34.4 100.099 30.1C102.499 25.8 102.999 20.9 101.699 16.2C99.4994 8.5 92.2994 3 84.1994 3Z" fill="#35414D"/>
<path d="M84.7 101.5C81.2 102.6 77.5 100.6 76.4 97.1004C75.3 93.6004 77.3 89.9004 80.8 88.8004C84.3 87.7004 88 89.7004 89.1 93.2004C89.4 94.1004 88.9 95.1004 88 95.4004C87.1 95.7004 86.1 95.2004 85.8 94.3004C85.3 92.6004 83.5 91.7004 81.8 92.2004C80.1 92.7004 79.2 94.5004 79.7 96.2004C80.2 97.9004 82 98.8004 83.7 98.3004C84.6 98.0004 85.6 98.5004 85.9 99.4004C86.1 100.3 85.6 101.2 84.7 101.5Z" fill="#35414D"/>
<path d="M87.6001 110.899C84.1001 111.999 80.4001 109.999 79.3001 106.499C79.0001 105.599 79.5001 104.599 80.4001 104.299C81.3001 103.999 82.3001 104.499 82.6001 105.399C83.1001 107.099 84.9001 107.999 86.6001 107.499C88.3001 106.999 89.2001 105.199 88.7001 103.499C88.2001 101.799 86.4001 100.899 84.7001 101.399C83.8001 101.699 82.8001 101.199 82.5001 100.299C82.2001 99.3992 82.7001 98.3992 83.6001 98.0992C87.1001 96.9992 90.8001 98.9992 91.9001 102.499C93.0001 106.099 91.1001 109.799 87.6001 110.899Z" fill="#35414D"/>
<path d="M81.7995 92.1997C80.8995 92.4997 79.8995 91.9997 79.5995 91.0997L78.6995 88.0997C78.3995 87.1997 78.8995 86.1997 79.7995 85.8997C80.6995 85.5997 81.6995 86.0997 81.9995 86.9997L82.8995 89.9997C83.1995 90.8997 82.6995 91.8997 81.7995 92.1997Z" fill="#35414D"/>
<path d="M88.3997 113.599C87.4997 113.899 86.4997 113.399 86.1997 112.499L85.3997 109.799C85.0997 108.899 85.5997 107.899 86.4997 107.599C87.3997 107.299 88.3997 107.799 88.6997 108.699L89.4997 111.399C89.7997 112.399 89.2997 113.299 88.3997 113.599Z" fill="#35414D"/>
<path d="M84.5997 22.8995C81.3997 23.8995 78.0997 22.0995 77.0997 18.8995C76.0997 15.6995 77.8997 12.3995 81.0997 11.3995C84.2997 10.3995 87.5997 12.1995 88.5997 15.3995C88.8997 16.1995 88.3997 17.0995 87.5997 17.3995C86.7997 17.6995 85.8997 17.1995 85.5997 16.3995C85.0997 14.8995 83.4997 13.9995 81.9997 14.4995C80.4997 14.9995 79.5997 16.5995 80.0997 18.0995C80.5997 19.5995 82.1997 20.4995 83.6997 19.9995C84.4997 19.6995 85.3997 20.1995 85.6997 20.9995C85.8997 21.6995 85.4997 22.5995 84.5997 22.8995Z" fill="#35414D"/>
<path d="M87.2999 31.3999C84.0999 32.3999 80.7999 30.5999 79.7999 27.3999C79.4999 26.5999 79.9999 25.6999 80.7999 25.3999C81.5999 25.0999 82.4999 25.5999 82.7999 26.3999C83.2999 27.8999 84.8999 28.7999 86.3999 28.2999C87.8999 27.7999 88.7999 26.1999 88.2999 24.6999C87.7999 23.1999 86.1999 22.2999 84.6999 22.7999C83.8999 23.0999 82.9999 22.5999 82.6999 21.7999C82.3999 20.9999 82.8999 20.0999 83.6999 19.7999C86.8999 18.7999 90.1999 20.5999 91.1999 23.7999C92.1999 26.9999 90.3999 30.3999 87.2999 31.3999Z" fill="#35414D"/>
<path d="M81.9993 14.3993C81.1993 14.6993 80.2993 14.1993 79.9993 13.3993L79.1993 10.6993C78.8993 9.89933 79.3993 8.99933 80.1993 8.69933C80.9993 8.39933 81.8993 8.89933 82.1993 9.69933L82.9993 12.3993C83.2993 13.1993 82.7993 14.0993 81.9993 14.3993Z" fill="#35414D"/>
<path d="M88.0999 33.7989C87.2999 34.0989 86.3999 33.5989 86.0999 32.7989L85.2999 30.2989C84.9999 29.4989 85.4999 28.5989 86.2999 28.2989C87.0999 27.9989 87.9999 28.4989 88.2999 29.2989L89.0999 31.7989C89.2999 32.6989 88.8999 33.5989 88.0999 33.7989Z" fill="#35414D"/>
</g>
<defs>
<clipPath id="clip0_4006_3782">
<rect width="619.7" height="175" fill="white"/>
</clipPath>
</defs>
</svg>
