<svg width="192" height="460" viewBox="0 0 192 460" fill="none" xmlns="http://www.w3.org/2000/svg">
<mask id="mask0_2291_13607" style="mask-type:luminance" maskUnits="userSpaceOnUse" x="5" y="330" width="130" height="130">
<path d="M39.3449 330.024L5.02441 425.65L100.65 459.971L134.971 364.345L39.3449 330.024Z" fill="white"/>
</mask>
<g mask="url(#mask0_2291_13607)">
<path d="M102.1 413.401C110.1 391.101 98.4996 366.601 76.1996 358.601C53.8996 350.601 29.3996 362.201 21.3996 384.501C13.3996 406.801 24.9996 431.301 47.2996 439.301C69.5996 447.301 94.0996 435.701 102.1 413.401Z" fill="#FD646F"/>
<path d="M102.099 413.4C106.399 401.3 104.999 388.5 99.1994 378.1C102.899 387.4 103.299 398.1 99.6994 408.3C91.6994 430.6 67.0994 442.2 44.8994 434.2C34.6994 430.5 26.7994 423.4 21.8994 414.6C26.2994 425.7 35.1994 434.9 47.2994 439.2C69.5994 447.3 94.0994 435.7 102.099 413.4Z" fill="#FC4755"/>
<path d="M92.1992 409.8C86.1992 426.6 67.5991 435.4 50.7991 429.3C33.9991 423.3 25.1991 404.7 31.2991 387.9C37.3991 371.1 55.8992 362.3 72.6992 368.4C89.4992 374.5 98.1992 393 92.1992 409.8Z" fill="#F5F5F5"/>
<path d="M92.1994 409.8C95.5994 400.4 94.2994 390.5 89.6994 382.6C92.2994 389.5 92.4994 397.3 89.7994 404.7C83.7994 421.5 65.1994 430.3 48.3994 424.2C40.8994 421.5 35.0994 416.4 31.3994 410C34.5994 418.6 41.4994 425.9 50.7994 429.2C67.5994 435.4 86.1994 426.6 92.1994 409.8Z" fill="#E6E6E6"/>
<path d="M82.2993 406.299C78.1993 417.699 65.6993 423.499 54.3993 419.499C43.0993 415.499 37.1993 402.899 41.1993 391.599C45.2993 380.199 57.7993 374.399 69.0993 378.399C80.3993 382.399 86.3993 394.899 82.2993 406.299Z" fill="#FD646F"/>
<path d="M82.3 406.3C84.7 399.7 83.7 392.6 80.1 387.1C81.5 391.5 81.6 396.5 79.9 401.2C75.8 412.6 63.3 418.4 52 414.4C47.3 412.7 43.5 409.6 41 405.6C43 411.8 47.8 417.1 54.4 419.5C65.7 423.5 78.2 417.6 82.3 406.3Z" fill="#FC4755"/>
<path d="M51.3 395.101C49.2 400.901 52.2 407.201 58 409.301C63.8 411.401 70.1 408.401 72.2 402.601C74.3 396.801 71.3 390.501 65.5 388.401C59.7 386.401 53.4 389.401 51.3 395.101Z" fill="#F5F5F5"/>
<path d="M87.6701 418.211C86.0701 420.311 84.2701 422.211 82.3701 423.811L89.8701 431.211C91.7701 429.511 93.5701 427.711 95.2701 425.611L87.6701 418.211Z" fill="#FC4755"/>
<path d="M80.1594 410.68C78.7594 412.88 76.9594 414.78 74.8594 416.38L82.3594 423.88C84.3594 422.28 86.1594 420.38 87.6594 418.28L80.1594 410.68Z" fill="#E6E6E6"/>
<path d="M72.1889 402.82C71.1889 405.42 69.3889 407.42 67.0889 408.62L74.8889 416.32C76.9889 414.82 78.7889 412.92 80.1889 410.62L72.1889 402.82Z" fill="#FC4755"/>
<path d="M65.1899 395.901C64.3899 395.101 63.3899 394.801 62.4899 394.801C61.4899 394.801 60.49 395.201 59.79 395.901C59.69 396.001 59.5899 396.101 59.4899 396.201C58.2899 397.701 58.39 400.001 59.79 401.401L67.09 408.601C69.39 407.401 71.1899 405.301 72.1899 402.801L65.1899 395.901Z" fill="#E6E6E6"/>
<path d="M116.879 377.037L110.779 379.937L107.479 381.537L97.4785 386.237L106.779 391.437C107.379 391.737 107.979 391.737 108.579 391.537L117.579 387.237L120.879 385.637L126.279 383.037C126.579 382.937 126.579 382.537 126.279 382.337L116.879 377.037Z" fill="#50758D"/>
<path d="M110.71 379.9L107.41 381.5L117.51 387.1L120.81 385.5L110.71 379.9Z" fill="#2B597F"/>
<path d="M115.729 359.81C115.829 359.51 115.429 359.21 115.129 359.41L109.629 362.01L106.329 363.61L97.3291 367.91C96.7291 368.21 96.3291 368.71 96.2291 369.31L94.3291 379.91L104.329 375.31L107.629 373.81L113.729 371.01L115.729 359.81Z" fill="#50758D"/>
<path d="M109.699 362L106.399 363.6L104.299 375.3L107.599 373.8L109.699 362Z" fill="#2B597F"/>
<path d="M122.44 373.439C122.74 372.639 122.74 371.739 122.44 370.839C122.44 370.739 122.34 370.639 122.34 370.439C121.44 368.539 119.14 367.639 117.14 368.639L60.8398 395.239C59.8398 395.739 59.1398 396.539 58.8398 397.439C58.5398 398.339 58.5398 399.439 58.9398 400.439C59.0398 400.539 59.0398 400.639 59.1398 400.739C60.1398 402.439 62.3398 403.139 64.1398 402.239L120.44 375.639C121.34 375.239 122.04 374.339 122.44 373.439Z" fill="#918291"/>
<path d="M122.44 373.44C122.74 372.64 122.74 371.74 122.44 370.84L59.1396 400.64C60.1396 402.34 62.3396 403.04 64.1396 402.14L120.44 375.54C121.34 375.24 122.04 374.34 122.44 373.44Z" fill="#7A6E79"/>
<path d="M92.5439 388.828C93.9439 393.128 94.4439 397.728 93.9439 402.328" stroke="#35414D" stroke-width="2.5" stroke-miterlimit="13.3333" stroke-linecap="round" stroke-linejoin="round"/>
<path d="M92.506 408.984C92.406 409.284 92.306 409.584 92.206 409.884C86.206 426.684 67.606 435.484 50.806 429.384C34.006 423.384 25.206 404.784 31.306 387.984C37.306 371.184 55.906 362.384 72.706 368.484C79.806 371.084 85.506 375.884 89.206 381.884" stroke="#35414D" stroke-width="2.5" stroke-miterlimit="13.3333" stroke-linecap="round" stroke-linejoin="round"/>
<path d="M40.2051 402.516C41.5051 410.116 46.8051 416.716 54.4051 419.416C65.8051 423.516 78.3051 417.616 82.3051 406.216C83.8051 401.916 84.0051 397.516 82.9051 393.416" stroke="#35414D" stroke-width="2.5" stroke-miterlimit="13.3333" stroke-linecap="round" stroke-linejoin="round"/>
<path d="M79.627 386.367C77.127 382.767 73.527 379.967 69.127 378.367C57.727 374.267 45.227 380.167 41.227 391.567C40.727 392.967 40.427 394.367 40.127 395.767" stroke="#35414D" stroke-width="2.5" stroke-miterlimit="13.3333" stroke-linecap="round" stroke-linejoin="round"/>
<path d="M95.6727 372.658C90.8727 366.458 84.2727 361.458 76.2727 358.558C68.1727 355.658 59.7727 355.358 51.9727 357.158" stroke="#35414D" stroke-width="2.5" stroke-miterlimit="13.3333" stroke-linecap="round" stroke-linejoin="round"/>
<path d="M45.5338 359.182C34.6338 363.582 25.6338 372.482 21.4338 384.382C13.4338 406.682 25.0338 431.182 47.3338 439.182C69.6338 447.182 94.1338 435.582 102.134 413.282C104.934 405.382 105.334 397.182 103.634 389.482" stroke="#35414D" stroke-width="2.5" stroke-miterlimit="13.3333" stroke-linecap="round" stroke-linejoin="round"/>
<path d="M69.6293 391.051C68.5293 389.951 67.1293 389.051 65.5293 388.451C59.7293 386.351 53.4293 389.351 51.3293 395.151C49.2293 400.951 52.2293 407.251 58.0293 409.351C63.8293 411.451 70.1293 408.451 72.2293 402.651C72.7293 401.151 72.9293 399.551 72.8293 398.051" stroke="#35414D" stroke-width="2.5" stroke-miterlimit="13.3333" stroke-linecap="round" stroke-linejoin="round"/>
<path d="M58.967 400.344C59.867 402.244 62.167 403.144 64.167 402.144L120.467 375.544C122.367 374.644 123.267 372.344 122.267 370.344C121.367 368.444 119.067 367.544 117.067 368.544L60.767 395.144C58.867 396.144 58.067 398.444 58.967 400.344Z" stroke="#35414D" stroke-width="2.5" stroke-miterlimit="13.3333" stroke-linecap="round" stroke-linejoin="round"/>
<path d="M108.061 363.004L106.161 373.404" stroke="#35414D" stroke-width="2.5" stroke-miterlimit="13.3333" stroke-linecap="round" stroke-linejoin="round"/>
<path d="M94.46 379.331L96.46 368.231L115.96 359.031L113.86 370.131" stroke="#35414D" stroke-width="2.5" stroke-miterlimit="13.3333" stroke-linecap="round" stroke-linejoin="round"/>
<path d="M118.909 386.155L109.609 380.955" stroke="#35414D" stroke-width="2.5" stroke-miterlimit="13.3333" stroke-linecap="round" stroke-linejoin="round"/>
<path d="M97.7891 386.311L107.589 391.711L126.889 382.511L117.189 377.111" stroke="#35414D" stroke-width="2.5" stroke-miterlimit="13.3333" stroke-linecap="round" stroke-linejoin="round"/>
</g>
<g clip-path="url(#clip0_2291_13607)">
<path d="M136.5 292C131.4 292 127 288.8 126 284.3L125.9 284H125.7C123.5 283.7 121.8 281.5 121.8 279.1V265.2C121.8 264.6 122.1 264.1 122.6 263.7L122.8 263.6V263.4C122.6 253.7 119.2 247.4 112.7 238.6C108.8 233.4 106 225.9 105 218.1C104.9 217.7 105 217.3 105.3 216.9L105.5 216.6L105.3 216.4C103.5 214.2 102.5 211.3 102.5 208.2C102.5 204.4 104.2 200.7 107 198.3L107.3 198.1L107.1 197.8C106.4 196.4 106.1 194.9 106.1 193.2C106.1 187.7 110.3 183.2 115.5 183.2H115.9V182.8C115.9 178.6 119 175.2 122.8 175.2C123.6 175.2 124.5 175.4 125.2 175.7L125.6 175.9L125.7 175.4C125.9 174.2 126.4 173.1 127.2 172.3C128.3 171.2 129.7 170.5 131.1 170.5C134.2 170.5 136.7 173.3 136.7 176.7V216.2H142.4V176.7C142.4 173.3 144.9 170.5 148 170.5C149.4 170.5 150.9 171.1 152 172.3C152.8 173.2 153.3 174.2 153.5 175.4L153.6 175.9L154 175.7C154.8 175.4 155.6 175.2 156.4 175.2C160.2 175.2 163.3 178.6 163.3 182.8V183.2H163.7C168.9 183.2 173.1 187.7 173.1 193.2C173.1 194.8 172.7 196.4 172.1 197.8L171.9 198.1L172.2 198.3C175 200.6 176.7 204.3 176.7 208.2C176.7 211.2 175.7 214.1 173.9 216.4L173.7 216.6L173.9 216.9C174.1 217.3 174.2 217.7 174.2 218.1C173.2 225.9 170.4 233.4 166.6 238.6C160 247.5 156.7 253.7 156.5 263.4V263.6L156.7 263.7C157.2 264 157.5 264.6 157.5 265.2V279.1C157.5 281.5 155.8 283.7 153.6 284H153.4L153.3 284.3C152.3 288.8 147.9 292 142.8 292H136.5ZM129.5 284.7C130.7 287 133.5 288.6 136.5 288.6H143C146 288.6 148.8 287 150 284.7L150.3 284.1H129.2L129.5 284.7ZM125 279.1C125 279.9 125.6 280.6 126.4 280.6H153.1C153.7 280.6 154.3 280.1 154.4 279.5H154.5V279.1V275.5H125V279.1ZM125 272.1H154.5V271.7V267H125V272.1ZM108.5 220.1C109.7 226.4 112 232.3 115 236.4C121 244.4 125.5 251.5 125.9 263.1V263.5H153.5V263.1C153.8 251.4 158.4 244.4 164.4 236.4C167.4 232.4 169.7 226.4 170.9 220.1L171 219.6H108.4L108.5 220.1ZM145.7 216.1H166.2L165.4 215.4C165.2 215.2 164.9 215 164.7 214.8L164.3 214.5C163.6 213.9 163.5 212.8 164 212.1C164.3 211.7 164.8 211.4 165.2 211.4C165.5 211.4 165.9 211.5 166.2 211.8C167.7 213.1 169 214.3 170 215.5L170.2 215.8L170.5 215.6C172.6 213.9 173.8 211.3 173.8 208.4C173.8 205.5 172.5 202.7 170.3 201.1L170.1 200.9L169.9 201.1C168.9 201.8 167.9 202.5 166.7 203.1C166.5 203 166.3 203 166 203C165.4 203 164.8 202.6 164.6 202C164.4 201.6 164.4 201.1 164.6 200.7C164.8 200.3 165 199.9 165.4 199.7C166.3 199.2 167.6 198.5 168.7 197.5C169.7 196.3 170.2 194.8 170.2 193.2C170.2 189.6 167.4 186.6 163.9 186.6C163.1 186.6 162.5 186.7 161.9 187C161.7 187.1 161.6 187.1 161.4 187.1C161 187.1 160.5 186.9 160.2 186.5C159.8 186 159.7 185.2 159.9 184.6C160.2 183.9 160.3 183.3 160.3 182.7C160.3 180.4 158.6 178.5 156.5 178.5C155.2 178.5 154.1 179.1 153.4 180.3C153.1 180.8 152.6 181 152.1 181C151.9 181 151.8 181 151.6 180.9C150.9 180.7 150.5 180 150.5 179.2V176.5C150.5 175.8 150.2 175.1 149.8 174.6C149.6 174.4 149 173.8 148 173.8C146.7 173.8 145.5 175.1 145.5 176.5V183L145.8 183.1C147.9 183.9 149.4 185.1 150.3 186.9C150.7 187.8 150.5 188.8 149.7 189.3C149.4 189.5 149.1 189.5 148.9 189.5C148.3 189.5 147.8 189.2 147.5 188.6C147.2 188 146.7 187.4 146 187L145.4 186.6V199.4L145.7 199.5C147.9 199.9 150.9 201.3 153 205.5C153.4 206.4 153.1 207.4 152.4 207.9C152.2 208 151.9 208.1 151.6 208.1C151 208.1 150.5 207.8 150.2 207.2C148.9 204.6 147.1 203.5 145.8 203.1L145.3 203V216.1H145.7ZM114.2 211.3C114.7 211.3 115.1 211.5 115.4 212C115.9 212.8 115.8 213.9 115.1 214.4C114.9 214.6 114.7 214.7 114.6 214.9C114.4 215.1 114.2 215.3 114 215.4L113.3 216.1H133.8V203.2L133.3 203.4C131.4 204 130 205.4 128.9 207.5C128.6 208 128.1 208.4 127.5 208.4C127.2 208.4 127 208.3 126.7 208.2C126.3 208 126.1 207.6 126 207.2C125.9 206.8 125.9 206.3 126.1 205.9C128.2 201.7 131.2 200.3 133.4 199.9L133.7 199.8V186.9L133.1 187.3C132.4 187.8 131.9 188.3 131.6 189C131.3 189.5 130.8 189.8 130.2 189.8C129.9 189.8 129.7 189.7 129.4 189.6C129 189.4 128.8 189 128.7 188.6C128.6 188.2 128.7 187.7 128.9 187.3C130.2 184.9 132.3 183.9 133.4 183.5L133.7 183.4V176.9C133.7 175.4 132.6 174.2 131.2 174.2C130.6 174.2 129.9 174.5 129.4 175C128.9 175.5 128.7 176.2 128.7 176.9V179.7C128.7 180.5 128.3 181.1 127.6 181.4C127.5 181.4 127.3 181.5 127.1 181.5C126.6 181.5 126.1 181.2 125.8 180.8C125.1 179.7 123.9 179 122.7 179C120.6 179 118.9 180.9 118.9 183.2C118.9 183.8 119 184.5 119.3 185.1C119.6 185.7 119.5 186.5 119 187C118.7 187.4 118.3 187.6 117.9 187.6C117.7 187.6 117.5 187.6 117.4 187.5C116.8 187.2 116.1 187.1 115.4 187.1C111.9 187.1 109.1 190 109.1 193.7C109.1 195.3 109.6 196.8 110.6 197.9C110.7 198.1 111.7 199.1 113.9 200.2C114.3 200.4 114.6 200.7 114.7 201.1C114.9 201.5 114.8 202 114.7 202.4C114.5 203 113.9 203.4 113.3 203.4C113 203.4 112.9 203.4 112.7 203.3C111.5 202.7 110.4 202.1 109.5 201.3L109.3 201.1L109.1 201.3C106.9 203 105.6 205.7 105.6 208.6C105.6 211.5 106.8 214.1 108.9 215.7L109.2 215.9L109.4 215.6C110.4 214.5 111.7 213.2 113.2 211.9C113.5 211.5 113.8 211.3 114.2 211.3Z" fill="#35414D"/>
<path d="M133.4 182.901V176.601C133.4 175.301 132.4 174.301 131.3 174.301C130.7 174.301 130.2 174.601 129.8 175.001C129.4 175.401 129.2 176.001 129.2 176.701V179.401C129.2 180.301 128.7 181.201 127.8 181.401C127 181.701 126.1 181.401 125.6 180.601C125 179.601 124 179.001 122.8 179.001C120.9 179.001 119.4 180.701 119.4 182.801C119.4 183.401 119.5 183.901 119.8 184.501C120.1 185.301 120 186.201 119.5 186.901C119 187.501 118.2 187.801 117.4 187.501C116.8 187.301 116.2 187.101 115.5 187.101C112.2 187.101 109.6 189.901 109.6 193.301C109.6 194.801 110.1 196.201 111 197.301C111.1 197.401 112 198.401 114.2 199.501C115.2 200.001 115.6 201.201 115.2 202.301C114.9 203.101 114.2 203.601 113.4 203.601C113.1 203.601 112.9 203.601 112.6 203.401C111.1 202.701 110 201.901 109.3 201.401C107.2 203.001 105.9 205.601 105.9 208.401C105.9 211.201 107.1 213.601 109 215.201C109.8 214.301 111 213.101 112.9 211.501C113.8 210.801 115 211.001 115.6 211.901C116.2 212.801 116.1 214.201 115.2 214.901C114.8 215.301 114.4 215.601 114.1 215.901H133.3V203.901C132 204.301 130.4 205.301 129.1 207.801C128.8 208.501 128.1 208.901 127.4 208.901C127.1 208.901 126.8 208.801 126.5 208.601C125.6 208.001 125.2 206.701 125.7 205.701C127.9 201.301 131.1 199.901 133.3 199.501V187.501C132.8 187.901 132.3 188.301 131.9 189.001C131.5 189.701 130.9 190.101 130.2 190.101C129.9 190.101 129.5 190.001 129.2 189.801C128.3 189.201 128 187.901 128.5 186.901C129.9 184.601 131.9 183.501 133.4 182.901ZM128.5 194.301C128.5 195.501 127.6 196.401 126.6 196.401C126.5 196.401 121.8 196.401 120.9 199.601C120.6 200.501 119.9 201.101 119 201.101C118.8 201.101 118.6 201.101 118.5 201.001C117.5 200.701 116.9 199.501 117.2 198.401C118.9 192.101 126.4 192.101 126.6 192.101C127.6 192.101 128.5 193.101 128.5 194.301Z" fill="#EFD299"/>
<path d="M170 201.3C169.3 201.9 168.2 202.6 166.7 203.3C166.4 203.4 166.2 203.5 165.9 203.5C165.2 203.5 164.4 203 164.1 202.2C163.7 201.1 164.1 199.8 165.1 199.4C167.3 198.3 168.2 197.3 168.3 197.2C169.2 196.1 169.7 194.7 169.7 193.2C169.7 189.8 167 187 163.8 187C163.1 187 162.5 187.1 161.9 187.4C161.2 187.7 160.3 187.5 159.8 186.8C159.3 186.2 159.1 185.2 159.5 184.4C159.7 183.9 159.9 183.3 159.9 182.7C159.9 180.6 158.3 178.9 156.5 178.9C155.4 178.9 154.3 179.5 153.7 180.5C153.2 181.3 152.3 181.6 151.5 181.3C150.7 181 150.1 180.2 150.1 179.3V176.5C150.1 175.9 149.9 175.3 149.5 174.8C149.2 174.5 148.7 174.1 148 174.1C146.9 174.1 145.9 175.2 145.9 176.4V182.6C147.4 183.1 149.4 184.3 150.7 186.6C151.2 187.6 150.9 188.9 150 189.5C149.7 189.7 149.4 189.8 149 189.8C148.3 189.8 147.7 189.4 147.3 188.7C147 188 146.4 187.6 145.9 187.2V198.9C148 199.3 151.3 200.7 153.5 205.1C154 206.1 153.7 207.4 152.7 208C152.4 208.2 152.1 208.3 151.8 208.3C151.1 208.3 150.5 207.9 150.1 207.2C148.8 204.7 147.2 203.7 145.9 203.3V215.3H165.1C164.8 215 164.4 214.7 164 214.3C163.1 213.6 163 212.3 163.6 211.3C164.3 210.4 165.5 210.2 166.3 210.9C168.2 212.5 169.4 213.7 170.2 214.6C172.2 213 173.3 210.6 173.3 207.8C173.4 205.5 172.1 202.8 170 201.3ZM161 201.1C160.8 201.2 160.6 201.2 160.5 201.2C159.7 201.2 158.9 200.6 158.6 199.7C158.2 198.1 156.8 197.3 155.5 196.9C154.2 196.5 153 196.5 153 196.5C151.9 196.5 151.1 195.5 151.1 194.4C151.1 193.2 151.9 192.3 153 192.3C153.3 192.3 160.7 192.3 162.4 198.6C162.6 199.6 162 200.7 161 201.1Z" fill="#EFD299"/>
<path d="M118.4 214.799C118 215.199 117.6 215.499 117.3 215.799H114.2C114.5 215.499 114.9 215.199 115.3 214.799C116.2 214.099 116.3 212.799 115.7 211.799C115.8 211.699 116 211.499 116.1 211.399C117 210.699 118.2 210.899 118.8 211.799C119.4 212.699 119.2 214.099 118.4 214.799Z" fill="#DEC089"/>
<path d="M132.8 175.101C132.4 175.501 132.2 176.101 132.2 176.701V179.401C132.2 180.301 131.7 181.201 130.8 181.401C130 181.701 129.2 181.401 128.7 180.701C129 180.301 129.1 179.901 129.1 179.401V176.701C129.1 176.101 129.3 175.501 129.7 175.001C130.1 174.601 130.7 174.301 131.2 174.301C131.9 174.401 132.4 174.601 132.8 175.101Z" fill="#DEC089"/>
<path d="M122.5 182.8C122.5 183.4 122.6 183.9 122.9 184.5C123.2 185.3 123.1 186.2 122.6 186.9C122.1 187.5 121.3 187.8 120.5 187.5C120.1 187.3 119.7 187.2 119.2 187.2C119.3 187.1 119.4 187 119.5 186.9C120 186.3 120.2 185.3 119.8 184.5C119.5 183.9 119.4 183.4 119.4 182.8C119.4 180.7 121 179 122.8 179C123.4 179 123.9 179.2 124.4 179.4C123.3 180.1 122.5 181.3 122.5 182.8Z" fill="#DEC089"/>
<path d="M118.4 201.1C118.4 201.5 118.4 201.9 118.2 202.2C117.9 203 117.2 203.5 116.4 203.5C116.1 203.5 115.9 203.5 115.6 203.3C115.3 203.1 115 203 114.7 202.8C114.9 202.6 115 202.4 115.1 202.2C115.5 201.1 115.1 199.8 114.1 199.4C112 198.3 111 197.3 111 197.2C110.1 196.1 109.6 194.7 109.6 193.2C109.6 189.8 112.3 187 115.5 187C116.1 187 116.6 187.1 117.1 187.2C114.6 187.9 112.7 190.3 112.7 193.2C112.7 194.7 113.2 196.1 114.1 197.2C114.2 197.3 115.1 198.3 117.1 199.3C117.2 200.1 117.7 200.8 118.4 201.1Z" fill="#DEC089"/>
<path d="M109.1 208.3C109.1 210.2 109.7 212 110.7 213.5C110 214.1 109.5 214.7 109.1 215.2C107.1 213.6 106 211.2 106 208.4C106 205.6 107.3 203 109.4 201.4C109.9 201.8 110.5 202.2 111.2 202.6C109.8 204 109.1 206.1 109.1 208.3Z" fill="#DEC089"/>
<path d="M165.2 215.7H162.1C161.8 215.4 161.4 215.1 161 214.7C160.1 214 160 212.7 160.6 211.7C161.3 210.8 162.5 210.6 163.3 211.3C163.4 211.4 163.6 211.5 163.7 211.7C163.1 212.6 163.2 214 164.1 214.7C164.5 215.1 164.9 215.4 165.2 215.7Z" fill="#DEC089"/>
<path d="M173.4 208.299C173.4 211.099 172.2 213.499 170.3 215.099C169.9 214.699 169.4 214.099 168.7 213.399C169.7 211.999 170.3 210.199 170.3 208.199C170.3 205.999 169.5 203.999 168.2 202.399C168.9 201.999 169.5 201.499 170 201.199C172.1 202.799 173.4 205.499 173.4 208.299Z" fill="#DEC089"/>
<path d="M150.7 180.7C150.2 181.4 149.3 181.7 148.6 181.4C147.8 181.1 147.2 180.3 147.2 179.4V176.7C147.2 176.1 147 175.6 146.7 175.1C147.1 174.6 147.6 174.4 148.2 174.4C148.9 174.4 149.4 174.8 149.7 175.1C150.1 175.5 150.3 176.1 150.3 176.8V179.5C150.2 179.9 150.4 180.3 150.7 180.7Z" fill="#DEC089"/>
<path d="M160.2 187.1C159.7 187.1 159.3 187.2 158.9 187.4C158.2 187.7 157.3 187.5 156.8 186.8C156.3 186.2 156.1 185.2 156.5 184.4C156.7 183.9 156.9 183.3 156.9 182.7C156.9 181.2 156.1 180 155 179.4C155.5 179.1 156 179 156.6 179C158.5 179 160 180.7 160 182.8C160 183.4 159.9 184 159.6 184.5C159.3 185.3 159.4 186.2 159.9 186.9C160 187 160.1 187 160.2 187.1Z" fill="#DEC089"/>
<path d="M169.8 193.2C169.8 194.7 169.3 196.1 168.4 197.2C168.3 197.3 167.3 198.3 165.2 199.4C164.2 199.9 163.8 201.1 164.2 202.2C164.3 202.4 164.4 202.6 164.6 202.8C164.3 203 164 203.1 163.7 203.3C163.4 203.4 163.2 203.5 162.9 203.5C162.2 203.5 161.4 203 161.1 202.2C160.9 201.8 160.9 201.4 160.9 201.1C161.7 200.9 162.2 200.1 162.2 199.3C164.2 198.3 165.1 197.3 165.2 197.3C166.1 196.2 166.6 194.8 166.6 193.3C166.6 190.5 164.7 188 162.2 187.3C162.7 187.1 163.2 187.1 163.8 187.1C167.2 187.1 169.8 189.9 169.8 193.2Z" fill="#DEC089"/>
<path d="M149.6 284.5C148.5 286.6 145.9 288.2 142.9 288.2H136.4C133.4 288.2 130.8 286.7 129.7 284.5H149.6Z" fill="#FF5A5A"/>
<path d="M125.3 267.301H154.1V271.601H125.3V267.301Z" fill="#ECECEC"/>
<path d="M154.1 275.9V279.1C154.1 279.7 153.6 280.2 153.1 280.2H126.4C125.8 280.2 125.4 279.7 125.4 279.1V275.9H154.1Z" fill="#ECECEC"/>
<path d="M170.5 220C169.4 226.2 167 232.1 164.1 236.1C158.1 244.2 153.5 251.4 153.2 263.1H126.3C126 251.4 121.4 244.2 115.4 236.1C112.4 232.1 110.1 226.2 108.9 220H170.5Z" fill="#FFDC7C"/>
<path d="M170.5 220C169.4 226.2 167 232.1 164.1 236.1C158.1 244.2 153.5 251.4 153.2 263.1H126.3C126 251.4 121.4 244.2 115.4 236.1C112.4 232.1 110.1 226.2 108.9 220H113.4C115 225.4 116.9 230.6 119.4 234.1C124.4 241.2 128.3 247.5 128.5 257.8H150.9C151.2 247.5 155 241.2 160 234.1C162.5 230.6 164.4 225.4 166 220H170.5Z" fill="#EAC05C"/>
<path d="M161 201.101C160.8 201.201 160.6 201.201 160.5 201.201C159.7 201.201 158.9 200.601 158.6 199.701C158.2 198.101 156.8 197.301 155.5 196.901C154.2 196.501 153 196.501 153 196.501C151.9 196.501 151.1 195.501 151.1 194.401C151.1 193.201 151.9 192.301 153 192.301C153.3 192.301 160.7 192.301 162.4 198.601C162.6 199.601 162 200.701 161 201.101Z" fill="#35414D"/>
<path d="M160.4 200.8C159.7 200.8 159.1 200.3 158.9 199.5C158.5 198 157.3 197 155.5 196.4C154.2 196 153 196 152.9 196C152 196 151.3 195.2 151.3 194.3C151.3 193.8 151.4 193.4 151.7 193.1C152 192.8 152.4 192.6 152.8 192.6H152.9C153.2 192.6 160.3 192.7 161.8 198.6C162 199.5 161.5 200.5 160.7 200.7C160.7 200.8 160.5 200.8 160.4 200.8Z" fill="#35414D"/>
<path d="M128.5 194.3C128.5 195.5 127.6 196.4 126.6 196.4C126.5 196.4 121.8 196.4 120.9 199.6C120.6 200.5 119.9 201.1 119 201.1C118.8 201.1 118.6 201.1 118.5 201C117.5 200.7 116.9 199.5 117.2 198.4C118.9 192.1 126.4 192.1 126.6 192.1C127.6 192.1 128.5 193.1 128.5 194.3Z" fill="#35414D"/>
<path d="M119 200.8C118.9 200.8 118.7 200.8 118.6 200.7C117.8 200.4 117.3 199.5 117.5 198.5C119.1 192.6 126.2 192.5 126.5 192.5H126.6C127.5 192.5 128.2 193.3 128.2 194.3C128.2 195.2 127.5 196 126.6 196C126.4 196 121.5 196 120.6 199.5C120.3 200.3 119.7 200.8 119 200.8Z" fill="#35414D"/>
<path d="M139.7 161C138.8 161 138.1 160.2 138.1 159.3V153.7C138.1 152.7 138.8 152 139.7 152C140.6 152 141.3 152.8 141.3 153.7V159.2C141.3 160.2 140.6 161 139.7 161Z" fill="#35414D"/>
<path d="M117.4 167.101C116.9 167.101 116.4 166.801 116.1 166.301L113.3 161.501C112.8 160.701 113.1 159.601 113.8 159.101C114 158.901 114.3 158.801 114.6 158.801C115.1 158.801 115.7 159.101 115.9 159.601L118.6 164.401C119.1 165.201 118.8 166.301 118.1 166.801C117.9 167.001 117.7 167.101 117.4 167.101Z" fill="#35414D"/>
<path d="M101 183.7C100.8 183.7 100.5 183.7 100.3 183.5L95.6003 180.7C94.8003 180.3 94.5003 179.2 95.0003 178.4C95.3003 177.8 95.8003 177.5 96.4003 177.5C96.7003 177.5 96.9003 177.6 97.1003 177.7L101.8 180.5C102.6 180.9 102.9 182 102.4 182.8C102.1 183.4 101.6 183.7 101 183.7Z" fill="#35414D"/>
<path d="M89.6 206.4C88.7 206.4 88 205.6 88 204.7C88 203.7 88.7 203 89.6 203H95C95.9 203 96.6 203.8 96.6 204.7C96.6 205.7 95.9 206.4 95 206.4H89.6Z" fill="#35414D"/>
<path d="M96.2999 231.899C95.6999 231.899 95.1999 231.599 94.8999 230.999C94.4999 230.199 94.7999 229.099 95.4999 228.699L100.2 225.899C100.4 225.799 100.7 225.699 100.9 225.699C101.5 225.699 102 226.099 102.3 226.599C102.7 227.399 102.4 228.499 101.7 228.899L96.9999 231.699C96.7999 231.799 96.5999 231.899 96.2999 231.899Z" fill="#35414D"/>
<path d="M183.1 231.899C182.9 231.899 182.6 231.899 182.4 231.699L177.7 228.899C176.9 228.499 176.6 227.399 177.1 226.599C177.4 225.999 177.9 225.699 178.5 225.699C178.8 225.699 179 225.799 179.2 225.899L183.9 228.699C184.7 229.099 185 230.199 184.5 230.999C184.2 231.499 183.7 231.899 183.1 231.899Z" fill="#35414D"/>
<path d="M184.4 206.4C183.5 206.4 182.8 205.6 182.8 204.7C182.8 203.7 183.5 203 184.4 203H189.8C190.7 203 191.4 203.8 191.4 204.7C191.4 205.7 190.7 206.4 189.8 206.4H184.4Z" fill="#35414D"/>
<path d="M178.4 183.7C177.8 183.7 177.3 183.3 177 182.8C176.6 182 176.9 180.9 177.6 180.5L182.3 177.7C182.5 177.6 182.8 177.5 183 177.5C183.6 177.5 184.1 177.9 184.4 178.4C184.8 179.2 184.5 180.3 183.8 180.7L179.1 183.5C178.9 183.6 178.6 183.7 178.4 183.7Z" fill="#35414D"/>
<path d="M162 167.101C161.7 167.101 161.4 167.001 161.2 166.801C160.5 166.301 160.2 165.201 160.7 164.401L163.4 159.601C163.7 159.101 164.2 158.801 164.7 158.801C165 158.801 165.3 158.901 165.5 159.101C166.2 159.601 166.5 160.701 166 161.501L163.3 166.301C163.1 166.801 162.6 167.101 162 167.101Z" fill="#35414D"/>
</g>
<g clip-path="url(#clip1_2291_13607)">
<path fill-rule="evenodd" clip-rule="evenodd" d="M106.4 75.6994C110.1 80.9994 114.2 87.6994 117 93.6994C117.3 94.3994 117 95.2994 116.3 95.7994L72.3004 126.099C70.0004 127.699 69.1004 124.099 67.7004 121.499C61.3004 109.599 52.5004 98.2994 42.7004 87.7994C30.4004 74.6994 17.0004 57.3994 7.10039 41.2994C6.70039 40.5994 6.90039 39.5994 7.70039 39.0994L51.9004 8.59941C52.7004 7.99941 53.8004 8.19941 54.3004 8.89941C64.5004 25.2994 77.8004 42.6994 90.7004 56.4994C96.7004 62.9994 102 69.4994 106.4 75.6994Z" fill="#7DDF96"/>
<path d="M19.3001 55.3991C15.1001 49.3991 11.4001 43.6991 8.5001 38.8991L52.0001 8.89912C54.9001 13.7991 58.6001 19.4991 62.8001 25.4991C70.8001 36.5991 79.8001 48.0991 87.8001 56.9991C93.3001 63.1991 98.3001 69.2991 102.5 75.2991C110 85.8991 113.2 93.2991 114.4 96.1991L71.0001 126.099C68.3001 119.399 63.3001 111.499 59.2001 105.799C54.6001 99.1991 49.2001 92.3991 44.0001 86.6991C36.1001 77.7991 27.1001 66.3991 19.3001 55.3991ZM16.4001 57.3991C24.0001 68.1991 33.1001 79.7991 41.3001 88.8991C46.3001 94.4991 51.6001 101.199 56.2001 107.699C62.0001 115.999 66.7001 124.099 68.4001 129.799C68.4001 129.999 68.5001 130.099 68.6001 130.199C69.0001 130.799 69.9001 130.999 70.6001 130.599L117.7 98.0991C118.2 97.7991 118.4 97.0991 118.3 96.4991C118.2 96.0991 115.5 87.4991 105.4 73.0991C101.1 66.9991 96.1001 60.7991 90.5001 54.4991C82.3001 45.3991 73.4001 33.9991 65.9001 23.2991C61.2001 16.7991 57.1001 10.3991 54.0001 4.99912C54.0001 4.99912 54.0001 4.99912 54.0001 4.89912C53.6001 4.29912 52.7001 4.09912 52.0001 4.49912L4.9001 36.9991C4.3001 37.3991 4.1001 38.1991 4.5001 38.8991C7.6001 44.2991 11.7001 50.6991 16.4001 57.3991Z" fill="#0D9353"/>
<path d="M16 55.3992C11.5 48.9992 7.59996 43.0992 4.59996 37.9992L52.6 4.89922C55.7 10.0992 59.6 16.0992 64 22.3992C72.3 34.0992 81.9 46.1992 90.3 55.5992C96.2 62.0992 101.4 68.4992 105.8 74.7992C113.7 85.9992 117 93.7992 118.2 96.8992L70.3 129.899C67.6 122.799 62.2 114.499 58 108.399C53.1 101.499 47.4 94.2992 41.9 88.2992C33.7 78.9992 24.2 67.0992 16 55.3992ZM12.7 57.5992C20.7 68.9992 30.3 81.1992 39 90.7992C44.3 96.6992 49.9 103.699 54.8 110.599C60.9 119.299 65.9 127.899 67.6 133.899C67.6 134.099 67.7 134.199 67.8 134.299C68.3 134.999 69.2 135.099 70 134.599L121.9 98.7992C122.5 98.3992 122.7 97.6992 122.5 97.0992C122.4 96.6992 119.7 87.5992 109 72.3992C104.5 65.9992 99.2 59.3992 93.2 52.7992C84.5 43.1992 75.1 31.2992 67.2 19.9992C62.3 12.9992 58 6.29922 54.8 0.599219C54.8 0.599219 54.8 0.499219 54.7 0.499219C54.2 -0.200781 53.3 -0.300781 52.5 0.199219L0.699961 36.0992C-3.9041e-05 36.5992 -0.200039 37.3992 0.199961 38.0992C3.39996 43.7992 7.79996 50.5992 12.7 57.5992Z" fill="#35414D"/>
<path fill-rule="evenodd" clip-rule="evenodd" d="M13.5003 47.2977C11.8003 44.7977 10.2003 42.3977 8.70029 39.8977C8.30029 39.2977 8.50029 38.4977 9.10029 38.0977L16.3003 33.0977C20.0003 38.8977 16.5003 45.4977 13.5003 47.2977Z" fill="#0D9353"/>
<path fill-rule="evenodd" clip-rule="evenodd" d="M44.5 13.7984L51.8 8.79841C52.4 8.39841 53.3 8.49841 53.7 9.19841C55.2 11.5984 56.8 14.0984 58.5 16.5984C55.8 18.3984 48.6 18.9984 44.5 13.7984Z" fill="#0D9353"/>
<path fill-rule="evenodd" clip-rule="evenodd" d="M111.3 87.498C112.8 89.998 114.2 92.498 115.3 94.798C115.6 95.298 115.4 95.998 114.9 96.298L108 101.098C106 98.498 105.5 91.098 111.3 87.498Z" fill="#0D9353"/>
<path fill-rule="evenodd" clip-rule="evenodd" d="M79.3 120.899L72.1 125.799C70.4 126.999 69.6 124.099 68.3 121.899C67.6 120.599 66.8 119.299 66 118.099C70.7 115.799 76.2 116.999 79.3 120.899Z" fill="#0D9353"/>
<path fill-rule="evenodd" clip-rule="evenodd" d="M82.9002 52.2997C90.8002 63.4996 87.9002 78.9997 76.5002 86.7997C65.1002 94.5997 49.5002 91.8997 41.6002 80.7997C33.7002 69.5997 36.6002 54.0996 48.0002 46.2996C59.4002 38.4996 75.0002 41.1996 82.9002 52.2997Z" fill="#0D9353"/>
<path d="M86.0095 102.89C89.1996 101.993 91.0707 98.7228 90.1886 95.5858C89.3065 92.4489 86.0054 90.6331 82.8153 91.5301C79.6252 92.4271 77.7541 95.6973 78.6362 98.8342C79.5183 101.971 82.8194 103.787 86.0095 102.89Z" fill="#0D9353"/>
<path d="M42.4011 40.8919C45.5912 39.9949 47.4623 36.7247 46.5802 33.5878C45.6981 30.4508 42.397 28.635 39.2069 29.532C36.0168 30.4291 34.1457 33.6992 35.0278 36.8362C35.9099 39.9731 39.211 41.7889 42.4011 40.8919Z" fill="#0D9353"/>
<path fill-rule="evenodd" clip-rule="evenodd" d="M71.8002 59.9985C75.3002 64.9985 69.9002 71.4985 68.0002 68.6985C67.5002 67.9985 67.7002 66.9985 68.4002 66.5985C72.2002 63.9985 68.2002 58.2985 64.4002 60.9985C59.5002 64.3985 69.2002 69.7985 61.8002 74.8985C54.6002 79.7985 47.1002 69.1985 54.3002 64.1985C56.0002 62.9985 57.8002 65.5985 56.1002 66.6985C52.3002 69.2985 56.3002 74.9985 60.1002 72.2985C65.0002 68.8985 55.3002 63.4985 62.7002 58.3985C65.6002 56.2985 69.8002 56.9985 71.8002 59.9985Z" fill="#7DDF96"/>
<path fill-rule="evenodd" clip-rule="evenodd" d="M55.2002 71.3985C56.3002 72.9985 54.1002 74.0985 52.6002 75.0985C50.9002 76.2985 49.1002 73.6985 50.8002 72.5985C52.3002 71.5985 54.1002 69.7985 55.2002 71.3985Z" fill="#7DDF96"/>
<path fill-rule="evenodd" clip-rule="evenodd" d="M74 58.4983C75.1 60.0983 72.9 61.1983 71.4 62.1983C69.7 63.3983 67.9 60.7983 69.6 59.6983C71.1 58.5983 72.9 56.8983 74 58.4983Z" fill="#7DDF96"/>
</g>
<defs>
<clipPath id="clip0_2291_13607">
<rect width="103.4" height="140" fill="white" transform="translate(88 152)"/>
</clipPath>
<clipPath id="clip1_2291_13607">
<rect width="122.6" height="135" fill="white"/>
</clipPath>
</defs>
</svg>
