<svg width="192" height="451" viewBox="0 0 192 451" fill="none" xmlns="http://www.w3.org/2000/svg">
<g clip-path="url(#clip0_2291_13606)">
<path d="M156.6 67.3L95.4996 103C93.6996 104.1 91.3996 103.4 90.2996 101.6L59.5996 49.1L127.2 9.5L158 62.2C159 64 158.4 66.3 156.6 67.3Z" fill="#E8EDF2"/>
<path d="M157.999 62.2004L143.499 37.4004L135.499 42.1004L140.699 51.1004C141.199 52.0004 140.899 53.2004 139.999 53.7004L118.699 66.2004L128.899 83.6004L156.699 67.4004C158.399 66.3004 158.999 64.0004 157.999 62.2004Z" fill="#C5D3DD"/>
<path d="M140.099 53.5998L91.6995 81.9999C90.7995 82.4999 89.5995 82.1999 89.0995 81.2999L73.7995 55.0998C73.2995 54.1999 73.5995 52.9999 74.4995 52.4999L122.899 24.1999C123.799 23.6999 124.999 23.9999 125.499 24.8999L140.799 51.0998C141.299 51.9998 140.999 53.0998 140.099 53.5998Z" fill="#DD636E"/>
<path d="M92.5995 79.2L77.2995 53.1C76.7995 52.2 77.0995 51 77.9995 50.5L74.4995 52.5C73.5995 53 73.2995 54.2 73.7995 55.1L89.0995 81.3C89.5995 82.2 90.7995 82.5 91.6995 82L95.1995 80C94.2995 80.5 93.0995 80.1 92.5995 79.2Z" fill="#C63D4F"/>
<path d="M94.6996 99.1996L63.8996 46.5996L59.5996 49.0996L90.3996 101.7C91.4996 103.5 93.7996 104.1 95.5996 103.1L99.8996 100.6C97.9996 101.6 95.6996 101 94.6996 99.1996Z" fill="#C5D3DD"/>
<path d="M118.4 1.90021L57.2997 37.7002C55.4997 38.8002 54.8997 41.1002 55.8997 42.9002L60.7997 51.2002L128.4 11.7002L123.5 3.40021C122.5 1.50021 120.2 0.900208 118.4 1.90021Z" fill="#90D8F9"/>
<path d="M61.5997 35.0996L57.2997 37.5996C55.4997 38.6996 54.8997 40.9996 55.8997 42.7996L60.7997 51.0996L65.0997 48.5996L60.1997 40.2996C59.1997 38.4996 59.7997 36.1996 61.5997 35.0996Z" fill="#75CEF9"/>
<path d="M116.3 62.0996L118.7 66.1996L140.1 53.6996C141 53.1996 141.3 51.9996 140.8 51.0996L135.6 42.0996L119 51.7996C115.4 53.8996 114.2 58.4996 116.3 62.0996Z" fill="#C63D4F"/>
<path d="M112.899 85.0004L109.599 79.4004C109.199 78.8004 109.699 78.0004 110.399 78.0004L119.499 77.4004L114.499 85.0004C114.199 85.6004 113.299 85.6004 112.899 85.0004Z" fill="#DD636E"/>
<path d="M107.5 61.8004L114.5 49.8004C114.9 49.2004 114.4 48.4004 113.7 48.4004L99.7996 48.7004C99.0996 48.7004 98.5996 49.5004 98.9996 50.1004L105.8 61.8004C106.3 62.4004 107.2 62.4004 107.5 61.8004Z" fill="#E8EDF2"/>
<path d="M180 74.6005L144.5 95.4005C143.1 96.2005 141.4 95.7005 140.6 94.4005L120.4 59.7005C119.6 58.3005 120.1 56.6005 121.4 55.8005L156.9 35.0005C158.3 34.2005 160 34.7005 160.8 36.0005L181.1 70.7005C181.8 72.1005 181.4 73.8005 180 74.6005Z" fill="#FFD064"/>
<path d="M144.2 92.3008L123.9 57.7008C123.1 56.3008 123.6 54.6008 124.9 53.8008L121.4 55.9008C120 56.7008 119.6 58.4008 120.4 59.8008L140.7 94.5008C141.5 95.9008 143.2 96.3008 144.6 95.5008L148.1 93.4008C146.7 94.1008 145 93.7008 144.2 92.3008Z" fill="#EBB044"/>
<path d="M165.499 44.1001L157.499 48.8001C156.099 49.6001 154.399 49.1001 153.599 47.8001L148.899 39.8001L156.899 35.1001C158.299 34.3001 159.999 34.8001 160.799 36.1001L165.499 44.1001Z" fill="#DD636E"/>
<path d="M126.6 83.3004L94.8003 101.9C93.7003 102.6 92.2003 102.2 91.6003 101.1L78.2003 78.1004C77.8003 77.4004 76.9003 77.2004 76.3003 77.6004C75.7003 78.0004 75.4003 78.9004 75.8003 79.5004L89.2003 102.4C90.6003 104.9 93.8003 105.7 96.3003 104.3L128 85.7003C128.7 85.3003 128.9 84.4004 128.5 83.8004C128.1 83.1004 127.3 82.9004 126.6 83.3004Z" fill="#35414D"/>
<path d="M73.7999 73.4009C74.4999 73.0009 74.6999 72.1009 74.2999 71.5009L62.6999 51.6009L109.4 24.3009C110.1 23.9009 110.3 23.0009 109.9 22.4009C109.5 21.7009 108.6 21.5009 108 21.9009L61.2999 49.2009L57.1999 42.1009C56.4999 41.0009 56.8999 39.5009 57.9999 38.9009L119.1 3.20086C120.2 2.50086 121.7 2.90086 122.3 4.00086L126.4 11.1009L114.2 18.3009C113.5 18.7009 113.3 19.6009 113.7 20.2009C114.1 20.8009 115 21.1009 115.6 20.7009L127.8 13.5009L141.3 36.6009C141.7 37.3009 142.6 37.5009 143.2 37.1009C143.9 36.7009 144.1 35.8009 143.7 35.2009L124.7 2.60086C123.3 0.100856 120.1 -0.699144 117.6 0.700856L56.5999 36.4009C54.0999 37.8009 53.2999 41.0009 54.6999 43.5009L71.7999 72.8009C72.1999 73.5009 73.0999 73.7009 73.7999 73.4009Z" fill="#35414D"/>
<path d="M62.9998 40.9C62.2998 41.3 62.0998 42.2 62.4998 42.8C62.8998 43.5 63.7998 43.7 64.3998 43.3L65.6998 42.6C66.3998 42.2 66.5998 41.3 66.1998 40.7C65.7998 40 64.8998 39.8 64.2998 40.2L62.9998 40.9Z" fill="#35414D"/>
<path d="M69.1004 37.3004C68.4004 37.7004 68.2004 38.6004 68.6004 39.2004C69.0004 39.9004 69.9004 40.1004 70.5004 39.7004L71.8004 39.0004C72.5004 38.6004 72.7004 37.7004 72.3004 37.1004C71.9004 36.4004 71.0004 36.2004 70.4004 36.6004L69.1004 37.3004Z" fill="#35414D"/>
<path d="M75.2996 33.7007C74.5996 34.1007 74.3996 35.0007 74.7996 35.6007C75.1996 36.2007 76.0996 36.5007 76.6996 36.1007L77.9996 35.4007C78.6996 35.0007 78.8996 34.1007 78.4996 33.5007C78.0996 32.8007 77.1996 32.6007 76.5996 33.0007L75.2996 33.7007Z" fill="#35414D"/>
<path d="M113.699 85.9012C113.199 85.9012 112.799 85.6012 112.499 85.2012L111.099 82.8012L105.999 85.8012C105.899 85.8012 105.899 85.9012 105.799 85.9012C105.599 85.9012 105.499 85.8012 105.399 85.7012C105.299 85.6012 105.299 85.4012 105.399 85.4012C105.499 85.4012 105.499 85.2012 105.599 85.1012L110.699 82.1012L109.299 79.7012C109.099 79.3012 108.999 78.8012 109.299 78.4012C109.499 78.0012 109.899 77.7012 110.399 77.7012L119.399 77.1012L122.399 75.3012C122.499 75.3012 122.499 75.2012 122.599 75.2012C122.799 75.2012 122.899 75.3012 122.999 75.4012C123.099 75.5012 123.099 75.7012 122.999 75.7012C122.999 75.8012 122.899 75.9012 122.799 76.0012L119.799 77.8012L114.899 85.4012C114.799 85.6012 114.599 85.7012 114.399 85.8012C114.199 85.8012 113.999 85.9012 113.699 85.9012ZM109.599 78.4012L113.699 85.4012L118.699 77.8012L109.599 78.4012Z" fill="#35414D"/>
<path d="M113.8 86.2008C113.1 86.2008 112.6 85.9008 112.3 85.3008L111 83.3008L106.3 86.0008C105.9 86.2008 105.4 86.1008 105.2 85.7008C105.1 85.5008 105.1 85.3008 105.1 85.1008C105.1 85.0008 105.2 84.8008 105.5 84.6008L110.3 81.8008L109 79.8008C108.7 79.3008 108.7 78.6008 109 78.1008C109.3 77.6008 109.8 77.2008 110.4 77.2008L119.3 76.6008L122.3 74.9008C122.7 74.7008 123.2 74.8008 123.4 75.2008C123.5 75.4008 123.5 75.6008 123.5 75.8008C123.4 76.0008 123.3 76.2008 123.1 76.3008L120.1 78.0008L115.2 85.5008C115 85.7008 114.9 85.9008 114.6 86.1008C114.4 86.2008 114.1 86.2008 113.8 86.2008ZM109.5 79.0008C109.5 79.2008 109.6 79.3008 109.6 79.4008L111.2 82.2008L105.8 85.4008V85.5008L111.2 82.3008L112.8 85.1008C112.9 85.2008 113 85.4008 113.1 85.4008L109.5 79.0008ZM119.4 77.4008L114.2 85.3008C114.3 85.2008 114.4 85.1008 114.5 85.0008L119.5 77.3008L122.5 75.5008V75.4008L119.3 77.2008L110.3 77.8008C110.1 77.8008 110 77.9008 109.9 77.9008L119.4 77.4008ZM110.2 78.8008L113.7 84.8008L117.9 78.3008L110.2 78.8008Z" fill="#35414D"/>
<path d="M96.7998 94.5011C97.4998 94.1011 97.6998 93.2011 97.2998 92.6011L95.3998 89.4011C94.9998 88.7011 94.0998 88.5011 93.4998 88.9011C92.7998 89.3011 92.5998 90.2011 92.9998 90.8011L94.8998 94.0011C95.2998 94.6011 96.0998 94.8011 96.7998 94.5011Z" fill="#35414D"/>
<path d="M102 89.8004L100.1 86.6004C99.7 85.9004 98.8 85.7004 98.2 86.1004C97.5 86.5004 97.3 87.4004 97.7 88.0004L99.6 91.2003C100 91.9003 100.9 92.1003 101.5 91.7003C102.2 91.3003 102.4 90.4004 102 89.8004Z" fill="#35414D"/>
<path d="M113.7 47.001L99.8 47.301C99 47.301 98.2 47.801 97.8 48.501C97.4 49.201 97.4 50.101 97.8 50.801L104.6 62.501C105 63.201 105.8 63.701 106.6 63.701C107 63.701 107.4 63.601 107.8 63.401C108.1 63.201 108.4 62.901 108.6 62.601L115.6 50.601C116 49.901 116 48.901 115.6 48.201C115.4 47.401 114.6 46.901 113.7 47.001ZM106.7 60.301L100.7 50.001L112.9 49.801L106.7 60.301Z" fill="#35414D"/>
<path d="M156.7 44.3H156.6C156.5 44.3 156.4 44.2 156.3 44.1C156.3 44 156.2 43.9 156.3 43.8L156.7 42.2L155.1 41.8C155 41.8 154.9 41.7 154.8 41.6C154.8 41.5 154.7 41.4 154.8 41.3C154.8 41.1 155 41 155.2 41H155.3L156.9 41.4L157.3 39.8C157.3 39.6 157.5 39.5 157.7 39.5H157.8C157.9 39.5 158 39.6 158.1 39.7C158.1 39.8 158.2 39.9 158.1 40L157.7 41.6L159.3 42C159.5 42.1 159.7 42.3 159.6 42.5C159.6 42.6 159.5 42.7 159.4 42.8C159.3 42.8 159.3 42.9 159.2 42.9H159.1L157.5 42.5L157.1 44.1C157.1 44.2 157 44.3 156.9 44.4C156.8 44.3 156.7 44.3 156.7 44.3Z" fill="#35414D"/>
<path d="M139.2 79.9007C139.4 79.9007 139.5 79.8007 139.7 79.7007C140.2 79.4007 140.5 78.8007 140.4 78.2007L140.1 76.3007L144.2 73.9007L145.7 75.1007C146.3 75.6007 147.2 75.5007 147.7 74.9007C148.2 74.3007 148.1 73.4007 147.5 72.9007L138.4 65.6007C137.9 65.2007 137.1 65.1007 136.5 65.5007C135.9 65.8007 135.6 66.5007 135.7 67.2007L137.6 78.7007C137.7 79.5007 138.4 80.0007 139.2 79.9007ZM139 69.7007L141.8 72.0007L139.6 73.3007L139 69.7007Z" fill="#35414D"/>
<path d="M150.099 71.9011C150.299 72.2011 150.599 72.4011 150.899 72.5011C151.299 72.6011 151.599 72.5011 151.999 72.4011C152.099 72.4011 153.999 71.2011 154.699 70.8011C157.499 69.1011 158.099 65.4011 156.199 62.1011C154.099 58.6011 150.799 57.4011 147.799 59.1011L145.199 60.6011C144.899 60.8011 144.599 61.1011 144.499 61.5011C144.399 61.9011 144.499 62.3011 144.599 62.6011C144.599 62.6011 149.999 71.8011 150.099 71.9011ZM149.099 61.5011C151.399 60.1011 153.199 62.6011 153.599 63.4011C154.599 65.1011 154.799 67.2011 153.099 68.2011C152.799 68.4011 152.199 68.7011 151.699 69.1011C151.099 68.0011 148.399 63.4011 147.699 62.3011L149.099 61.5011Z" fill="#35414D"/>
<path d="M164.399 62.0006C163.499 62.6006 162.299 62.7006 161.399 62.4006C160.699 62.2006 159.899 62.6006 159.599 63.3006C159.399 64.0006 159.799 64.8006 160.499 65.1006C162.199 65.6006 164.199 65.4006 165.799 64.4006C167.799 63.2006 168.799 60.9006 167.999 58.9006C167.499 57.4006 165.799 56.0006 162.899 56.5006C161.499 56.8006 160.099 56.9006 159.699 57.0006C159.299 56.9006 159.199 56.7006 159.099 56.5006C158.999 56.3006 158.899 55.9006 159.399 55.3006C160.499 54.1006 162.299 54.4006 162.399 54.4006C163.199 54.5006 163.899 54.0006 163.999 53.2006C164.099 52.4006 163.599 51.7006 162.799 51.6006C162.699 51.6006 159.499 51.1006 157.299 53.4006C156.199 54.6006 155.899 56.2006 156.399 57.6006C156.899 58.9006 158.099 59.8006 159.499 59.8006C159.599 59.8006 159.599 59.8006 159.699 59.8006C159.799 59.8006 161.399 59.6006 163.199 59.3006C163.699 59.2006 164.899 59.1006 165.199 59.8006C165.599 60.5006 165.299 61.4006 164.399 62.0006Z" fill="#35414D"/>
<path d="M156.2 33.8011L148.2 38.5011L138.5 44.2011L126.8 24.2011C125.9 22.6011 123.9 22.1011 122.3 23.0011L73.7997 51.3011C72.1997 52.2011 71.6997 54.2011 72.5997 55.8011L87.8997 82.0011C88.7997 83.6011 90.7997 84.1011 92.3997 83.2011L122.2 65.8011L139.4 95.2011C140.6 97.2011 143.2 97.9011 145.2 96.7011L180.7 75.9011C182.7 74.7011 183.4 72.1011 182.2 70.1011L173.5 55.2011C173.1 54.5011 172.2 54.3011 171.6 54.7011C171 55.1011 170.7 56.0011 171.1 56.6011L179.8 71.5011C180.2 72.2011 180 73.0011 179.3 73.4011L143.8 94.2011C143.1 94.6011 142.3 94.4011 141.9 93.7011L121.6 59.0011C121.2 58.3011 121.4 57.5011 122.1 57.1011L148.4 41.7011L152.4 48.5011C153.6 50.5011 156.2 51.2011 158.2 50.0011L165 46.0011L167.7 50.6011C168.1 51.3011 169 51.5011 169.6 51.1011C170.2 50.7011 170.5 49.8011 170.1 49.2011L166.7 43.3011L162 35.3011C160.8 33.3011 158.2 32.7011 156.2 33.8011ZM119.1 60.4011L120.8 63.3011L90.9997 80.7011C90.7997 80.8011 90.4997 80.8011 90.3997 80.5011L74.9997 54.4011C74.8997 54.2011 74.8997 53.9011 75.1997 53.8011L123.6 25.5011C123.8 25.4011 124.1 25.4011 124.2 25.7011L135.9 45.7011L120.6 54.7011C118.6 55.8011 118 58.4011 119.1 60.4011ZM156.7 47.6011C156 48.0011 155.2 47.8011 154.8 47.1011L150.8 40.3011L157.6 36.3011C158.3 35.9011 159.1 36.1011 159.5 36.8011L163.5 43.6011L156.7 47.6011Z" fill="#35414D"/>
<path d="M170.1 65.0007L141 82.0007C140.3 82.4007 140.1 83.3007 140.5 83.9007C140.9 84.6007 141.8 84.8007 142.4 84.4007L171.4 67.4007C172.1 67.0007 172.3 66.1007 171.9 65.5007C171.6 64.8007 170.7 64.6007 170.1 65.0007Z" fill="#35414D"/>
<path d="M173 70.0005L144 87.0005C143.3 87.4005 143.1 88.3005 143.5 88.9005C143.9 89.6005 144.8 89.8005 145.4 89.4005L174.4 72.4005C175.1 72.0005 175.3 71.1005 174.9 70.5005C174.6 69.9005 173.7 69.6005 173 70.0005Z" fill="#35414D"/>
</g>
<g clip-path="url(#clip1_2291_13606)">
<path d="M63.6007 241.101L64.7007 243.201L54.8007 248.501L53.7007 246.401C52.2007 243.701 53.3007 240.201 56.0007 238.801C58.7007 237.301 62.1007 238.301 63.6007 241.101Z" fill="#EC5664"/>
<path d="M92.4004 240.302L105.1 264.302C113.3 279.702 107.4 298.802 92.0004 306.902C76.6004 315.102 57.5004 309.202 49.4004 293.802L36.7004 269.802C34.0004 264.702 36.0004 258.402 41.1004 255.702L78.3004 236.002C83.4004 233.302 89.7004 235.202 92.4004 240.302Z" fill="#EC5664"/>
<path d="M108.4 274.101C110.5 287.001 104.3 300.401 92.0002 306.901C84.3002 311.001 75.7002 311.501 68.0002 309.201C60.3002 306.801 53.5002 301.501 49.4002 293.801L36.7002 269.801C35.5002 267.501 35.2002 265.001 35.7002 262.701C36.4002 266.301 37.7002 269.701 39.4002 273.101C49.6002 292.301 73.3002 299.601 92.5002 289.401C99.5002 285.801 104.8 280.401 108.4 274.101Z" fill="#DB4554"/>
<path d="M108.8 288.702C106.3 296.802 100.8 303.902 92.7004 308.202C76.6004 316.702 56.6004 310.602 48.1004 294.502L35.4004 270.502C33.9004 267.702 33.6004 264.502 34.5004 261.402C35.4004 258.402 37.5004 255.902 40.3004 254.402L77.6004 234.602C80.4004 233.102 83.6004 232.802 86.7004 233.702C89.7004 234.602 92.2004 236.702 93.7004 239.502L106.4 263.502C110.7 271.602 111.3 280.602 108.8 288.702ZM37.4004 262.302C36.7004 264.602 36.9004 267.002 38.0004 269.102L50.7004 293.102C58.4004 307.702 76.7004 313.302 91.3004 305.602C105.9 297.902 111.5 279.602 103.8 265.002L91.1004 241.002C90.0004 238.902 88.1004 237.302 85.8004 236.602C83.5004 235.902 81.1004 236.102 79.0004 237.202L41.8004 257.002C39.7004 258.202 38.1004 260.002 37.4004 262.302Z" fill="#35414D"/>
<path d="M77.6008 242.802L88.1008 262.502C92.6008 270.902 89.4008 281.402 80.9008 285.802C72.5008 290.302 62.0008 287.102 57.6008 278.602L47.2008 258.902C45.7008 256.102 46.8008 252.702 49.6008 251.202L70.0008 240.402C72.7008 239.002 76.1008 240.002 77.6008 242.802Z" fill="#F5F5FA"/>
<path d="M90.0011 271.401C89.7011 277.301 86.4011 282.801 80.9011 285.801C76.7011 288.001 72.0011 288.301 67.8011 287.001C63.6011 285.701 59.9011 282.801 57.6011 278.601L47.2011 258.901C45.8011 256.201 46.7011 252.901 49.3011 251.301C49.8011 252.901 50.4011 254.401 51.2011 255.901C57.5011 267.901 75.9011 279.001 87.8011 272.701C88.6011 272.401 89.3011 271.901 90.0011 271.401Z" fill="#E5E8EC"/>
<path d="M90.7008 276.102C89.3008 280.702 86.1008 284.702 81.6008 287.102C72.5008 291.902 61.1008 288.402 56.3008 279.302L45.8008 259.602C43.9008 256.102 45.3008 251.702 48.8008 249.902L69.2008 239.102C72.7008 237.202 77.1008 238.602 78.9008 242.102L89.4008 261.802C91.8008 266.402 92.1008 271.502 90.7008 276.102ZM48.2008 255.102C47.9008 256.102 48.0008 257.302 48.5008 258.302L58.9008 278.002C63.0008 285.702 72.5008 288.602 80.2008 284.502C87.9008 280.402 90.8008 270.902 86.7008 263.202L76.3008 243.502C75.2008 241.402 72.7008 240.702 70.6008 241.802L50.2008 252.602C49.2008 253.102 48.5008 254.002 48.2008 255.102Z" fill="#35414D"/>
<path d="M66.1006 243.601C66.0006 244.001 65.7006 244.301 65.4006 244.501L55.5006 249.801C54.8006 250.201 53.9006 249.901 53.5006 249.201L52.3006 247.001C50.5006 243.501 51.8006 239.201 55.3006 237.401C58.8006 235.601 63.1006 236.901 64.9006 240.401L66.0006 242.501C66.2006 242.901 66.2006 243.301 66.1006 243.601ZM55.4006 246.501L62.7006 242.601L62.3006 241.801C61.2006 239.801 58.7006 239.001 56.7006 240.101C54.7006 241.201 53.9006 243.701 55.0006 245.701L55.4006 246.501Z" fill="#35414D"/>
<path d="M70.2001 256.401L73.7001 263.001C74.9001 265.201 74.0001 268.001 71.8001 269.201C69.6001 270.401 66.8001 269.501 65.6001 267.301L62.1001 260.701C60.9001 258.501 61.8001 255.701 64.0001 254.501C66.2001 253.301 69.0001 254.201 70.2001 256.401Z" fill="#FFCD57"/>
<path d="M73.3003 262.5L73.6003 263.1C74.8003 265.3 73.9003 268.1 71.7003 269.3C70.6003 269.9 69.3003 270 68.2003 269.6C67.1003 269.3 66.1003 268.5 65.5003 267.4L62.0003 260.8C60.9003 258.8 61.5003 256.3 63.3003 255C66.6003 260.7 70.6003 264.4 72.6003 263.3C73.0003 263.1 73.2003 262.8 73.3003 262.5Z" fill="#F2BB45"/>
<path d="M75.4997 267.002C74.9997 268.602 73.9997 269.802 72.4997 270.602C69.4997 272.202 65.8998 271.002 64.2998 268.102L60.7997 261.502C59.1997 258.502 60.3997 254.902 63.2997 253.302C66.2997 251.702 69.8997 252.902 71.4997 255.802L74.9997 262.402C75.7997 263.802 75.8997 265.502 75.4997 267.002ZM63.1997 257.702C62.9997 258.402 62.9997 259.302 63.3997 260.002L66.8997 266.602C67.6997 268.102 69.5997 268.702 71.0997 267.902C72.5997 267.102 73.0997 265.202 72.3997 263.702L68.8997 257.102C68.0997 255.602 66.1997 255.002 64.6997 255.802C63.8997 256.202 63.3997 256.902 63.1997 257.702Z" fill="#35414D"/>
<path d="M34.2 226.9C50.3267 226.9 63.4 213.827 63.4 197.7C63.4 181.573 50.3267 168.5 34.2 168.5C18.0733 168.5 5 181.573 5 197.7C5 213.827 18.0733 226.9 34.2 226.9Z" fill="#F5F5FA"/>
<path d="M49.3002 172.701C60.5002 179.501 66.2002 193.301 62.1002 206.301C57.4002 221.801 41.0002 230.401 25.6002 225.701C15.9002 222.701 8.9002 215.201 6.2002 206.101C8.2002 207.301 10.4002 208.301 12.7002 209.001C28.2002 213.701 44.5002 205.101 49.2002 189.601C51.0002 183.901 50.9002 178.001 49.3002 172.701Z" fill="#E5E8EC"/>
<path d="M34.2 216.9C44.8039 216.9 53.4 208.304 53.4 197.7C53.4 187.096 44.8039 178.5 34.2 178.5C23.5961 178.5 15 187.096 15 197.7C15 208.304 23.5961 216.9 34.2 216.9Z" fill="#FFCD57"/>
<path d="M43 180.602C51.1 184.802 55.3 194.302 52.6 203.402C49.5 213.602 38.7 219.202 28.6 216.102C20.3 213.602 15 206.102 15 197.902C16 198.402 17.1 198.802 18.1 199.202C28.3 202.302 39 196.602 42.1 186.502C42.7 184.502 43 182.502 43 180.602Z" fill="#F4BA43"/>
<path d="M54.0001 203.802C50.6001 214.702 39.0001 220.902 28.1001 217.502C17.2001 214.102 11.0001 202.602 14.4001 191.602C17.8001 180.602 29.4001 174.502 40.3001 177.902C51.2001 181.302 57.3001 192.902 54.0001 203.802ZM17.2001 192.502C14.3001 201.802 19.6001 211.802 28.9001 214.702C38.2001 217.602 48.2001 212.302 51.1001 203.002C54.0001 193.702 48.7001 183.702 39.4001 180.802C30.0001 177.902 20.1001 183.202 17.2001 192.502Z" fill="#35414D"/>
<path d="M63.6001 206.701C58.6001 222.901 41.4001 232.001 25.2001 227.001C9.00011 222.001 -0.199894 204.901 4.80011 188.701C9.80011 172.501 27.0001 163.401 43.2001 168.401C59.4001 173.401 68.5001 190.601 63.6001 206.701ZM7.70011 189.601C3.20011 204.201 11.4001 219.801 26.0001 224.201C40.6001 228.601 56.2001 220.501 60.7001 205.801C65.2001 191.301 57.0001 175.701 42.3001 171.201C27.6001 166.701 12.2001 175.001 7.70011 189.601Z" fill="#35414D"/>
<path d="M34.9998 199.101C32.2998 200.801 28.6998 200.001 27.0998 197.301C25.4998 194.601 26.1998 191.001 28.8998 189.401C31.5998 187.801 35.1998 188.501 36.7998 191.201C37.1998 191.901 36.9998 192.801 36.2998 193.301C35.5998 193.701 34.6998 193.501 34.1998 192.801C33.3998 191.501 31.6998 191.101 30.3998 191.901C29.0998 192.701 28.6998 194.401 29.4998 195.701C30.2998 197.001 31.9998 197.401 33.2998 196.601C33.9998 196.201 34.8998 196.401 35.3998 197.101C35.8998 197.701 35.6998 198.601 34.9998 199.101Z" fill="#35414D"/>
<path d="M39.4994 206.302C36.7994 208.002 33.1994 207.202 31.5994 204.502C31.1994 203.802 31.3994 202.902 32.0994 202.402C32.7994 202.002 33.6994 202.202 34.1994 202.902C34.9994 204.202 36.6994 204.602 37.9994 203.802C39.2994 203.002 39.6994 201.302 38.8994 200.002C38.0994 198.702 36.3994 198.302 35.0994 199.102C34.3994 199.502 33.4994 199.302 32.9994 198.602C32.5994 197.902 32.7994 197.002 33.4994 196.502C36.1994 194.802 39.7994 195.602 41.3994 198.302C42.9994 201.102 42.1994 204.602 39.4994 206.302Z" fill="#35414D"/>
<path d="M30.4002 191.801C29.7002 192.201 28.8002 192.001 28.3002 191.301L26.9002 189.001C26.5002 188.301 26.7002 187.401 27.4002 186.901C28.1002 186.501 29.0002 186.701 29.5002 187.401L30.9002 189.701C31.3002 190.501 31.1002 191.401 30.4002 191.801Z" fill="#35414D"/>
<path d="M40.8002 208.401C40.1002 208.801 39.2002 208.601 38.7002 207.901L37.4002 205.801C37.0002 205.101 37.2002 204.201 37.9002 203.701C38.6002 203.201 39.5002 203.501 40.0002 204.201L41.3002 206.301C41.7002 207.101 41.5002 208.001 40.8002 208.401Z" fill="#35414D"/>
<path d="M83.5999 217.9C83.0999 219.5 81.9999 220.9 80.3999 221.7L58.6999 233.2C56.9999 234.1 56.2999 236.3 57.1999 238C57.5999 238.7 57.2999 239.6 56.5999 240C55.8999 240.4 54.9999 240.1 54.5999 239.4C52.8999 236.2 54.0999 232.2 57.2999 230.5L78.9999 219.1C80.5999 218.3 80.9999 216.8 80.8999 215.6C80.7999 214.4 80.0999 213 78.3999 212.5L61.7999 207.4C60.9999 207.2 60.5999 206.3 60.7999 205.5C60.9999 204.7 61.8999 204.3 62.6999 204.5L79.2999 209.6C81.8999 210.4 83.6999 212.6 83.8999 215.3C83.8999 216.2 83.7999 217.1 83.5999 217.9Z" fill="#35414D"/>
<path d="M13.4 231.6C13.3 231.9 13.1 232.2 12.8 232.4L2.39999 239.9C1.69999 240.4 0.799987 240.2 0.299987 239.5C-0.200013 238.8 -1.25766e-05 237.9 0.599987 237.4L11.1 230C11.8 229.5 12.7 229.7 13.2 230.4C13.5 230.7 13.6 231.2 13.4 231.6Z" fill="#35414D"/>
<path d="M28.8996 247.101C28.7996 247.501 28.3996 247.901 27.9996 248.101C27.1996 248.401 26.3996 248.001 26.0996 247.201L21.5996 235.101C21.2996 234.301 21.6996 233.501 22.4996 233.201C23.2996 232.901 24.0996 233.301 24.3996 234.101L28.8996 246.201C28.9996 246.401 28.9996 246.801 28.8996 247.101Z" fill="#35414D"/>
<path d="M18.9002 233.301L15.9002 243.101C15.7002 243.901 14.8002 244.301 14.0002 244.101C13.2002 243.901 12.8002 243.001 13.0002 242.201L16.0002 232.401C16.2002 231.601 17.1002 231.201 17.9002 231.401C18.7002 231.701 19.2002 232.501 18.9002 233.301Z" fill="#35414D"/>
</g>
<g clip-path="url(#clip2_2291_13606)">
<path fill-rule="evenodd" clip-rule="evenodd" d="M104.3 442.799C98.2004 444.599 90.6004 446.199 84.1004 446.799C83.4004 446.899 82.6004 446.299 82.4004 445.499L68.3004 394.799C67.6004 392.099 71.1004 392.499 74.1004 391.999C87.2004 389.799 100.6 385.299 113.5 379.599C129.7 372.399 150.1 365.599 168.3 361.499C169.1 361.299 169.9 361.899 170.2 362.799L184.3 413.699C184.6 414.699 184.1 415.599 183.2 415.799C164.7 419.999 144.1 426.799 127.2 434.299C119.2 437.899 111.5 440.699 104.3 442.799Z" fill="#7DDF96"/>
<path d="M151.3 368.298C158.3 366.298 164.7 364.698 170.1 363.598L184.1 413.798C178.6 414.898 172.1 416.598 165.1 418.498C152.2 422.198 138.6 426.998 127.7 431.498C120.2 434.698 112.9 437.298 106 439.298C93.6997 442.798 85.7997 443.498 82.6997 443.598L68.7997 393.598C75.8997 393.298 84.8997 391.098 91.4997 389.198C99.0997 386.998 107.2 384.198 114.2 381.198C125 376.698 138.4 371.998 151.3 368.298ZM150.3 364.898C137.8 368.498 124.1 373.198 112.9 377.898C106.1 380.798 98.1997 383.598 90.5997 385.798C80.9997 388.598 71.9997 390.398 66.0997 390.098C65.8997 390.098 65.7997 390.098 65.6997 390.198C64.9997 390.398 64.4997 391.198 64.6997 391.898L79.7997 446.198C79.9997 446.798 80.4997 447.198 81.0997 447.198C81.4997 447.198 90.2997 447.498 107 442.698C114 440.698 121.5 437.998 129.1 434.798C140.2 430.098 153.7 425.498 166.1 421.898C173.7 419.698 181 417.898 187 416.798H187.1C187.8 416.598 188.3 415.798 188.1 415.098L173 360.798C172.8 360.098 172.1 359.698 171.4 359.798C165.3 360.898 158.1 362.698 150.3 364.898Z" fill="#0D9353"/>
<path d="M152.3 365.099C159.6 362.999 166.5 361.299 172.2 360.199L187.6 415.599C181.8 416.799 174.9 418.499 167.6 420.599C154 424.499 139.7 429.599 128.2 434.399C120.3 437.799 112.6 440.599 105.3 442.699C92.4002 446.399 84.0002 447.099 80.7002 447.099L65.5002 391.899C73.0002 391.599 82.5002 389.399 89.5002 387.299C97.5002 384.999 106 381.999 113.4 378.799C124.6 373.999 138.8 368.999 152.3 365.099ZM151.3 361.399C138.1 365.199 123.7 370.199 111.9 375.299C104.7 378.399 96.4002 381.399 88.4002 383.599C78.3002 386.499 68.7002 388.299 62.5002 387.999C62.3002 387.999 62.2002 387.999 62.0002 388.099C61.2002 388.299 60.8002 389.199 61.0002 389.999L77.6002 449.899C77.8002 450.499 78.3002 450.999 79.0002 450.999C79.4002 450.999 88.8002 451.499 106.3 446.399C113.7 444.299 121.6 441.399 129.6 437.999C141.3 432.999 155.5 428.099 168.5 424.299C176.6 421.999 184.2 420.099 190.5 418.899H190.6C191.4 418.699 191.8 417.799 191.6 416.999L175.2 357.099C175 356.299 174.2 355.799 173.5 355.999C167.1 357.199 159.4 359.099 151.3 361.399Z" fill="#35414D"/>
<path fill-rule="evenodd" clip-rule="evenodd" d="M160.6 365.499C163.4 364.699 166.3 363.999 169 363.399C169.7 363.199 170.3 363.599 170.5 364.299L172.8 372.599C166.4 374.199 161.4 368.799 160.6 365.499Z" fill="#0D9353"/>
<path fill-rule="evenodd" clip-rule="evenodd" d="M181.899 405.1L184.199 413.5C184.399 414.2 183.999 415 183.199 415.1C180.399 415.7 177.599 416.5 174.799 417.2C173.899 414.2 175.799 407.2 181.899 405.1Z" fill="#0D9353"/>
<path fill-rule="evenodd" clip-rule="evenodd" d="M91.6996 443.599C88.8996 444.199 86.0996 444.699 83.5996 444.999C82.9996 445.099 82.4996 444.699 82.2996 444.099L80.0996 436.199C83.1996 435.099 90.1996 436.999 91.6996 443.599Z" fill="#0D9353"/>
<path fill-rule="evenodd" clip-rule="evenodd" d="M70.8997 403L68.5997 394.7C68.0997 392.7 70.9997 392.9 73.4997 392.5C74.8997 392.2 76.3997 392 77.7997 391.6C78.4997 396.6 75.5997 401.4 70.8997 403Z" fill="#0D9353"/>
<path fill-rule="evenodd" clip-rule="evenodd" d="M133.6 428.499C120.6 432.199 107.1 424.599 103.5 411.399C99.7998 398.299 107.4 384.599 120.4 380.799C133.4 377.099 146.9 384.699 150.5 397.899C154.1 410.999 146.6 424.699 133.6 428.499Z" fill="#0D9353"/>
<path d="M97.327 415.794C97.518 412.541 95.0358 409.749 91.7829 409.558C88.53 409.367 85.7381 411.849 85.547 415.102C85.356 418.355 87.8382 421.147 91.0911 421.338C94.3441 421.529 97.136 419.047 97.327 415.794Z" fill="#0D9353"/>
<path d="M168.989 395.183C169.18 391.93 166.698 389.138 163.445 388.947C160.192 388.756 157.4 391.238 157.209 394.491C157.018 397.744 159.5 400.536 162.753 400.727C166.006 400.918 168.798 398.436 168.989 395.183Z" fill="#0D9353"/>
<path fill-rule="evenodd" clip-rule="evenodd" d="M130.1 415.699C124.3 417.399 120 410.199 123.2 409.299C124 409.099 124.8 409.499 125.1 410.399C126.3 414.799 132.8 412.899 131.6 408.499C130 402.899 121.9 410.199 119.5 401.599C117.2 393.399 129.6 389.799 131.9 397.999C132.4 399.899 129.5 400.799 129 398.799C127.8 394.399 121.3 396.299 122.5 400.699C124.1 406.299 132.2 398.999 134.6 407.599C135.5 411.099 133.5 414.699 130.1 415.699Z" fill="#7DDF96"/>
<path fill-rule="evenodd" clip-rule="evenodd" d="M124.7 396.498C122.8 396.998 122.6 394.598 122.1 392.898C121.6 390.998 124.5 390.098 125 392.098C125.6 393.798 126.6 395.998 124.7 396.498Z" fill="#7DDF96"/>
<path fill-rule="evenodd" clip-rule="evenodd" d="M130.8 418.198C128.9 418.698 128.7 416.298 128.2 414.598C127.7 412.698 130.6 411.798 131.1 413.798C131.6 415.498 132.6 417.698 130.8 418.198Z" fill="#7DDF96"/>
</g>
<defs>
<clipPath id="clip0_2291_13606">
<rect width="128.9" height="105" fill="white" transform="translate(54)"/>
</clipPath>
<clipPath id="clip1_2291_13606">
<rect width="110.3" height="145" fill="white" transform="translate(0 167)"/>
</clipPath>
<clipPath id="clip2_2291_13606">
<rect width="130.9" height="95" fill="white" transform="translate(61 356)"/>
</clipPath>
</defs>
</svg>
