<svg width="223" height="80" viewBox="0 0 223 80" fill="none" xmlns="http://www.w3.org/2000/svg">
<g clip-path="url(#clip0_935_219191)">
<path d="M110.161 28.1602C110.161 25.5202 108.321 24.2402 104.801 24.2402C101.201 24.2402 99.4406 25.5202 99.4406 28.1602V29.0402C99.4406 30.9602 100.801 31.6002 101.681 32.0002L111.201 35.3602C114.961 36.7202 117.681 39.2002 117.681 43.2002V47.4402C117.681 52.0002 114.481 56.4002 104.641 56.4002C94.8806 56.4002 91.6006 52.0802 91.6006 47.4402V44.0002C91.6006 43.0402 92.0006 42.5602 92.9606 42.5602H97.5206C98.4806 42.5602 98.8806 42.9602 98.8806 44.0002V46.4802C98.8806 49.1202 100.961 50.4002 104.721 50.4002C108.401 50.4002 110.561 49.1202 110.561 46.4802V44.7202C110.561 42.4802 108.401 41.6002 105.921 40.6402L97.4406 37.4402C94.8806 36.4802 92.4806 33.6802 92.4806 30.4002V27.2002C92.4806 22.6402 95.3606 18.2402 104.961 18.2402C114.481 18.2402 117.601 22.5602 117.601 27.2002V29.4402C117.601 30.3202 117.201 30.8002 116.241 30.8002H111.681C110.801 30.8002 110.401 30.4002 110.401 29.4402L110.161 28.1602ZM195.041 18.7202C195.921 18.7202 196.401 19.0402 196.401 20.0802V23.5202C196.401 24.4802 196.001 24.8802 195.041 24.8802H181.041V33.7602H194.081C195.041 33.7602 195.441 34.0802 195.441 35.1202V38.6402C195.441 39.6002 195.041 40.0002 194.081 40.0002H181.041V54.6402C181.041 55.6002 180.721 56.0802 179.681 56.0802H174.881C173.921 56.0802 173.521 55.6802 173.521 54.6402V20.1602C173.521 19.2002 173.841 18.7202 174.881 18.7202C174.961 18.7202 195.041 18.7202 195.041 18.7202ZM210.241 50.0002C210.161 50.0002 209.361 50.1602 209.041 50.1602C206.721 50.1602 206.081 49.2802 206.081 47.2802V30.0802C206.081 29.1202 205.681 28.7202 204.721 28.7202H200.241C199.361 28.7202 198.881 29.1202 198.881 30.0802V49.0402C198.881 53.3602 201.761 56.3202 206.721 56.3202C207.921 56.3202 209.041 56.1602 210.001 55.9202C210.081 55.9202 210.161 55.8402 210.241 55.8402C210.401 55.9202 210.641 49.9202 210.241 50.0002ZM220.881 28.6402H216.321C215.361 28.6402 214.961 29.0402 214.961 30.0002V47.6802L215.281 54.4802C215.441 55.4402 215.681 55.8402 216.641 55.8402H220.881C221.761 55.8402 222.241 55.4402 222.241 54.4802V30.0802C222.241 29.0402 221.761 28.6402 220.881 28.6402ZM169.601 28.6402H165.441C164.561 28.6402 164.241 29.1202 164.001 30.0002L155.441 56.6402L152.721 65.6002C152.401 66.4802 153.041 66.9602 154.081 66.9602H157.361C158.321 66.9602 158.721 66.3202 158.881 65.6002L170.961 30.0802C171.281 29.1202 170.561 28.6402 169.601 28.6402ZM132.961 49.9202C132.081 49.6802 131.601 50.2402 131.601 51.2002V54.4002C131.601 55.3602 132.241 55.6802 132.961 55.8402V49.9202Z" fill="#333333"/>
<path d="M210.161 50.0802C211.041 49.8402 211.521 50.4002 211.521 51.3602V54.4802C211.521 55.4402 210.881 55.7602 210.161 55.9202V50.0802ZM156.401 39.1202C156.241 38.5602 153.441 30.0002 153.441 30.0002C153.121 29.1202 152.881 28.6402 151.921 28.6402H147.361C146.481 28.6402 145.761 29.1202 146.081 30.0002L152.881 49.7602C152.881 49.7602 153.441 50.4002 153.601 49.7602C154.321 47.2802 156.081 41.6002 156.321 40.8802C156.641 39.9202 156.641 39.6802 156.401 39.1202ZM136.801 28.2402C132.321 28.2402 129.521 30.1602 128.001 31.3602L127.841 30.0002C127.761 29.0402 127.521 28.6402 126.481 28.6402H122.241C121.281 28.6402 120.881 29.0402 120.881 30.0002V65.6002C120.881 66.5602 121.281 66.9602 122.241 66.9602H126.801C127.681 66.9602 128.081 66.5602 128.081 65.6002V37.0402C129.201 36.1602 131.681 34.4802 134.401 34.4802C136.961 34.4802 137.361 35.9202 137.361 37.3602V47.2002C137.361 48.6402 136.961 50.0802 134.401 50.0802C133.761 50.0802 133.281 50.0002 132.721 49.9202C132.321 49.8402 132.321 55.7602 132.721 55.7602C133.841 56.0802 135.121 56.3202 136.641 56.3202C142.081 56.3202 144.561 53.2002 144.561 48.3202V36.2402C144.801 31.2802 142.241 28.2402 136.801 28.2402Z" fill="#333333"/>
<path d="M50.0805 3.76C47.1205 2.96 44.2405 2.48 41.2805 2.4L41.6005 5.84C44.1605 6 46.6405 6.4 49.1205 7.04C67.7605 12.16 78.7205 31.36 74.0005 50C71.8405 57.6 67.3605 64 61.6005 68.48L54.9605 60.56C54.8005 60.4 54.8005 60.24 54.8005 60.08L57.3605 51.76L43.1205 54.4C42.9605 54.4 42.8005 54.4 42.7205 54.24C42.5605 54.08 42.5605 54 42.5605 53.84L42.6405 51.52C42.6405 51.36 42.7205 51.2 42.8005 51.12L54.4805 42.48C53.9205 40.48 51.0405 29.52 47.6805 25.2C47.5205 25.04 47.5205 24.8 47.6005 24.72C47.6805 24.64 47.8405 24.4 48.0005 24.4L65.4405 23.52L41.3605 11.92C41.2005 11.84 41.1205 11.68 41.1205 11.52L40.0805 0L12.1605 7.84L14.0805 15.92C14.1605 16.08 14.0805 16.32 13.9205 16.4L4.88052 23.04L4.64052 24.24L16.8005 25.36C16.9605 25.36 17.2005 25.52 17.2005 25.76L23.6005 52.16V52.32L23.7605 52.96L23.2005 52.8H22.9605L8.16052 47.2L9.36052 58.32C5.12052 51.04 3.44052 42.08 5.28052 33.28C5.44052 32.72 5.52052 32.24 5.68052 31.68C6.08052 30.08 7.12052 27.52 8.00052 25.52L4.40052 25.12C3.68052 26.72 3.04052 28.4 2.56052 30.08L2.40052 30.24C2.16052 31.04 2.00052 31.84 1.76052 32.56C-2.79948 52.64 9.28052 73.04 29.3605 78.56C50.0005 84.24 71.4405 72.08 77.1205 51.44C82.8805 30.88 70.7205 9.44 50.0805 3.76ZM30.8005 49.76L52.0005 43.44L40.1605 50.56L30.8005 49.76Z" fill="#333333"/>
<path d="M49.5202 74.6402L41.4402 58.6402L32.1602 57.6802L45.6802 75.4402C46.9602 75.2802 48.2402 74.9602 49.5202 74.6402Z" fill="#EC1C27"/>
</g>
<defs>
<clipPath id="clip0_935_219191">
<rect width="221.44" height="80" fill="white" transform="translate(0.880859)"/>
</clipPath>
</defs>
</svg>
