<svg width="13" height="13" viewBox="0 0 13 13" fill="none" xmlns="http://www.w3.org/2000/svg">
<path d="M4.50156 11.7998C4.60156 11.8998 4.80156 12.0998 4.90156 12.0998C5.10156 12.1998 5.20156 12.1998 5.40156 12.1998C5.40156 12.1998 5.40156 12.1998 5.50156 12.1998C5.70156 12.1998 5.90156 12.0998 6.00156 11.9998C6.10156 11.8998 6.20156 11.7998 6.30156 11.6998L12.0016 3.39978L12.6016 2.49978C12.8016 2.19978 12.9016 1.89978 12.8016 1.59978C12.7016 1.29978 12.6016 0.999778 12.3016 0.799778C12.0016 0.599778 11.7016 0.499777 11.4016 0.599777C11.1016 0.699777 10.8016 0.799777 10.6016 1.09978L5.30156 8.89978H5.20156L2.70156 5.79978C2.50156 5.59978 2.20156 5.39978 1.90156 5.39978C1.60156 5.39978 1.30156 5.49978 1.00156 5.69978C0.801563 5.89978 0.601562 6.19978 0.601562 6.49978C0.601562 6.79978 0.701563 7.09978 0.901563 7.39978L4.50156 11.7998Z" fill="#FF492C"/>
</svg>
