<?xml version="1.0" encoding="utf-8"?>
<!-- Generator: Adobe Illustrator 25.0.0, SVG Export Plug-In . SVG Version: 6.00 Build 0)  -->
<svg version="1.1" id="Layer_1" xmlns="http://www.w3.org/2000/svg" xmlns:xlink="http://www.w3.org/1999/xlink" x="0px" y="0px"
	 viewBox="0 0 56 56" style="enable-background:new 0 0 56 56;" xml:space="preserve">
<style type="text/css">
	.st0{fill:#87796F;}
	.st1{fill:#F9EDE1;}
	.st2{fill:#FEDA9B;}
	.st3{fill:#FFB954;}
	.st4{fill:#FF5D5D;}
	.st5{fill:#FF5A5A;}
	.st6{fill:#C1A897;}
	.st7{fill:#FFFFFF;}
	.st8{fill:#35414D;}
</style>
<g>
	<g>
		<path class="st0" d="M13.9,20.7l-5.2,4.1V44c0,1.8,1.4,3.2,3.2,3.2H44c1.8,0,3.2-1.4,3.2-3.2V24.9l-5.2-4"/>
	</g>
	<g>
		<rect x="14.2" y="8.8" class="st1" width="27.5" height="29.8"/>
	</g>
	<g>
		<path class="st2" d="M33.2,38.9H22.3l-13.6-14V44c0,1.8,1.4,3.2,3.2,3.2H44c1.8,0,3.2-1.4,3.2-3.2V24.9L33.2,38.9z"/>
	</g>
	<g>
		<path class="st3" d="M11.4,46.7l11.3-10.3c3-2.7,7.5-2.7,10.5,0l11.3,10.3H11.4z"/>
	</g>
	<g>
		<g>
			<path class="st4" d="M36,18.2c1-1,1-2.6,0-3.6c-1-1-2.6-1-3.6,0L36,18.2z"/>
		</g>
		<g>
			<path class="st5" d="M27.7,27.7l-2.9,2.9c-1.3,1.3-3.5,1.3-4.9,0l0,0c-1.3-1.3-1.3-3.5,0-4.9l2.9-2.9L27.7,27.7z"/>
		</g>
	</g>
	<g>
		<polygon class="st0" points="27.7,27.7 31.1,31.2 29,33.3 25.6,29.8 		"/>
	</g>
	<g>
		<polygon class="st6" points="27.7,27.7 22.8,22.8 28.1,10.3 40.2,22.4 		"/>
	</g>
	<g>
		<polygon class="st7" points="37,23.7 40.2,22.4 28.1,10.3 26.8,13.5 		"/>
	</g>
	<g>
		<path class="st8" d="M23.5,13.7c-0.1,0-0.3-0.1-0.4-0.2c-0.1-0.1-0.2-0.2-0.2-0.4s0.1-0.3,0.2-0.4c0.1-0.1,0.2-0.2,0.4-0.2
			s0.3,0.1,0.4,0.2c0.1,0.1,0.2,0.2,0.2,0.4s-0.1,0.3-0.2,0.4C23.7,13.6,23.6,13.7,23.5,13.7z"/>
	</g>
	<g>
		<path class="st8" d="M17.4,13.7c-0.3,0-0.5-0.2-0.5-0.5s0.2-0.5,0.5-0.5h3.1c0.3,0,0.5,0.2,0.5,0.5s-0.2,0.5-0.5,0.5H17.4z"/>
	</g>
	<g>
		<path class="st8" d="M17.4,18c-0.3,0-0.5-0.2-0.5-0.5s0.2-0.5,0.5-0.5h3.8c0.3,0,0.5,0.2,0.5,0.5S21.5,18,21.2,18H17.4z"/>
	</g>
	<g>
		<path class="st8" d="M12,47.8c-2.1,0-3.7-1.7-3.7-3.7V24.9c0-0.2,0.1-0.3,0.2-0.4l5.2-4.1l0,0l0.1-0.1V8.8c0-0.3,0.2-0.5,0.5-0.5
			h9.5c0.3,0,0.5,0.2,0.5,0.5s-0.2,0.5-0.5,0.5h-9V30c0,0,0,0,0,0c0,0,0,0,0,0v0.1l6.7,6.7l0.9-0.9c1.5-1.4,3.5-2.2,5.6-2.2
			c0.1,0,0.2,0,0.2,0l0.7,0l-3.3-3.3L25.1,31c-0.7,0.7-1.7,1.2-2.8,1.2s-2-0.4-2.8-1.2c-0.7-0.7-1.2-1.7-1.2-2.8s0.4-2,1.2-2.8
			l2.9-2.9l5.3-12.4c0.1-0.2,0.2-0.3,0.4-0.3c0,0,0.1,0,0.1,0c0.1,0,0.3,0.1,0.4,0.2l3.9,3.9l0.2-0.1c0.5-0.3,1-0.4,1.6-0.4
			c0.8,0,1.6,0.3,2.2,0.9c0.6,0.6,0.9,1.3,0.9,2.2c0,0.6-0.2,1.1-0.4,1.6l-0.1,0.2l3.9,3.9c0.1,0.1,0.2,0.3,0.1,0.5
			c0,0.2-0.1,0.3-0.3,0.4l-11.8,5l2.9,2.9c0.2,0.2,0.2,0.5,0,0.7l-2.4,2.4l0.5,0.1c1.5,0.3,2.9,1,4,2l0.9,0.9l6.7-6.7V30l0,0l0-10.6
			c0-0.3,0.2-0.5,0.5-0.5s0.5,0.2,0.5,0.5v1l0.1,0.1l0,0l5,3.9l0.2,0.1c0.1,0.1,0.2,0.2,0.2,0.4V44c0,2.1-1.7,3.7-3.7,3.7H12z
			 M12.2,46.7h31.7l-11-10c-1.3-1.2-3.1-1.9-4.9-1.9c-1.8,0-3.5,0.7-4.9,1.9l-6.6,6h4.7c0.3,0,0.5,0.2,0.5,0.5s-0.2,0.5-0.5,0.5
			h-5.8L12.2,46.7z M35.3,37.6l9.6,8.8c0,0,0,0,0,0l0.1,0.2l0.2-0.1c0.9-0.5,1.4-1.4,1.4-2.4V26.1L35.3,37.6z M9.3,44
			c0,1,0.6,1.9,1.4,2.4l0.2,0.1l0.1-0.2c0,0,0,0,0,0l9.6-8.8L9.3,26.1V44z M26.3,29.8l2.7,2.7l1.4-1.4l-2.7-2.7L26.3,29.8z
			 M20.2,26.2c-0.6,0.6-0.9,1.3-0.9,2.1c0,0.8,0.3,1.5,0.9,2.1c0.6,0.6,1.3,0.9,2.1,0.9c0.8,0,1.5-0.3,2.1-0.9l2.6-2.6l-4.1-4.1
			L20.2,26.2z M42.3,29.1l4.2-4.2l-4.2-3.3V29.1z M9.5,24.9l4.2,4.2v-7.6L9.5,24.9z M23.4,22.7l4.4,4.4l8.3-3.5l-9.1-9.1L23.4,22.7z
			 M27.4,13.4l9.7,9.7l2.2-0.9l-11-11L27.4,13.4z M34.2,14.3c-0.2,0-0.4,0-0.6,0.1l-0.4,0.1l2.8,2.8l0.1-0.4
			c0.1-0.2,0.1-0.4,0.1-0.6c0-0.5-0.2-1.1-0.6-1.4C35.2,14.5,34.7,14.3,34.2,14.3z"/>
		<path class="st8" d="M44,48H12c-2.2,0-4-1.8-4-4V24.9c0-0.2,0.1-0.4,0.3-0.6l5.2-4.2V8.8c0-0.4,0.3-0.8,0.8-0.8h9.5
			c0.4,0,0.8,0.3,0.8,0.8s-0.3,0.8-0.8,0.8H15V30l6.5,6.5l0.8-0.7c1.6-1.4,3.6-2.2,5.7-2.2l0.3,0l-2.7-2.7l-0.3,0.3
			c-0.8,0.8-1.8,1.2-3,1.2s-2.2-0.4-3-1.2c-0.8-0.8-1.2-1.8-1.2-3c0-1.1,0.4-2.2,1.2-3l2.8-2.8L27.4,10c0.1-0.2,0.3-0.4,0.6-0.4
			c0.3-0.1,0.5,0,0.7,0.2l3.7,3.7l0,0c0.5-0.3,1.1-0.5,1.7-0.5c0.9,0,1.7,0.3,2.3,1c0.6,0.6,1,1.5,1,2.3c0,0.6-0.2,1.2-0.5,1.7l0,0
			l3.7,3.7c0.2,0.2,0.3,0.4,0.2,0.7c0,0.2-0.2,0.5-0.5,0.6L29,28l2.6,2.6c0.3,0.3,0.3,0.8,0,1.1l-2.1,2.1l0,0c1.5,0.3,3,1,4.1,2.1
			l0.8,0.7L41,30l0-10.6c0-0.4,0.3-0.8,0.8-0.8s0.8,0.3,0.8,0.8l0,0.8l5.2,4c0.2,0.1,0.3,0.4,0.3,0.6V44C48,46.2,46.2,48,44,48z
			 M14.2,8.5c-0.1,0-0.3,0.1-0.3,0.3v11.6l-0.2,0.2l-5.2,4.1c-0.1,0.1-0.1,0.1-0.1,0.2V44c0,1.9,1.6,3.5,3.5,3.5H44
			c1.9,0,3.5-1.6,3.5-3.5V24.9c0-0.1,0-0.2-0.1-0.2L42,20.5v-1.1c0-0.1-0.1-0.3-0.3-0.3c-0.1,0-0.3,0.1-0.3,0.3l0,10.8l-7,7l-1.1-1
			c-1.1-1-2.4-1.7-3.9-1.9l-0.6-0.1l-0.9,0c-2,0-3.9,0.7-5.4,2.1l-1.1,1l-7-7V9h9.3C23.9,9,24,8.9,24,8.8s-0.1-0.3-0.3-0.3H14.2z
			 M25.6,30.2l3.4,3.4l2.3-2.3c0.1-0.1,0.1-0.3,0-0.4l-3.2-3.2l12.1-5.2c0.1,0,0.1-0.1,0.2-0.2c0-0.1,0-0.2-0.1-0.2l-4-4l0.2-0.3
			c0.3-0.4,0.4-0.9,0.4-1.5c0-0.8-0.3-1.5-0.8-2c-0.5-0.5-1.2-0.8-2-0.8c-0.5,0-1,0.1-1.5,0.4l-0.3,0.2l-4-4
			c-0.1-0.1-0.1-0.1-0.2-0.1c-0.1,0-0.2,0.1-0.2,0.2l-5.3,12.5l-2.9,2.9c-0.7,0.7-1.1,1.6-1.1,2.6c0,1,0.4,1.9,1.1,2.6
			c0.7,0.7,1.6,1.1,2.6,1.1s1.9-0.4,2.6-1.1L25.6,30.2z M44.5,47h-33l3.7-3.4h5.9c0.1,0,0.3-0.1,0.3-0.3c0-0.1-0.1-0.3-0.3-0.3h-5.3
			l7.1-6.5c1.4-1.3,3.2-2,5.1-2s3.7,0.7,5.1,2L44.5,47z M12.8,46.5h30.4L32.7,37c-1.3-1.2-3-1.8-4.7-1.8s-3.4,0.7-4.7,1.8l-6.2,5.6
			h4.1c0.4,0,0.8,0.3,0.8,0.8s-0.3,0.8-0.8,0.8h-5.7L12.8,46.5z M45,46.8l-0.3-0.3l-9.8-8.9l12-12V44c0,1.1-0.6,2.1-1.6,2.6L45,46.8
			z M35.6,37.5l9.5,8.7l0,0c0.8-0.4,1.3-1.3,1.3-2.2V26.7L35.6,37.5z M11,46.8l-0.4-0.2C9.6,46.1,9,45.1,9,44V25.5l12,12L11,46.8z
			 M9.5,26.7V44c0,0.9,0.5,1.7,1.3,2.2l0,0l0.1-0.1l9.4-8.6L9.5,26.7z M29,32.9L26,29.8l1.7-1.7l3.1,3.1L29,32.9z M26.7,29.8
			l2.4,2.4l1-1l-2.4-2.4L26.7,29.8z M22.3,31.4c-0.8,0-1.6-0.3-2.2-0.9c-0.6-0.6-0.9-1.4-0.9-2.2c0-0.8,0.3-1.6,0.9-2.2l2.8-2.8
			l4.5,4.5l-2.8,2.8C23.9,31.1,23.1,31.4,22.3,31.4z M22.8,23.9l-2.4,2.4c-0.5,0.5-0.8,1.2-0.8,1.9c0,0.7,0.3,1.4,0.8,1.9
			c0.5,0.5,1.2,0.8,1.9,0.8c0.7,0,1.4-0.3,1.9-0.8l2.4-2.4L22.8,23.9z M42,29.7v-8.5l4.8,3.7L42,29.7z M42.5,22.2v6.3l3.6-3.6
			L42.5,22.2z M14,29.7l-4.8-4.8L14,21V29.7z M9.9,24.9l3.6,3.6v-6.4L9.9,24.9z M27.7,27.4l-4.6-4.6l0.1-0.2l3.7-8.6l9.6,9.6
			L27.7,27.4z M23.7,22.7l4.1,4.1l7.8-3.3L27,14.9L23.7,22.7z M37,23.4l-9.9-9.9l1.1-2.7l11.5,11.5L37,23.4z M27.7,13.4l9.5,9.5
			l1.7-0.7L28.4,11.7L27.7,13.4z M36,17.9l-3.4-3.4l0.8-0.3c0.8-0.3,1.7-0.1,2.3,0.5c0.4,0.4,0.7,1,0.7,1.6c0,0.2,0,0.5-0.1,0.7
			L36,17.9z M33.6,14.7l2.3,2.3l0,0c0.1-0.2,0.1-0.4,0.1-0.6c0-0.5-0.2-0.9-0.5-1.3C34.9,14.6,34.2,14.5,33.6,14.7L33.6,14.7z"/>
	</g>
	<g>
		<path class="st5" d="M38.6,12.5c-0.1,0-0.3-0.1-0.4-0.2c-0.2-0.2-0.2-0.5,0-0.7l3.2-3.2c0.1-0.1,0.2-0.2,0.4-0.2
			c0.1,0,0.3,0.1,0.4,0.2c0.2,0.2,0.2,0.5,0,0.7L39,12.3C38.9,12.4,38.8,12.5,38.6,12.5z"/>
	</g>
	<g>
		<path class="st5" d="M35.7,10.8c-0.3,0-0.5-0.2-0.5-0.5V8.8c0-0.3,0.2-0.5,0.5-0.5s0.5,0.2,0.5,0.5v1.6
			C36.2,10.6,36,10.8,35.7,10.8z"/>
	</g>
	<g>
		<path class="st5" d="M40.2,15.3c-0.3,0-0.5-0.2-0.5-0.5s0.2-0.5,0.5-0.5h1.6c0.3,0,0.5,0.2,0.5,0.5s-0.2,0.5-0.5,0.5H40.2z"/>
	</g>
	<g>
		<path class="st8" d="M24.4,44c-0.2,0-0.3-0.1-0.5-0.2c-0.1-0.1-0.2-0.3-0.2-0.5c0-0.2,0.1-0.3,0.2-0.5c0.1-0.1,0.3-0.2,0.5-0.2
			c0.2,0,0.3,0.1,0.5,0.2C25,43,25,43.2,25,43.3c0,0.2-0.1,0.3-0.2,0.5C24.7,43.9,24.5,44,24.4,44z"/>
	</g>
</g>
</svg>
