<?xml version="1.0" encoding="utf-8"?>
<!-- Generator: Adobe Illustrator 25.0.0, SVG Export Plug-In . SVG Version: 6.00 Build 0)  -->
<svg version="1.1" id="Layer_1" xmlns="http://www.w3.org/2000/svg" xmlns:xlink="http://www.w3.org/1999/xlink" x="0px" y="0px"
	 viewBox="0 0 56 56" style="enable-background:new 0 0 56 56;" xml:space="preserve">
<style type="text/css">
	.st0{fill:#FFF9EE;}
	.st1{fill:#35414D;}
	.st2{fill:#FFDC97;}
	.st3{fill:#4489F1;}
	.st4{fill:#E74339;}
	.st5{fill:#38A856;}
	.st6{fill:#D7E057;}
	.st7{fill:#36414D;}
	.st8{fill:#6E808E;}
</style>
<g>
	<g>
		<path class="st0" d="M8.7,47.1c-1.2,0-2.3-1-2.3-2.3V11.2c0-1.2,1-2.3,2.3-2.3h38.7c1.2,0,2.3,1,2.3,2.3v33.7c0,1.2-1,2.3-2.3,2.3
			H8.7z"/>
		<path class="st1" d="M47.3,9.8c0.8,0,1.4,0.6,1.4,1.4v33.7c0,0.8-0.6,1.4-1.4,1.4H8.7c-0.8,0-1.4-0.6-1.4-1.4V11.2
			c0-0.8,0.6-1.4,1.4-1.4H47.3 M47.3,8H8.7c-1.7,0-3.2,1.4-3.2,3.2v33.7c0,1.7,1.4,3.2,3.2,3.2h38.7c1.7,0,3.2-1.4,3.2-3.2V11.2
			C50.5,9.4,49.1,8,47.3,8L47.3,8z"/>
	</g>
	<path class="st2" d="M42,24.9c-0.7,0-1.3-0.5-1.3-1.1c0-0.6,0.6-1.1,1.3-1.1h3.7v-2.4h-6.4c-0.7,0-1.3-0.5-1.3-1.1
		c0-0.6,0.6-1.1,1.3-1.1h6.4v-1.9H10.3V44h35.4V24.9L42,24.9z"/>
	<g>
		<path class="st3" d="M18.8,14.3h-1c-0.6,0-1.1-0.5-1.1-1.1s0.5-1.1,1.1-1.1h1c0.6,0,1.1,0.5,1.1,1.1S19.4,14.3,18.8,14.3z"/>
		<path class="st4" d="M24.4,14.3h-1c-0.6,0-1.1-0.5-1.1-1.1s0.5-1.1,1.1-1.1h1c0.6,0,1.1,0.5,1.1,1.1S25,14.3,24.4,14.3z"/>
		<path class="st5" d="M12.4,14.3h-1c-0.6,0-1.1-0.5-1.1-1.1s0.5-1.1,1.1-1.1h1c0.6,0,1.1,0.5,1.1,1.1S13,14.3,12.4,14.3z"/>
	</g>
	<g>
		<g>
			<g>
				<path class="st6" d="M37.3,28.1h-0.4c-0.2-1-0.6-2-1.2-2.9l0.3-0.3c0.3-0.3,0.3-0.9,0-1.2l-1.6-1.6c-0.3-0.3-0.9-0.3-1.2,0
					l-0.3,0.3C32,21.9,31,21.5,30,21.3v-0.4c0-0.5-0.4-0.9-0.9-0.9h-2.2c-0.5,0-0.9,0.4-0.9,0.9v0.4c-0.5,0.1-2,0.6-2.9,1.2
					l-0.3-0.3c-0.3-0.3-0.9-0.3-1.2,0L20,23.7c-0.3,0.3-0.3,0.9,0,1.2l0.3,0.3c-0.6,0.9-1,1.8-1.2,2.9h-0.4c-0.5,0-0.9,0.4-0.9,0.9
					v2.2c0,0.5,0.4,0.9,0.9,0.9h0.4c0.2,1,0.6,2,1.2,2.9L20,35.3c-0.3,0.3-0.3,0.9,0,1.2l1.6,1.6c0.3,0.3,0.9,0.3,1.2,0l0.2-0.2
					c0.9,0.6,1.9,1,2.9,1.2v0.3c0,0.5,0.4,0.9,0.9,0.9h2.2c0.5,0,0.9-0.4,0.9-0.9V39c1.1-0.2,2-0.7,2.9-1.2l0.2,0.2
					c0.3,0.3,0.9,0.3,1.2,0l1.6-1.6c0.3-0.3,0.3-0.9,0-1.2L35.7,35c0.6-0.9,1-1.9,1.2-2.9h0.4c0.5,0,0.9-0.4,0.9-0.9V29
					C38.2,28.5,37.8,28.1,37.3,28.1L37.3,28.1z M28,34.7c-2.5,0-4.6-2-4.6-4.6c0-2.5,2-4.6,4.6-4.6c2.5,0,4.6,2,4.6,4.6
					C32.6,32.6,30.5,34.7,28,34.7L28,34.7z"/>
			</g>
			<g>
				<path class="st1" d="M29.1,40.7h-2.2c-0.7,0-1.3-0.6-1.3-1.3v0c-0.8-0.2-1.7-0.6-2.4-1l0,0c-0.2,0.2-0.6,0.4-0.9,0.4
					c-0.4,0-0.7-0.1-0.9-0.4l-1.6-1.6c-0.5-0.5-0.5-1.3,0-1.9l0,0c-0.4-0.8-0.8-1.6-1-2.4h0c-0.7,0-1.3-0.6-1.3-1.3V29
					c0-0.7,0.6-1.3,1.3-1.3h0.1c0.2-0.8,0.6-1.6,1-2.4l-0.1-0.1c-0.5-0.5-0.5-1.3,0-1.9l1.6-1.6c0.2-0.2,0.6-0.4,0.9-0.4
					c0.4,0,0.7,0.1,0.9,0.4l0.1,0.1c0.8-0.4,1.8-0.8,2.3-1v-0.1c0-0.7,0.6-1.3,1.3-1.3h2.2c0.7,0,1.3,0.6,1.3,1.3v0.1
					c0.8,0.2,1.6,0.5,2.4,1l0.1-0.1c0.5-0.5,1.3-0.5,1.9,0l1.6,1.6c0.5,0.5,0.5,1.3,0,1.9l-0.1,0.1c0.4,0.7,0.8,1.5,1,2.4h0.1
					c0.7,0,1.3,0.6,1.3,1.3v2.2c0,0.7-0.6,1.3-1.3,1.3h0c-0.2,0.8-0.5,1.6-1,2.4l0,0c0.5,0.5,0.5,1.3,0,1.9l-1.6,1.6
					c-0.5,0.5-1.3,0.5-1.9,0l0,0c-0.8,0.4-1.6,0.8-2.4,1v0C30.4,40.1,29.8,40.7,29.1,40.7L29.1,40.7z M23.1,37.4
					c0.1,0,0.2,0,0.2,0.1c0.9,0.5,1.8,0.9,2.8,1.2c0.2,0,0.3,0.2,0.3,0.4v0.3c0,0.2,0.2,0.4,0.4,0.4h2.2c0.2,0,0.4-0.2,0.4-0.4V39
					c0-0.2,0.1-0.4,0.3-0.4c1-0.2,1.9-0.6,2.8-1.2c0.2-0.1,0.4-0.1,0.5,0.1l0.2,0.2c0.2,0.2,0.4,0.2,0.6,0l1.6-1.6
					c0.2-0.2,0.2-0.4,0-0.6l-0.3-0.3c-0.1-0.1-0.2-0.4-0.1-0.5c0.5-0.9,0.9-1.8,1.1-2.8c0-0.2,0.2-0.3,0.4-0.3h0.4
					c0.2,0,0.4-0.2,0.4-0.4V29c0-0.2-0.2-0.4-0.4-0.4h-0.4c-0.2,0-0.4-0.1-0.4-0.3c-0.2-1-0.6-1.9-1.1-2.7c-0.1-0.2-0.1-0.4,0.1-0.5
					l0.3-0.3c0.2-0.2,0.2-0.4,0-0.6l-1.6-1.6c-0.2-0.2-0.4-0.2-0.6,0l-0.3,0.3c-0.1,0.1-0.4,0.2-0.5,0.1c-0.8-0.5-1.8-0.9-2.7-1.1
					c-0.2,0-0.3-0.2-0.3-0.4v-0.4c0-0.2-0.2-0.4-0.4-0.4h-2.2c-0.2,0-0.4,0.2-0.4,0.4v0.4c0,0.2-0.1,0.4-0.3,0.4
					c-0.5,0.1-1.9,0.6-2.7,1.1c-0.2,0.1-0.4,0.1-0.5-0.1l-0.3-0.3c-0.2-0.2-0.5-0.2-0.6,0L20.3,24c-0.2,0.2-0.2,0.4,0,0.6l0.3,0.3
					c0.1,0.1,0.2,0.4,0.1,0.5c-0.5,0.8-0.9,1.8-1.1,2.7c0,0.2-0.2,0.3-0.4,0.3h-0.4c-0.2,0-0.4,0.2-0.4,0.4v2.2
					c0,0.2,0.2,0.4,0.4,0.4h0.4c0.2,0,0.4,0.1,0.4,0.3c0.2,1,0.6,1.9,1.1,2.8c0.1,0.2,0.1,0.4-0.1,0.5l-0.3,0.3
					c-0.2,0.2-0.2,0.4,0,0.6l1.6,1.6c0.2,0.2,0.5,0.2,0.6,0l0.2-0.2C22.9,37.4,23,37.4,23.1,37.4L23.1,37.4z M28,35.1
					c-2.8,0-5-2.2-5-5s2.2-5,5-5s5,2.2,5,5S30.8,35.1,28,35.1z M28,26c-2.3,0-4.1,1.8-4.1,4.1s1.8,4.1,4.1,4.1
					c2.3,0,4.1-1.8,4.1-4.1S30.3,26,28,26z"/>
				<path class="st7" d="M29.1,41.1h-2.2c-0.8,0-1.5-0.6-1.7-1.4c-0.7-0.2-1.4-0.5-2-0.8c-0.7,0.5-1.6,0.4-2.2-0.2l-1.6-1.6
					c-0.3-0.3-0.5-0.8-0.5-1.2c0-0.4,0.1-0.7,0.3-1c-0.3-0.6-0.6-1.3-0.8-2c-0.8-0.1-1.4-0.8-1.4-1.7V29c0-0.9,0.6-1.6,1.5-1.7
					c0.2-0.7,0.5-1.3,0.8-1.9c-0.5-0.7-0.4-1.6,0.2-2.2l1.6-1.6c0.6-0.6,1.6-0.7,2.3-0.1c0.7-0.3,1.4-0.6,1.9-0.8
					c0.1-0.9,0.8-1.5,1.7-1.5h2.2c0.9,0,1.6,0.7,1.7,1.5c0.7,0.2,1.3,0.5,1.9,0.8c0.7-0.5,1.7-0.5,2.3,0.1l1.6,1.6
					c0.6,0.6,0.7,1.6,0.2,2.2c0.3,0.6,0.6,1.3,0.8,1.9c0.9,0.1,1.5,0.8,1.5,1.7v2.2c0,0.9-0.6,1.6-1.4,1.7c-0.2,0.7-0.5,1.3-0.8,2
					c0.5,0.7,0.4,1.6-0.2,2.2L35,38.7c-0.6,0.6-1.5,0.7-2.2,0.2c-0.6,0.4-1.3,0.6-2,0.8C30.7,40.5,30,41.1,29.1,41.1z M23.1,37.9
					l0.3,0.2c0.7,0.4,1.5,0.8,2.3,1l0.3,0.1v0.3c0,0.5,0.4,0.9,0.9,0.9h2.2c0.5,0,0.9-0.4,0.9-0.9v-0.3l0.3-0.1
					c0.8-0.2,1.6-0.5,2.3-1l0.3-0.2l0.2,0.2c0.4,0.4,0.9,0.4,1.3,0l1.6-1.6c0.4-0.4,0.4-0.9,0-1.3L35.8,35l0.1-0.3
					c0.4-0.7,0.7-1.5,0.9-2.3l0.1-0.3h0.3c0.5,0,0.9-0.4,0.9-0.9V29c0-0.5-0.4-0.9-0.9-0.9H37l-0.1-0.3c-0.2-0.8-0.5-1.6-1-2.3
					l-0.2-0.3l0.2-0.2c0.4-0.4,0.4-1,0.1-1.3l-1.6-1.6c-0.4-0.4-0.9-0.4-1.3,0l-0.2,0.2l-0.3-0.1c-0.7-0.4-1.5-0.7-2.3-0.9L30,21.2
					v-0.3c0-0.6-0.4-1-0.9-1h-2.2c-0.5,0-0.9,0.4-0.9,0.9v0.4l-0.3,0.1c-0.3,0.1-1.4,0.5-2.3,0.9l-0.3,0.1l-0.2-0.2
					c-0.5-0.5-1-0.4-1.4-0.1L20,23.7c-0.4,0.4-0.4,0.9,0,1.3l0.2,0.2l-0.1,0.3c-0.4,0.7-0.7,1.5-1,2.3l-0.1,0.3h-0.3
					c-0.6,0-1,0.4-1,0.9v2.2c0,0.5,0.4,0.9,0.9,0.9H19l0.1,0.3c0.2,0.8,0.5,1.6,0.9,2.3l0.2,0.3L20,35.2c-0.2,0.2-0.3,0.4-0.3,0.7
					c0,0.2,0.1,0.5,0.3,0.6l1.6,1.6c0.3,0.3,0.9,0.3,1.3,0L23.1,37.9z M29.1,40.2h-2.2c-0.5,0-0.8-0.4-0.8-0.8V39
					c-1.1-0.3-2-0.7-2.9-1.2l0,0c0,0,0,0,0,0L22.8,38c-0.2,0.2-0.4,0.2-0.6,0.2c0,0,0,0,0,0c-0.2,0-0.4-0.1-0.6-0.2l-1.6-1.6
					c-0.2-0.2-0.2-0.4-0.2-0.6s0.1-0.4,0.2-0.6l0.3-0.3c-0.6-0.9-1-1.9-1.2-2.9l-0.4,0c-0.5,0-0.8-0.4-0.8-0.8V29
					c0-0.5,0.4-0.8,0.8-0.8h0.4c0.3-1,0.7-2,1.2-2.9l-0.3-0.3c-0.2-0.2-0.2-0.4-0.2-0.6s0.1-0.4,0.2-0.6l1.6-1.6
					c0.3-0.3,0.9-0.3,1.2,0l0.3,0.3c0.9-0.5,2.3-1,2.9-1.2l0-0.5c0-0.5,0.4-0.8,0.8-0.8h2.2c0.5,0,0.8,0.4,0.8,0.8v0.4
					c1,0.3,2,0.7,2.9,1.2l0.4-0.3c0.3-0.3,0.9-0.3,1.2,0l1.6,1.6c0.2,0.2,0.2,0.4,0.2,0.6s-0.1,0.4-0.2,0.6l-0.3,0.3
					c0.6,0.9,1,1.9,1.2,2.9l0.4,0c0.5,0,0.8,0.4,0.8,0.8v2.2c0,0.5-0.4,0.8-0.8,0.8h-0.4c-0.3,1.1-0.7,2-1.2,2.9l0.3,0.3
					c0.3,0.3,0.3,0.9,0,1.2L34.4,38c-0.3,0.3-0.9,0.3-1.2,0l-0.2-0.2C32,38.4,31,38.8,30,39l0,0.4C30,39.8,29.6,40.2,29.1,40.2z
					 M23.1,37c0.2,0,0.3,0,0.5,0.1c0.8,0.5,1.7,0.9,2.6,1.1c0.4,0.1,0.7,0.4,0.7,0.8v0.3l2.3,0l0-0.4c0-0.4,0.3-0.7,0.7-0.8
					c0.9-0.2,1.8-0.6,2.6-1.1c0.3-0.2,0.8-0.2,1,0.1l0.2,0.2l1.6-1.6l-0.3-0.3c-0.3-0.3-0.3-0.7-0.1-1c0.5-0.8,0.9-1.7,1.1-2.6
					c0.1-0.4,0.4-0.7,0.8-0.7h0.4l0-2.3l-0.4,0c-0.4,0-0.7-0.3-0.8-0.7c-0.2-0.9-0.6-1.8-1.1-2.6c-0.2-0.3-0.2-0.8,0.1-1l0.3-0.3
					l-1.6-1.6L33.4,23c-0.3,0.3-0.7,0.3-1,0.1c-0.8-0.5-1.7-0.9-2.6-1.1c-0.4-0.1-0.7-0.4-0.7-0.8v-0.4l-2.3,0l0,0.5
					c0,0.4-0.3,0.7-0.6,0.8c-0.5,0.1-1.9,0.6-2.6,1.1c-0.3,0.2-0.8,0.2-1-0.1l-0.3-0.3l-1.6,1.6l0.3,0.3c0.3,0.3,0.3,0.7,0.1,1
					c-0.5,0.8-0.9,1.7-1.1,2.6c-0.1,0.4-0.4,0.7-0.8,0.7h-0.4l0,2.3l0.4,0c0.4,0,0.7,0.3,0.8,0.7c0.2,0.9,0.6,1.8,1.1,2.6
					c0.2,0.3,0.2,0.8-0.1,1l-0.3,0.3l1.6,1.6l0.3-0.2C22.7,37.1,22.9,37,23.1,37z M28,35.5c-3,0-5.4-2.4-5.4-5.4s2.4-5.4,5.4-5.4
					c3,0,5.4,2.4,5.4,5.4S31,35.5,28,35.5z M28,25.5c-2.5,0-4.6,2.1-4.6,4.6s2.1,4.6,4.6,4.6s4.6-2.1,4.6-4.6S30.5,25.5,28,25.5z
					 M28,34.6c-2.5,0-4.5-2-4.5-4.5c0-2.5,2-4.5,4.5-4.5c2.5,0,4.5,2,4.5,4.5C32.5,32.6,30.5,34.6,28,34.6z M28,26.4
					c-2,0-3.7,1.7-3.7,3.7c0,2,1.7,3.7,3.7,3.7c2,0,3.7-1.7,3.7-3.7C31.7,28.1,30,26.4,28,26.4z"/>
			</g>
		</g>
	</g>
	<path class="st8" d="M44.4,14.5H31.9c-0.7,0-1.2-0.6-1.2-1.2v0c0-0.7,0.6-1.2,1.2-1.2h12.5c0.7,0,1.2,0.6,1.2,1.2v0
		C45.7,13.9,45.1,14.5,44.4,14.5z"/>
</g>
</svg>
