<?xml version="1.0" encoding="utf-8"?>
<!-- Generator: Adobe Illustrator 25.0.0, SVG Export Plug-In . SVG Version: 6.00 Build 0)  -->
<svg version="1.1" id="Layer_1" xmlns="http://www.w3.org/2000/svg" xmlns:xlink="http://www.w3.org/1999/xlink" x="0px" y="0px"
	 viewBox="0 0 56 56" style="enable-background:new 0 0 56 56;" xml:space="preserve">
<style type="text/css">
	.st0{fill:#FFF1DE;}
	.st1{fill:#35414D;}
	.st2{fill:#4489F1;}
	.st3{fill:#E74339;}
	.st4{fill:#38A856;}
	.st5{fill:#6E808E;}
	.st6{fill:#1C74BB;}
	.st7{fill:#035FA1;}
	.st8{fill:#D7E057;}
	.st9{fill:#8BCAFF;}
	.st10{fill:#F78F9C;}
</style>
<g>
	<g>
		<path class="st0" d="M8.7,47.1c-1.2,0-2.3-1-2.3-2.3V11.2c0-1.2,1-2.3,2.3-2.3h38.7c1.2,0,2.3,1,2.3,2.3v33.7c0,1.2-1,2.3-2.3,2.3
			H8.7z"/>
		<path class="st1" d="M47.3,9.8c0.8,0,1.4,0.6,1.4,1.4v33.7c0,0.8-0.6,1.4-1.4,1.4H8.7c-0.8,0-1.4-0.6-1.4-1.4V11.2
			c0-0.8,0.6-1.4,1.4-1.4H47.3 M47.3,8H8.7c-1.7,0-3.2,1.4-3.2,3.2v33.7c0,1.7,1.4,3.2,3.2,3.2h38.7c1.7,0,3.2-1.4,3.2-3.2V11.2
			C50.5,9.4,49.1,8,47.3,8L47.3,8z"/>
	</g>
	<g>
		<path class="st2" d="M18.8,14.3h-1c-0.6,0-1.1-0.5-1.1-1.1s0.5-1.1,1.1-1.1h1c0.6,0,1.1,0.5,1.1,1.1S19.4,14.3,18.8,14.3z"/>
		<path class="st3" d="M24.4,14.3h-1c-0.6,0-1.1-0.5-1.1-1.1s0.5-1.1,1.1-1.1h1c0.6,0,1.1,0.5,1.1,1.1S25,14.3,24.4,14.3z"/>
		<path class="st4" d="M12.4,14.3h-1c-0.6,0-1.1-0.5-1.1-1.1s0.5-1.1,1.1-1.1h1c0.6,0,1.1,0.5,1.1,1.1S13,14.3,12.4,14.3z"/>
	</g>
	<path class="st5" d="M44.4,14.5H31.9c-0.7,0-1.2-0.6-1.2-1.2v0c0-0.7,0.6-1.2,1.2-1.2h12.5c0.7,0,1.2,0.6,1.2,1.2v0
		C45.7,13.9,45.1,14.5,44.4,14.5z"/>
	<rect x="10.3" y="17.7" class="st6" width="35.4" height="11.3"/>
	<path class="st7" d="M45.7,29H23.9v0c0-6.2,5-11.3,11.3-11.3h10.5V29z"/>
	<rect x="10.3" y="31.7" class="st8" width="8.7" height="10.5"/>
	<rect x="23.7" y="31.7" class="st9" width="8.7" height="10.5"/>
	<rect x="37" y="31.7" class="st10" width="8.7" height="10.5"/>
</g>
</svg>
