<?xml version="1.0" encoding="utf-8"?>
<!-- Generator: Adobe Illustrator 25.0.0, SVG Export Plug-In . SVG Version: 6.00 Build 0)  -->
<svg version="1.1" id="Layer_1" xmlns="http://www.w3.org/2000/svg" xmlns:xlink="http://www.w3.org/1999/xlink" x="0px" y="0px"
	 viewBox="0 0 56 56" style="enable-background:new 0 0 56 56;" xml:space="preserve">
<style type="text/css">
	.st0{fill:#0281C7;}
	.st1{fill:#0291E0;}
	.st2{fill:#0AA8FF;}
	.st3{fill:#005A8C;}
	.st4{fill:#FFFFFF;}
	.st5{fill:#35414D;}
</style>
<g id="_10-LinkedIn_1_">
	<path class="st0" d="M12.5,8.7h31.1c2.1,0,3.7,1.7,3.7,3.7v31.1c0,2.1-1.7,3.7-3.7,3.7H12.5c-2.1,0-3.7-1.7-3.7-3.7V12.5
		C8.7,10.4,10.4,8.7,12.5,8.7z"/>
	<path class="st1" d="M43.5,8.7H12.5c-2.1,0-3.7,1.7-3.7,3.7v6.2c0,7.5,6.1,13.7,13.7,13.7h11.2c7.5,0,13.7-6.1,13.7-13.7v-6.2
		C47.3,10.4,45.6,8.7,43.5,8.7z"/>
	<path class="st2" d="M43.5,8.7H12.5c-2.1,0-3.7,1.7-3.7,3.7V15c0-2.1,1.7-3.7,3.7-3.7h31.1c2.1,0,3.7,1.7,3.7,3.7v-2.5
		C47.3,10.4,45.6,8.7,43.5,8.7z"/>
	<path class="st3" d="M43.5,44.8H12.5c-2.1,0-3.7-1.7-3.7-3.7v2.5c0,2.1,1.7,3.7,3.7,3.7h31.1c2.1,0,3.7-1.7,3.7-3.7V41
		C47.3,43.1,45.6,44.8,43.5,44.8z"/>
	<path class="st4" d="M41.7,29.2v9.9h-5V28.6c0-1.4-1.2-2.5-3.7-2.5c-2.5,0-3.7,1.1-3.7,2.5v10.6h-5V21.8h5v0.6
		c1.2-0.4,2.5-0.6,3.7-0.6c2.3,0,4.5,0.7,6.2,2.2C40.7,25.3,41.6,27.2,41.7,29.2z"/>
	<path class="st4" d="M14.3,21.8h5v17.4h-5V21.8z"/>
	<circle class="st4" cx="16.8" cy="16.8" r="2.5"/>
	<g>
		<path class="st3" d="M33,26.1c-2.5,0-3.7,1.1-3.7,2.5v1.9c0-1.4,1.2-2.5,3.7-2.5c2.5,0,3.7,1.1,3.7,2.5v-1.9
			C36.7,27.2,35.5,26.1,33,26.1z"/>
		<path class="st3" d="M36.7,39.2h5V41h-5V39.2z"/>
		<path class="st3" d="M24.3,39.2h5V41h-5V39.2z"/>
		<path class="st3" d="M14.3,39.2h5V41h-5V39.2z"/>
		<path class="st3" d="M16.8,19.3c-1,0-1.9-0.6-2.3-1.6C14,19,14.6,20.5,15.9,21c1.3,0.5,2.7-0.1,3.2-1.4c0.2-0.6,0.2-1.3,0-1.9
			C18.7,18.7,17.8,19.3,16.8,19.3z"/>
	</g>
	<path class="st5" d="M42.3,34.8v-5.6c0-2.2-1-4.3-2.7-5.7c-1.9-1.5-4.2-2.4-6.6-2.3c-1.1,0-2.1,0.1-3.2,0.4
		c-0.1-0.2-0.3-0.4-0.6-0.4h-5c-0.3,0-0.6,0.3-0.6,0.6v17.4c0,0.3,0.3,0.6,0.6,0.6h5c0.3,0,0.6-0.3,0.6-0.6V28.6
		c0-1.1,1.2-1.9,3.1-1.9c1.9,0,3.1,0.7,3.1,1.9v10.6c0,0.3,0.3,0.6,0.6,0.6h5c0.3,0,0.6-0.3,0.6-0.6v-3.1H41v2.5h-3.7v-9.9
		c0-1.4-1.1-3.1-4.3-3.1c-3.2,0-4.3,1.7-4.3,3.1v9.9h-3.7V22.4h3.7c0,0.3,0.3,0.6,0.7,0.6c0.1,0,0.1,0,0.2,0
		c1.1-0.4,2.3-0.6,3.5-0.6c2.1,0,4.2,0.7,5.8,2c1.4,1.2,2.3,2.9,2.3,4.8v5.6H42.3z"/>
	<path class="st5" d="M13.7,24.9H15v1.2h-1.2V24.9z"/>
	<path class="st5" d="M13.7,39.2c0,0.3,0.3,0.6,0.6,0.6h5c0.3,0,0.6-0.3,0.6-0.6V21.8c0-0.3-0.3-0.6-0.6-0.6h-5
		c-0.3,0-0.6,0.3-0.6,0.6v1.9H15v-1.2h3.7v16.1H15V27.4h-1.2V39.2z"/>
	<path class="st5" d="M16.8,19.9c1.7,0,3.1-1.4,3.1-3.1s-1.4-3.1-3.1-3.1s-3.1,1.4-3.1,3.1C13.7,18.5,15.1,19.9,16.8,19.9z M16.8,15
		c1,0,1.9,0.8,1.9,1.9s-0.8,1.9-1.9,1.9S15,17.8,15,16.8S15.8,15,16.8,15z"/>
	<g>
		<path class="st5" d="M46.5,43.5c0,1.6-1.3,3-3,3H12.5c-1.6,0-3-1.3-3-3V12.5c0-1.6,1.3-3,3-3h1.4V8h-1.4C10,8,8,10,8,12.5v31.1
			C8,46,10,48,12.5,48h31.1c2.5,0,4.5-2,4.5-4.5v-1.4h-1.5V43.5z"/>
		<path class="st5" d="M43.5,8H17.3v1.5h26.2c2.6,0,3,3.4,3,5.5v26.2H48V15C48,8.7,44.9,8,43.5,8z"/>
		<rect x="14.8" y="8" class="st5" width="1.5" height="1.5"/>
	</g>
</g>
</svg>
