<?xml version="1.0" encoding="utf-8"?>
<!-- Generator: Adobe Illustrator 25.0.0, SVG Export Plug-In . SVG Version: 6.00 Build 0)  -->
<svg version="1.1" id="Layer_1" xmlns="http://www.w3.org/2000/svg" xmlns:xlink="http://www.w3.org/1999/xlink" x="0px" y="0px"
	 viewBox="0 0 56 56" style="enable-background:new 0 0 56 56;" xml:space="preserve">
<style type="text/css">
	.st0{fill:#F2FBFF;}
	.st1{fill:#DFF6FD;}
	.st2{fill:#35414D;}
	.st3{fill:#26A6FE;}
	.st4{fill:#0593FC;}
	.st5{fill:#60B7FF;}
	.st6{fill:#FFE177;}
	.st7{fill:#FFD15B;}
	.st8{fill:#AAE1F9;}
	.st9{fill:#57B7EB;}
	.st10{fill:#C4F236;}
	.st11{fill:#A1D51C;}
	.st12{fill:#FF4A73;}
	.st13{fill:#87828E;}
	.st14{fill:#A4A4A5;}
	.st15{fill:#EA2A6A;}
</style>
<g>
	<g>
		<path class="st0" d="M7.9,14v27c0,0.8,0.5,1.4,1.2,1.4H47c0.7,0,1.2-0.6,1.2-1.4V14H7.9z"/>
	</g>
	<g>
		<path class="st1" d="M45,14v27c0,0.8-0.4,1.4-1,1.4h3.2c0.5,0,1-0.6,1-1.4V14H45z"/>
	</g>
	<g>
		<path class="st2" d="M47,43.1H9.1c-1,0-1.9-0.9-1.9-2.1V14c0-0.4,0.3-0.7,0.6-0.7h40.3c0.4,0,0.6,0.3,0.6,0.7v27
			C48.8,42.2,48,43.1,47,43.1z M8.5,14.7V41c0,0.4,0.3,0.7,0.6,0.7H47c0.3,0,0.6-0.3,0.6-0.7V14.7H8.5z"/>
	</g>
	<g>
		<path class="st3" d="M47,8.7H9.1c-0.7,0-1.2,0.6-1.2,1.4v4h40.3v-4C48.2,9.3,47.6,8.7,47,8.7z"/>
	</g>
	<g>
		<path class="st4" d="M47.2,8.7H44c0.5,0,1,0.6,1,1.4v4h3.2v-4C48.2,9.3,47.7,8.7,47.2,8.7z"/>
	</g>
	<g>
		<path class="st2" d="M48.2,14.8H7.9c-0.4,0-0.6-0.3-0.6-0.7v-4C7.2,9,8,8,9.1,8h6.2c0.4,0,0.6,0.3,0.6,0.7s-0.3,0.7-0.6,0.7H9.1
			c-0.3,0-0.6,0.3-0.6,0.7v3.4h39v-3.4c0-0.4-0.3-0.7-0.6-0.7H18.1c-0.4,0-0.6-0.3-0.6-0.7S17.8,8,18.1,8H47c1,0,1.9,0.9,1.9,2.1v4
			C48.8,14.5,48.5,14.8,48.2,14.8z"/>
	</g>
	<g>
		<path class="st5" d="M13.3,8.7h-4c-0.8,0-1.4,0.6-1.4,1.4v4h5.4V8.7z"/>
	</g>
	<g>
		<path class="st2" d="M13.3,14.8H7.9c-0.4,0-0.7-0.3-0.7-0.7v-4C7.2,8.9,8.1,8,9.3,8h4C13.7,8,14,8.3,14,8.7v5.4
			C14,14.5,13.7,14.8,13.3,14.8z M8.6,13.4h4v-4H9.3c-0.4,0-0.7,0.3-0.7,0.7V13.4z"/>
	</g>
	<g>
		<g>
			<g>
				<path class="st6" d="M36.6,34.6v4.9c0,0.3,0.2,0.5,0.5,0.5H42c0.3,0,0.5-0.2,0.5-0.5v-4.9c0-0.3-0.2-0.5-0.5-0.5h-4.9
					C36.9,34.1,36.6,34.3,36.6,34.6z"/>
			</g>
		</g>
		<g>
			<g>
				<path class="st7" d="M42,34.1h-2.4c0.3,0,0.5,0.2,0.5,0.5v4.9c0,0.3-0.2,0.5-0.5,0.5H42c0.3,0,0.5-0.2,0.5-0.5v-4.9
					C42.5,34.3,42.3,34.1,42,34.1z"/>
			</g>
		</g>
		<g>
			<g>
				<path class="st2" d="M42,40.7h-4.9c-0.6,0-1.2-0.5-1.2-1.2v-0.7c0-0.4,0.3-0.7,0.7-0.7s0.7,0.3,0.7,0.7v0.4h4.5v-4.5h-4.5v0.8
					c0,0.4-0.3,0.7-0.7,0.7s-0.7-0.3-0.7-0.7v-1c0-0.6,0.5-1.2,1.2-1.2H42c0.6,0,1.2,0.5,1.2,1.2v4.9C43.2,40.2,42.7,40.7,42,40.7z"
					/>
			</g>
		</g>
	</g>
	<g>
		<g>
			<path class="st8" d="M14.8,17.8h8.4c0.8,0,1.4,0.6,1.4,1.4v8.4c0,0.8-0.6,1.4-1.4,1.4h-8.4c-0.8,0-1.4-0.6-1.4-1.4v-8.4
				C13.4,18.4,14,17.8,14.8,17.8z"/>
		</g>
		<g>
			<path class="st9" d="M15.5,21.3v-3.5h-0.7c-0.8,0-1.4,0.6-1.4,1.4v8.4c0,0.8,0.6,1.4,1.4,1.4h8.4c0.8,0,1.4-0.6,1.4-1.4v-0.7
				h-3.5C18,26.9,15.5,24.4,15.5,21.3z"/>
		</g>
		<g>
			<path class="st2" d="M19.7,21.3h1.4c0.4,0,0.7-0.3,0.7-0.7s-0.3-0.7-0.7-0.7h-1.4c-1.2,0-2.1,0.9-2.1,2.1v0.7h-0.7
				c-0.4,0-0.7,0.3-0.7,0.7s0.3,0.7,0.7,0.7h0.7v2.1c0,0.4,0.3,0.7,0.7,0.7s0.7-0.3,0.7-0.7v-2.1h0.7c0.4,0,0.7-0.3,0.7-0.7
				s-0.3-0.7-0.7-0.7H19V22C19,21.6,19.3,21.3,19.7,21.3z"/>
		</g>
		<g>
			<path class="st2" d="M23.2,17.1h-8.4c-1.2,0-2.1,0.9-2.1,2.1v1.4c0,0.4,0.3,0.7,0.7,0.7c0.4,0,0.7-0.3,0.7-0.7v-1.4
				c0-0.4,0.3-0.7,0.7-0.7h8.4c0.4,0,0.7,0.3,0.7,0.7v8.4c0,0.4-0.3,0.7-0.7,0.7h-8.4c-0.4,0-0.7-0.3-0.7-0.7v-4.2
				c0-0.4-0.3-0.7-0.7-0.7c-0.4,0-0.7,0.3-0.7,0.7v4.2c0,1.2,0.9,2.1,2.1,2.1h8.4c1.2,0,2.1-0.9,2.1-2.1v-8.4
				C25.3,18,24.3,17.1,23.2,17.1z"/>
		</g>
	</g>
	<g>
		<g>
			<path class="st10" d="M32.8,17.8h8.4c0.8,0,1.4,0.6,1.4,1.4v8.4c0,0.8-0.6,1.4-1.4,1.4h-8.4c-0.8,0-1.4-0.6-1.4-1.4v-8.4
				C31.4,18.4,32,17.8,32.8,17.8z"/>
		</g>
		<g>
			<circle class="st9" cx="36.9" cy="23.4" r="2.1"/>
		</g>
		<g>
			<path class="st11" d="M33.5,21.3v-3.5h-0.7c-0.8,0-1.4,0.6-1.4,1.4v8.4c0,0.8,0.6,1.4,1.4,1.4h8.4c0.8,0,1.4-0.6,1.4-1.4v-0.7H39
				C36,26.9,33.5,24.4,33.5,21.3z"/>
		</g>
		<g>
			<circle class="st8" cx="37.6" cy="22.7" r="0.7"/>
		</g>
		<g>
			<path class="st2" d="M34.2,23.4c0,1.5,1.2,2.8,2.8,2.8c1.5,0,2.8-1.2,2.8-2.8c0-1.5-1.2-2.8-2.8-2.8
				C35.4,20.6,34.2,21.8,34.2,23.4z M38.3,23.4c0,0.8-0.6,1.4-1.4,1.4c-0.8,0-1.4-0.6-1.4-1.4c0-0.8,0.6-1.4,1.4-1.4
				C37.7,22,38.3,22.6,38.3,23.4z"/>
		</g>
		<g>
			<path class="st2" d="M41.1,17.1h-8.4c-1.2,0-2.1,0.9-2.1,2.1v8.4c0,1.2,0.9,2.1,2.1,2.1h8.4c1.2,0,2.1-0.9,2.1-2.1v-1.4
				c0-0.4-0.3-0.7-0.7-0.7c-0.4,0-0.7,0.3-0.7,0.7v1.4c0,0.4-0.3,0.7-0.7,0.7h-8.4c-0.4,0-0.7-0.3-0.7-0.7v-8.4
				c0-0.4,0.3-0.7,0.7-0.7h8.4c0.4,0,0.7,0.3,0.7,0.7v4.2c0,0.4,0.3,0.7,0.7,0.7c0.4,0,0.7-0.3,0.7-0.7v-4.2
				C43.2,18,42.3,17.1,41.1,17.1z"/>
		</g>
	</g>
	<g>
		<g>
			<g>
				<g>
					<g>
						<g>
							<g>
								<path class="st12" d="M14.9,43.2l2.2,4c0.2,0.5,0.8,0.6,1.3,0.4c0.5-0.2,0.6-0.8,0.4-1.3l-2.2-4L14.9,43.2z"/>
							</g>
							<g>
								<path class="st13" d="M18.1,42.5l-1.6,0.9c-1,0.6-2.4,0.2-2.9-0.9s-0.2-2.4,0.9-2.9l1.6-0.9L18.1,42.5z"/>
							</g>
							<g>
								<path class="st12" d="M22.2,32.4l4.5,8.2c0.2,0.3-0.1,0.7-0.4,0.6c-3-0.4-4.7-0.7-7.4,0.8l-0.7,0.4L16,38.7l0.7-0.4
									c2.7-1.5,3.4-3,4.7-5.9C21.6,32.1,22,32.1,22.2,32.4L22.2,32.4z"/>
							</g>
							<g>
								<path class="st14" d="M17.6,42.8l-1.1,0.6c-1,0.6-2.4,0.2-2.9-0.9c-0.3-0.5-0.3-1.1-0.2-1.6c0.2-0.5,0.5-1,1-1.3l1.1-0.6
									c-0.5,0.3-0.9,0.8-1,1.3c-0.2,0.5-0.1,1.1,0.2,1.6C15.2,42.9,16.5,43.3,17.6,42.8z"/>
							</g>
							<g>
								<path class="st15" d="M22.2,32.4l4.5,8.2c0.2,0.3-0.1,0.7-0.4,0.6c-0.2,0-0.5-0.1-0.7-0.1l-4.4-8.1c0.1-0.2,0.2-0.4,0.3-0.7
									C21.6,32.1,22,32.1,22.2,32.4L22.2,32.4z"/>
							</g>
						</g>
					</g>
				</g>
			</g>
		</g>
		<g>
			<path class="st2" d="M28.3,34l-2.1,1.2c-0.2,0.1-0.3,0.3-0.2,0.5c0.1,0.2,0.3,0.3,0.5,0.2l2.1-1.2c0.2-0.1,0.3-0.3,0.2-0.5
				C28.7,34,28.5,33.9,28.3,34z"/>
		</g>
		<g>
			<path class="st2" d="M25,33.8c0.2,0.1,0.4,0.1,0.6-0.1l1.6-2.2c0.1-0.2,0.1-0.4-0.1-0.6c-0.2-0.1-0.4-0.1-0.6,0.1l-1.6,2.2
				C24.8,33.5,24.8,33.7,25,33.8L25,33.8z"/>
		</g>
		<g>
			<path class="st2" d="M27,37.5c0,0.2,0.2,0.4,0.4,0.4c0,0,2.7-0.1,2.7-0.1c0.2,0,0.4-0.2,0.4-0.4c0-0.2-0.2-0.4-0.4-0.4l-2.7,0.1
				C27.2,37.1,27,37.3,27,37.5L27,37.5z"/>
		</g>
		<g>
			<path class="st2" d="M20.4,39.5c-1.2,0.3-2,0.8-2,0.8c-0.2,0.1-0.2,0.4-0.1,0.5c0.1,0.2,0.4,0.2,0.5,0.1c0,0,0.8-0.5,1.8-0.7
				c0.2-0.1,0.3-0.3,0.3-0.5C20.9,39.6,20.6,39.5,20.4,39.5L20.4,39.5z"/>
		</g>
		<g>
			<path class="st2" d="M22.1,39.3c0,0-0.1,0-0.2,0c-0.2,0-0.4,0.2-0.4,0.4c0,0.2,0.2,0.4,0.4,0.4c0,0,0,0,0.1,0
				c0.2,0,0.4-0.2,0.4-0.4C22.5,39.5,22.4,39.3,22.1,39.3L22.1,39.3z"/>
		</g>
		<g>
			<path class="st2" d="M26.8,39.8l-4.2-7.7c-0.3-0.6-1.2-0.6-1.5,0.1c-2,4.5-2.3,4.5-6.9,7c-1.2,0.7-1.7,2.2-1,3.5
				c0.5,0.9,1.4,1.3,1.7,1.3l1.8,3.3c0.4,0.6,1.2,0.9,1.8,0.5c0.6-0.4,0.9-1.2,0.5-1.8l-1.2-2.1c0.6,0.3,1.3,0.6,2.1,0.2
				c0.2-0.1,0.3-0.3,0.2-0.5c-0.1-0.2-0.3-0.3-0.5-0.2c-0.5,0.3-0.8,0-1.7-0.3c1.9-0.9,2.7-2.2,7.6-1.7
				C27.3,41.5,27.3,40.9,26.8,39.8z M13.9,42.3c-0.5-0.9-0.2-1.9,0.7-2.4l1.3-0.7l1.7,3.1c-0.9,0.5-0.4,0.2-1.3,0.7
				C15.4,43.5,14.4,43.2,13.9,42.3z M18.4,46.4c0.1,0.3,0,0.6-0.2,0.7c-0.3,0.1-0.6,0-0.7-0.2L15.8,44c0.5-0.1,0.7-0.2,1-0.4
				L18.4,46.4z M18.3,41.9l-1.7-3.1c3.1-1.7,3.8-3,5.2-6.3c0,0,0,0,0,0c0,0,0,0,0,0l4.2,7.7c0.2,0.5,0.3,0.6-0.6,0.5
				C22.3,40.3,21,40.4,18.3,41.9L18.3,41.9z"/>
		</g>
	</g>
</g>
</svg>
