<?xml version="1.0" encoding="utf-8"?>
<!-- Generator: Adobe Illustrator 25.0.0, SVG Export Plug-In . SVG Version: 6.00 Build 0)  -->
<svg version="1.1" id="Layer_1" xmlns="http://www.w3.org/2000/svg" xmlns:xlink="http://www.w3.org/1999/xlink" x="0px" y="0px"
	 viewBox="0 0 56 56" style="enable-background:new 0 0 56 56;" xml:space="preserve">
<style type="text/css">
	.st0{fill:#5D6D7E;}
	.st1{fill:#FF8E31;}
	.st2{fill:#35414D;}
	.st3{fill:#FECE59;}
	.st4{opacity:0.2;fill:#FFFFFF;}
	.st5{fill:#FCD770;}
	.st6{fill:#FF826E;}
	.st7{fill:#34495E;}
	.st8{opacity:5.000000e-02;fill:#34495E;}
</style>
<g>
	<polygon class="st0" points="32.3,35.9 33.9,37.4 35.7,39.3 42.3,45.9 44.3,40.5 36,32.2 	"/>
	<g>
		<g>
			<path class="st1" d="M44.4,48.1c-0.9,0-1.8-0.4-2.5-1l-7.5-7.6c-0.1-0.1-0.1-0.4,0-0.5l4.4-4.5c0.1-0.1,0.2-0.1,0.3-0.1
				c0.1,0,0.2,0,0.3,0.1l7.5,7.6c0.7,0.7,1,1.6,1,2.5c0,0.9-0.4,1.8-1,2.5C46.2,47.7,45.3,48.1,44.4,48.1z"/>
			<path class="st2" d="M39,34.7l7.5,7.6c0.6,0.6,0.9,1.4,0.9,2.2c0,0.9-0.3,1.7-0.9,2.2c-0.6,0.6-1.3,0.9-2.2,0.9
				c-0.9,0-1.6-0.4-2.2-0.9l-7.5-7.6L39,34.7 M39,33.9C39,33.9,39,33.9,39,33.9c-0.2,0-0.4,0.1-0.5,0.2l-4.4,4.5
				c-0.3,0.3-0.3,0.8,0,1.1l7.5,7.6c0.7,0.7,1.7,1.2,2.8,1.2c1,0,2-0.4,2.8-1.2c0.7-0.7,1.1-1.7,1.1-2.8c0-1-0.4-2-1.1-2.8l-7.5-7.6
				C39.4,34,39.2,33.9,39,33.9L39,33.9z"/>
		</g>
		<path class="st3" d="M38,35.8L38,35.8l0.6-0.6l7.5,7.6c0.5,0.5,0.7,1.1,0.7,1.8c0,0.7-0.3,1.3-0.7,1.8c-0.1,0.1-0.2,0.1-0.3,0.1
			c-0.1,0-0.2,0-0.3-0.1c-0.2-0.2-0.2-0.4,0-0.6c0.3-0.3,0.5-0.7,0.5-1.2c0-0.4-0.2-0.9-0.5-1.2L38,35.8z"/>
		<path class="st2" d="M34.2,39.8l5.5-5.6l-0.4-0.4c-0.2-0.3-0.6-0.4-1-0.4c-0.4,0-0.7,0.2-1,0.4l-3.6,3.6c-0.2,0.2-0.4,0.6-0.4,1
			c0,0.4,0.2,0.7,0.4,1L34.2,39.8z"/>
	</g>
	<g>
		<path class="st4" d="M25,14.5c-0.2-0.3-0.5-0.5-0.9-0.5c-1.6,0.1-3.1,0.6-4.5,1.4c-0.5,0.3-0.7,0.9-0.4,1.4
			c0.3,0.5,0.9,0.7,1.4,0.4c1.1-0.6,2.3-1,3.6-1.1c0.6,0,1-0.5,1-1.1C25.2,14.9,25.1,14.7,25,14.5z"/>
		<path class="st4" d="M18.4,17.9c-0.1-0.1-0.1-0.2-0.2-0.2c-0.4-0.4-1.1-0.3-1.4,0.2c-1,1.3-1.8,2.9-2.1,4.5c-0.4,2-0.2,4,0.6,5.8
			c0.2,0.5,0.8,0.8,1.3,0.6c0.5-0.2,0.8-0.8,0.6-1.4c-0.6-1.5-0.7-3.1-0.4-4.7c0.2-1.3,0.8-2.6,1.7-3.6
			C18.7,18.8,18.7,18.3,18.4,17.9z"/>
	</g>
	<g>
		<path class="st5" d="M33.8,33.8l-2.1,2.1l-0.4-0.4c-0.8-0.8-1.9-1-3-0.6c0,0,0,0,0,0c-1,0.4-1.7,1.4-1.7,2.4V38h-2.8h-2.4h-1.1
			v-0.6c0-1.1-0.7-2-1.7-2.4c0,0,0,0,0,0c-1-0.4-2.2-0.2-3,0.6l-0.4,0.4l-4.5-4.5l0.4-0.4c0.8-0.8,1-1.9,0.6-2.9c0,0,0,0,0,0
			c-0.4-1-1.4-1.7-2.4-1.7H8.8v-6.3h0.6c1.1,0,2-0.7,2.4-1.7c0,0,0,0,0,0c0.4-1,0.2-2.1-0.6-2.9l-0.4-0.4l4.5-4.5l0.4,0.4
			c0.8,0.8,1.9,1,2.9,0.6c0,0,0,0,0,0c1-0.4,1.7-1.4,1.7-2.4V8.6h6.3v0.6c0,1.1,0.7,2,1.7,2.4c0,0,0,0,0,0c1,0.4,2.1,0.2,2.9-0.6
			l0.4-0.4l4.5,4.5l-0.4,0.4c-0.8,0.8-1,1.9-0.6,2.9c0,0,0,0,0,0c0.4,1,1.4,1.7,2.4,1.7h0.6v6.3h-0.6c-1.1,0-2,0.7-2.4,1.7
			c0,0,0,0,0,0c-0.4,1-0.2,2.1,0.6,2.9l0.4,0.4L33.8,33.8z"/>
	</g>
	<g>
		<path class="st6" d="M25.2,21.6v3.3c0,0.9-0.7,1.7-1.7,1.7c-0.5,0-0.9-0.2-1.2-0.5c-0.3-0.3-0.5-0.7-0.5-1.2v-3.3
			c0-0.9,0.7-1.7,1.7-1.7c0.5,0,0.9,0.2,1.2,0.5C25,20.7,25.2,21.2,25.2,21.6z"/>
	</g>
	<path class="st2" d="M24.5,32.2v-2h-1c-2.7,0-5-2.2-5-5v-4c0-2.7,2.2-5,5-5s5,2.2,5,5v4c0,0.5-0.4,1-1,1s-1-0.4-1-1v-4
		c0-1.6-1.3-3-3-3s-3,1.3-3,3v4c0,1.6,1.3,3,3,3c0.8,0,1.5-0.3,2-0.8c0.5,0.5,1.2,0.8,2,0.8c1.6,0,3-1.3,3-3v-4c0-3.8-3.1-7-7-7
		s-7,3.1-7,7v4c0,3.8,3.1,7,7,7H24.5z M24.5,25.3c0,0.5-0.4,1-1,1c-0.5,0-1-0.4-1-1v-4c0-0.5,0.4-1,1-1c0.5,0,1,0.4,1,1V25.3z"/>
	<polygon class="st8" points="23.5,8.6 26.6,8.9 27.5,10.9 29.5,11.5 31.6,11 35.2,13.9 35.4,16.8 35.8,19.4 38.3,20.3 38,26.3 
		35.7,27.5 35.2,30.4 34.9,32.9 32.1,35.8 28.2,34.6 26.7,37.4 24,38.2 20.4,37.6 18.6,34.7 15.3,35.5 11.5,32 11.7,29.3 11.1,26.6 
		9,26.3 8.8,20.6 11,19.2 11.7,16.9 11.5,14.7 14.5,11 16,10.8 17.9,11.7 20,10 20.5,8.5 	"/>
	<g>
		<path class="st2" d="M36.2,28.5c0.3-0.6,0.8-1,1.5-1h1.7v-8.4h-1.7c-0.6,0-1.2-0.4-1.5-1l0,0c-0.3-0.6-0.1-1.3,0.3-1.8l1.2-1.2
			l-6-6l-1.2,1.2c-0.5,0.5-1.1,0.6-1.8,0.3l0,0c-0.6-0.3-1-0.8-1-1.5V7.5h-8.4v1.7c0,0.6-0.4,1.2-1,1.5l0,0
			c-0.6,0.3-1.3,0.1-1.8-0.3l-1.2-1.2l-6,6l1.2,1.2c0.5,0.5,0.6,1.1,0.3,1.8l0,0c-0.3,0.6-0.8,1-1.5,1H7.8v8.4h1.7
			c0.6,0,1.2,0.4,1.5,1l0,0c0.3,0.6,0.1,1.3-0.3,1.8l-1.2,1.2l6,6l1.1-1.1c0.5-0.5,1.2-0.6,1.8-0.4l0,0c0.6,0.3,1,0.8,1,1.5v1.7h8.4
			v-1.7c0-0.6,0.4-1.2,1-1.5l0,0c0.6-0.3,1.3-0.1,1.8,0.4l1.1,1.1l2.6-2.6l2.1-2.1l1.3-1.3l-1.2-1.2C36,29.8,35.9,29.1,36.2,28.5
			L36.2,28.5z M34.2,27.7L34.2,27.7c-0.5,1.3-0.3,2.7,0.5,3.8l-3,3c-1.1-0.8-2.5-1-3.7-0.5l0,0c-1.3,0.5-2.1,1.7-2.3,3h-4.3
			c-0.2-1.3-1-2.5-2.3-3l0,0c-1.2-0.5-2.7-0.3-3.7,0.5l-3-3c0.8-1,1-2.5,0.5-3.7l0,0c-0.5-1.3-1.7-2.1-3-2.3v-4.3
			c1.3-0.2,2.5-1,3-2.3l0,0c0.5-1.3,0.3-2.7-0.5-3.7l3-3c1,0.8,2.5,1,3.7,0.5l0,0c1.3-0.5,2.1-1.7,2.3-3h4.3c0.2,1.3,1,2.5,2.3,3
			l0,0c1.3,0.5,2.7,0.3,3.7-0.5l3,3c-0.8,1-1,2.5-0.5,3.7l0,0c0.5,1.3,1.7,2.1,3,2.3v4.3C35.9,25.6,34.8,26.4,34.2,27.7z"/>
	</g>
</g>
</svg>
