<?xml version="1.0" encoding="utf-8"?>
<!-- Generator: Adobe Illustrator 25.0.0, SVG Export Plug-In . SVG Version: 6.00 Build 0)  -->
<svg version="1.1" id="Layer_1" xmlns="http://www.w3.org/2000/svg" xmlns:xlink="http://www.w3.org/1999/xlink" x="0px" y="0px"
	 viewBox="0 0 56 56" style="enable-background:new 0 0 56 56;" xml:space="preserve">
<style type="text/css">
	.st0{fill:#F7F3F1;}
	.st1{fill:#EBE1DC;}
	.st2{fill:#35414D;}
	.st3{fill:#FFD36C;}
	.st4{fill:#8EE6F3;}
	.st5{fill:#FA9084;}
	.st6{fill:#FF6CB5;}
	.st7{fill:#4ED5EA;}
	.st8{fill:#62A6FD;}
</style>
<g>
	<g>
		<g>
			<path class="st0" d="M11.4,41.3c1,0.7,2.2-0.4,3.5-0.4H26l2.7,0l4.3,0h3c3.3,0,5.9-2.6,5.9-5.7V14.6c0-3.2-2.7-5.7-5.9-5.7H14.9
				c-3.3,0-5.9,2.6-5.9,5.7v26.6H11.4z"/>
			<path class="st1" d="M42.2,8.9h-7.9c2.7,0,4.8,2.6,4.8,5.7v20.5c0,3.2-2.2,5.7-4.8,5.7h-2.5L30.4,41l1.7,0.1l3.9-0.3h8.9
				c2.7,0,2.2-2.6,2.2-5.7V14.6C47,11.5,44.9,8.9,42.2,8.9z"/>
			<path class="st2" d="M40.7,8h-7.9c-1.3,0-1.3,1.8,0,1.8h7.8c2.9,0,5.3,2.2,5.3,4.9v20.5c0,2.7-0.1,2.3-0.1,4.9H32.5
				c-0.2,0-7,0-7.5,0H10c0-0.3-0.1-25.3-0.1-25.3c0-2.7,2.4-4.8,5.3-4.8h11.5C28,9.8,28,8,26.8,8H15.3c-4,0-7.3,3-7.3,6.6
				c0,0,0,26.7,0,27.1h16h8.8H48c0-3.1,0-3,0-6.6V14.6C48,11,44.7,8,40.7,8z"/>
		</g>
		<g>
			<path class="st3" d="M23.6,29.6l0.6,0.5c0.9,0.8,2.1,1.2,3.3,1.2h8.4c0.8,0,1.4-0.7,1.4-1.5c0-0.8,0-7.7,0-8.4s-0.6-1.4-1.4-1.4
				l-5.7,0l0.7-1.7c0.7-1.7,0.6-3.7-0.3-5.3c-0.3-0.5-0.9-0.6-1.3-0.3c-0.3,0.2-0.4,0.5-0.4,0.8c0,1.5-0.5,2.9-1.5,4l-3.7,4.1h-1.3
				v8L23.6,29.6L23.6,29.6z"/>
			<path class="st4" d="M23,30.9h-3.9c-0.3,0-0.5-0.2-0.5-0.5v-9.8c0-0.3,0.2-0.5,0.5-0.5H23c0.3,0,0.5,0.2,0.5,0.5v9.8
				C23.4,30.7,23.2,30.9,23,30.9z"/>
			<path class="st2" d="M30.2,11.6c-1.1-0.3-2.3,0.6-2.3,1.8c0,1.3-0.5,2.5-1.3,3.5l-2.4,2.8c-0.2-0.2-0.4-0.4-0.7-0.4h-4.8
				c-0.5,0-0.9,0.4-0.9,0.9v10.7c0,0.5,0.4,0.9,0.9,0.9h4.8c0.4,0,0.7-0.2,0.8-0.5c1,0.6,2.1,0.9,3.2,0.9h8.4c1.3,0,2.4-1.1,2.3-2.4
				c0-0.6,0-8.2,0-8.4c0-1.3-1-2.3-2.3-2.3l-4.4,0l0.2-0.4c0.8-2,0.7-4.2-0.4-6.1C31.1,12.1,30.7,11.8,30.2,11.6
				C29.7,11.5,30.7,11.8,30.2,11.6C29.1,11.4,30.7,11.8,30.2,11.6L30.2,11.6z M22.6,30h-3v-9h3V30z M35.9,20.8
				c0.3,0,0.5,0.2,0.5,0.5c0,0.2,0,0.6,0,1.2c0,3.4,0,6.7,0,7.2c0,0.2-0.1,0.3-0.1,0.4c-0.1,0.1-0.2,0.2-0.4,0.2h-8.4
				c-1,0-2-0.3-2.8-1l-0.4-0.3v-6.9L28,18c1.1-1.3,1.8-2.9,1.8-4.6c0-0.1,0.1-0.1,0.1,0c0.8,1.4,0.9,3.1,0.3,4.5l-0.7,1.7
				c-0.1,0.3-0.1,0.6,0.1,0.8c0.2,0.2,0.4,0.4,0.7,0.4L35.9,20.8z"/>
		</g>
	</g>
	<g>
		<g>
			<path class="st5" d="M23.4,34.8h-8.1c-1.2,0-2.3,1-2.3,2.3v8c0,1.2,1,2.3,2.3,2.3h4.4l2.7,0h1c1.2,0,2.3-1,2.3-2.3v-8
				C25.7,35.8,24.6,34.8,23.4,34.8L23.4,34.8z"/>
			<path class="st6" d="M23.4,34.8h-3.5c1.2,0,2.3,1,2.3,2.3v8c0,1.2-1,2.3-2.3,2.3h-0.2l1.1-0.1l1.6,0.1h1c1.2,0,2.3-1,2.3-2.3v-8
				C25.7,35.8,24.6,34.8,23.4,34.8z"/>
			<path class="st0" d="M19.4,43.8c1.9-1,2.9-1.9,2.9-3.3c0-1.9-2.3-2.3-2.9-0.9c-0.7-1.5-2.9-0.9-2.9,0.9
				C16.4,41.9,17.4,42.8,19.4,43.8z"/>
			<path class="st2" d="M19.4,38.7c-0.5-0.4-1.2-0.6-1.8-0.4c-0.9,0.2-1.7,1-1.7,2.3c0,0.8,0.3,1.5,0.9,2.2c0.5,0.5,1.2,1,2.4,1.6
				c0.1,0,0.2,0.1,0.3,0.1s0.2,0,0.3-0.1c2-1,3.3-2.1,3.3-3.8c0-1.3-0.9-2.1-1.8-2.3C20.5,38.1,19.8,38.3,19.4,38.7L19.4,38.7z
				 M21.7,40.6c0,0.9-0.6,1.6-2.3,2.6c-1.7-0.9-2.3-1.6-2.3-2.6c0-0.7,0.4-1,0.8-1.1c0.1,0,0.1,0,0.2,0c0.3,0,0.6,0.1,0.8,0.5
				c0.1,0.2,0.3,0.3,0.6,0.3c0.2,0,0.5-0.1,0.6-0.4c0.2-0.4,0.6-0.5,1-0.4C21.3,39.6,21.7,39.9,21.7,40.6z"/>
			<path class="st2" d="M15.3,34.2c-1.4,0-2.6,1-2.8,2.4c-0.1,0,0,1.6,0,1.6v7c0,1.6,1.3,2.9,2.9,2.9h3.8h3.5h0.7
				c1.6,0,2.9-1.3,2.9-2.9V44c0-0.8-1.2-0.8-1.2,0v1.1c0,0.9-0.7,1.6-1.6,1.6h-1c-0.1,0-2.3,0-2.7,0h-4.4c-0.9,0-1.6-0.7-1.6-1.6v-8
				c0-0.9,0.7-1.6,1.6-1.6h8.1c0.9,0,1.6,0.7,1.6,1.6v3c0,0.8,1.2,0.8,1.2,0v-3c0-1.6-1.3-2.9-2.9-2.9h-4.6h-0.9H15.3z"/>
		</g>
		<g>
			<path class="st7" d="M30.3,47.3V37.1c0-1.2,0.9-2.2,2-2.2h8.6c1.1,0,2,1,2,2.2v8c0,1.2-0.9,2.2-2,2.2h-5.3h-2.4H30.3z"/>
			<path class="st8" d="M41.1,34.9h-2.6c1,0,1.8,1,1.8,2.2v10.2l2.6-1.1v-9.2C42.9,35.9,42.1,34.9,41.1,34.9z"/>
			<path class="st2" d="M33.7,41.7c-0.2,0-0.4,0.2-0.4,0.4c0,0.2,0.2,0.4,0.4,0.4H35l-0.2,1.5c0,0.2,0.1,0.5,0.4,0.5c0,0,0,0,0.1,0
				c0.2,0,0.4-0.2,0.4-0.4l0.3-1.6h1.1l-0.2,1.5c0,0.2,0.1,0.5,0.4,0.5c0,0,0,0,0.1,0c0.2,0,0.4-0.2,0.4-0.4l0.3-1.6h1.8
				c0.2,0,0.4-0.2,0.4-0.4c0-0.2-0.2-0.4-0.4-0.4H38l0.2-1.1h1.4c0.2,0,0.4-0.2,0.4-0.4c0-0.2-0.2-0.4-0.4-0.4h-1.3l0.2-1.5
				c0-0.2-0.1-0.5-0.4-0.5c-0.2,0-0.5,0.1-0.5,0.4l-0.3,1.6h-1.1l0.2-1.5c0-0.2-0.1-0.5-0.4-0.5c-0.2,0-0.5,0.1-0.5,0.4l-0.3,1.6
				h-1.8c-0.2,0-0.4,0.2-0.4,0.4s0.2,0.4,0.4,0.4h1.6l-0.2,1.1L33.7,41.7z M36.2,40.7h1.1l-0.2,1.1H36L36.2,40.7z"/>
			<path class="st2" d="M43.6,38.1v-0.9c0-1.6-1.2-2.9-2.6-2.9h-8.6c-0.2,0-0.4,0-0.6,0.1l-0.3,0.1l-0.3,0.1l-0.3,0.2
				c-0.7,0.5-1.2,1.4-1.2,2.4c0,2.4,0,8.1,0,8.2V48h11.2c1.5,0,2.6-1.3,2.6-2.9v-4.4c0-0.8-1.2-0.8-1.2,0v4.4c0,0.9-0.6,1.6-1.4,1.6
				h-5.3l-0.4,0c-2.3,0-3.8,0-4.2,0l0-4.4c0-0.1,0-0.1,0-0.1v-5.1c0-0.9,0.6-1.6,1.4-1.6h8.6c0.8,0,1.4,0.7,1.4,1.6v0.9
				C42.3,38.9,43.6,38.9,43.6,38.1z"/>
		</g>
	</g>
</g>
</svg>
