<?xml version="1.0" encoding="utf-8"?>
<!-- Generator: Adobe Illustrator 25.0.0, SVG Export Plug-In . SVG Version: 6.00 Build 0)  -->
<svg version="1.1" id="Layer_1" xmlns="http://www.w3.org/2000/svg" xmlns:xlink="http://www.w3.org/1999/xlink" x="0px" y="0px"
	 viewBox="0 0 56 56" style="enable-background:new 0 0 56 56;" xml:space="preserve">
<style type="text/css">
	.st0{fill:#FD646F;}
	.st1{fill:#FC4755;}
	.st2{fill:#F5F5F5;}
	.st3{fill:#E6E6E6;}
	.st4{fill:#35414D;}
	.st5{fill:#50758D;}
	.st6{fill:#2B597F;}
	.st7{fill:#918291;}
	.st8{fill:#7A6E79;}
</style>
<g id="g367_8_">
	<g>
		<g id="g373_8_" transform="translate(439.5,223.5)">
			<g id="path375_8_">
				<path class="st0" d="M-400.3-189.6c-3.2,9-13.2,13.7-22.2,10.5c-9-3.2-13.7-13.2-10.5-22.2s13.2-13.7,22.2-10.5
					S-397-198.7-400.3-189.6"/>
			</g>
		</g>
		<g id="g377_8_" transform="translate(439.5,223.5)">
			<g id="path379_8_">
				<path class="st1" d="M-400.3-189.6c-3.2,9-13.2,13.7-22.2,10.5c-4.9-1.8-8.5-5.5-10.3-10c2,3.6,5.2,6.4,9.3,7.9
					c9,3.2,19-1.4,22.2-10.5c1.5-4.1,1.3-8.4-0.2-12.2C-399.1-199.7-398.5-194.5-400.3-189.6"/>
			</g>
		</g>
		<g id="g381_8_" transform="translate(386.5,223.5)">
			<g id="path383_8_">
				<path class="st2" d="M-351.3-191.1c2.4-6.8-1.1-14.3-7.9-16.7s-14.3,1.1-16.7,7.9s1.1,14.3,7.9,16.7
					C-361.2-180.7-353.7-184.3-351.3-191.1"/>
			</g>
		</g>
		<g id="g385_8_" transform="translate(386.5,223.5)">
			<g id="path387_8_">
				<path class="st3" d="M-351.3-191.1c-2.4,6.8-9.9,10.3-16.7,7.9c-3.8-1.4-6.6-4.3-7.9-7.8c1.5,2.6,3.9,4.6,6.9,5.7
					c6.8,2.4,14.3-1.1,16.7-7.9c1.1-3,1-6.2,0-9C-350.4-198.9-349.9-194.9-351.3-191.1"/>
			</g>
		</g>
		<g id="g389_8_" transform="translate(333.5,223.5)">
			<g id="path391_8_">
				<path class="st0" d="M-302.3-192.5c1.6-4.6-0.7-9.7-5.3-11.3c-4.6-1.6-9.7,0.7-11.3,5.3s0.7,9.7,5.3,11.3
					S-303.9-187.9-302.3-192.5"/>
			</g>
		</g>
		<g id="g393_8_" transform="translate(333.5,223.5)">
			<g id="path395_8_">
				<path class="st1" d="M-302.3-192.5c-1.6,4.6-6.7,7-11.3,5.3c-2.7-1-4.6-3.1-5.4-5.6c1,1.6,2.5,2.9,4.5,3.5
					c4.6,1.6,9.7-0.7,11.3-5.3c0.7-1.9,0.7-3.9,0.1-5.7C-301.7-198-301.3-195.2-302.3-192.5"/>
			</g>
		</g>
		<g id="g397_8_" transform="translate(167.5,223.5)">
			<g id="path399_8_">
				<path class="st2" d="M-148.8-197c0.8-2.3,3.4-3.6,5.8-2.7s3.6,3.4,2.7,5.8c-0.8,2.3-3.4,3.6-5.8,2.7S-149.7-194.7-148.8-197"/>
			</g>
		</g>
		<g id="g401_8_" transform="translate(427.8701,153.4102)">
			<g id="path403_8_">
				<path class="st1" d="M-391.4-114.6c-0.7,0.8-1.4,1.6-2.2,2.3l-3-3c0.8-0.7,1.5-1.4,2.2-2.3L-391.4-114.6z"/>
			</g>
		</g>
		<g id="g405_8_" transform="translate(379.46,175.98)">
			<g id="path407_8_">
				<path class="st3" d="M-346.1-140.2c-0.6,0.8-1.4,1.6-2.2,2.3l-3-3c0.8-0.6,1.6-1.4,2.1-2.3L-346.1-140.2z"/>
			</g>
		</g>
		<g id="g409_8_" transform="translate(330.6895,198.7202)">
			<g id="path411_8_">
				<path class="st1" d="M-300.4-165.9c-0.6,0.9-1.3,1.7-2.1,2.3l-3.1-3.1c0.9-0.5,1.7-1.3,2.1-2.4L-300.4-165.9z"/>
			</g>
		</g>
		<g id="g413_8_" transform="translate(279.4902,222.6001)">
			<g id="path415_8_">
				<path class="st3" d="M-252.2-192.9c-0.4,1.1-1.2,2-2.2,2.5l-3.1-3.1c-0.6-0.6-0.6-1.5-0.1-2.2c0,0,0.1-0.1,0.1-0.1
					c0.3-0.3,0.7-0.5,1.2-0.5c0.4,0,0.8,0.2,1.2,0.5L-252.2-192.9z"/>
			</g>
		</g>
		<g id="g441_8_" transform="translate(381.9443,261.9277)">
			<g id="path443_8_">
				<path class="st4" d="M-346-231.9C-346.1-231.9-346.1-231.9-346-231.9c-0.4,0-0.7-0.4-0.6-0.7c0.2-1.8,0-3.5-0.5-5.2
					c-0.1-0.3,0.1-0.7,0.4-0.8c0.3-0.1,0.7,0.1,0.8,0.4c0.6,1.9,0.8,3.8,0.6,5.7C-345.4-232.1-345.7-231.9-346-231.9z"/>
			</g>
		</g>
		<g id="g445_8_" transform="translate(324.7061,351.2832)">
			<g id="path447_8_">
				<path class="st4" d="M-301.8-309.5c-1.6,0-3.1-0.3-4.7-0.8c-3.5-1.2-6.2-3.8-7.8-7.1c-1.6-3.3-1.7-7-0.5-10.5
					c2.6-7.1,10.4-10.9,17.6-8.3c2.9,1.1,5.4,3,7,5.7c0.2,0.3,0.1,0.7-0.2,0.9c-0.3,0.2-0.7,0.1-0.9-0.2c-1.5-2.4-3.7-4.2-6.4-5.1
					c-6.5-2.3-13.6,1.1-15.9,7.5c-1.1,3.1-1,6.5,0.5,9.5s3.9,5.3,7,6.4c3.1,1.1,6.5,1,9.5-0.5c3-1.4,5.3-3.9,6.4-7
					c0-0.1,0.1-0.2,0.1-0.3c0.1-0.3,0.5-0.5,0.8-0.4c0.3,0.1,0.5,0.5,0.4,0.8c0,0.1-0.1,0.2-0.1,0.4c-1.2,3.5-3.7,6.2-7.1,7.8
					C-297.8-310-299.8-309.5-301.8-309.5z"/>
			</g>
		</g>
		<g id="g449_8_" transform="translate(314.7051,285.0156)">
			<g id="path451_8_">
				<path class="st4" d="M-291.8-247.5c-1.1,0-2.2-0.2-3.2-0.6c-3.2-1.2-5.6-4-6.2-7.3c-0.1-0.4,0.2-0.7,0.5-0.7
					c0.3-0.1,0.7,0.2,0.7,0.5c0.5,2.9,2.5,5.3,5.3,6.3c2.1,0.7,4.3,0.6,6.3-0.3c2-0.9,3.5-2.6,4.2-4.6c0.6-1.5,0.6-3.2,0.2-4.8
					c-0.1-0.3,0.1-0.7,0.5-0.8c0.3-0.1,0.7,0.1,0.8,0.5c0.5,1.8,0.4,3.8-0.3,5.5c-0.9,2.4-2.6,4.3-4.9,5.4
					C-289.1-247.8-290.4-247.5-291.8-247.5z"/>
			</g>
		</g>
		<g id="g453_8_" transform="translate(115.627,201.8657)">
			<g id="path455_8_">
				<path class="st4" d="M-101.5-174.5C-101.5-174.5-101.5-174.5-101.5-174.5c-0.5-0.1-0.7-0.4-0.6-0.7c0.1-0.6,0.2-1.2,0.5-1.8
					c0.9-2.4,2.6-4.3,4.9-5.4c2.3-1.1,4.9-1.2,7.3-0.3c1.9,0.7,3.4,1.9,4.6,3.5c0.2,0.3,0.1,0.7-0.2,0.9c-0.3,0.2-0.7,0.1-0.9-0.2
					c-1-1.4-2.3-2.4-3.9-3c-2.1-0.7-4.3-0.6-6.3,0.3c-2,0.9-3.5,2.6-4.2,4.6c-0.2,0.5-0.3,1-0.4,1.6
					C-100.9-174.7-101.2-174.5-101.5-174.5z"/>
			</g>
		</g>
		<g id="g457_8_" transform="translate(105.9727,404.7573)">
			<g id="path459_8_">
				<path class="st4" d="M-69.4-386.7c-0.2,0-0.4-0.1-0.5-0.3c-1.9-2.5-4.6-4.4-7.6-5.5c-3-1.1-6.3-1.3-9.5-0.5
					c-0.3,0.1-0.7-0.1-0.8-0.5c-0.1-0.3,0.1-0.7,0.5-0.8c3.4-0.8,6.9-0.6,10.2,0.6c3.2,1.2,6.1,3.2,8.2,5.9c0.2,0.3,0.2,0.7-0.1,0.9
					C-69.1-386.8-69.2-386.7-69.4-386.7z"/>
			</g>
		</g>
		<g id="g461_8_" transform="translate(406.1338,338.8818)">
			<g id="path463_8_">
				<path class="st4" d="M-383.3-292.9c-2,0-4.1-0.3-6.1-1.1c-4.5-1.6-8.1-4.9-10.2-9.3c-2.1-4.3-2.3-9.2-0.7-13.8
					c1.7-4.8,5.4-8.6,10.1-10.6c0.3-0.1,0.7,0,0.8,0.4c0.1,0.3,0,0.7-0.4,0.8c-4.4,1.8-7.8,5.4-9.4,9.8c-1.5,4.2-1.3,8.7,0.6,12.8
					c1.9,4,5.3,7.1,9.5,8.6c4.2,1.5,8.7,1.3,12.8-0.6c4-1.9,7.1-5.3,8.6-9.5c1.1-3,1.3-6.2,0.6-9.3c-0.1-0.4,0.1-0.7,0.5-0.8
					c0.3-0.1,0.7,0.1,0.8,0.5c0.7,3.3,0.5,6.8-0.6,10C-368.9-297.5-375.9-292.9-383.3-292.9z"/>
			</g>
		</g>
		<g id="g465_8_" transform="translate(274.7295,246.1509)">
			<g id="path467_8_">
				<path class="st4" d="M-251.8-213c-0.6,0-1.2-0.1-1.7-0.3c-2.7-1-4.1-3.9-3.1-6.6c1-2.7,3.9-4.1,6.6-3.1c0.7,0.3,1.4,0.7,1.9,1.2
					c0.3,0.3,0.3,0.7,0,0.9c-0.3,0.3-0.7,0.3-0.9,0c-0.4-0.4-0.9-0.7-1.4-0.9c-2-0.7-4.2,0.3-4.9,2.3c-0.7,2,0.3,4.2,2.3,4.9
					c1,0.3,2,0.3,2.9-0.1c0.9-0.4,1.6-1.2,2-2.2c0.2-0.5,0.3-1,0.2-1.6c0-0.4,0.2-0.7,0.6-0.7c0.4,0,0.7,0.2,0.7,0.6
					c0.1,0.7,0,1.4-0.3,2.1c-0.5,1.3-1.4,2.3-2.6,2.9C-250.3-213.2-251.1-213-251.8-213z"/>
			</g>
		</g>
	</g>
	<g id="g417_8_" transform="translate(500.6787,412.1377)">
		<g id="path419_8_">
			<path class="st5" d="M-450.5-391.2c0.1,0.1,0.1,0.2,0,0.3l-2.3,1.1l-1.4,0.7l-3.8,1.8c-0.2,0.1-0.5,0.1-0.8,0l-3.9-2.2l4.2-2
				l1.4-0.7l2.6-1.2L-450.5-391.2z"/>
		</g>
	</g>
	<g id="g421_8_" transform="translate(480.6104,387.5)">
		<g id="path423_8_">
			<path class="st6" d="M-432.7-365.2l-1.4,0.7l-4.3-2.4l1.4-0.7L-432.7-365.2z"/>
		</g>
	</g>
	<g id="g425_8_" transform="translate(422.1299,444.1099)">
		<g id="path427_8_">
			<path class="st5" d="M-377.3-427.9l-2.6,1.2l-1.4,0.6l-4.2,1.9l0.8-4.5c0-0.3,0.2-0.5,0.5-0.6l3.8-1.8l1.4-0.7l2.3-1.1
				c0.1-0.1,0.3,0,0.2,0.2L-377.3-427.9z"/>
		</g>
	</g>
	<g id="g429_9_" transform="translate(398.0996,420.6001)">
		<g id="path431_9_">
			<path class="st6" d="M-355.8-403.2l-1.4,0.6l0.9-5l1.4-0.7L-355.8-403.2z"/>
		</g>
	</g>
	<g id="g433_9_" transform="translate(467.8398,447.3398)">
		<g id="path435_9_">
			<path class="st7" d="M-419.3-430.1c-0.1,0.4-0.4,0.7-0.8,0.9l-23.8,11.2c-0.8,0.4-1.7,0.1-2.1-0.6c0,0-0.1-0.1-0.1-0.1
				c-0.2-0.4-0.2-0.9-0.1-1.3c0.1-0.4,0.4-0.7,0.8-0.9l23.8-11.2c0.8-0.4,1.8,0,2.2,0.8c0,0.1,0,0.1,0.1,0.2
				C-419.1-430.8-419.2-430.4-419.3-430.1"/>
		</g>
	</g>
	<g id="g437_8_" transform="translate(467.8398,447.3398)">
		<g id="path439_8_">
			<path class="st8" d="M-419.3-430.1c-0.1,0.4-0.4,0.7-0.8,0.9l-23.8,11.2c-0.8,0.4-1.7,0.1-2.1-0.6l26.8-12.6
				C-419.1-430.8-419.2-430.4-419.3-430.1"/>
		</g>
	</g>
	<g id="g469_8_" transform="translate(212.8672,239.4443)">
		<g id="path471_8_">
			<path class="st4" d="M-189.7-209.2c-0.9,0-1.7-0.5-2.1-1.3c-0.5-1.2,0-2.5,1.1-3.1l23.8-11.2c1.2-0.5,2.5,0,3.1,1.1
				c0.5,1.2,0,2.5-1.1,3.1l-23.8,11.2C-189-209.3-189.3-209.2-189.7-209.2z M-165.9-223.7c-0.1,0-0.3,0-0.4,0.1l-23.8,11.2
				c0,0,0,0,0,0c-0.2,0.1-0.4,0.3-0.5,0.5c-0.1,0.2-0.1,0.5,0,0.7c0.2,0.5,0.8,0.7,1.3,0.5l23.8-11.2c0.5-0.2,0.7-0.8,0.5-1.3
				C-165.1-223.5-165.5-223.7-165.9-223.7z M-190.4-213L-190.4-213L-190.4-213z"/>
		</g>
	</g>
	<g id="g473_8_" transform="translate(390.6611,419.603)">
		<g id="path475_8_">
			<path class="st4" d="M-349-401.7c0,0-0.1,0-0.1,0c-0.4-0.1-0.6-0.4-0.5-0.8l0.8-4.4c0.1-0.4,0.4-0.6,0.8-0.5
				c0.4,0.1,0.6,0.4,0.5,0.8l-0.8,4.4C-348.4-401.9-348.7-401.7-349-401.7z"/>
		</g>
	</g>
	<g id="g477_8_" transform="translate(421.46,448.3306)">
		<g id="path479_8_">
			<path class="st4" d="M-384.7-427.9c0,0-0.1,0-0.1,0c-0.4-0.1-0.6-0.4-0.5-0.8l0.9-4.7c0-0.2,0.2-0.4,0.4-0.5l8.2-3.9
				c0.2-0.1,0.5-0.1,0.7,0.1c0.2,0.2,0.3,0.4,0.3,0.7l-0.9,4.7c-0.1,0.4-0.4,0.6-0.8,0.5c-0.4-0.1-0.6-0.4-0.5-0.8l0.6-3.4l-6.7,3.2
				l-0.8,4.3C-384.1-428.2-384.4-427.9-384.7-427.9z"/>
		</g>
	</g>
	<g id="g481_8_" transform="translate(420.3096,389.9541)">
		<g id="path483_8_">
			<path class="st4" d="M-373.2-366.7c-0.1,0-0.2,0-0.3-0.1l-3.9-2.2c-0.3-0.2-0.4-0.6-0.3-0.9c0.2-0.3,0.6-0.4,0.9-0.3l3.9,2.2
				c0.3,0.2,0.4,0.6,0.3,0.9C-372.7-366.8-373-366.7-373.2-366.7z"/>
		</g>
	</g>
	<g id="g485_9_" transform="translate(449.2891,420.7114)">
		<g id="path487_8_">
			<path class="st4" d="M-407-395c-0.1,0-0.2,0-0.3-0.1l-4.1-2.3c-0.3-0.2-0.4-0.6-0.3-0.9c0.2-0.3,0.6-0.4,0.9-0.3l3.8,2.1l6.7-3.2
				l-3-1.7c-0.3-0.2-0.4-0.6-0.3-0.9c0.2-0.3,0.6-0.4,0.9-0.3l4.1,2.3c0.2,0.1,0.4,0.4,0.3,0.6c0,0.3-0.2,0.5-0.4,0.6l-8.2,3.9
				C-406.8-395.1-406.9-395-407-395z"/>
		</g>
	</g>
</g>
</svg>
