<?xml version="1.0" encoding="utf-8"?>
<!-- Generator: Adobe Illustrator 25.0.0, SVG Export Plug-In . SVG Version: 6.00 Build 0)  -->
<svg version="1.1" id="Layer_1" xmlns="http://www.w3.org/2000/svg" xmlns:xlink="http://www.w3.org/1999/xlink" x="0px" y="0px"
	 viewBox="0 0 56 56" style="enable-background:new 0 0 56 56;" xml:space="preserve">
<style type="text/css">
	.st0{fill:#F2FBFF;}
	.st1{fill:#DFF6FD;}
	.st2{fill:#35414D;}
	.st3{fill:#26A6FE;}
	.st4{fill:#0593FC;}
	.st5{fill:#60B7FF;}
	.st6{fill:#FFE177;}
	.st7{fill:#FFD15B;}
	.st8{fill:#C5D3DD;}
	.st9{fill:#B6C4CF;}
	.st10{fill:none;stroke:#35414D;stroke-width:1.1857;stroke-linecap:round;stroke-linejoin:round;stroke-miterlimit:10;}
	.st11{fill:#F5F8F9;}
	.st12{fill:#6CF5C2;}
	.st13{fill:#00F2A6;}
</style>
<g>
	<g>
		<path class="st0" d="M8,14v27c0,0.8,0.5,1.4,1.2,1.4h37.7c0.7,0,1.2-0.6,1.2-1.4V14H8z"/>
	</g>
	<g>
		<path class="st1" d="M43.6,14v27c0,0.8-0.6,1.4-1.4,1.4h4.5c0.8,0,1.4-0.6,1.4-1.4V14H43.6z"/>
	</g>
	<g>
		<path class="st2" d="M46.9,43.1H9.1c-1,0-1.9-0.9-1.9-2.1V14c0-0.4,0.3-0.7,0.6-0.7h40.2c0.4,0,0.6,0.3,0.6,0.7v27
			C48.7,42.1,47.9,43.1,46.9,43.1z M8.6,14.7V41c0,0.4,0.3,0.7,0.6,0.7h37.7c0.3,0,0.6-0.3,0.6-0.7V14.7H8.6z"/>
	</g>
	<g>
		<path class="st3" d="M46.9,8.7H9.2C8.5,8.7,8,9.3,8,10.1v4h40.1v-4C48.1,9.3,47.6,8.7,46.9,8.7z"/>
	</g>
	<g>
		<path class="st4" d="M46.7,8.7h-4.5c0.8,0,1.4,0.6,1.4,1.4v4h4.5v-4C48.1,9.3,47.5,8.7,46.7,8.7z"/>
	</g>
	<g>
		<path class="st2" d="M48.1,14.8H7.9c-0.4,0-0.6-0.3-0.6-0.7v-4C7.3,9,8.1,8,9.1,8h6.2C15.7,8,16,8.3,16,8.7s-0.3,0.7-0.6,0.7H9.1
			c-0.3,0-0.6,0.3-0.6,0.7v3.3h38.9v-3.3c0-0.4-0.3-0.7-0.6-0.7H18.2c-0.4,0-0.6-0.3-0.6-0.7S17.8,8,18.2,8h28.7
			c1,0,1.9,0.9,1.9,2.1v4C48.7,14.5,48.5,14.8,48.1,14.8z"/>
	</g>
	<g>
		<path class="st5" d="M13.4,8.7h-4C8.6,8.7,8,9.3,8,10.1v4h5.4V8.7z"/>
	</g>
	<g>
		<path class="st2" d="M13.4,14.8H8c-0.4,0-0.7-0.3-0.7-0.7v-4C7.3,8.9,8.2,8,9.4,8h4c0.4,0,0.7,0.3,0.7,0.7v5.4
			C14.1,14.5,13.8,14.8,13.4,14.8z M8.7,13.4h4v-4H9.4c-0.4,0-0.7,0.3-0.7,0.7V13.4z"/>
	</g>
	<g>
		<g>
			<g>
				<path class="st6" d="M39.2,17.3v4.9c0,0.3,0.2,0.5,0.5,0.5h4.9c0.3,0,0.5-0.2,0.5-0.5v-4.9c0-0.3-0.2-0.5-0.5-0.5h-4.9
					C39.4,16.9,39.2,17.1,39.2,17.3z"/>
			</g>
		</g>
		<g>
			<g>
				<path class="st7" d="M44.5,16.9h-2.4c0.3,0,0.5,0.2,0.5,0.5v4.9c0,0.3-0.2,0.5-0.5,0.5h2.4c0.3,0,0.5-0.2,0.5-0.5v-4.9
					C45,17.1,44.8,16.9,44.5,16.9z"/>
			</g>
		</g>
		<g>
			<g>
				<path class="st2" d="M44.5,23.4h-4.9c-0.6,0-1.2-0.5-1.2-1.2v-0.7c0-0.4,0.3-0.7,0.7-0.7c0.4,0,0.7,0.3,0.7,0.7V22h4.5v-4.5
					h-4.5v0.8c0,0.4-0.3,0.7-0.7,0.7c-0.4,0-0.7-0.3-0.7-0.7v-1c0-0.6,0.5-1.2,1.2-1.2h4.9c0.6,0,1.2,0.5,1.2,1.2v4.9
					C45.7,22.9,45.2,23.4,44.5,23.4z"/>
			</g>
		</g>
	</g>
	<g>
		<g>
			<g>
				<g>
					<g>
						<path class="st8" d="M40.4,36.3v-3.1c0-0.5-0.4-0.9-0.9-0.9h-1.9c-0.4,0-0.8-0.3-0.9-0.6c-0.1-0.4-0.3-0.7-0.4-1.1
							c-0.2-0.4-0.1-0.8,0.2-1.1l1.4-1.4c0.4-0.4,0.4-1,0-1.3l-2.2-2.2c-0.4-0.4-1-0.4-1.3,0L32.9,26c-0.3,0.3-0.7,0.4-1.1,0.2
							c-0.3-0.2-0.7-0.3-1.1-0.4c-0.4-0.1-0.6-0.5-0.6-0.9V23c0-0.5-0.4-0.9-0.9-0.9h-3.1c-0.5,0-0.9,0.4-0.9,0.9v1.9
							c0,0.4-0.3,0.8-0.6,0.9c-0.4,0.1-0.7,0.3-1.1,0.4c-0.4,0.2-0.8,0.1-1.1-0.2L21,24.7c-0.4-0.4-1-0.4-1.3,0l-2.2,2.2
							c-0.4,0.4-0.4,1,0,1.3l1.4,1.4c0.3,0.3,0.4,0.7,0.2,1.1c-0.2,0.3-0.3,0.7-0.4,1.1c-0.1,0.4-0.5,0.6-0.9,0.6h-1.9
							c-0.5,0-0.9,0.4-0.9,0.9v3.1c0,0.5,0.4,0.9,0.9,0.9h1.9c0.4,0,0.8,0.3,0.9,0.6c0.1,0.4,0.3,0.7,0.4,1.1
							c0.2,0.4,0.1,0.8-0.2,1.1l-1.4,1.4c-0.4,0.4-0.4,1,0,1.3l2.2,2.2c0.4,0.4,1,0.4,1.3,0l1.4-1.4c0.3-0.3,0.7-0.4,1.1-0.2
							c0.3,0.2,0.7,0.3,1.1,0.4c0.4,0.1,0.6,0.5,0.6,0.9v1.9c0,0.5,0.4,0.9,0.9,0.9h3.1c0.5,0,0.9-0.4,0.9-0.9v-1.9
							c0-0.4,0.3-0.8,0.6-0.9c0.4-0.1,0.7-0.3,1.1-0.4c0.4-0.2,0.8-0.1,1.1,0.2l1.4,1.4c0.4,0.4,1,0.4,1.3,0l2.2-2.2
							c0.4-0.4,0.4-1,0-1.3L36.4,40c-0.3-0.3-0.4-0.7-0.2-1.1c0.2-0.3,0.3-0.7,0.4-1.1c0.1-0.4,0.5-0.6,0.9-0.6h1.9
							C40,37.2,40.4,36.8,40.4,36.3z"/>
						<path class="st9" d="M39.4,32.3h-1.9c-0.4,0-0.8-0.3-0.9-0.6c-0.1-0.4-0.3-0.7-0.4-1.1c-0.2-0.4-0.1-0.8,0.2-1.1l1.4-1.4
							c0.4-0.4,0.4-1,0-1.3l-2.2-2.2c-0.4-0.4-1-0.4-1.3,0L32.9,26c-0.3,0.3-0.7,0.4-1.1,0.2c-0.3-0.2-0.7-0.3-1.1-0.4
							c-0.4-0.1-0.6-0.5-0.6-0.9V23c0-0.5-0.4-0.9-0.9-0.9h-3.1c-0.5,0-0.9,0.4-0.9,0.9v0.1c4.5,2,7.6,6.4,7.6,11.7
							s-3.1,9.7-7.6,11.7v0.1c0,0.5,0.4,0.9,0.9,0.9h3.1c0.5,0,0.9-0.4,0.9-0.9v-1.9c0-0.4,0.3-0.8,0.6-0.9c0.4-0.1,0.7-0.3,1.1-0.4
							c0.4-0.2,0.8-0.1,1.1,0.2l1.4,1.4c0.4,0.4,1,0.4,1.3,0l2.2-2.2c0.4-0.4,0.4-1,0-1.3L36.4,40c-0.3-0.3-0.4-0.7-0.2-1.1
							c0.2-0.3,0.3-0.7,0.4-1.1c0.1-0.4,0.5-0.6,0.9-0.6h1.9c0.5,0,0.9-0.4,0.9-0.9v-3.1C40.4,32.7,40,32.3,39.4,32.3z"/>
						<path class="st10" d="M40.4,36.3v-3.1c0-0.5-0.4-0.9-0.9-0.9h-1.9c-0.4,0-0.8-0.3-0.9-0.6c-0.1-0.4-0.3-0.7-0.4-1.1
							c-0.2-0.4-0.1-0.8,0.2-1.1l1.4-1.4c0.4-0.4,0.4-1,0-1.3l-2.2-2.2c-0.4-0.4-1-0.4-1.3,0L32.9,26c-0.3,0.3-0.7,0.4-1.1,0.2
							c-0.3-0.2-0.7-0.3-1.1-0.4c-0.4-0.1-0.6-0.5-0.6-0.9V23c0-0.5-0.4-0.9-0.9-0.9h-3.1c-0.5,0-0.9,0.4-0.9,0.9v1.9
							c0,0.4-0.3,0.8-0.6,0.9c-0.4,0.1-0.7,0.3-1.1,0.4c-0.4,0.2-0.8,0.1-1.1-0.2L21,24.7c-0.4-0.4-1-0.4-1.3,0l-2.2,2.2
							c-0.4,0.4-0.4,1,0,1.3l1.4,1.4c0.3,0.3,0.4,0.7,0.2,1.1c-0.2,0.3-0.3,0.7-0.4,1.1c-0.1,0.4-0.5,0.6-0.9,0.6h-1.9
							c-0.5,0-0.9,0.4-0.9,0.9v3.1c0,0.5,0.4,0.9,0.9,0.9h1.9c0.4,0,0.8,0.3,0.9,0.6c0.1,0.4,0.3,0.7,0.4,1.1
							c0.2,0.4,0.1,0.8-0.2,1.1l-1.4,1.4c-0.4,0.4-0.4,1,0,1.3l2.2,2.2c0.4,0.4,1,0.4,1.3,0l1.4-1.4c0.3-0.3,0.7-0.4,1.1-0.2
							c0.3,0.2,0.7,0.3,1.1,0.4c0.4,0.1,0.6,0.5,0.6,0.9v1.9c0,0.5,0.4,0.9,0.9,0.9h3.1c0.5,0,0.9-0.4,0.9-0.9v-1.9
							c0-0.4,0.3-0.8,0.6-0.9c0.4-0.1,0.7-0.3,1.1-0.4c0.4-0.2,0.8-0.1,1.1,0.2l1.4,1.4c0.4,0.4,1,0.4,1.3,0l2.2-2.2
							c0.4-0.4,0.4-1,0-1.3L36.4,40c-0.3-0.3-0.4-0.7-0.2-1.1c0.2-0.3,0.3-0.7,0.4-1.1c0.1-0.4,0.5-0.6,0.9-0.6h1.9
							C40,37.2,40.4,36.8,40.4,36.3z"/>
						<ellipse class="st11" cx="27.6" cy="34.8" rx="5.9" ry="5.9"/>
						<path class="st10" d="M21.9,36.2c0.6,2.6,3,4.5,5.7,4.5c3.3,0,5.9-2.6,5.9-5.9s-2.6-5.9-5.9-5.9c-2.8,0-5.1,1.9-5.7,4.5"/>
						<circle class="st8" cx="27.6" cy="34.8" r="2.8"/>
						<path class="st9" d="M27.6,32c-0.3,0-0.7,0.1-1,0.2c1,0.4,1.8,1.4,1.8,2.6c0,1.2-0.7,2.2-1.8,2.6c0.3,0.1,0.6,0.2,1,0.2
							c1.5,0,2.8-1.2,2.8-2.8C30.4,33.2,29.2,32,27.6,32z"/>
						<circle class="st10" cx="27.6" cy="34.8" r="2.8"/>
					</g>
				</g>
			</g>
		</g>
		<g>
			<g>
				<circle class="st12" cx="35.2" cy="42.1" r="5.9"/>
				<path class="st13" d="M35.2,36.2c-0.6,0-1.1,0.1-1.7,0.2c2.5,0.7,4.3,3,4.3,5.7s-1.8,5-4.3,5.7c0.5,0.2,1.1,0.2,1.7,0.2
					c3.3,0,5.9-2.7,5.9-5.9C41.2,38.8,38.5,36.2,35.2,36.2z"/>
				<circle class="st10" cx="35.2" cy="42.1" r="5.9"/>
				<polyline class="st10" points="32.2,42 34.7,44.5 37.9,39.9 				"/>
			</g>
		</g>
	</g>
	<g>
		<g>
			<path class="st2" d="M15.6,17.5h-4.7c-0.3,0-0.5-0.3-0.5-0.7s0.2-0.7,0.5-0.7h4.7c0.3,0,0.5,0.3,0.5,0.7S15.9,17.5,15.6,17.5z"/>
		</g>
		<g>
			<path class="st2" d="M15.6,20.2h-4.7c-0.3,0-0.5-0.3-0.5-0.7s0.2-0.7,0.5-0.7h4.7c0.3,0,0.5,0.3,0.5,0.7S15.9,20.2,15.6,20.2z"/>
		</g>
		<g>
			<path class="st2" d="M15.6,23h-4.7c-0.3,0-0.5-0.3-0.5-0.7s0.2-0.7,0.5-0.7h4.7c0.3,0,0.5,0.3,0.5,0.7S15.9,23,15.6,23z"/>
		</g>
		<g>
			<path class="st2" d="M13.6,25.7h-2.6c-0.3,0-0.5-0.3-0.5-0.7c0-0.4,0.2-0.7,0.5-0.7h2.6c0.3,0,0.5,0.3,0.5,0.7
				C14,25.4,13.8,25.7,13.6,25.7z"/>
		</g>
	</g>
</g>
</svg>
