<?xml version="1.0" encoding="utf-8"?>
<!-- Generator: Adobe Illustrator 25.0.0, SVG Export Plug-In . SVG Version: 6.00 Build 0)  -->
<svg version="1.1" id="Layer_1" xmlns="http://www.w3.org/2000/svg" xmlns:xlink="http://www.w3.org/1999/xlink" x="0px" y="0px"
	 viewBox="0 0 56 56" style="enable-background:new 0 0 56 56;" xml:space="preserve">
<style type="text/css">
	.st0{fill:#F5F5FA;}
	.st1{fill:#E5E8EC;}
	.st2{fill:#35414D;}
	.st3{fill:#FFCD57;}
	.st4{fill:#F4BA43;}
</style>
<g>
	<g>
		<g>
			<ellipse class="st0" cx="28" cy="28" rx="19" ry="19"/>
		</g>
		<g>
			<path class="st1" d="M46.5,32.6C44.4,40.9,36.9,47,28,47C17.5,47,9,38.5,9,28c0-6.6,3.4-12.4,8.5-15.8c-0.4,1.5-0.6,3-0.6,4.6
				c0,10.5,8.5,19,19,19C39.8,35.8,43.5,34.6,46.5,32.6L46.5,32.6z"/>
		</g>
		<g>
			<path class="st2" d="M28,48C17,48,8,39,8,28S17,8,28,8c11,0,20,9,20,20S39,48,28,48z M28,9.9C18,9.9,9.9,18,9.9,28
				S18,46.1,28,46.1c10,0,18.1-8.1,18.1-18.1S38,9.9,28,9.9z"/>
		</g>
		<g>
			<g>
				<ellipse class="st3" cx="28" cy="28" rx="14.3" ry="14.3"/>
			</g>
			<g>
				<path class="st4" d="M42.1,30.5C40.9,37.2,35,42.3,28,42.3c-7.9,0-14.3-6.4-14.3-14.3c0-6.4,4.2-11.8,10-13.6
					c-0.1,0.8-0.2,1.7-0.2,2.5c0,7.9,6.4,14.3,14.3,14.3C39.3,31.2,40.7,31,42.1,30.5L42.1,30.5z"/>
			</g>
			<g>
				<path class="st2" d="M28,43.4c-8.5,0-15.4-6.9-15.4-15.4S19.5,12.6,28,12.6S43.4,19.5,43.4,28S36.5,43.4,28,43.4L28,43.4z
					 M28,14.8c-7.3,0-13.2,5.9-13.2,13.2S20.7,41.2,28,41.2S41.2,35.3,41.2,28C41.2,20.7,35.3,14.8,28,14.8L28,14.8z"/>
			</g>
			<g>
				<path class="st2" d="M28,29.1c-2.4,0-4.3-1.9-4.3-4.3s1.9-4.3,4.3-4.3s4.3,1.9,4.3,4.3c0,0.6-0.5,1.1-1.1,1.1s-1.1-0.5-1.1-1.1
					c0-1.1-0.9-2.1-2.1-2.1s-2.1,0.9-2.1,2.1s0.9,2.1,2.1,2.1c0.6,0,1.1,0.5,1.1,1.1C29.1,28.6,28.6,29.1,28,29.1L28,29.1z"/>
			</g>
			<g>
				<path class="st2" d="M28,35.5c-2.4,0-4.3-1.9-4.3-4.3c0-0.6,0.5-1.1,1.1-1.1s1.1,0.5,1.1,1.1c0,1.1,0.9,2.1,2.1,2.1
					s2.1-0.9,2.1-2.1c0-1.1-0.9-2.1-2.1-2.1c-0.6,0-1.1-0.5-1.1-1.1s0.5-1.1,1.1-1.1c2.4,0,4.3,1.9,4.3,4.3
					C32.3,33.5,30.4,35.5,28,35.5L28,35.5z"/>
			</g>
			<g>
				<path class="st2" d="M28,22.7c-0.6,0-1.1-0.5-1.1-1.1v-2c0-0.6,0.5-1.1,1.1-1.1s1.1,0.5,1.1,1.1v2C29.1,22.2,28.6,22.7,28,22.7z
					"/>
			</g>
			<g>
				<path class="st2" d="M28,37.3c-0.6,0-1.1-0.5-1.1-1.1v-1.9c0-0.6,0.5-1.1,1.1-1.1s1.1,0.5,1.1,1.1v1.9
					C29.1,36.8,28.6,37.3,28,37.3z"/>
			</g>
		</g>
	</g>
</g>
</svg>
