<?xml version="1.0" encoding="utf-8"?>
<!-- Generator: Adobe Illustrator 25.0.0, SVG Export Plug-In . SVG Version: 6.00 Build 0)  -->
<svg version="1.1" id="Layer_1" xmlns="http://www.w3.org/2000/svg" xmlns:xlink="http://www.w3.org/1999/xlink" x="0px" y="0px"
	 viewBox="0 0 263.3 150" style="enable-background:new 0 0 263.3 150;" xml:space="preserve">
<style type="text/css">
	.st0{fill-rule:evenodd;clip-rule:evenodd;fill:#7DDF96;}
	.st1{fill:#0D9353;}
	.st2{fill:#35414D;}
	.st3{fill-rule:evenodd;clip-rule:evenodd;fill:#0D9353;}
</style>
<g>
	<g>
		<path id="_409268072_55_" class="st0" d="M93.1,85.6c6.3,0.3,13.9,1.1,20.2,2.5c0.7,0.2,1.2,0.9,1.2,1.8l-2.6,51.9
			c-0.1,2.7-3.4,1.3-6.3,0.8c-13-2.1-26.9-2-40.8-0.6c-17.4,1.7-38.6,1.7-57-0.1c-0.8-0.1-1.4-0.9-1.3-1.8L9,88c0-1,0.8-1.8,1.7-1.7
			c18.7,1.8,40,1.8,58.3,0.1C77.6,85.6,85.7,85.3,93.1,85.6L93.1,85.6z"/>
		<path id="_409267760_110_" class="st1" d="M25.9,140.8c-7.2-0.3-13.7-0.8-19.1-1.5l2.5-51.4c5.5,0.7,12.1,1.2,19.2,1.4
			c13.2,0.5,27.5,0.3,39.1-0.6c8-0.6,15.7-0.8,22.8-0.5c12.6,0.5,20.2,2.3,23.2,3.2l-2.5,51.2c-6.8-1.9-15.8-2.7-22.7-2.9
			c-7.8-0.3-16.2-0.2-23.8,0.4C53.2,141.1,39.1,141.3,25.9,140.8 M25.7,144.2c12.9,0.5,27.2,0.4,39.1-0.6c7.3-0.6,15.6-0.7,23.4-0.4
			c9.8,0.4,18.9,1.6,24.3,3.6c0.1,0.1,0.3,0.1,0.4,0.1c0.7,0,1.4-0.5,1.5-1.3l2.8-55.5c0-0.6-0.3-1.1-0.9-1.4
			c-0.3-0.1-8.6-3.2-25.7-3.9l0,0c-7.2-0.3-15-0.1-23.2,0.5c-11.9,0.9-25.9,1.1-38.7,0.6c-7.9-0.3-15.2-0.9-21.2-1.7
			c0,0-0.1,0-0.1,0c-0.8,0-1.4,0.6-1.5,1.3l-2.8,55.5c0,0.7,0.5,1.3,1.2,1.4C10.4,143.3,17.8,143.9,25.7,144.2L25.7,144.2z
			 M90.6,84.8L90.6,84.8C90.6,84.8,90.6,84.8,90.6,84.8L90.6,84.8z"/>
		<path id="_409267760_109_" class="st2" d="M23.9,143.4c-7.5-0.3-14.4-0.8-20.1-1.6l2.8-56.7c5.8,0.7,12.8,1.3,20.3,1.6
			c14,0.6,29,0.3,41.2-0.7c8.5-0.7,16.5-0.9,24-0.6c13.3,0.5,21.3,2.5,24.4,3.5l-2.8,56.5c-7.1-2.1-16.7-2.9-23.9-3.2
			c-8.2-0.3-17.1-0.1-25.1,0.5C52.7,143.7,37.8,143.9,23.9,143.4 M23.7,147.2c13.6,0.6,28.6,0.3,41.2-0.7c7.7-0.6,16.4-0.8,24.6-0.5
			c10.4,0.4,19.9,1.7,25.6,3.9c0.2,0.1,0.3,0.1,0.5,0.1c0.8,0,1.5-0.6,1.5-1.5l3-61.3c0-0.7-0.3-1.3-0.9-1.5c-0.4-0.1-9-3.5-27-4.2
			l0,0c-7.6-0.3-15.8-0.1-24.4,0.6c-12.5,1.1-27.4,1.3-40.7,0.7c-8.3-0.3-16-1-22.3-1.8c0,0-0.1,0-0.1,0c-0.8,0-1.5,0.6-1.5,1.5
			l-3,61.3c0,0.8,0.5,1.5,1.3,1.6C7.6,146.2,15.4,146.9,23.7,147.2L23.7,147.2z M92.2,81.5L92.2,81.5C92.2,81.5,92.2,81.5,92.2,81.5
			L92.2,81.5z"/>
		<g>
			<path id="_409267496_55_" class="st3" d="M16.2,140.5c-2.9-0.2-5.8-0.4-8.5-0.7c-0.7-0.1-1.2-0.6-1.1-1.3l0.4-8.5
				C13.6,130.5,16.6,137.1,16.2,140.5L16.2,140.5z"/>
			<path id="_409268120_55_" class="st3" d="M8.7,96.7l0.4-8.6c0-0.7,0.7-1.3,1.4-1.2c2.8,0.3,5.6,0.5,8.5,0.6
				C18.9,90.7,15.1,96.7,8.7,96.7L8.7,96.7z"/>
			<path id="_409267040_55_" class="st3" d="M105.1,88.8c2.8,0.3,5.6,0.7,8.1,1.2c0.6,0.1,1,0.6,0.9,1.2l-0.4,8.1
				C110.5,99.3,104.5,95.4,105.1,88.8L105.1,88.8z"/>
			<path id="_409266752_55_" class="st3" d="M112,133.2l-0.4,8.4c-0.1,2-2.8,0.9-5.3,0.6c-1.4-0.2-2.9-0.4-4.3-0.5
				C102.9,136.8,107.1,133.3,112,133.2L112,133.2z"/>
		</g>
		<path id="_409266968_55_" class="st3" d="M61.2,89.9c13.3,0.5,23.6,11.9,22.9,25.4c-0.7,13.4-12,23.9-25.3,23.4
			c-13.3-0.5-23.6-11.9-22.9-25.4C36.5,99.8,47.9,89.3,61.2,89.9L61.2,89.9z"/>
		
			<ellipse transform="matrix(0.3703 -0.9289 0.9289 0.3703 -46.1426 162.351)" class="st1" cx="96.7" cy="115.2" rx="5.9" ry="5.8"/>
		<ellipse transform="matrix(0.3703 -0.9289 0.9289 0.3703 -89.7363 92.0681)" class="st1" cx="23" cy="112.2" rx="5.9" ry="5.8"/>
		<g>
			<path id="_409266824_56_" class="st0" d="M60.5,102.9c5.9,0.2,7.7,8.3,4.5,8.1c-0.8,0-1.5-0.7-1.4-1.6c0.2-4.5-6.5-4.7-6.7-0.3
				c-0.3,5.8,9.6,1.5,9.2,10.2c-0.4,8.4-13.1,7.9-12.7-0.5c0.1-2,3.1-1.9,3,0.1c-0.2,4.5,6.5,4.7,6.7,0.3c0.3-5.8-9.6-1.5-9.2-10.2
				C54,105.6,57,102.8,60.5,102.9L60.5,102.9z"/>
			<path id="_409267328_56_" class="st0" d="M59.5,122.6c1.9,0.1,1.4,2.4,1.3,4.2c-0.1,2-3.1,1.9-3-0.1
				C57.9,124.9,57.6,122.5,59.5,122.6z"/>
			<path id="_409266872_56_" class="st0" d="M60.6,100.3c1.9,0.1,1.4,2.4,1.3,4.2c-0.1,2-3.1,1.9-3-0.1
				C59,102.7,58.7,100.3,60.6,100.3z"/>
		</g>
	</g>
	<g>
		<path id="_409268072_44_" class="st0" d="M97.3,99.3c-7,2-15.7,3.9-23.1,4.6c-0.9,0.1-1.7-0.6-1.9-1.5l-16.1-58
			c-0.8-3.1,3.3-2.7,6.6-3.2c15-2.5,30.3-7.7,45.1-14.2c18.5-8.2,41.9-16,62.7-20.7c0.9-0.2,1.8,0.4,2.1,1.5l16.2,58.2
			c0.3,1.1-0.2,2.2-1.2,2.4C166.5,73.2,143,81,123.6,89.6C114.4,93.6,105.6,96.9,97.3,99.3L97.3,99.3z"/>
		<path id="_409267760_88_" class="st1" d="M151.1,14.1c8-2.3,15.4-4.1,21.5-5.4l16,57.4c-6.3,1.3-13.7,3.2-21.7,5.4
			c-14.8,4.2-30.3,9.7-42.7,14.9c-8.6,3.6-17,6.6-24.9,8.9c-14,4-23.1,4.8-26.6,4.9L56.7,43c8.1-0.4,18.4-2.9,26-5.1
			c8.7-2.5,17.9-5.7,26-9.2C121,23.7,136.4,18.3,151.1,14.1 M150,10.2c-14.3,4.1-30,9.5-42.8,14.9c-7.8,3.3-16.9,6.5-25.5,9
			c-10.9,3.1-21.3,5.2-28,4.9c-0.2,0-0.3,0-0.5,0.1c-0.8,0.2-1.4,1.1-1.1,2l17.3,62.1c0.2,0.7,0.8,1.1,1.5,1.2
			c0.4,0,10.6,0.4,29.6-5.1v0c8.1-2.3,16.6-5.4,25.3-9c12.7-5.4,28.1-10.7,42.3-14.8c8.8-2.5,17-4.6,23.9-5.9c0.1,0,0.1,0,0.1,0
			c0.8-0.2,1.4-1.1,1.1-2L175.9,5.5c-0.2-0.8-1-1.3-1.8-1.1C167.2,5.6,158.8,7.7,150,10.2L150,10.2z M100.4,99.2L100.4,99.2
			C100.4,99.2,100.4,99.2,100.4,99.2L100.4,99.2z"/>
		<path id="_409267760_87_" class="st2" d="M152.3,10.5c8.4-2.4,16.2-4.3,22.7-5.6l17.6,63.3c-6.7,1.3-14.5,3.3-22.9,5.7
			c-15.5,4.5-32,10.2-45,15.8c-9,3.9-17.8,7-26.2,9.4c-14.8,4.3-24.4,5-28.1,5.1L52.9,41.1c8.6-0.3,19.4-2.9,27.4-5.2
			c9.2-2.6,18.9-6.1,27.4-9.7C120.6,20.6,136.8,14.9,152.3,10.5 M151.1,6.2C136,10.5,119.5,16.3,106,22c-8.2,3.5-17.7,6.9-26.9,9.6
			c-11.5,3.3-22.5,5.4-29.6,5c-0.2,0-0.4,0-0.5,0.1c-0.9,0.2-1.4,1.2-1.2,2.2l19,68.5c0.2,0.7,0.8,1.3,1.6,1.3
			c0.4,0,11.2,0.5,31.3-5.2v0c8.5-2.4,17.5-5.7,26.6-9.6c13.4-5.7,29.6-11.4,44.5-15.7c9.2-2.7,18-4.8,25.2-6.1c0.1,0,0.1,0,0.2,0
			c0.9-0.3,1.4-1.2,1.2-2.2l-19-68.5c-0.2-0.9-1.1-1.4-2-1.3C169.2,1.4,160.4,3.5,151.1,6.2L151.1,6.2z M99.8,103.4L99.8,103.4
			C99.8,103.4,99.8,103.4,99.8,103.4L99.8,103.4z"/>
		<g>
			<path id="_409267496_44_" class="st3" d="M161.8,10.9c3.3-0.9,6.5-1.7,9.6-2.4c0.8-0.2,1.5,0.3,1.7,1l2.7,9.5
				C168.3,20.8,162.6,14.7,161.8,10.9L161.8,10.9z"/>
			<path id="_409268120_44_" class="st3" d="M186.1,56.2l2.7,9.7c0.2,0.8-0.3,1.7-1.1,1.9c-3.1,0.7-6.4,1.5-9.6,2.4
				C177,66.5,179.1,58.6,186.1,56.2L186.1,56.2z"/>
			<path id="_409267040_44_" class="st3" d="M82.9,100.2c-3.2,0.7-6.4,1.2-9.3,1.6c-0.7,0.1-1.3-0.4-1.5-1l-2.5-9.1
				C73.2,90.5,81.2,92.6,82.9,100.2L82.9,100.2z"/>
			<path id="_409266752_44_" class="st3" d="M59.1,53.8l-2.6-9.4c-0.6-2.2,2.8-2.1,5.6-2.6c1.6-0.3,3.3-0.6,4.9-1
				C67.8,46.5,64.5,52,59.1,53.8L59.1,53.8z"/>
		</g>
		<path id="_409266968_44_" class="st3" d="M130.9,82.9c-14.8,4.3-30.3-4.5-34.4-19.5s4.5-30.7,19.3-35c14.8-4.3,30.3,4.5,34.4,19.5
			C154.3,62.9,145.7,78.6,130.9,82.9L130.9,82.9z"/>
		
			<ellipse transform="matrix(5.862309e-02 -0.9983 0.9983 5.862309e-02 9.823 146.447)" class="st1" cx="82.6" cy="68" rx="6.8" ry="6.7"/>
		
			<ellipse transform="matrix(5.863318e-02 -0.9983 0.9983 5.863318e-02 110.6316 206.1399)" class="st1" cx="164.6" cy="44.4" rx="6.8" ry="6.7"/>
		<g>
			<path id="_409266824_45_" class="st0" d="M126.8,68.3c-6.6,1.9-11.5-6.3-7.9-7.3c0.9-0.3,1.9,0.3,2.1,1.2c1.4,5,8.9,2.8,7.5-2.1
				c-1.8-6.4-11.1,1.9-13.9-7.8c-2.6-9.4,11.5-13.5,14.1-4.1c0.6,2.2-2.7,3.2-3.3,1c-1.4-5-8.9-2.8-7.5,2.1
				c1.8,6.4,11.1-1.9,13.9,7.8C133,63,130.7,67.2,126.8,68.3L126.8,68.3z"/>
			<path id="_409267328_45_" class="st0" d="M120.7,46.4c-2.1,0.6-2.4-2.2-2.9-4.1c-0.6-2.2,2.7-3.2,3.3-1
				C121.6,43.2,122.8,45.8,120.7,46.4z"/>
			<path id="_409266872_45_" class="st0" d="M127.6,71.2c-2.1,0.6-2.4-2.2-2.9-4.1c-0.6-2.2,2.7-3.2,3.3-1
				C128.5,68.1,129.7,70.6,127.6,71.2z"/>
		</g>
	</g>
	<g>
		<path id="_409268072_43_" class="st0" d="M217.1,57.1c5.9-2.1,13.4-4.2,19.8-5.2c0.7-0.1,1.5,0.4,1.8,1.2l17.1,49.5
			c0.9,2.6-2.7,2.5-5.6,3.2c-12.9,2.9-25.9,8.3-38.3,14.7c-15.6,8.1-35.5,16.1-53.3,21.3c-0.8,0.2-1.6-0.3-1.9-1.2l-17.1-49.6
			c-0.3-0.9,0.1-1.9,0.9-2.2c18.1-5.3,38.1-13.3,54.4-21.8C202.6,62.9,210.1,59.6,217.1,57.1L217.1,57.1z"/>
		<path id="_409267760_86_" class="st1" d="M175.1,133.9c-6.8,2.4-13.1,4.4-18.4,5.8l-16.9-48.9c5.4-1.5,11.8-3.5,18.5-5.9
			c12.6-4.5,25.8-10,36.3-15.2c7.3-3.6,14.4-6.6,21.1-9c12-4.3,19.8-5.4,22.8-5.7l16.9,48.8c-7,0.7-15.8,3.5-22.3,5.8
			c-7.4,2.6-15.2,5.9-22,9.3C200.6,123.9,187.6,129.4,175.1,133.9 M176.2,137.2c12.2-4.3,25.5-9.9,36.3-15.2
			c6.6-3.3,14.3-6.5,21.7-9.2c9.3-3.3,18.2-5.6,24.1-5.8c0.2,0,0.3,0,0.4-0.1c0.7-0.2,1.1-1,0.9-1.8l-18.3-52.9
			c-0.2-0.6-0.7-0.9-1.3-0.9c-0.4,0-9.2,0.2-25.4,6v0c-6.9,2.4-14.1,5.5-21.5,9.2c-10.8,5.3-23.8,10.8-35.9,15.1
			c-7.5,2.7-14.5,4.9-20.4,6.4c0,0-0.1,0-0.1,0c-0.7,0.3-1.1,1.1-0.9,1.8l18.3,52.9c0.2,0.7,1,1.1,1.7,0.9
			C161.5,142.1,168.7,139.8,176.2,137.2L176.2,137.2z M214.5,57.3L214.5,57.3C214.5,57.3,214.5,57.3,214.5,57.3L214.5,57.3z"/>
		<path id="_409267760_85_" class="st2" d="M174.2,137.1c-7.2,2.5-13.8,4.6-19.4,6.1l-18.7-54c5.7-1.5,12.4-3.6,19.5-6.2
			c13.2-4.7,27.2-10.6,38.2-16.1c7.6-3.8,15.1-7.1,22.2-9.6c12.6-4.5,20.9-5.6,24.1-5.9l18.6,53.8c-7.4,0.7-16.7,3.6-23.5,6
			c-7.8,2.8-16,6.3-23.2,9.9C201.2,126.6,187.4,132.4,174.2,137.1 M175.5,140.7c12.9-4.6,26.9-10.4,38.2-16.1c7-3.5,15-7,22.8-9.7
			c9.8-3.5,19.2-5.9,25.4-5.9c0.2,0,0.3,0,0.5-0.1c0.7-0.3,1.2-1.1,0.9-2l-20.2-58.4c-0.2-0.6-0.8-1-1.4-1c-0.4,0-9.7,0.1-26.8,6.2
			l0,0c-7.2,2.6-14.8,5.9-22.6,9.8c-11.3,5.7-25.1,11.4-37.8,16c-7.9,2.8-15.3,5.1-21.5,6.7c0,0-0.1,0-0.1,0c-0.8,0.3-1.2,1.1-0.9,2
			l20.2,58.4c0.3,0.8,1,1.2,1.8,1C160,145.9,167.5,143.5,175.5,140.7L175.5,140.7z M214.8,53.6L214.8,53.6
			C214.8,53.6,214.8,53.6,214.8,53.6L214.8,53.6z"/>
		<g>
			<path id="_409267496_43_" class="st3" d="M165.9,137.2c-2.8,0.9-5.5,1.8-8.2,2.6c-0.7,0.2-1.3-0.2-1.6-0.8l-2.8-8.1
				C159.7,128.9,165,133.9,165.9,137.2L165.9,137.2z"/>
			<path id="_409268120_43_" class="st3" d="M142.4,99.2l-2.8-8.2c-0.2-0.7,0.1-1.5,0.9-1.7c2.7-0.8,5.4-1.7,8.2-2.6
				C149.8,89.7,148.4,96.7,142.4,99.2L142.4,99.2z"/>
			<path id="_409267040_43_" class="st3" d="M229.6,55.5c2.7-0.8,5.5-1.4,8-1.9c0.6-0.1,1.1,0.2,1.3,0.8l2.7,7.8
				C238.5,63.4,231.4,62,229.6,55.5L229.6,55.5z"/>
			<path id="_409266752_43_" class="st3" d="M252.7,94.5l2.8,8c0.7,1.9-2.3,1.9-4.7,2.5c-1.4,0.3-2.8,0.7-4.2,1.1
				C245.5,101.3,248.1,96.4,252.7,94.5L252.7,94.5z"/>
		</g>
		<path id="_409266968_43_" class="st3" d="M188.9,73.1c12.6-4.5,26.5,2.3,30.9,15.1s-2.2,26.9-14.9,31.4
			c-12.6,4.5-26.5-2.3-30.9-15.1C169.6,91.7,176.3,77.6,188.9,73.1L188.9,73.1z"/>
		<ellipse transform="matrix(1 -2.801115e-03 2.801115e-03 1 -0.2328 0.649)" class="st1" cx="231.6" cy="83.4" rx="5.8" ry="5.9"/>
		
			<ellipse transform="matrix(1 -2.791002e-03 2.791002e-03 1 -0.3016 0.4517)" class="st1" cx="161.7" cy="108.3" rx="5.8" ry="5.9"/>
		<g>
			<path id="_409266824_44_" class="st0" d="M193.2,85.6c5.6-2,10.3,4.8,7.2,5.9c-0.8,0.3-1.6-0.1-1.9-0.9c-1.5-4.3-7.8-2-6.4,2.3
				c1.9,5.5,9.6-2.3,12.4,6.1c2.8,8-9.3,12.3-12,4.3c-0.7-1.9,2.2-2.9,2.8-1c1.5,4.3,7.8,2,6.4-2.3c-1.9-5.5-9.6,2.3-12.4-6.1
				C188.1,90.4,189.9,86.7,193.2,85.6L193.2,85.6z"/>
			<path id="_409267328_44_" class="st0" d="M199.7,104.2c1.8-0.6,2.2,1.8,2.8,3.4c0.7,1.9-2.2,2.9-2.8,1
				C199,107,197.8,104.9,199.7,104.2z"/>
			<path id="_409266872_44_" class="st0" d="M192.3,83.1c1.8-0.6,2.2,1.8,2.8,3.4c0.7,1.9-2.2,2.9-2.8,1
				C191.7,85.8,190.5,83.7,192.3,83.1z"/>
		</g>
	</g>
</g>
</svg>
