<?xml version="1.0" encoding="utf-8"?>
<!-- Generator: Adobe Illustrator 25.0.0, SVG Export Plug-In . SVG Version: 6.00 Build 0)  -->
<svg version="1.1" id="Layer_1" xmlns="http://www.w3.org/2000/svg" xmlns:xlink="http://www.w3.org/1999/xlink" x="0px" y="0px"
	 viewBox="0 0 158 150" style="enable-background:new 0 0 158 150;" xml:space="preserve">
<style type="text/css">
	.st0{fill:#FEE45A;}
	.st1{fill:#FFD655;}
	.st2{fill:#35414D;}
	.st3{fill:#FFE5C2;}
	.st4{fill:#E5CEB1;}
	.st5{fill:#00C2FB;}
	.st6{fill:#9BE8FD;}
	.st7{fill:#62DDFC;}
	.st8{fill:#00ABF2;}
	.st9{fill:#E1AAD4;}
	.st10{fill:#D693C8;}
	.st11{fill:#8EBAC5;}
	.st12{fill:#7CA1B1;}
</style>
<g>
	<g>
		<g>
			<circle class="st0" cx="123.2" cy="64.1" r="18.6"/>
		</g>
		<g>
			<path class="st1" d="M123.2,45.5c-1.3,0-2.6,0.1-3.8,0.4c8.4,1.8,14.8,9.3,14.8,18.2s-6.3,16.4-14.8,18.2
				c1.2,0.3,2.5,0.4,3.8,0.4c10.3,0,18.6-8.3,18.6-18.6S133.5,45.5,123.2,45.5z"/>
		</g>
		<g>
			<path class="st2" d="M123.2,84.7c-11.4,0-20.6-9.2-20.6-20.6c0-9.4,6.3-17.6,15.4-19.9c1.1-0.3,2.1,0.4,2.4,1.4
				c0.3,1.1-0.4,2.1-1.4,2.4c-7.3,1.9-12.5,8.5-12.5,16.1c0,9.2,7.5,16.6,16.6,16.6s16.6-7.5,16.6-16.6c0-7.6-5.2-14.3-12.5-16.1
				c-1.1-0.3-1.7-1.3-1.4-2.4c0.3-1.1,1.3-1.7,2.4-1.4c9.1,2.3,15.5,10.5,15.5,20C143.8,75.4,134.6,84.7,123.2,84.7z"/>
		</g>
		<g>
			<g>
				<path class="st2" d="M123.2,73.5c-1.9,0-3.1-0.2-4.9-1.4c-0.9-0.6-1.2-1.8-0.6-2.7c0.6-0.9,1.8-1.2,2.7-0.6
					c1.1,0.7,1.4,0.8,2.9,0.7c1.3,0,2-1,2.2-1.8c0.1-0.6,0-1.5-1.2-1.9c-1.8-0.6-3.6-1.3-4.8-2.3c-1.3-1-1.9-2.8-1.6-4.6
					c0.4-2,1.8-3.5,3.6-4.1c2.9-0.9,5.3,0.4,6.2,1.2c0.8,0.7,0.9,2,0.1,2.8c-0.7,0.8-2,0.9-2.8,0.1c-0.1-0.1-1-0.8-2.4-0.4
					c-0.7,0.2-0.8,0.9-0.9,1.1c-0.1,0.4,0,0.7,0.1,0.8c0.8,0.6,2.3,1.2,3.7,1.7c2.7,1,4.2,3.5,3.7,6.3c-0.4,2.5-2.6,5.1-6,5.1
					C123.3,73.5,123.3,73.5,123.2,73.5z"/>
			</g>
			<g>
				<path class="st2" d="M123.4,75.7c-1.1,0-2-0.9-2-2v-2.2c0-1.1,0.9-2,2-2s2,0.9,2,2v2.2C125.4,74.8,124.5,75.7,123.4,75.7z"/>
			</g>
			<g>
				<path class="st2" d="M123.4,58.4c-1.1,0-2-0.9-2-2v-2c0-1.1,0.9-2,2-2s2,0.9,2,2v2C125.4,57.5,124.5,58.4,123.4,58.4z"/>
			</g>
		</g>
	</g>
	<g>
		<path class="st3" d="M155.1,101.6c-3.7-7.6-12.1-4-12.8-3.8L107,108.2c-0.2,0.1-0.3-0.1-0.3-0.3c0.4-1.6,1.3-7.2-5.1-9.7
			c-20.5-8.2-23-9.6-28.2-9.7l0,0c-11.3,0-16.1,0.1-20.7,1.4l0,0l-4.8,3.4l-4,7L43,118.2l9.7,9.5l3.2,1.4c6.3-1.5,12.7-1.3,17.9,0.8
			l13.2,5.3c2.9,1,9.5,2.6,16.5-1c0,0,0,0,0,0c0.6-0.3,6.5-2.9,13.8-6.1l9.1-4c11.2-4.9,22.4-9.9,23.3-10.3
			C151.2,113,158.3,108.7,155.1,101.6z"/>
	</g>
	<g>
		<g>
			<path class="st4" d="M44.9,108.2c0-7.2,3-13.7,7.9-18.3c-1.9,0.5-3.9,1.3-6.2,2.4c-4.2,1.9-8.1,4.1-11.9,6.7
				c-2.4,1.7-5.1,3-8,3.8l-9.8,2.7c-1.1,0.3-1.9,1.3-1.9,2.5v32.4c0,1.8,1.8,3.1,3.5,2.4L52.4,130c1.2-0.4,2.3-0.7,3.5-1
				C49.2,124.5,44.9,116.9,44.9,108.2z"/>
		</g>
	</g>
	<g>
		<g>
			<path class="st5" d="M63.6,29.5l-1.5-1.3c-3,0-5.5,0-6.3,0c-2.1,0-4,1.1-5.2,2.8l-8.3,12.7l1.8,0.9h19.4L63.6,29.5L63.6,29.5z"/>
		</g>
		<g>
			<path class="st6" d="M84.4,31c-1.1-1.8-3.1-2.8-5.2-2.8c-0.8,0-3.2,0-6.3,0l-0.6,1.1v15.3h16.9l3.5-0.9L84.4,31z"/>
		</g>
		<g>
			<path class="st7" d="M72.9,28.2c-3.4,0-7.5,0-10.8,0l-4.8,15.5l1.9,1.4h16.5l1.9-1.4L72.9,28.2z"/>
		</g>
		<g>
			<path class="st7" d="M77.7,43.7l-1.4,1.4L70,69.2l0.9,2.3l21.8-27.8C92.3,43.7,85.8,43.7,77.7,43.7z"/>
		</g>
		<g>
			<path class="st8" d="M64.1,71.5l0.4-2l-5.9-24.1l-1.3-1.7c-8.1,0-14.6,0-15,0L64.1,71.5L64.1,71.5z"/>
		</g>
		<g>
			<path class="st5" d="M64.3,71.7c1.6,2.1,4.8,2.1,6.4,0l0.2-0.2l6.8-27.8c-6.4,0-13.9,0-20.3,0l6.8,27.8L64.3,71.7z"/>
		</g>
	</g>
	<g>
		<path class="st9" d="M155.3,8.5L152.7,8l-10.1,1.9v3.8l5.9,5.9c1.7,1.7,4.7,0.8,5.1-1.6L155.3,8.5L155.3,8.5z"/>
	</g>
	<g>
		<path class="st10" d="M145.2,10.4l10.2-1.9l0.5-2.8c0.4-2.1-1.4-3.9-3.5-3.5L140,4.5c-2.4,0.4-3.3,3.4-1.6,5.1l4.3,4.3
			C142.5,12.4,143.4,10.7,145.2,10.4z"/>
	</g>
	<g>
		<path class="st2" d="M100.6,115.3c-0.8,0-1.6-0.1-2.4-0.3c-6.2-1.5-20.7-5-20.7-5l1-4.1c0,0,14.6,3.5,20.7,5
			c3.9,1,5.2-2.4,5.4-3.1c0.3-1.1,1.5-1.7,2.7-1.4c1.1,0.3,1.8,1.5,1.4,2.6C107.9,111.4,105.4,115.3,100.6,115.3z"/>
	</g>
	<g>
		<path class="st2" d="M100.6,115.3c-0.8,0-1.6-0.1-2.4-0.3c-6.2-1.5-20.7-5-20.7-5l1-4.1c0,0,14.6,3.5,20.7,5
			c3.9,1,5.2-2.4,5.4-3.1c0.3-1.1,1.5-1.7,2.7-1.4c1.1,0.3,1.8,1.5,1.4,2.6C107.9,111.4,105.4,115.3,100.6,115.3z"/>
	</g>
	<g>
		<path class="st2" d="M92.7,45.8H42.4c-0.8,0-1.5-0.4-1.9-1.1c-0.4-0.7-0.3-1.5,0.1-2.2l8.3-12.7c1.5-2.4,4.1-3.8,7-3.8h23.4
			c2.8,0,5.4,1.4,7,3.8l0,0l8.3,12.7c0.4,0.7,0.5,1.5,0.1,2.2C94.2,45.4,93.4,45.8,92.7,45.8z M46.3,41.6h42.5l-6.1-9.4
			c-0.8-1.2-2-1.8-3.4-1.8H55.8c-1.4,0-2.7,0.7-3.4,1.8L46.3,41.6z"/>
	</g>
	<g>
		<path class="st2" d="M67.5,75.4c-1.9,0-3.7-0.9-4.9-2.4L40.7,45c-0.5-0.6-0.6-1.5-0.2-2.2c0.4-0.7,1.1-1.2,1.9-1.2h50.3
			c0.8,0,1.6,0.5,1.9,1.2c0.4,0.7,0.3,1.6-0.2,2.2L72.4,73C71.2,74.5,69.4,75.4,67.5,75.4z M46.7,45.8L66,70.4
			c0.7,0.9,2.3,0.9,3.1,0l19.3-24.6H46.7z"/>
	</g>
	<g>
		<path class="st2" d="M67.5,75.4c-1.9,0-3.7-0.9-4.9-2.4l-0.2-0.2c-0.2-0.2-0.3-0.5-0.4-0.8l-6.8-27.8c-0.2-0.6,0-1.3,0.4-1.8
			c0.4-0.5,1-0.8,1.7-0.8h20.3c0.7,0,1.3,0.3,1.7,0.8c0.4,0.5,0.5,1.2,0.4,1.8L72.9,72c-0.1,0.3-0.2,0.6-0.4,0.8L72.4,73
			C71.2,74.5,69.4,75.4,67.5,75.4z M66.1,70.5c0.7,0.8,2.1,0.8,2.8,0L75,45.8H60L66.1,70.5z"/>
	</g>
	<g>
		<path class="st2" d="M77.7,45.8H57.3c-0.7,0-1.3-0.3-1.7-0.9c-0.4-0.5-0.5-1.2-0.3-1.9l4.8-15.5c0.3-0.9,1.1-1.5,2-1.5h10.8
			c0.9,0,1.8,0.6,2,1.5l4.8,15.5c0.2,0.6,0.1,1.3-0.3,1.9C79,45.5,78.4,45.8,77.7,45.8z M60.2,41.6h14.6l-3.5-11.3h-7.7L60.2,41.6z"
			/>
	</g>
	<g>
		<path class="st2" d="M150.6,22.6c-1.3,0-2.7-0.5-3.6-1.5l-10.1-10.1c-1.4-1.4-1.8-3.3-1.3-5.2s2.1-3.2,4-3.5L152,0.1
			c1.7-0.3,3.4,0.2,4.6,1.4c1.2,1.2,1.7,2.9,1.4,4.6l-2.3,12.3l0,0c-0.3,1.9-1.7,3.4-3.5,4C151.6,22.6,151.1,22.6,150.6,22.6z
			 M152.9,4.3c-0.1,0-0.1,0-0.2,0l-12.3,2.3c-0.5,0.1-0.6,0.4-0.7,0.6c-0.1,0.2-0.1,0.6,0.2,0.9L150,18.1c0.3,0.3,0.7,0.3,0.9,0.2
			c0.2-0.1,0.5-0.2,0.6-0.7l2.3-12.3c0.1-0.4-0.1-0.7-0.2-0.8C153.4,4.4,153.2,4.3,152.9,4.3z M153.6,18L153.6,18L153.6,18z"/>
	</g>
	<g>
		<path class="st2" d="M98.8,32.3c-0.5,0-1.1-0.2-1.5-0.6c-0.8-0.8-0.8-2.2,0-3l16.2-16.2c0.8-0.8,2.2-0.8,3,0l13,13l11.6-11.6
			c0.8-0.8,2.2-0.8,3,0c0.8,0.8,0.8,2.2,0,3L131.1,30c-0.8,0.8-2.2,0.8-3,0l-13-13l-14.7,14.7C99.9,32.1,99.4,32.3,98.8,32.3z"/>
	</g>
	<g>
		<path class="st2" d="M17.6,145.2c-0.9,0-1.9-0.3-2.7-0.8c-1.3-0.9-2-2.3-2-3.9V108c0-2.1,1.4-4,3.5-4.5l9.8-2.7
			c2.6-0.7,5.1-1.9,7.3-3.5c3.8-2.7,8-5,12.2-6.9c8.4-3.8,11.7-3.9,27.8-3.9c4.2,0.1,6.8,0.9,15.4,4.4c1.1,0.4,1.6,1.7,1.2,2.8
			c-0.4,1.1-1.7,1.6-2.8,1.2c-8.6-3.4-10.5-4-13.8-4.1c-15.6,0.1-18.4,0.2-26.1,3.6c-4,1.8-7.9,4-11.5,6.5c-2.7,1.9-5.6,3.3-8.7,4.1
			l-9.8,2.7c-0.2,0.1-0.3,0.2-0.3,0.4v32.4c0,0.2,0.1,0.3,0.2,0.4c0.1,0.1,0.2,0.1,0.4,0.1L51.6,128c0,0,0.1,0,0.1,0
			c8.2-2.7,16.4-2.7,22.9-0.1l13.2,5.3c2.4,0.8,8.5,2.3,14.7-0.9c0,0,0,0,0,0c0,0,0.1,0,0.1,0c0.6-0.3,6.5-2.9,13.8-6.1l32.4-14.3
			c1.3-0.7,6.7-3.9,4.3-9.3c-2.3-4.8-7.2-3.7-10-2.7l-0.1,0c0,0-0.1,0-0.1,0l-35.7,10.6c-0.8,0.2-1.6,0-2.1-0.6
			c-0.6-0.6-0.7-1.4-0.5-2.2c0.3-0.9,1.5-5.4-3.7-7.5c-1.6-0.6-3-1.2-4.4-1.8c-1.1-0.4-1.6-1.7-1.2-2.8c0.4-1.1,1.7-1.6,2.8-1.2
			c1.4,0.5,2.8,1.1,4.4,1.8c5.1,2,6.6,5.9,6.7,9.2l32.5-9.6c6.9-2.7,12.7-0.9,15.4,4.9c3.3,7.6-2.4,12.9-6.2,14.9c0,0-0.1,0-0.1,0.1
			L118.3,130c-7.2,3.2-12.9,5.7-13.8,6.1c-7.7,3.9-15.2,2.1-18.1,1.1c0,0-0.1,0-0.1,0l-13.3-5.3c-5.5-2.2-12.8-2.1-20,0.2
			l-33.8,12.9C18.7,145.1,18.1,145.2,17.6,145.2z"/>
	</g>
	<g>
		<g>
			<path class="st11" d="M34.6,143.7l-18.2,4.2c-2.4,0.6-4.8-0.9-5.4-3.4l-9-38.9c-0.6-2.4,0.9-4.8,3.4-5.4l18.2-4.2
				c2.4-0.6,4.8,0.9,5.4,3.4l9,38.9C38.5,140.8,37,143.2,34.6,143.7z"/>
		</g>
		<g>
			<path class="st12" d="M34.6,143.7l-18.2,4.2c-2.4,0.6-4.8-0.9-5.4-3.4l-1-4.4l13.7-3.1c2.4-0.6,3.9-3,3.4-5.4L19,97.1l4.6-1.1
				c2.4-0.6,4.8,0.9,5.4,3.4l9,38.9C38.5,140.8,37,143.2,34.6,143.7z"/>
		</g>
		<g>
			<path class="st2" d="M15.4,150c-2.9,0-5.6-2-6.3-5l-9-38.9c-0.4-1.7-0.1-3.4,0.8-4.9c0.9-1.5,2.3-2.5,4-2.9l18.2-4.2
				c3.5-0.8,6.9,1.4,7.7,4.8l9,38.9c0.4,1.7,0.1,3.4-0.8,4.9c-0.9,1.5-2.3,2.5-4,2.9l-18.2,4.2C16.4,149.9,15.9,150,15.4,150z
				 M24.6,97.9c-0.2,0-0.4,0-0.6,0.1l-18.2,4.2c-0.7,0.1-1.2,0.5-1.6,1.1c-0.4,0.6-0.5,1.2-0.3,1.9l9,38.9c0.1,0.7,0.5,1.2,1.1,1.6
				c0.6,0.4,1.2,0.5,1.9,0.3l18.2-4.2l0,0c0.7-0.1,1.2-0.5,1.6-1.1c0.4-0.6,0.5-1.2,0.3-1.9l-9-38.9C26.8,98.7,25.8,97.9,24.6,97.9z
				"/>
		</g>
	</g>
</g>
</svg>
