<?xml version="1.0" encoding="utf-8"?>
<!-- Generator: Adobe Illustrator 25.0.0, SVG Export Plug-In . SVG Version: 6.00 Build 0)  -->
<svg version="1.1" id="Layer_1" xmlns="http://www.w3.org/2000/svg" xmlns:xlink="http://www.w3.org/1999/xlink" x="0px" y="0px"
	 viewBox="0 0 174.6 150" style="enable-background:new 0 0 174.6 150;" xml:space="preserve">
<style type="text/css">
	.st0{fill:#FFE5C2;}
	.st1{fill:#FFBD86;}
	.st2{fill:#F6A96C;}
	.st3{fill:#FED2A4;}
	.st4{fill:#8EBAC5;}
	.st5{fill:#7CA1B1;}
	.st6{fill:#CB97E7;}
	.st7{fill:#BD80E1;}
	.st8{fill:#FEE45A;}
	.st9{fill:#FFD655;}
	.st10{fill:#35414D;}
</style>
<g>
	<g>
		<g>
			<polygon class="st0" points="116.9,125.9 159.4,104.5 134.4,59.1 102.9,75.6 88.2,87.7 			"/>
		</g>
		<g>
			<path class="st1" d="M121.3,114.5l-4.3-1.7c3.1,1.1,6.5-0.5,7.7-3.6c1.2-3.1-0.4-6.7-3.5-7.9L93.7,90.9l0,0l-8.5-3.3l0,0
				l-2.9-6.1c-1.7-3.6-3.9-5.7-9.5-7.4L36.9,63.6l-5.5,46.5L54.3,128l22,8.4l26.8,10.3c3.1,1.2,6.7-0.4,7.9-3.5l0,0
				c1.2-3.1-0.4-6.7-3.5-7.9l-23.7-9.1l0,0l28.8,11c3.1,1.2,6.7-0.4,7.9-3.5c1.2-3.1-0.4-6.7-3.5-7.9c3.1,1.2,6.7-0.4,7.9-3.5l0,0
				C126,119.2,124.4,115.7,121.3,114.5z"/>
		</g>
		<g>
			<path class="st0" d="M119.8,75.6H92.6c-6,0-11.2,4-12.8,9.8l-3.4,12.5c-1,3.7,1.2,7.4,4.9,8.4l0,0c3.4,0.9,6.9-0.9,8.1-4.2
				l4.3-11.2l6.4,2.5c6.2,2.4,13.2-0.7,15.5-6.9L119.8,75.6z"/>
		</g>
		<g>
			<g>
				<path class="st2" d="M107.5,135.3L80.7,125l-1,2.6l19.9,7.6c3.1,1.2,4.7,4.7,3.5,7.9l0,0c-0.4,1.1-1.2,2-2.1,2.7l2.1,0.8
					c3.1,1.2,6.7-0.4,7.9-3.5l0,0C112.2,140,110.6,136.5,107.5,135.3z"/>
			</g>
			<g>
				<path class="st2" d="M116.9,125.9L85,113.7l0,0c-0.6,1.5,0.2,3.1,1.6,3.6l22.4,8.6c3.1,1.2,4.7,4.7,3.5,7.9
					c-0.4,1.1-1.2,2-2.1,2.7l2.1,0.8c3.1,1.2,6.7-0.4,7.9-3.5C121.6,130.6,120.1,127.1,116.9,125.9z"/>
			</g>
			<g>
				<path class="st2" d="M121.3,114.5l-31.9-12.2l0,0c-0.6,1.5,0.2,3.1,1.6,3.6l22.4,8.6c3.1,1.2,4.7,4.7,3.5,7.9l0,0
					c-0.4,1.1-1.2,2-2.1,2.7l2.1,0.8c3.1,1.2,6.7-0.4,7.9-3.5l0,0C126,119.2,124.4,115.7,121.3,114.5z"/>
			</g>
			<g>
				<path class="st2" d="M121.1,101.4L93.7,90.9l0,0c-0.6,1.5,0.2,3.1,1.6,3.6l17.9,6.8c3.1,1.2,4.7,4.7,3.5,7.9
					c-0.4,1.1-1.2,2-2.1,2.7l2.1,0.8c3.1,1.2,6.7-0.4,7.9-3.5C125.8,106.1,124.2,102.6,121.1,101.4z"/>
			</g>
		</g>
		<g>
			<g>
				<path class="st0" d="M90.7,146.9L90.7,146.9c3.1,1.4,6.7,0,8-3.1l3-6.4c1.4-3.1,0-6.7-3.1-8l0,0c-3.1-1.4-6.7,0-8,3.1l-3,6.4
					C86.3,141.9,87.6,145.5,90.7,146.9z"/>
			</g>
			<g>
				<path class="st0" d="M77.4,146.9L77.4,146.9c3.1,1.4,6.7,0,8-3.1l5.2-11.4c1.4-3.1,0-6.7-3.1-8l0,0c-3.1-1.4-6.7,0-8,3.1
					l-5.2,11.4C72.9,141.9,74.3,145.5,77.4,146.9z"/>
			</g>
			<g>
				<path class="st0" d="M66.2,141.9L66.2,141.9c3.1,1.4,6.7,0,8-3.1l5.2-11.4c1.4-3.1,0-6.7-3.1-8l0,0c-3.1-1.4-6.7,0-8,3.1
					l-5.2,11.4C61.8,137,63.2,140.6,66.2,141.9z"/>
			</g>
			<g>
				<path class="st0" d="M57.1,132.5L57.1,132.5c3.1,1.4,6.7,0,8-3.1l3.3-7c1.4-3.1,0-6.7-3.1-8l0,0c-3.1-1.4-6.7,0-8,3.1l-3.3,7
					C52.7,127.6,54,131.2,57.1,132.5z"/>
			</g>
		</g>
		<g>
			<g>
				<path class="st3" d="M98.7,129.4c-2-0.9-4.2-0.6-5.9,0.5c2.4,1.6,3.4,4.8,2.2,7.5l-3,6.4c-0.5,1.1-1.3,2-2.2,2.6
					c0.3,0.2,0.6,0.4,0.9,0.5c3.1,1.4,6.7,0,8-3.1l3-6.4C103.1,134.3,101.8,130.7,98.7,129.4z"/>
			</g>
			<g>
				<path class="st3" d="M87.6,124.4c-2-0.9-4.2-0.6-5.9,0.5c2.4,1.6,3.4,4.8,2.2,7.5l-5.2,11.4c-0.5,1.1-1.3,2-2.2,2.6
					c0.3,0.2,0.6,0.4,0.9,0.5l0,0c3.1,1.4,6.7,0,8-3.1l5.2-11.4C92,129.4,90.6,125.8,87.6,124.4z"/>
			</g>
			<g>
				<path class="st3" d="M76.5,119.4c-2-0.9-4.2-0.6-5.9,0.5c2.4,1.6,3.4,4.8,2.2,7.5l-5.2,11.4c-0.5,1.1-1.3,2-2.2,2.6
					c0.3,0.2,0.6,0.4,0.9,0.5l0,0c3.1,1.4,6.7,0,8-3.1l5.2-11.4C80.9,124.4,79.5,120.8,76.5,119.4z"/>
			</g>
			<g>
				<path class="st3" d="M65.3,114.5c-2-0.9-4.2-0.6-5.9,0.5c2.4,1.6,3.4,4.8,2.2,7.5l-3.3,7c-0.5,1.1-1.3,2-2.2,2.6
					c0.3,0.2,0.6,0.4,0.9,0.5l0,0c3.1,1.4,6.7,0,8-3.1l3.3-7C69.8,119.4,68.4,115.8,65.3,114.5z"/>
			</g>
		</g>
		<g>
			<path class="st4" d="M169,105.4l-21.2,11.7c-2.8,1.5-6.3,0.5-7.9-2.3l-25-45.3c-1.5-2.8-0.5-6.3,2.3-7.9l21.2-11.7
				c2.8-1.5,6.3-0.5,7.9,2.3l25,45.3C172.8,100.3,171.8,103.8,169,105.4z"/>
		</g>
		<g>
			<path class="st5" d="M169,105.4l-21.2,11.7c-2.8,1.6-6.3,0.5-7.9-2.3l-2.8-5.1l15.9-8.7c2.8-1.5,3.8-5.1,2.3-7.9L133,52.9l5.4-3
				c2.8-1.5,6.3-0.5,7.9,2.3l25,45.3C172.8,100.3,171.8,103.8,169,105.4z"/>
		</g>
		<g>
			<path class="st6" d="M5.6,105.4l21.2,11.7c2.8,1.5,6.3,0.5,7.9-2.3l25-45.3c1.5-2.8,0.5-6.3-2.3-7.9L36.2,49.9
				c-2.8-1.5-6.3-0.5-7.9,2.3l-25,45.3C1.7,100.3,2.7,103.8,5.6,105.4z"/>
		</g>
		<g>
			<path class="st7" d="M59.7,69.5l-25,45.3c-1.5,2.8-5.1,3.8-7.9,2.3l-5.4-3L44,73c1.5-2.8,0.5-6.3-2.3-7.9l-15.8-8.6l2.4-4.3
				c1.5-2.8,5.1-3.8,7.9-2.3l21.2,11.7C60.2,63.1,61.2,66.7,59.7,69.5z"/>
		</g>
		<g>
			<circle class="st8" cx="89.2" cy="25.9" r="24.1"/>
		</g>
		<g>
			<path class="st9" d="M89.2,1.8c-1.7,0-3.4,0.2-5,0.5c10.9,2.3,19.1,12,19.1,23.6s-8.2,21.3-19.1,23.6c1.6,0.3,3.3,0.5,5,0.5
				c13.3,0,24.1-10.8,24.1-24.1C113.3,12.6,102.5,1.8,89.2,1.8z"/>
		</g>
	</g>
	<g>
		<g>
			<path class="st10" d="M53.5,130c-0.6,0-1.1-0.2-1.6-0.5l-18-14.2c-1.1-0.9-1.3-2.5-0.4-3.6c0.9-1.1,2.5-1.3,3.6-0.4l18,14.2
				c1.1,0.9,1.3,2.5,0.4,3.6C55,129.6,54.3,130,53.5,130z"/>
		</g>
		<g>
			<path class="st10" d="M102.9,78.2c-0.9,0-1.8-0.5-2.3-1.4c-0.7-1.3-0.2-2.8,1.1-3.5l11.9-6.2c1.3-0.7,2.8-0.2,3.5,1.1
				c0.7,1.3,0.2,2.8-1.1,3.5l-11.9,6.2C103.7,78.1,103.3,78.2,102.9,78.2z"/>
		</g>
		<g>
			<path class="st10" d="M82,83.5c-0.9,0-1.8-0.5-2.3-1.4c-1.3-2.6-2.9-4.1-7.7-5.6l-13.4-4c-1.4-0.4-2.1-1.8-1.7-3.2
				c0.4-1.4,1.8-2.1,3.2-1.7l13.4,4c5.6,1.7,8.7,4,10.8,8.1c0.6,1.3,0.2,2.8-1.1,3.4C82.8,83.4,82.4,83.5,82,83.5z"/>
		</g>
		<g>
			<g>
				<path class="st10" d="M93.2,150c-1.2,0-2.4-0.2-3.5-0.8c0,0,0,0,0,0c-4.4-1.9-6.3-7.1-4.4-11.4l3-6.5c1.9-4.3,7-6.3,11.4-4.3
					c4.4,1.9,6.3,7.1,4.4,11.4l-3,6.5C99.6,148.1,96.5,150,93.2,150z M91.7,144.6c1.8,0.8,3.9,0,4.7-1.8l3-6.5
					c0.8-1.7,0-3.8-1.8-4.6c-1.8-0.8-3.9,0-4.7,1.8l-3,6.5C89.2,141.7,90,143.8,91.7,144.6L91.7,144.6z"/>
			</g>
			<g>
				<path class="st10" d="M79.8,150c-1.2,0-2.4-0.3-3.5-0.8c-2.1-0.9-3.7-2.6-4.5-4.8c-0.8-2.2-0.8-4.5,0.2-6.6l5.3-11.4
					c1.9-4.3,7.1-6.3,11.4-4.3c4.4,1.9,6.3,7.1,4.4,11.4l-5.3,11.4c-0.9,2.1-2.6,3.7-4.8,4.5C81.9,149.8,80.9,150,79.8,150z
					 M85.1,126.4c-1.4,0-2.6,0.8-3.2,2.1l-5.3,11.4c-0.4,0.8-0.4,1.8-0.1,2.7c0.3,0.9,1,1.6,1.9,2l0,0c0.9,0.4,1.8,0.4,2.7,0.1
					c0.9-0.3,1.6-1,2-1.9l5.3-11.4c0.8-1.8,0-3.8-1.8-4.6C86.1,126.5,85.6,126.4,85.1,126.4z"/>
			</g>
			<g>
				<path class="st10" d="M68.7,145c-1.2,0-2.4-0.2-3.5-0.8c0,0,0,0,0,0c-4.4-1.9-6.3-7.1-4.4-11.4l5.3-11.4
					c0.9-2.1,2.6-3.7,4.8-4.5c2.2-0.8,4.5-0.8,6.6,0.2c2.1,0.9,3.7,2.6,4.5,4.8c0.8,2.2,0.8,4.5-0.2,6.6l-5.3,11.4
					C75.2,143.1,72,145,68.7,145z M67.3,139.6c1.8,0.8,3.9,0,4.7-1.8l5.3-11.4c0.4-0.8,0.4-1.8,0.1-2.7c-0.3-0.9-1-1.6-1.9-2
					c-0.9-0.4-1.8-0.4-2.7-0.1c-0.9,0.3-1.6,1-2,1.9L65.5,135C64.7,136.7,65.5,138.8,67.3,139.6L67.3,139.6z"/>
			</g>
			<g>
				<path class="st10" d="M59.6,135.6c-1.2,0-2.4-0.2-3.5-0.8c0,0,0,0,0,0c-4.4-1.9-6.3-7.1-4.4-11.4l3.3-7
					c1.9-4.3,7.1-6.3,11.4-4.3c4.4,1.9,6.3,7.1,4.4,11.4l-3.3,7C66,133.7,62.9,135.6,59.6,135.6z M58.1,130.2c1.8,0.8,3.9,0,4.7-1.8
					l3.3-7c0.8-1.7,0-3.8-1.8-4.6c-1.8-0.8-3.9,0-4.7,1.8l-3.3,7C55.6,127.3,56.4,129.4,58.1,130.2L58.1,130.2z"/>
			</g>
		</g>
		<g>
			<path class="st10" d="M124.9,124.4c-0.9,0-1.8-0.5-2.3-1.4c-0.6-1.3-0.1-2.8,1.1-3.4l14.8-7.4c1.3-0.6,2.8-0.1,3.4,1.1
				c0.6,1.3,0.1,2.8-1.1,3.4l-14.8,7.4C125.7,124.3,125.3,124.4,124.9,124.4z"/>
		</g>
		<g>
			<path class="st10" d="M83,109.1c-0.8,0-1.6-0.1-2.4-0.3c-2.4-0.6-4.5-2.2-5.7-4.4c-1.3-2.2-1.6-4.7-0.9-7.2l3.4-12.5
				c1.8-6.9,8.1-11.7,15.2-11.7h10.3c1.4,0,2.6,1.1,2.6,2.6s-1.1,2.6-2.6,2.6H92.6c-4.8,0-9.1,3.2-10.3,7.9l-3.4,12.5
				c-0.3,1.1-0.1,2.3,0.4,3.3c0.6,1,1.5,1.7,2.6,2c2.1,0.5,4.3-0.6,5.1-2.6L91.3,90c0.2-0.6,0.7-1.1,1.3-1.4c0.6-0.3,1.3-0.3,2-0.1
				l6.4,2.5c3.4,1.3,7.2,0.5,9.9-1.9c1-1,2.6-0.9,3.6,0.1c1,1,0.9,2.6-0.1,3.6c-4,3.8-10,5-15.2,3l-4.1-1.6l-3.4,8.8
				C90.4,106.8,86.9,109.1,83,109.1z"/>
		</g>
		<g>
			<g>
				<path class="st10" d="M105.3,149.6c-1,0-2.1-0.2-3.1-0.6l-4.9-1.9c-1.3-0.5-2-2-1.5-3.3c0.5-1.3,2-2,3.3-1.5l4.9,1.9
					c0.9,0.3,1.8,0.3,2.7-0.1c0.9-0.4,1.5-1.1,1.9-2c0.7-1.8-0.2-3.9-2-4.6l-5.4-2.1c-1.3-0.5-2-2-1.5-3.3c0.5-1.3,2-2,3.3-1.5
					l5.4,2.1c2.2,0.8,3.9,2.4,4.8,4.5c0.9,2.1,1,4.5,0.2,6.6c-0.8,2.2-2.4,3.9-4.5,4.8C107.7,149.4,106.5,149.6,105.3,149.6z"/>
			</g>
			<g>
				<path class="st10" d="M114.7,140.2c-1,0-2.1-0.2-3.1-0.6l-5.1-2c-1.3-0.5-2-2-1.5-3.3c0.5-1.3,2-2,3.3-1.5l5.1,1.9
					c0.4,0.2,0.8,0.2,1.3,0.2c1.5,0,2.8-0.9,3.3-2.3c0.3-0.9,0.3-1.8-0.1-2.7c-0.4-0.9-1.1-1.5-2-1.9l-31.9-12.2
					c-1.3-0.5-2-2-1.5-3.3c0.5-1.3,2-2,3.3-1.5l31.9,12.2c2.2,0.8,3.9,2.4,4.8,4.5c0.9,2.1,1,4.5,0.2,6.6
					C121.5,138,118.3,140.2,114.7,140.2z"/>
			</g>
			<g>
				<path class="st10" d="M119.1,128.8c-1,0-2.1-0.2-3.1-0.6l-31.9-12.2c-1.3-0.5-2-2-1.5-3.3c0.5-1.3,2-2,3.3-1.5l31.9,12.2
					c1.8,0.7,3.9-0.2,4.6-2c0.7-1.8-0.2-3.9-2-4.6l-31.9-12.2c-1.3-0.5-2-2-1.5-3.3c0.5-1.3,2-2,3.3-1.5l31.9,12.2
					c4.5,1.7,6.7,6.7,5,11.2c-0.8,2.2-2.4,3.9-4.5,4.8C121.5,128.6,120.3,128.8,119.1,128.8z"/>
			</g>
			<g>
				<path class="st10" d="M118.9,115.7c-1,0-2.1-0.2-3.1-0.6l-27.4-10.5c-1.3-0.5-2-2-1.5-3.3c0.5-1.3,2-2,3.3-1.5l27.4,10.5
					c0.9,0.3,1.8,0.3,2.7-0.1c0.9-0.4,1.5-1.1,1.9-2c0.7-1.8-0.2-3.9-2-4.6L92.8,93.3c-1.3-0.5-2-2-1.5-3.3c0.5-1.3,2-2,3.3-1.5
					L122,99c2.2,0.8,3.9,2.4,4.8,4.5c0.9,2.1,1,4.5,0.2,6.6s-2.4,3.9-4.5,4.8C121.3,115.5,120.1,115.7,118.9,115.7z"/>
			</g>
		</g>
		<g>
			<path class="st10" d="M145,120.4c-0.8,0-1.6-0.1-2.3-0.3c-2.1-0.6-3.9-2-5-4l-25-45.3c-1.1-2-1.3-4.2-0.7-6.4c0.6-2.1,2-3.9,4-5
				l21.2-11.7c2-1.1,4.2-1.3,6.4-0.7c2.1,0.6,3.9,2,5,4l25,45.3c1.1,2,1.3,4.2,0.7,6.4c-0.6,2.1-2,3.9-4,5l0,0l-21.2,11.7
				C147.8,120,146.4,120.4,145,120.4z M141.2,51.7c-0.5,0-1.1,0.1-1.6,0.4l-21.2,11.7c-0.8,0.4-1.3,1.1-1.6,1.9
				c-0.2,0.8-0.1,1.7,0.3,2.5l25,45.3c0.4,0.8,1.1,1.3,1.9,1.6c0.8,0.2,1.7,0.1,2.5-0.3l21.2-11.7c0.8-0.4,1.3-1.1,1.6-1.9
				c0.2-0.8,0.1-1.7-0.3-2.5l-25-45.3c-0.4-0.8-1.1-1.3-1.9-1.6C141.8,51.8,141.5,51.7,141.2,51.7z M169,105.4L169,105.4L169,105.4z
				"/>
		</g>
		<g>
			<path class="st10" d="M29.5,120.4c-1.4,0-2.8-0.4-4-1L4.3,107.6c-4-2.2-5.5-7.3-3.3-11.4l17.2-31.2c0.7-1.2,2.2-1.7,3.5-1
				c1.2,0.7,1.7,2.2,1,3.5L5.5,98.7c-0.9,1.6-0.3,3.5,1.3,4.4L28,114.9c0.8,0.4,1.6,0.5,2.5,0.3c0.8-0.2,1.5-0.8,1.9-1.6l25-45.3
				c0.4-0.8,0.5-1.6,0.3-2.5c-0.2-0.8-0.8-1.5-1.6-1.9L35,52.1c-0.8-0.4-1.6-0.5-2.5-0.3c-0.8,0.2-1.5,0.8-1.9,1.6l-1.9,3.5
				c-0.7,1.2-2.2,1.7-3.5,1c-1.2-0.7-1.7-2.2-1-3.5l1.9-3.5c1.1-2,2.9-3.4,5-4c2.1-0.6,4.4-0.4,6.4,0.7l21.2,11.7c2,1.1,3.4,2.9,4,5
				c0.6,2.1,0.4,4.4-0.7,6.4l-25,45.3c-1.1,2-2.9,3.4-5,4C31.1,120.3,30.3,120.4,29.5,120.4z"/>
		</g>
		<g>
			<path class="st10" d="M89.2,52.6c-14.7,0-26.7-12-26.7-26.7c0-12.1,8.2-22.8,20-25.8c1.4-0.4,2.8,0.5,3.1,1.8
				c0.4,1.4-0.5,2.8-1.8,3.1c-9.5,2.5-16.1,11-16.1,20.9c0,11.9,9.7,21.5,21.5,21.5c11.9,0,21.5-9.7,21.5-21.5
				c0-9.9-6.7-18.5-16.2-20.9c-1.4-0.3-2.2-1.7-1.8-3.1c0.3-1.4,1.7-2.2,3.1-1.8c11.8,3,20.1,13.6,20.1,25.8
				C115.8,40.6,103.9,52.6,89.2,52.6z"/>
		</g>
		<g>
			<g>
				<path class="st10" d="M89.2,38.1c-2.5,0-4-0.3-6.3-1.8c-1.2-0.8-1.5-2.4-0.7-3.5c0.8-1.2,2.4-1.5,3.5-0.7c1.4,0.9,1.8,1,3.7,1
					c1.7,0,2.6-1.2,2.8-2.4c0.1-0.8,0-1.9-1.5-2.4c-2.3-0.8-4.6-1.7-6.2-3c-1.7-1.3-2.5-3.6-2-6c0.5-2.6,2.3-4.6,4.7-5.3
					c3.8-1.1,6.9,0.5,8.1,1.6c1,1,1.1,2.6,0.1,3.6c-0.9,1-2.5,1.1-3.6,0.2c-0.2-0.1-1.3-1-3.2-0.5c-0.8,0.3-1.1,1.1-1.1,1.4
					c-0.1,0.5,0,0.9,0.2,1c1.1,0.8,3,1.6,4.8,2.2c3.5,1.2,5.5,4.5,4.9,8.1c-0.6,3.3-3.4,6.6-7.8,6.7C89.3,38.1,89.2,38.1,89.2,38.1z
					"/>
			</g>
			<g>
				<path class="st10" d="M89.4,41c-1.4,0-2.6-1.1-2.6-2.6v-2.8c0-1.4,1.1-2.6,2.6-2.6s2.6,1.1,2.6,2.6v2.8
					C91.9,39.8,90.8,41,89.4,41z"/>
			</g>
			<g>
				<path class="st10" d="M89.4,18.6c-1.4,0-2.6-1.1-2.6-2.6v-2.6c0-1.4,1.1-2.6,2.6-2.6s2.6,1.1,2.6,2.6V16
					C91.9,17.4,90.8,18.6,89.4,18.6z"/>
			</g>
		</g>
	</g>
</g>
</svg>
