<?xml version="1.0" encoding="utf-8"?>
<!-- Generator: Adobe Illustrator 25.0.0, SVG Export Plug-In . SVG Version: 6.00 Build 0)  -->
<svg version="1.1" id="Layer_1" xmlns="http://www.w3.org/2000/svg" xmlns:xlink="http://www.w3.org/1999/xlink" x="0px" y="0px"
	 viewBox="0 0 569 175" style="enable-background:new 0 0 569 175;" xml:space="preserve">
<style type="text/css">
	.st0{fill:#FFC66C;}
	.st1{fill:#FF5D5D;}
	.st2{fill:#FFFFFF;}
	.st3{fill:#FFE4CF;}
	.st4{fill:#35414D;}
	.st5{fill:#4A696F;}
	.st6{fill:#384949;}
	.st7{fill:#D2C5C2;}
	.st8{fill:#DFD7D5;}
	.st9{fill:#FFCF66;}
	.st10{fill:#E8BA5D;}
	.st11{fill:#FCD770;}
	.st12{fill:#FFAE2C;}
	.st13{fill:#E9E9EA;}
</style>
<g>
	<g>
		<path class="st0" d="M82,74.3l9.5,4c3.3,1.4,7-0.2,8.4-3.4l10.9-26c1.4-3.3-0.2-7-3.4-8.4L22.1,4.7c-3.3-1.4-7,0.2-8.4,3.4
			l-10.9,26c-1.4,3.3,0.2,7,3.4,8.4L82,74.3z"/>
		<path class="st1" d="M60,101.3l9.5,23.3c1.1,2.6,4.1,3.9,6.7,2.8c2.6-1.1,3.9-4.1,2.8-6.7l-9.5-23.3L60,101.3z"/>
		<path class="st2" d="M78.7,85.5c-5.5,13.1-20.5,19.2-33.6,13.7S25.8,78.7,31.3,65.6S51.9,46.4,65,51.9S84.2,72.4,78.7,85.5z"/>
		<path class="st3" d="M70.4,82c-3.6,8.5-13.4,12.5-21.9,8.9c-8.5-3.6-12.5-13.4-8.9-21.9c3.6-8.5,13.4-12.5,21.9-8.9
			C70,63.7,74,73.5,70.4,82z"/>
		<path class="st4" d="M47.9,92.5c-9.3-3.9-13.7-14.7-9.8-24s14.7-13.7,24-9.8s13.7,14.7,9.8,24C68,92,57.2,96.4,47.9,92.5z
			 M60.8,61.7c-7.6-3.2-16.5,0.4-19.7,8s0.4,16.5,8,19.7c7.6,3.2,16.5-0.4,19.7-8S68.5,64.9,60.8,61.7z"/>
		<path class="st4" d="M61.3,80c-0.8-0.4-1.2-1.3-0.9-2.2c1.2-3-0.2-6.4-3.1-7.6c-0.8-0.4-1.2-1.3-0.9-2.2c0.4-0.8,1.3-1.2,2.2-0.9
			c4.6,2,6.8,7.3,4.9,12C63.1,79.9,62.1,80.3,61.3,80z"/>
		<path class="st4" d="M29.5,37.8c-0.6-0.2-1-0.8-1-1.4l-0.7-8.2c0-0.2-0.1-0.3-0.3-0.4c0,0,0,0,0,0c-0.2-0.1-0.4,0-0.5,0.1l-6,5.3
			c-0.5,0.4-1.1,0.5-1.7,0.3l0,0c-0.6-0.2-1-0.8-1-1.4l-1-12.5c-0.1-0.9,0.6-1.7,1.5-1.8c0.3,0,0.5,0,0.8,0.1c0.6,0.2,1,0.8,1,1.4
			l0.7,8.2c0,0.2,0.1,0.3,0.3,0.4c0,0,0,0,0,0c0.2,0.1,0.4,0,0.5-0.1l6-5.3c0.5-0.4,1.1-0.5,1.7-0.3c0.6,0.2,1,0.8,1,1.4l0.7,8.2
			c0,0.2,0.1,0.3,0.3,0.4c0,0,0,0,0,0c0.2,0.1,0.4,0,0.5-0.1l6-5.3c0.5-0.4,1.2-0.5,1.7-0.3c0.2,0.1,0.4,0.2,0.6,0.4
			c0.3,0.3,0.4,0.8,0.4,1.2s-0.2,0.8-0.6,1.1l-9.2,8.2C30.7,38,30.1,38.1,29.5,37.8z"/>
		<path class="st4" d="M38.5,13.3c-0.4-0.2-0.7-0.5-0.9-0.9c-0.2-0.4-0.2-0.9,0-1.3c0.2-0.4,0.5-0.7,0.9-0.9c0.4-0.2,0.9-0.2,1.3,0
			c0.4,0.2,0.7,0.5,0.9,0.9c0.2,0.4,0.2,0.9,0,1.3c-0.2,0.4-0.5,0.7-0.9,0.9C39.3,13.5,38.9,13.5,38.5,13.3z"/>
		<path class="st4" d="M71.6,128.9c-1.7-0.7-3-2-3.6-3.7L58.9,103c-0.1-0.1-0.1-0.2-0.3-0.3c-0.1,0-0.2,0-0.3,0
			c-4.7,0.6-9.5-0.1-14-1.9C30.5,94.9,24,78.9,29.8,65c1.2-2.9,2.9-5.6,5.1-7.9C35,57,35,56.8,35,56.6c0-0.2-0.1-0.3-0.3-0.3L5.6,44
			c-4.1-1.7-6-6.5-4.3-10.6l10.9-26c1.7-4.1,6.5-6,10.6-4.3l8.1,3.4c0.8,0.4,1.2,1.3,0.9,2.2c-0.4,0.8-1.3,1.2-2.2,0.9l-8.1-3.4
			c-2.4-1-5.2,0.1-6.2,2.5l-10.9,26c-1,2.4,0.1,5.2,2.6,6.2l30.9,13c0.2,0.1,0.3,0,0.5-0.1c4.5-3.4,10-5.5,15.7-5.7
			c0.1,0,0.3-0.1,0.4-0.2c0.1-0.1,0.1-0.3,0.1-0.4c0-0.1-0.1-0.2-0.1-0.3l-0.7-8.2c0-0.2-0.1-0.3-0.3-0.4c0,0,0,0,0,0
			c-0.2-0.1-0.4,0-0.5,0.1l-6,5.3c-0.5,0.4-1.1,0.5-1.7,0.3c-0.6-0.2-1-0.8-1-1.4l-1-12.5c0-0.4,0.1-0.9,0.4-1.2
			c0.3-0.3,0.7-0.5,1.1-0.6c0.3,0,0.5,0,0.8,0.1c0.6,0.2,1,0.8,1,1.4l0.7,8.2c0,0.2,0.1,0.3,0.3,0.4c0,0,0,0,0,0
			c0.2,0.1,0.4,0,0.5-0.1l6-5.3c0.5-0.4,1.1-0.5,1.7-0.3c0.6,0.2,1,0.8,1,1.4l0.7,8.2c0,0.2,0.1,0.3,0.3,0.4c0,0,0,0,0,0
			c0.2,0.1,0.4,0,0.5-0.1l6-5.3c0.5-0.4,1.2-0.5,1.7-0.3c0.2,0.1,0.4,0.2,0.6,0.4c0.3,0.3,0.4,0.8,0.4,1.2c0,0.4-0.2,0.8-0.6,1.1
			l-8.3,7.3c-0.1,0.1-0.2,0.3-0.1,0.5c0,0.1,0.1,0.3,0.3,0.3c0,0,0.1,0,0.1,0c2.5,0.3,4.9,1,7.3,1.9c1.2,0.5,2.4,1.1,3.5,1.8
			c0,0,0,0,0.1,0c0.1,0.1,0.3,0,0.4,0c0.2-0.1,0.2-0.3,0.2-0.5L69,41.4c-0.1-0.9,0.6-1.7,1.5-1.8c0.3,0,0.5,0,0.8,0.1
			c0.6,0.2,1,0.8,1,1.4l0.7,8.2c0,0.2,0.1,0.3,0.3,0.4c0,0,0,0,0,0c0.2,0.1,0.4,0,0.5-0.1l6-5.3c0.5-0.4,1.1-0.5,1.7-0.3
			c0.6,0.2,1,0.8,1,1.4l0.7,8.2c0,0.2,0.1,0.3,0.3,0.4c0,0,0,0,0,0c0.2,0.1,0.4,0,0.5-0.1l6-5.3c0.5-0.4,1.2-0.5,1.7-0.3
			c0.2,0.1,0.4,0.2,0.6,0.4c0.3,0.3,0.4,0.8,0.4,1.2c0,0.4-0.2,0.8-0.6,1.1L83,59.3c-0.5,0.4-1.1,0.5-1.7,0.3c-0.6-0.2-1-0.8-1-1.4
			L79.6,50c0-0.2-0.1-0.3-0.3-0.4c0,0,0,0,0,0c-0.2-0.1-0.4,0-0.5,0.1l-5.5,4.9c-0.1,0.1-0.2,0.2-0.2,0.4c0,0.1,0.1,0.3,0.2,0.4
			c4.9,4.4,8.1,10.5,8.8,17.1c0,0.2,0.1,0.3,0.3,0.4c0,0,0,0,0,0c0,0,0.1,0,0.1,0l9.5,4c2.4,1,5.2-0.1,6.2-2.5l10.9-26
			c1-2.4-0.1-5.2-2.6-6.2l-60-25.2c-0.8-0.4-1.2-1.3-0.9-2.2s1.3-1.2,2.2-0.9l60,25.2c4.1,1.7,6,6.5,4.3,10.6l-10.9,26
			c-1.7,4.1-6.5,6-10.6,4.3L83,76.6c-0.1-0.1-0.3,0-0.5,0s-0.2,0.2-0.2,0.4c-0.2,3.1-0.9,6.2-2.1,9.2c-3.2,7.6-9.6,13.4-17.6,15.7
			c-0.1,0-0.2,0.1-0.3,0.3c-0.1,0.1-0.1,0.3,0,0.4L71,124c0.3,0.9,1,1.5,1.9,1.9c0.9,0.4,1.8,0.4,2.7,0c1.8-0.7,2.6-2.8,1.9-4.5
			l-3.6-8.7c-0.3-0.8,0.1-1.8,0.9-2.2c0.4-0.2,0.9-0.2,1.3,0c0.4,0.2,0.7,0.5,0.9,0.9l3.6,8.7c1.4,3.5-0.3,7.4-3.7,8.8
			C75.1,129.6,73.3,129.6,71.6,128.9z M64.3,53.4C52.1,48.3,38,54,32.9,66.2s0.6,26.3,12.8,31.5S72,97.1,77.2,84.9
			S76.5,58.5,64.3,53.4z"/>
		<path class="st4" d="M72.1,106.9c-0.4-0.2-0.7-0.5-0.9-0.9c-0.2-0.4-0.2-0.9,0-1.3c0.2-0.4,0.5-0.7,0.9-0.9c0.4-0.2,0.9-0.2,1.3,0
			s0.7,0.5,0.9,0.9c0.2,0.4,0.2,0.9,0,1.3c-0.2,0.4-0.5,0.7-0.9,0.9C72.9,107,72.5,107,72.1,106.9z"/>
	</g>
	<g>
		<g>
			<path class="st5" d="M279.2,147.5l15.8,15.8c10.3,10.3,27.5,10.9,38.4,0c10.6-10.6,10.6-27.8,0-38.3l-15.8-15.8
				c-3-3-6.6-5.2-10.5-6.5l-5.3-0.3l-11.9,0.5l-0.1-0.1c-3.9,1.3-7.5,3.5-10.5,6.5c-3.1,3.1-5.2,6.7-6.5,10.5l-9.8,2.5l9.8,14.8
				C274,140.8,276.1,144.4,279.2,147.5z M289.9,136.8l8.6-8.4l8.6-8.5l15.7,15.6c4.7,4.7,4.7,12.4,0,17.1c-4.6,4.6-12.3,4.8-17.1,0
				L289.9,136.8z"/>
			<path class="st4" d="M314.3,172.5c-0.1,0-0.2,0-0.3,0c-7.5-0.1-14.6-3-19.9-8.3l-15.8-15.8c-3.1-3.1-5.4-6.8-6.8-10.9l-10.7-16.2
				l10.8-2.8c1.4-3.9,3.7-7.4,6.6-10.4c3.2-3.2,6.9-5.5,11-6.8l0.7-0.2l0.3,0.3l11.4-0.4l5.7,0.4c4.1,1.4,7.9,3.7,11,6.8l15.8,15.8
				c5.4,5.4,8.3,12.5,8.3,20.1c0,7.6-3,14.7-8.3,20.1C328.9,169.5,321.8,172.5,314.3,172.5z M280.1,146.6l15.8,15.8
				c4.8,4.8,11.2,7.5,18.1,7.6c7,0.1,13.5-2.6,18.5-7.6c4.9-4.9,7.6-11.4,7.6-18.3s-2.7-13.4-7.6-18.3L316.7,110
				c-2.9-2.9-6.2-4.9-9.9-6.2l-5.1-0.3l-12.2,0.5c-3.5,1.2-6.7,3.3-9.4,6c-2.9,2.9-5,6.2-6.2,10l-0.2,0.7L265,123l8.9,13.6
				C275.2,140.3,277.3,143.7,280.1,146.6L280.1,146.6z M314.2,157.4c-3.6,0-6.9-1.4-9.4-3.9L288,136.8l9.5-9.4l9.5-9.4l16.6,16.5
				c5.2,5.2,5.2,13.7,0,18.9C321.1,156,317.8,157.4,314.2,157.4C314.2,157.4,314.2,157.4,314.2,157.4z M291.7,136.8l14.9,14.9
				c2.1,2.1,4.8,3.1,7.7,3.2c2.9,0,5.6-1.1,7.6-3.2c4.2-4.2,4.2-11,0-15.2l-14.8-14.7l-7.7,7.6L291.7,136.8z"/>
		</g>
		<g>
			<path class="st6" d="M272.7,137l-9.8-14.8l9.8-2.5c1.3-3.8,3.5-7.5,6.5-10.5l19.3,19.3l-8.6,8.4l15.8,15.8
				c4.8,4.8,12.4,4.6,17.1,0l10.7,10.7c-10.9,10.9-28.1,10.3-38.4,0l-15.8-15.8C276.1,144.4,274,140.8,272.7,137z"/>
			<path class="st4" d="M314.3,172.5c-0.1,0-0.2,0-0.3,0c-7.5-0.1-14.6-3-19.9-8.3l-15.8-15.8c-3.1-3.1-5.4-6.8-6.8-10.9l-10.7-16.2
				l10.8-2.8c1.4-3.9,3.7-7.4,6.6-10.4l0.9-0.9l21.1,21.1l-8.6,8.4l14.9,14.9c2.1,2.1,4.8,3.1,7.7,3.2c2.9,0,5.6-1.1,7.6-3.2
				l0.9-0.9l12.5,12.5l-0.9,0.9C328.9,169.5,321.8,172.5,314.3,172.5z M265,123l8.9,13.6c1.3,3.8,3.4,7.2,6.2,10l15.8,15.8
				c4.8,4.8,11.2,7.5,18.1,7.6c0.1,0,0.2,0,0.3,0c6.4,0,12.5-2.4,17.3-6.7l-8.9-8.9c-2.4,2-5.3,3-8.4,3c0,0,0,0-0.1,0
				c-3.6,0-6.9-1.4-9.4-3.9L288,136.8l8.6-8.4l-17.4-17.4c-2.4,2.7-4.2,5.7-5.3,9.1l-0.2,0.7L265,123z"/>
		</g>
		<g>
			<path class="st7" d="M253.6,156c-1.2-1.2-1.2-3.1,0-4.3l4.3-4.3c1.2-1.2,3.1-1.2,4.3,0c1.2,1.2,1.2,3.1,0,4.3l-4.3,4.3
				C256.7,157.2,254.8,157.2,253.6,156z"/>
			<path class="st4" d="M255.7,158.2c-1.1,0-2.2-0.4-3-1.3c-1.7-1.7-1.7-4.4,0-6.1l4.3-4.3c1.7-1.7,4.4-1.7,6.1,0
				c1.7,1.7,1.7,4.4,0,6.1l-4.3,4.3C257.9,157.8,256.8,158.2,255.7,158.2z M260,147.9c-0.4,0-0.9,0.2-1.2,0.5l-4.3,4.3
				c-0.7,0.7-0.7,1.8,0,2.4c0.7,0.7,1.8,0.7,2.4,0l4.3-4.3c0.7-0.7,0.7-1.8,0-2.4C260.9,148.1,260.5,147.9,260,147.9z"/>
		</g>
		<g>
			<path class="st8" d="M317.6,92c-1.2-1.2-1.2-3.1,0-4.3l4.3-4.3c1.2-1.2,3.1-1.2,4.3,0c1.2,1.2,1.2,3.1,0,4.3l-4.3,4.3
				C320.7,93.2,318.8,93.2,317.6,92z"/>
			<path class="st4" d="M319.7,94.2c-1.1,0-2.2-0.4-3-1.3c-0.8-0.8-1.3-1.9-1.3-3c0-1.1,0.4-2.2,1.3-3l4.3-4.3
				c1.7-1.7,4.4-1.7,6.1,0c1.7,1.7,1.7,4.4,0,6.1l-4.3,4.3C321.9,93.8,320.8,94.2,319.7,94.2z M324,83.9c-0.4,0-0.9,0.2-1.2,0.5
				l-4.3,4.3c-0.3,0.3-0.5,0.8-0.5,1.2s0.2,0.9,0.5,1.2h0c0.7,0.7,1.8,0.7,2.4,0l4.3-4.3c0.7-0.7,0.7-1.8,0-2.4
				C324.9,84.1,324.4,83.9,324,83.9z"/>
		</g>
		<g>
			<path class="st7" d="M249.9,133.6l-5.8,1.6c-1.6,0.4-3.3-0.5-3.7-2.1c-0.4-1.6,0.5-3.3,2.1-3.7l5.8-1.6c1.6-0.4,3.3,0.5,3.7,2.1
				C252.4,131.5,251.5,133.2,249.9,133.6z"/>
			<path class="st4" d="M243.2,136.6c-0.7,0-1.5-0.2-2.1-0.6c-1-0.6-1.7-1.5-2-2.6c-0.3-1.1-0.1-2.3,0.4-3.3c0.6-1,1.5-1.7,2.6-2
				l5.8-1.6c1.1-0.3,2.3-0.1,3.3,0.4c1,0.6,1.7,1.5,2,2.6c0.6,2.3-0.8,4.7-3,5.3l-5.8,1.6C244,136.5,243.6,136.6,243.2,136.6z
				 M249.1,129c-0.2,0-0.3,0-0.5,0.1l-5.8,1.6c-0.4,0.1-0.8,0.4-1,0.8c-0.2,0.4-0.3,0.9-0.2,1.3c0.1,0.4,0.4,0.8,0.8,1
				c0.4,0.2,0.9,0.3,1.3,0.2l5.8-1.6c0.9-0.2,1.5-1.2,1.2-2.1c-0.1-0.4-0.4-0.8-0.8-1.1C249.7,129,249.4,129,249.1,129z"/>
		</g>
		<g>
			<path class="st8" d="M337.3,110.2l-5.8,1.6c-1.6,0.4-3.3-0.5-3.7-2.1c-0.4-1.6,0.5-3.3,2.1-3.7l5.8-1.6c1.6-0.4,3.3,0.5,3.7,2.1
				C339.8,108.1,338.9,109.8,337.3,110.2z"/>
			<path class="st4" d="M330.7,113.1c-1.9,0-3.6-1.3-4.2-3.2c-0.3-1.1-0.1-2.3,0.4-3.3c0.6-1,1.5-1.7,2.6-2l5.8-1.6
				c1.1-0.3,2.3-0.1,3.3,0.4c1,0.6,1.7,1.5,2,2.6c0.6,2.3-0.8,4.7-3,5.3l-5.8,1.6C331.4,113.1,331,113.1,330.7,113.1z M336.5,105.5
				c-0.2,0-0.3,0-0.5,0.1l-5.8,1.6c-0.4,0.1-0.8,0.4-1,0.8c-0.2,0.4-0.3,0.9-0.2,1.3c0.2,0.9,1.2,1.5,2.1,1.2l5.8-1.6
				c0.9-0.2,1.5-1.2,1.2-2.1c-0.1-0.4-0.4-0.8-0.8-1C337.1,105.6,336.8,105.5,336.5,105.5z"/>
		</g>
		<g>
			<path class="st7" d="M276.6,169.3c-1.6-0.4-2.6-2.1-2.1-3.7l1.6-5.8c0.4-1.6,2.1-2.6,3.7-2.1c1.6,0.4,2.6,2.1,2.1,3.7l-1.6,5.8
				C279.9,168.8,278.2,169.7,276.6,169.3z"/>
			<path class="st4" d="M277.4,170.7c-0.4,0-0.7,0-1.1-0.1h0c-2.3-0.6-3.7-3-3-5.3l1.6-5.8c0.6-2.3,3-3.7,5.3-3c1.1,0.3,2,1,2.6,2
				c0.6,1,0.7,2.2,0.4,3.3l-1.6,5.8C281,169.4,279.3,170.7,277.4,170.7z M276.9,168c0.9,0.2,1.9-0.3,2.1-1.2l1.6-5.8
				c0.2-0.9-0.3-1.9-1.2-2.1c-0.9-0.2-1.9,0.3-2.1,1.2l-1.6,5.8C275.5,166.9,276,167.8,276.9,168z"/>
		</g>
		<g>
			<path class="st8" d="M300,81.9c-1.6-0.4-2.6-2.1-2.1-3.7l1.6-5.8c0.4-1.6,2.1-2.6,3.7-2.1c1.6,0.4,2.6,2.1,2.1,3.7l-1.6,5.8
				C303.3,81.4,301.6,82.3,300,81.9z"/>
			<path class="st4" d="M300.8,83.3c-0.4,0-0.7,0-1.1-0.1h0c-2.3-0.6-3.7-3-3-5.3l1.6-5.8c0.6-2.3,3-3.7,5.3-3c2.3,0.6,3.7,3,3,5.3
				l-1.6,5.8C304.4,82,302.7,83.3,300.8,83.3z M300.3,80.7c0.9,0.2,1.9-0.3,2.1-1.2l1.6-5.8c0.2-0.9-0.3-1.9-1.2-2.1
				c-0.9-0.2-1.9,0.3-2.1,1.2l-1.6,5.8C298.9,79.5,299.4,80.4,300.3,80.7z"/>
		</g>
		<g>
			<path class="st9" d="M246.3,114.7l15.8,15.8c3,3,6.7,5.2,10.5,6.5c-1.9-5.6-1.9-11.7,0-17.3L257,104c-4.7-4.7-4.7-12.4,0-17.1
				c2.2-2.2,5.2-3.5,7.5-3.5c0.2-0.1,0.9-0.1,1,0c3.2,0,6.2,1.2,8.5,3.5l15.8,15.8c4.7,4.7,4.7,12.4,0,17.1
				c-4.7,4.7-4.7,12.4,0,17.1l0.1,0.1c4-1.3,7.5-3.5,10.5-6.5c3.1-3.1,5.2-6.7,6.5-10.5c1.9-5.6,1.9-11.7,0-17.3
				c-1.3-3.8-3.5-7.5-6.5-10.5l-15.8-15.8c-10.6-10.6-27.8-10.6-38.4,0C235.7,86.8,235.7,104.1,246.3,114.7z"/>
			<path class="st4" d="M274.7,139l-2.5-0.8c-4.2-1.4-8-3.8-11-6.8l-15.8-15.8c-5.4-5.4-8.3-12.5-8.3-20.1c0-7.6,3-14.7,8.3-20.1
				c5.4-5.4,12.5-8.3,20.1-8.3c0,0,0,0,0,0c7.6,0,14.7,3,20.1,8.3l15.8,15.8c3.1,3.1,5.4,6.9,6.8,11c2,5.9,2,12.2,0,18.1
				c-1.4,4.1-3.7,7.9-6.8,11c-3.1,3.1-6.9,5.4-11,6.8l-0.8,0.3l-0.7-0.7c-2.5-2.5-3.9-5.9-3.9-9.4c0-3.6,1.4-6.9,3.9-9.4
				c4.2-4.2,4.2-11,0-15.2l-15.8-15.8c-2-2-4.7-3.1-7.6-3.1l-0.6,0l-0.1,0.1h-0.3c-1.8,0-4.5,1-6.6,3.1c-4.2,4.2-4.2,11,0,15.2
				l16.2,16.2l-0.3,0.8c-1.8,5.4-1.8,11.1,0,16.5L274.7,139z M265.7,82.1c3.6,0,6.8,1.4,9.3,3.9l15.8,15.8c5.2,5.2,5.2,13.7,0,18.9
				c-4.1,4.1-4.2,10.6-0.4,14.8c3.5-1.3,6.6-3.3,9.3-5.9c2.9-2.9,4.9-6.2,6.2-10c1.8-5.4,1.8-11.1,0-16.5c-1.3-3.8-3.4-7.2-6.2-10
				l-15.8-15.8c-4.9-4.9-11.4-7.6-18.3-7.6c0,0,0,0,0,0c-6.9,0-13.4,2.7-18.3,7.6c-4.9,4.9-7.6,11.4-7.6,18.3
				c0,6.9,2.7,13.4,7.6,18.3l15.8,15.8c2.2,2.2,4.8,4,7.7,5.3c-1.2-4.9-1-10,0.5-14.8l-15.1-15.1c-5.2-5.2-5.2-13.7,0-18.9
				c2.3-2.3,5.5-3.8,8.3-3.8C264.7,82.1,265.2,82,265.7,82.1z"/>
		</g>
		<g>
			<g>
				<path class="st10" d="M289.9,119.8l10.7,10.7c-3,3-6.6,5.2-10.5,6.5l-0.1-0.1C285.2,132.1,285.2,124.5,289.9,119.8z"/>
				<path class="st4" d="M289.6,138.4l-0.7-0.7c-5.2-5.2-5.2-13.7,0-18.9l0.9-0.9l12.5,12.5l-0.9,0.9c-3.1,3.1-6.9,5.4-11,6.8
					L289.6,138.4z M289.9,121.6c-3.2,4.1-3.1,9.9,0.4,13.8c3.1-1.1,5.9-2.8,8.3-5.1L289.9,121.6z"/>
			</g>
			<g>
				<path class="st10" d="M246.3,76.3L257,86.9c-4.7,4.7-4.7,12.4,0,17.1l15.7,15.6c-1.9,5.6-1.9,11.7,0,17.3
					c-3.9-1.3-7.5-3.5-10.5-6.5l-15.8-15.8C235.7,104.1,235.7,86.8,246.3,76.3z"/>
				<path class="st4" d="M274.7,139l-2.5-0.8c-4.2-1.4-8-3.8-11-6.8l-15.8-15.8c-5.4-5.4-8.3-12.5-8.3-20.1c0-7.6,3-14.7,8.3-20.1
					l0.9-0.9l12.5,12.5l-0.9,0.9c-4.2,4.2-4.2,11,0,15.2l16.2,16.2l-0.3,0.8c-1.8,5.4-1.8,11.1,0,16.5L274.7,139z M246.3,78.1
					c-4.3,4.8-6.7,10.9-6.7,17.4c0,6.9,2.7,13.4,7.6,18.3l15.8,15.8c2.2,2.2,4.8,4,7.7,5.3c-1.2-4.9-1-10,0.5-14.8l-15.1-15.1
					c-2.5-2.5-3.9-5.9-3.9-9.4c0-3.1,1.1-6.1,3-8.5L246.3,78.1z"/>
			</g>
		</g>
	</g>
	<g>
		<path class="st11" d="M534.4,78.9l-1.1-2.3c-0.3-0.7-1.1-1.1-1.9-1c-1.8,0.2-3.6,0.3-5.5,0.2c-0.8,0-1.5,0.4-1.8,1.2l-0.9,2.4
			c0,0.1-0.1,0.2-0.1,0.2c6.9,7.4,6.5,18.9-0.9,25.8c-7.4,6.9-18.9,6.5-25.8-0.9c-6.9-7.4-6.5-18.9,0.9-25.8
			c2.6-2.5,5.9-4.1,9.5-4.7c0.1-0.2,0.1-0.5,0.2-0.7l0.9-2.4c0.3-0.7,0-1.6-0.6-2.1c-1.4-1.1-2.8-2.4-4-3.7
			c-0.5-0.6-1.4-0.8-2.1-0.4l-2.3,1.1c-2,0.9-4.3,0.5-5.9-1.1c-1.4,1.2-1.8,3.1-1.1,4.8l0.8,1.8c0.3,0.6,0.1,1.2-0.3,1.6
			c-1.1,1-2.1,2-2.9,3.2c-0.4,0.5-1,0.7-1.6,0.5l-1.9-0.7c-2.1-0.8-4.5,0.3-5.3,2.4l-1.9,5.1c-0.8,2.1,0.3,4.5,2.4,5.3l1.9,0.7
			c0.6,0.2,1,0.8,0.9,1.4c-0.1,1.4,0,2.9,0.1,4.3c0.1,0.6-0.3,1.2-0.8,1.5l-1.8,0.8c-2.1,0.9-3,3.4-2,5.4l2.3,5c0.9,2.1,3.4,3,5.4,2
			l1.8-0.8c0.6-0.3,1.2-0.1,1.6,0.3c1,1.1,2,2.1,3.2,2.9c0.5,0.4,0.7,1,0.5,1.6l-0.7,1.9c-0.8,2.1,0.3,4.5,2.4,5.3l5.1,1.9
			c2.1,0.8,4.5-0.3,5.3-2.4l0.7-1.9c0.2-0.6,0.8-1,1.4-0.9c1.4,0.1,2.9,0,4.3-0.1c0.6-0.1,1.2,0.3,1.5,0.8l0.8,1.8
			c0.9,2.1,3.4,3,5.4,2l5-2.3c2.1-0.9,3-3.4,2-5.4l-0.8-1.8c-0.3-0.6-0.1-1.2,0.3-1.6c1.1-1,2.1-2,2.9-3.2c0.4-0.5,1-0.7,1.6-0.5
			l1.9,0.7c2.1,0.8,4.5-0.3,5.3-2.4l1.9-5.1c0.8-2.1-0.3-4.5-2.4-5.3l-1.9-0.7c-0.6-0.2-1-0.8-0.9-1.4c0.1-1.4,0-2.9-0.1-4.3
			c-0.1-0.6,0.3-1.2,0.8-1.5l1.8-0.8c1.8-0.8,2.8-2.9,2.2-4.8C538,82.4,535.5,81.2,534.4,78.9z"/>
		<path class="st12" d="M502.4,75.3c-9.2,4.2-13.2,15-9.1,24.2c4.2,9.2,15,13.2,24.2,9.1c9.2-4.2,13.2-15,9.1-24.2
			c-0.8-1.8-1.9-3.5-3.3-4.9c-0.8,1.8-2.5,3-4.5,3.1c5.1,4.9,5.4,13,0.5,18.1c-4.9,5.1-13,5.4-18.1,0.5c-5.1-4.9-5.4-13-0.5-18.1
			c2.2-2.3,5.1-3.7,8.3-4c-1.6-1.2-2.4-3.2-1.9-5.2C505.4,74.2,503.9,74.6,502.4,75.3z"/>
		<path class="st13" d="M556.3,20.7l-2.3,1.1c-0.7,0.3-1.6,0.1-2.1-0.4c-1.2-1.4-2.6-2.6-4-3.7c-0.6-0.5-0.9-1.3-0.6-2.1l0.9-2.4
			c1-2.7-0.4-5.7-3-6.7l-6.5-2.4c-2.7-1-5.7,0.4-6.7,3l-0.9,2.4c-0.3,0.7-1,1.2-1.8,1.2c-1.8-0.1-3.6,0-5.5,0.2
			c-0.8,0.1-1.5-0.3-1.9-1l-1.1-2.3c-1.2-2.6-4.2-3.8-6.8-2.6l-6.3,2.9c-2.6,1.2-3.8,4.2-2.6,6.8l1.1,2.3c0.3,0.7,0.1,1.6-0.4,2.1
			c-1.4,1.2-2.6,2.6-3.7,4c-0.5,0.6-1.3,0.8-2.1,0.6l-2.4-0.9c-2.7-1-5.7,0.4-6.7,3l-2.4,6.5c-1,2.7,0.4,5.7,3,6.7l2.4,0.9
			c0.7,0.3,1.2,1,1.2,1.8c-0.1,1.8,0,3.6,0.2,5.5c0.1,0.8-0.3,1.5-1,1.9l-2.3,1.1c-2.6,1.2-3.8,4.2-2.6,6.8l2.9,6.3
			c1.2,2.6,4.2,3.8,6.8,2.6l2.3-1.1c0.7-0.3,1.6-0.1,2.1,0.4c1.2,1.4,2.6,2.6,4,3.7c0.6,0.5,0.9,1.3,0.6,2.1l-0.9,2.4
			c-1,2.7,0.4,5.7,3,6.7l6.5,2.4c2.7,1,5.7-0.4,6.7-3l0.9-2.4c0.3-0.7,1-1.2,1.8-1.2c1.8,0.1,3.6,0,5.5-0.2c0.8-0.1,1.5,0.3,1.9,1
			l1.1,2.3c1.2,2.6,4.2,3.8,6.8,2.6l6.3-2.9c2.6-1.2,3.8-4.2,2.6-6.8l-1.1-2.3c-0.3-0.7-0.1-1.6,0.4-2.1c1.4-1.2,2.6-2.6,3.7-4
			c0.5-0.6,1.3-0.9,2.1-0.6l2.4,0.9c2.7,1,5.7-0.4,6.7-3l2.4-6.5c1-2.7-0.4-5.7-3-6.7l-2.4-0.9c-0.7-0.3-1.2-1-1.2-1.8
			c0.1-1.8,0-3.6-0.2-5.5c-0.1-0.8,0.3-1.5,1-1.9l2.3-1.1c2.6-1.2,3.8-4.2,2.6-6.8l-2.9-6.3C561.9,20.7,558.9,19.5,556.3,20.7
			C556.3,20.7,556.3,20.7,556.3,20.7z"/>
		<path class="st11" d="M537.4,64.6c-11.8,5.4-25.8,0.1-31.1-11.7c-5.4-11.8-0.1-25.8,11.7-31.1c11.8-5.4,25.8-0.1,31.1,11.7l0,0
			C554.5,45.3,549.2,59.2,537.4,64.6z"/>
		<path class="st12" d="M520.2,26.7c-9.1,4.1-13.1,14.9-9,24c4.1,9.1,14.9,13.1,24,9c9.1-4.1,13.1-14.9,9-24
			C540,26.6,529.3,22.6,520.2,26.7z"/>
		<path class="st4" d="M548.1,79.7l-6.3,2.9c-3.2,1.5-7,0-8.5-3.2l-1.1-2.3c-0.1-0.2-0.3-0.4-0.6-0.3c-1.9,0.2-3.8,0.3-5.7,0.2
			c-0.3,0-0.5,0.1-0.6,0.4l-0.9,2.4c-1.2,3.3-4.9,5-8.2,3.7l-6.5-2.4c-3.3-1.2-5-4.9-3.7-8.2l0.9-2.4c0.1-0.2,0-0.5-0.2-0.7
			c-1.5-1.2-2.9-2.5-4.1-3.9c-0.2-0.2-0.4-0.2-0.7-0.1l-2.3,1.1c-3.2,1.5-7,0-8.5-3.2l-2.9-6.3c-1.5-3.2,0-7,3.2-8.5l2.3-1.1
			c0.2-0.1,0.4-0.3,0.3-0.6c-0.2-1.9-0.3-3.8-0.2-5.7c0-0.3-0.1-0.5-0.4-0.6l-2.4-0.9c-3.3-1.2-5-4.9-3.7-8.2l2.4-6.5
			c0.6-1.6,1.8-2.9,3.3-3.6c1.5-0.7,3.3-0.8,4.9-0.2l2.4,0.9c0.2,0.1,0.5,0,0.7-0.2c1.2-1.5,2.5-2.9,3.9-4.1
			c0.2-0.2,0.2-0.4,0.1-0.7l-1.1-2.3c-1.5-3.2,0-7,3.2-8.5l6.3-2.9c3.2-1.5,7,0,8.5,3.2l1.1,2.3c0.1,0.2,0.3,0.4,0.6,0.3
			c1.9-0.2,3.8-0.3,5.7-0.2c0.3,0,0.5-0.1,0.6-0.4l0.9-2.4c1.2-3.3,4.9-5,8.2-3.7l6.5,2.4c3.3,1.2,5,4.9,3.7,8.2l-0.9,2.4
			c-0.1,0.2,0,0.5,0.2,0.7c1.5,1.2,2.9,2.5,4.1,3.9c0.2,0.2,0.4,0.2,0.7,0.1l2.3-1.1c3.2-1.5,7,0,8.5,3.2l2.9,6.3
			c1.5,3.2,0,7-3.2,8.5l-2.3,1.1c-0.2,0.1-0.4,0.3-0.3,0.6c0.2,1.9,0.3,3.8,0.2,5.7c0,0.3,0.1,0.5,0.4,0.6l2.4,0.9
			c3.3,1.2,5,4.9,3.7,8.2l-2.4,6.5c-1.2,3.3-4.9,5-8.2,3.7l-2.4-0.9c-0.2-0.1-0.5,0-0.7,0.2c-1.2,1.5-2.5,2.9-3.9,4.1
			c-0.2,0.2-0.2,0.4-0.1,0.7l1.1,2.3C552.7,74.5,551.3,78.2,548.1,79.7z M524.7,74.7c0.4-0.2,0.9-0.3,1.4-0.3c1.8,0.1,3.5,0,5.3-0.2
			c1.3-0.2,2.6,0.5,3.1,1.8l1.1,2.3c0.9,2,3.2,2.9,5.2,2l6.3-2.9c2-0.9,2.9-3.2,2-5.2l-1.1-2.3c-0.5-1.2-0.3-2.6,0.7-3.5
			c1.3-1.2,2.5-2.5,3.6-3.8c0.8-1,2.2-1.4,3.4-1l2.4,0.9c2,0.8,4.3-0.3,5.1-2.3l2.4-6.5c0.8-2-0.3-4.3-2.3-5.1l-2.4-0.9
			c-1.2-0.5-2-1.7-2-3c0.1-1.8,0-3.5-0.2-5.3c-0.2-1.3,0.5-2.6,1.7-3.1l2.3-1.1c2-0.9,2.9-3.2,2-5.2l-2.9-6.3c-0.9-2-3.2-2.9-5.2-2
			l-2.3,1.1c-1.2,0.5-2.6,0.3-3.5-0.7c-1.2-1.3-2.5-2.5-3.8-3.6c-1-0.8-1.4-2.2-1-3.4l0.9-2.4c0.8-2-0.3-4.3-2.3-5.1l-6.5-2.4
			c-2-0.8-4.3,0.3-5.1,2.3l-0.9,2.4c-0.5,1.2-1.7,2-3,2c-1.8-0.1-3.5,0-5.3,0.2c-1.3,0.2-2.6-0.5-3.1-1.8L519.8,8
			c-0.9-2-3.2-2.9-5.2-2l-6.3,2.9c-2,0.9-2.9,3.2-2,5.2l1.1,2.3c0.5,1.2,0.3,2.6-0.7,3.5c-1.3,1.2-2.5,2.5-3.6,3.8
			c-0.8,1-2.2,1.4-3.4,1l-2.4-0.9c-2-0.8-4.3,0.3-5.1,2.3l-2.4,6.5c-0.8,2,0.3,4.3,2.3,5.1l2.4,0.9c1.2,0.5,2,1.7,2,3
			c-0.1,1.8,0,3.5,0.2,5.3c0.2,1.3-0.5,2.6-1.7,3.1l-2.3,1.1c-2,0.9-2.9,3.2-2,5.2l2.9,6.3c0.9,2,3.2,2.9,5.2,2l2.3-1.1
			c1.2-0.5,2.6-0.3,3.5,0.7c1.2,1.3,2.5,2.5,3.8,3.6c1,0.8,1.4,2.2,1,3.4l-0.9,2.4c-0.8,2,0.3,4.3,2.3,5.1l6.5,2.4
			c2,0.8,4.3-0.3,5.1-2.3l0.9-2.4C523.4,75.7,524,75.1,524.7,74.7z"/>
		<path class="st4" d="M537.9,65.7c-12.4,5.7-27.1,0.1-32.7-12.3s-0.1-27.1,12.3-32.7c12.4-5.7,27.1-0.1,32.7,12.3
			C555.8,45.4,550.3,60,537.9,65.7z M518.5,22.9c-11.2,5.1-16.2,18.3-11.1,29.5s18.3,16.2,29.5,11.1s16.2-18.3,11.1-29.5
			C542.9,22.7,529.7,17.8,518.5,22.9z"/>
		<path class="st4" d="M526.2,121l-5,2.3c-2.7,1.2-5.8,0-7-2.6l-0.8-1.8c0-0.1-0.1-0.1-0.2-0.1c-1.5,0.2-3,0.2-4.5,0.2
			c-0.1,0-0.2,0-0.2,0.1l-0.7,1.9c-1,2.7-4.1,4.1-6.8,3.1l-5.1-1.9c-2.7-1-4.1-4.1-3.1-6.8l0.7-1.9c0-0.1,0-0.2-0.1-0.2
			c-1.2-0.9-2.3-2-3.3-3.1c-0.1-0.1-0.2-0.1-0.2-0.1l-1.8,0.8c-2.7,1.2-5.8,0-7-2.6l-2.3-5c-1.2-2.7,0-5.8,2.6-7l1.8-0.8
			c0.1,0,0.1-0.1,0.1-0.2c-0.2-1.5-0.2-3-0.2-4.5c0-0.1,0-0.2-0.1-0.2l-1.9-0.7c-2.7-1-4.1-4.1-3.1-6.8l1.9-5.1
			c1-2.7,4.1-4.1,6.8-3.1l1.9,0.7c0.1,0,0.2,0,0.2-0.1c0.9-1.2,2-2.3,3.1-3.3c0.1-0.1,0.1-0.2,0.1-0.2l-0.8-1.8
			c-1-2.2-0.4-4.7,1.4-6.2c0.5-0.4,1.2-0.4,1.7,0.1c1.2,1.2,3,1.6,4.5,0.9l2.3-1.1c1.2-0.5,2.6-0.3,3.5,0.7c1.2,1.3,2.5,2.5,3.8,3.6
			c1,0.8,1.4,2.2,1,3.4l-0.9,2.4c-0.8,2,0.3,4.3,2.3,5.1l6.5,2.4c2,0.8,4.3-0.3,5.1-2.3l0.9-2.4c0.5-1.2,1.7-2,3-2
			c1.8,0.1,3.5,0,5.3-0.2c1.3-0.2,2.6,0.5,3.1,1.8l1.1,2.3c0.8,1.7,2.7,2.7,4.6,2.2c0.6-0.2,1.3,0.2,1.5,0.8
			c0.7,2.5-0.5,5.2-2.9,6.3l-1.8,0.8c-0.1,0-0.1,0.1-0.1,0.2c0.2,1.5,0.2,3,0.2,4.5c0,0.1,0,0.2,0.1,0.2l1.9,0.7
			c2.7,1,4.1,4.1,3.1,6.8c0,0,0,0,0,0l-1.9,5.1c-1,2.7-4.1,4.1-6.8,3.1l-1.9-0.7c-0.1,0-0.2,0-0.2,0.1c-0.9,1.2-2,2.3-3.1,3.3
			c-0.1,0.1-0.1,0.2-0.1,0.2l0.8,1.8C530,116.7,528.8,119.8,526.2,121z M507.5,116.7c0.4-0.2,0.8-0.3,1.2-0.2c1.4,0.1,2.7,0,4.1-0.1
			c1.1-0.1,2.2,0.5,2.7,1.5l0.8,1.8c0.7,1.4,2.4,2.1,3.8,1.4l5-2.3c1.4-0.7,2.1-2.4,1.4-3.8l-0.8-1.8c-0.5-1-0.2-2.3,0.6-3.1
			c1-0.9,2-1.9,2.8-3c0.7-0.9,1.9-1.2,3-0.8l1.9,0.7c1.5,0.6,3.1-0.2,3.7-1.7l1.9-5.1c0.6-1.5-0.2-3.1-1.7-3.7l-1.9-0.7
			c-1.1-0.4-1.8-1.5-1.7-2.6c0.1-1.4,0-2.7-0.1-4.1c-0.1-1.1,0.5-2.2,1.5-2.7l1.8-0.8c0.9-0.4,1.6-1.3,1.7-2.3c-2.6,0.1-5-1.4-6-3.7
			l-1.1-2.3c-0.1-0.2-0.3-0.4-0.6-0.3c-1.9,0.2-3.8,0.3-5.7,0.2c-0.3,0-0.5,0.1-0.6,0.4l-0.9,2.4c-1.2,3.3-4.9,5-8.2,3.7l-6.5-2.4
			c-3.3-1.2-5-4.9-3.7-8.2l0.9-2.4c0.1-0.2,0-0.5-0.2-0.7c-1.5-1.2-2.9-2.5-4.1-3.9c-0.2-0.2-0.4-0.2-0.7-0.1l-2.3,1.1
			c-2,0.9-4.4,0.7-6.2-0.5c-0.5,0.8-0.5,1.8-0.1,2.6l0.8,1.8c0.5,1,0.2,2.3-0.6,3.1c-1,0.9-2,1.9-2.8,3c-0.7,0.9-1.9,1.3-3,0.8
			l-1.9-0.7c-1.5-0.6-3.1,0.2-3.7,1.7l-1.9,5.1c-0.6,1.5,0.2,3.1,1.7,3.7l1.9,0.7c1.1,0.4,1.8,1.5,1.7,2.6c-0.1,1.4,0,2.7,0.1,4.1
			c0.1,1.1-0.5,2.2-1.5,2.7l-1.8,0.8c-1.4,0.7-2.1,2.4-1.4,3.8l2.3,5c0.7,1.4,2.4,2.1,3.8,1.4l1.8-0.8c1-0.5,2.3-0.2,3.1,0.6
			c0.9,1,1.9,2,3,2.8c0.9,0.7,1.2,1.9,0.8,3l-0.7,1.9c-0.6,1.5,0.2,3.1,1.7,3.7l5.1,1.9c1.5,0.6,3.1-0.2,3.7-1.7l0.7-1.9
			C506.3,117.5,506.8,116.9,507.5,116.7z"/>
		<path class="st4" d="M518,109.6c-9.8,4.4-21.3,0.1-25.8-9.7c-4.4-9.8-0.1-21.3,9.7-25.8c1.6-0.7,3.2-1.2,4.9-1.5
			c0.7-0.1,1.3,0.3,1.4,1c0,0.2,0,0.3,0,0.5c-0.3,1.5,0.3,3.1,1.5,4c0.5,0.4,0.6,1.2,0.2,1.7c-0.2,0.3-0.5,0.5-0.9,0.5
			c-6.4,0.5-11.2,6.1-10.7,12.5c0.5,6.4,6.1,11.2,12.5,10.7c6.4-0.5,11.2-6.1,10.7-12.5c-0.2-2.9-1.5-5.6-3.6-7.5
			c-0.5-0.5-0.5-1.2,0-1.7c0.2-0.2,0.5-0.4,0.8-0.4c1.5-0.1,2.9-1,3.5-2.4c0.3-0.6,1-0.9,1.6-0.6c0.2,0.1,0.3,0.2,0.4,0.3
			c7.3,7.8,6.9,20.2-0.9,27.5C521.7,107.6,519.9,108.8,518,109.6z M502.9,76.4c-8.6,3.9-12.4,14-8.5,22.5c3.9,8.6,14,12.4,22.5,8.5
			c8.6-3.9,12.4-14,8.5-22.5c-0.5-1.2-1.2-2.3-2-3.4c-0.6,0.8-1.5,1.4-2.4,1.8c4.7,6.1,3.6,14.9-2.5,19.7
			c-6.1,4.7-14.9,3.6-19.7-2.5c-4.7-6.1-3.6-14.9,2.5-19.7c1.5-1.2,3.3-2.1,5.2-2.5c-0.5-0.9-0.8-1.8-0.9-2.8
			C504.7,75.7,503.8,76,502.9,76.4z"/>
		<path class="st4" d="M534,51.2l-7.1,3.2c-0.6,0.3-1.3,0-1.6-0.6s0-1.3,0.6-1.6L533,49c1.6-0.7,2.3-2.6,1.6-4.2
			c-0.7-1.6-2.6-2.3-4.2-1.6l-4.4,2c-2.8,1.3-6.1,0-7.4-2.8c-1.2-2.8,0-6.1,2.8-7.3l6.3-2.8c0.6-0.3,1.3,0,1.6,0.6
			c0.3,0.6,0,1.3-0.6,1.6l-6.3,2.8c-1.6,0.7-2.3,2.6-1.5,4.2c0.7,1.5,2.6,2.2,4.1,1.5l4.4-2c2.8-1.3,6.1,0,7.4,2.8
			C538.1,46.6,536.8,50,534,51.2z"/>
		<path class="st4" d="M533.1,55c-0.6,0.3-1.3,0-1.6-0.6L521.7,33c-0.3-0.6,0-1.3,0.6-1.6c0.6-0.3,1.3,0,1.6,0.6l9.7,21.4
			C533.9,54,533.7,54.7,533.1,55z"/>
		<path class="st4" d="M535.7,60.8c-9.7,4.4-21.2,0.1-25.6-9.6c-4.4-9.7-0.1-21.2,9.6-25.6c9.7-4.4,21.2-0.1,25.6,9.6l0,0
			C549.7,44.9,545.4,56.3,535.7,60.8z M520.7,27.8c-8.5,3.9-12.2,13.9-8.4,22.3c3.9,8.5,13.9,12.2,22.3,8.4
			c8.5-3.9,12.2-13.9,8.4-22.3C539.2,27.7,529.2,24,520.7,27.8z"/>
	</g>
</g>
</svg>
