<?xml version="1.0" encoding="utf-8"?>
<!-- Generator: Adobe Illustrator 25.0.0, SVG Export Plug-In . SVG Version: 6.00 Build 0)  -->
<svg version="1.1" id="Layer_1" xmlns="http://www.w3.org/2000/svg" xmlns:xlink="http://www.w3.org/1999/xlink" x="0px" y="0px"
	 viewBox="0 0 56 40" style="enable-background:new 0 0 56 40;" xml:space="preserve">
<style type="text/css">
	.st0{fill:#1B171B;}
	.st1{fill:#1B171B;stroke:#1B171B;stroke-width:1.1829;stroke-miterlimit:10;}
	.st2{fill:url(#SVGID_1_);}
	.st3{fill:#EFE285;}
	.st4{fill:#B6872D;}
	.st5{fill:url(#SVGID_2_);}
	.st6{fill:url(#SVGID_3_);}
	.st7{fill:#E4C96E;}
</style>
<g>
	<g>
		<g>
			<path class="st0" d="M51.6,25.5l-23,12c-0.2,0.1-0.4,0.1-0.6,0.1s-0.4,0-0.6-0.1L4.4,25.8c-0.6-0.3-0.9-1.1-0.6-1.7l8.9-19.2
				c0.2-0.5,0.7-0.7,1.2-0.7h28.3c0.5,0,1,0.3,1.2,0.7l8.7,18.9C52.4,24.5,52.2,25.2,51.6,25.5z"/>
			<path class="st1" d="M17.3,1.4c0-0.2-0.2-0.3-0.3-0.4c-0.2-0.1-0.4,0-0.5,0.1c-0.1,0.1-1.9,1.4-3.3,3.2c-1.3,1.6-2.1,3-2.1,3
				C11,7.5,11,7.5,11,7.6c0,0.1-0.7,5.2-1.5,9.3C8.7,21.1,7,24.7,7,24.7c-0.1,0.2-0.1,0.4,0.1,0.6c0,0.1,0.9,1.3,1.8,2.2
				c0.9,1,2.8,2.7,2.9,2.8c0.1,0.1,0.3,0.2,0.5,0.1c0.2-0.1,0.3-0.2,0.3-0.4l0.7-3.9c0.2,0.1,0.6,0.2,0.9,0.3c0.5,0.1,1,0.3,1.3,0.3
				l0.7,6.3c0,0.2,0.1,0.3,0.3,0.4c0,0,0.8,0.4,2.2,0.9c1.4,0.5,3.1,0.7,3.1,0.7c0,0,0,0,0.1,0c0.1,0,0.3-0.1,0.4-0.1
				c0.1-0.1,0.2-0.3,0.2-0.4c0-0.1-0.3-7.8-1.6-16.2C19.5,9.9,17.3,1.5,17.3,1.4z M15.1,21.4L14,21.4c0.1-0.8,0.3-2.2,0.5-3.3
				c0-0.2,0.1-0.5,0.1-0.9C14.8,18.9,15,20.6,15.1,21.4z"/>
			<path class="st1" d="M49.3,24.7c0,0-1.7-3.6-2.5-7.8c-0.8-4.1-1.5-9.3-1.5-9.3c0-0.1,0-0.1-0.1-0.2c0-0.1-0.8-1.4-2.1-3
				c-1.4-1.8-3.2-3.2-3.3-3.2C39.7,1,39.5,1,39.3,1.1C39.2,1.1,39,1.3,39,1.4c0,0.1-2.2,8.4-3.5,16.7c-1.3,8.3-1.6,16.1-1.6,16.2
				c0,0.2,0.1,0.3,0.2,0.4c0.1,0.1,0.2,0.1,0.4,0.1c0,0,0,0,0.1,0c0.1,0,1.7-0.2,3.1-0.7c1.4-0.5,2.1-0.8,2.2-0.9
				c0.2-0.1,0.3-0.2,0.3-0.4l0.7-6.3c0.3-0.1,0.8-0.2,1.3-0.3c0.3-0.1,0.7-0.2,0.9-0.3l0.7,3.9c0,0.2,0.2,0.3,0.3,0.4
				c0.2,0.1,0.4,0,0.5-0.1c0.1-0.1,2-1.8,2.9-2.8c0.9-1,1.8-2.2,1.8-2.2C49.4,25.1,49.4,24.9,49.3,24.7z M42.2,21.4l-1.1,0.1
				c0.1-0.9,0.2-2.6,0.5-4.3c0,0.3,0.1,0.6,0.1,0.9C41.9,19.2,42.1,20.6,42.2,21.4z"/>
			<path class="st1" d="M28,1.3c-2.4,0-3.9,1.7-4,1.8c-0.1,0.1-0.1,0.2-0.1,0.4c0,0.1,0.7,9.4,0.7,15.9c0,4.1-0.3,17.7-0.3,17.8
				c0,0.1,0,0.3,0.1,0.4c0.1,0.1,1.3,1.4,3.6,1.4c2.2,0,3.5-1.3,3.6-1.4c0.1-0.1,0.1-0.2,0.1-0.4c0-0.1-0.3-11.5-0.3-17.8
				c0-6.3,0.7-15.8,0.7-15.9c0-0.1,0-0.3-0.1-0.4C31.9,3.1,30.4,1.3,28,1.3z"/>
			
				<linearGradient id="SVGID_1_" gradientUnits="userSpaceOnUse" x1="28.121" y1="3.6185" x2="28.121" y2="40.3347" gradientTransform="matrix(1 0 0 -1 0 42)">
				<stop  offset="8.582770e-02" style="stop-color:#915F36"/>
				<stop  offset="0.2669" style="stop-color:#CF9A3F"/>
				<stop  offset="0.331" style="stop-color:#D3A348"/>
				<stop  offset="0.4294" style="stop-color:#DCB85C"/>
				<stop  offset="0.5491" style="stop-color:#EBDB7D"/>
				<stop  offset="0.5737" style="stop-color:#EFE285"/>
				<stop  offset="0.6506" style="stop-color:#E4C96E"/>
				<stop  offset="0.7733" style="stop-color:#CF9A3F"/>
				<stop  offset="0.9729" style="stop-color:#7D4E25"/>
			</linearGradient>
			<path class="st2" d="M28,38.4c-1.8,0-3-1-3.1-1.2c0-0.7,0.3-13.8,0.3-17.8c0-6.4-0.7-15.4-0.7-16c0.2-0.2,1.6-1.6,3.5-1.6
				c2,0,3.3,1.5,3.4,1.6c0,0.5-0.7,9.7-0.7,15.9c0,6.2,0.3,17.2,0.3,17.8C30.9,37.3,29.8,38.4,28,38.4z M21.8,34.3
				c-0.3,0-1.7-0.2-2.9-0.7c-1.2-0.4-1.9-0.8-2.1-0.8l-0.7-6.6l0,0c0,0-0.8-0.2-1.6-0.4s-1.5-0.5-1.5-0.5l-0.1,0l-0.8,4.5
				c-0.4-0.3-2-1.8-2.8-2.6c-0.8-0.9-1.6-2-1.8-2.2c0.2-0.4,1.8-3.9,2.5-7.9c0.8-4.1,1.5-9.1,1.5-9.4c0.1-0.1,0.9-1.4,2.1-2.9
				c1.2-1.5,2.8-2.8,3.1-3.1c0.2,0.9,2.2,8.8,3.5,16.6C21.5,26.1,21.8,33.5,21.8,34.3z M14.3,11.5c0,0-0.1,4.7-0.4,6.4
				c-0.3,1.7-0.6,3.9-0.6,3.9l0,0.1l2.4,0.1l0-0.1c0,0-0.2-2.9-0.6-5.5c-0.4-2.6-0.7-5-0.7-5L14.3,11.5z M34.4,34.3
				c0-0.8,0.4-8.1,1.6-16c1.2-7.8,3.3-15.7,3.5-16.6c0.3,0.3,1.9,1.5,3.1,3.1c1.2,1.5,2,2.8,2.1,2.9c0,0.3,0.7,5.3,1.5,9.4
				c0.8,4,2.4,7.5,2.5,7.9c-0.1,0.2-1,1.3-1.8,2.2c-0.8,0.9-2.4,2.3-2.8,2.6l-0.8-4.5l-0.1,0c0,0-0.6,0.2-1.5,0.5
				c-0.8,0.2-1.6,0.4-1.6,0.4l0,0l-0.7,6.6c-0.1,0.1-0.9,0.4-2.1,0.8C36.2,34,34.8,34.2,34.4,34.3z M41.8,11.5c0,0-0.3,2.4-0.7,5
				c-0.4,2.6-0.6,5.5-0.6,5.5l0,0.1l2.4-0.1l0-0.1c0,0-0.4-2.2-0.6-3.9c-0.3-1.7-0.4-6.4-0.4-6.4L41.8,11.5z"/>
			<path class="st3" d="M39.6,1.8c0.5,0.4,1.9,1.5,3,3c1.2,1.5,1.9,2.8,2,2.9c0.1,0.4,0.7,5.4,1.5,9.4c0.8,3.9,2.3,7.3,2.5,7.9
				c-0.2,0.2-1,1.3-1.8,2.1c-0.7,0.8-2.2,2.1-2.7,2.6l-0.7-4.3l0-0.1l-0.1,0c0,0-0.6,0.2-1.5,0.5c-0.8,0.2-1.6,0.4-1.6,0.4l-0.1,0
				l0,0.1l-0.7,6.6c-0.2,0.1-0.9,0.4-2,0.8c-1.1,0.4-2.4,0.6-2.9,0.6c0-1.1,0.4-8.3,1.6-15.9C37.3,10.7,39.2,3,39.6,1.8z M40.4,22.1
				l0.1,0l2.3-0.1l0.1,0l0-0.1c0,0-0.4-2.2-0.6-3.9c-0.3-1.7-0.4-6.3-0.4-6.4l-0.2,0c0,0-0.3,2.4-0.7,5c-0.4,2.6-0.6,5.5-0.6,5.5
				L40.4,22.1z M16.7,1.8c0.3,1.2,2.3,8.9,3.5,16.5c1.2,7.7,1.6,14.9,1.6,15.9c-0.4-0.1-1.7-0.2-2.9-0.6c-1.1-0.4-1.8-0.7-2-0.8
				l-0.7-6.6l0-0.1l-0.1,0c0,0-0.8-0.2-1.6-0.4c-0.8-0.2-1.5-0.5-1.5-0.5l-0.1,0l0,0.1L12,29.6c-0.5-0.4-2-1.7-2.7-2.6
				c-0.8-0.8-1.6-1.9-1.8-2.1c0.2-0.5,1.8-3.9,2.5-7.9c0.8-4,1.4-9,1.5-9.4c0.1-0.2,0.9-1.5,2-2.9C14.8,3.3,16.2,2.1,16.7,1.8z
				 M15.8,22.1l0-0.1c0,0-0.2-2.9-0.6-5.5c-0.4-2.6-0.7-5-0.7-5l-0.2,0c0,0-0.1,4.7-0.4,6.4c-0.3,1.7-0.6,3.9-0.6,3.9l0,0.1l0.1,0
				l2.3,0.1L15.8,22.1z M28,1.9c1.9,0,3.1,1.4,3.3,1.6c0,0.7-0.7,9.7-0.7,15.9c0,6.1,0.3,16.9,0.3,17.8c-0.2,0.2-1.3,1.2-3.1,1.2
				c-1.8,0-2.9-0.9-3.1-1.1c0-0.9,0.3-13.9,0.3-17.8c0-6.3-0.6-15.2-0.7-15.9C24.8,3.2,26.1,1.9,28,1.9z M39.5,1.6
				c0,0-2.2,8.3-3.5,16.7c-1.3,8.4-1.6,16.1-1.6,16.1s1.7-0.2,3-0.7c1.4-0.5,2.1-0.8,2.1-0.8l0.7-6.6c0,0,0.8-0.2,1.7-0.4
				c0.8-0.2,1.5-0.5,1.5-0.5l0.8,4.5c0,0,2-1.7,2.9-2.7c0.9-1,1.8-2.2,1.8-2.2s-1.7-3.6-2.6-7.9c-0.8-4.2-1.5-9.4-1.5-9.4
				s-0.8-1.4-2.1-3C41.3,2.9,39.5,1.6,39.5,1.6z M40.6,22c0,0,0.2-2.8,0.6-5.5c0.4-2.7,0.7-5,0.7-5s0.1,4.7,0.4,6.4
				c0.3,1.7,0.6,3.9,0.6,3.9L40.6,22z M16.8,1.6c0,0-1.8,1.4-3.2,3.1c-1.3,1.6-2.1,3-2.1,3S10.8,12.8,10,17
				c-0.8,4.3-2.6,7.9-2.6,7.9s0.9,1.2,1.8,2.2c0.9,1,2.9,2.7,2.9,2.7l0.8-4.5c0,0,0.6,0.2,1.5,0.5c0.8,0.2,1.7,0.4,1.7,0.4l0.7,6.6
				c0,0,0.7,0.3,2.1,0.8c1.4,0.5,3,0.7,3,0.7s-0.3-7.7-1.6-16.1C18.9,9.9,16.8,1.6,16.8,1.6z M15.7,22l-2.3-0.1c0,0,0.4-2.2,0.6-3.9
				c0.3-1.7,0.4-6.4,0.4-6.4s0.3,2.3,0.7,5C15.4,19.2,15.7,22,15.7,22z M28,1.8c-2.2,0-3.6,1.6-3.6,1.6s0.7,9.3,0.7,16
				c0,4.1-0.3,17.9-0.3,17.9s1.1,1.2,3.2,1.2c2,0,3.2-1.2,3.2-1.2s-0.3-11.4-0.3-17.8c0-6.4,0.7-15.9,0.7-15.9S30.2,1.8,28,1.8z"/>
			<path class="st4" d="M5.1,24.7L14,5.5h28.3l8.7,18.9L28,36.3L5.1,24.7z"/>
			<path class="st3" d="M42.2,5.6l8.6,18.8L28,36.3L5.2,24.7L14,5.6H42.2z M42.3,5.5H13.9L5,24.7L28,36.4l23-12L42.3,5.5z"/>
			
				<linearGradient id="SVGID_2_" gradientUnits="userSpaceOnUse" x1="27.9996" y1="6.6411" x2="27.9996" y2="35.5696" gradientTransform="matrix(1 0 0 -1 0 42)">
				<stop  offset="0" style="stop-color:#8B181B"/>
				<stop  offset="0.9729" style="stop-color:#E01F26"/>
			</linearGradient>
			<path class="st5" d="M6.3,24.3l21.6,11L49.6,24L41.6,6.4H14.6L6.3,24.3z"/>
			<path class="st0" d="M21.3,18.1C20,9.7,17.8,1.4,17.8,1.3c-0.1-0.4-0.4-0.7-0.8-0.8s-0.8-0.1-1.1,0.2C15.8,0.7,14,2.1,12.5,4
				c-1.3,1.7-2.1,3.1-2.2,3.1c-0.1,0.1-0.1,0.3-0.1,0.4c0,0.1-0.7,5.2-1.5,9.3c-0.8,4-2.4,7.6-2.5,7.6c-0.2,0.4-0.1,0.9,0.1,1.2
				c0,0,0.9,1.3,1.9,2.3c0.9,1,2.9,2.7,3,2.8c0.3,0.3,0.8,0.4,1.2,0.2c0.4-0.1,0.7-0.5,0.8-0.9l0.5-3.2c0.1,0,0.1,0,0.2,0.1
				c0.3,0.1,0.6,0.2,0.9,0.2l0.6,5.8c0,0.4,0.3,0.8,0.7,0.9c0,0,0.8,0.4,2.2,0.9c1.5,0.5,3.2,0.7,3.3,0.7c0,0,0.1,0,0.1,0
				c0.3,0,0.6-0.1,0.8-0.3c0.2-0.2,0.4-0.6,0.4-0.9C22.9,34.2,22.6,26.5,21.3,18.1z"/>
			<path class="st0" d="M49.8,24.4c0-0.1-1.7-3.6-2.5-7.6c-0.8-4-1.5-9.1-1.5-9.3c0-0.2-0.1-0.3-0.1-0.4c0-0.1-0.8-1.5-2.2-3.1
				c-1.5-1.9-3.3-3.3-3.4-3.3c-0.3-0.2-0.7-0.3-1.1-0.2c-0.4,0.1-0.7,0.4-0.8,0.8c-0.1,0.3-2.2,8.5-3.5,16.8
				c-1.3,8.4-1.6,16.2-1.6,16.2c0,0.3,0.1,0.7,0.4,0.9c0.2,0.2,0.5,0.3,0.8,0.3c0,0,0.1,0,0.1,0c0.1,0,1.8-0.2,3.3-0.7
				c1.4-0.5,2.2-0.9,2.2-0.9c0.4-0.2,0.6-0.5,0.7-0.9l0.6-5.8c0.3-0.1,0.6-0.2,0.9-0.2c0.1,0,0.1,0,0.2-0.1l0.5,3.2
				c0.1,0.4,0.4,0.8,0.8,0.9c0.4,0.1,0.8,0.1,1.2-0.2c0.1-0.1,2.1-1.8,3-2.8c0.9-1,1.8-2.2,1.9-2.3C49.9,25.3,49.9,24.8,49.8,24.4z"
				/>
			<path class="st0" d="M27.9,0.6c-2.6,0-4.4,1.9-4.5,2c-0.2,0.2-0.3,0.6-0.3,0.9c0,0.1,0.7,9.3,0.7,15.9c0,4.1-0.3,17.7-0.3,17.8
				c0,0.3,0.1,0.6,0.3,0.8c0.2,0.2,1.6,1.6,4,1.6c2.5,0,4-1.5,4-1.6c0.2-0.2,0.3-0.5,0.3-0.8c0-0.1-0.3-11.4-0.3-17.8
				c0-6.3,0.7-15.7,0.7-15.8c0-0.3-0.1-0.6-0.2-0.8C32.2,2.7,30.6,0.6,27.9,0.6z"/>
			
				<linearGradient id="SVGID_3_" gradientUnits="userSpaceOnUse" x1="28.0025" y1="3.6185" x2="28.0025" y2="40.3229" gradientTransform="matrix(1 0 0 -1 0 42)">
				<stop  offset="8.582770e-02" style="stop-color:#915F36"/>
				<stop  offset="0.2669" style="stop-color:#CF9A3F"/>
				<stop  offset="0.331" style="stop-color:#D3A348"/>
				<stop  offset="0.4294" style="stop-color:#DCB85C"/>
				<stop  offset="0.5491" style="stop-color:#EBDB7D"/>
				<stop  offset="0.5737" style="stop-color:#EFE285"/>
				<stop  offset="0.6506" style="stop-color:#E4C96E"/>
				<stop  offset="0.7733" style="stop-color:#CF9A3F"/>
				<stop  offset="0.9729" style="stop-color:#7D4E25"/>
			</linearGradient>
			<path class="st6" d="M27.8,38.4c-1.8,0-3-1-3.1-1.2c0-0.7,0.3-13.8,0.3-17.8c0-6.4-0.7-15.4-0.7-16c0.2-0.2,1.6-1.6,3.5-1.6
				c2,0,3.3,1.5,3.4,1.6c0,0.5-0.7,9.7-0.7,15.9c0,6.2,0.3,17.2,0.3,17.8C30.8,37.3,29.7,38.4,27.8,38.4z M21.7,34.3
				c-0.3,0-1.7-0.2-2.9-0.7c-1.2-0.4-1.9-0.8-2.1-0.8l-0.7-6.6l0,0c0,0-0.8-0.2-1.6-0.4c-0.8-0.2-1.5-0.5-1.5-0.5l-0.1,0l-0.8,4.5
				c-0.4-0.3-2-1.8-2.8-2.6c-0.8-0.9-1.6-2-1.8-2.2c0.2-0.4,1.8-3.9,2.5-7.9c0.8-4.1,1.5-9.1,1.5-9.4c0.1-0.1,0.9-1.4,2.1-2.9
				c1.2-1.5,2.8-2.8,3.1-3.1c0.2,0.9,2.2,8.7,3.5,16.6C21.3,26.1,21.7,33.5,21.7,34.3z M14.2,11.5c0,0-0.1,4.7-0.4,6.4
				c-0.3,1.7-0.6,3.9-0.6,3.9l0,0.1l2.4,0.1l0-0.1c0,0-0.2-2.9-0.6-5.5c-0.4-2.6-0.7-5-0.7-5L14.2,11.5z M34.3,34.3
				c0-0.8,0.4-8.1,1.6-16c1.2-7.8,3.3-15.7,3.5-16.6c0.3,0.3,1.9,1.5,3.1,3.1c1.2,1.5,2,2.8,2.1,2.9c0,0.3,0.7,5.3,1.5,9.4
				c0.8,4,2.4,7.5,2.5,7.9c-0.1,0.2-1,1.3-1.8,2.2c-0.8,0.9-2.4,2.3-2.8,2.6l-0.8-4.5l-0.1,0c0,0-0.6,0.2-1.5,0.5
				c-0.8,0.2-1.6,0.4-1.6,0.4l0,0l-0.7,6.6c-0.1,0.1-0.9,0.4-2.1,0.8C36.1,34,34.6,34.2,34.3,34.3z M41.7,11.5c0,0-0.3,2.4-0.7,5
				c-0.4,2.6-0.6,5.5-0.6,5.5l0,0.1l2.4-0.1l0-0.1c0,0-0.4-2.2-0.6-3.9c-0.3-1.7-0.4-6.4-0.4-6.4L41.7,11.5z"/>
			<path class="st3" d="M16.6,1.8c0.3,1.2,2.3,8.9,3.5,16.5c1.2,7.7,1.6,14.9,1.6,15.9c-0.4-0.1-1.7-0.2-2.9-0.6
				c-1.1-0.4-1.8-0.7-2-0.8L16,26.2l0-0.1l-0.1,0c0,0-0.8-0.2-1.6-0.4c-0.8-0.2-1.5-0.5-1.5-0.5l-0.1,0l0,0.1l-0.7,4.3
				c-0.5-0.4-2-1.7-2.7-2.6c-0.8-0.8-1.6-1.9-1.8-2.1c0.2-0.5,1.8-3.9,2.5-7.9c0.8-4,1.4-9,1.5-9.4c0.1-0.2,0.9-1.5,2-2.9
				C14.7,3.3,16.1,2.1,16.6,1.8z M15.7,22.1l0-0.1c0,0-0.2-2.9-0.6-5.5c-0.4-2.6-0.7-5-0.7-5l-0.2,0c0,0-0.1,4.7-0.4,6.4
				c-0.3,1.7-0.6,3.9-0.6,3.9l0,0.1l0.1,0l2.3,0.1L15.7,22.1z M39.4,1.8c0.4,0.4,1.9,1.5,3,3c1.2,1.5,1.9,2.8,2,2.9
				c0.1,0.4,0.7,5.4,1.5,9.4c0.8,3.9,2.3,7.3,2.5,7.9c-0.2,0.2-1,1.3-1.8,2.1c-0.7,0.8-2.2,2.1-2.7,2.6l-0.7-4.3l0-0.1l-0.1,0
				c0,0-0.6,0.2-1.5,0.5c-0.8,0.2-1.6,0.4-1.6,0.4l-0.1,0l0,0.1l-0.7,6.6c-0.2,0.1-0.9,0.4-2,0.8c-1.1,0.4-2.4,0.6-2.9,0.6
				c0-1.1,0.4-8.3,1.6-15.9C37.2,10.7,39.1,3,39.4,1.8z M40.3,22.1l0.1,0l2.3-0.1l0.1,0l0-0.1c0,0-0.4-2.2-0.6-3.9
				c-0.3-1.7-0.4-6.3-0.4-6.4l-0.2,0c0,0-0.3,2.4-0.7,5c-0.4,2.6-0.6,5.5-0.6,5.5L40.3,22.1z M27.9,1.9c1.9,0,3.1,1.4,3.3,1.6
				c0,0.7-0.7,9.7-0.7,15.9c0,6.1,0.3,16.9,0.3,17.8c-0.2,0.2-1.3,1.2-3.1,1.2c-1.8,0-2.9-0.9-3.1-1.1c0-0.9,0.3-13.9,0.3-17.8
				c0-6.3-0.6-15.2-0.7-15.9C24.7,3.2,26,1.9,27.9,1.9z M39.4,1.6c0,0-2.2,8.3-3.5,16.7c-1.3,8.4-1.6,16.1-1.6,16.1s1.7-0.2,3-0.7
				c1.4-0.5,2.1-0.8,2.1-0.8l0.7-6.6c0,0,0.8-0.2,1.7-0.4c0.8-0.2,1.5-0.5,1.5-0.5l0.8,4.5c0,0,2-1.7,2.9-2.7c0.9-1,1.8-2.2,1.8-2.2
				S47,21.3,46.1,17c-0.8-4.2-1.5-9.4-1.5-9.4s-0.8-1.4-2.1-3C41.2,2.9,39.4,1.6,39.4,1.6z M40.4,22c0,0,0.2-2.8,0.6-5.5
				c0.4-2.7,0.7-5,0.7-5s0.1,4.7,0.4,6.4c0.3,1.7,0.6,3.9,0.6,3.9L40.4,22z M16.6,1.6c0,0-1.8,1.4-3.2,3.1c-1.3,1.6-2.1,3-2.1,3
				s-0.7,5.2-1.5,9.4c-0.8,4.3-2.6,7.9-2.6,7.9s0.9,1.2,1.8,2.2c0.9,1,2.9,2.7,2.9,2.7l0.8-4.5c0,0,0.6,0.2,1.5,0.5
				c0.8,0.2,1.7,0.4,1.7,0.4l0.7,6.6c0,0,0.7,0.3,2.1,0.8c1.4,0.5,3,0.7,3,0.7s-0.3-7.7-1.6-16.1S16.6,1.6,16.6,1.6z M15.6,22
				l-2.3-0.1c0,0,0.4-2.2,0.6-3.9c0.3-1.7,0.4-6.4,0.4-6.4s0.3,2.3,0.7,5C15.3,19.2,15.6,22,15.6,22z M27.9,1.8
				c-2.2,0-3.6,1.6-3.6,1.6s0.7,9.3,0.7,16c0,4.1-0.3,17.9-0.3,17.9s1.1,1.2,3.2,1.2c2,0,3.2-1.2,3.2-1.2s-0.3-11.4-0.3-17.8
				c0-6.4,0.7-15.9,0.7-15.9S30.1,1.8,27.9,1.8z"/>
			<path class="st0" d="M55.3,14.9c-0.1-0.5-0.5-0.9-1-1.3c-0.4-0.3-0.9-0.4-1.4-0.5c-0.5-0.1-1,0-1.4,0.1c-0.2-0.1-0.4-0.2-0.6-0.2
				l-2.3-0.3c-0.3,0-0.6,0-0.8,0.1c-0.1-0.1-0.3-0.1-0.4-0.2c-0.2-0.1-0.6-0.2-1.6-0.3l-1-0.1c-0.1,0-0.2,0-0.4,0
				c-0.1,0-0.2-0.1-0.3-0.1L42.6,12c-0.1,0-0.1,0-0.2,0c-0.1,0-0.1,0-0.2,0l-1.4-0.1c-0.1,0-0.2,0-0.2,0c-0.1,0-0.2,0-0.2,0
				l-3.1-0.2c-0.1,0-0.2,0-0.3,0c-0.1,0-0.2,0-0.3,0l-1.2-0.1c-0.1,0-0.3,0-0.4,0c-0.1,0-0.3-0.1-0.4-0.1l-1.2-0.1
				c-0.1,0-0.2,0-0.4,0c-0.1,0-0.2-0.1-0.3-0.1l-2.3-0.1c-0.1,0-0.1,0-0.2,0c-0.1,0-0.2,0-0.2,0l-1.5,0c-0.1,0-0.2,0-0.3,0
				c-0.1,0-0.2,0-0.3,0l-1.5,0c-0.3,0-0.5,0.1-0.7,0.2c-0.1,0-0.1,0-0.2-0.1c-0.2-0.1-0.7-0.1-1.7-0.1l-1.1,0
				c-0.2,0-0.4,0.1-0.6,0.2c-0.2-0.1-0.4-0.1-0.6-0.1l-2,0.1c-0.5,0-1,0.4-1.2,0.9c-0.1-0.1-0.2-0.3-0.3-0.4c-0.3-0.2-0.6-0.3-1-0.3
				l-1.2,0.1c-0.1,0-0.3,0-0.4,0.1c-0.1,0-0.3,0-0.4,0l-1.2,0.1c-0.1,0-0.2,0-0.4,0.1c-0.1,0-0.2,0-0.3,0l-1.4,0.1
				c-0.4,0-0.7,0.2-0.9,0.5c-0.2,0.2-0.3,0.5-0.3,0.7c-0.1-0.2-0.2-0.5-0.4-0.6c-0.3-0.2-0.6-0.3-1-0.3l-1.4,0.1
				c-0.2,0-0.5,0.1-0.6,0.2c-0.2-0.1-0.4-0.1-0.7-0.1L5,12.8c-0.2,0-0.4,0.1-0.6,0.2c-0.2-0.1-0.4-0.1-0.6-0.1l-2,0.3
				c-0.7,0.1-1.2,0.7-1.2,1.3l0,5.5c0,0.4,0.2,0.7,0.5,1c0.3,0.3,0.7,0.4,1.1,0.3l1.4-0.2c0.1,0,0.2,0,0.3-0.1c0.1,0,0.2,0,0.3,0
				l1.4-0.2c0,0,0.1,0,0.1,0c0.1,0,0.1,0,0.2,0l2.3-0.3c0.1,0,0.1,0,0.2,0c0.1,0,0.1,0,0.2,0l2.3-0.2c0.3,0,0.6-0.2,0.8-0.4
				c0.2,0.2,0.5,0.2,0.9,0.2l1.4-0.1c0.1,0,0.2,0,0.3-0.1c0.1,0,0.2,0,0.3,0l1.2-0.1c0.1,0,0.2,0,0.4-0.1c0.1,0,0.2,0,0.4,0l1.2-0.1
				c0.3,0,0.5-0.1,0.7-0.3c0.2,0.1,0.5,0.2,0.7,0.2c0,0,0,0,0.1,0l1.5-0.1c0.1,0,0.2,0,0.3-0.1c0.1,0,0.2,0,0.3,0l1.4-0.1
				c0,0,0.1,0,0.1,0c0,0,0.1,0,0.1,0l1.8,0c0.4,0,0.8,0,1-0.1c0.2-0.1,0.4-0.1,0.6-0.2c0.2,0.2,0.5,0.3,0.8,0.3l2.1,0
				c0.2,0,0.3,0,0.5-0.1c0.1,0.1,0.3,0.1,0.5,0.1l2.4,0.1c0.1,0,0.1,0,0.2,0c0.1,0,0.1,0,0.2,0l1.2,0.1c0.1,0,0.2,0,0.4,0
				c0.1,0,0.2,0.1,0.4,0.1l1.2,0.1c0.2,0,0.4,0,0.6-0.1c0.2,0.1,0.4,0.2,0.6,0.2l1.4,0.1c0.4,0,0.7-0.1,1-0.3
				c0.1,0.1,0.3,0.2,0.5,0.3c0.4,0.2,0.8,0.4,1.4,0.4c0.5,0,0.9,0,1.3-0.1c0.1,0,0.1,0,0.2-0.1c0.2,0.1,0.4,0.2,0.7,0.3l1.4,0.2
				c0.1,0,0.1,0,0.2,0c0.1,0,0.1,0,0.2,0l1.3,0.1c0.1,0,0.2,0,0.3,0c0.1,0,0.2,0.1,0.3,0.1l2.4,0.3c0.2,0,0.4,0,0.6-0.1
				c0.4,0.2,0.8,0.4,1.3,0.5c0.2,0,0.4,0,0.5,0c0.3,0,0.7,0,1-0.1c0.6-0.2,1-0.5,1.3-0.9c0.2-0.3,0.4-0.8,0.5-1.4
				c0.1-0.7,0.1-1.2-0.1-1.7c0.2-0.2,0.3-0.4,0.3-0.7l0-0.2C55.4,15.8,55.4,15.3,55.3,14.9z"/>
		</g>
		<polygon class="st7" points="5.3,14.3 6.4,14.1 6.9,18.4 7.7,18.3 7.8,19.1 5.9,19.3 		"/>
		<polygon class="st7" points="8,13.9 9.1,13.8 9.5,18.1 10.4,18.1 10.5,18.8 8.5,19 		"/>
		<polygon class="st7" points="12,13.5 13.1,13.4 13.5,18.5 12.5,18.6 		"/>
		<path class="st7" d="M22.9,12.8l0.9,0c0.2,0,0.3,0,0.5,0c0,0,0,0,0,0c0.5,0,0.8,0,0.9,0.1c0.2,0,0.4,0.1,0.5,0.2
			c0.1,0.1,0.2,0.2,0.2,0.4c0,0.2,0.1,0.5,0.1,1l0.1,1.9c0,0.5,0,0.8,0,0.9c0,0.1-0.1,0.2-0.2,0.3c-0.1,0.1-0.2,0.1-0.3,0.2
			c-0.1,0-0.4,0.1-0.7,0.1l-1.6,0L22.9,12.8z M24,13.5l0.1,3.8h0.1c0.2,0,0.4,0,0.6-0.2c0-0.1,0.1-0.2,0.1-0.8l-0.1-2.1
			c0-0.3,0-0.5,0-0.5c0-0.1-0.1-0.2-0.2-0.3c-0.1,0-0.2-0.1-0.3-0.1H24L24,13.5z"/>
		<polygon class="st7" points="30.5,17.8 30.6,12.7 32.6,12.8 32.6,13.5 31.7,13.5 31.6,14.9 32.5,14.9 32.5,15.6 31.6,15.6 
			31.6,17.1 32.6,17.1 32.6,17.9 		"/>
		<polygon class="st7" points="37.7,18.2 38.1,13.9 37.2,13.8 37.3,13.1 40,13.3 39.9,14 39.1,13.9 38.8,18.3 		"/>
		<path class="st7" d="M42,18.7c-0.1,0-0.2,0-0.2,0c-0.3,0-0.5-0.1-0.8-0.2c-0.2-0.1-0.4-0.3-0.4-0.4c-0.1-0.2-0.1-0.3-0.1-0.5
			c0-0.2,0-0.6,0.1-1.2l0.3-3l1.1,0.1l-0.4,3.9c0,0.3,0,0.4,0,0.5c0,0.1,0.1,0.2,0.3,0.2l0,0c0.1,0,0.3-0.1,0.3-0.2
			c0,0,0.1-0.2,0.1-0.6l0.4-3.8l1.1,0.1L43.3,17c0,0.4-0.1,0.7-0.1,0.8c0,0.1-0.1,0.3-0.2,0.4c-0.1,0.1-0.3,0.2-0.5,0.3
			C42.3,18.6,42.2,18.7,42,18.7z"/>
		<polygon class="st7" points="47.8,19.2 48.5,14.2 50.5,14.4 50.4,15.2 49.4,15 49.3,16.4 50.1,16.5 50,17.2 49.2,17.1 49,18.6 
			50,18.8 49.9,19.5 		"/>
		<path class="st7" d="M52.4,19.9c-0.1,0-0.2,0-0.3,0c-0.3-0.1-0.6-0.2-0.8-0.3c-0.2-0.2-0.3-0.3-0.4-0.5c0-0.2,0-0.5,0-0.9l0-0.2
			l1,0.1l-0.1,0.5c0,0.2,0,0.4,0,0.5c0,0.1,0.2,0.2,0.3,0.2c0,0,0.1,0,0.1,0c0.1,0,0.2,0,0.3-0.1c0.1-0.1,0.1-0.2,0.2-0.4
			c0.1-0.4,0-0.6-0.1-0.8c-0.1-0.1-0.3-0.3-0.6-0.6c-0.4-0.3-0.5-0.5-0.6-0.6c-0.1-0.1-0.1-0.2-0.2-0.4c0-0.2,0-0.4,0-0.7
			c0.1-0.5,0.2-0.7,0.3-0.8c0.1-0.1,0.3-0.2,0.5-0.3c0.1,0,0.3-0.1,0.5-0.1c0.1,0,0.2,0,0.3,0c0.3,0.1,0.6,0.1,0.8,0.3
			c0.2,0.1,0.3,0.3,0.4,0.4c0,0.1,0.1,0.4,0,0.8l0,0l-0.9-0.1l0-0.2c0-0.2,0-0.4,0-0.5c-0.1-0.1-0.2-0.2-0.3-0.2c0,0,0,0-0.1,0
			c-0.1,0-0.2,0-0.3,0.1c-0.1,0.1-0.1,0.2-0.2,0.4c0,0.2,0,0.4,0,0.5c0,0.1,0.2,0.3,0.4,0.5c0.7,0.5,0.9,0.9,1,1
			c0.1,0.2,0.1,0.6,0.1,1.1c-0.1,0.4-0.2,0.7-0.2,0.7c-0.1,0.1-0.3,0.2-0.5,0.3C52.7,19.9,52.6,19.9,52.4,19.9z"/>
		<polygon class="st7" points="35.2,18 34.4,14.6 34.2,17.9 33.4,17.9 33.7,12.9 34.5,12.9 35.4,16.2 35.6,13 36.5,13 36.2,18.1 		
			"/>
		<polygon class="st7" points="14.1,13.3 15,13.3 16.3,16.5 16,13.2 16.9,13.1 17.3,18.2 16.3,18.3 15.1,15 15.3,18.4 14.5,18.4 		
			"/>
		<path class="st7" d="M19.6,13l1.7-0.1l1,5L21.3,18l-0.1-1l-0.8,0l0,1l-1.1,0.1L19.6,13z M20.4,15.6l-0.1,0.8l0.3,0l0.5,0l0-0.2
			c-0.2-0.8-0.2-0.7-0.3-1.7l-0.2-0.9v0v0"/>
		<path class="st7" d="M2.1,14.7l1.7-0.2l1.4,4.9l-1.1,0.1l-0.2-1l-0.8,0.1l0,1l-1.1,0.1L2.1,14.7z M3.1,17.6l0,0.4l0.1,0l0.7-0.1
			l0-0.2C3.6,17,3.6,16.9,3.3,16l-0.2-0.7l0,0l0,0"/>
		<path class="st7" d="M45.9,19l0.2-1.6c0.1-0.4,0-0.6,0-0.6c-0.1-0.1-0.2-0.2-0.5-0.2l-0.1,0l0,0.1l-0.3,2.3l-1.1-0.1l0.6-5
			l0.8,0.1c0.6,0.1,1.1,0.2,1.3,0.2c0.2,0.1,0.3,0.2,0.4,0.4c0.1,0.2,0.1,0.5,0.1,0.9c-0.1,0.5-0.2,0.7-0.2,0.7
			c-0.1,0.1-0.1,0.1-0.3,0.1c-0.2,0-0.1,0-0.4,0.1l-0.2,0l0,0l0,0l0.2,0.1c0.1,0.1,0.2,0.1,0.3,0.2c0.1,0.1,0.2,0.1,0.2,0.2
			c0.1,0.1,0.1,0.2,0.1,0.3c0,0,0,0.2-0.1,0.8l-0.1,1.2L45.9,19z M45.7,14.6L45.5,16l0.2,0c0.1,0,0.1,0,0.2,0c0.1,0,0.2,0,0.3-0.1
			c0.1-0.1,0.2-0.2,0.2-0.5l0-0.3c0-0.2,0-0.4-0.1-0.5c-0.1-0.1-0.2-0.1-0.4-0.2l-0.2,0L45.7,14.6z"/>
	</g>
	<path class="st7" d="M28.2,16.5c0.2-1,0.3-2,0.4-3l0.1-0.8l1.1,0l-0.7,5.1l-1.8,0l-0.7-5.1l1.1,0C27.9,14.2,28.1,15.5,28.2,16.5"/>
</g>
</svg>
