<?xml version="1.0" encoding="utf-8"?>
<!-- Generator: Adobe Illustrator 25.0.0, SVG Export Plug-In . SVG Version: 6.00 Build 0)  -->
<svg version="1.1" id="Layer_1" xmlns="http://www.w3.org/2000/svg" xmlns:xlink="http://www.w3.org/1999/xlink" x="0px" y="0px"
	 viewBox="0 0 149.8 150" style="enable-background:new 0 0 149.8 150;" xml:space="preserve">
<style type="text/css">
	.st0{fill:#FBF198;}
	.st1{fill:#FAD989;}
	.st2{fill:#FD5C6F;}
	.st3{fill:#5AD6FF;}
	.st4{fill:#35414D;}
	.st5{fill:none;stroke:#35414D;stroke-width:4.3945;stroke-linecap:round;stroke-linejoin:round;stroke-miterlimit:10;}
</style>
<g>
	<g>
		<g>
			<path class="st0" d="M111.2,88l27.2-13c5.1,0,9.2-4.1,9.2-9.2V11.5c0-5.1-4.1-9.2-9.2-9.2H84.1c-5.1,0-9.2,4.1-9.2,9.2L61.6,39.1
				l6,25.4l7.3,7.3l0,0c0,1.8,1.5,3.3,3.3,3.3L111.2,88z"/>
		</g>
		<g>
			<path class="st1" d="M55.7,113.9l-3.9-3.9c-0.6-0.6-0.6-1.5,0-2.1l4.3-4.3c0.6-0.6,1.5-0.6,2.1,0l3.8,3.8
				c1.8,1.8,4.8,1.9,6.6,0.2c2-1.8,2-4.9,0.1-6.8l-8.3-8.3c-3.1-3.1-8-3.1-11.1,0l-22.2,22.2c-0.8,0.8-2,1.1-3.1,0.8
				c-5.7-1.7-12.2-0.2-16.6,4.5c-5.9,6.2-6,16-0.2,22.4c6.4,7,17.2,7.2,23.8,0.6c4.4-4.4,5.8-10.7,4.2-16.3c-0.3-1.1,0-2.3,0.8-3.1
				l6.8-6.8c0.6-0.6,1.6-0.6,2.2,0l3.9,3.9c1.8,1.8,4.8,1.8,6.7,0l0,0C57.6,118.7,57.6,115.7,55.7,113.9z M14.4,137.1
				c-2.3-1.9-2.3-5.4,0-7.3c1.7-1.4,4.2-1.4,5.9,0c2.3,1.9,2.3,5.4,0,7.3C18.6,138.5,16.1,138.5,14.4,137.1z"/>
		</g>
		<g>
			<path class="st2" d="M126.1,72.1L126.1,72.1c0,1.6,1.3,2.9,2.9,2.9h9.4c5.1,0,9.2,4.1,9.2,9.2v54.3c0,5.1-4.1,9.2-9.2,9.2H84.1
				c-5.1,0-9.2-4.1-9.2-9.2V130c0-2,1.7-3.7,3.7-3.7l0,0c8.2,0,14.9-6.6,14.9-14.9l0,0c0-8.2-6.6-14.9-14.9-14.9l0,0
				c-2,0-3.7-1.7-3.7-3.7V77.6c0-1.4,1.2-2.6,2.6-2.6h16.1c1.6,0,2.9-1.3,2.9-2.9l0,0c0-8.2,6.6-14.9,14.9-14.9l0,0
				C119.4,57.3,126.1,63.9,126.1,72.1z"/>
		</g>
		<g>
			<path class="st3" d="M77.9,23.7L77.9,23.7c-1.6,0-2.9-1.3-2.9-2.9v-9.4c0-5.1-4.1-9.2-9.2-9.2H11.4c-5.1,0-9.2,4.1-9.2,9.2v54.3
				c0,5.1,4.1,9.2,9.2,9.2H20c2,0,3.7-1.7,3.7-3.7l0,0c0-8.2,6.6-14.9,14.9-14.9l0,0c8.2,0,14.9,6.6,14.9,14.9l0,0
				c0,2,1.7,3.7,3.7,3.7h15c1.6,0,2.9-1.3,2.9-2.9V56.3c0-1.6,1.3-2.9,2.9-2.9l0,0c8.2,0,14.9-6.6,14.9-14.9l0,0
				C92.7,30.4,86.1,23.7,77.9,23.7z"/>
		</g>
	</g>
	<g>
		<g>
			<path class="st4" d="M72.1,77.2h-15c-3.3,0-5.9-2.6-5.9-5.9c0-7-5.7-12.7-12.7-12.7s-12.7,5.7-12.7,12.7c0,3.3-2.6,5.9-5.9,5.9
				h-8.6C5.1,77.2,0,72.1,0,65.8V11.4C0,5.1,5.1,0,11.4,0h10.8c1.2,0,2.2,1,2.2,2.2s-1,2.2-2.2,2.2H11.4c-3.9,0-7,3.2-7,7v54.3
				c0,3.9,3.2,7,7,7H20c0.8,0,1.5-0.7,1.5-1.5c0-9.4,7.6-17.1,17.1-17.1s17,7.6,17,17.1c0,0.8,0.7,1.5,1.5,1.5h15
				c0.4,0,0.7-0.3,0.7-0.7V56.3c0-2.8,2.3-5.1,5.1-5.1c7,0,12.7-5.7,12.7-12.7s-5.7-12.7-12.7-12.7c-2.8,0-5.1-2.3-5.1-5.1v-9.4
				c0-3.9-3.2-7-7-7h-33c-1.2,0-2.2-1-2.2-2.2s1-2.2,2.2-2.2h33c6.3,0,11.4,5.1,11.4,11.4v9.4c0,0.4,0.3,0.7,0.7,0.7
				c9.4,0,17.1,7.6,17.1,17.1s-7.6,17.1-17.1,17.1c-0.4,0-0.7,0.3-0.7,0.7v15.8C77.2,74.9,74.9,77.2,72.1,77.2z"/>
		</g>
		<g>
			<path class="st4" d="M138.4,150H84.1c-6.3,0-11.4-5.1-11.4-11.4V130c0-3.3,2.6-5.9,5.9-5.9c7,0,12.7-5.7,12.7-12.7
				c0-7-5.7-12.7-12.7-12.7c-3.3,0-5.9-2.6-5.9-5.9V75c0-1.2,1-2.2,2.2-2.2h18.7c0.4,0,0.7-0.3,0.7-0.7c0-9.4,7.6-17.1,17-17.1
				c9.4,0,17.1,7.6,17.1,17.1c0,0.4,0.3,0.7,0.7,0.7h9.4c6.3,0,11.4,5.1,11.4,11.4v36.2c0,1.2-1,2.2-2.2,2.2s-2.2-1-2.2-2.2V84.2
				c0-3.9-3.2-7-7-7H129c-2.8,0-5.1-2.3-5.1-5.1c0-7-5.7-12.7-12.7-12.7c-7,0-12.7,5.7-12.7,12.7c0,2.8-2.3,5.1-5.1,5.1H77v15.6
				c0,0.8,0.7,1.5,1.5,1.5c9.4,0,17,7.6,17,17c0,9.4-7.6,17.1-17,17.1c-0.8,0-1.5,0.7-1.5,1.5v8.6c0,3.9,3.2,7,7,7h54.3
				c3.9,0,7-3.2,7-7v-8.8c0-1.2,1-2.2,2.2-2.2s2.2,1,2.2,2.2v8.8C149.8,144.9,144.7,150,138.4,150z"/>
		</g>
		<g>
			<path class="st4" d="M138.4,77.2h-12.3c-1.2,0-2.2-1-2.2-2.2v-2.9c0-7-5.7-12.7-12.7-12.7c-7,0-12.7,5.7-12.7,12.7V75
				c0,1.2-1,2.2-2.2,2.2H74.8c-1.2,0-2.2-1-2.2-2.2V53.4c0-1.2,1-2.2,2.2-2.2h3c7,0,12.7-5.7,12.7-12.7s-5.7-12.7-12.7-12.7h-3
				c-1.2,0-2.2-1-2.2-2.2V11.5c0-6.3,5.1-11.4,11.4-11.4h54.3c6.3,0,11.4,5.1,11.4,11.4v54.3C149.8,72.1,144.7,77.2,138.4,77.2z
				 M128.3,72.8h10.1c3.9,0,7-3.2,7-7V11.5c0-3.9-3.2-7-7-7H84.1c-3.9,0-7,3.2-7,7v10h0.8c9.4,0,17,7.6,17,17.1s-7.6,17-17,17H77
				v17.2h17.1v-0.7c0-9.4,7.6-17.1,17-17.1c9.4,0,17.1,7.6,17.1,17.1V72.8z"/>
		</g>
		<g>
			<path class="st4" d="M19.5,150c-0.1,0-0.3,0-0.4,0c-5.1-0.1-9.9-2.3-13.4-6.1c-6.5-7.2-6.4-18.3,0.2-25.4
				c4.8-5.1,12.1-7.1,18.8-5.1c0.3,0.1,0.7,0,1-0.3L47.9,91c3.9-3.9,10.3-3.9,14.2,0l8.3,8.3c1.3,1.3,2.1,3.1,2,5s-0.8,3.7-2.2,5
				c-2.7,2.6-7,2.4-9.7-0.3l-3.4-3.4l-3.3,3.3l3.4,3.4c1.3,1.3,2,3,2,4.9s-0.7,3.6-2,4.9c-2.7,2.7-7.1,2.7-9.8,0l-3.4-3.4l-6.4,6.4
				c-0.3,0.3-0.4,0.6-0.3,1c1.9,6.6,0.1,13.6-4.7,18.5C29.2,148,24.5,150,19.5,150z M19.5,117c-3.9,0-7.6,1.6-10.4,4.5
				C4,126.9,4,135.4,9,140.9c2.7,2.9,6.3,4.6,10.2,4.7c3.9,0.1,7.6-1.4,10.4-4.2c3.7-3.7,5.1-9.1,3.6-14.1c-0.6-1.9,0-3.9,1.4-5.3
				l6.8-6.8c1.5-1.5,3.9-1.5,5.3,0l3.9,3.9c1,1,2.6,1,3.6,0c0.5-0.5,0.7-1.1,0.7-1.8c0-0.7-0.3-1.3-0.7-1.8h0l-3.9-3.9
				c-1.4-1.4-1.4-3.8,0-5.2l4.3-4.3c1.4-1.4,3.8-1.4,5.2,0l3.8,3.8c1,1,2.6,1.1,3.6,0.1c0.5-0.5,0.8-1.1,0.8-1.8
				c0-0.7-0.3-1.3-0.7-1.8L59,94.1c-2.2-2.2-5.8-2.2-8,0l-22.2,22.2c-1.4,1.4-3.4,1.9-5.3,1.4C22.2,117.2,20.8,117,19.5,117z
				 M17.4,140.3c-1.5,0-3.1-0.5-4.3-1.5l0,0c-1.6-1.3-2.5-3.3-2.5-5.3c0-2.1,0.9-4,2.5-5.3c2.5-2.1,6.2-2.1,8.7,0
				c1.6,1.3,2.5,3.3,2.5,5.3c0,2.1-0.9,4-2.5,5.3C20.4,139.8,18.9,140.3,17.4,140.3z M17.4,131c-0.6,0-1.1,0.2-1.6,0.5
				c-0.6,0.5-0.9,1.2-0.9,1.9c0,0.8,0.3,1.4,0.9,1.9c0,0,0,0,0,0c0.9,0.7,2.2,0.7,3.1,0c0.6-0.5,0.9-1.2,0.9-1.9
				c0-0.8-0.3-1.4-0.9-1.9C18.5,131.2,17.9,131,17.4,131z"/>
		</g>
	</g>
</g>
</svg>
