<?xml version="1.0" encoding="utf-8"?>
<!-- Generator: Adobe Illustrator 25.0.0, SVG Export Plug-In . SVG Version: 6.00 Build 0)  -->
<svg version="1.1" id="Layer_1" xmlns="http://www.w3.org/2000/svg" xmlns:xlink="http://www.w3.org/1999/xlink" x="0px" y="0px"
	 viewBox="0 0 151 150" style="enable-background:new 0 0 151 150;" xml:space="preserve">
<style type="text/css">
	.st0{fill:#33D7F6;}
	.st1{fill:#6AE6A3;}
	.st2{fill:#FFCF5C;}
	.st3{fill:#35414D;}
</style>
<g>
	<g>
		<path class="st0" d="M59.7,57.3c-3.1,1.4-7,1.2-10.3-1.7c-1.2-1.1-2-2.5-2.4-4.1C45.5,44,52,38.7,58.2,40.4
			c2.1,0.6,3.9,1.9,5.1,3.5l3.9-14.4c0.8-3.2-1-6.4-4.2-7.3l-14.4-3.9c2.8-2,4.5-5.6,3.6-9.9C51.8,7,51,5.6,49.8,4.6
			c-5.7-5.1-13.6-2.2-15.2,4.1c-0.6,2.1-0.3,4.3,0.5,6.2L20.7,11c-3.2-0.8-6.4,1-7.3,4.2L9.6,29.6c3.1-1.4,7-1.2,10.3,1.7
			c1.2,1.1,2,2.5,2.4,4.1c1.6,7.5-4.9,12.8-11.2,11.1C8.9,45.9,7.2,44.6,6,43L2.2,57.3c-0.8,3.2,1,6.4,4.2,7.3l14.4,3.9
			c-2.8,2-4.5,5.6-3.6,9.9c0.3,1.5,1.1,2.9,2.3,3.9c5.7,5.1,13.6,2.2,15.2-4.1c0.6-2.1,0.3-4.3-0.5-6.2l14.4,3.9
			c3.2,0.8,6.4-1,7.3-4.2L59.7,57.3z"/>
	</g>
	<path class="st1" d="M44.7,142.1v-14.9c1.6,1.3,3.6,2.1,5.8,2.1c5.2,0,9.4-4.4,9-9.7c-0.3-4.4-4.3-8.2-8.7-8.4
		c-2.3-0.1-4.5,0.7-6.1,2.1V98.4c0-3.3,2.7-5.9,5.9-5.9h14.9c-1.3-1.6-2.1-3.6-2.1-5.8c0-5.2,4.4-9.4,9.7-9c4.4,0.3,8.2,4.3,8.4,8.7
		c0.1,2.3-0.7,4.5-2.1,6.1h14.9c3.3,0,5.9,2.7,5.9,5.9v14.9c1.6-1.3,3.6-2.1,5.8-2.1c5.2,0,9.4,4.4,9,9.7c-0.3,4.4-4.3,8.2-8.7,8.4
		c-2.3,0.1-4.5-0.7-6.1-2.1v14.9c0,3.3-2.7,5.9-5.9,5.9H50.7C47.4,148,44.7,145.4,44.7,142.1L44.7,142.1z"/>
	<path class="st2" d="M113.3,72.4c-1.3-1.6-2.1-3.6-2.1-5.8c0-5.2,4.4-9.4,9.7-9c4.4,0.3,8.2,4.3,8.4,8.7c0.1,2.3-0.7,4.5-2.1,6.1
		h14.9c3.3,0,5.9-2.7,5.9-5.9V22.7c0-3.3-2.7-5.9-5.9-5.9h-14.9c1.4-1.6,2.2-3.8,2.1-6.1c-0.2-4.4-4-8.4-8.4-8.7
		c-5.3-0.4-9.7,3.8-9.7,9c0,2.2,0.8,4.2,2.1,5.8H98.4c-3.3,0-5.9,2.7-5.9,5.9v14.9c-1.6-1.4-3.8-2.2-6.1-2.1c-4.4,0.2-8.4,4-8.7,8.4
		c-0.4,5.3,3.8,9.7,9,9.7c2.2,0,4.2-0.8,5.8-2.1v14.9c0,3.3,2.7,5.9,5.9,5.9H113.3z"/>
	<path class="st3" d="M135.2,107.9c-0.2,0-0.4,0-0.6-0.1c-0.5-0.2-0.9-0.5-1.1-1c-0.2-0.5-0.3-1-0.1-1.5l1-3.2c0.7-2.4,2.9-4,5.4-4
		c3,0,5.5-2.1,6.2-5c0.7-3-0.9-6.2-3.7-7.4c-0.8-0.3-1.7-0.5-2.6-0.5c-2.5,0-4.7,1.4-5.8,3.7c-0.3,0.7-1,1.1-1.8,1.1
		c-0.3,0-0.6-0.1-0.8-0.2c-0.5-0.2-0.8-0.6-1-1.1s-0.1-1,0.1-1.5c1.7-3.6,5.3-5.9,9.3-5.9c1.4,0,2.8,0.3,4.1,0.8
		c4.6,1.9,7.1,7,6,11.9c-1.1,4.6-5.2,7.9-9.9,8c-0.8,0-1.5,0.5-1.7,1.3l-1,3.2C136.8,107.3,136,107.9,135.2,107.9L135.2,107.9z"/>
	<path class="st3" d="M16.1,128.6c-0.9,0-1.7-0.6-1.9-1.5l-0.7-3.3c-0.5-2.4,0.5-4.9,2.7-6.2c2.5-1.5,3.7-4.5,2.9-7.4
		c-0.8-2.7-3.3-4.6-6.1-4.6c-0.2,0-0.5,0-0.7,0c-3.4,0.4-5.9,3.4-5.7,6.9c0.1,1.1-0.7,2-1.8,2.1c-0.1,0-0.1,0-0.2,0
		c-1,0-1.9-0.8-1.9-1.8c-0.4-5.5,3.5-10.4,9.1-11.1c0.4,0,0.8-0.1,1.2-0.1c4.5,0,8.6,3,9.9,7.4c1.4,4.6-0.5,9.4-4.6,11.9
		c-0.7,0.4-1,1.2-0.9,1.9l0.7,3.3c0.2,1.1-0.4,2.1-1.5,2.3C16.4,128.6,16.3,128.6,16.1,128.6z"/>
	<path class="st3" d="M25.9,86.9c-2.8,0-5.5-1.1-7.8-3.1c-1.5-1.3-2.5-3-2.9-5c-0.6-2.9-0.3-5.8,1.1-8.2l0.6-1.1l-11.1-3
		c-2-0.5-3.7-1.9-4.8-3.7c-1.1-1.8-1.3-4-0.8-6l3.9-14.4c0.2-0.7,0.8-1.3,1.5-1.4c0.1,0,0.2,0,0.3,0c0.6,0,1.2,0.3,1.6,0.8
		c1,1.4,2.4,2.3,4,2.8c0.6,0.2,1.2,0.2,1.8,0.2c1.8,0,3.5-0.7,4.9-1.9c1.1-1,2.8-3.4,2-7.2c-0.2-1.1-0.9-2.2-1.8-3
		c-1.5-1.4-3.3-2.1-5.2-2.1c-1,0-2,0.2-3,0.7c-0.3,0.1-0.5,0.2-0.8,0.2c-0.5,0-0.9-0.2-1.3-0.5c-0.6-0.5-0.8-1.3-0.6-2l3.9-14.4
		c0.9-3.4,4.1-5.9,7.6-5.9c0.7,0,1.4,0.1,2,0.3l11.1,3l0-1.3c0-0.9,0.1-1.7,0.4-2.6c1-3.7,3.8-6.6,7.5-7.7c1-0.3,2.1-0.5,3.1-0.5
		c2.8,0,5.5,1.1,7.8,3.1c1.5,1.3,2.5,3,2.9,5c0.6,2.9,0.3,5.8-1.1,8.2l-0.6,1.1l11.1,3c2,0.5,3.7,1.9,4.8,3.7s1.3,4,0.8,6l-3.9,14.4
		c-0.2,0.7-0.8,1.3-1.5,1.4c-0.1,0-0.2,0-0.3,0c-0.6,0-1.2-0.3-1.6-0.8c-1-1.4-2.4-2.3-4-2.8c-0.6-0.2-1.2-0.2-1.9-0.2
		C54,42,52.3,42.7,51,44c-1.1,1-2.8,3.4-2,7.2c0.2,1.1,0.9,2.2,1.8,3c1.5,1.4,3.3,2.1,5.2,2.1c1,0,2-0.2,3-0.7
		c0.3-0.1,0.5-0.2,0.8-0.2c0.5,0,0.9,0.2,1.3,0.5c0.6,0.5,0.8,1.3,0.6,2l-3.9,14.4c-0.5,2-1.9,3.7-3.7,4.8c-1.2,0.7-2.6,1.1-3.9,1.1
		l0,0c-0.7,0-1.4-0.1-2.1-0.3l-11.1-3l0,1.3c0,0.9-0.1,1.7-0.4,2.6c-1,3.7-3.8,6.6-7.5,7.7C28.1,86.7,27,86.9,25.9,86.9z M4.1,57.9
		c-0.3,1-0.1,2.1,0.4,3c0.5,0.9,1.4,1.6,2.4,1.9l14.4,3.9c0.7,0.2,1.3,0.8,1.4,1.5c0.1,0.7-0.2,1.5-0.8,1.9
		c-2.5,1.7-3.5,4.7-2.8,7.9c0.2,1.1,0.8,2.1,1.7,2.9c1.5,1.4,3.3,2.1,5.2,2.1c0.7,0,1.4-0.1,2-0.3c2.4-0.7,4.2-2.6,4.8-5
		c0.4-1.6,0.3-3.3-0.4-4.8c-0.3-0.7-0.2-1.5,0.3-2.1c0.4-0.4,0.9-0.7,1.5-0.7c0.2,0,0.3,0,0.5,0.1L49.1,74c0.3,0.1,0.7,0.1,1,0.1
		c0.7,0,1.4-0.2,2-0.5c0.9-0.5,1.6-1.4,1.9-2.4l3-11.1l-1.3,0c-2.7-0.1-5.3-1.2-7.5-3.1c-1.5-1.3-2.6-3.2-3-5.1
		c-0.9-4.1,0.3-8.1,3.2-10.8c2.1-1.9,4.7-3,7.5-3c1,0,1.9,0.1,2.9,0.4c0.8,0.2,1.7,0.6,2.4,1l1.1,0.6l3-11.1
		c0.6-2.1-0.7-4.3-2.8-4.9L48,20.3c-0.7-0.2-1.3-0.8-1.4-1.5c-0.1-0.7,0.2-1.5,0.8-1.9c2.5-1.7,3.5-4.7,2.8-7.9
		C50,7.8,49.4,6.8,48.5,6c-1.5-1.4-3.3-2.1-5.2-2.1c-0.7,0-1.4,0.1-2,0.3c-2.4,0.7-4.2,2.6-4.8,5c-0.4,1.6-0.3,3.3,0.4,4.8
		c0.3,0.7,0.2,1.5-0.3,2.1c-0.4,0.4-0.9,0.7-1.5,0.7c-0.2,0-0.3,0-0.5-0.1l-14.4-3.9c-0.3-0.1-0.7-0.1-1-0.1c-0.7,0-1.4,0.2-2,0.5
		c-0.9,0.5-1.6,1.4-1.9,2.4l-3,11.1l1.3,0c2.7,0.1,5.3,1.2,7.5,3.1c1.5,1.3,2.6,3.2,3,5.1C25,39.1,23.9,43,21,45.7
		c-2.1,1.9-4.7,3-7.5,3c-1,0-1.9-0.1-2.9-0.4c-0.8-0.2-1.7-0.6-2.4-1L7,46.8L4.1,57.9z"/>
	<path class="st3" d="M50.7,150c-4.4,0-7.9-3.5-7.9-7.9v-14.9c0-0.8,0.4-1.5,1.1-1.8c0.3-0.1,0.5-0.2,0.8-0.2c0.5,0,0.9,0.2,1.3,0.5
		c1.3,1.1,2.9,1.7,4.5,1.7c2,0,3.8-0.8,5.2-2.3c1.4-1.5,2-3.4,1.9-5.3c-0.2-3.4-3.4-6.4-6.8-6.6l-0.3,0c-1.7,0-3.3,0.6-4.5,1.7
		c-0.4,0.3-0.8,0.5-1.3,0.5c-0.3,0-0.6-0.1-0.8-0.2c-0.7-0.3-1.1-1-1.1-1.8V98.4c0-4.4,3.5-7.9,7.9-7.9h11.5l-0.3-1.3
		c-0.2-0.8-0.3-1.7-0.3-2.6c0-3,1.3-6,3.5-8c2-1.9,4.7-3,7.5-3c0.3,0,0.5,0,0.8,0c5.4,0.4,10,5.1,10.2,10.6c0,1-0.1,2-0.3,3
		l-0.3,1.3h11.5c4.4,0,7.9,3.5,7.9,7.9v11.5l1.3-0.3c0.9-0.2,1.7-0.3,2.6-0.3c3,0,6,1.3,8,3.5c2.1,2.3,3.1,5.2,2.9,8.3
		c-0.4,5.4-5.1,10-10.6,10.2c-0.1,0-0.3,0-0.4,0c-0.9,0-1.8-0.1-2.6-0.3l-1.3-0.3v11.5c0,4.4-3.5,7.9-7.9,7.9H50.7z M46.7,142.1
		c0,2.2,1.8,4,4,4h43.7c2.2,0,4-1.8,4-4v-14.9c0-0.8,0.4-1.5,1.1-1.8c0.3-0.1,0.5-0.2,0.8-0.2c0.5,0,0.9,0.2,1.3,0.5
		c1.3,1.1,2.9,1.7,4.6,1.7l0.3,0c3.5-0.1,6.6-3.1,6.8-6.6c0.1-2-0.5-3.9-1.9-5.3c-1.4-1.5-3.2-2.3-5.2-2.3c-1.7,0-3.3,0.6-4.5,1.7
		c-0.4,0.3-0.8,0.5-1.3,0.5c-0.3,0-0.6-0.1-0.8-0.2c-0.7-0.3-1.1-1-1.1-1.8V98.4c0-2.2-1.8-4-4-4H79.5c-0.8,0-1.5-0.4-1.8-1.1
		c-0.3-0.7-0.2-1.5,0.3-2.1c1.1-1.3,1.7-3,1.6-4.8c-0.1-3.5-3.1-6.6-6.6-6.8c-0.2,0-0.3,0-0.5,0c-1.8,0-3.5,0.7-4.8,1.9
		c-1.5,1.4-2.3,3.2-2.3,5.2c0,1.7,0.6,3.3,1.7,4.5c0.5,0.6,0.6,1.4,0.3,2.1c-0.3,0.7-1,1.1-1.8,1.1H50.7c-2.2,0-4,1.8-4,4v11.5
		l1.3-0.3c0.8-0.2,1.7-0.3,2.6-0.3c0.1,0,0.3,0,0.4,0c5.5,0.2,10.2,4.8,10.6,10.2c0.2,3.1-0.8,6-2.9,8.3c-2.1,2.2-5,3.5-8,3.5
		c-0.9,0-1.7-0.1-2.6-0.3l-1.3-0.3V142.1z"/>
	<path class="st3" d="M127.2,74.3c-0.8,0-1.5-0.4-1.8-1.1c-0.3-0.7-0.2-1.5,0.3-2.1c1.1-1.3,1.7-3.1,1.6-4.8
		c-0.1-3.5-3.1-6.6-6.6-6.8c-0.2,0-0.3,0-0.5,0c-1.8,0-3.5,0.7-4.8,1.9c-1.5,1.4-2.3,3.2-2.3,5.2c0,1.7,0.6,3.3,1.7,4.5
		c0.5,0.6,0.6,1.4,0.3,2.1c-0.3,0.7-1,1.1-1.8,1.1H98.4c-4.4,0-7.9-3.5-7.9-7.9V55l-1.3,0.3c-0.8,0.2-1.7,0.3-2.6,0.3
		c-3,0-6-1.3-8-3.5c-2.1-2.3-3.1-5.2-2.9-8.3c0.4-5.4,5.1-10,10.6-10.2c0.1,0,0.3,0,0.4,0c0.9,0,1.7,0.1,2.6,0.3l1.3,0.3V22.7
		c0-4.4,3.5-7.9,7.9-7.9h11.5l-0.3-1.3c-0.2-0.8-0.3-1.7-0.3-2.6c0-3,1.3-6,3.5-8c2-1.9,4.7-3,7.5-3c0.3,0,0.5,0,0.8,0
		c5.4,0.4,10,5.1,10.2,10.6c0,1-0.1,2-0.3,3l-0.3,1.3h11.5c4.4,0,7.9,3.5,7.9,7.9v7.3c0,1.1-0.9,2-2,2s-2-0.9-2-2v-7.3
		c0-2.2-1.8-4-4-4h-14.9c-0.8,0-1.5-0.4-1.8-1.1c-0.3-0.7-0.2-1.5,0.3-2.1c1.1-1.3,1.7-3.1,1.6-4.8c-0.1-3.5-3.1-6.6-6.6-6.8
		c-0.2,0-0.3,0-0.5,0c-1.8,0-3.5,0.7-4.8,1.9c-1.5,1.4-2.3,3.2-2.3,5.2c0,1.7,0.6,3.3,1.7,4.5c0.5,0.6,0.6,1.4,0.3,2.1
		c-0.3,0.7-1,1.1-1.8,1.1H98.4c-2.2,0-4,1.8-4,4v14.9c0,0.8-0.4,1.5-1.1,1.8c-0.3,0.1-0.5,0.2-0.8,0.2c-0.5,0-0.9-0.2-1.3-0.5
		c-1.3-1.1-2.9-1.7-4.6-1.7l-0.3,0c-3.5,0.1-6.6,3.1-6.8,6.6c-0.1,2,0.5,3.9,1.9,5.3c1.4,1.5,3.2,2.3,5.2,2.3c1.7,0,3.3-0.6,4.5-1.7
		c0.4-0.3,0.8-0.5,1.3-0.5c0.3,0,0.6,0.1,0.8,0.2c0.7,0.3,1.1,1,1.1,1.8v14.9c0,2.2,1.8,4,4,4h11.5l-0.3-1.3
		c-0.2-0.8-0.3-1.7-0.3-2.6c0-3,1.3-6,3.5-8c2-1.9,4.7-3,7.5-3c0.3,0,0.5,0,0.8,0c5.4,0.4,10,5.1,10.2,10.6c0,1-0.1,2-0.3,3
		l-0.3,1.3h11.5c2.2,0,4-1.8,4-4v-9.6c0-1.1,0.9-2,2-2s2,0.9,2,2v9.6c0,4.4-3.5,7.9-7.9,7.9H127.2z"/>
	<circle class="st3" cx="148" cy="43.4" r="3"/>
	<circle class="st3" cx="148" cy="43.4" r="2"/>
	<path class="st3" d="M134.6,117.2c0,1.6-1.3,3-3,3c-1.6,0-3-1.3-3-3c0-1.6,1.3-3,3-3C133.3,114.2,134.6,115.5,134.6,117.2z"/>
	<circle class="st3" cx="18.7" cy="138.1" r="3"/>
</g>
</svg>
