<?xml version="1.0" encoding="utf-8"?>
<!-- Generator: Adobe Illustrator 25.0.0, SVG Export Plug-In . SVG Version: 6.00 Build 0)  -->
<svg version="1.1" id="Layer_1" xmlns="http://www.w3.org/2000/svg" xmlns:xlink="http://www.w3.org/1999/xlink" x="0px" y="0px"
	 viewBox="0 0 150 150" style="enable-background:new 0 0 150 150;" xml:space="preserve">
<style type="text/css">
	.st0{fill:#FFDE7C;}
	.st1{fill:#FFC824;}
	.st2{fill:#FFBD85;}
	.st3{fill:#A89E9F;}
	.st4{fill:#F0EFEF;}
	.st5{fill:#D3CECF;}
	.st6{fill:#E2DFDF;}
	.st7{fill:#50B2D2;}
	.st8{fill:#249FC7;}
	.st9{fill:#74A2C0;}
	.st10{fill:#518BB0;}
	.st11{fill:#35414D;}
</style>
<g>
	<path class="st0" d="M2.2,2.2h131.5v138.6H2.2V2.2z"/>
	<path class="st1" d="M2.2,2.2H21v138.6H2.2V2.2z"/>
	<path class="st2" d="M82,35.1l-7-4.7l-7,4.7l-7-4.7l-7,4.7V2.2H82V35.1z"/>
	<path class="st3" d="M44.5,89.1L28,107.9h7v32.9h18.8v-32.9h7L44.5,89.1z"/>
	<path class="st4" d="M11.6,46.8h61.1v18.8H11.6V46.8z"/>
	<path class="st5" d="M11.6,46.8H21v18.8h-9.4V46.8z"/>
	<path class="st6" d="M122,70.3h-9.4c-10.4,0-18.8,8.4-18.8,18.8v28.2c0,2.6,2.1,4.7,4.7,4.7s4.7-2.1,4.7-4.7V89.1
		c0-5.2,4.2-9.4,9.4-9.4h9.4c5.2,0,9.4,4.2,9.4,9.4v28.2c0,2.6,2.1,4.7,4.7,4.7c2.6,0,4.7-2.1,4.7-4.7V89.1
		C140.8,78.7,132.3,70.3,122,70.3z"/>
	<path class="st5" d="M93.8,117.3c0,2.6,2.1,4.7,4.7,4.7s4.7-2.1,4.7-4.7V96.1h-9.4V117.3z"/>
	<path class="st5" d="M131.4,96.1v21.1c0,2.6,2.1,4.7,4.7,4.7c2.6,0,4.7-2.1,4.7-4.7V96.1H131.4z"/>
	<path class="st7" d="M147.8,147.8H86.7v-37.6c0-3.9,3.2-7,7-7h47c3.9,0,7,3.2,7,7V147.8z"/>
	<path class="st8" d="M103.2,103.2h-9.4c-3.9,0-7,3.2-7,7v37.6h9.4v-37.6C96.1,106.3,99.3,103.2,103.2,103.2z"/>
	<path class="st9" d="M124.3,119.6c0-3.9-3.2-7-7-7s-7,3.2-7,7c0,2.6,1.5,4.9,3.6,6.2l-3.6,12.6h14.1l-3.6-12.6
		C122.9,124.6,124.3,122.3,124.3,119.6z"/>
	<path class="st10" d="M114.9,119.6c0-3.1,2-5.7,4.7-6.6c-0.7-0.3-1.5-0.4-2.3-0.4c-3.9,0-7,3.2-7,7c0,2.6,1.5,4.9,3.6,6.2
		l-3.6,12.6h4.7l3.6-12.6C116.4,124.6,114.9,122.3,114.9,119.6z"/>
	<path class="st11" d="M74.9,65.6V46.8c0-1.2-1-2.2-2.2-2.2H11.6c-1.2,0-2.2,1-2.2,2.2v18.8c0,1.2,1,2.2,2.2,2.2h61.1
		C73.9,67.8,74.9,66.8,74.9,65.6z M70.4,63.4H13.8V49h56.7V63.4z"/>
	<path class="st11" d="M32.6,77.3c0-1.2-1-2.2-2.2-2.2H11.6c-1.2,0-2.2,1-2.2,2.2s1,2.2,2.2,2.2h18.8C31.6,79.6,32.6,78.6,32.6,77.3
		z"/>
	<path class="st11" d="M37.4,75.1c-1.2,0-2.2,1-2.2,2.2s1,2.2,2.2,2.2h9.4c1.2,0,2.2-1,2.2-2.2s-1-2.2-2.2-2.2H37.4z"/>
	<path class="st11" d="M11.6,84.5c-1.2,0-2.2,1-2.2,2.2s1,2.2,2.2,2.2h11.7c1.2,0,2.2-1,2.2-2.2s-1-2.2-2.2-2.2H11.6z"/>
	<path class="st11" d="M143,101.2V89.1c0-6.2-2.7-11.8-7-15.7V19.7c0-1.2-1-2.2-2.2-2.2c-1.2,0-2.2,1-2.2,2.2v50.7
		c-2.9-1.5-6.1-2.3-9.5-2.3h-9.4c-11.6,0-21,9.4-21,21v12.2c-4,1-7,4.6-7,9v28.3H56.1v-28.5h4.8c1.9,0,2.9-2.3,1.7-3.7L46.1,87.6
		c-0.9-1-2.5-1-3.3,0l-16.4,18.8c-1.2,1.4-0.2,3.7,1.7,3.7h4.8v28.5H4.4V4.4h47.3v30.7c0,1.7,2,2.8,3.4,1.8l5.8-3.9l5.8,3.9
		c0.7,0.5,1.7,0.5,2.4,0L75,33l5.8,3.9c1.4,1,3.4-0.1,3.4-1.8V4.4h47.3v4.7c0,1.2,1,2.2,2.2,2.2c1.2,0,2.2-1,2.2-2.2V2.2
		c0-1.2-1-2.2-2.2-2.2H2.2C1,0,0,1,0,2.2v138.6c0,1.2,1,2.2,2.2,2.2h82.3v4.8c0,1.2,1,2.2,2.2,2.2h61.1c1.2,0,2.2-1,2.2-2.2v-37.6
		C150,105.9,147,102.2,143,101.2z M79.8,4.4V31l-3.6-2.4c-0.7-0.5-1.7-0.5-2.4,0L68,32.4l-5.8-3.9c-0.7-0.5-1.7-0.5-2.4,0L56.1,31
		V4.4H79.8z M37.3,138.6v-30.7c0-1.2-1-2.2-2.2-2.2h-2.2l11.6-13.2l11.6,13.2h-2.2c-1.2,0-2.2,1-2.2,2.2v30.7H37.3z M112.6,72.5h9.4
		c9.1,0,16.6,7.4,16.6,16.6V101h-5V89.1c0-6.4-5.2-11.6-11.6-11.6h-9.4c-6.4,0-11.6,5.2-11.6,11.6V101h-5V89.1
		C96,79.9,103.4,72.5,112.6,72.5z M129.2,101h-23.8V89.1c0-4,3.2-7.2,7.2-7.2h9.4c4,0,7.2,3.2,7.2,7.2V101z M145.6,145.6H88.9v-35.4
		c0-2.7,2.2-4.8,4.8-4.8h47c2.7,0,4.8,2.2,4.8,4.8V145.6z"/>
	<path class="st11" d="M126.5,119.6c0-5.1-4.1-9.2-9.2-9.2s-9.2,4.1-9.2,9.2c0,2.7,1.2,5.3,3.3,7l-3.2,11.1
		c-0.4,1.4,0.7,2.8,2.1,2.8h14.1c1.4,0,2.5-1.4,2.1-2.8l-3.2-11.1C125.3,124.9,126.5,122.4,126.5,119.6z M118.6,126.4l2.8,9.8h-8.3
		l2.8-9.8c0.3-1-0.2-2-1-2.5c-1.5-0.9-2.5-2.5-2.5-4.2c0-2.7,2.2-4.8,4.8-4.8s4.8,2.2,4.8,4.8c0,1.8-1,3.4-2.5,4.2
		C118.7,124.3,118.3,125.4,118.6,126.4z"/>
</g>
</svg>
