<?xml version="1.0" encoding="utf-8"?>
<!-- Generator: Adobe Illustrator 25.0.0, SVG Export Plug-In . SVG Version: 6.00 Build 0)  -->
<svg version="1.1" id="Layer_1" xmlns="http://www.w3.org/2000/svg" xmlns:xlink="http://www.w3.org/1999/xlink" x="0px" y="0px"
	 viewBox="0 0 203.6 250" style="enable-background:new 0 0 203.6 250;" xml:space="preserve">
<style type="text/css">
	.st0{fill:#35414D;}
	.st1{fill:#EFD299;}
	.st2{fill:#DEC089;}
	.st3{fill:#FF5A5A;}
	.st4{fill:#ECECEC;}
	.st5{fill:#FFDC7C;}
	.st6{fill:#EAC05C;}
</style>
<g>
	<path class="st0" d="M95.4,250c-10,0-18.6-5.8-20.7-13.8l-0.1-0.5l-0.5-0.1c-4.3-0.6-7.6-4.4-7.6-8.8v-24.8c0-1.1,0.6-2,1.5-2.6
		l0.4-0.2l0-0.4c-0.4-17.3-7-28.5-20-44.3c-7.5-9.2-12.9-22.5-14.9-36.5c-0.1-0.7,0.1-1.5,0.5-2.1l0.3-0.5L34,115
		c-3.5-4-5.5-9.2-5.5-14.6c0-6.9,3.3-13.5,8.9-17.7l0.5-0.4l-0.3-0.5c-1.3-2.5-2-5.2-2-8.2c0-9.9,8.3-17.9,18.5-17.9H55V55
		c0-7.6,6.1-13.7,13.7-13.7c1.7,0,3.3,0.3,4.8,0.9l0.8,0.3l0.2-0.8c0.4-2.1,1.5-4,3-5.5c2.1-2.1,4.8-3.2,7.8-3.2
		c6.1,0,11.1,5,11.1,11.1v70.5h11.1V44.1c0-6.1,4.9-11.1,11-11.1c2.9,0,5.6,1.1,7.8,3.1c1.5,1.5,2.5,3.5,3,5.6l0.2,0.8l0.8-0.3
		c1.7-0.6,3.2-0.9,4.8-0.9c7.5,0,13.7,6.1,13.7,13.6v0.7l0.7,0h0.1c10.2,0,18.5,8,18.5,17.9c0,2.9-0.7,5.7-2,8.2l-0.3,0.5l0.5,0.4
		c5.6,4.2,8.9,10.8,8.9,17.7c0,5.4-1.9,10.6-5.5,14.6l-0.4,0.4l0.3,0.5c0.4,0.7,0.6,1.5,0.6,2.1c-2,13.9-7.4,27.3-14.9,36.5
		c-12.9,15.8-19.6,27-20,44.3l0,0.4l0.4,0.2c1,0.6,1.5,1.5,1.5,2.6V227c0,4.4-3.3,8.1-7.6,8.8l-0.5,0.1l-0.1,0.5
		c-2,7.9-10.7,13.7-20.6,13.7H95.4z M81.6,236.9c2.4,4.1,7.9,6.9,13.7,6.9h12.8c5.9,0,11.4-2.8,13.7-6.9l0.6-1.1H81L81.6,236.9z
		 M72.7,227c0,1.5,1.2,2.7,2.8,2.7h52.6c1.2,0,2.3-0.8,2.6-2h0.1l0-0.7v-6.4H72.7V227z M72.7,214.4h58.1l0-0.7v-8.5H72.7V214.4z
		 M40.4,121.6c2.3,11.3,7,21.9,12.9,29.1C65,165,74,177.7,74.6,198.4l0,0.7h54.3l0-0.7c0.6-20.8,9.6-33.4,21.4-47.7
		c5.8-7.2,10.5-17.8,12.8-29.1l0.2-0.9H40.2L40.4,121.6z M113.5,114.5H154l-1.5-1.3c-0.4-0.4-0.9-0.7-1.4-1.1l-0.8-0.6
		c-1.4-1-1.6-3-0.6-4.4c0.6-0.7,1.5-1.2,2.5-1.2c0.7,0,1.3,0.2,1.9,0.6c3,2.3,5.6,4.5,7.5,6.5l0.4,0.5l0.5-0.4
		c4.1-3,6.4-7.6,6.5-12.8c0-5.2-2.6-10.1-6.9-13.1l-0.4-0.3l-0.4,0.3c-1.9,1.3-4,2.5-6.3,3.5c-0.4,0.2-0.8,0.3-1.3,0.3
		c-1.2,0-2.3-0.7-2.8-1.8c-0.4-0.8-0.4-1.6-0.1-2.4c0.3-0.8,0.9-1.4,1.6-1.7c1.8-0.8,4.4-2.1,6.4-3.9l0.1-0.1l0,0
		c1.9-2.1,2.9-4.8,2.9-7.6c0-6.5-5.5-11.7-12.3-11.7c-1.5,0-2.8,0.2-4,0.7c-0.3,0.1-0.7,0.2-1,0.2c-0.9,0-1.7-0.4-2.3-1
		c-0.8-0.9-1-2.3-0.5-3.4c0.5-1.2,0.8-2.3,0.8-3.4c0-4.1-3.4-7.4-7.5-7.4c-2.5,0-4.7,1.2-6.1,3.2c-0.6,0.8-1.5,1.3-2.5,1.3
		c-0.3,0-0.6,0-0.9-0.1c-1.3-0.4-2.2-1.6-2.2-3v-4.8c0-1.3-0.5-2.6-1.4-3.5c-0.4-0.4-1.6-1.4-3.5-1.4c-2.6,0-4.8,2.2-4.8,4.9v11.6
		l0.5,0.2c4.1,1.3,7.1,3.7,9,6.9c0.8,1.5,0.3,3.4-1.1,4.2c-0.6,0.3-1.1,0.4-1.5,0.4c-1.1,0-2.1-0.6-2.7-1.5c-0.7-1.2-1.6-2.1-3-2.9
		l-1.1-0.7v22.9l0.6,0.1c4.3,0.8,10.3,3.2,14.4,10.7c0.8,1.5,0.3,3.4-1.2,4.2c-0.5,0.3-1,0.4-1.5,0.4c-1.1,0-2.2-0.6-2.7-1.5
		c-2.6-4.7-6.2-6.6-8.6-7.3l-0.9-0.3V114.5z M51.6,106c1,0,1.8,0.4,2.4,1.2c1,1.4,0.8,3.3-0.6,4.3c-0.4,0.3-0.7,0.6-1,0.8
		c-0.4,0.3-0.8,0.6-1.1,0.9l-1.4,1.3h40.3V91.5l-0.9,0.3c-3.7,1.1-6.6,3.5-8.6,7.3c-0.5,1-1.5,1.6-2.7,1.6c-0.5,0-1-0.1-1.5-0.4
		c-0.7-0.4-1.2-1.1-1.5-1.8s-0.1-1.6,0.3-2.4c4.1-7.5,10.1-9.9,14.4-10.7l0.6-0.1V62.3L89,62.9c-1.4,0.9-2.4,1.8-3,3
		c-0.5,0.9-1.5,1.5-2.7,1.5c-0.5,0-1-0.1-1.5-0.4c-0.7-0.4-1.2-1.1-1.4-1.9c-0.2-0.8-0.1-1.6,0.3-2.4c2.5-4.3,6.7-6.1,8.9-6.9
		l0.5-0.2V44.1c0-2.7-2.2-4.9-4.9-4.9c-1.3,0-2.5,0.5-3.5,1.4c-0.9,1-1.4,2.2-1.4,3.5V49c0,1.4-0.8,2.5-2.2,3
		c-0.3,0.1-0.6,0.1-0.9,0.1c-1,0-2-0.5-2.6-1.3c-1.4-2-3.7-3.2-6.1-3.2c-4.1,0-7.5,3.3-7.5,7.4c0,1.2,0.3,2.3,0.8,3.4
		c0.5,1.1,0.3,2.5-0.5,3.4c-0.6,0.6-1.4,1-2.3,1c-0.4,0-0.7-0.1-1-0.2c-1.2-0.5-2.5-0.7-4-0.7c-6.8,0-12.3,5.3-12.3,11.7
		c0,2.8,1,5.5,2.9,7.6c0.2,0.3,2.3,2.2,6.6,4.1c0.7,0.3,1.3,0.9,1.6,1.7c0.3,0.8,0.3,1.6-0.1,2.4c-0.5,1.1-1.6,1.8-2.8,1.8
		c-0.5,0-0.8-0.1-1.2-0.2c-2.4-1-4.5-2.2-6.4-3.6l-0.4-0.3l-0.4,0.3c-4.3,3-6.9,7.8-6.9,13.1c0,5.1,2.4,9.7,6.5,12.7l0.5,0.4
		l0.4-0.5c1.9-2,4.5-4.2,7.5-6.5C50.2,106.2,50.9,106,51.6,106z"/>
	<path class="st1" d="M89.3,55.3V44.1c0-2.3-1.9-4.2-4.2-4.2c-1.1,0-2.2,0.5-3,1.2c-0.7,0.7-1.2,1.8-1.2,2.9v4.8
		c0,1.7-1.1,3.1-2.7,3.7c-1.6,0.5-3.3-0.1-4.3-1.5c-1.3-1.8-3.3-2.9-5.5-2.9c-3.7,0-6.8,3-6.8,6.7c0,1,0.3,2,0.7,3.1
		c0.6,1.4,0.4,3.1-0.6,4.2c-1,1.1-2.6,1.6-4.1,1c-1.1-0.4-2.4-0.6-3.8-0.6c-6.4,0-11.6,5-11.6,11c0,2.6,1,5.1,2.8,7.1
		c0.1,0.2,2,2,6.3,3.9c1.9,0.8,2.8,3.1,1.9,5c-0.6,1.4-2,2.2-3.5,2.2c-0.6,0-1-0.1-1.5-0.3c-2.9-1.3-5-2.6-6.5-3.6
		c-4.1,2.8-6.6,7.5-6.6,12.5c0,4.9,2.3,9.4,6.1,12.1c1.5-1.6,3.9-3.8,7.6-6.6c1.7-1.3,4-0.9,5.3,0.7c1.3,1.7,0.9,4.1-0.7,5.3
		c-0.7,0.6-1.5,1.2-2.1,1.7h37.7V92.4c-2.5,0.7-5.8,2.5-8.2,6.9c-0.7,1.3-2,1.9-3.3,1.9c-0.6,0-1.3-0.2-1.8-0.5
		c-1.8-1-2.5-3.3-1.5-5.2c4.4-7.9,10.7-10.3,14.9-11v-21c-1,0.6-2,1.5-2.8,2.7c-0.7,1.2-2,1.9-3.3,1.9c-0.6,0-1.3-0.2-1.9-0.5
		c-1.8-1.1-2.4-3.4-1.4-5.2C82.5,58.2,86.5,56.2,89.3,55.3L89.3,55.3z M79.7,75.5c0,2.1-1.8,3.8-3.8,3.8c0,0,0,0,0,0
		c-0.2,0-9.4,0-11.2,5.7c-0.5,1.7-2,2.8-3.7,2.8c-0.4,0-0.7-0.1-1.1-0.2c-2-0.6-3.1-2.7-2.6-4.7c3.3-11.3,18-11.2,18.5-11.2
		C78,71.7,79.7,73.4,79.7,75.5L79.7,75.5z"/>
	<path class="st1" d="M161.5,88c-1.5,1-3.5,2.3-6.4,3.6c-0.5,0.2-1,0.3-1.6,0.3c-1.5,0-2.9-0.8-3.5-2.2c-0.9-1.9,0-4.2,1.9-5
		c4.2-1.9,6.1-3.7,6.3-3.9c1.8-1.9,2.8-4.4,2.8-7.1c0-6.1-5.2-11-11.6-11c-1.4,0-2.6,0.2-3.7,0.6c-1.5,0.6-3.1,0.1-4.1-1
		c-1-1.1-1.3-2.8-0.6-4.2c0.5-0.9,0.7-2,0.7-3.1c0-3.7-3.1-6.7-6.8-6.7c-2.2,0-4.2,1.1-5.5,2.9c-0.9,1.4-2.7,1.9-4.3,1.5
		c-1.6-0.6-2.7-2-2.7-3.7v-4.9c0-1.1-0.4-2.2-1.2-2.9c-0.6-0.6-1.6-1.2-3-1.2c-2.2,0-4.1,1.9-4.1,4.2v11.2c2.9,0.9,6.9,2.9,9.4,7.2
		c1,1.8,0.4,4.2-1.4,5.2c-0.6,0.4-1.3,0.5-1.9,0.5c-1.3,0-2.6-0.7-3.3-1.9c-0.7-1.2-1.7-2-2.7-2.7v21c4.2,0.7,10.6,3.2,14.9,11
		c1,1.8,0.4,4.2-1.5,5.2c-0.6,0.3-1.2,0.5-1.8,0.5c-1.3,0-2.6-0.7-3.3-1.9c-2.5-4.4-5.7-6.2-8.2-6.9v21.4h37.7
		c-0.7-0.6-1.4-1.1-2.2-1.7c-1.7-1.3-2-3.7-0.7-5.3c1.3-1.7,3.7-2,5.3-0.7c3.7,2.8,6.1,5,7.6,6.6c3.9-2.8,6.1-7.2,6.1-12.1
		C168.1,95.5,165.6,90.7,161.5,88L161.5,88z M143.6,87.6c-0.4,0.1-0.7,0.2-1.1,0.2c-1.7,0-3.1-1.1-3.7-2.8c-0.8-2.9-3.6-4.3-6.2-5
		c-2.5-0.7-4.9-0.7-5-0.7c-2.1,0-3.8-1.7-3.8-3.8c0-2.1,1.7-3.8,3.7-3.8c0.6,0,15.2-0.1,18.5,11.2C146.8,84.9,145.6,87,143.6,87.6z"
		/>
	<path class="st2" d="M59.8,112.1c-0.7,0.6-1.5,1.2-2.1,1.7h-6.1c0.6-0.6,1.4-1.1,2.1-1.7c1.7-1.3,2-3.7,0.7-5.3c0,0,0-0.1-0.1-0.1
		c0.3-0.2,0.6-0.5,0.8-0.6c1.7-1.3,4-0.9,5.3,0.7C61.8,108.4,61.5,110.8,59.8,112.1L59.8,112.1z"/>
	<path class="st2" d="M88.2,41.2c-0.7,0.7-1.1,1.8-1.1,2.9v4.8c0,1.7-1.1,3.1-2.7,3.7c-1.5,0.5-3.2,0-4.2-1.3
		c0.5-0.6,0.8-1.5,0.8-2.3v-4.9c0-1.1,0.4-2.2,1.2-2.9c0.8-0.7,1.9-1.2,3-1.2C86.3,39.9,87.4,40.4,88.2,41.2z"/>
	<path class="st2" d="M67.9,55c0,1,0.3,2,0.7,3.1c0.6,1.4,0.4,3.1-0.6,4.2c-1,1.1-2.6,1.6-4.1,1c-0.8-0.3-1.7-0.5-2.6-0.6
		c0.2-0.2,0.4-0.3,0.6-0.5c1-1.1,1.3-2.8,0.6-4.2c-0.5-1-0.7-2-0.7-3.1c0-3.7,3.1-6.7,6.8-6.7c1.1,0,2.1,0.3,3.1,0.7
		C69.4,50.1,67.9,52.4,67.9,55L67.9,55z"/>
	<path class="st2" d="M59.9,87.6c0.1,0.6,0,1.4-0.3,2c-0.6,1.4-2,2.2-3.5,2.2c-0.6,0-1-0.1-1.5-0.3c-0.6-0.3-1.3-0.6-1.8-0.8
		c0.4-0.3,0.6-0.7,0.7-1.1c0.9-1.9,0-4.2-1.9-5c-4.3-1.9-6.2-3.7-6.3-3.9c-1.8-1.9-2.8-4.4-2.8-7.1c0-6.1,5.2-11,11.6-11
		c1.1,0,2.1,0.1,3.1,0.4c-5,1.3-8.6,5.6-8.6,10.6c0,2.6,1,5.1,2.8,7.1c0.1,0.2,1.9,1.9,5.9,3.7C57.4,85.9,58.4,87.2,59.9,87.6
		L59.9,87.6z"/>
	<path class="st2" d="M41.5,100.5c0,3.4,1.1,6.7,3.1,9.2c-1.3,1.1-2.3,2.1-3.1,2.9c-3.9-2.8-6.1-7.2-6.1-12.1c0-5,2.5-9.7,6.6-12.5
		c0.9,0.6,2.1,1.4,3.5,2.2C43,92.9,41.5,96.6,41.5,100.5L41.5,100.5z"/>
	<path class="st2" d="M152,113.8h-6.1c-0.7-0.6-1.4-1.1-2.2-1.7c-1.7-1.3-2-3.7-0.7-5.3c1.3-1.7,3.7-2,5.3-0.7
		c0.3,0.2,0.6,0.4,0.8,0.6c0,0,0,0-0.1,0.1c-1.3,1.7-0.9,4.1,0.7,5.3C150.6,112.7,151.3,113.3,152,113.8z"/>
	<path class="st2" d="M168.1,100.5c0,4.9-2.3,9.4-6.1,12.1c-0.7-0.8-1.8-1.8-3.1-2.9c2-2.6,3.1-5.8,3.1-9.2c0-3.9-1.5-7.5-4.1-10.3
		c1.5-0.7,2.6-1.5,3.5-2.2C165.6,90.7,168.1,95.5,168.1,100.5z"/>
	<path class="st2" d="M123.4,51.3c-1,1.3-2.7,1.8-4.2,1.3c-1.6-0.6-2.7-2-2.7-3.7v-4.9c0-1.1-0.4-2-1.1-2.8c0.7-0.8,1.8-1.3,3-1.3
		c1.4,0,2.4,0.7,3,1.2c0.7,0.7,1.2,1.8,1.2,2.9v4.8C122.5,49.8,122.8,50.6,123.4,51.3L123.4,51.3z"/>
	<path class="st2" d="M142.2,62.7c-0.9,0.1-1.7,0.2-2.5,0.6c-1.5,0.6-3.1,0.1-4.1-1c-1-1.1-1.3-2.8-0.6-4.2c0.5-0.9,0.7-2,0.7-3.1
		c0-2.6-1.5-4.9-3.7-6c0.9-0.5,1.9-0.7,3.1-0.7c3.7,0,6.8,3,6.8,6.7c0,1.1-0.3,2.1-0.7,3.1c-0.6,1.4-0.4,3.1,0.6,4.2
		C141.8,62.4,142,62.6,142.2,62.7z"/>
	<path class="st2" d="M161.1,73.7c0,2.7-1,5.2-2.8,7.1c-0.2,0.2-2.1,2-6.3,3.9c-1.9,0.8-2.8,3.1-1.9,5c0.2,0.4,0.4,0.8,0.7,1.1
		c-0.6,0.3-1.1,0.6-1.8,0.8c-0.5,0.2-1,0.3-1.6,0.3c-1.5,0-2.9-0.8-3.5-2.2c-0.3-0.7-0.4-1.4-0.3-2c1.5-0.4,2.5-1.7,2.6-3.1
		c4-1.8,5.7-3.5,5.9-3.7c1.8-1.9,2.8-4.4,2.8-7.1c0-5.1-3.7-9.4-8.6-10.6c0.9-0.3,1.9-0.4,3.1-0.4C155.8,62.7,161.1,67.6,161.1,73.7
		L161.1,73.7z"/>
	<path class="st3" d="M121.3,236.6c-2.1,3.8-7.3,6.5-13.1,6.5H95.3c-5.8,0-11-2.8-13.1-6.5H121.3z"/>
	<path class="st4" d="M73.5,206h56.7v7.7H73.5V206z"/>
	<path class="st4" d="M130.1,221.3v5.7c0,1.1-0.9,2-2,2H75.5c-1.1,0-2-0.9-2-2v-5.7H130.1z"/>
	<path class="st5" d="M162.4,121.4c-2.2,11-6.9,21.6-12.7,28.8c-11.9,14.5-20.9,27.3-21.5,48.2H75.3c-0.6-20.8-9.7-33.7-21.5-48.2
		c-5.9-7.2-10.5-17.7-12.7-28.8L162.4,121.4z"/>
	<path class="st6" d="M162.4,121.4c-2.2,11-6.9,21.6-12.7,28.8c-11.9,14.5-20.9,27.3-21.5,48.2H75.3c-0.6-20.8-9.7-33.7-21.5-48.2
		c-5.9-7.2-10.5-17.7-12.7-28.8h8.8c3.1,9.7,6.9,18.9,11.9,25.2c9.8,12.7,17.4,24,18,42.2h44.1c0.5-18.3,8.1-29.5,18-42.2
		c4.9-6.3,8.7-15.6,11.8-25.2L162.4,121.4z"/>
	<path class="st0" d="M143.6,87.6c-0.4,0.1-0.7,0.2-1.1,0.2c-1.7,0-3.1-1.1-3.7-2.8c-0.8-2.9-3.6-4.3-6.2-5c-2.5-0.7-4.9-0.7-5-0.7
		c-2.1,0-3.8-1.7-3.8-3.8c0-2.1,1.7-3.8,3.7-3.8c0.6,0,15.2-0.1,18.5,11.2C146.8,84.9,145.6,87,143.6,87.6z"/>
	<path class="st0" d="M142.6,87.1c-1.4,0-2.6-0.9-3-2.2c-0.8-2.6-3.1-4.5-6.7-5.5c-2.5-0.7-4.9-0.7-5.2-0.7c-1.7,0-3.1-1.4-3.1-3.1
		c0-0.8,0.3-1.6,0.9-2.2c0.6-0.6,1.3-0.9,2.1-0.9c0.1,0,0.1,0,0.2,0c0.6,0,14.5,0.1,17.6,10.7c0.4,1.6-0.5,3.3-2.1,3.8
		C143.1,87.1,142.8,87.1,142.6,87.1z"/>
	<path class="st0" d="M79.7,75.5c0,2.1-1.8,3.8-3.8,3.8c0,0,0,0,0,0c-0.2,0-9.4,0-11.2,5.7c-0.5,1.7-2,2.8-3.7,2.8
		c-0.4,0-0.7-0.1-1.1-0.2c-2-0.6-3.1-2.7-2.6-4.7c3.3-11.3,18-11.2,18.5-11.2C78,71.7,79.7,73.4,79.7,75.5L79.7,75.5z"/>
	<path class="st0" d="M61,87.1c-0.2,0-0.5-0.1-0.8-0.2c-1.6-0.5-2.6-2.2-2.1-3.8c3.1-10.6,17-10.7,17.6-10.7c0.1,0,0.2,0,0.2,0
		c1.7,0,3.1,1.4,3.1,3.1c0,1.7-1.4,3.1-3.1,3.1c-0.4,0-10,0.1-11.9,6.2C63.6,86.2,62.4,87.1,61,87.1z"/>
	<path class="st0" d="M101.8,16.1c-1.7,0-3.1-1.4-3.1-3.1V3.1c0-1.7,1.4-3.1,3.1-3.1c1.7,0,3.1,1.4,3.1,3.1V13
		C104.9,14.7,103.5,16.1,101.8,16.1z"/>
	<path class="st0" d="M57.8,27c-1,0-2-0.6-2.6-1.5l-5.4-8.6c-0.9-1.5-0.4-3.4,1-4.3c0.5-0.3,1-0.5,1.6-0.5c1.1,0,2.1,0.6,2.7,1.4
		l5.4,8.6c0.9,1.5,0.4,3.4-1,4.3C58.9,26.8,58.4,27,57.8,27z"/>
	<path class="st0" d="M25.6,56.6c-0.4,0-0.9-0.1-1.4-0.3l-9.3-5c-1.5-0.8-2.1-2.7-1.3-4.2c0.5-1,1.6-1.6,2.7-1.6
		c0.5,0,1,0.1,1.4,0.4l9.3,4.9c1.5,0.8,2.1,2.7,1.3,4.2C27.7,56,26.7,56.6,25.6,56.6z"/>
	<path class="st0" d="M3.1,97.2c-1.7,0-3.1-1.4-3.1-3.1C0,92.3,1.4,91,3.1,91h10.7c1.7,0,3.1,1.4,3.1,3.1c0,1.7-1.4,3.1-3.1,3.1H3.1
		z"/>
	<path class="st0" d="M16.4,142.7c-1.2,0-2.2-0.6-2.7-1.6c-0.8-1.5-0.2-3.4,1.3-4.2l9.3-5c0.4-0.2,0.9-0.4,1.4-0.4
		c1.2,0,2.2,0.6,2.7,1.6c0.8,1.5,0.2,3.4-1.3,4.2l-9.3,5C17.4,142.5,16.8,142.7,16.4,142.7z"/>
	<path class="st0" d="M187.2,142.7c-0.4,0-0.9-0.1-1.4-0.3l-9.3-5c-1.5-0.8-2.1-2.7-1.3-4.2c0.5-1,1.6-1.6,2.7-1.6
		c0.5,0,1,0.1,1.4,0.4l9.3,4.9c1.5,0.8,2.1,2.7,1.3,4.2C189.4,142,188.4,142.7,187.2,142.7z"/>
	<path class="st0" d="M189.7,97.2c-1.7,0-3.1-1.4-3.1-3.1c0-1.7,1.4-3.1,3.1-3.1h10.7c1.7,0,3.1,1.4,3.1,3.1c0,1.7-1.4,3.1-3.1,3.1
		H189.7z"/>
	<path class="st0" d="M178,56.6c-1.1,0-2.2-0.6-2.7-1.6c-0.8-1.5-0.2-3.4,1.3-4.2l9.3-5c0.4-0.2,0.9-0.4,1.4-0.4
		c1.2,0,2.2,0.6,2.7,1.6c0.8,1.5,0.2,3.4-1.3,4.2l-9.3,5C178.9,56.5,178.4,56.6,178,56.6z"/>
	<path class="st0" d="M145.7,27c-0.6,0-1.1-0.2-1.6-0.5c-1.4-0.9-1.9-2.8-1-4.3l5.3-8.6c0.6-0.9,1.6-1.5,2.6-1.5
		c0.6,0,1.1,0.2,1.6,0.5c1.4,0.9,1.9,2.8,1,4.3l-5.3,8.6C147.8,26.4,146.8,27,145.7,27z"/>
</g>
</svg>
