<svg width="1900" height="70" viewBox="0 0 1900 70" fill="none" xmlns="http://www.w3.org/2000/svg">
<g clip-path="url(#clip0_3543_2491)">
<g filter="url(#filter0_d_3543_2491)">
<path d="M56.9251 27.2471C43.9422 25.7303 32.9566 28.764 24.4678 30.7865C21.8794 31.4032 17.9841 29.8421 14.4771 30.5C8.7832 31.5681 4.49291 33 0 33V5H1900V33C1898.67 33 1895.11 32.2023 1891.51 29.7754C1887.92 27.3484 1880.69 28.7641 1877.53 29.7754H1869.54H1858.06C1857.72 28.7641 1855.66 27.3484 1850.07 29.7754C1843.07 32.8091 1819.11 29.7754 1815.61 28.2585C1812.12 26.7416 1801.63 29.7754 1795.14 29.7754C1788.65 29.7754 1763.68 29.7754 1755.19 32.8091C1748.4 35.2361 1745.7 36.854 1745.2 37.3597C1742.71 34.3259 1729.72 35.3372 1725.23 32.8091C1720.74 30.281 1702.76 29.7754 1698.76 28.2585C1694.77 26.7416 1689.28 28.2585 1683.78 28.2585C1678.29 28.2585 1670.8 31.7978 1666.31 29.7754C1662.71 28.1574 1652.16 28.0899 1647.33 28.2585C1640.84 28.2585 1638.34 26.7416 1626.86 29.7754C1615.37 32.8091 1594.4 26.7416 1591.91 23.7079C1589.41 20.6742 1579.92 23.7079 1575.93 23.7079C1571.93 23.7079 1562.44 24.7192 1557.95 22.191C1553.46 19.6629 1546.47 23.7079 1539.47 22.191C1532.48 20.6742 1526.49 22.191 1518.5 19.663C1512.11 17.6405 1508.52 20.5057 1507.52 22.191C1505.85 22.5281 1500.33 23 1491.54 22.191C1480.55 21.1798 1483.55 28.2585 1473.56 26.7416C1463.57 25.2248 1452.59 28.2585 1448.09 28.2585C1443.6 28.2585 1426.12 32.3034 1424.13 33.8203C1422.13 35.3372 1414.14 37.8652 1411.14 33.8203C1408.15 29.7753 1399.16 30.281 1395.66 28.2585C1392.17 26.236 1384.68 32.3034 1381.68 33.8203C1378.69 35.3372 1375.69 35.3372 1373.69 33.8203C1371.7 32.3034 1368.7 33.8203 1367.2 33.8203C1365.7 33.8203 1361.71 33.8203 1358.21 35.3372C1354.72 36.854 1349.22 39.8877 1344.73 37.8652C1340.24 35.8428 1338.24 37.8652 1332.75 37.8652C1327.25 37.8652 1324.76 41.4046 1323.26 39.8877C1321.76 38.3709 1319.76 37.3596 1314.77 37.8652C1309.78 38.3709 1308.28 37.8652 1304.78 33.8203C1301.29 29.7753 1294.8 33.8203 1293.3 35.3372C1291.8 36.854 1290.8 40.3933 1287.81 39.8877C1284.81 39.3821 1278.32 36.854 1275.32 35.3372C1272.33 33.8203 1270.33 36.3484 1264.34 33.8203C1258.34 31.2922 1257.84 30.281 1253.35 28.2585C1249.76 26.6405 1242.53 24.8876 1239.37 24.2134H1225.89L1221.39 22.191H1218.4L1215.9 24.2134H1202.42C1195.23 27.4493 1182.44 25.5617 1176.95 24.2134C1176.95 22.8651 1173.26 20.9775 1158.48 24.2134C1140 28.2583 1125.52 25.2247 1118.03 24.2134C1110.54 23.2022 1110.54 23.7078 1105.55 24.2134C1101.55 24.6179 1097.89 26.0674 1096.56 26.7415C1094.39 26.4044 1088.07 26.2359 1080.08 28.2584C1070.09 30.7865 1050.12 30.7865 1044.13 28.2584C1039.33 26.2359 1033.47 27.4157 1031.14 28.2584H1017.66C1011.17 28.2584 1006.68 32.3033 1001.18 30.7865C995.69 29.2696 990.197 29.2696 984.205 30.7865C978.213 32.3033 969.225 34.3258 964.731 34.3258C960.236 34.3258 955.742 37.3595 951.748 37.3595C948.552 37.3595 941.761 35.337 938.765 34.3258L928.778 32.3033C926.281 31.7977 920.788 30.4831 918.791 29.2696C916.794 28.0561 913.631 29.7752 912.3 30.7865L904.31 28.2584H900.815H889.829H878.844C877.179 29.1011 873.151 30.7865 870.355 30.7865C867.558 30.7865 862.532 29.1011 860.368 28.2584L855.874 26.7415L844.888 25.2247C842.059 25.7303 836.1 26.7415 834.901 26.7415C833.403 26.7415 830.407 28.2584 827.911 26.7415C825.414 25.2247 820.92 27.2471 818.922 28.2584C817.325 29.0674 813.263 30.2809 811.432 30.7865H803.942C803.276 31.2921 800.846 32.7078 796.452 34.3258C790.959 36.3483 787.464 34.3258 784.967 34.3258H778.975C776.811 34.3258 771.884 33.9213 769.487 32.3033C767.091 30.6853 759.833 31.6292 756.505 32.3033C751.511 34.8314 744.52 34.8314 739.028 37.3595C733.535 39.8876 720.552 39.8876 715.059 39.8876C709.566 39.8876 705.572 37.3595 701.577 37.3595C697.582 37.3595 696.084 37.3595 687.096 38.3708C679.905 39.1798 673.78 39.7191 671.616 39.8876L666.623 41.9101H655.138C650.145 41.9101 648.646 43.427 645.65 43.427C643.254 43.427 639.658 42.4157 638.16 41.9101L635.164 39.8876L631.669 41.9101H629.172C617.687 41.9101 612.694 39.8876 607.201 39.8876C601.708 39.8876 599.212 41.9101 591.222 43.427C583.233 44.9438 568.252 43.427 564.258 41.9101C560.263 40.3932 552.773 37.3595 547.779 37.3595C542.786 37.3595 535.795 41.4045 531.8 43.427C527.805 45.4494 507.332 44.9438 502.838 44.9438C498.344 44.9438 475.374 38.8764 472.378 37.3595C469.382 35.8427 461.892 34.8314 459.895 34.8314C458.297 34.8314 452.571 37.5281 449.908 38.8764C449.242 38.7078 447.511 37.9663 445.913 36.3483C444.315 34.7303 432.93 34.6629 427.438 34.8314L423.942 36.3483C419.947 33.3146 415.953 33.8202 409.961 33.8202C403.968 33.8202 398.476 34.8314 394.481 32.3033C390.486 29.7752 382.497 30.7865 379.501 32.3033C377.104 33.5168 371.178 33.8202 368.515 33.8202L361.025 30.7865C359.527 30.7865 355.532 30.382 351.537 28.764C346.544 26.7415 339.054 32.3033 335.059 30.7865C331.863 29.573 325.405 28.9325 322.576 28.764C307.096 34.3258 297.109 31.7977 293.614 28.764C290.817 26.337 282.129 27.7528 278.134 28.764H266.15C261.156 28.764 253.167 27.2471 250.67 27.2471C248.173 27.2471 237.188 30.7865 226.702 28.764C216.215 26.7415 197.74 28.764 187.753 30.7865C177.766 32.809 162.786 30.7865 159.79 30.7865C156.794 30.7865 153.798 33.8202 151.8 34.8314C150.202 35.6404 148.804 38.2022 148.305 39.382L143.811 36.3483C142.313 35.337 133.824 34.8314 131.827 33.8202C129.829 32.809 118.344 30.7865 114.35 30.7865C110.355 30.7865 103.863 27.2471 101.367 27.2471C98.87 27.2471 96.873 28.764 94.8752 28.764C93.2773 28.764 87.8844 27.7528 85.3876 27.2471C75.4008 29.2696 69.908 28.764 56.9251 27.2471Z" fill="#FFFCF5"/>
</g>
<rect width="1900" height="10" fill="#FFFCF5"/>
</g>
<defs>
<filter id="filter0_d_3543_2491" x="-4" y="3" width="1908" height="48" filterUnits="userSpaceOnUse" color-interpolation-filters="sRGB">
<feFlood flood-opacity="0" result="BackgroundImageFix"/>
<feColorMatrix in="SourceAlpha" type="matrix" values="0 0 0 0 0 0 0 0 0 0 0 0 0 0 0 0 0 0 127 0" result="hardAlpha"/>
<feOffset dy="2"/>
<feGaussianBlur stdDeviation="2"/>
<feComposite in2="hardAlpha" operator="out"/>
<feColorMatrix type="matrix" values="0 0 0 0 0 0 0 0 0 0 0 0 0 0 0 0 0 0 0.1 0"/>
<feBlend mode="normal" in2="BackgroundImageFix" result="effect1_dropShadow_3543_2491"/>
<feBlend mode="normal" in="SourceGraphic" in2="effect1_dropShadow_3543_2491" result="shape"/>
</filter>
<clipPath id="clip0_3543_2491">
<rect width="1900" height="70" fill="white"/>
</clipPath>
</defs>
</svg>
