<?xml version="1.0" encoding="utf-8"?>
<!-- Generator: Adobe Illustrator 25.0.0, SVG Export Plug-In . SVG Version: 6.00 Build 0)  -->
<svg version="1.1" id="Layer_1" xmlns="http://www.w3.org/2000/svg" xmlns:xlink="http://www.w3.org/1999/xlink" x="0px" y="0px"
	 viewBox="0 0 239.2 250" style="enable-background:new 0 0 239.2 250;" xml:space="preserve">
<style type="text/css">
	.st0{fill-rule:evenodd;clip-rule:evenodd;fill:#FFF2E8;}
	.st1{fill-rule:evenodd;clip-rule:evenodd;fill:#FFE4CF;}
	.st2{fill-rule:evenodd;clip-rule:evenodd;fill:#CECECE;}
	.st3{fill:#35414D;}
	.st4{fill-rule:evenodd;clip-rule:evenodd;fill:#838383;}
	.st5{fill-rule:evenodd;clip-rule:evenodd;fill:#FE9737;}
	.st6{fill-rule:evenodd;clip-rule:evenodd;fill:#B5ADB6;}
	.st7{fill-rule:evenodd;clip-rule:evenodd;fill:#F36B37;}
	.st8{fill-rule:evenodd;clip-rule:evenodd;fill:#595959;}
	.st9{fill-rule:evenodd;clip-rule:evenodd;fill:#35414D;}
	.st10{fill:#60A917;}
	.st11{fill:#FE9737;}
	.st12{fill:#D8D8D8;}
	.st13{fill-rule:evenodd;clip-rule:evenodd;fill:#99DD58;}
	.st14{fill:#FF5A5A;}
	.st15{fill-rule:evenodd;clip-rule:evenodd;fill:#97DA7B;}
	.st16{fill-rule:evenodd;clip-rule:evenodd;fill:#68CA44;}
</style>
<g>
	<g id="g7750_4_" transform="translate(18.5,457.4355)">
		<g id="path7752_4_">
			<path class="st0" d="M-15.9-431.7v218.3c0,1.8,1.5,3.3,3.3,3.3h52.7h112.7h22.4c1.8,0,3.3-1.5,3.3-3.3v-200.4l0-2.1
				c0-0.3,0-0.5-0.1-0.7h-26.8c-7.3,0-13.3-6-13.3-13.3l0-24.9c-0.3-0.1-0.5-0.2-0.9-0.2H135H-12.6c-1.8,0-3.3,1.5-3.3,3.3V-431.7z"
				/>
		</g>
	</g>
	<g id="g7754_4_" transform="translate(257.3203,504.5)">
		<g id="path7756_4_">
			<path class="st1" d="M-137.1-501.9c25.4,26.1,41.9,68.8,41.9,116.9c0,10.4-0.8,20.6-2.3,30.4c-0.5,3.1-1,6.3-1.6,9.3
				c-0.7,3.7-1.6,7.3-2.5,10.9c-8.8,33.4-26,60.9-47.9,77.2H-86h22.4c1.8,0,3.3-1.5,3.3-3.3v-37v-49v-114.4l0-2.1
				c0-0.3,0-0.5-0.1-0.7l-40.1-38.1c-0.3-0.1-0.5-0.2-0.9-0.2h-2.5H-137.1z"/>
		</g>
	</g>
	<g id="g7758_4_" transform="translate(331.5508,504.1592)">
		<g id="path7760_4_">
			<path class="st2" d="M-174.8-501.4l0,24.9c0,7.3,6,13.3,13.3,13.3h26.8c-0.2-0.4-0.7-0.8-1.7-1.8l-36.2-34.5
				C-173.7-500.6-174.3-501.1-174.8-501.4"/>
		</g>
	</g>
	<g id="g7762_4_" transform="translate(331.5508,504.1592)">
		<g id="path7764_4_">
			<path class="st3" d="M-137.2-460.7h-24.3c-8.8,0-15.9-7.1-15.9-15.9l0-24.9c0-1.4,1.2-2.6,2.6-2.6c0,0,0,0,0,0
				c1.4,0,2.6,1.2,2.6,2.6l0,24.9c0,5.9,4.8,10.7,10.7,10.7h24.3c1.4,0,2.6,1.2,2.6,2.6C-134.6-461.8-135.8-460.7-137.2-460.7z"/>
		</g>
	</g>
	<g id="g7766_4_" transform="translate(413.1929,241.0635)">
		<g id="path7768_4_">
			<path class="st3" d="M-219.5,8.9h-187.8c-3.3,0-5.9-2.6-5.9-5.9v-115.4c0-1.4,1.2-2.6,2.6-2.6c1.4,0,2.6,1.2,2.6,2.6V3
				c0,0.4,0.3,0.7,0.7,0.7h187.8c0.4,0,0.7-0.3,0.7-0.7v-111.7c0-1.4,1.2-2.6,2.6-2.6c1.4,0,2.6,1.2,2.6,2.6V3
				C-213.6,6.3-216.2,8.9-219.5,8.9z M-410.6-126.9c-1.4,0-2.6-1.2-2.6-2.6v-105.7c0-3.3,2.6-5.9,5.9-5.9h150c1.9,0,2.9,0.9,4.2,2.2
				l0.6,0.5l36,34.3c1,1,1.1,2.6,0.1,3.7c-1,1-2.6,1.1-3.7,0.1l-36.6-34.9c-0.3-0.3-0.6-0.6-0.8-0.8l-149.9,0
				c-0.4,0-0.7,0.3-0.7,0.7v105.7C-408-128-409.2-126.9-410.6-126.9z"/>
		</g>
	</g>
	<g id="g7770_4_" transform="translate(330.2446,64.9756)">
		<g id="path7772_4_">
			<path class="st3" d="M-201,158.2c-3.1,0-5.7-2.2-7.8-4.3c-2.2-2.2-2.6-1.8-5.1,0.3c-2.7,2.3-7.1,6.2-14-0.1
				c-1.1-1-1.1-2.6-0.2-3.7c1-1.1,2.6-1.1,3.7-0.2c3.4,3.1,4.5,2.2,7.1,0c2.3-2,6.5-5.7,12.1-0.1c0.7,0.7,2.9,2.9,4.3,2.8
				c0.9-0.1,1.8-1,2.4-1.8c1.2-1.5,2.1-3.1,2.9-4.5c1.5-2.7,2.9-5.2,5.8-5.7c3.3-0.6,5.1,2.3,6.6,4.7c2.4,3.9,4.3,6.4,8.8,5.9
				c1.4-0.2,2.7,0.9,2.9,2.3c0.2,1.4-0.9,2.7-2.3,2.9c-8.2,0.9-11.7-4.9-13.8-8.4c-0.4-0.7-1.1-1.7-1.5-2.2c-0.6,0.5-1.3,1.9-2,3
				c-0.8,1.5-1.9,3.3-3.3,5.2c-1.9,2.4-3.9,3.7-6.2,3.8C-200.8,158.2-200.9,158.2-201,158.2z"/>
		</g>
	</g>
	<g id="g7774_4_" transform="translate(423.1602,447.0527)">
		<g id="path7776_4_">
			<path class="st2" d="M-221.2-416.2l19.1,5.7l4.9-16.4c1.6-5.3-1.5-10.9-6.7-12.4c-5.3-1.6-10.9,1.4-12.4,6.7L-221.2-416.2z"/>
		</g>
	</g>
	<g id="g7778_4_" transform="translate(325.644,101.1182)">
		<g id="path7780_4_">
			<path class="st4" d="M-171.8,100.2l1.9,16.9c0.2,1.1,0.2,1.2,1,0.3l10.9-13.1l11.7-14.1l-11-13.4l-16.5,5.1L-171.8,100.2z"/>
		</g>
	</g>
	<g id="g7782_4_" transform="translate(412.0854,441.0947)">
		<g id="path7784_4_">
			<path class="st5" d="M-215.6-407.3L-260.2-258l13.8,4.1l13.8,4.1l41.3-138.3l3.3-10.9c0.7-2.3-0.6-4.8-2.9-5.4l-19.1-5.7
				C-212.5-410.9-214.9-409.6-215.6-407.3"/>
		</g>
	</g>
	<g id="g7786_4_" transform="translate(452.5229,474.4854)">
		<g id="path7788_4_">
			<path class="st6" d="M-236.1-457.1l-4.9,16.4l9.6,2.9l4.9-16.4c1.6-5.3-1.5-10.9-6.7-12.4c-1.7-0.5-3.5-0.5-5.2-0.1
				C-236.1-464.3-235.1-460.6-236.1-457.1"/>
		</g>
	</g>
	<g id="g7790_4_" transform="translate(441.9307,407.96)">
		<g id="path7792_4_">
			<path class="st7" d="M-230.8-357.8L-270.2-226l-1.9,6.4l9.6,2.9l41.3-138.3l3.3-10.9c0.7-2.3-0.6-4.8-2.9-5.4l-9.6-2.9
				c2.3,0.7,3.6,3.1,3,5.4L-230.8-357.8z"/>
		</g>
	</g>
	<g id="g7794_4_" transform="translate(357.9888,127.2178)">
		<g id="path7796_4_">
			<path class="st8" d="M-188.2,61.2l-11.7,14.1l-3.6,4.3l1.3,11.4c0.2,1.1,0.2,1.2,1,0.3l10.9-13.1l11.7-14.1L-188.2,61.2z"/>
		</g>
	</g>
	<g id="g7798_4_" transform="translate(461.3545,402.1719)">
		<g id="path7800_4_">
			<path class="st3" d="M-240.9-288.1c-0.2,0-0.5,0-0.7-0.1c-1.4-0.4-2.2-1.9-1.7-3.2l15.3-51.3l-13.3-4c-1.4-0.4-2.2-1.9-1.7-3.2
				c0.4-1.4,1.9-2.2,3.2-1.7l15.8,4.7c0.7,0.2,1.2,0.6,1.5,1.3c0.3,0.6,0.4,1.3,0.2,2l-16.1,53.7
				C-238.7-288.8-239.7-288.1-240.9-288.1z"/>
		</g>
	</g>
	<g id="g7802_4_" transform="translate(374.0615,313.9443)">
		<g id="path7804_4_">
			<path class="st3" d="M-194.7-120.1c-0.2,0-0.5,0-0.7-0.1l-27.5-8.2c-0.7-0.2-1.2-0.6-1.5-1.3c-0.3-0.6-0.4-1.3-0.2-2l21-70.2
				c0.4-1.4,1.9-2.2,3.2-1.7c1.4,0.4,2.2,1.9,1.7,3.2l-20.3,67.8l22.6,6.7l43.9-146.7c0.1-0.5,0.1-0.9-0.1-1.4
				c-0.2-0.4-0.6-0.7-1-0.9l-19.2-5.7c-0.9-0.3-2,0.3-2.2,1.2l-18.7,62.6c-0.4,1.4-1.9,2.2-3.2,1.7c-1.4-0.4-2.2-1.9-1.7-3.2
				l18.7-62.6c1.1-3.7,5-5.8,8.7-4.7l19.2,5.7c1.8,0.5,3.3,1.7,4.1,3.4c0.9,1.6,1.1,3.5,0.5,5.3l-44.6,149.2
				C-192.5-120.8-193.6-120.1-194.7-120.1z"/>
		</g>
	</g>
	<g id="g7806_4_" transform="translate(331.5225,66.168)">
		<g id="path7808_4_">
			<path class="st3" d="M-175.4,155.5c-0.2,0-0.5,0-0.8-0.1c-1.7-0.5-1.9-2-2.1-2.8c0-0.1,0-0.2,0-0.2l-4-35.1
				c-0.1-0.9,0.2-1.7,0.9-2.3c0.7-0.6,1.6-0.7,2.4-0.5l27.5,8.2c0.8,0.2,1.5,0.9,1.7,1.7c0.3,0.8,0.1,1.7-0.5,2.4l-22.6,27.2
				c0,0-0.1,0.1-0.1,0.1C-173.3,154.6-174.2,155.5-175.4,155.5z M-174.7,152.3L-174.7,152.3L-174.7,152.3z M-176.7,120.5l3,26.5
				l17-20.5L-176.7,120.5z"/>
		</g>
	</g>
	<g id="g7810_4_" transform="translate(423.1602,447.0527)">
		<g id="path7812_4_">
			<path class="st3" d="M-202.1-407.8c-0.2,0-0.5,0-0.7-0.1l-19.1-5.7c-0.7-0.2-1.2-0.6-1.5-1.3c-0.3-0.6-0.4-1.3-0.2-2l4.9-16.4
				c1-3.2,3.1-5.9,6.1-7.5c3-1.6,6.4-2,9.6-1c6.6,2,10.4,9,8.5,15.7l-4.9,16.4C-199.9-408.6-201-407.8-202.1-407.8z M-218-417.9
				l14.2,4.2l4.2-13.9c1.2-3.9-1.1-8-5-9.2c-1.9-0.6-3.9-0.4-5.6,0.6c-1.7,0.9-3,2.5-3.6,4.4L-218-417.9z"/>
		</g>
	</g>
	<g>
		<g>
			<path class="st9" d="M26.4,134.7c-1.1,0-2,0.9-2,2v24c0,1.1,0.9,2,2,2h24c1.1,0,2-0.9,2-2v-12c0-1.1,0.9-2,2-2c1.1,0,2,0.9,2,2
				v12c0,3.3-2.7,6-6,6h-24c-3.3,0-6-2.7-6-6v-24c0-3.3,2.7-6,6-6h20c1.1,0,2,0.9,2,2s-0.9,2-2,2H26.4z M55,133.3
				c0.8-0.8,2-0.8,2.8,0c0.8,0.8,0.8,2,0,2.8l-18,18c-0.8,0.8-2,0.8-2.8,0l-6-6c-0.8-0.8-0.8-2,0-2.8c0.8-0.8,2-0.8,2.8,0l4.6,4.6
				L55,133.3z"/>
		</g>
	</g>
	<g>
		<g>
			<path class="st3" d="M127.9,73.6c-0.4-0.5-1.1-0.8-1.7-0.8c-0.3,0-0.7,0-1,0.1l-11.9,4.2c-1.3,0.5-2,1.9-1.5,3.2
				c0.5,1.3,1.9,2,3.2,1.5l6.2-2.2l-8.6,18l-10.6-5.1c-1.3-0.6-2.8-0.1-3.4,1.2c0,0,0,0,0,0l-9.3,19.3c-0.6,1.3-0.1,2.8,1.2,3.4
				c0,0,0,0,0,0c1.3,0.6,2.8,0.1,3.4-1.2c0,0,0,0,0,0l8.2-17.1l10.6,5.1c1.3,0.6,2.8,0.1,3.4-1.2c0,0,0,0,0,0l9.7-20.3l2.2,6.2
				c0.5,1.3,1.9,2,3.2,1.5c1.3-0.5,2-1.9,1.5-3.2l-4.2-11.9C128.3,74.1,128.1,73.8,127.9,73.6L127.9,73.6z"/>
		</g>
		<g>
			<path class="st10" d="M126.7,72.6c-0.4-0.5-1.1-0.8-1.7-0.8c-0.3,0-0.7,0-1,0.1L112,76.1c-1.3,0.5-2,1.9-1.5,3.2s1.9,2,3.2,1.5
				l6.2-2.2l-8.6,18l-10.6-5.1c-1.3-0.6-2.8-0.1-3.4,1.2c0,0,0,0,0,0L88,112.1c-0.6,1.3-0.1,2.8,1.2,3.4c0,0,0,0,0,0
				c1.3,0.6,2.8,0.1,3.4-1.2c0,0,0,0,0,0l8.2-17.1l10.6,5.1c1.3,0.6,2.8,0.1,3.4-1.2c0,0,0,0,0,0l9.7-20.3l2.2,6.2
				c0.5,1.3,1.9,2,3.2,1.5c1.3-0.5,2-1.9,1.5-3.2l-4.2-11.9C127.1,73.1,126.9,72.9,126.7,72.6L126.7,72.6z"/>
		</g>
	</g>
	<g>
		<g>
			<g>
				<path class="st3" d="M64.2,79.2l-3.5-7c-0.6-1.3-0.1-2.8,1.1-3.5c1.3-0.6,2.8-0.1,3.5,1.1l2.3,4.6l11.6-5.9
					c1.3-0.6,2.8-0.1,3.5,1.1c0.6,1.3,0.1,2.8-1.1,3.5l-13.9,7C66.4,81,64.8,80.5,64.2,79.2L64.2,79.2z M52.5,66.3l-17.3-5.7
					c-1.4-0.4-2.8,0.3-3.3,1.7c-0.4,1.4,0.3,2.8,1.7,3.3l17.3,5.7c1.4,0.4,2.8-0.3,3.3-1.7C54.6,68.2,53.8,66.8,52.5,66.3z
					 M73.3,88.8c-0.6-1.3-2.2-1.8-3.5-1.1l-6.2,3.1l-3.1-6.2c-0.6-1.3-2.2-1.8-3.5-1.1c-1.3,0.6-1.8,2.2-1.1,3.5l3.1,6.2l-6.2,3.1
					c-1.3,0.6-1.8,2.2-1.1,3.5c0.6,1.3,2.2,1.8,3.5,1.1l6.2-3.1l3.1,6.2c0.6,1.3,2.2,1.8,3.5,1.1c1.3-0.6,1.8-2.2,1.1-3.5l-3.1-6.2
					l6.2-3.1C73.4,91.6,73.9,90.1,73.3,88.8L73.3,88.8z M46,86.1l-17.3-5.7c-1.4-0.4-2.8,0.3-3.3,1.7s0.3,2.8,1.7,3.3L44.3,91
					c1.4,0.4,2.8-0.3,3.3-1.7S47.3,86.5,46,86.1z"/>
			</g>
		</g>
		<g>
			<g>
				<path class="st11" d="M64.7,77.7l-3.5-7c-0.6-1.3-0.1-2.8,1.1-3.5c1.3-0.6,2.8-0.1,3.5,1.1l2.3,4.6l11.6-5.9
					c1.3-0.6,2.8-0.1,3.5,1.1c0.6,1.3,0.1,2.8-1.1,3.5l-13.9,7C66.9,79.5,65.3,79,64.7,77.7L64.7,77.7z M52.9,64.8l-17.3-5.7
					c-1.4-0.4-2.8,0.3-3.3,1.7s0.3,2.8,1.7,3.3l17.3,5.7c1.4,0.4,2.8-0.3,3.3-1.7C55,66.8,54.3,65.3,52.9,64.8z M73.7,87.3
					c-0.6-1.3-2.2-1.8-3.5-1.1l-6.2,3.1L61,83.1c-0.6-1.3-2.2-1.8-3.5-1.1c-1.3,0.6-1.8,2.2-1.1,3.5l3.1,6.2l-6.2,3.1
					c-1.3,0.6-1.8,2.2-1.1,3.5c0.6,1.3,2.2,1.8,3.5,1.1l6.2-3.1l3.1,6.2c0.6,1.3,2.2,1.8,3.5,1.1c1.3-0.6,1.8-2.2,1.1-3.5l-3.1-6.2
					l6.2-3.1C73.9,90.2,74.4,88.6,73.7,87.3L73.7,87.3z M46.4,84.6l-17.3-5.7c-1.4-0.4-2.8,0.3-3.3,1.7c-0.4,1.4,0.3,2.8,1.7,3.3
					l17.3,5.7c1.4,0.4,2.8-0.3,3.3-1.7C48.6,86.6,47.8,85.1,46.4,84.6z"/>
			</g>
		</g>
	</g>
	<g>
		<g>
			<path class="st3" d="M97.6,142.9l-3.6-3.6c-0.3-0.3-0.9-0.3-1.2,0c-0.3,0.3-0.3,0.9,0,1.2l3.6,3.6c0.2,0.2,0.4,0.3,0.6,0.3
				s0.4-0.1,0.6-0.3C97.9,143.8,97.9,143.3,97.6,142.9z M108.5,132.8c-0.5,0-0.9,0.4-0.9,0.9v5.1c0,0.5,0.4,0.9,0.9,0.9
				c0.5,0,0.9-0.4,0.9-0.9v-5.1C109.4,133.2,109,132.8,108.5,132.8z M124.2,139.3c-0.3-0.3-0.9-0.3-1.2,0l-3.6,3.6
				c-0.3,0.3-0.3,0.9,0,1.2c0.2,0.2,0.4,0.3,0.6,0.3c0.2,0,0.4-0.1,0.6-0.3l3.6-3.6C124.6,140.2,124.6,139.7,124.2,139.3
				L124.2,139.3z M129.9,154.2h-5.1c-0.5,0-0.9,0.4-0.9,0.9c0,0.5,0.4,0.9,0.9,0.9h5.1c0.5,0,0.9-0.4,0.9-0.9
				C130.8,154.6,130.4,154.2,129.9,154.2z M92.2,154.2h-5.1c-0.5,0-0.9,0.4-0.9,0.9c0,0.5,0.4,0.9,0.9,0.9h5.1
				c0.5,0,0.9-0.4,0.9-0.9C93.1,154.6,92.7,154.2,92.2,154.2z M122.4,155.1c0-7.7-6.2-13.9-13.9-13.9c-7.7,0-13.9,6.2-13.9,13.9
				c0,2.7,0.8,5.3,2.2,7.5l5.5,10.3h-0.5c-1.7,0-3,1.4-3,3c0,0.9,0.4,1.6,0.9,2.2c-0.6,0.6-0.9,1.3-0.9,2.2c0,1.7,1.4,3,3,3h2.5
				c0.4,1.9,2.1,3.4,4.1,3.4c2,0,3.7-1.4,4.1-3.4h2.5c1.7,0,3-1.4,3-3c0-0.9-0.4-1.6-0.9-2.2c0.6-0.6,0.9-1.3,0.9-2.2
				c0-1.7-1.4-3-3-3h-0.5l5.5-10.3C121.7,160.3,122.4,157.7,122.4,155.1z M108.5,184.9c-1.1,0-2-0.7-2.3-1.6h4.7
				C110.5,184.3,109.6,184.9,108.5,184.9z M115.2,181.6h-13.4c-0.7,0-1.3-0.6-1.3-1.3c0-0.7,0.6-1.3,1.3-1.3h13.4
				c0.7,0,1.3,0.6,1.3,1.3C116.5,181,115.9,181.6,115.2,181.6z M115.2,174.6c0.7,0,1.3,0.6,1.3,1.3s-0.6,1.3-1.3,1.3h-13.4
				c-0.7,0-1.3-0.6-1.3-1.3s0.6-1.3,1.3-1.3H115.2z M105.8,164.1l2.7-1.7l2.7,1.7l-1.7,8.8h-2.1L105.8,164.1z M118.7,161.7l-6,11.2
				h-1.4l1.6-8.7l3.3-2.1c0.4-0.3,0.5-0.8,0.3-1.2c-0.3-0.4-0.8-0.5-1.2-0.3l-3.2,2l-3.2-2c-0.3-0.2-0.6-0.2-0.9,0l-3.2,2l-3.2-2
				c-0.4-0.3-0.9-0.1-1.2,0.3c-0.3,0.4-0.1,0.9,0.3,1.2l3.3,2.1l1.6,8.7h-1.4l-6-11.2c0,0,0,0,0-0.1c-1.3-2-1.9-4.2-1.9-6.6
				c0-6.7,5.5-12.2,12.2-12.2c6.7,0,12.2,5.5,12.2,12.2C120.7,157.4,120,159.7,118.7,161.7C118.7,161.7,118.7,161.7,118.7,161.7
				L118.7,161.7z"/>
		</g>
		<g>
			<path class="st12" d="M111.2,164.1l-1.7,8.8h-2.1l-1.7-8.8l2.7-1.7L111.2,164.1z"/>
		</g>
		<g>
			<path class="st11" d="M120.7,155.1c0,2.3-0.7,4.6-1.9,6.6c0,0,0,0,0,0.1l-6,11.2h-1.4l1.6-8.7l3.3-2.1c0.4-0.3,0.5-0.8,0.3-1.2
				c-0.3-0.4-0.8-0.5-1.2-0.3l-3.2,2l-3.2-2c-0.3-0.2-0.6-0.2-0.9,0l-3.2,2l-3.2-2c-0.4-0.3-0.9-0.1-1.2,0.3
				c-0.3,0.4-0.1,0.9,0.3,1.2l3.3,2.1l1.6,8.7h-1.4l-6-11.2c0,0,0,0,0-0.1c-1.3-2-1.9-4.2-1.9-6.6c0-6.7,5.5-12.2,12.2-12.2
				C115.2,142.9,120.7,148.3,120.7,155.1L120.7,155.1z"/>
		</g>
		<g>
			<g>
				<path class="st12" d="M116.5,175.9c0,0.7-0.6,1.3-1.3,1.3h-13.4c-0.7,0-1.3-0.6-1.3-1.3c0-0.7,0.6-1.3,1.3-1.3h13.4
					C115.9,174.6,116.5,175.2,116.5,175.9z"/>
			</g>
			<g>
				<path class="st12" d="M116.5,180.3c0,0.7-0.6,1.3-1.3,1.3h-13.4c-0.7,0-1.3-0.6-1.3-1.3c0-0.7,0.6-1.3,1.3-1.3h13.4
					C115.9,179,116.5,179.5,116.5,180.3z"/>
			</g>
			<g>
				<path class="st12" d="M110.8,183.3c-0.4,0.9-1.3,1.6-2.3,1.6c-1.1,0-2-0.7-2.3-1.6H110.8z"/>
			</g>
		</g>
	</g>
	<g>
		<g>
			<path class="st13" d="M25,133.2c-1.1,0-2,0.9-2,2v24c0,1.1,0.9,2,2,2h24c1.1,0,2-0.9,2-2v-12c0-1.1,0.9-2,2-2c1.1,0,2,0.9,2,2v12
				c0,3.3-2.7,6-6,6H25c-3.3,0-6-2.7-6-6v-24c0-3.3,2.7-6,6-6h20c1.1,0,2,0.9,2,2s-0.9,2-2,2H25z M53.6,131.8c0.8-0.8,2-0.8,2.8,0
				c0.8,0.8,0.8,2,0,2.8l-18,18c-0.8,0.8-2,0.8-2.8,0l-6-6c-0.8-0.8-0.8-2,0-2.8c0.8-0.8,2-0.8,2.8,0l4.6,4.6L53.6,131.8z"/>
		</g>
	</g>
	<g>
		<g>
			<path class="st3" d="M69.1,227c-0.1,0-0.2,0-0.3,0c-0.8,0-1.5-0.3-2-0.8l-12.6-12.6l-12.8,12.8c-0.5,0.4-1.1,0.6-1.7,0.6l-0.2,0
				c0,0-0.1,0-0.2,0c-0.7,0-1.3-0.2-1.8-0.7c-1-1-1-2.8,0-3.8l12.8-12.8l-12.8-12.8c-0.9-1.1-0.8-2.8,0.3-3.8
				c0.5-0.4,1.1-0.7,1.8-0.7c0.7,0,1.3,0.2,1.8,0.7l12.8,12.7l12.6-12.6c0.5-0.5,1.2-0.7,1.8-0.7c0.8,0,1.5,0.3,2,0.9
				c0.9,1,1,2.5,0.1,3.6l-12.7,12.7l12.8,12.7c1.1,1,1.2,2.8,0.2,3.9c0,0-0.1,0.1-0.1,0.1C70.4,226.8,69.8,227,69.1,227z"/>
		</g>
		<g>
			<path class="st14" d="M69.6,225.6c-0.1,0-0.2,0-0.3,0c-0.8,0-1.5-0.3-2-0.8l-12.6-12.6L41.9,225c-0.5,0.4-1.1,0.6-1.7,0.6l-0.2,0
				c0,0-0.1,0-0.2,0c-0.7,0-1.3-0.2-1.8-0.7c-1-1-1-2.8,0-3.8l12.8-12.8L38,195.5c-0.9-1.1-0.8-2.8,0.3-3.8c0.5-0.4,1.1-0.7,1.8-0.7
				c0.7,0,1.3,0.2,1.8,0.7l12.8,12.7l12.6-12.6c0.5-0.5,1.2-0.7,1.8-0.7c0.8,0,1.5,0.3,2,0.9c0.9,1,1,2.5,0.1,3.6l-12.7,12.7
				L71.4,221c1.1,1,1.2,2.8,0.2,3.9c0,0-0.1,0.1-0.1,0.1C70.9,225.4,70.3,225.6,69.6,225.6z"/>
		</g>
	</g>
	<g>
		<g id="g7830_4_" transform="translate(293.2144,407.6475)">
			<g id="path7832_4_">
				<path class="st15" d="M-189.3-389.8h-63.6c-1.1,0-2,0.9-2,2v11.7c0,1.1,0.9,2,2,2h63.6c1.1,0,2-0.9,2-2v-11.7
					C-187.3-388.9-188.2-389.8-189.3-389.8"/>
			</g>
		</g>
		<g id="g7834_4_" transform="translate(293.2144,407.6475)">
			<g id="path7836_4_">
				<path class="st16" d="M-189.3-389.8h-18.1c1.1,0,2,0.9,2,2v11.7c0,1.1-0.9,2-2,2h18.1c1.1,0,2-0.9,2-2v-11.7
					C-187.3-388.9-188.2-389.8-189.3-389.8"/>
			</g>
		</g>
		<g id="g7838_4_" transform="translate(128.1699,407.6475)">
			<g id="path7840_4_">
				<path class="st3" d="M-24.3-371.6h-63.6c-2.5,0-4.6-2-4.6-4.6v-11.7c0-2.5,2-4.6,4.6-4.6h63.6c2.5,0,4.6,2,4.6,4.6v11.7
					C-19.7-373.6-21.7-371.6-24.3-371.6z M-87.3-376.8h62.4v-10.4h-62.4V-376.8z M-24.3-387.2L-24.3-387.2L-24.3-387.2z"/>
			</g>
		</g>
	</g>
</g>
</svg>
