<?xml version="1.0" encoding="utf-8"?>
<!-- Generator: Adobe Illustrator 25.0.0, SVG Export Plug-In . SVG Version: 6.00 Build 0)  -->
<svg version="1.1" id="Layer_1" xmlns="http://www.w3.org/2000/svg" xmlns:xlink="http://www.w3.org/1999/xlink" x="0px" y="0px"
	 viewBox="0 0 1645.5 900" style="enable-background:new 0 0 1645.5 900;" xml:space="preserve">
<style type="text/css">
	.st0{fill:#FF492C;}
	.st1{fill:#35414D;}
	.st2{fill:#FFFFFF;}
</style>
<g>
	<path class="st0" d="M1354.2,49l-2.4-0.8l-2.5-0.5c-27.8-5.7-181.6-24.9-218.1-24.9c-1.6,0-3.1,0-4.1,0.1
		c-10.4,0.3-20.1,3.5-28.6,8.7c-32.2-19.8-71.9-29.1-106.6-29.1c-29.6,0-56.4,6.6-77.6,19.2c-14.6,8.6-26.8,18.7-37.2,29.7
		c-0.6-0.6-1.1-1.3-1.6-1.9C848.2,21.8,811.3,7.8,765.8,7.8l-2.7,0c-52.5,0.8-87.7,24.9-110.1,44.1c-15.8-18.5-40.5-29.1-71.4-29.1
		c-3.1,0-6.4,0.1-10.3,0.3C538.8,25.5,510,44,464,127c-14.4-18.3-29.1-36.6-43.7-54.7c-15.1-18.1-37.2-27.7-64-27.7
		c-7.2,0-13.7,0.6-19.1,1.3c-53.3,6.2-81.5,42.1-77.2,98.6c5.3,71.5,10.8,142.9,16.6,215.1l0.9,7.6c2.1,16.9,8.7,28.7,17.3,36.9
		c0.4,0.4,0.7,0.7,1.1,1c0.2,0.2,0.5,0.5,0.7,0.7c0,0,0.1,0.1,0.1,0.1c0.3,0.3,0.7,0.7,1,1c0.4,0.3,0.7,0.7,1.1,1
		c0.1,0.1,0.2,0.2,0.3,0.3c0.1,0.1,0.2,0.2,0.3,0.3c0.1,0.1,0.2,0.2,0.3,0.3c0.4,0.4,0.7,0.7,1.1,1c0.1,0.1,0.2,0.2,0.3,0.3
		c0.2,0.2,0.5,0.5,0.7,0.7c0.1,0.1,0.1,0.1,0.2,0.2c0.3,0.3,0.7,0.7,1,1c0.3,0.3,0.6,0.6,0.9,0.9c0.1,0.1,0.2,0.2,0.2,0.2
		c0.3,0.3,0.7,0.7,1,1c0.2,0.2,0.4,0.4,0.6,0.6c0.2,0.2,0.5,0.5,0.7,0.7c0.2,0.2,0.4,0.4,0.6,0.6c0.1,0.1,0.2,0.2,0.3,0.3
		c0.2,0.2,0.4,0.4,0.6,0.6c0.1,0.1,0.2,0.2,0.3,0.3c0.3,0.3,0.6,0.7,1,1c0.1,0.1,0.3,0.3,0.4,0.4c0.2,0.2,0.3,0.3,0.5,0.5
		c0.4,0.4,0.7,0.7,1.1,1.1c10.6,10.7,24.5,15.3,37.4,15.3c2.3,0,4.9-0.1,7.9-0.4c0.9-0.1,5.9-0.2,5.9-0.2c4.7-0.1,9-0.4,10.2-0.5
		c0,0,28.9-3.5,32.7-3.9l6.2-1.1l3.2-1.2c20-5,33.8-15.1,42.3-31.2c7.1,3,14.7,4.5,22.5,4.5l3.6-0.1l1.3-0.1
		c8.4-0.8,25.6-3.4,42.2-12.2c10.5,18.8,27.3,30.1,48.6,31.9l3.8,0.2c5.6,0.3,13.7,0.7,17,0.7l2.5,0l10.1-0.6
		c40.9-2.4,59-21,66.7-40.3c22.9,16.1,50.8,25.8,83.5,25.8h0.1l2.8,0c43.5-0.7,77.2-22.2,102.1-53.1c19.5,19.9,41,34.9,73.6,46.5
		l4.7,1.4c9.7,2.9,16.6,4.9,24.2,5.2c11.3,0.4,22.6,0.9,34.3,1.4l1.8,0c2.6,0,7.9-0.6,13.6-1.7c1.1-0.2,2.3-0.4,2.4-0.5l2.6-0.3
		l2.6-0.6c37.2-8.1,67.8-33.9,86.2-72.1c0.1-0.2,0.2-0.3,0.3-0.5c0.1-0.2,0.2-0.3,0.3-0.5c0.1-0.2,0.2-0.3,0.3-0.5
		c0.1-0.2,0.2-0.3,0.3-0.5c0.1-0.2,0.2-0.3,0.3-0.5c0.1-0.2,0.2-0.3,0.3-0.5c0.1-0.2,0.2-0.3,0.3-0.5c0.1-0.2,0.2-0.3,0.3-0.5
		c0.1-0.2,0.2-0.3,0.3-0.5c0.1-0.2,0.2-0.3,0.3-0.5c0.1-0.2,0.2-0.3,0.3-0.5c0.1-0.2,0.2-0.3,0.3-0.5c0.1-0.2,0.2-0.3,0.3-0.5
		c0.1-0.2,0.2-0.3,0.3-0.5c0.1-0.2,0.2-0.3,0.3-0.5c0.1-0.2,0.2-0.3,0.3-0.5c0.1-0.2,0.2-0.3,0.3-0.5c0.1-0.2,0.2-0.3,0.3-0.5
		c0.1-0.2,0.2-0.3,0.3-0.5c0.1-0.2,0.2-0.3,0.3-0.5c0.1-0.2,0.2-0.3,0.3-0.5c0.1-0.2,0.2-0.3,0.3-0.5c0.1-0.2,0.2-0.3,0.3-0.5
		c0.1-0.2,0.2-0.3,0.3-0.5c0.1-0.2,0.2-0.3,0.3-0.5c0.1-0.2,0.2-0.3,0.3-0.5c0.1-0.2,0.2-0.3,0.3-0.5c0.1-0.2,0.2-0.3,0.3-0.5
		c0.1-0.2,0.2-0.3,0.3-0.5c0.1-0.2,0.2-0.3,0.3-0.5c0.1-0.2,0.2-0.3,0.3-0.5c0.4-0.9,0.8-1.8,1.2-2.7c-0.5,9.8-0.9,19.6-1.4,29.3
		c-0.8,16.8,2.7,72.5,82.8,80.7c7.5,0.8,13.9,1.2,19.6,1.2c25.7,0,42.5-8.2,53.7-20.2c0.3-0.3,0.5-0.6,0.7-0.8
		c0.1-0.1,0.1-0.1,0.2-0.2c0.3-0.3,0.5-0.7,0.8-1c0,0,0,0,0,0c0.3-0.3,0.6-0.7,0.9-1c0.1-0.1,0.1-0.1,0.1-0.2
		c0.1-0.1,0.2-0.3,0.3-0.4c0.2-0.3,0.4-0.5,0.7-0.8c0.2-0.2,0.4-0.5,0.7-0.8c0.3-0.3,0.6-0.7,0.9-1c0.5-0.5,0.8-1,1.3-1.5
		c0,0,0-0.1,0.1-0.1c0.1-0.1,0.1-0.1,0.1-0.2c0.1-0.1,0.2-0.2,0.3-0.4c0.2-0.2,0.4-0.5,0.7-0.8c0.1-0.1,0.1-0.2,0.2-0.3
		c0.3-0.3,0.5-0.6,0.8-0.9c0.1-0.1,0.1-0.1,0.1-0.2c0.3-0.3,0.6-0.7,0.9-1c0,0,0,0,0,0c0.4-0.4,0.6-0.8,1-1.1
		c0.1-0.1,0.1-0.1,0.1-0.2c0.1-0.1,0.1-0.2,0.2-0.3c0.3-0.3,0.5-0.6,0.8-0.9c0,0,0.1-0.1,0.1-0.1c0.3-0.3,0.5-0.7,0.8-1
		c0.1-0.1,0.1-0.1,0.1-0.2c0.1-0.1,0.2-0.3,0.4-0.4c0.2-0.2,0.4-0.5,0.6-0.7c19.2-19.5,22.8-49.4,25.3-70.7
		c0.7-5.7,1.5-12.1,2.6-20.3c0.2-1.5,0.4-3.1,0.7-4.9c0.5-3.4,1-7,1.1-8.3c1.6-10.7,3.3-27.6,5-45.9c12.7-2.8,26.5-8.9,38.3-21.6
		c0.2-0.2,0.4-0.3,0.5-0.5c0.2-0.2,0.4-0.3,0.5-0.5c0.2-0.2,0.4-0.3,0.5-0.5c0.2-0.2,0.4-0.3,0.5-0.5c0.2-0.2,0.4-0.3,0.5-0.5
		c0.2-0.2,0.4-0.3,0.5-0.5c0.2-0.2,0.4-0.3,0.5-0.5c0.2-0.2,0.4-0.3,0.5-0.5c0.2-0.2,0.4-0.3,0.5-0.5c0.2-0.2,0.4-0.3,0.5-0.5
		c0.2-0.2,0.4-0.3,0.5-0.5c0.2-0.2,0.4-0.3,0.5-0.5c0.2-0.2,0.4-0.3,0.5-0.5c0.2-0.2,0.4-0.3,0.5-0.5c0.2-0.2,0.4-0.3,0.5-0.5
		c0.2-0.2,0.4-0.3,0.5-0.5c0.2-0.2,0.4-0.3,0.5-0.5c0.2-0.2,0.4-0.3,0.5-0.5c0.2-0.2,0.4-0.3,0.5-0.5c0.2-0.2,0.4-0.3,0.5-0.5
		c0.2-0.2,0.4-0.3,0.5-0.5c0.2-0.2,0.4-0.3,0.5-0.5c0.2-0.2,0.4-0.3,0.5-0.5c0.2-0.2,0.4-0.3,0.5-0.5c0.2-0.2,0.4-0.3,0.5-0.5
		c0.2-0.2,0.4-0.3,0.5-0.5c0.2-0.2,0.4-0.3,0.5-0.5c0.2-0.2,0.4-0.3,0.5-0.5c0.2-0.2,0.4-0.3,0.5-0.5c0.2-0.2,0.4-0.3,0.5-0.5
		c0.2-0.2,0.4-0.3,0.5-0.5c13.4-13.7,24.5-35.2,28.7-68.7C1411.8,92.1,1392.2,61.2,1354.2,49z"/>
	<path class="st1" d="M1344.9,78.6l-0.9-0.3l-0.9-0.2c-25.3-5.2-177.1-24.3-211.9-24.3c-1.3,0-2.5,0-2.7,0.1c-9.8,0-18,5.6-22.8,13
		c-0.1,0.1-0.2,0.3-0.3,0.5c-0.1,0.1-0.2,0.3-0.3,0.4c-0.1,0.1-0.2,0.3-0.3,0.5c-0.1,0.1-0.2,0.3-0.3,0.5c-0.1,0.1-0.2,0.3-0.3,0.5
		c-0.1,0.1-0.2,0.3-0.3,0.5c-0.1,0.1-0.2,0.3-0.3,0.5c-0.1,0.1-0.2,0.3-0.3,0.5c-0.1,0.1-0.2,0.3-0.3,0.4c-0.1,0.1-0.2,0.3-0.3,0.5
		c-0.1,0.1-0.2,0.3-0.3,0.5c-0.1,0.1-0.2,0.3-0.3,0.4c-0.1,0.1-0.2,0.3-0.3,0.5c-0.1,0.1-0.1,0.2-0.2,0.3
		c-28.2-27-73.1-39.6-110.1-39.6c-24,0-45.4,5.1-61.7,14.8c-27,16-45,37.3-52.8,60.8c-5.9-14.7-13.8-27.5-24-37.9
		c-21.2-21.5-50.7-32.5-87.5-32.5l-2.4,0c-34.3,0.5-63.1,12.6-93.1,39c-10.3,9-18.4,19.4-24.7,30.5c-0.8-3.8-2-8-3.9-12.1
		c-0.1-0.2-0.1-0.3-0.2-0.5c-0.1-0.2-0.1-0.3-0.2-0.5c-0.1-0.1-0.1-0.3-0.2-0.4c-0.1-0.2-0.1-0.3-0.2-0.5c-0.1-0.1-0.1-0.3-0.2-0.4
		c-0.1-0.2-0.1-0.3-0.2-0.5c-0.1-0.1-0.1-0.3-0.2-0.4c-0.1-0.2-0.1-0.3-0.2-0.5c-0.1-0.2-0.1-0.3-0.2-0.5c-0.1-0.2-0.1-0.3-0.2-0.5
		c-0.1-0.1-0.1-0.3-0.2-0.4c-0.1-0.2-0.1-0.3-0.2-0.5c-0.1-0.1-0.1-0.3-0.2-0.4c-0.1-0.1-0.1-0.3-0.2-0.4c-0.1-0.2-0.1-0.3-0.2-0.5
		c-0.1-0.2-0.1-0.3-0.2-0.5c-0.1-0.1-0.1-0.3-0.2-0.4c-0.1-0.1-0.1-0.3-0.2-0.4c-0.1-0.2-0.1-0.3-0.2-0.5c-0.1-0.1-0.1-0.3-0.2-0.4
		c-0.1-0.1-0.1-0.3-0.2-0.4c-0.1-0.2-0.1-0.3-0.2-0.5c-0.1-0.1-0.1-0.3-0.2-0.4c-0.1-0.2-0.1-0.3-0.2-0.5c-0.1-0.2-0.1-0.3-0.2-0.5
		c-0.1-0.1-0.1-0.3-0.2-0.4c-0.1-0.2-0.1-0.3-0.2-0.5c-0.1-0.1-0.1-0.3-0.2-0.4c-0.1-0.2-0.1-0.3-0.2-0.5c-0.1-0.1-0.1-0.3-0.2-0.4
		c-0.1-0.2-0.1-0.3-0.2-0.5c-6.6-14.3-21.3-28.4-54.1-28.4c-2.6,0-5.2,0.1-8.1,0.3c-20.9,1.5-46.3,13.3-104.1,129.6
		c-19.4-25.8-39.2-51.6-59.2-77c-0.1-0.1-0.2-0.2-0.3-0.3c0-0.1-0.1-0.1-0.1-0.2c-0.1-0.1-0.2-0.2-0.3-0.3c0-0.1-0.1-0.1-0.1-0.2
		c-0.1-0.1-0.2-0.2-0.3-0.3c0-0.1-0.1-0.1-0.1-0.2c-0.1-0.1-0.2-0.2-0.3-0.3c0-0.1-0.1-0.1-0.1-0.2c-0.1-0.1-0.2-0.2-0.3-0.3
		c0-0.1-0.1-0.1-0.1-0.2c-0.1-0.1-0.2-0.2-0.3-0.3c0-0.1-0.1-0.1-0.1-0.2c-0.1-0.1-0.2-0.2-0.3-0.3c0-0.1-0.1-0.1-0.1-0.2
		c-0.1-0.1-0.2-0.2-0.3-0.3c0-0.1-0.1-0.1-0.1-0.2c-0.1-0.1-0.2-0.2-0.3-0.3c0-0.1-0.1-0.1-0.1-0.2c-0.1-0.1-0.2-0.2-0.3-0.3
		c0-0.1-0.1-0.1-0.1-0.2c-0.1-0.1-0.2-0.2-0.3-0.3c0-0.1-0.1-0.1-0.1-0.2c-0.1-0.1-0.2-0.2-0.3-0.3c0-0.1-0.1-0.1-0.1-0.2
		c-0.1-0.1-0.2-0.2-0.3-0.3c0-0.1-0.1-0.1-0.1-0.2c-0.1-0.1-0.2-0.2-0.3-0.3c0-0.1-0.1-0.1-0.1-0.2c-0.1-0.1-0.2-0.2-0.3-0.3
		c0-0.1-0.1-0.1-0.1-0.2c-0.1-0.1-0.2-0.2-0.3-0.3c0-0.1-0.1-0.1-0.1-0.2c-0.1-0.1-0.2-0.2-0.3-0.3c0-0.1-0.1-0.1-0.1-0.2
		c-0.1-0.1-0.2-0.2-0.3-0.3c0-0.1-0.1-0.1-0.1-0.2c-0.1-0.1-0.2-0.2-0.3-0.3c0-0.1-0.1-0.1-0.1-0.2c-0.1-0.1-0.2-0.2-0.3-0.3
		c0-0.1-0.1-0.1-0.1-0.2c-0.1-0.1-0.2-0.2-0.3-0.3c0-0.1-0.1-0.1-0.1-0.2c-0.1-0.1-0.2-0.2-0.3-0.3c0-0.1-0.1-0.1-0.1-0.2
		c-0.1-0.1-0.2-0.2-0.3-0.3c0-0.1-0.1-0.1-0.1-0.2c-0.1-0.1-0.2-0.2-0.3-0.3c0-0.1-0.1-0.1-0.1-0.2c-0.1-0.1-0.2-0.2-0.3-0.3
		c0-0.1-0.1-0.1-0.1-0.2c-0.1-0.1-0.2-0.2-0.3-0.3c0-0.1-0.1-0.1-0.1-0.2c-0.1-0.1-0.2-0.2-0.3-0.3c0-0.1-0.1-0.1-0.1-0.2
		c-0.1-0.1-0.2-0.2-0.3-0.3c0-0.1-0.1-0.1-0.1-0.2c-0.1-0.1-0.2-0.2-0.3-0.3c0-0.1-0.1-0.1-0.1-0.2c-0.1-0.1-0.2-0.2-0.3-0.3
		c0-0.1-0.1-0.1-0.1-0.2c-0.1-0.1-0.2-0.2-0.3-0.3c0-0.1-0.1-0.1-0.1-0.2c-0.1-0.1-0.2-0.2-0.3-0.3c0-0.1-0.1-0.1-0.1-0.2
		c-9.1-11-22.7-16.5-40.2-16.5c-5.6,0-11,0.5-15.6,1.1c-54.3,6.3-50.9,50.9-49.8,65.5c5.3,71.4,10.8,142.8,16.5,215l0.8,6.1
		c1.1,8.4,3.8,14.6,8.2,18.7c0.2,0.2,0.4,0.3,0.5,0.4c0.2,0.2,0.3,0.3,0.5,0.5c0.2,0.2,0.3,0.3,0.5,0.5c0.2,0.2,0.4,0.3,0.5,0.5
		c0.2,0.2,0.3,0.3,0.5,0.4c0.2,0.2,0.3,0.3,0.5,0.5c0.2,0.2,0.3,0.3,0.5,0.5c0.2,0.2,0.3,0.3,0.5,0.4c0.2,0.2,0.4,0.3,0.5,0.5
		c0.2,0.2,0.3,0.3,0.5,0.4c0.2,0.2,0.3,0.3,0.5,0.5c0.2,0.2,0.3,0.3,0.5,0.4c0.2,0.2,0.3,0.3,0.5,0.5c0.2,0.2,0.3,0.3,0.5,0.4
		c0.2,0.2,0.3,0.3,0.5,0.5c0.2,0.2,0.3,0.3,0.5,0.5c0.2,0.2,0.3,0.3,0.5,0.5c0.2,0.2,0.3,0.3,0.5,0.5c0.2,0.2,0.3,0.3,0.5,0.5
		c0.2,0.2,0.3,0.3,0.5,0.4c0.2,0.2,0.3,0.3,0.5,0.5c0.2,0.2,0.3,0.3,0.5,0.4c0.2,0.2,0.3,0.3,0.5,0.5c0.2,0.2,0.3,0.3,0.5,0.5
		c0.2,0.2,0.3,0.3,0.5,0.4c0.2,0.2,0.3,0.3,0.5,0.5c0.2,0.2,0.3,0.3,0.5,0.5c0.2,0.2,0.3,0.3,0.5,0.4c0.2,0.2,0.3,0.3,0.5,0.5
		c0.2,0.2,0.3,0.3,0.5,0.5c0.2,0.2,0.3,0.3,0.5,0.5c4,4.2,9.5,6.3,16.4,6.3c1.6,0,3.5-0.1,5.9-0.3c1.2-0.1,4.3-0.2,7-0.2
		c3.5-0.1,6.6-0.2,7.4-0.3c0.8-0.1,34-4.1,34-4.1l1.9-0.7l0.5-0.4l1-0.1l1-0.2c21.5-5.3,29.6-16.3,30.3-60.1
		c1.1,1.5,2.4,3.1,3.8,4.7c0.1,0.2,0.3,0.3,0.4,0.4c0.1,0.2,0.3,0.3,0.4,0.5c0.1,0.2,0.3,0.3,0.4,0.4c0.1,0.2,0.3,0.3,0.4,0.5
		c0.1,0.2,0.3,0.3,0.4,0.4c0.1,0.2,0.3,0.3,0.4,0.5c0.1,0.2,0.3,0.3,0.4,0.4c0.1,0.2,0.3,0.3,0.4,0.5c0.1,0.2,0.3,0.3,0.4,0.5
		c0.1,0.2,0.3,0.3,0.4,0.4c0.1,0.2,0.3,0.3,0.4,0.5c0.1,0.2,0.3,0.3,0.4,0.4c0.1,0.2,0.3,0.3,0.4,0.5c0.1,0.2,0.3,0.3,0.4,0.4
		c0.1,0.2,0.3,0.3,0.4,0.5c0.1,0.2,0.3,0.3,0.4,0.4c0.1,0.2,0.3,0.3,0.4,0.5c0.1,0.2,0.3,0.3,0.4,0.4c0.1,0.2,0.3,0.3,0.4,0.5
		c0.1,0.2,0.2,0.3,0.4,0.4c0.1,0.2,0.3,0.3,0.4,0.5c0.1,0.2,0.3,0.3,0.4,0.4c0.1,0.2,0.3,0.3,0.4,0.5c0.1,0.2,0.2,0.3,0.4,0.4
		c0.1,0.2,0.3,0.3,0.4,0.5c0.1,0.1,0.2,0.3,0.4,0.4c0.1,0.2,0.3,0.3,0.4,0.5c0.1,0.2,0.2,0.3,0.4,0.4c0.1,0.2,0.3,0.3,0.4,0.5
		c0.1,0.1,0.2,0.3,0.4,0.4c0.1,0.2,0.3,0.3,0.4,0.5c5.8,6.9,14.2,13.8,25.7,13.8l2.5-0.1c9.6-0.9,41.6-5.7,51.9-30.4
		c0.8-2,1.7-4,2.5-6c1.4,10.7,3.9,19,7.3,25c0.1,0.2,0.2,0.3,0.3,0.4c0.1,0.2,0.2,0.3,0.3,0.5c0.1,0.2,0.2,0.3,0.3,0.4
		c0.1,0.2,0.2,0.3,0.3,0.5c0.1,0.2,0.2,0.3,0.3,0.4c0.1,0.2,0.2,0.3,0.3,0.5c0.1,0.2,0.2,0.3,0.3,0.5c0.1,0.2,0.2,0.3,0.3,0.4
		c0.1,0.2,0.2,0.3,0.3,0.5c0.1,0.2,0.2,0.3,0.3,0.4c0.1,0.2,0.2,0.3,0.3,0.5c0.1,0.2,0.2,0.3,0.3,0.5c0.1,0.2,0.2,0.3,0.3,0.5
		c0.1,0.2,0.2,0.3,0.3,0.5c0.1,0.2,0.2,0.3,0.3,0.4c0.1,0.2,0.2,0.3,0.3,0.5c0.1,0.2,0.2,0.3,0.3,0.5c0.1,0.2,0.2,0.3,0.3,0.5
		c0.1,0.2,0.2,0.3,0.3,0.5c0.1,0.2,0.2,0.3,0.3,0.5c0.1,0.2,0.2,0.3,0.3,0.4c0.1,0.2,0.2,0.3,0.3,0.5c0.1,0.2,0.2,0.3,0.3,0.5
		c0.1,0.2,0.2,0.3,0.3,0.4c0.1,0.2,0.2,0.3,0.3,0.5c0.1,0.2,0.2,0.3,0.3,0.5c0.1,0.2,0.2,0.3,0.3,0.5c0.1,0.2,0.2,0.3,0.3,0.4
		c0.1,0.2,0.2,0.3,0.3,0.5c0.1,0.2,0.2,0.3,0.3,0.4c0.1,0.2,0.2,0.3,0.3,0.5c6.5,12.3,15.9,16.2,24.4,16.9l3.9,0.2
		c5.1,0.3,12.4,0.7,15.3,0.7l1.3,0l9.8-0.6c11.3-0.7,37.8-2.3,42.9-29.2c0.3-2,0.7-4.5,1.1-7.2c1.1-6.6,2.2-14,2.6-20.2l0-1.5
		c-0.2-7.2-0.4-14.4-0.7-21.6c21.3,37.7,57.1,65.1,105.9,65.1l2.4,0c46.7-0.7,79.7-32.8,100.2-73.7c1,2.9,2.3,5.2,3.7,7l0,0
		c24.4,30.2,43.6,48,81.3,61.5l4.1,1.2c8.6,2.6,13.1,3.8,16.9,4c11.4,0.4,22.8,0.9,34.2,1.4l0.8,0c0.7,0,3.8-0.4,7.4-1
		c2.1-0.4,4.5-0.8,5.8-1l0.9-0.1l0.9-0.2c26.9-5.9,49.2-24.2,63.4-51.5c0.1-0.2,0.3-0.5,0.4-0.7c0.2-0.4,0.4-0.8,0.6-1.1
		c0.1-0.2,0.2-0.3,0.3-0.5c0.2-0.3,0.3-0.6,0.5-0.9c0.1-0.2,0.2-0.4,0.3-0.6c0.2-0.4,0.5-0.8,0.7-1.2c0.1-0.2,0.2-0.4,0.3-0.6
		c0.2-0.4,0.5-0.8,0.7-1.3c0,0,0,0,0-0.1c0.2-0.4,0.5-0.8,0.7-1.2c0.1-0.1,0.1-0.3,0.2-0.4c0.2-0.3,0.3-0.6,0.5-0.8c0,0,0,0,0-0.1
		c0.1-0.2,0.3-0.5,0.4-0.7c0-0.1,0.1-0.1,0.1-0.2c0.2-0.4,0.5-0.9,0.7-1.3c0.1-0.1,0.2-0.3,0.2-0.4c0.1-0.1,0.2-0.3,0.2-0.4
		c0.2-0.4,0.4-0.7,0.6-1.1c0.2-0.4,0.4-0.7,0.6-1.1c2.8-5.3,5.5-10.8,7.7-16.7c2.1-6.4,2.3-9,2.3-9c0,0,0,0,0,0
		c5-35.6-5.3-60.7-20.7-79.2c0.8-0.7,1.6-1.5,2.4-2.6c0.2-0.2,0.3-0.4,0.5-0.5l0,0c0.1-0.1,0.2-0.2,0.2-0.3c0,0,0,0,0.1-0.1l0,0
		c1.6-2.2,3.4-5.1,5.6-9.1c0.1-0.2,0.2-0.3,0.3-0.5c0.1-0.1,0.2-0.3,0.2-0.4c0.1-0.2,0.2-0.3,0.3-0.5c0.1-0.2,0.2-0.3,0.3-0.4
		c0.1-0.2,0.2-0.3,0.3-0.4c0.1-0.2,0.2-0.3,0.3-0.5c0.1-0.2,0.2-0.3,0.3-0.4c0.1-0.1,0.2-0.3,0.2-0.4c0.1-0.2,0.2-0.3,0.3-0.5
		c0.1-0.2,0.2-0.3,0.3-0.4c0.1-0.2,0.2-0.3,0.3-0.5c0.1-0.1,0.2-0.3,0.2-0.4c0.1-0.2,0.2-0.3,0.3-0.5c0.1-0.1,0.2-0.3,0.2-0.4
		c0.1-0.2,0.2-0.3,0.3-0.5c0.1-0.1,0.2-0.3,0.2-0.4c0.1-0.2,0.2-0.3,0.3-0.5c0.1-0.2,0.2-0.3,0.3-0.5c0.1-0.2,0.2-0.3,0.3-0.4
		c0.1-0.1,0.2-0.3,0.2-0.4c0.1-0.2,0.2-0.3,0.3-0.5c0.1-0.1,0.1-0.3,0.2-0.4c0.1-0.2,0.2-0.3,0.3-0.5c0.1-0.1,0.2-0.3,0.2-0.4
		c0.1-0.2,0.2-0.3,0.3-0.5c0.1-0.1,0.2-0.3,0.2-0.4c0.1-0.2,0.2-0.3,0.3-0.5c0.1-0.1,0.2-0.3,0.2-0.4c0.1-0.2,0.2-0.3,0.3-0.5
		c0.1-0.1,0.2-0.3,0.2-0.4c0.1-0.2,0.2-0.3,0.3-0.4c0.2-0.3,0.4-0.7,0.6-1.1c5.7,9.2,14.7,16.3,25.7,17.1c11.3,0.9,22.7,1.8,34,2.7
		c-2.2,49.7-4.5,99.3-6.9,149c-0.9,19.3,8,43.3,55.8,48.3c6.3,0.7,11.8,1,16.6,1c15.6,0,25.6-4,32.4-11c0.1-0.1,0.3-0.3,0.4-0.5
		c0.1-0.1,0.3-0.3,0.4-0.4c0.1-0.1,0.3-0.3,0.4-0.5c0.1-0.1,0.3-0.3,0.4-0.5c0.1-0.1,0.3-0.3,0.4-0.5c0.1-0.1,0.3-0.3,0.4-0.4
		c0.2-0.1,0.3-0.3,0.4-0.5c0.1-0.1,0.3-0.3,0.4-0.4c0.1-0.1,0.3-0.3,0.4-0.5c0.1-0.1,0.3-0.3,0.4-0.4c0.1-0.1,0.3-0.3,0.4-0.5
		c0.1-0.1,0.3-0.3,0.4-0.5c0.1-0.1,0.3-0.3,0.4-0.5c0.1-0.1,0.3-0.3,0.4-0.5c0.1-0.1,0.3-0.3,0.4-0.5c0.1-0.1,0.3-0.3,0.4-0.5
		c0.1-0.1,0.3-0.3,0.4-0.5c0.1-0.1,0.3-0.3,0.4-0.5c0.2-0.1,0.3-0.3,0.4-0.5c0.1-0.1,0.3-0.3,0.4-0.4c0.2-0.1,0.3-0.3,0.4-0.5
		c0.1-0.1,0.3-0.3,0.4-0.4c0.2-0.1,0.3-0.3,0.4-0.5c0.2-0.1,0.3-0.3,0.4-0.5c0.1-0.1,0.3-0.3,0.4-0.4c0.2-0.1,0.3-0.3,0.4-0.5
		c0.1-0.1,0.3-0.3,0.4-0.4c0.2-0.1,0.3-0.3,0.4-0.5c0.2-0.1,0.3-0.3,0.4-0.5c0.2-0.1,0.3-0.3,0.4-0.5c0.2-0.1,0.3-0.3,0.4-0.5
		c11.7-11.2,14-30.3,16.6-52.2c0.7-6,1.5-12.7,2.6-20.5c0.2-1.9,0.5-4,0.9-6.1c0.4-2.9,0.9-5.9,1.1-8.3c2.1-13.7,4.6-41.2,6.8-65.5
		c0.2-2.6,0.5-5,0.7-7.5c4.3,0.2,7.3,0.4,7.5,0.4l2,0c14.7,0,25.4-4.7,33.1-11.7c0.2-0.1,0.3-0.3,0.5-0.5c0.2-0.1,0.3-0.3,0.5-0.4
		c0.2-0.2,0.3-0.3,0.5-0.5c0.2-0.1,0.3-0.3,0.5-0.4c0.2-0.2,0.3-0.3,0.5-0.5c0.2-0.1,0.3-0.3,0.5-0.4c0.2-0.2,0.3-0.3,0.5-0.5
		c0.2-0.1,0.3-0.3,0.5-0.5c0.2-0.1,0.3-0.3,0.5-0.5c0.2-0.2,0.3-0.3,0.5-0.5c0.2-0.2,0.3-0.3,0.5-0.5c0.2-0.1,0.3-0.3,0.5-0.4
		c0.2-0.1,0.3-0.3,0.5-0.5c0.2-0.1,0.3-0.3,0.5-0.4c0.2-0.1,0.3-0.3,0.5-0.5c0.2-0.1,0.3-0.3,0.5-0.5c0.2-0.1,0.3-0.3,0.5-0.5
		c0.2-0.1,0.3-0.3,0.5-0.4c0.2-0.2,0.3-0.3,0.5-0.5c0.2-0.1,0.3-0.3,0.5-0.4c0.2-0.1,0.3-0.3,0.5-0.5c0.2-0.1,0.3-0.3,0.5-0.4
		c0.2-0.1,0.3-0.3,0.5-0.5c0.2-0.2,0.3-0.3,0.5-0.5c0.2-0.1,0.3-0.3,0.5-0.4c0.2-0.1,0.3-0.3,0.5-0.5c0.2-0.2,0.3-0.3,0.5-0.5
		c0.2-0.2,0.3-0.3,0.5-0.5c0.2-0.1,0.3-0.3,0.5-0.4c0.2-0.2,0.3-0.3,0.5-0.5c0.2-0.1,0.3-0.3,0.5-0.4c17.8-15,21.1-41.2,22.6-53.4
		C1379.2,102.9,1368.7,86.2,1344.9,78.6z"/>
	<g>
		<path class="st2" d="M574.7,70.8c-10.9,0.8-35,3.8-102.3,145c-28.9-37.9-58.5-75.6-88.8-112.9c-10.1-12.2-26.9-11.2-41-9.6
			c-31.2,3.6-37.1,21-35.1,47.6c5.3,71.4,10.8,142.8,16.5,214.1c0.1,0.4,0.6,4.9,0.8,6.1c1.2,9.8,3,10.4,12.5,9.6
			c1.6-0.2,13.3-0.4,14.5-0.5c0.8-0.1,10.7-1.3,15.6-1.8c2.5-0.3,14.8-1.7,17.7-2c1.6-0.6,3.2-1.2,4.4-1.3
			c15.8-3.8,22.6-5.3,16.1-113.3c14.2,22.8,28.1,45.6,41.9,68.5c4.4,7,11.7,17.5,21.2,16.6c14.1-1.3,34-7,39.6-20.3
			c12.7-30,25.7-59.9,39-89.8c0.7,10.7,3.3,85.5,4.5,96.1c0.7,10.3,3.1,32.3,17.2,33.5c3.7,0.2,17.4,1,19.9,0.8c0.4,0,7-0.4,9.5-0.6
			c11.1-0.6,26.3-1.4,29-14.7c0.9-6.6,3.2-18.3,3.7-26.1c-2.3-70.2-4.6-140.5-6.8-210.7C623.2,77.3,603.3,69.1,574.7,70.8z"/>
		<path class="st2" d="M763.8,55.6c-33.6,0.5-58.6,14-82.4,34.9c-34.1,29.6-42.9,81.9-41,122.6c3.3,66.2,45.2,130.4,118.2,129.1
			c77.8-1.2,112.6-99.3,113.6-163.5C873.1,108.5,842.8,54.6,763.8,55.6z M754.3,265.7c-62.4-12.5-46.5-137.2,8-135.8
			C820.7,130.2,809.4,272.4,754.3,265.7z"/>
		<path class="st2" d="M938.7,62.7c-74.6,44.3-66,126.4,36.8,167.2c33.5,13.6,19.3,36.1,2.9,35.5c-0.4,0-1.7-0.1-2.1-0.5
			c-2.9-1.3-16.6-8.8-19.5-10.5c-0.4,0-2.9-1.7-3.3-1.8c-4.9-4.3-25.6-21.3-29.8-25.1c-2.1-1.3-5.1-2.2-7.6-2.2
			c-13.7-0.3-38.8,39.2-38.9,51.5c0,0.4,0,0.8,0,0.8c0.4,0.8,1.2,3.7,1.6,3.7c23.9,28.7,41.4,44.2,76.6,56.4
			c2.1,0.5,13.5,4.2,16.8,4.3c11.8,0.4,23.7,0.9,35.5,1.4c0.8,0,9.2-1.6,12.1-1.9c30.1-6.4,50.5-29.4,60.7-57.1
			c0.5-1.6,1.6-5.3,1.6-6.1c13.1-93.9-96.1-99.9-96.4-128.7c-0.2-6.6,11.1-7,16.3-6.8c25.1,1.1,43.5,16.8,59.8,33.8
			c1.2,1.3,3.3,3.1,5.1,1.5c1.8-1.5,6.6-2.1,9.8-5.6c-0.3,2.8,32-60.2,32-59.3c0.2-2.9-0.2-3.7-2.6-6.8
			C1082.1,55.7,985.9,34.8,938.7,62.7z"/>
		<path class="st2" d="M1339.8,94.6c-26.9-5.5-185.9-25.2-211.3-23.9c-5.8,0-10.6,6.3-11,11.2c-1.2,18-2.5,36.1-3.7,54.1
			c-0.6,9.4,6.7,23.1,17.9,23.9c17.1,1.2,34.2,2.6,51.4,4.1c-2.5,55.1-5.1,110.1-7.8,165.1c-1.2,23.8,24,28.9,42.5,30.8
			c48.5,4.9,42.9-8.7,51-67.4c0.5-4.5,1.5-9.8,2.1-15.1c3.1-20.7,7.5-76.1,10-99.8c0,0-0.3-0.9-0.3-1.3c0.1-0.8,0.2-1.6,2-2.3
			c5.2,0.5,30.3,1.7,35.5,2c31.7,0.9,38.1-24.7,41.3-50C1361.5,109.7,1356.5,99.9,1339.8,94.6z"/>
		<path class="st2" d="M759.3,163.2c-11.2,0-20.2,16.2-20.2,36.1c0,19.9,9.1,36.1,20.2,36.1c11.2,0,20.2-16.2,20.2-36.1
			C779.6,179.3,770.5,163.2,759.3,163.2z"/>
	</g>
	<g>
		<path class="st0" d="M1129.7,518.3h-0.1v0.1h0.1C1129.7,518.3,1129.7,518.3,1129.7,518.3z"/>
		<path class="st0" d="M86.8,885.3c0.1,0.1,0.1,0.1,0.1,0.1v-0.1H86.8z"/>
		<path class="st0" d="M1640,633.9c3.4-26.4,4.4-114.6-124.1-138.3c-35.2-6.5-75.4-13.5-106.6-13.5c-22.2,0-38.9,3.5-52.7,10.5
			l-22.2,11.5v0.3l-0.5,0.3v0.3l-0.5,0.3v0.3l-0.5,0.3v0.3l-0.5,0.3v0.3l-0.5,0.3v0.3l-0.3,0.3c-11.5-21.2-29.7-35.8-52.7-41.9
			l-4.4-1.3l-17.9-1.2c-7.6-0.5-12.8-1-18.6-1c-4.6,0-9.5,0.4-15.4,0.7c-36.5,2.6-58.7,12-74,28.4c-2,1.7-3.5,3.5-5.1,5.6
			c-0.1,0.3-0.3,0.4-0.5,0.8v0.1c0,0.1-0.1,0.3-0.3,0.4c-0.8,0.9-1.6,1.8-2.1,2.7c-0.3,0.1-0.4,0.4-0.4,0.5c-0.4,0.4-0.8,0.9-1,1.4
			c-0.1,0-0.3,0.1-0.3,0.4c-0.1,0.1-0.3,0.4-0.3,0.4s-0.1,0-0.1,0.1c-0.1,0.1-0.1,0.3-0.1,0.4l-0.1,0.1c-0.3,0.3-0.4,0.4-0.3,0.5
			l-0.3,0.3v0.3c-0.1,0-0.1,0-0.1,0c-0.1,0.1-0.3,0.1-0.1,0.3v0.1l-0.1,0.1h-0.1v0.3h-0.1v0.1l-0.1,0.1c-0.1,0-0.1,0.1-0.1,0.3v0.1
			h-0.1c0,0.1,0,0.1,0,0.1c-0.3,0.1-0.1,0.1-0.1,0.3c0,0,0,0,0,0.1h-0.1c-0.1,0.1-0.1,0.3-0.3,0.5c-0.1,0-0.1,0-0.1,0.1
			c0,0,0,0,0,0.1c-0.1,0.1-0.3,0.3-0.3,0.3s-0.1,0-0.1,0.3c-0.1,0-0.3,0.1-0.3,0.3c0,0,0,0,0,0.1c0,0-0.1,0.1-0.1,0.4h-0.1v0.1h-0.1
			v0.3h-0.1v0.1l-0.1,0.3h-0.1v0.1c0,0.1,0,0.1,0,0.1h-0.1v0.1l-0.1,0.1v0.1c0,0-0.1,0-0.1,0.3l-0.1,0.1c-0.1,0.1-0.1,0.1-0.1,0.1
			v0.1h-0.1v0.4h-0.3c0,0,0,0,0,0.1v0.1h-0.1v0.3h-0.1v0.3c-0.1,0-0.1,0-0.1,0v0.1c-0.1,0-0.1,0.1-0.1,0.1v0.1c0,0,0,0-0.1,0v0.3
			h-0.1v0.1c0,0,0,0.1-0.1,0.1v0.1c0,0-0.1,0-0.1,0.1v0.1h-0.1c0,0.1,0,0.1,0,0.1h-0.1v0.3h-0.1v0.3h-0.1v0.1l-0.1,0.1v0.3h-0.1v0.1
			h-0.1v0.1l-0.1,0.1v0.1h-0.1c0,0,0,0,0,0.3h-0.1v0.1h-0.1c0,0,0,0,0,0.1v0.1h-0.1v0.4h-0.1c-0.1,0-0.1,0-0.1,0s0,0,0,0.1
			c0,0,0,0,0,0.1l-0.1,0.1v0.1c-0.1,0-0.1,0-0.1,0s0,0,0,0.1c0,0,0,0.3-0.1,0.3h-0.1v0.1c-0.1,0.1-0.1,0.1-0.1,0.3v0.1h-0.1v0.3
			c-0.1,0-0.1,0-0.1,0v0.3c0.1,0,0.1,0,0.1,0s0,0.1-0.1,0.1c0,0,0,0-0.1,0.1c0-0.1,0-0.1,0-0.1h-0.1c0,0-0.1,0.1-0.1,0.4
			c-0.1,0-0.1,0-0.1,0.1v0.1c0,0-0.1,0-0.1,0.1c-0.1,0.1-0.1,0.1-0.1,0.1v0.1h-0.1v0.3h-0.1c0,0.1-0.1,0.1-0.1,0.3
			c0,0.1,0,0.1,0,0.1s-0.1,0-0.1,0.1v0.3h-0.1c0,0,0,0-0.1,0c0,0,0,0,0,0.1v0.1l-0.1,0.1v0.1c0,0,0,0-0.1,0c0,0,0,0,0,0.3
			c0,0,0,0-0.1,0.1v0.1h-0.1v0.1h-0.1v0.1c0,0.3,0,0.3-0.1,0.3v0.1h-0.1c-0.1,0.1-0.3,0.3-0.3,0.4v0.3c0,0,0,0-0.1,0.1l-0.1,0.1
			c-0.1,0.1-0.3,0.3-0.4,0.7c-0.1,0.1-0.1,0.1-0.1,0.3s0,0.1,0,0.1s0,0-0.1,0c0,0.1-0.1,0.1-0.1,0.4c-0.1,0.1-0.3,0.5-0.4,0.8
			c-0.4,0.8-0.9,1.4-1.2,2.4v0.1c-0.1,0.1-0.3,0.3-0.3,0.5c0,0-0.3,0.3-0.4,0.3c-0.1,0.3-0.3,0.8-0.4,1c0,0.1-0.1,0.1-0.1,0.1
			c0,0.1-0.1,0.3-0.1,0.5c-0.1,0-0.3,0.3-0.4,0.4c0,0.4-0.1,0.5-0.3,0.8c-0.1,0.1-0.1,0.4-0.3,0.5c0,0.1-0.1,0.3-0.3,0.4
			c-0.9,2-1.7,3.9-2.6,6c-0.1,0.1-0.1,0.4-0.3,0.5c-0.1,0.1-0.1,0.4-0.3,0.5c0,0.1,0,0.1-0.1,0.3c-2.2,5.4-4.4,11.1-6.5,17.2
			c-11.1,33.5-22.2,67.3-33.1,101.1c-0.1,0.3-0.3,0.4-0.3,0.5c-3-0.5-6-0.9-9.3-1.3c0.4-9,2-49.3,2-49.3c0.1-1.8,1-10.7,2-19.9
			c0.4-4.1,0.9-8.4,1.2-12.2c0.1-1.2,0.3-2.4,0.4-3.3l0.3-2c2.7-27.1,3.7-36.9,3.8-41.7l0.1-4.8c0.7-18.7-5.6-35.7-17.9-48.7
			c-17.6-18.4-42.2-23.3-61.2-24.8v-0.5l-17.1-0.1l-16.7-0.5v1h-0.1c-18.8,1.8-34.1,8.6-45.2,19.2c0.1,0,0.3,0,0.4,0.1
			c-0.3,0-0.4,0.3-0.5,0.4c-0.1,0-0.1,0-0.3,0l0.4-0.5c-3.9-1.4-8-2.5-12.3-3.4l-1.6-0.5l-2.7-0.1c-2.4-0.4-8-1.6-12.4-2.4
			l-11.6-1.8l-12.3-0.1c-21.2,0-39.3,6.1-52.9,17.9c-26.1-20.1-64.7-20.3-79.8-20.3c-0.1,0-12.9,0.1-12.9,0.1
			c-24.3,0.5-42.1,6.9-53.2,19.2c0.1,0.1,0.3,0.1,0.5,0.3c-0.3,0.1-0.4,0.3-0.4,0.3c-0.1-0.1-0.4-0.1-0.5-0.1
			c-23.5-11.2-54.8-18.2-96-18.2c-8.1,0-16.1,0.3-23.5,0.7c-5.9,0.4-22,1.2-23.3,1.2l-3.5,0.3l-3,0.5c-2.9,0.8-14.5,2.5-19.3,3
			l-2,0.4c-17,3.1-28.9,10.6-36.5,19.9c-0.1,0.1-0.1,0.1-0.1,0.3c-0.1,0-0.3-0.1-0.5-0.1c0-0.1,0-0.1,0.1-0.4
			c-21.4-12.5-47-19.2-75.8-19.2c-4.6,0-9.4,0.3-14.4,0.4c-40.9,3.1-75.4,20-108.6,52.9c-2.2,2.1-4.1,4.1-6.1,6.4h-0.3
			c-0.1-0.1-0.1-0.1-0.1-0.1c-0.1-0.3-0.3-0.4-0.4-0.4c-0.1-0.1-0.4-0.3-0.5-0.4c-0.4-0.5-0.8-0.8-1.3-1.2c-0.5-0.3-1-0.5-1.6-1
			c-2.5-2.4-5.2-4.1-8.2-5.9c-21.7-14.2-52.1-24-95-24c-14.5,0-30.6,1.2-48.9,3.1l-22.6,2.9l-3.9,0.4l-3.3,0.9
			c-2.7,0.8-14.1,3.5-19.1,4.6l-1.7,0.3c-37.1,9.5-47,38.7-44.3,60.2c6.5,63.1,13.1,126.5,19.7,190.8l6,47.2
			c4.3,33.2,16.2,52,29.5,62.7c0.1,0,0.4,0.4,0.5,0.4c0.1,0.1,0.1,0.1,0.3,0.1l0.1,0.3c0.1,0,0.1,0,0.3,0c0.3,0.3,0.4,0.5,0.7,0.8
			c0.3,0,0.5,0.3,0.8,0.4c0.3,0.3,0.4,0.4,0.5,0.3v0.1h0.1c0.3,0.4,0.5,0.5,0.8,0.5c0,0.1,0,0.1,0,0.1h0.1c0.3,0.3,0.4,0.4,0.7,0.4
			c0,0,0,0,0.1,0c0.1,0.3,0.3,0.4,0.5,0.7c0,0,0,0,0.1,0c0,0,0,0,0.1,0c0.1,0,0.1,0,0.1,0c0.1,0.3,0.3,0.4,0.4,0.4l0.1,0.1
			c0,0,0,0,0.1,0c0,0,0,0.3,0.1,0.3h0.1c0.1,0.1,0.3,0.1,0.3,0.1l0.1,0.1c0.1,0.1,0.1,0.1,0.3,0.1c0.1,0.1,0.3,0.3,0.4,0.3l0.1,0.1
			c0.1,0,0.1,0,0.1,0l0.1,0.1c0.1,0.1,0.1,0.3,0.3,0.1c0.1,0.1,0.1,0.1,0.1,0.1c0,0.1,0,0.1,0.1,0.1h0.1c0,0.1,0,0.1,0,0.1
			c0.1,0.1,0.1,0.3,0.3,0.3c0.1,0,0.1,0,0.1,0c0.1,0.1,0.1,0.1,0.3,0.1c0.1,0,0.1,0.1,0.1,0.1c0.1,0.1,0.1,0.1,0.1,0.1v0.1
			c0.1,0,0.1,0,0.1,0c0.1,0,0.1,0,0.1,0v0.1l0.1,0.1c0,0,0,0,0.1,0h0.1l0.1,0.1c0,0.1,0.1,0.1,0.1,0.1l0.3,0.3
			c0.1,0.1,0.3,0.1,0.3,0.1l0.1,0.1c0.1,0.1,0.1,0.1,0.3,0.1c0.1,0,0.1,0,0.1,0l0.1,0.1c0,0,0,0,0,0.1c0.1,0.1,0.1,0.1,0.1,0.1
			c0.1,0,0.1,0,0.1,0h0.1v0.1c0,0,0,0.1,0.1,0.1c0,0,0,0,0.1,0H73c0.1,0.1,0.1,0.1,0.1,0.1c0.1,0,0.1,0,0.1,0
			c0.1,0.1,0.1,0.1,0.1,0.1s0,0.1,0.1,0.1c0,0.1,0,0.1,0,0.1c0.1,0.1,0.3,0.1,0.3,0.1h0.1v0.1c0.1,0,0.1,0,0.1,0
			c0.1,0.1,0.1,0.1,0.1,0.1c0.1,0,0.1,0,0.1,0c0.1,0,0.1,0.1,0.1,0.1c0.1,0.1,0.1,0.3,0.3,0.1c0,0.1,0,0.1,0,0.1s0,0,0.1,0
			c0,0.1,0,0.1,0.1,0.1H75c0,0.1,0,0.1,0,0.1l0.1,0.1h0.1c0.1,0,0.1,0,0.1,0c0,0.1,0.1,0.1,0.1,0.1l0.1,0.1c0.1,0.1,0.3,0.1,0.3,0.1
			v0.1h0.1v0.1h0.1c0.1,0,0.1,0.1,0.1,0.1h0.1c0.1,0.1,0.3,0.1,0.3,0.1l0.1,0.1c0.1,0.1,0.3,0.1,0.3,0.1c0,0.1,0,0.1,0.1,0.1
			c0.1,0.1,0.1,0.1,0.1,0.1c0.1,0.1,0.1,0.1,0.1,0.1c0.1,0,0.1,0,0.1,0c0.1,0.3,0.1,0.3,0.3,0.1c0,0.1,0,0.1,0.1,0.1l0.1,0.1h0.1
			c0,0,0.1,0,0.1,0.1c0.1,0.4,0.1,0.4,0.3,0.4H79l0.1,0.1h0.1c0.1,0,0.1,0.1,0.1,0.1s0,0.1,0.1,0.1c0.1,0.1,0.1,0.1,0.3,0.1l0.1,0.3
			c0.1,0,0.1,0.1,0.3,0.1h0.1l0.1,0.1c0.1,0.1,0.1,0.1,0.1,0.1s0,0,0.1,0l0.1,0.1l0.1,0.3c0,0,0,0,0.1,0h0.1c0,0,0.1,0.3,0.3,0.1
			l0.1,0.1h0.3v0.1h-0.3l0.1,0.1c0,0.1,0.1,0.1,0.3,0.1h0.1c0.1,0.1,0.1,0.1,0.1,0.1c0.1,0,0.1,0,0.1,0s0,0.1,0.1,0.1
			c0,0.1,0,0.1,0.1,0.1c0.1,0.1,0.1,0.3,0.3,0.1c0.1,0.3,0.3,0.5,0.4,0.3c0,0,0,0.3,0.1,0.3c0.1,0,0.1,0,0.1,0s0,0,0.1,0
			c0,0,0,0.1,0.1,0.1l0.1,0.1h0.1l0.1,0.1c0.1,0.1,0.3,0.4,0.4,0.4h0.1c0,0,0,0.1,0.1,0.1H85c0,0,0,0.1,0.1,0.1l0.1,0.1l0.1,0.1
			c0,0.3,0,0.3,0.1,0.1v-0.3c0.3,0.1,0.4,0.3,0.5,0.5c0,0,0,0.1,0.1,0.1c0.1,0.1,0.3,0.3,0.4,0.3c0-0.3-0.1-0.4-0.3-0.4
			c0.7,0.4,1.2,0.8,1.8,0.9c0.8,0.7,1.7,1,2.5,1.4c-0.3-0.1-0.7-0.3-1-0.4c-0.4-0.3-0.8-0.4-1.2-0.7c-0.3-0.1-0.5-0.3-0.8-0.4
			c-0.1,0-0.3-0.1-0.4-0.1c-0.1-0.1-0.3-0.1-0.3-0.1c0.4,0.5,0.9,0.9,1.4,0.9c0.3,0.4,0.5,0.5,0.8,0.7c0,0,0,0,0.1,0
			c0.1,0.1,0.3,0.3,0.5,0.5c0.3,0.3,0.5,0.4,0.8,0.4c1.6,1.2,3,2,4.6,2.7c0.3,0,0.4,0.1,0.5,0.3c10.6,5.4,20.8,6.5,27.6,6.5
			c2.7,0,5.5-0.1,8.4-0.5c17.9-2.4,35.9-4.4,53.8-6.5c36.2-4.3,54.9-41.6,51.5-73.6l-3.9-36.7c4.2-1.7,8.1-3.7,11.9-5.8v-0.1h0.1
			v-0.1c0.1,0,0.3,0,0.4-0.1h0.1v-0.1c0,0,0,0,0.1,0h0.1c0,0,0,0.1-0.1,0.1c-0.1,0-0.1,0-0.1,0l-0.1,0.1c-0.1,0.1-0.3,0.1-0.4,0.1
			l-0.1,0.1c3.9,6.1,8.2,12,12.8,17.6c3.7,4.4,7.4,8.6,11.6,12.7c0.4,0.5,0.8,0.8,1,1.2c0.1,0.4,0.5,0.8,1,1c0.4,0.3,0.7,0.7,1,1
			c0.1,0.1,0.3,0.3,0.4,0.4v-0.3l0.1,0.3h-0.1c0,0,0,0,0.1,0.1c0,0,0.1,0.1,0.1,0.3c0.1,0,0.3,0.1,0.3,0.1c0.1,0.1,0.3,0.1,0.3,0.3
			c0.1,0.1,0.3,0.4,0.4,0.4c0,0,0,0,0.1,0c0.1,0.3,0.3,0.4,0.5,0.5c0,0.1,0,0.3,0.1,0.3s0.4,0.3,0.5,0.5c0.1,0.1,0.3,0.1,0.4,0.3
			c0.5,0.7,1.2,1.2,1.8,1.8l0.4,0.5l0.1,0.1c0.1,0,0.3,0.1,0.5,0.5c0.1,0,0.1,0.1,0.1,0.1c0.1,0.1,0.3,0.1,0.4,0.3
			c0.1,0.1,0.3,0.3,0.4,0.5c0,0,0.1,0,0.1,0.1c0.3,0.1,0.4,0.3,0.5,0.4v0.1c0.1,0,0.3,0,0.3,0.1c0.1,0,0.1,0.1,0.1,0.1s0,0,0.1,0
			c0,0,0,0,0.1,0.1c0,0,0,0,0.1,0.1c0.1,0,0.1,0.1,0.1,0.1c0,0.1,0,0.1,0,0.1s0,0,0.1,0c0,0.1,0,0.1,0.1,0.1v0.1l0.1,0.1h0.1
			c0.1,0,0.1,0.1,0.3,0.3l0.1,0.1v0.1c0.1,0,0.1,0.1,0.3,0.1v0.1l0.1,0.1l0.4,0.3l0.1,0.1c0,0.1,0.1,0.1,0.3,0.4
			c0.1,0,0.1,0,0.3,0.1c0,0,0,0,0.1,0l0.1,0.1v0.1c0.1,0,0.3,0.1,0.4,0.4h0.1c0,0.1,0.1,0.3,0.3,0.3l0.1,0.1c0,0,0,0.1,0.1,0.1
			c0,0,0,0.1,0.1,0.1c0,0.1,0,0.1,0,0.1h0.1c0.1,0,0.1,0.1,0.1,0.1c0.1,0,0.1,0.1,0.1,0.1c0.1,0,0.1,0.1,0.1,0.1
			c0.1,0.1,0.1,0.1,0.1,0.1s0,0,0.1,0.1c0.1,0,0.1,0.3,0.1,0.3c0.1,0,0.1,0,0.1,0s0,0,0.1,0c0,0,0.1,0.1,0.3,0.3c0,0,0.1,0,0.3,0.3
			c0,0,0.1,0.3,0.3,0.3c0,0,0.1,0,0.3,0.3c0,0,0.1,0.1,0.3,0.3c0,0,0.1,0,0.3,0.3c0.1,0.1,0.4,0.3,0.5,0.5c0.1,0,0.1,0.3,0.3,0.3
			c0.1,0,0.1,0,0.3,0.3l0.1,0.1c0,0,0.1,0,0.1,0.1c0.1,0.1,0.3,0.4,0.5,0.5l0.1,0.1c0.1,0,0.3,0.1,0.4,0.5c0.1,0,0.4,0.1,0.5,0.4
			c0.9,0.8,2,1.7,2.9,2.6c0.1,0,0.1,0.3,0.1,0.3c0.1,0,0.3,0,0.3,0c0.1,0.1,0.1,0.1,0.3,0.3c0.3,0.1,0.4,0.3,0.5,0.5
			c0.1,0.1,0.4,0.3,0.5,0.5c0.1,0.3,0.4,0.3,0.5,0.5c0.1,0.1,0.4,0.3,0.5,0.7c1.6,1.2,3.3,2.6,5,3.9c0.1,0.1,0.3,0.1,0.4,0.3
			c24,19.5,54.1,31.5,89.4,31.5c3.9,0,8-0.1,12-0.7c32.4-2.4,58.8-16.1,79.6-36.3c0,0.1,0.1,0.3,0.1,0.4c0.1,0,0.1,0,0.3,0.1
			c0.1,0.1,0.1,0.1,0.1,0.1c0.1,0.1,0.1,0.3,0.1,0.3l0.1,0.1v0.1c0,0,0,0,0,0.1c0.1,0.1,0.1,0.1,0.3,0.3c0,0.1,0.1,0.1,0.1,0.1
			c0,0.1,0,0.1,0,0.1c0.3,0.3,0.4,0.4,0.4,0.5c0.1,0.1,0.1,0.3,0.3,0.3c0,0.1,0,0.1,0,0.1c0.3,0.3,0.5,0.7,0.7,0.9
			c0.1,0.1,0.3,0.3,0.3,0.4c0,0.1,0.1,0.1,0.1,0.1c0,0.1,0,0.1,0,0.1c0.3,0.3,0.5,0.7,0.7,0.9c2.2,3.3,4.6,5.9,7.1,8.2
			c15.7,15.6,34.9,17.6,43.3,17.6h0.3l3.1-0.3c18.2-0.9,36.2-1.8,54.2-2.6c36.3-1.4,57.5-37,56.3-69.4l-1.3-36.9
			c8-2.7,15.4-6,22.3-9.8h0.1c0,0,0.1,0.1,0.1,0.3c0,0.3,0,0.7,0.1,0.7c0,0.1,0,0.1,0,0.3c0,0.1,0,0.1,0.1,0.3
			c0,0.3,0.1,0.3,0.1,0.3c0,0.1,0,0.1,0,0.3c0,0.1,0,0.3,0.1,0.5c0.1,0,0.1,0.1,0.1,0.1c0,0.1,0,0.3,0.1,0.3c0,0.1,0,0.1,0,0.4
			c0,0.1,0.1,0.3,0.1,0.4c0.1,0.1,0.1,0.3,0.1,0.3c0,0.3,0,0.3,0,0.3c0.1,0,0.1,0,0.1,0v0.1c0,0.1,0,0.3,0,0.3
			c0.1,0.1,0.1,0.4,0.1,0.4c0.1,0,0.1,0.1,0.1,0.1c0,0.1,0,0.1,0,0.1c0,0.1,0,0.1,0,0.1v0.1c0,0,0,0,0.1,0.3c0.1,0,0.1,0.1,0.1,0.3
			c0,0.1,0,0.1,0,0.3c0,0,0,0,0.1,0.1c0.1,0.1,0.1,0.3,0.1,0.4c0.1,0.1,0.1,0.3,0.1,0.4v0.3c0.1,0.1,0.3,0.3,0.1,0.4v0.1
			c0.1,0.3,0.1,0.4,0.3,0.7c0,0.1,0.1,0.1,0.1,0.4c0,0.1,0.1,0.4,0.1,0.5c1,2.9,2,5.7,3.1,8.5c0.1,0.5,0.4,1,0.5,1.6
			c0.1,0.1,0.1,0.3,0.1,0.4c1,2.6,2.1,5.4,3.4,7.8c0.1,0.3,0.4,0.8,0.7,1.2c0,0.1,0.1,0.4,0.1,0.4c6.3,14.5,14.4,27.4,24.4,38.4
			c23.7,26.1,54.6,39.3,92.1,39.3h5.5c38.3-1.2,69.4-11.5,93.4-31.1c2,2.9,4.1,5.5,6.4,8c24.6,26.1,61.5,26.4,85.7,26.8l20.9,0.5
			c3.1,0,7.1-0.3,35.2-2.5l12.2-0.9c3.3-0.1,6.3-0.5,9.1-1c-0.3,0-0.4-0.1-0.7-0.3c-0.3-0.3-0.5-0.4-0.8-0.4
			c-0.1-0.1-0.4-0.3-0.7-0.4c-0.1-0.3-0.4-0.4-0.7-0.4c-0.3-0.1-0.4-0.3-0.7-0.4c-0.1-0.1-0.3-0.3-0.4-0.4c0.1,0,0.3,0.1,0.4,0.3
			c0.3,0.1,0.4,0.3,0.7,0.5c0.3,0,0.5,0.1,0.7,0.3c0.3,0.1,0.5,0.3,0.7,0.5c0.3,0,0.5,0.1,0.8,0.3c0.3,0.1,0.4,0.3,0.7,0.3
			c0.4,0,0.8-0.1,1-0.1c7.1,3.7,15.2,5.9,24,6.3l5,0.1c9,0,50.7-0.3,59.6-0.5l3.8-0.1l3.7-0.7c7.1-1.4,15-4.3,22.9-10.5h0.1
			c2.6-2.1,5.1-4.3,7.6-7.1c0.4-0.3,0.7-0.7,0.8-1l0.1-0.1c0.1-0.1,0.1-0.1,0.3-0.3c0.3-0.3,0.5-0.5,0.7-0.8
			c0.3-0.3,0.5-0.4,0.8-0.8c0.7-0.5,0.9-0.8,1.3-1.3c18.9,26.9,49.8,31,67.8,33.5l58.2,5l0.4-0.7l0.5-0.4l0.5-0.7l0.4-0.3
			c-0.3,0-0.4-0.1-0.5-0.1c-0.3-0.1-0.7-0.3-0.9-0.4c-0.3-0.1-0.5-0.3-0.8-0.4c-0.4-0.1-0.7-0.3-0.9-0.4c0.3,0.1,0.5,0.3,0.9,0.3
			c0.3,0.3,0.5,0.4,0.8,0.5c0.3,0,0.7,0.1,0.9,0.3c0.1,0,0.3,0.1,0.5,0.1h0.1v-0.1l0.3-0.1l-0.3,0.3l-0.1,0.1
			c8.9,3.5,19.7,6,32.8,7.3l1.6,0.1c7.8,0.8,15,1,22.5,1.6c3.9,0.3,8,0.3,12.3,0.7l5.7,0.4l5.6-1c8.2-1.6,16.1-4.7,23.1-9.4
			c21.2,18.3,50.8,20.8,66.9,22c2,0.4,3.8,0.5,5.5,0.7c1.2,0.1,2.4,0.3,4.7,0.8c6.3,0.9,14.9,2.5,24.3,2.5c13.9,0,25.1-3.1,34.1-8.2
			c1.4-0.8,2.7-1.6,4.1-2.7c0.1,0.1,0.1,0,0.3-0.1c0.1,0,0.1,0,0.3-0.1c0.4-0.1,0.5-0.4,0.9-0.4c0,0,0,0-0.1-0.1
			c0.1,0,0.1-0.1,0.3-0.1l0.1-0.1c0-0.1,0.1-0.1,0.1-0.1c0.3-0.1,0.5-0.3,0.8-0.4v-0.1l0.1-0.1c0.1,0,0.1,0,0.3-0.1
			c0.1,0,0.1,0,0.1,0c0.1,0,0.1,0,0.1,0l0.1-0.3l0.1-0.1h0.1c0,0,0.1,0,0.1-0.1c0.3-0.1,0.4-0.3,0.7-0.3c0.1,0,0.3-0.3,0.4-0.4
			c0,0,0,0,0.1-0.1c0,0,0,0,0.1-0.1c0,0,0.1,0,0.1-0.1h0.1l0.1-0.1c0.1-0.1,0.1-0.1,0.3-0.3c0,0,0,0,0.1,0c0,0,0.1,0,0.1-0.1
			c0,0,0.1,0,0.1-0.1h0.1l0.1-0.1c0.1,0,0.1,0,0.3-0.1c0,0,0.1,0,0.3-0.3h0.1c0,0,0.1-0.1,0.3-0.3c0.1,0,0.3-0.1,0.4-0.3h0.1
			l0.1-0.3c0.1,0,0.1,0,0.1,0c0.1,0,0.1-0.1,0.1-0.1c0.1,0,0.1,0,0.1-0.1c0.1,0,0.1,0,0.1,0l0.1-0.1l0.1-0.1c0.1,0,0.1,0,0.1,0h0.1
			c0.1,0,0.1,0,0.1-0.3h0.1l0.3-0.3c0.1,0,0.3-0.1,0.3-0.1c0.1,0,0.1,0,0.1-0.1l0.1-0.1h0.3c0.1,0,0.1,0,0.1,0c0.1,0,0.1,0,0.1-0.3
			c0.1,0,0.1,0,0.3-0.3h0.1c0.1,0,0.1,0,0.3-0.1c0.1,0,0.1,0,0.3-0.1h0.1c0.1,0,0.3-0.3,0.4-0.5c0.3,0,0.3-0.1,0.4-0.3
			c0.1,0,0.1,0,0.3,0l0.1-0.3h0.1v-0.1h0.1c0.1,0,0.1,0,0.3-0.3c0,0,0.1,0,0.1-0.1h0.3v-0.1h0.1v-0.1h0.3v-0.1h0.1l0.1-0.1v-0.1h0.1
			c0.1,0,0.1-0.1,0.1-0.1c0.1,0,0.1-0.1,0.1-0.1h0.1c0.1,0,0.1,0,0.1,0l0.1-0.1h0.1c0.1,0,0.1-0.1,0.1-0.1c0.1,0,0.1-0.1,0.1-0.1
			h0.1v-0.1l0.1-0.1l0.1-0.1h0.1c0.1,0,0.1,0,0.1,0c0.1,0,0.1-0.1,0.1-0.1c0.1,0,0.1,0,0.1,0v-0.1h0.1v-0.1c0.1,0,0.1,0,0.1,0h0.1
			v-0.1l0.1-0.1c0.1,0,0.1-0.1,0.1-0.1s0,0,0.1,0c0.1,0,0.1,0,0.1,0v-0.1c0.1,0,0.1,0,0.1,0v-0.1h0.1c0.1,0,0.1,0,0.1,0v-0.1h0.1
			v-0.1c0.1,0,0.3-0.1,0.3-0.1c0.1,0,0.1,0,0.1-0.1c0.1,0,0.1,0,0.1,0c0.1,0,0.1,0,0.1,0v-0.1h0.1v-0.1h0.3v-0.1h0.1
			c0,0,0-0.1,0.1-0.1c0.1,0,0.1,0,0.1-0.1h0.1l0.1-0.1c0.1,0,0.1,0,0.3-0.1h0.1c0.1,0,0.1,0,0.3-0.4c0,0,0,0,0.1-0.1h0.1l0.1-0.1
			c0,0,0,0,0.1-0.1h0.3c0,0,0.1,0,0.1-0.3h0.1c0.1,0,0.1,0,0.3-0.1c0.1,0,0.1-0.1,0.1-0.3c0.1,0,0.1-0.1,0.1-0.1s0,0,0.1,0h0.1v-0.1
			h0.1c0.1-0.1,0.1-0.1,0.1-0.1h0.1c0.1,0,0.3-0.1,0.3-0.1c0.1,0,0.1,0,0.1-0.3c0.1,0,0.3-0.1,0.3-0.1h0.1c0.1,0,0.3-0.1,0.4-0.3
			h0.1v-0.1c0.1,0,0.1-0.1,0.3-0.3c0.1,0,0.3,0,0.3-0.1c0.1,0,0.1,0,0.3-0.1c0.1-0.1,0.3-0.1,0.4-0.3c0.1,0,0.1,0,0.1-0.1h0.1
			l0.1-0.1c0.1-0.1,0.1-0.1,0.3-0.3h0.1V865c0.1,0,0.3,0,0.3,0c0.1,0,0.1,0,0.3-0.3c0.5-0.4,1-0.7,1.6-1.2c1.8-1.2,3.5-2.7,5.1-4.3
			c11.2-10.7,17.1-25,18.8-38c3.4-27-7.4-50.7-15.4-64.9c-3-6.4-9.8-19.3-16.6-32.3c1.6-1,3-2.5,4.6-3.7
			C1620.3,698.1,1635.6,669.1,1640,633.9z"/>
	</g>
	<path class="st1" d="M1549.7,713.3c0.2-0.1,0.5-0.3,0.7-0.4c0.2-0.2,0.5-0.3,0.7-0.5c0.2-0.2,0.5-0.3,0.7-0.4
		c0.2-0.2,0.5-0.3,0.7-0.5c0.2-0.2,0.5-0.3,0.7-0.5c0.2-0.2,0.5-0.3,0.7-0.4c0.2-0.2,0.5-0.3,0.7-0.5c0.2-0.1,0.5-0.3,0.7-0.4
		c0.2-0.2,0.5-0.3,0.7-0.5c0.2-0.2,0.5-0.3,0.7-0.4c0.2-0.2,0.5-0.3,0.7-0.5c0.2-0.2,0.5-0.3,0.7-0.4c23.8-14.7,45.7-37.5,50.8-77.9
		c4-31.3-3.6-86.4-99.1-104c-33.8-6.3-72.3-12.7-101-12.7c-17.1,0-29.3,2.2-38.4,6.9l-7.8,4l0,0.2l-0.5,0.3l0,0.2l-0.5,0.3l0,0.2
		l-0.5,0.3l0,0.2l-0.5,0.3l0,0.2l-0.5,0.3l0,0.2l-0.5,0.3l0,0.2l-0.5,0.3l0,0.2l-0.5,0.3l0,0.2l-0.5,0.3l0,0.2l-0.5,0.3l0,0.2
		l-0.5,0.3l0,0.2l-0.5,0.3l0,0.2l-0.5,0.3l0,0.2l-0.5,0.3l0,0.2l-0.5,0.3l0,0.2l-0.5,0.3l0,0.2l-0.5,0.3l0,0.2l-0.5,0.3l0,0.2
		l-0.5,0.3l0,0.2l-0.5,0.3l0,0.2l-0.5,0.3l0,0.2l-0.5,0.3l0,0.2l-0.5,0.3l0,0.2l-0.5,0.3l0,0.2l-0.5,0.3l0,0.2l-0.5,0.3l0,0.2
		l-0.5,0.3l0,0.2l-0.5,0.3l0,0.2l-0.5,0.3l0,0.2l-0.5,0.3l0,0.2l-0.5,0.3l0,0.2l-0.5,0.3l-1.1,8.7c-4.4,36.2-8.8,72.4-13.2,108.7
		c-6.6-38.7-13.4-77.5-20.4-116.1l-0.4-1.6c-6.6-23.2-20.2-37.8-40.5-43.4l-1.6-0.4c0,0-12.6-0.9-14.7-1c-6.6-0.5-11.3-0.8-16.4-0.8
		c-3.9,0-8,0.2-13.2,0.6c-30.1,2.1-46,8.1-57.1,22.3c-0.1,0.1-0.2,0.3-0.3,0.5c-0.1,0.1-0.2,0.3-0.3,0.4c-0.1,0.1-0.2,0.3-0.4,0.5
		c-0.1,0.1-0.2,0.3-0.3,0.4c-0.1,0.1-0.2,0.3-0.3,0.5c-0.1,0.1-0.2,0.3-0.3,0.4c-0.1,0.1-0.2,0.3-0.3,0.5c-0.1,0.1-0.2,0.3-0.3,0.5
		c-0.1,0.1-0.2,0.3-0.3,0.4c-0.1,0.1-0.2,0.3-0.3,0.5c-0.1,0.1-0.2,0.3-0.3,0.4c-0.1,0.1-0.2,0.3-0.3,0.4c-0.1,0.1-0.2,0.3-0.3,0.4
		c-0.1,0.1-0.2,0.3-0.3,0.5c-0.1,0.1-0.2,0.3-0.3,0.5c-0.1,0.1-0.2,0.3-0.3,0.4c-0.1,0.1-0.2,0.3-0.3,0.4c-0.1,0.1-0.2,0.3-0.3,0.5
		c-0.1,0.1-0.2,0.3-0.3,0.4c-0.1,0.1-0.2,0.3-0.3,0.5c-0.1,0.1-0.2,0.3-0.3,0.4c-0.1,0.1-0.2,0.3-0.3,0.5c-0.1,0.1-0.2,0.3-0.3,0.4
		c-0.1,0.1-0.2,0.3-0.3,0.5c-0.1,0.1-0.2,0.3-0.3,0.4c-0.1,0.1-0.2,0.3-0.3,0.5c-0.1,0.1-0.2,0.3-0.3,0.4c-0.1,0.1-0.2,0.3-0.3,0.5
		c-0.1,0.1-0.2,0.3-0.3,0.5c-0.1,0.1-0.2,0.3-0.3,0.5c-0.1,0.1-0.2,0.3-0.3,0.5c-6.5,8.4-11.4,19.7-16.5,34.9
		c-15.1,45.3-29.9,91.2-44.6,137.2c-0.5-0.6-0.9-1.3-1.5-1.9c-7.5-8.2-18.6-12.4-34-13l-2.9-0.1c-6.5,0-12.6,0.8-18.4,1.6
		c-0.4,0.1-0.8,0.1-1.2,0.2c0-1,0-2,0.1-3.1c0.2-9.2,0.4-19.8,0.5-24.2c0.3-7.9,1-25.7,1.5-39c0.3-8.1,0.6-14.5,0.7-16
		c0.1-3.4,2.1-23.8,3.6-38.7c2.2-21.8,3.5-35.4,3.6-39.6l0.2-4.9c0.3-10.2-2.9-19.3-9.5-26.2c-14.1-14.9-38.6-15.5-54.9-15.9l0,0.5
		c0,0-0.1,0-0.2,0l0,0.5c0,0-0.1,0-0.1,0l0,0.5c0,0-0.1,0-0.2,0l0,0.5c0,0-0.1,0-0.1,0l0,0.5c0,0-0.1,0-0.1,0l0,0.5c0,0-0.1,0-0.1,0
		l0,0.5c0,0-0.1,0-0.1,0l0,0.5c0,0-0.1,0-0.1,0l0,0.5c0,0-0.1,0-0.1,0l-0.3-4.1l-4.2-0.1c-18.4,0-39.5,3.8-45.8,30.7
		c0,0.2-0.1,0.3-0.1,0.5c0,0.1-0.1,0.3-0.1,0.4c0,0.2-0.1,0.3-0.1,0.5c0,0.1-0.1,0.3-0.1,0.4c0,0.2-0.1,0.3-0.1,0.5
		c0,0.1-0.1,0.3-0.1,0.4c0,0.1-0.1,0.3-0.1,0.4c0,0.2-0.1,0.3-0.1,0.5c0,0.1-0.1,0.3-0.1,0.4c0,0,0,0,0,0c-5.6-8.8-14.5-16-28.6-19
		l-0.8-0.2l-0.9-0.1c-2.9-0.3-11.4-1.9-16.9-2.9l-6.4-1.1l-9.5-0.1c-27.9,0-45.3,15.7-47.8,43.1c-3.8,42.3-7.5,84.7-11.1,126.6
		c-0.1,1-0.2,2.4-0.3,4.1c-0.2,2.4-0.4,4.6-0.6,6.4c-0.1-1-0.2-2.2-0.3-3.4c0-2,0-4,0.1-6.3l-0.1-19.9c-0.1-14.9,0.1-29.8,0.4-44.8
		c0.2-15.1,0.4-30.3,0.4-45.6l-0.1-15.4l0,0l0-0.4l0,0l0-0.4l0,0l0-0.4l0,0l0-0.4l0,0l0-0.4l0,0l0-0.4l0,0l0-0.4l0,0l0-0.4l0,0
		l0-0.4l0,0l0-0.4l0,0l0-0.4l0,0l0-0.4l0,0l0-0.4l0,0l0-0.4l0,0l0-0.4l0,0l0-0.4l0,0l0-0.4l0,0l0-0.4l0,0l0-0.4l0,0l0-0.4l0,0l0-0.4
		l0,0l0-0.4l0,0l0-0.4l0,0l0-0.4l0,0l0-0.4l0,0l0-0.4l0,0l0-0.4l0,0l0-0.4l0,0l0-0.4l0,0l0-0.4l0,0l0-0.4l0,0l0-0.4l-0.6-2.2
		c-8.6-30.5-56.6-30.5-72.4-30.5l-12.3,0.2c-10.6,0.2-30.4,0.5-34.8,17.3l-0.4,1.6l-0.1,1.6c-0.4,6.3-0.8,12.6-1.2,19
		c-21.5-25.5-59.5-38.5-113.9-38.5c-7.6,0-15.1,0.2-22.3,0.6c-5.7,0.2-21.4,1-22.3,1l-1.5,0.1l-1.2,0.3c-2.1,0.4-15.6,2.6-22,3.4
		c-5.9,1.1-23.9,4.3-22.8,25.3c0.2,8.2,0.5,16.4,0.8,24.6c-0.1-0.1-0.1-0.1-0.2-0.2c-0.1-0.2-0.2-0.3-0.3-0.5
		c-0.1-0.2-0.2-0.3-0.3-0.5c-0.1-0.2-0.2-0.3-0.3-0.4c-0.1-0.2-0.2-0.3-0.3-0.5c-0.1-0.2-0.2-0.3-0.3-0.4c-0.1-0.2-0.2-0.3-0.4-0.5
		c-0.1-0.2-0.2-0.3-0.3-0.4c-0.1-0.2-0.2-0.3-0.4-0.5c-0.1-0.2-0.2-0.3-0.3-0.4c-0.1-0.2-0.2-0.3-0.4-0.5
		c-20.6-28.4-51.9-43.7-92.2-43.7c-3.9,0-8,0.2-12.2,0.4c-33.5,2.5-61,16-89.1,44c-9.2,9-16.3,19.3-21.9,30.1
		c-1.9-2.2-3.6-4.5-5.7-6.4c-0.2-0.2-0.4-0.3-0.6-0.4c-0.2-0.2-0.4-0.3-0.6-0.5c-0.2-0.2-0.4-0.3-0.6-0.4c-0.2-0.2-0.4-0.3-0.6-0.5
		c-0.2-0.2-0.4-0.3-0.6-0.4c-0.2-0.2-0.4-0.3-0.6-0.5c-0.2-0.2-0.4-0.3-0.6-0.4c-0.2-0.2-0.4-0.3-0.6-0.5c-0.2-0.2-0.4-0.3-0.6-0.5
		c-0.2-0.2-0.4-0.3-0.6-0.5c-0.2-0.2-0.4-0.3-0.6-0.4c-0.2-0.2-0.4-0.3-0.6-0.5c-0.2-0.2-0.4-0.3-0.6-0.4c-0.2-0.2-0.4-0.3-0.6-0.5
		c-0.2-0.2-0.4-0.3-0.6-0.4c-0.2-0.2-0.4-0.3-0.6-0.5c-0.2-0.2-0.4-0.3-0.6-0.4c-0.2-0.2-0.4-0.3-0.6-0.5c-0.2-0.2-0.4-0.3-0.6-0.4
		c-0.2-0.2-0.4-0.3-0.6-0.5c-0.2-0.2-0.4-0.3-0.6-0.4c-0.2-0.2-0.4-0.3-0.6-0.5c-0.2-0.2-0.4-0.3-0.6-0.4c-0.2-0.2-0.4-0.3-0.6-0.5
		c-0.2-0.2-0.4-0.3-0.6-0.5c-0.2-0.2-0.4-0.3-0.6-0.4c-0.2-0.2-0.4-0.3-0.6-0.5c-0.2-0.2-0.4-0.3-0.6-0.4c-0.2-0.2-0.4-0.3-0.6-0.5
		c-0.2-0.2-0.4-0.3-0.6-0.4c-0.2-0.2-0.4-0.3-0.6-0.5c-19.9-18.2-49.9-27.4-89.8-27.4c-13.3,0-28.2,1-45.3,3l-22,2.6l-1.6,0.2
		l-1.3,0.4c-2.1,0.6-15.6,3.8-21.6,5c-5.8,1.5-23.6,6-21,26.9c6.5,63.3,13,126.5,19.7,190.1l6,47.3c3.1,24.6,11.3,40.1,24.4,46.3
		c0.3,0.1,0.5,0.3,0.7,0.5c0.3,0.1,0.5,0.3,0.7,0.5c0.3,0.1,0.5,0.3,0.7,0.4c0.3,0.1,0.5,0.3,0.7,0.5c0.3,0.1,0.5,0.3,0.7,0.5
		c0.3,0.1,0.5,0.3,0.7,0.5c0.3,0.1,0.5,0.3,0.7,0.4c0.3,0.1,0.5,0.3,0.7,0.5c0.3,0.1,0.5,0.3,0.7,0.5c0.3,0.1,0.5,0.3,0.7,0.5
		c0.3,0.1,0.5,0.3,0.7,0.5c0.3,0.1,0.5,0.3,0.7,0.4c0.3,0.1,0.5,0.3,0.7,0.5c0.3,0.1,0.5,0.3,0.7,0.4c0.3,0.1,0.5,0.3,0.7,0.5
		c0.3,0.1,0.5,0.3,0.7,0.5c0.3,0.1,0.5,0.3,0.7,0.5c0.3,0.1,0.5,0.3,0.7,0.5c0.3,0.1,0.5,0.3,0.7,0.5c0.3,0.1,0.5,0.3,0.7,0.5
		c0.3,0.1,0.5,0.3,0.7,0.5c0.2,0.1,0.5,0.3,0.7,0.4c0.3,0.1,0.5,0.3,0.7,0.5c0.2,0.1,0.5,0.3,0.7,0.4c0.3,0.1,0.5,0.3,0.7,0.5
		c0.2,0.1,0.5,0.3,0.7,0.5c0.3,0.1,0.5,0.3,0.7,0.5c0.2,0.1,0.5,0.3,0.7,0.5c0.2,0.1,0.5,0.3,0.7,0.5c0.2,0.1,0.5,0.3,0.7,0.5
		c0.2,0.1,0.5,0.3,0.7,0.5c4.4,2.3,9.3,3.5,14.9,3.5c1.5,0,3-0.1,4.6-0.3c18.1-2.3,36.1-4.5,54.2-6.6c19.6-2.3,26.5-24.7,24.9-39.2
		l-6.6-61c23.5-6.9,41.7-16.8,55.2-29.9c9.4,25.3,24.5,48.7,45.4,65.5c0.2,0.1,0.3,0.3,0.5,0.4c0.2,0.1,0.3,0.3,0.5,0.5
		c0.2,0.1,0.3,0.3,0.5,0.4c0.2,0.1,0.3,0.3,0.5,0.5c0.2,0.1,0.3,0.3,0.5,0.4c0.2,0.1,0.3,0.3,0.5,0.5c0.2,0.1,0.3,0.3,0.5,0.4
		c0.2,0.1,0.3,0.3,0.5,0.5c0.2,0.1,0.3,0.3,0.5,0.5c0.2,0.1,0.3,0.3,0.5,0.4c0.2,0.1,0.3,0.3,0.5,0.5c0.2,0.1,0.3,0.3,0.5,0.4
		c0.2,0.1,0.3,0.3,0.5,0.5c0.2,0.1,0.3,0.3,0.5,0.4c0.2,0.1,0.3,0.3,0.5,0.5c0.2,0.1,0.3,0.3,0.5,0.4c0.2,0.1,0.3,0.3,0.5,0.5
		c0.2,0.1,0.3,0.3,0.5,0.5c0.2,0.1,0.3,0.3,0.5,0.5c0.2,0.1,0.3,0.3,0.5,0.4c0.2,0.1,0.3,0.3,0.5,0.5c0.2,0.1,0.3,0.3,0.5,0.4
		c0.2,0.1,0.3,0.3,0.5,0.5c0.2,0.1,0.3,0.3,0.5,0.4c0.2,0.1,0.3,0.3,0.5,0.5c0.2,0.1,0.3,0.3,0.5,0.4c0.2,0.1,0.3,0.3,0.5,0.5
		c0.2,0.1,0.3,0.3,0.5,0.4c0.2,0.1,0.3,0.3,0.5,0.5c0.2,0.1,0.3,0.3,0.5,0.4c0.2,0.1,0.3,0.3,0.5,0.5c19.4,16.3,44.1,26.6,73.9,26.6
		c3.2,0,6.5-0.1,9.8-0.4c41.4-3.1,70.4-30.3,88.9-65.8c1.4,14.2,4.9,25.3,10.5,32.9c0.1,0.1,0.2,0.3,0.3,0.4
		c0.1,0.2,0.2,0.3,0.3,0.5c0.1,0.1,0.2,0.3,0.3,0.4c0.1,0.2,0.2,0.3,0.3,0.5c0.1,0.1,0.2,0.3,0.3,0.5c0.1,0.2,0.2,0.3,0.3,0.5
		c0.1,0.2,0.2,0.3,0.3,0.5c0.1,0.2,0.2,0.3,0.3,0.5c0.1,0.1,0.2,0.3,0.3,0.4c0.1,0.2,0.2,0.3,0.3,0.5c0.1,0.2,0.2,0.3,0.3,0.4
		c0.1,0.2,0.2,0.3,0.3,0.5c0.1,0.2,0.2,0.3,0.3,0.5c0.1,0.1,0.2,0.3,0.3,0.4c0.1,0.2,0.2,0.3,0.3,0.5c0.1,0.2,0.2,0.3,0.3,0.5
		c0.1,0.2,0.2,0.3,0.3,0.5c0.1,0.2,0.2,0.3,0.3,0.5c0.1,0.1,0.2,0.3,0.3,0.5c0.1,0.1,0.2,0.3,0.3,0.5c0.1,0.2,0.2,0.3,0.3,0.5
		c0.1,0.1,0.2,0.3,0.3,0.4c0.1,0.2,0.2,0.3,0.3,0.5c0.1,0.2,0.2,0.3,0.3,0.5c0.1,0.2,0.2,0.3,0.3,0.5c0.1,0.2,0.2,0.3,0.3,0.5
		c0.1,0.2,0.2,0.3,0.3,0.5c0.1,0.2,0.2,0.3,0.3,0.5c0.1,0.2,0.2,0.3,0.3,0.5c0.1,0.2,0.2,0.3,0.3,0.5c0.1,0.2,0.2,0.3,0.3,0.5
		c6.2,8.9,15,13.4,26.4,13.4l2-0.1c18.1-0.9,36.3-1.8,54.4-2.6c19.7-0.8,28.1-22.7,27.6-37.2L618,726c33-7.1,56.4-20.6,71.4-41.2
		c1.4,8.3,2.9,16.4,4.9,24.1c0,0.2,0.1,0.3,0.1,0.4c0,0.2,0.1,0.3,0.1,0.5c0,0.2,0.1,0.3,0.1,0.4c0,0.2,0.1,0.3,0.1,0.5
		c0,0.2,0.1,0.3,0.1,0.4c0,0.2,0.1,0.3,0.1,0.5c0,0.2,0.1,0.3,0.1,0.5c0,0.2,0.1,0.3,0.1,0.4c0,0.2,0.1,0.3,0.1,0.5
		c0,0.2,0.1,0.3,0.1,0.4c0,0.2,0.1,0.3,0.1,0.5c0,0.2,0.1,0.3,0.1,0.4c0,0.2,0.1,0.3,0.1,0.5c0,0.2,0.1,0.3,0.1,0.4
		c0,0.2,0.1,0.3,0.1,0.4c0,0.2,0.1,0.3,0.1,0.5c0,0.1,0.1,0.3,0.1,0.4c0,0.2,0.1,0.3,0.1,0.4c0,0.2,0.1,0.3,0.1,0.5
		c0,0.1,0.1,0.3,0.1,0.4c0,0.2,0.1,0.3,0.1,0.5c0,0.2,0.1,0.3,0.1,0.4c0,0.2,0.1,0.3,0.1,0.5c0,0.2,0.1,0.3,0.1,0.4
		c0,0.2,0.1,0.3,0.1,0.5c0,0.2,0.1,0.3,0.1,0.4c0,0.2,0.1,0.3,0.1,0.4c0,0.2,0.1,0.3,0.1,0.5c0,0.1,0.1,0.3,0.1,0.4
		c0,0.2,0.1,0.3,0.1,0.5c0,0.2,0.1,0.3,0.1,0.4c6.2,25.4,15.9,47.2,30.4,63.2c17.8,19.6,41.4,29.6,70.3,29.6c1.5,0,3.1,0,4.6-0.1
		c59.7-1.8,95.8-28.4,112.6-82.8l-0.7,40.8c-0.2,11,3.4,20.7,10.4,28.1c15.8,16.8,44.9,17.2,65.2,17.4l20,0.6
		c2.2,0,8.9-0.5,32.9-2.4l12.2-1c7.2-0.5,12.9-2.2,17.4-4.4c4.4,5.7,11.2,9.4,19.9,9.8l3.7,0.2c8.8,0,49.9-0.3,58.8-0.6l1.3,0
		l1.3-0.3c7-1.4,12.3-5.3,16.2-10.1c0.1-0.1,0.2-0.3,0.4-0.5c0.1-0.1,0.2-0.3,0.3-0.4c0.1-0.1,0.2-0.3,0.4-0.5
		c0.1-0.1,0.2-0.3,0.4-0.4c0.1-0.1,0.2-0.3,0.4-0.5c0.1-0.1,0.2-0.3,0.3-0.4c0.1-0.1,0.2-0.3,0.4-0.5c0.1-0.1,0.2-0.3,0.4-0.4
		c0.1-0.1,0.2-0.3,0.4-0.4c0.1-0.1,0.2-0.3,0.4-0.5c0.1-0.1,0.2-0.3,0.4-0.5c0.1-0.1,0.2-0.3,0.4-0.4c0.1-0.1,0.2-0.3,0.4-0.5
		c0.1-0.1,0.2-0.3,0.4-0.5c0.1-0.1,0.2-0.3,0.4-0.5c0.1-0.1,0.2-0.3,0.4-0.4c0.1-0.1,0.2-0.3,0.4-0.5c0.1-0.1,0.2-0.3,0.4-0.5
		c0.1-0.1,0.2-0.3,0.4-0.5c0.1-0.1,0.2-0.3,0.4-0.4c0.1-0.1,0.2-0.3,0.4-0.5c0.1-0.1,0.2-0.3,0.4-0.4c0.1-0.1,0.2-0.3,0.4-0.5
		c0.1-0.1,0.2-0.3,0.4-0.5c0.1-0.1,0.2-0.3,0.4-0.4c0.1-0.1,0.2-0.3,0.4-0.5c0.1-0.1,0.2-0.3,0.4-0.4c0.1-0.1,0.2-0.3,0.4-0.5
		c0.1-0.1,0.2-0.3,0.4-0.4c0.1-0.1,0.2-0.3,0.4-0.5c0.1-0.1,0.2-0.3,0.4-0.5c6.8-7.7,10-17.7,11.5-22.4c3.3-11.8,6.6-23.4,9.8-35.1
		l1,0c0.9,0.1,1.7,0.1,2.4,0.2l0,0.4l0.2,1.6c0.5,3.6,2,30.7,2.3,36.4c4,43.1,26.6,49.6,56.5,53.7l44,3.7l0.4-0.5l0.1,0l0.4-0.5
		l0.1,0l0.4-0.5l0.1,0l0.4-0.5l0.1,0l0.4-0.5l0.1,0l0.4-0.5l0.1,0l0.4-0.5l0.1,0l0.4-0.5l0.1,0l0.4-0.5l0.1,0l0.4-0.5l0.1,0l0.2-0.2
		c0.3-0.1,0.6-0.3,0.9-0.4c1.2-0.5,2.6-1.2,4-1.9c8,7.2,20.9,11.8,39,13.6l1.5,0.2c7.4,0.7,14.1,1.1,21.1,1.4
		c4.1,0.2,8.3,0.4,12.8,0.7l2,0.1l2-0.4c5.6-1,10.8-3.5,15.1-7c0.2-0.2,0.4-0.3,0.6-0.5c0.2-0.2,0.4-0.3,0.6-0.5
		c0.2-0.2,0.4-0.3,0.6-0.5c0.2-0.2,0.4-0.3,0.6-0.4c0.2-0.2,0.4-0.3,0.6-0.5c0.2-0.2,0.4-0.3,0.6-0.4c0.2-0.2,0.4-0.3,0.6-0.5
		c0.2-0.2,0.4-0.3,0.6-0.5c0.2-0.2,0.4-0.3,0.6-0.5c0.2-0.2,0.4-0.3,0.6-0.4c0.2-0.2,0.4-0.3,0.6-0.5c0.2-0.1,0.4-0.3,0.6-0.4
		c0.2-0.2,0.4-0.3,0.6-0.5c0.2-0.2,0.4-0.3,0.6-0.4c0.2-0.2,0.4-0.3,0.6-0.5c0.2-0.2,0.4-0.3,0.6-0.5c0.2-0.2,0.4-0.3,0.6-0.5
		c0.2-0.2,0.4-0.3,0.6-0.4c0.2-0.2,0.4-0.3,0.6-0.5c0.2-0.1,0.4-0.3,0.6-0.4c0.2-0.2,0.4-0.3,0.6-0.5c0.2-0.2,0.4-0.3,0.6-0.4
		c0.2-0.2,0.4-0.3,0.6-0.5c0.2-0.2,0.4-0.3,0.6-0.5c0.2-0.2,0.4-0.3,0.6-0.4c0.2-0.2,0.4-0.3,0.6-0.5c0.2-0.2,0.4-0.3,0.6-0.4
		c0.2-0.2,0.4-0.3,0.6-0.5c0.2-0.2,0.4-0.3,0.6-0.4c0.2-0.2,0.4-0.3,0.6-0.5c0.2-0.2,0.4-0.3,0.6-0.4c0.7-0.5,1.4-1.2,2.1-1.8
		c1.3,3.8,2.3,6.8,2.3,6.8c9.8,24,40.7,26.6,59.3,28.2c2.6,0.2,4.9,0.4,6.9,0.7c1.8,0.2,3.8,0.6,6,0.9c5.6,0.9,12.6,2.1,19.5,2.1
		c8.9,0,15.3-2.1,20.3-5.1c0.4-0.2,0.7-0.5,1.1-0.7c0.5-0.3,1-0.6,1.5-0.9c0.6-0.3,1.1-0.7,1.6-1c0.5-0.3,1-0.6,1.5-0.9
		c0.4-0.2,0.8-0.5,1.2-0.7c0.7-0.4,1.3-0.8,1.9-1.2c0.3-0.2,0.6-0.4,0.9-0.6c0.7-0.4,1.4-0.8,2-1.2c0.4-0.2,0.8-0.5,1.2-0.7
		c0.5-0.3,1-0.6,1.5-0.9c0.5-0.3,1-0.6,1.4-0.9c0.6-0.3,1.2-0.7,1.7-1c0.3-0.2,0.6-0.3,0.8-0.5c0.4-0.2,0.8-0.5,1.2-0.7
		c0.6-0.3,1.2-0.7,1.8-1.1c0.4-0.2,0.8-0.5,1.1-0.7c0.1,0,0.1-0.1,0.2-0.1c12.6-6.7,15.5-19,16.1-23.8c2.3-18.4-6.2-36.2-12.2-46.9
		c-3.9-8.5-19.9-38.5-29.6-56.7c0,0,0,0,0,0C1549.2,713.6,1549.5,713.5,1549.7,713.3z"/>
	<g>
		<path class="st2" d="M247.2,598.8c-16.5-61.7-86.9-61-141.9-54.4c-5.6,0.6-21,2.5-21.9,2.6c-2.1,0.7-16.9,4.1-22.4,5.2
			c-6.3,1.6-9.3,2.4-8.5,8.9c6.5,63.2,13,126.5,19.6,189.7c0.9,6.9,5.1,40.4,6,47.3c1.7,13.5,5.5,37,25.2,34.6
			c18.7-2.3,37.4-4.5,56.1-6.6c8.6-1,11.8-13.7,11-20.7c-2.8-25.2-5.6-50.4-8.4-75.6c67-14.8,93.4-47.9,87.3-113.9
			C249,613.5,247.5,601.3,247.2,598.8z M146.8,658c-0.6-5.7-3.9-35.1-6.8-60.5c33.9-5.4,39.5,14.7,40.8,27.8
			C182.6,641.7,178.8,654.4,146.8,658z"/>
		<path class="st2" d="M374.3,515.2c-32.8,2.4-56.3,17.1-78.6,39.2c-31.9,31.2-37.9,83.9-34.1,124.4
			c6.4,65.9,51.2,128.3,124.1,122.8c77.7-5.7,105.8-106,102.4-170.1C484.3,561.4,451.2,509.7,374.3,515.2z M377.1,725.6
			c-62.6-9.1-53.3-134.4,0.1-136C434.4,586.4,432.3,729,377.1,725.6z"/>
		<path class="st2" d="M550.8,508.5c-5.6,0.2-21.1,1-22,1c-2.1,0.5-17.2,2.9-22.7,3.6c-6.4,1.2-9.4,1.7-9.1,8.3
			c1.9,63.6,3.9,127.1,6,190.6c0.4,7,2.2,40.6,2.6,47.6c0.7,13.6,2.9,37.3,22.6,36.3c18.8-0.9,37.6-1.8,56.4-2.6
			c8.6-0.4,12.7-12.8,12.4-19.8c-1-25.3-2-50.6-2.9-76c67.8-9.9,96.5-41.1,95.1-107.3c-0.1-2.5-0.8-14.8-0.8-17.2
			C676.3,510.3,606.1,506,550.8,508.5z M584,624.8c-0.2-5.8-1.4-35.3-2.4-60.8c34.2-3,38.3,17.5,38.7,30.7
			C620.8,611.1,616.1,623.5,584,624.8z"/>
		<path class="st2" d="M899,513.1c-4.3-0.5-20.2-3.5-22.8-3.9c-0.4,0-6,0-7.8-0.1c-19.4-0.1-29.8,8.5-31.5,27.8
			c-3.8,42.3-7.5,84.7-11.1,127c-0.8,7.4-0.4,38.6-20,36.2c-16.3-2-15.3-40.6-14.9-52.1c0-1.2,0-2.1,0-2.5c0-0.4-0.1-12.3-0.1-16.8
			c-0.2-30,0.9-60,0.7-90.4c0-2.1-0.1-11.1-0.1-13.1c-5.3-18.5-46.3-18.5-62.7-18.2c-0.9,0-1.7,0-2.6,0c-0.4,0-1.3,0-1.7,0
			c-0.4,0-0.9,0-1.3,0c-6,0.1-17.7,0.3-18.9,4.9c-9.3,138.1-9.3,276.3,98.1,272.5c61.7-1.8,92.9-29.2,105.4-88.7
			c9.4-43.9,15.2-87.3,15.9-132.1C923.9,543.5,923.9,518.3,899,513.1z"/>
		<path class="st2" d="M1059.7,703.8c-12.1-0.5-24.4,3.2-36.5,2.8c-0.4,0-1.7-0.5-1.7-0.5c-0.2-1.9-0.4-3.9-0.6-5.8
			c0.1-4.1,0.6-31.6,0.8-39.5c0.4-12.7,2.1-50.9,2.2-55c0.2-7.8,7-70.5,7.2-78.3c0-0.4,0.1-4.1,0.2-4.9c0.8-23.4-29-24.4-48-24.8
			c-0.4,0-1.3,0-1.7,0c-24.2-0.6-33.4,3.8-34.7,27.6c-3.8,61.3-7.5,122.6-11.1,183.9c-0.3,16.7-0.6,33.4-0.9,50.1
			c-0.5,28.3,38.6,28.3,61.7,28.6c2.5,0.1,4.5,0.1,6.6,0.2c3.3,0.1,12.8,0.4,13.6,0.4c2.5,0.1,34.7-2.5,45.5-3.3
			c7.4-0.5,15.4-2.7,19.8-9.1c5.3-6.8,4.9-18.3,5.3-26.1c0.1-1.6,0.1-2.9,0.2-4.5C1088.7,721.4,1089.4,704.9,1059.7,703.8z"/>
		<path class="st2" d="M1266.1,511.3c-2.2-0.2-10.8-0.8-13-0.9c-10.8-0.7-16-1.1-27.3-0.2c-40,2.8-46.9,10.4-59.2,45.5
			c-25.4,73.9-50,148-73.9,222.2c0,0-0.1,1.6-0.1,2.1c-0.3,6.6,2.8,10.4,9,10.7c0.8,0,3.7,0.2,4.1,0.2c9.1,0,51.2-0.3,60.3-0.6
			c8.3-1.6,12.8-13.7,14.8-20.1c5.3-18.9,10.6-37.8,15.9-56.7c1.6-4.8,20.4-5.3,24.6-5c6.7,0.4,11.2,1.2,16.5,3.6
			c0.3,2.1,1.8,10.8,1.6,12.9c0.6,3.7,2.3,33.5,2.4,37.3c2.9,30.3,14.1,34.7,43.2,38.6c0.4,0,14,1.1,18.9,1.5
			c2.5,0.2,16,1.3,18.5,1.5c2.3-2.3,12.9-5.1,13.1-7.6c0.2-2.9,0.5-5.7,0.7-8.6c-13.1-81.6-27-163.1-41.7-244.6
			C1290.5,527.5,1282.3,515.8,1266.1,511.3z M1239.5,635.1c0,0.4-0.6,8.2-0.7,10.7c-0.1,2-0.7,9.8-0.8,11.5
			c-9.1-0.3-18.3-0.7-27.4-1c0.1-0.8,0.4-6.2,0.5-7.4c0.8-13.1,1.9-23.8,4.6-38.4c1.3-6.5,3.7-18.7,12.7-18.1
			c8.1,0.5,10.7,6.5,10.7,13.1C1239.5,610.8,1239.8,631.4,1239.5,635.1z"/>
		<path class="st2" d="M1592.6,627.9c6.6-52.2-35.6-76.2-85.5-85.4c-54.5-10.2-108.1-18-128.6-7.4c-10.8,85.3-21.4,170.6-31.9,255.9
			c-1.5,16.8,23.6,19,35.1,20.1c0.4,0,0.8,0.1,1.2,0.1c11.9,1.1,22.3,1.3,34.6,2.1c8.9-1.6,15-8.8,16.8-17.7
			c3.4-17.8,6.7-35.7,10.1-53.5c0.6-1.9,1.2-3.7,1.8-5.6c12.5,21.1,21.3,48.1,29.2,70.9c7.3,17.3,40.9,17,54.8,18.7
			c13.9,1.6,41.2,9.6,43.8-10.8c1.6-12.6-4.6-26.7-10.8-37.8c-4.9-10.6-30.7-58.8-36-68.5c-0.4-0.5-1-2.2-0.9-3c0,0,0.9-0.7,1.4-1.1
			C1563.5,689.2,1587.6,667.9,1592.6,627.9z M1466.8,657.2c-1.7-0.2-5.9-0.6-5.9-0.6c-0.8-0.1-2.4-1.5-2.4-1.5
			c1.5-14.9,3.1-29.7,4.6-44.6c0.1-1.2,1.3-4.4,1.8-4.8c0,0,1.7,0.2,2.5,0.3c15.3,1.6,38.2,8.2,36.1,27
			C1501.7,649.9,1483.2,659,1466.8,657.2z"/>
		<path class="st2" d="M378.7,621.3c-11.2,0-20.2,16.2-20.2,36.1c0,19.9,9.1,36.1,20.2,36.1c11.2,0,20.2-16.2,20.2-36.1
			C398.9,637.5,389.9,621.3,378.7,621.3z"/>
	</g>
</g>
</svg>
