<?xml version="1.0" encoding="utf-8"?>
<!-- Generator: Adobe Illustrator 25.0.0, SVG Export Plug-In . SVG Version: 6.00 Build 0)  -->
<svg version="1.1" id="Layer_1" xmlns="http://www.w3.org/2000/svg" xmlns:xlink="http://www.w3.org/1999/xlink" x="0px" y="0px"
	 viewBox="0 0 225 180" style="enable-background:new 0 0 225 180;" xml:space="preserve">
<style type="text/css">
	.st0{fill:#FDF6EC;}
	.st1{fill:#FF646F;}
	.st2{fill:#FF4755;}
	.st3{fill:#FFF3DE;}
	.st4{fill:#FFE5C2;}
	.st5{fill:#FFC265;}
	.st6{fill:#FFA812;}
	.st7{fill:none;stroke:#35414D;stroke-width:3.4828;stroke-linecap:round;stroke-linejoin:round;stroke-miterlimit:13.3333;}
	.st8{fill:#3F597D;}
	.st9{fill:#5D748A;}
	.st10{fill:#F0E9E6;}
	.st11{fill:#98DB7C;}
	.st12{fill:#6ACB44;}
	.st13{fill:#35414D;}
	.st14{fill:#FAF8F8;}
	.st15{fill-rule:evenodd;clip-rule:evenodd;fill:#5D748A;}
	.st16{fill:#FFFFFF;}
</style>
<g>
	<g>
		<path class="st0" d="M201.8,19.8v115.6h-190L11.7,20.2c0-4.3,1.3-8.1,5.5-8.1h176.8C198.4,12,201.8,15.5,201.8,19.8L201.8,19.8z"
			/>
		<g>
			<g id="g1621_1_" transform="translate(363.2139,83.9395)">
				<path id="path1623_1_" class="st1" d="M-210.2,56.4l-1.5-22.9c-0.5-7.1-5.6-13-12.6-14.5l-22.7-4.7h-21l-22.7,4.7
					c-7,1.4-12.1,7.4-12.6,14.5l-1.5,22.9H-210.2z"/>
			</g>
			<g id="g1625_1_" transform="translate(359.7197,135.5737)">
				<path id="path1627_1_" class="st2" d="M-208.3-18.1c-0.5-7.1-5.6-13-12.6-14.5l-22.7-4.7h-14.6l22.7,4.7
					c7,1.4,12.1,7.4,12.6,14.5l1.5,22.9h14.6L-208.3-18.1z"/>
			</g>
			<g id="g1629_1_" transform="translate(280.1079,178.8335)">
				<path id="path1631_1_" class="st3" d="M-164-80.5v-14.3h-21v14.3c0,5.8,4.7,10.5,10.5,10.5l0,0C-168.7-70.1-164-74.8-164-80.5"
					/>
			</g>
			<g id="g1633_1_" transform="translate(314.8579,271.8262)">
				<path id="path1635_1_" class="st3" d="M-183.3-214.8h-5.1v-2.6c0-5.6-2.3-10.9-6.5-14.6c-3.3-2.8-7.9-5.3-14.1-5.4
					c-6.1,0.1-10.8,2.5-14.1,5.4c-4.2,3.6-6.5,9-6.5,14.6v2.1h-5.1v9.9c0,2.8,2.3,5.1,5.1,5.1c0.1,5.4,2.4,10.6,6.5,14.1
					c3.3,2.8,7.9,6.4,14.1,6.4c6.1-0.1,10.8-3.6,14.1-6.4c4.1-3.5,6.4-8.7,6.5-14.1c2.8,0,5.1-2.3,5.1-5.1V-214.8z"/>
			</g>
			<g id="g1637_1_" transform="translate(303.3096,271.8262)">
				<path id="path1639_1_" class="st4" d="M-176.9-214.8v-2.6c0-5.6-2.3-10.9-6.5-14.6c-1.5-1.3-3.2-2.5-5.2-3.4
					c1.4,1.9,2.2,4.2,2.2,6.7v23.2c0,14.6-3.9,21-11.6,25.8c0.2,0,0.4,0,0.6,0c6.1-0.1,10.8-3.6,14.1-6.4c4.1-3.5,6.4-8.7,6.5-14.1
					c2.8,0,5.1-2.3,5.1-5.1v-9.4H-176.9z"/>
			</g>
			<g id="g1641_1_" transform="translate(314.8579,263.0615)">
				<path id="path1643_1_" class="st5" d="M-183.3-202.1c0,0-5-1.5-8.8-5.7c-2.3-2.5-5.9-3.2-8.9-1.5c-7.6,4.3-21.5,10.2-33.7,4.5
					v-7.5c0-9.8,7.9-17.7,17.7-17.7h10.5c2.3,0,4.6,0.8,6.5,2.2c1.8,1.4,4,2.1,6.2,2.2c5.8,0.1,10.5,4.9,10.5,10.7V-202.1z"/>
			</g>
			<g id="g1673_1_" transform="translate(291.2192,316.2119)">
				<path id="path1675_1_" class="st6" d="M-170.2-278.8c-2.2-0.1-4.4-0.8-6.2-2.2c-1.1-0.8-2.3-1.4-3.6-1.8
					c3.4,1.9,5.7,5.6,5.7,9.8v9.6c2.2-0.1,4.3,0.7,5.9,2.4c3.8,4.2,8.8,5.7,8.8,5.7v-12.8C-159.7-273.9-164.3-278.7-170.2-278.8"/>
			</g>
			<g id="g1685_1_" transform="translate(361.6694,106.7607)">
				<path id="path1687_1_" class="st7" d="M-209.4,23.5l-0.9-12.8c-0.5-7.1-5.6-13-12.6-14.5l-22.7-4.7"/>
			</g>
			<g id="g1689_1_" transform="translate(232.8516,178.8335)">
				<path id="path1691_1_" class="st7" d="M-137.7-80.5l-22.7,4.7c-7,1.4-12.1,7.4-12.6,14.5l-0.9,12.8"/>
			</g>
			<g id="g1693_1_" transform="translate(232.8516,201.1787)">
				<path id="path1695_1_" class="st7" d="M-137.7-112.8v9.9c0,5.8,4.7,10.5,10.5,10.5l0,0c5.8,0,10.5-4.7,10.5-10.5v-9.6"/>
			</g>
			<g id="g1697_1_" transform="translate(314.8579,263.0615)">
				<path id="path1699_1_" class="st7" d="M-183.3-202.1c0,0-5-1.5-8.8-5.7c-2.3-2.5-5.9-3.2-8.9-1.5c-7.6,4.3-21.5,10.2-33.7,4.5
					v-7.5c0-9.8,7.9-17.7,17.7-17.7h10.5c2.3,0,4.6,0.8,6.5,2.2c1.8,1.4,4,2.1,6.2,2.2c5.8,0.1,10.5,4.9,10.5,10.7V-202.1z"/>
			</g>
			<g id="g1701_1_" transform="translate(199.0635,269.2544)">
				<path id="path1703_1_" class="st7" d="M-118.9-211.1v8.3c0,2.8,2.3,5.1,5.1,5.1c0.1,5.4,2.4,10.6,6.5,14.1
					c3.3,2.8,7.9,6.4,14.1,6.4c6.1-0.1,10.8-3.6,14.1-6.4c4.1-3.5,6.4-8.7,6.5-14.1c2.8,0,5.1-2.3,5.1-5.1v-5.5"/>
			</g>
		</g>
		<path class="st8" d="M120.2,167l-3.5-10.8l0,0h0l-1.6-5l-9.8-9.2l-9.1,9.2L91.1,167h9.4l0,0H120.2z"/>
		<path class="st9" d="M135.8,171.5c-1.7-3.7-5.5-6.2-9.8-6.2h-36l-4.4,1.6c-0.6,0-9.3,3.4-9.3,8.7c0,2.1,1.7,3.9,3.9,3.9l51.5-0.4
			c2.1,0,3.9-1.7,3.9-3.9c0-0.8,1.3-0.7,1.1-1.5C136.5,173,136.2,172.2,135.8,171.5L135.8,171.5z"/>
		<path class="st8" d="M136.9,176.1c0,2.1-1.7,3.9-3.9,3.9H78.3c-2.1,0-3.9-1.7-3.9-3.9c0-5.4,3.9-9.9,9.1-10.7
			c0.6-0.1,1.1-0.1,1.7-0.1h4.8l-2.7,3.5c-1.5,2-0.1,5,2.5,5h46.8C136.8,174.5,136.9,175.3,136.9,176.1L136.9,176.1z"/>
		<path class="st10" d="M17.2,127.6V12c-4.3,0-7.7,3.5-7.7,7.7v115.6h2.3h5.4h184.6v-6.2h-183C17.9,129.2,17.2,128.5,17.2,127.6z"/>
		<path class="st9" d="M201.8,135.4v8.1c0,4.3-5.9,6.2-10.2,6.2l-172.5,0.1c-4.3,0-7.7-3.5-7.7-7.7l-1.9-6.6H201.8z"/>
		<g>
			<path class="st8" d="M194.1,154.1H17.2c-5.9,0-10.6-4.8-10.6-10.6V19.8c0-5.9,4.8-10.6,10.6-10.6h176.8c5.9,0,10.6,4.8,10.6,10.6
				v123.7C204.7,149.3,199.9,154.1,194.1,154.1z M17.2,14.9c-2.7,0-4.8,2.2-4.8,4.8v123.7c0,2.7,2.2,4.8,4.8,4.8h176.8
				c2.7,0,4.8-2.2,4.8-4.8V19.8c0-2.7-2.2-4.8-4.8-4.8H17.2z"/>
		</g>
		<g>
			<g id="g1653_2_" transform="translate(474.4365,458.0049)">
				<g id="path1655_2_">
					<path class="st11" d="M-259.4-456.7h-53c-4.8,0-8.7,3.9-8.7,8.7v26.4c0,4.8,3.9,8.7,8.7,8.7h5.7l-6.4,13
						c-0.9,1.8,1.1,3.8,2.9,2.7l27.5-15.8h23.2c4.8,0,8.7-3.9,8.7-8.7v-26.4C-250.7-452.8-254.6-456.7-259.4-456.7"/>
				</g>
			</g>
			<g id="g1661_2_" transform="translate(474.4365,458.0049)">
				<g id="path1663_2_">
					<path class="st12" d="M-259.4-456.7H-272c4.8,0,8.7,3.9,8.7,8.7v26.4c0,4.8-3.9,8.7-8.7,8.7h12.6c4.8,0,8.7-3.9,8.7-8.7v-26.4
						C-250.7-452.8-254.6-456.7-259.4-456.7"/>
				</g>
			</g>
			<g id="g1665_2_" transform="translate(354.4951,420.3716)">
				<g id="path1667_2_">
					<path class="st13" d="M-146.4-403.5H-185c-0.7,0-1.3-0.6-1.3-1.3c0-0.7,0.6-1.3,1.3-1.3h38.6c0.7,0,1.3,0.6,1.3,1.3
						C-145.1-404.1-145.7-403.5-146.4-403.5z"/>
				</g>
			</g>
			<g id="g1669_2_" transform="translate(354.4951,381.6899)">
				<g id="path1671_2_">
					<path class="st13" d="M-165.7-350.1H-185c-0.7,0-1.3-0.6-1.3-1.3c0-0.7,0.6-1.3,1.3-1.3h19.3c0.7,0,1.3,0.6,1.3,1.3
						C-164.4-350.7-165-350.1-165.7-350.1z"/>
				</g>
			</g>
			<g id="g1725_2_" transform="translate(474.4365,458.0049)">
				<g id="path1727_2_">
					<path class="st13" d="M-311.2-395.7c-0.8,0-1.6-0.3-2.3-0.9c-1.1-1-1.4-2.6-0.7-3.9l5.5-11.2h-3.7c-5.5,0-9.9-4.5-9.9-9.9
						v-26.4c0-5.5,4.5-9.9,9.9-9.9h53c5.5,0,9.9,4.5,9.9,9.9v26.4c0,5.5-4.5,9.9-9.9,9.9h-22.9l-27.2,15.6
						C-310-395.8-310.6-395.7-311.2-395.7z M-312.4-455.4c-4.1,0-7.4,3.3-7.4,7.4v26.4c0,4.1,3.3,7.4,7.4,7.4h5.7
						c0.4,0,0.9,0.2,1.1,0.6c0.2,0.4,0.3,0.8,0.1,1.2l-6.4,13c-0.2,0.5,0,0.8,0.2,0.9c0.1,0.1,0.5,0.4,1,0.1l27.5-15.8
						c0.2-0.1,0.4-0.2,0.6-0.2h23.2c4.1,0,7.4-3.3,7.4-7.4v-26.4c0-4.1-3.3-7.4-7.4-7.4H-312.4z"/>
				</g>
			</g>
		</g>
		<g>
			<g id="g1653_1_" transform="translate(474.4365,458.0049)">
				<g id="path1655_1_">
					<path class="st11" d="M-297-372.6c-3.6,0-6.5,2.9-6.5,6.5v19.8c0,3.6,2.9,6.5,6.5,6.5h17.4l20.6,11.8c1.3,0.8,2.9-0.7,2.2-2
						l-4.8-9.8h4.3c3.6,0,6.5-2.9,6.5-6.5v-19.8c0-3.6-2.9-6.5-6.5-6.5H-297"/>
				</g>
			</g>
			<g id="g1661_1_" transform="translate(474.4365,458.0049)">
				<g id="path1663_1_">
					<path class="st12" d="M-297-372.6c-3.6,0-6.5,2.9-6.5,6.5v19.8c0,3.6,2.9,6.5,6.5,6.5h9.4c-3.6,0-6.5-2.9-6.5-6.5v-19.8
						c0-3.6,2.9-6.5,6.5-6.5H-297"/>
				</g>
			</g>
			<g id="g1665_1_" transform="translate(354.4951,420.3716)">
				<g id="path1667_1_">
					<path class="st13" d="M-142.9-323.3h-28.9c-0.5,0-1-0.4-1-1s0.4-1,1-1h28.9c0.5,0,1,0.4,1,1S-142.3-323.3-142.9-323.3z"/>
				</g>
			</g>
			<g id="g1669_1_" transform="translate(354.4951,381.6899)">
				<g id="path1671_1_">
					<path class="st13" d="M-142.9-273.6h-14.5c-0.5,0-1-0.4-1-1s0.4-1,1-1h14.5c0.5,0,1,0.4,1,1S-142.3-273.6-142.9-273.6z"/>
				</g>
			</g>
			<g id="g1725_1_" transform="translate(474.4365,458.0049)">
				<g id="path1727_1_">
					<path class="st13" d="M-258.1-326.8c-0.4,0-0.9-0.1-1.3-0.3l-20.4-11.7H-297c-4.1,0-7.4-3.3-7.4-7.4v-19.8
						c0-4.1,3.3-7.5,7.4-7.5h39.7c4.1,0,7.4,3.3,7.4,7.5v19.8c0,4.1-3.3,7.4-7.4,7.4h-2.7l4.1,8.4c0.5,1,0.3,2.2-0.5,3
						C-256.9-327.1-257.5-326.8-258.1-326.8z M-297-371.7c-3,0-5.5,2.5-5.5,5.5v19.8c0,3,2.5,5.5,5.5,5.5h17.4c0.2,0,0.3,0,0.5,0.1
						l20.6,11.8c0.3,0.2,0.6,0,0.7-0.1c0.1-0.1,0.3-0.3,0.1-0.7l-4.8-9.8c-0.1-0.3-0.1-0.7,0-0.9c0.2-0.3,0.5-0.5,0.8-0.5h4.3
						c3,0,5.5-2.5,5.5-5.5v-19.8c0-3-2.5-5.5-5.5-5.5H-297z"/>
				</g>
			</g>
		</g>
		<path class="st13" d="M92.3,144.1h26.8c1.2,0,2.1-0.9,2.1-2.1c0-1.2-0.9-2.1-2.1-2.1H92.3c-1.2,0-2.1,0.9-2.1,2.1
			C90.2,143.2,91.1,144.1,92.3,144.1z"/>
		<circle class="st14" cx="105.7" cy="11.9" r="1.8"/>
	</g>
	<g id="Layer_x0020_1_1_">
		<g id="_1639424393248_1_">
			<g>
				<circle class="st15" cx="23.1" cy="25.6" r="21.9"/>
				<path class="st13" d="M23.1,5c11.4,0,20.6,9.2,20.6,20.6c0,11.4-9.2,20.6-20.6,20.6S2.6,37,2.6,25.6C2.6,14.2,11.8,5,23.1,5
					 M23.1,2.5C10.4,2.5,0,12.8,0,25.6c0,12.8,10.4,23.1,23.1,23.1s23.1-10.4,23.1-23.1C46.3,12.8,35.9,2.5,23.1,2.5L23.1,2.5z"/>
			</g>
			<path class="st16" d="M12,20.2v8.2c0,1.8,1.5,3.3,3.4,3.3h11.9c0.3,0,0.6-0.3,0.6-0.6v-8.2c0-1.8-1.5-3.3-3.4-3.3H12.6
				C12.3,19.6,12,19.8,12,20.2L12,20.2z M28.6,23.3l4.9-3.6c0.4-0.4,0.8-0.3,0.8,0.4v10.9c0,0.7-0.4,0.6-0.8,0.4l-4.9-3.6V23.3z"/>
		</g>
	</g>
</g>
</svg>
