<svg xmlns="http://www.w3.org/2000/svg" fill="none" viewBox="4 2 1900 65">
<rect x="4" y="2" width="1900" height="65" fill="#FFF7F5"/>
<g filter="url(#filter0_d_3535_2496)">
<path d="M60.9251 24.2471C47.9422 22.7303 36.9566 25.764 28.4678 27.7865C25.8794 28.4032 21.9841 26.8421 18.4771 27.5C12.7832 28.5681 8.49291 30 4 30V2H1904L1904 30C1902.67 30 1899.11 29.2023 1895.51 26.7754C1891.92 24.3484 1884.69 25.7641 1881.53 26.7754H1873.54H1862.06C1861.72 25.7641 1859.66 24.3484 1854.07 26.7754C1847.07 29.8091 1823.11 26.7754 1819.61 25.2585C1816.12 23.7416 1805.63 26.7754 1799.14 26.7754C1792.65 26.7754 1767.68 26.7754 1759.19 29.8091C1752.4 32.2361 1749.7 33.854 1749.2 34.3597C1746.71 31.3259 1733.72 32.3372 1729.23 29.8091C1724.74 27.281 1706.76 26.7754 1702.76 25.2585C1698.77 23.7416 1693.28 25.2585 1687.78 25.2585C1682.29 25.2585 1674.8 28.7978 1670.31 26.7754C1666.71 25.1574 1656.16 25.0899 1651.33 25.2585C1644.84 25.2585 1642.34 23.7416 1630.86 26.7754C1619.37 29.8091 1598.4 23.7416 1595.91 20.7079C1593.41 17.6742 1583.92 20.7079 1579.93 20.7079C1575.93 20.7079 1566.44 21.7192 1561.95 19.191C1557.46 16.6629 1550.47 20.7079 1543.47 19.191C1536.48 17.6742 1530.49 19.191 1522.5 16.663C1516.11 14.6405 1512.52 17.5057 1511.52 19.191C1509.85 19.5281 1504.33 20 1495.54 19.191C1484.55 18.1798 1487.55 25.2585 1477.56 23.7416C1467.57 22.2248 1456.59 25.2585 1452.09 25.2585C1447.6 25.2585 1430.12 29.3034 1428.13 30.8203C1426.13 32.3372 1418.14 34.8652 1415.14 30.8203C1412.15 26.7753 1403.16 27.281 1399.66 25.2585C1396.17 23.236 1388.68 29.3034 1385.68 30.8203C1382.69 32.3372 1379.69 32.3372 1377.69 30.8203C1375.7 29.3034 1372.7 30.8203 1371.2 30.8203C1369.7 30.8203 1365.71 30.8203 1362.21 32.3372C1358.72 33.854 1353.22 36.8877 1348.73 34.8652C1344.24 32.8428 1342.24 34.8652 1336.75 34.8652C1331.25 34.8652 1328.76 38.4046 1327.26 36.8877C1325.76 35.3709 1323.76 34.3596 1318.77 34.8652C1313.78 35.3709 1312.28 34.8652 1308.78 30.8203C1305.29 26.7753 1298.8 30.8203 1297.3 32.3372C1295.8 33.854 1294.8 37.3933 1291.81 36.8877C1288.81 36.3821 1282.32 33.854 1279.32 32.3372C1276.33 30.8203 1274.33 33.3484 1268.34 30.8203C1262.34 28.2922 1261.84 27.281 1257.35 25.2585C1253.76 23.6405 1246.53 21.8876 1243.37 21.2134H1229.89L1225.39 19.191H1222.4L1219.9 21.2134H1206.42C1199.23 24.4493 1186.44 22.5617 1180.95 21.2134C1180.95 19.8651 1177.26 17.9775 1162.48 21.2134C1144 25.2583 1129.52 22.2247 1122.03 21.2134C1114.54 20.2022 1114.54 20.7078 1109.55 21.2134C1105.55 21.6179 1101.89 23.0674 1100.56 23.7415C1098.39 23.4044 1092.07 23.2359 1084.08 25.2584C1074.09 27.7865 1054.12 27.7865 1048.13 25.2584C1043.33 23.2359 1037.47 24.4157 1035.14 25.2584H1021.66C1015.17 25.2584 1010.68 29.3033 1005.18 27.7865C999.69 26.2696 994.197 26.2696 988.205 27.7865C982.213 29.3033 973.225 31.3258 968.731 31.3258C964.236 31.3258 959.742 34.3595 955.748 34.3595C952.552 34.3595 945.761 32.337 942.765 31.3258L932.778 29.3033C930.281 28.7977 924.788 27.4831 922.791 26.2696C920.794 25.0561 917.631 26.7752 916.3 27.7865L908.31 25.2584H904.815H893.829H882.844C881.179 26.1011 877.151 27.7865 874.355 27.7865C871.558 27.7865 866.532 26.1011 864.368 25.2584L859.874 23.7415L848.888 22.2247C846.059 22.7303 840.1 23.7415 838.901 23.7415C837.403 23.7415 834.407 25.2584 831.911 23.7415C829.414 22.2247 824.92 24.2471 822.922 25.2584C821.325 26.0674 817.263 27.2809 815.432 27.7865H807.942C807.276 28.2921 804.846 29.7078 800.452 31.3258C794.959 33.3483 791.464 31.3258 788.967 31.3258H782.975C780.811 31.3258 775.884 30.9213 773.487 29.3033C771.091 27.6853 763.833 28.6292 760.505 29.3033C755.511 31.8314 748.52 31.8314 743.028 34.3595C737.535 36.8876 724.552 36.8876 719.059 36.8876C713.566 36.8876 709.572 34.3595 705.577 34.3595C701.582 34.3595 700.084 34.3595 691.096 35.3708C683.905 36.1798 677.78 36.7191 675.616 36.8876L670.623 38.9101H659.138C654.145 38.9101 652.646 40.427 649.65 40.427C647.254 40.427 643.658 39.4157 642.16 38.9101L639.164 36.8876L635.669 38.9101H633.172C621.687 38.9101 616.694 36.8876 611.201 36.8876C605.708 36.8876 603.212 38.9101 595.222 40.427C587.233 41.9438 572.252 40.427 568.258 38.9101C564.263 37.3932 556.773 34.3595 551.779 34.3595C546.786 34.3595 539.795 38.4045 535.8 40.427C531.805 42.4494 511.332 41.9438 506.838 41.9438C502.344 41.9438 479.374 35.8764 476.378 34.3595C473.382 32.8427 465.892 31.8314 463.895 31.8314C462.297 31.8314 456.571 34.5281 453.908 35.8764C453.242 35.7078 451.511 34.9663 449.913 33.3483C448.315 31.7303 436.93 31.6629 431.438 31.8314L427.942 33.3483C423.947 30.3146 419.953 30.8202 413.961 30.8202C407.968 30.8202 402.476 31.8314 398.481 29.3033C394.486 26.7752 386.497 27.7865 383.501 29.3033C381.104 30.5168 375.178 30.8202 372.515 30.8202L365.025 27.7865C363.527 27.7865 359.532 27.382 355.537 25.764C350.544 23.7415 343.054 29.3033 339.059 27.7865C335.863 26.573 329.405 25.9325 326.576 25.764C311.096 31.3258 301.109 28.7977 297.614 25.764C294.817 23.337 286.129 24.7528 282.134 25.764H270.15C265.156 25.764 257.167 24.2471 254.67 24.2471C252.173 24.2471 241.188 27.7865 230.702 25.764C220.215 23.7415 201.74 25.764 191.753 27.7865C181.766 29.809 166.786 27.7865 163.79 27.7865C160.794 27.7865 157.798 30.8202 155.8 31.8314C154.202 32.6404 152.804 35.2022 152.305 36.382L147.811 33.3483C146.313 32.337 137.824 31.8314 135.827 30.8202C133.829 29.809 122.344 27.7865 118.35 27.7865C114.355 27.7865 107.863 24.2471 105.367 24.2471C102.87 24.2471 100.873 25.764 98.8752 25.764C97.2773 25.764 91.8844 24.7528 89.3876 24.2471C79.4008 26.2696 73.908 25.764 60.9251 24.2471Z" fill="#F9FCFF"/>
</g>
<defs>
<filter id="filter0_d_3535_2496" x="0" y="0" width="1908" height="48" filterUnits="userSpaceOnUse" color-interpolation-filters="sRGB">
<feFlood flood-opacity="0" result="BackgroundImageFix"/>
<feColorMatrix in="SourceAlpha" type="matrix" values="0 0 0 0 0 0 0 0 0 0 0 0 0 0 0 0 0 0 127 0" result="hardAlpha"/>
<feOffset dy="2"/>
<feGaussianBlur stdDeviation="2"/>
<feComposite in2="hardAlpha" operator="out"/>
<feColorMatrix type="matrix" values="0 0 0 0 0 0 0 0 0 0 0 0 0 0 0 0 0 0 0.1 0"/>
<feBlend mode="normal" in2="BackgroundImageFix" result="effect1_dropShadow_3535_2496"/>
<feBlend mode="normal" in="SourceGraphic" in2="effect1_dropShadow_3535_2496" result="shape"/>
</filter>
</defs>
</svg>