<svg xmlns="http://www.w3.org/2000/svg" fill="none" viewBox="4 1 1903 65">
<rect x="4" y="1" width="1903" height="65" fill="#FFF7F5"/>
<g filter="url(#filter0_d_3535_2496)">
<path d="M28.5 26.4999C21.7 28.0999 9.33333 23.4999 4 20.9999V1H1906.5V28.5C1905.17 28.5 1901.6 27.9 1898 25.5C1894.4 23.1 1887.17 24.5 1884 25.5H1876H1864.5C1864.17 24.5 1862.1 23.1 1856.5 25.5C1849.5 28.5 1825.5 25.5 1822 24C1818.5 22.4999 1808 25.5 1801.5 25.5C1795 25.5 1770 25.5 1761.5 28.5C1754.7 30.9 1752 32.5 1751.5 33C1749 30 1736 31 1731.5 28.5C1727 26 1709 25.5 1705 24C1701 22.4999 1695.5 24 1690 24C1684.5 24 1677 27.5 1672.5 25.5C1668.9 23.9 1658.33 23.8333 1653.5 24C1647 24 1644.5 22.5 1633 25.5C1621.5 28.5 1600.5 22.5 1598 19.5C1595.5 16.5 1586 19.5 1582 19.5C1578 19.5 1568.5 20.5 1564 18C1559.5 15.4999 1552.5 19.5 1545.5 18C1538.5 16.4999 1532.5 18 1524.5 15.5C1518.1 13.5 1514.5 16.3333 1513.5 18C1511.83 18.3333 1506.3 18.8 1497.5 18C1486.5 17 1489.5 24 1479.5 22.5C1469.5 21 1458.5 24 1454 24C1449.5 24 1432 28 1430 29.5C1428 31 1420 33.5 1417 29.5C1414 25.5 1405 26 1401.5 24C1398 22 1390.5 28 1387.5 29.5C1384.5 31 1381.5 31 1379.5 29.5C1377.5 28 1374.5 29.5 1373 29.5C1371.5 29.5 1367.5 29.5 1364 31C1360.5 32.5 1355 35.5 1350.5 33.5C1346 31.5 1344 33.5 1338.5 33.5C1333 33.5 1330.5 37 1329 35.5C1327.5 34 1325.5 33 1320.5 33.5C1315.5 34 1314 33.5 1310.5 29.5C1307 25.5 1300.5 29.5 1299 31C1297.5 32.5 1296.5 36 1293.5 35.5C1290.5 35 1284 32.5 1281 31C1278 29.5 1276 32 1270 29.5C1264 27 1263.5 26 1259 24C1255.4 22.4 1248.17 20.6666 1245 19.9999H1231.5L1227 18H1224L1221.5 19.9999H1208C1200.8 23.1998 1188 21.3332 1182.5 19.9999C1182.5 18.6666 1178.8 16.7999 1164 19.9999C1145.5 23.9998 1131 20.9999 1123.5 19.9999C1116 18.9999 1116 19.4999 1111 19.9999C1107 20.3999 1103.33 21.8332 1102 22.4999C1099.83 22.1665 1093.5 21.9999 1085.5 23.9999C1075.5 26.4999 1055.5 26.4999 1049.5 23.9999C1044.7 21.9999 1038.83 23.1665 1036.5 23.9999H1023C1016.5 23.9999 1012 27.9999 1006.5 26.4999C1001 24.9999 995.5 24.9999 989.5 26.4999C983.5 27.9999 974.5 29.9999 970 29.9999C965.5 29.9999 961 32.9999 957 32.9999C953.8 32.9999 947 30.9999 944 29.9999L934 27.9999C931.5 27.4999 926 26.1999 924 24.9999C922 23.7999 918.833 25.4999 917.5 26.4999L909.5 23.9999H906H895H884C882.333 24.8332 878.3 26.4999 875.5 26.4999C872.7 26.4999 867.667 24.8332 865.5 23.9999L861 22.4999L850 20.9999C847.167 21.4999 841.2 22.4999 840 22.4999C838.5 22.4999 835.5 23.9999 833 22.4999C830.5 20.9999 826 22.9999 824 23.9999C822.4 24.7999 818.333 25.9999 816.5 26.4999H809C808.333 26.9999 805.9 28.3999 801.5 29.9999C796 31.9999 792.5 29.9999 790 29.9999H784C781.833 29.9999 776.9 29.5999 774.5 27.9999C772.1 26.3999 764.833 27.3332 761.5 27.9999C756.5 30.4999 749.5 30.4999 744 32.9999C738.5 35.4999 725.5 35.4999 720 35.4999C714.5 35.4999 710.5 32.9999 706.5 32.9999C702.5 32.9999 701 32.9999 692 33.9999C684.8 34.7999 678.667 35.3332 676.5 35.4999L671.5 37.4999H660C655 37.4999 653.5 38.9999 650.5 38.9999C648.1 38.9999 644.5 37.9999 643 37.4999L640 35.4999L636.5 37.4999H634C622.5 37.4999 617.5 35.4999 612 35.4999C606.5 35.4999 604 37.4999 596 38.9999C588 40.4999 573 38.9999 569 37.4999C565 35.9999 557.5 32.9999 552.5 32.9999C547.5 32.9999 540.5 36.9999 536.5 38.9999C532.5 40.9999 512 40.4999 507.5 40.4999C503 40.4999 480 34.4999 477 32.9999C474 31.4999 466.5 30.4999 464.5 30.4999C462.9 30.4999 457.167 33.1665 454.5 34.4999C453.833 34.3332 452.1 33.5999 450.5 31.9999C448.9 30.3999 437.5 30.3332 432 30.4999L428.5 31.9999C424.5 28.9999 420.5 29.4999 414.5 29.4999C408.5 29.4999 403 30.4999 399 27.9999C395 25.4999 387 26.4999 384 27.9999C381.6 29.1999 375.667 29.4999 373 29.4999L365.5 26.4999C364 26.4999 360 26.0999 356 24.4999C351 22.4999 343.5 27.9999 339.5 26.4999C336.3 25.2999 329.833 24.6665 327 24.4999C311.5 29.9999 301.5 27.4999 298 24.4999C295.2 22.0999 286.5 23.4999 282.5 24.4999H270.5C265.5 24.4999 257.5 22.9999 255 22.9999C252.5 22.9999 241.5 26.4999 231 24.4999C220.5 22.4999 202 24.4999 192 26.4999C182 28.4999 167 26.4999 164 26.4999C161 26.4999 158 29.4999 156 30.4999C154.4 31.2999 153 33.8332 152.5 34.9999L148 31.9999C146.5 30.9999 138 30.4999 136 29.4999C134 28.4999 122.5 26.4999 118.5 26.4999C114.5 26.4999 108 22.9999 105.5 22.9999C103 22.9999 101 24.4999 99 24.4999C97.4 24.4999 92 23.4999 89.5 22.9999C79.5 24.9999 74 24.4999 61 22.9999C48 21.4999 37 24.4999 28.5 26.4999Z" fill="white"/>
</g>
<defs>
<filter id="filter0_d_3535_2496" x="0" y="0" width="1910.5" height="47.5554" filterUnits="userSpaceOnUse" color-interpolation-filters="sRGB">
<feFlood flood-opacity="0" result="BackgroundImageFix"/>
<feColorMatrix in="SourceAlpha" type="matrix" values="0 0 0 0 0 0 0 0 0 0 0 0 0 0 0 0 0 0 127 0" result="hardAlpha"/>
<feOffset dy="3"/>
<feGaussianBlur stdDeviation="2"/>
<feComposite in2="hardAlpha" operator="out"/>
<feColorMatrix type="matrix" values="0 0 0 0 0 0 0 0 0 0 0 0 0 0 0 0 0 0 0.1 0"/>
<feBlend mode="normal" in2="BackgroundImageFix" result="effect1_dropShadow_3535_2496"/>
<feBlend mode="normal" in="SourceGraphic" in2="effect1_dropShadow_3535_2496" result="shape"/>
</filter>
</defs>
</svg>