<?xml version="1.0" encoding="utf-8"?>
<!-- Generator: Adobe Illustrator 25.0.0, SVG Export Plug-In . SVG Version: 6.00 Build 0)  -->
<svg version="1.1" id="Layer_1" xmlns="http://www.w3.org/2000/svg" xmlns:xlink="http://www.w3.org/1999/xlink" x="0px" y="0px"
	 viewBox="0 0 56 56" style="enable-background:new 0 0 56 56;" xml:space="preserve">
<style type="text/css">
	.st0{fill:#FFFFFF;}
	.st1{fill:#FAB365;}
	.st2{fill:#E5A25A;}
	.st3{fill:#44C7F4;}
	.st4{fill:#2DB9EB;}
	.st5{fill:#DDDDDC;}
	.st6{fill:#35414D;}
</style>
<g>
	<circle class="st0" cx="34.6" cy="34.6" r="6.1"/>
	<g>
		<g>
			<g>
				<g>
					<g>
						<g>
							<path class="st1" d="M45.9,31.7L45.9,31.7c-0.6,0-1.1-0.4-1.3-0.9c-0.1-0.2-0.2-0.4-0.3-0.6c-0.2-0.5-0.1-1.2,0.3-1.6h0
								c0.5-0.5,0.5-1.4,0-2l-2.1-2.1c-0.5-0.5-1.4-0.5-2,0l0,0c-0.4,0.4-1.1,0.5-1.6,0.3c-0.2-0.1-0.4-0.2-0.6-0.3
								c-0.6-0.2-0.9-0.7-0.9-1.3c0-0.4-0.2-0.7-0.4-1c-0.3-0.3-0.6-0.4-1-0.4h-2.9c-0.8,0-1.4,0.6-1.4,1.4c0,0.6-0.4,1.1-0.9,1.3
								c-0.2,0.1-0.4,0.2-0.6,0.3c-0.5,0.2-1.2,0.1-1.6-0.3c-0.3-0.3-0.6-0.4-1-0.4c-0.4,0-0.7,0.1-1,0.4l-2.1,2.1
								c-0.5,0.5-0.5,1.4,0,2l0,0c0.4,0.4,0.5,1.1,0.3,1.6c-0.1,0.2-0.2,0.4-0.3,0.6c-0.2,0.6-0.7,0.9-1.3,0.9h0
								c-0.8,0-1.4,0.6-1.4,1.4V36c0,0.8,0.6,1.4,1.4,1.4h0c0.6,0,1.1,0.4,1.3,0.9c0.1,0.2,0.2,0.4,0.3,0.6c0.2,0.5,0.1,1.2-0.3,1.6
								c-0.3,0.3-0.4,0.6-0.4,1c0,0.4,0.1,0.7,0.4,1l2.1,2.1c0.5,0.5,1.4,0.5,2,0v0c0.4-0.4,1.1-0.5,1.6-0.3
								c0.2,0.1,0.4,0.2,0.6,0.3c0.6,0.2,0.9,0.7,0.9,1.3v0c0,0.8,0.6,1.4,1.4,1.4H36c0.8,0,1.4-0.6,1.4-1.4v0
								c0-0.6,0.4-1.1,0.9-1.3c0.2-0.1,0.4-0.2,0.6-0.3c0.5-0.2,1.2-0.1,1.6,0.3l0,0c0.5,0.5,1.4,0.5,2,0l2.1-2.1
								c0.5-0.5,0.5-1.4,0-2c-0.3-0.3-0.4-0.6-0.4-1c0-0.2,0-0.4,0.1-0.6c0.1-0.2,0.2-0.4,0.3-0.6c0.2-0.6,0.7-0.9,1.3-0.9h0
								c0.8,0,1.4-0.6,1.4-1.4v-2.9C47.3,32.3,46.7,31.7,45.9,31.7L45.9,31.7z M34.6,40.6c-3.4,0-6.1-2.7-6.1-6.1
								c0-3.4,2.7-6.1,6.1-6.1c3.4,0,6.1,2.7,6.1,6.1C40.6,37.9,37.9,40.6,34.6,40.6z"/>
						</g>
					</g>
				</g>
				<g>
					<g>
						<g>
							<path class="st2" d="M47.3,33.1V36c0,0.8-0.6,1.4-1.4,1.4h0c-0.6,0-1.1,0.4-1.3,0.9c-0.1,0.2-0.2,0.4-0.3,0.6
								c-0.1,0.2-0.1,0.4-0.1,0.6c0,0.4,0.1,0.7,0.4,1c0.5,0.5,0.5,1.4,0,2l-2.1,2.1c-0.5,0.5-1.4,0.5-2,0l0,0
								c-0.4-0.4-1-0.5-1.6-0.3c-0.2,0.1-0.4,0.2-0.6,0.3c-0.6,0.2-0.9,0.7-0.9,1.3v0c0,0.8-0.6,1.4-1.4,1.4h-2.9
								c-0.8,0-1.4-0.6-1.4-1.4v0c0-0.2-0.1-0.5-0.2-0.7h2.4c0.8,0,1.4-0.6,1.4-1.4v0c0-0.6,0.4-1.1,0.9-1.3
								c0.2-0.1,0.4-0.2,0.6-0.3c0.5-0.2,1.2-0.1,1.6,0.3l0,0c0.5,0.5,1.4,0.5,2,0l2.1-2.1c0.5-0.5,0.5-1.4,0-2
								c-0.3-0.3-0.4-0.6-0.4-1c0-0.2,0-0.4,0.1-0.6c0.1-0.2,0.2-0.4,0.3-0.6c0.2-0.6,0.7-0.9,1.3-0.9h0c0.8,0,1.4-0.6,1.4-1.4v-2.4
								c0.2,0.1,0.4,0.2,0.6,0.2h0C46.7,31.7,47.3,32.3,47.3,33.1z"/>
						</g>
					</g>
				</g>
			</g>
		</g>
		<g>
			<g>
				<g>
					<g>
						<g>
							<g>
								<path class="st3" d="M37.4,20.4L37.4,20.4c-0.7,0-1.3-0.4-1.6-1.1c-0.1-0.3-0.2-0.5-0.3-0.8c-0.3-0.6-0.2-1.4,0.3-1.9h0
									c0.7-0.7,0.7-1.7,0-2.4l-2.4-2.4c-0.7-0.7-1.7-0.7-2.4,0l0,0c-0.5,0.5-1.3,0.6-1.9,0.3c-0.2-0.1-0.5-0.2-0.8-0.3
									c-0.7-0.2-1.1-0.9-1.1-1.6c0-0.5-0.2-0.9-0.5-1.2c-0.3-0.3-0.7-0.5-1.2-0.5h-3.5c-0.9,0-1.7,0.7-1.7,1.7
									c0,0.7-0.4,1.3-1.1,1.6c-0.3,0.1-0.5,0.2-0.8,0.3c-0.6,0.3-1.4,0.2-1.9-0.3c-0.3-0.3-0.8-0.5-1.2-0.5
									c-0.4,0-0.8,0.2-1.2,0.5l-2.5,2.5c-0.7,0.7-0.7,1.7,0,2.4l0,0c0.5,0.5,0.6,1.3,0.3,1.9c-0.1,0.2-0.2,0.5-0.3,0.7
									c-0.3,0.7-0.9,1.1-1.6,1.1h0c-0.9,0-1.7,0.7-1.7,1.7v3.5c0,0.9,0.7,1.7,1.7,1.7h0c0.7,0,1.3,0.4,1.6,1.1
									c0.1,0.3,0.2,0.5,0.3,0.8c0.3,0.6,0.2,1.4-0.3,1.9c-0.3,0.3-0.5,0.8-0.5,1.2c0,0.4,0.2,0.9,0.5,1.2l2.4,2.4
									c0.7,0.6,1.7,0.6,2.4,0v0c0.5-0.5,1.3-0.6,1.9-0.3c0.3,0.1,0.5,0.2,0.8,0.3c0.7,0.3,1.1,0.9,1.1,1.6v0
									c0,0.9,0.7,1.7,1.7,1.7h3.5c0.9,0,1.7-0.7,1.7-1.7v0c0-0.7,0.4-1.3,1.1-1.6c0.3-0.1,0.5-0.2,0.8-0.3
									c0.6-0.3,1.4-0.2,1.9,0.3l0,0c0.7,0.6,1.7,0.6,2.4,0l2.4-2.4c0.7-0.7,0.7-1.7,0-2.4c-0.3-0.3-0.5-0.7-0.5-1.2
									c0-0.2,0.1-0.5,0.2-0.7c0.1-0.3,0.2-0.5,0.3-0.8c0.2-0.7,0.9-1.1,1.6-1.1h0c0.9,0,1.7-0.7,1.7-1.7v-3.5
									C39,21.2,38.3,20.4,37.4,20.4L37.4,20.4z"/>
							</g>
						</g>
					</g>
					<g>
						<g>
							<g>
								<path class="st4" d="M39,22.1v3.5c0,0.9-0.7,1.7-1.7,1.7h0c-0.7,0-1.3,0.4-1.6,1.1c-0.1,0.3-0.2,0.5-0.3,0.8
									c-0.1,0.2-0.2,0.5-0.2,0.7c0,0.4,0.2,0.9,0.5,1.2c0.7,0.7,0.7,1.7,0,2.4l-2.4,2.4c-0.7,0.6-1.7,0.6-2.4,0l0,0
									c-0.5-0.5-1.2-0.6-1.9-0.3c-0.3,0.1-0.5,0.2-0.8,0.3c-0.7,0.2-1.1,0.9-1.1,1.6v0c0,0.9-0.7,1.7-1.7,1.7h-3.5
									c-0.9,0-1.7-0.7-1.7-1.7v0c0-0.3-0.1-0.5-0.2-0.8h2.9c0.9,0,1.7-0.7,1.7-1.7v0c0-0.7,0.4-1.3,1.1-1.6
									c0.3-0.1,0.5-0.2,0.8-0.3c0.6-0.3,1.4-0.2,1.9,0.3l0,0c0.7,0.6,1.7,0.6,2.4,0l2.4-2.4c0.7-0.7,0.7-1.7,0-2.4
									c-0.3-0.3-0.5-0.7-0.5-1.2c0-0.2,0.1-0.5,0.2-0.7c0.1-0.3,0.2-0.5,0.3-0.8c0.2-0.7,0.9-1.1,1.6-1.1h0c0.9,0,1.7-0.7,1.7-1.7
									v-2.9c0.2,0.1,0.5,0.2,0.8,0.2h0C38.3,20.4,39,21.2,39,22.1L39,22.1z"/>
							</g>
						</g>
					</g>
				</g>
			</g>
			<g>
				<g>
					<g>
						<g>
							<path class="st0" d="M32.3,23.9c0,1.6-0.4,3.1-1.2,4.4c-0.1,0.2-0.2,0.3-0.3,0.4c-0.1,0.2-0.3,0.4-0.4,0.5
								c-1.6,1.9-3.9,3.1-6.6,3.1s-5-1.2-6.6-3.1c-0.1-0.2-0.3-0.4-0.4-0.5c-0.1-0.1-0.2-0.3-0.3-0.4c-0.8-1.3-1.2-2.8-1.2-4.4
								c0-4.7,3.8-8.5,8.5-8.5S32.3,19.2,32.3,23.9z"/>
						</g>
					</g>
				</g>
				<g>
					<g>
						<g>
							<path class="st5" d="M27.1,21.7c0,1.8-1.4,3.2-3.2,3.2c-1.8,0-3.2-1.4-3.2-3.2c0-1.8,1.4-3.2,3.2-3.2
								C25.6,18.5,27.1,19.9,27.1,21.7z"/>
						</g>
					</g>
				</g>
				<g>
					<g>
						<g>
							<path class="st5" d="M30.4,29.2c-1.6,1.9-3.9,3.1-6.6,3.1s-5-1.2-6.6-3.1c1.5-2,3.9-3.3,6.6-3.3S28.9,27.2,30.4,29.2z"/>
						</g>
					</g>
				</g>
				<g>
					<path class="st6" d="M45.9,31c-0.3,0-0.6-0.2-0.7-0.5c-0.1-0.2-0.2-0.5-0.3-0.7c-0.1-0.3-0.1-0.6,0.1-0.8l0.1,0
						c0.4-0.4,0.6-0.9,0.6-1.5c0-0.6-0.2-1.1-0.6-1.5L43,24c-0.4-0.4-0.9-0.6-1.5-0.6c-0.5,0-1,0.2-1.4,0.5c0,0,0,0-0.1,0
						c-0.1,0.1-0.1,0.1-0.2,0.1l-0.2,0.1v-2.1c0-1.3-1-2.3-2.3-2.3c-0.4,0-0.8-0.3-1-0.7c-0.1-0.3-0.2-0.6-0.3-0.8
						c-0.2-0.4-0.1-0.8,0.1-1.1l0,0c0,0,0,0,0.1,0c0.9-0.9,0.9-2.4,0-3.3l-2.4-2.4c-0.4-0.4-1-0.7-1.6-0.7c-0.6,0-1.2,0.2-1.6,0.6
						c0,0,0,0-0.1,0.1c-0.2,0.2-0.4,0.3-0.7,0.3c-0.2,0-0.3,0-0.4-0.1c-0.3-0.1-0.6-0.2-0.8-0.3c-0.4-0.2-0.7-0.5-0.7-1
						c0-0.6-0.2-1.2-0.7-1.6c-0.4-0.4-1-0.7-1.6-0.7h-3.5c-1.3,0-2.3,1-2.3,2.3c0,0.4-0.3,0.8-0.7,1c-0.3,0.1-0.5,0.2-0.8,0.3
						c-0.4,0.2-0.9,0.1-1.2-0.2c-0.4-0.4-1-0.7-1.6-0.7c-0.6,0-1.2,0.2-1.6,0.7l-2.5,2.4c-0.4,0.4-0.7,1-0.7,1.6
						c0,0.6,0.2,1.2,0.7,1.7c0.3,0.3,0.4,0.8,0.2,1.2c-0.1,0.2-0.2,0.5-0.3,0.8c-0.2,0.4-0.5,0.7-1,0.7c-1.3,0-2.3,1-2.3,2.3v3.5
						c0,1.3,1,2.3,2.3,2.3c0.4,0,0.8,0.3,1,0.7c0.1,0.2,0.2,0.5,0.3,0.8c0.2,0.4,0.1,0.9-0.2,1.2c-0.4,0.4-0.7,1-0.7,1.6
						c0,0.6,0.2,1.2,0.7,1.6l2.4,2.4c0.4,0.4,1,0.7,1.6,0.7c0.6,0,1.2-0.2,1.6-0.7c0,0,0,0,0,0l0,0c0.3-0.3,0.7-0.3,1.1-0.1
						c0.2,0.1,0.5,0.2,0.8,0.3c0.4,0.2,0.7,0.5,0.7,1c0,1.3,1,2.3,2.3,2.3h2.2l-0.1,0.2c0,0.1-0.1,0.1-0.1,0.2
						c-0.4,0.4-0.6,0.9-0.6,1.5c0,0.6,0.2,1.1,0.6,1.5l2.1,2.1c0.4,0.4,0.9,0.6,1.5,0.6c0.6,0,1.1-0.2,1.5-0.6l0,0
						c0.2-0.2,0.5-0.2,0.9-0.1c0.2,0.1,0.4,0.2,0.6,0.3c0.3,0.1,0.5,0.4,0.5,0.7c0,1.1,0.9,2.1,2.1,2.1H36c1.1,0,2.1-0.9,2.1-2.1
						c0-0.3,0.2-0.6,0.5-0.7c0.2-0.1,0.4-0.2,0.7-0.3c0.3-0.1,0.6-0.1,0.9,0.1c0.4,0.4,0.9,0.6,1.5,0.6c0.6,0,1.1-0.2,1.5-0.6
						l2.1-2.1c0.8-0.8,0.8-2.1,0-2.9c-0.1-0.1-0.2-0.3-0.2-0.5c0-0.1,0-0.2,0.1-0.3c0.1-0.2,0.2-0.4,0.3-0.7
						c0.1-0.3,0.4-0.5,0.7-0.5c1.1,0,2.1-0.9,2.1-2.1v-2.9C48,32,47.1,31,45.9,31z M44,38.1c-0.1,0.2-0.2,0.4-0.3,0.6
						c-0.1,0.3-0.2,0.6-0.2,0.9c0,0.5,0.2,1.1,0.6,1.4c0.1,0.1,0.2,0.3,0.2,0.5c0,0.2-0.1,0.4-0.2,0.5l-2.1,2.1
						c-0.1,0.1-0.3,0.2-0.5,0.2c-0.2,0-0.4-0.1-0.5-0.2c-0.4-0.4-0.9-0.6-1.5-0.6c-0.3,0-0.6,0.1-0.9,0.2c-0.2,0.1-0.4,0.2-0.5,0.2
						l-0.1,0c-0.8,0.3-1.4,1.1-1.4,1.9c0,0.4-0.3,0.7-0.7,0.7h-2.9c-0.4,0-0.7-0.3-0.7-0.8c0-0.9-0.5-1.6-1.4-1.9
						c-0.2-0.1-0.4-0.1-0.5-0.2l-0.1,0c-0.3-0.1-0.6-0.2-0.9-0.2c-0.5,0-1.1,0.2-1.4,0.6l0,0c-0.1,0.1-0.3,0.2-0.5,0.2
						c-0.2,0-0.4-0.1-0.5-0.2L25,42.1c-0.2-0.2-0.2-0.4-0.2-0.5c0-0.2,0.1-0.4,0.2-0.5c0.3-0.3,0.5-0.7,0.6-1.2l0-0.1l0.1,0
						c1.2-0.1,2.2-1.1,2.2-2.3c0-0.1,0-0.3,0.1-0.4l0.2-0.3l0.1,0.3c1,2.6,3.5,4.3,6.3,4.3c3.7,0,6.7-3,6.7-6.7
						c0-2.8-1.7-5.3-4.3-6.3l-0.3-0.1l0.3-0.2c0.2-0.1,0.3-0.1,0.4-0.1c1.2,0,2.2-1,2.3-2.2l0-0.1l0.1,0c0.5-0.1,0.9-0.2,1.2-0.5
						c0,0,0,0,0.1,0c0.1-0.1,0.3-0.2,0.5-0.2c0.2,0,0.4,0.1,0.5,0.2l2.1,2.1c0.1,0.1,0.2,0.3,0.2,0.5c0,0.2-0.1,0.3-0.2,0.5
						l-0.1,0.1c-0.6,0.6-0.8,1.5-0.4,2.3c0.1,0.2,0.2,0.4,0.2,0.6c0.3,0.8,1.1,1.4,1.9,1.4c0.4,0,0.7,0.3,0.7,0.8V36
						c0,0.4-0.3,0.8-0.8,0.8C45.1,36.8,44.3,37.3,44,38.1z M16.2,35.3L16.2,35.3C16.2,35.4,16.2,35.4,16.2,35.3L16.2,35.3
						c-0.2,0.2-0.5,0.3-0.7,0.3c-0.3,0-0.5-0.1-0.7-0.3l-2.4-2.4c-0.2-0.2-0.3-0.4-0.3-0.7c0-0.2,0.1-0.5,0.3-0.7
						c0.7-0.7,0.9-1.7,0.5-2.6c-0.1-0.2-0.2-0.4-0.3-0.7c-0.3-0.9-1.2-1.5-2.2-1.5c-0.6,0-1-0.5-1-1v-3.5c0-0.6,0.5-1,1-1
						c1,0,1.8-0.6,2.2-1.5c0.1-0.2,0.2-0.5,0.3-0.7c0.4-0.9,0.2-1.9-0.5-2.6C12.1,16,12,15.8,12,15.5s0.1-0.5,0.3-0.7l2.4-2.4
						c0.2-0.2,0.4-0.3,0.7-0.3c0.3,0,0.5,0.1,0.7,0.3c0.4,0.4,1,0.7,1.6,0.7c0.3,0,0.7-0.1,1-0.2c0.2-0.1,0.5-0.2,0.7-0.3
						c0.9-0.3,1.5-1.2,1.5-2.2c0-0.6,0.5-1,1-1h3.5c0.3,0,0.5,0.1,0.7,0.3c0.1,0.1,0.3,0.4,0.3,0.7c0,1,0.6,1.8,1.5,2.2
						c0.2,0.1,0.5,0.2,0.7,0.3c0.3,0.1,0.6,0.2,1,0.2c0.6,0,1.2-0.2,1.6-0.6c0,0,0,0,0.1-0.1c0.2-0.2,0.4-0.3,0.7-0.3
						c0.3,0,0.5,0.1,0.7,0.3l2.4,2.4c0.4,0.4,0.4,1,0,1.4c0,0,0,0-0.1,0c-0.7,0.7-0.9,1.7-0.5,2.6c0.1,0.2,0.2,0.5,0.3,0.7
						c0.3,0.9,1.2,1.5,2.2,1.5c0.6,0,1,0.5,1,1v3.5c0,0.6-0.5,1-1,1c-1,0-1.8,0.6-2.2,1.5c-0.1,0.3-0.2,0.5-0.3,0.7
						c-0.1,0.3-0.2,0.6-0.2,1c0,0.6,0.2,1.2,0.7,1.6c0.2,0.2,0.3,0.4,0.3,0.7c0,0.3-0.1,0.5-0.3,0.7l-2.4,2.4
						c-0.2,0.2-0.4,0.3-0.7,0.3c-0.3,0-0.5-0.1-0.7-0.3c-0.4-0.4-1-0.7-1.6-0.7c-0.3,0-0.7,0.1-1,0.2c-0.2,0.1-0.5,0.2-0.7,0.3
						c-0.9,0.3-1.5,1.2-1.5,2.2c0,0.6-0.5,1-1,1h-3.5c-0.6,0-1-0.5-1-1c0-1-0.6-1.8-1.5-2.2c-0.2-0.1-0.5-0.2-0.7-0.3
						c-0.3-0.1-0.7-0.2-1-0.2C17.2,34.7,16.7,34.9,16.2,35.3z M37,32.2c0-0.6-0.2-1.2-0.7-1.6c-0.2-0.2-0.3-0.4-0.3-0.7
						c0-0.1,0-0.2,0.1-0.3l0.1-0.2l0.1,0c2.2,0.7,3.7,2.8,3.7,5.1c0,3-2.4,5.4-5.4,5.4c-2.3,0-4.4-1.5-5.1-3.8l0-0.1l0.1,0
						c0.1,0,0.2,0,0.3,0c0.3,0,0.5,0.1,0.7,0.3c0.4,0.4,1,0.7,1.6,0.7c0.6,0,1.2-0.2,1.6-0.7l2.4-2.4C36.7,33.4,37,32.8,37,32.2z"/>
					<path class="st6" d="M31.7,28.6c0.8-1.4,1.3-3,1.3-4.7c0-5-4.1-9.1-9.1-9.1c-5,0-9.1,4.1-9.1,9.1c0,1.7,0.4,3.3,1.3,4.7
						c1.7,2.8,4.6,4.4,7.8,4.4C27.1,33,30,31.3,31.7,28.6z M30.6,27.9c-1.4,2.4-4,3.8-6.7,3.8s-5.3-1.4-6.7-3.8
						c-0.7-1.2-1.1-2.6-1.1-4c0-4.3,3.5-7.8,7.8-7.8c4.3,0,7.8,3.5,7.8,7.8C31.7,25.3,31.3,26.7,30.6,27.9z"/>
				</g>
			</g>
		</g>
	</g>
</g>
</svg>
