<?xml version="1.0" encoding="utf-8"?>
<!-- Generator: Adobe Illustrator 25.0.0, SVG Export Plug-In . SVG Version: 6.00 Build 0)  -->
<svg version="1.1" id="Layer_1" xmlns="http://www.w3.org/2000/svg" xmlns:xlink="http://www.w3.org/1999/xlink" x="0px" y="0px"
	 viewBox="0 0 56 56" style="enable-background:new 0 0 56 56;" xml:space="preserve">
<style type="text/css">
	.st0{fill:#BAC4D3;}
	.st1{fill:#DFEBF7;}
	.st2{fill:#B5DAFF;}
	.st3{fill:#8EB6FF;}
	.st4{fill:#E78251;}
	.st5{fill:#EA426A;}
	.st6{fill:#FF5D5D;}
	.st7{fill:#FEB166;}
	.st8{fill:#35414D;}
</style>
<g>
	<g>
		<path class="st0" d="M8.8,15.5h38.3v31.6H8.8L8.8,15.5z"/>
	</g>
	<g>
		<path class="st1" d="M42.9,44.5L8.8,46.3V15.5h38.3L42.9,44.5z"/>
	</g>
	<g>
		<path class="st2" d="M9.9,8.9h36.3c0.6,0,1,0.4,1,0.8v5.8l0,0H8.8l0,0V9.7C8.8,9.2,9.3,8.9,9.9,8.9L9.9,8.9z"/>
	</g>
	<g>
		<path class="st3" d="M47.1,15.5H10.5l0.9-3.5c0.1-0.4,0.5-0.7,1-0.7l34.7-0.8L47.1,15.5z"/>
	</g>
	<g>
		<path class="st4" d="M21.9,32.9l-3.1,9.3l9.3-3.1L21.9,32.9z"/>
	</g>
	<g>
		<path class="st4" d="M21.9,32.9l16.7-16.7l6.2,6.2L28.1,39.1L21.9,32.9z"/>
	</g>
	<g>
		<path class="st5" d="M46.6,18.1l-3.7-3.7c-0.7-0.7-1.8-0.7-2.5,0c0,0,0,0,0,0l-1.9,1.9l6.2,6.2l1.9-1.9
			C47.3,19.9,47.3,18.8,46.6,18.1C46.6,18.1,46.6,18.1,46.6,18.1L46.6,18.1z"/>
	</g>
	<g>
		<path class="st6" d="M45.2,16.8l-2.4-2.4c-0.7-0.7-1.8-0.7-2.5,0c0,0,0,0,0,0l-1.8,1.9l4.8,4.8l1.9-1.9
			C45.9,18.5,45.9,17.4,45.2,16.8C45.3,16.8,45.3,16.8,45.2,16.8L45.2,16.8z"/>
	</g>
	<g>
		<path class="st7" d="M21.9,32.9L19,41.5l7.7-3.9L21.9,32.9z"/>
	</g>
	<g>
		<path class="st7" d="M21.9,32.9l16.7-16.7l4.8,4.8L26.7,37.7L21.9,32.9z"/>
	</g>
	<path class="st8" d="M48,19.3c0-0.7-0.3-1.3-0.8-1.8l-3.7-3.7C43,13.3,42.3,13,41.6,13c0,0,0,0,0,0c-0.7,0-1.4,0.3-1.8,0.8
		l-1.7,1.7c0,0-0.1,0-0.1,0.1L21.3,32.2c0,0,0,0,0,0l0,0c-0.1,0.1-0.2,0.2-0.2,0.3c0,0,0,0,0,0L18,41.9c0,0.1,0,0.2,0,0.3
		c0,0.2,0.1,0.5,0.2,0.6c0.2,0.2,0.4,0.3,0.6,0.3h0h0c0.1,0,0.2,0,0.3,0l9.3-3.1c0,0,0,0,0,0c0.1,0,0.1-0.1,0.2-0.1c0,0,0,0,0,0
		c0,0,0.1,0,0.1-0.1L45.3,23c0,0,0,0,0-0.1l1.8-1.8C47.7,20.7,48,20,48,19.3z M26.5,38.7l-6.3,2.1l2.1-6.3l3.2,3.2L26.5,38.7z
		 M39.8,16.2L41,15c0.3-0.3,0.9-0.3,1.2,0l3.7,3.7c0.3,0.3,0.3,0.9,0,1.2l-1.2,1.2L39.8,16.2z M40.4,19.3L25,34.7l-1.9-1.9
		l15.4-15.4L40.4,19.3z M26.2,36l15.4-15.4l1.9,1.9L28.1,37.8L26.2,36z"/>
	<path class="st8" d="M47.2,27.4c-0.5,0-0.9,0.4-0.9,0.9l0,18l-2,0v0l-34.6,0V15.5c0-0.5-0.4-0.9-0.9-0.9C8.4,14.7,8,15,8,15.5v30.8
		C8,47.2,8.7,48,9.7,48h34.7h1h1c0.9,0,1.7-0.8,1.7-1.7v-18C48,27.8,47.6,27.4,47.2,27.4z"/>
	<path class="st8" d="M46.3,8h-1h-1H9.7C8.7,8,8,8.8,8,9.7v5.8c0,0.5,0.4,0.9,0.9,0.9h23.4c0.5,0,0.9-0.4,0.9-0.9
		c0-0.5-0.4-0.9-0.9-0.9H9.7l0-4.9l35.7,0v0l1,0v2.5c0,0.5,0.4,0.9,0.9,0.9c0.5,0,0.9-0.4,0.9-0.9V9.7C48,8.8,47.3,8,46.3,8z"/>
	<path class="st8" d="M12.8,11.6c-0.1-0.1-0.2-0.1-0.3-0.2c-0.3-0.1-0.7-0.1-1,0.2c-0.1,0.1-0.1,0.2-0.2,0.3c-0.1,0.2-0.1,0.5,0,0.7
		c0,0.1,0.1,0.2,0.2,0.3c0.2,0.2,0.4,0.2,0.6,0.2c0.1,0,0.2,0,0.3-0.1c0.1,0,0.2-0.1,0.3-0.2c0.1-0.1,0.1-0.2,0.2-0.3
		c0.1-0.2,0.1-0.5,0-0.7C12.9,11.8,12.9,11.7,12.8,11.6L12.8,11.6z"/>
	<path class="st8" d="M16.1,11.6c-0.3-0.3-0.9-0.3-1.2,0c-0.1,0.1-0.1,0.2-0.2,0.3c0,0.1-0.1,0.2-0.1,0.3c0,0.1,0,0.2,0.1,0.3
		c0,0.1,0.1,0.2,0.2,0.3C15,12.9,15,13,15.2,13c0.1,0,0.2,0.1,0.3,0.1c0.2,0,0.5-0.1,0.6-0.3c0.1-0.1,0.1-0.2,0.2-0.3
		c0-0.1,0.1-0.2,0.1-0.3c0-0.1,0-0.2-0.1-0.3C16.2,11.8,16.2,11.7,16.1,11.6L16.1,11.6z"/>
	<path class="st8" d="M19.4,11.6c-0.1-0.1-0.2-0.1-0.3-0.2c-0.2-0.1-0.5-0.1-0.7,0c-0.1,0-0.2,0.1-0.3,0.2c-0.1,0.1-0.1,0.2-0.2,0.3
		c0,0.1-0.1,0.2-0.1,0.3c0,0.1,0,0.2,0.1,0.3c0,0.1,0.1,0.2,0.2,0.3c0.1,0.1,0.2,0.1,0.3,0.2c0.1,0,0.2,0.1,0.3,0.1
		c0.1,0,0.2,0,0.3-0.1c0.1,0,0.2-0.1,0.3-0.2c0.1-0.1,0.1-0.2,0.2-0.3c0.1-0.2,0.1-0.5,0-0.7l0,0C19.6,11.8,19.5,11.7,19.4,11.6z"/>
	<path class="st8" d="M18.8,41.3H13c-0.5,0-0.9,0.4-0.9,0.9c0,0.5,0.4,0.9,0.9,0.9h5.8c0.5,0,0.9-0.4,0.9-0.9
		C19.7,41.7,19.3,41.3,18.8,41.3z"/>
	<path class="st8" d="M12.9,38.9C13,38.9,13,38.9,12.9,38.9l4.2,0l0,0c0.1,0,0.1,0,0.2,0c0.2,0,0.4-0.1,0.6-0.3
		c0.1-0.2,0.2-0.4,0.2-0.6c0-0.2-0.1-0.4-0.3-0.6c-0.2-0.1-0.4-0.2-0.6-0.2l-4.1,0c-0.1,0-0.1,0-0.2,0c-0.2,0-0.4,0.1-0.6,0.3
		c-0.1,0.2-0.2,0.4-0.2,0.6c0,0.2,0.1,0.4,0.3,0.6C12.6,38.8,12.8,38.9,12.9,38.9z"/>
	<path class="st8" d="M18.8,33L13,33c-0.1,0-0.1,0-0.2,0c-0.2,0-0.4,0.1-0.6,0.3c-0.1,0.2-0.2,0.4-0.2,0.6c0,0.2,0.1,0.4,0.3,0.6
		c0.2,0.1,0.3,0.2,0.5,0.2c0,0,0.1,0,0.1,0h5.8c0.1,0,0.1,0,0.2,0c0.2,0,0.4-0.1,0.6-0.3c0.1-0.2,0.2-0.4,0.2-0.6
		C19.7,33.2,19.3,32.9,18.8,33z"/>
	<path class="st8" d="M22.1,28.8h-3.3c-0.5,0-0.9,0.4-0.9,0.9c0,0.5,0.4,0.9,0.9,0.9h3.3c0.5,0,0.9-0.4,0.9-0.9
		C23,29.2,22.6,28.8,22.1,28.8z"/>
	<path class="st8" d="M13,28.8c-0.5,0-0.9,0.4-0.9,0.9c0,0.5,0.4,0.9,0.9,0.9h3.3c0.5,0,0.9-0.4,0.9-0.9c0-0.5-0.4-0.9-0.9-0.9H13z"
		/>
	<path class="st8" d="M26.3,24.6h-4.2c-0.5,0-0.9,0.4-0.9,0.9c0,0.5,0.4,0.9,0.9,0.9h4.2c0.5,0,0.9-0.4,0.9-0.9
		C27.2,25,26.8,24.6,26.3,24.6z"/>
	<path class="st8" d="M20.5,25.5c0-0.5-0.4-0.9-0.9-0.9H13c-0.5,0-0.9,0.4-0.9,0.9c0,0.5,0.4,0.9,0.9,0.9h6.7
		C20.1,26.4,20.5,26,20.5,25.5z"/>
	<path class="st8" d="M30.4,20.5l-9.9,0c-0.1,0-0.1,0-0.2,0c-0.2,0-0.4,0.1-0.6,0.3c-0.1,0.2-0.2,0.4-0.2,0.6c0,0.2,0.1,0.4,0.3,0.6
		c0.2,0.1,0.3,0.2,0.5,0.2c0,0,0.1,0,0.1,0h9.9c0.1,0,0.1,0,0.2,0c0.2,0,0.4-0.1,0.6-0.3c0.1-0.2,0.2-0.4,0.2-0.6
		C31.3,20.8,30.9,20.4,30.4,20.5z"/>
	<path class="st8" d="M18,20.5l-5,0c-0.1,0-0.1,0-0.2,0c-0.2,0-0.4,0.1-0.6,0.3c-0.1,0.2-0.2,0.4-0.2,0.6c0,0.2,0.1,0.4,0.3,0.6
		c0.2,0.1,0.3,0.2,0.5,0.2c0,0,0.1,0,0.1,0h5c0.1,0,0.1,0,0.2,0c0.2,0,0.4-0.1,0.6-0.3c0.1-0.2,0.2-0.4,0.2-0.6
		c0-0.2-0.1-0.4-0.3-0.6C18.4,20.5,18.2,20.5,18,20.5z"/>
</g>
</svg>
