<?xml version="1.0" encoding="utf-8"?>
<!-- Generator: Adobe Illustrator 25.0.0, SVG Export Plug-In . SVG Version: 6.00 Build 0)  -->
<svg version="1.1" id="Layer_1" xmlns="http://www.w3.org/2000/svg" xmlns:xlink="http://www.w3.org/1999/xlink" x="0px" y="0px"
	 viewBox="0 0 56 56" style="enable-background:new 0 0 56 56;" xml:space="preserve">
<style type="text/css">
	.st0{fill:#365E7D;}
	.st1{fill:#DDB7A0;}
	.st2{fill:#D6A889;}
	.st3{fill:#CC9675;}
	.st4{fill:#C4845C;}
	.st5{fill:#F4FBFF;}
	.st6{fill:#E4F6FF;}
	.st7{fill:#407093;}
	.st8{fill:#4A80AA;}
	.st9{fill:#CBE2FF;}
	.st10{fill:#BED8FB;}
	.st11{fill:#35414D;}
	.st12{fill:none;}
</style>
<g>
	<g>
		<g>
			<g>
				<g>
					<path class="st0" d="M34.1,18.8c-0.7,0-1.4-0.6-1.4-1.4v-4.9c0-0.6-0.5-1.1-1.1-1.1h-7.5c-0.6,0-1.1,0.5-1.1,1.1v4.9
						c0,0.7-0.6,1.4-1.4,1.4c-0.7,0-1.4-0.6-1.4-1.4v-4.9c0-2.1,1.7-3.8,3.8-3.8h7.5c2.1,0,3.8,1.7,3.8,3.8v4.9
						C35.5,18.2,34.9,18.8,34.1,18.8z"/>
				</g>
			</g>
			<g>
				<g>
					<path class="st1" d="M44.1,43.6H11.9c-2.1,0-3.9-1.7-3.9-3.9V19.4c0-2.2,1.7-3.9,3.9-3.9h32.2c2.1,0,3.9,1.7,3.9,3.9v20.3
						C48,41.8,46.3,43.6,44.1,43.6z"/>
				</g>
				<g>
					<path class="st2" d="M44.1,15.5h-5.5c2.1,0,3.9,1.7,3.9,3.9v20.3c0,2.2-1.7,3.9-3.9,3.9h5.5c2.1,0,3.9-1.7,3.9-3.9V19.4
						C48,17.3,46.3,15.5,44.1,15.5z"/>
				</g>
				<g>
					<path class="st3" d="M44.1,15.5H11.9c-2.1,0-3.9,1.7-3.9,3.9v2.7c0,3.9,3.2,7.1,7,7.1H41c3.9,0,7-3.2,7-7.1v-2.7
						C48,17.3,46.3,15.5,44.1,15.5L44.1,15.5z"/>
				</g>
				<g>
					<path class="st4" d="M44.1,15.5h-5.5c2.1,0,3.9,1.7,3.9,3.9V29c3.2-0.7,5.5-3.5,5.5-6.9v-2.7C48,17.3,46.3,15.5,44.1,15.5z"/>
				</g>
			</g>
		</g>
	</g>
	<g>
		<g>
			<path class="st5" d="M16.9,34c-1,0-1.8-0.8-1.8-1.8V28c0-1,0.8-1.8,1.8-1.8c1,0,1.8,0.8,1.8,1.8v4.2C18.8,33.2,17.9,34,16.9,34z"
				/>
		</g>
		<g>
			<path class="st6" d="M15.1,30.9v1.4c0,1,0.8,1.8,1.8,1.8c1,0,1.8-0.8,1.8-1.8v-1.4H15.1z"/>
		</g>
	</g>
	<g>
		<g>
			<g>
				<g>
					<g>
						<g>
							<path class="st5" d="M31,34.9l1.9,1.9l-3.9,3.9l-1.9-1.9L31,34.9z"/>
						</g>
						<g>
							<path class="st7" d="M24.1,46.6l5.3-5.4c0.3-0.3,0.3-0.8,0-1.1l-1.8-1.8c-0.3-0.3-0.8-0.3-1.1,0l-5.3,5.4
								c-0.8,0.8-0.8,2.1,0,2.9C22,47.4,23.3,47.4,24.1,46.6L24.1,46.6z"/>
						</g>
						<g>
							<path class="st8" d="M29.4,40.1l-1.8-1.8c-0.3-0.3-0.8-0.3-1.1,0l-1.2,1.2l2.9,2.9l1.2-1.2C29.8,40.9,29.8,40.4,29.4,40.1
								L29.4,40.1z"/>
						</g>
						<g>
							<ellipse class="st6" cx="37.8" cy="29.9" rx="10.2" ry="10.2"/>
						</g>
						<g>
							<ellipse class="st9" cx="37.8" cy="29.9" rx="7.2" ry="7.2"/>
						</g>
						<g>
							<path class="st10" d="M42.9,24.8c-2.1-2.1-5.3-2.7-7.9-1.6c0.8,0.4,1.6,0.9,2.3,1.6c2.8,2.8,2.8,7.4,0,10.2
								c-0.7,0.7-1.5,1.2-2.3,1.6c2.6,1.1,5.7,0.6,7.9-1.6C45.7,32.2,45.7,27.6,42.9,24.8L42.9,24.8z"/>
						</g>
					</g>
				</g>
			</g>
			<path class="st11" d="M37.8,37.9c2,0,4.1-0.8,5.7-2.3c1.1-1.1,1.8-2.5,2.2-4c0.1-0.4-0.2-0.8-0.6-0.9c-0.4-0.1-0.8,0.2-0.9,0.6
				c-0.3,1.2-0.9,2.3-1.7,3.2c-2.5,2.5-6.6,2.5-9.1,0c-2.5-2.5-2.5-6.6,0-9.1c1.2-1.2,2.8-1.9,4.5-1.9c1.7,0,3.3,0.7,4.5,1.9
				c0.9,0.9,1.5,2,1.7,3.2c0,0.2,0.2,0.4,0.3,0.5c0.2,0.1,0.4,0.2,0.6,0.1c0.4-0.1,0.7-0.5,0.6-0.9c-0.3-1.5-1.1-2.9-2.2-4
				c-1.5-1.5-3.5-2.4-5.7-2.4c-2.1,0-4.1,0.8-5.7,2.4c-1.5,1.5-2.3,3.5-2.3,5.7c0,2.1,0.8,4.2,2.3,5.7
				C33.7,37.2,35.8,37.9,37.8,37.9z"/>
		</g>
		<path class="st12" d="M31.8,34.2c-0.2,0.2-0.4,0.6-0.4,0.9c0,0.3,0.1,0.7,0.4,0.9c0.5,0.5,1.3,0.5,1.8,0l3.6-3.6l-1.8-1.8
			L31.8,34.2z"/>
		<path class="st12" d="M34.4,32.6l-1,1l0.8,0.8l1-1c-0.1-0.1-0.3-0.2-0.4-0.4C34.7,32.9,34.5,32.7,34.4,32.6z"/>
		<path class="st12" d="M27.7,26.8c-1.8,1.8-2.8,4.2-2.8,6.7c0,2.5,1,4.9,2.8,6.7c1.8,1.8,4.1,2.8,6.7,2.8c2.5,0,4.9-1,6.7-2.8
			c3.7-3.7,3.7-9.7,0-13.4C39.2,25,36.8,24,34.3,24C31.8,24,29.4,25,27.7,26.8z"/>
		<polygon class="st12" points="33.1,32.9 34.9,34.7 35.5,34 33.7,32.2 		"/>
		<polygon class="st11" points="34.3,33.4 34.3,33.4 34.3,33.4 		"/>
		<path class="st11" d="M43.8,20.7c-4.3-2.8-10.1-2.2-13.8,1.4c-1.7,1.7-2.8,3.9-3.1,6.3l-0.1,0.8l0,0.8c0,2.2,0.7,4.3,1.9,6.1
			l-1.3,1.3c-0.5-0.1-1.1,0-1.5,0.4L20.7,43c-1.1,1.1-1.2,3.1-0.1,4.2c0.5,0.5,1.2,0.8,2,0.8c0.8,0,1.5-0.3,2-0.8l5.3-5.4
			c0.4-0.4,0.5-0.9,0.4-1.5l1.3-1.3c3.6,2.5,8.5,2.5,12.1,0.1l0.8-0.6l0.7-0.6c0,0,0.1-0.1,0.1-0.1c2.2-2.1,3.4-4.9,3.4-7.9
			c0-2.9-1.1-5.7-3.2-7.8c-0.1-0.1-0.1-0.1-0.2-0.2l-0.7-0.6L43.8,20.7z M23.5,46c-0.5,0.5-1.3,0.5-1.8,0c-0.2-0.2-0.4-0.6-0.4-0.9
			s0.1-0.7,0.4-0.9l3.6-3.6l1.8,1.8L23.5,46z M28.2,41.3l-1.8-1.8l0.6-0.6l1.8,1.8L28.2,41.3z M29.4,39l-0.8-0.8l1-1
			c0.1,0.1,0.2,0.3,0.4,0.4c0.1,0.1,0.3,0.2,0.4,0.4L29.4,39z M44.5,36.6c-1.8,1.8-4.1,2.8-6.7,2.8c-2.5,0-4.9-1-6.7-2.8
			c-1.8-1.8-2.8-4.2-2.8-6.7c0-2.5,1-4.9,2.8-6.7c1.8-1.8,4.1-2.8,6.7-2.8c2.5,0,4.9,1,6.7,2.8C48.1,26.9,48.1,32.9,44.5,36.6z"/>
	</g>
	<path class="st12" d="M44.1,16.3H11.9c-1.7,0-3.1,1.4-3.1,3.1v2.7c0,3.2,2.4,5.9,5.6,6.2V28c0-1.4,1.2-2.6,2.6-2.6
		c1.4,0,2.6,1.2,2.6,2.6v0.4h9.6l0.1-1.4l0-2.5l5-6.9l11.8,1.7l1.1,0.7v-0.4C47.2,17.7,45.8,16.3,44.1,16.3z"/>
	<path class="st12" d="M31.7,12.3h-7.5c-0.1,0-0.3,0.1-0.3,0.3v2.2h8v-2.2C32,12.4,31.9,12.3,31.7,12.3z"/>
	<path class="st12" d="M15.9,32.2c0,0.6,0.5,1,1,1c0.6,0,1-0.5,1-1v-0.6h-2.1V32.2z"/>
	<path class="st12" d="M22.4,12.6c0-1,0.8-1.8,1.8-1.8h7.5c1,0,1.8,0.8,1.8,1.8v2.2h1.1v-2.2c0-1.6-1.3-3-3-3h-7.5c-1.6,0-3,1.3-3,3
		v2.2h1.1V12.6z"/>
	<path class="st12" d="M16.9,26.9c-0.6,0-1,0.5-1,1v2.1H18V28C18,27.4,17.5,26.9,16.9,26.9z"/>
	<path class="st11" d="M19.5,28.4V28c0-1.4-1.2-2.6-2.6-2.6c-1.4,0-2.6,1.2-2.6,2.6v0.4c-3.1-0.4-5.6-3.1-5.6-6.2v-2.7
		c0-1.7,1.4-3.1,3.1-3.1h32.2c1.7,0,3.1,1.4,3.1,3.1v0.4l1.6,0.9v-1.3c0-2.6-2.1-4.7-4.7-4.7h-7.8v-2.2c0-2.5-2-4.6-4.5-4.6h-7.5
		c-2.5,0-4.5,2-4.5,4.6v2.2h-7.8c-2.6,0-4.7,2.1-4.7,4.7v20.3c0,2.6,2.1,4.7,4.7,4.7h3.5c0.4,0,0.8-0.4,0.8-0.8
		c0-0.4-0.4-0.8-0.8-0.8h-3.5c-1.7,0-3.1-1.4-3.1-3.1V26.8c1.3,1.8,3.3,2.9,5.6,3.1v2.3c0,1.4,1.2,2.6,2.6,2.6
		c1.4,0,2.6-1.2,2.6-2.6V30H28l0.1-1.6H19.5z M32,14.7h-8v-2.2c0-0.1,0.1-0.3,0.3-0.3h7.5c0.1,0,0.3,0.1,0.3,0.3V14.7z M21.3,12.6
		c0-1.6,1.3-3,3-3h7.5c1.6,0,3,1.3,3,3v2.2h-1.1v-2.2c0-1-0.8-1.8-1.8-1.8h-7.5c-1,0-1.8,0.8-1.8,1.8v2.2h-1.1V12.6z M18,32.2
		c0,0.6-0.5,1-1,1c-0.6,0-1-0.5-1-1v-0.6H18V32.2z M18,30.1h-2.1V28c0-0.6,0.5-1,1-1c0.6,0,1,0.5,1,1V30.1z"/>
	<path class="st11" d="M47.2,39.7c0,1.7-1.4,3.1-3.1,3.1H32.8c-0.4,0-0.8,0.4-0.8,0.8c0,0.4,0.4,0.8,0.8,0.8h11.4
		c2.6,0,4.7-2.1,4.7-4.7v-1l-1.6,0.7V39.7z"/>
	<rect x="47.2" y="19.1" class="st11" width="1.6" height="20.6"/>
</g>
</svg>
