<?xml version="1.0" encoding="utf-8"?>
<!-- Generator: Adobe Illustrator 25.0.0, SVG Export Plug-In . SVG Version: 6.00 Build 0)  -->
<svg version="1.1" id="Layer_1" xmlns="http://www.w3.org/2000/svg" xmlns:xlink="http://www.w3.org/1999/xlink" x="0px" y="0px"
	 viewBox="0 0 56 56" style="enable-background:new 0 0 56 56;" xml:space="preserve">
<style type="text/css">
	.st0{fill:#35414D;}
	.st1{fill:#FFD54F;}
	.st2{fill:#D74527;}
	.st3{fill:url(#SVGID_1_);}
	.st4{opacity:0.3;fill:url(#SVGID_2_);}
</style>
<g>
	<g>
		<path class="st0" d="M44.4,8H11.6C9.6,8,8,9.6,8,11.6v32.7c0,2,1.6,3.6,3.6,3.6h32.7c2,0,3.6-1.6,3.6-3.6V11.6
			C48,9.6,46.4,8,44.4,8z"/>
		<path class="st1" d="M46.2,44.4c0,1-0.8,1.8-1.8,1.8H11.6c-1,0-1.8-0.8-1.8-1.8V11.6c0-1,0.8-1.8,1.8-1.8h32.7
			c1,0,1.8,0.8,1.8,1.8V44.4z"/>
		<path class="st0" d="M28,15.3c-4,0-7.3,3.3-7.3,7.3v0.9c0,0.5,0.4,0.9,0.9,0.9h3.6c0.5,0,0.9-0.4,0.9-0.9v-0.9
			c0-1,0.8-1.8,1.8-1.8s1.8,0.8,1.8,1.8v2.1c0,0.4-0.2,0.7-0.6,0.8c-2.4,1-4,3.3-4,5.9v1.2c0,0.5,0.4,0.9,0.9,0.9h3.6
			c0.5,0,0.9-0.4,0.9-0.9v-1.2c0-0.4,0.2-0.7,0.6-0.8c2.4-1,4-3.3,4-5.9v-2.1C35.3,18.5,32,15.3,28,15.3z"/>
		<path class="st2" d="M33.5,24.6c0,1.9-1.1,3.5-2.8,4.2c-1,0.4-1.7,1.4-1.7,2.5v0.3h-1.8v-0.3c0-1.9,1.1-3.5,2.8-4.2
			c1-0.4,1.7-1.4,1.7-2.5v-2.1c0-2-1.6-3.6-3.6-3.6s-3.6,1.6-3.6,3.6h-1.8c0-3,2.4-5.5,5.5-5.5s5.5,2.4,5.5,5.5V24.6z"/>
		<path class="st0" d="M29.8,35.3h-3.6c-0.5,0-0.9,0.4-0.9,0.9v3.6c0,0.5,0.4,0.9,0.9,0.9h3.6c0.5,0,0.9-0.4,0.9-0.9v-3.6
			C30.7,35.7,30.3,35.3,29.8,35.3z"/>
		<rect x="27.1" y="37.1" class="st2" width="1.8" height="1.8"/>
		<g>
			<circle class="st0" cx="13.5" cy="13.5" r="1.8"/>
			<circle class="st0" cx="42.5" cy="13.5" r="1.8"/>
		</g>
		
			<linearGradient id="SVGID_1_" gradientUnits="userSpaceOnUse" x1="-324.2664" y1="-506.4797" x2="-323.1838" y2="-505.3971" gradientTransform="matrix(21.3333 0 0 21.3333 6940.4355 10827.2266)">
			<stop  offset="0" style="stop-color:#000000;stop-opacity:0.1"/>
			<stop  offset="1" style="stop-color:#000000;stop-opacity:0"/>
		</linearGradient>
		<path class="st3" d="M32.8,17.1L32.8,17.1c0,0.1,0.1,0.1,0.2,0.2L32.8,17.1z M33.3,17.6c1.2,1.3,2,3.1,2,5v2.1
			c0,2.6-1.6,4.9-4,5.9c-0.3,0.1-0.6,0.5-0.6,0.8v1.2c0,0.5-0.4,0.9-0.9,0.9h-3.6c-0.2,0-0.4-0.1-0.5-0.2l2,2h2.1
			c0.5,0,0.9,0.4,0.9,0.9v3.6c0,0.5-0.4,0.9-0.9,0.9h-3.6c-0.2,0-0.3-0.1-0.5-0.2l5.6,5.6h13.1c1,0,1.8-0.8,1.8-1.8V30.5L33.3,17.6z
			 M29.3,25.5c0.3-0.1,0.6-0.5,0.6-0.8v-2.1c0-1-0.8-1.8-1.8-1.8s-1.8,0.8-1.8,1.8v0.9c0,0.5-0.4,0.9-0.9,0.9h-3.6
			c-0.2,0-0.5-0.1-0.6-0.3l4.8,4.8C26.4,27.4,27.6,26.1,29.3,25.5z"/>
		<g>
			<circle class="st0" cx="13.5" cy="42.5" r="1.8"/>
			<circle class="st0" cx="42.5" cy="42.5" r="1.8"/>
		</g>
	</g>
	
		<linearGradient id="SVGID_2_" gradientUnits="userSpaceOnUse" x1="-325.0992" y1="-506.7174" x2="-322.9426" y2="-505.7117" gradientTransform="matrix(21.3333 0 0 21.3333 6940.4355 10827.2266)">
		<stop  offset="0" style="stop-color:#FFFFFF;stop-opacity:0.2"/>
		<stop  offset="1" style="stop-color:#FFFFFF;stop-opacity:0"/>
	</linearGradient>
	<path class="st4" d="M44.4,8H11.6C9.6,8,8,9.6,8,11.6v32.7c0,2,1.6,3.6,3.6,3.6h32.7c2,0,3.6-1.6,3.6-3.6V11.6
		C48,9.6,46.4,8,44.4,8z"/>
</g>
</svg>
