<?xml version="1.0" encoding="utf-8"?>
<!-- Generator: Adobe Illustrator 25.0.0, SVG Export Plug-In . SVG Version: 6.00 Build 0)  -->
<svg version="1.1" id="Layer_1" xmlns="http://www.w3.org/2000/svg" xmlns:xlink="http://www.w3.org/1999/xlink" x="0px" y="0px"
	 viewBox="0 0 56 56" style="enable-background:new 0 0 56 56;" xml:space="preserve">
<style type="text/css">
	.st0{fill:#FECBAA;}
	.st1{fill:#FDD559;}
	.st2{fill:#FF84A7;}
	.st3{fill:#FEDFC5;}
	.st4{fill:#FFAE85;}
	.st5{fill:#83D9FF;}
	.st6{fill:#35414D;}
</style>
<g>
	<g>
		<path class="st0" d="M31.9,40.4l-9-9c-0.6-0.6-0.6-1.5,0-2c0.2-0.2,0.5-0.4,0.8-0.4c0.4-0.1,0.9,0.1,1.2,0.4l-2.3-2.3
			c-0.3-0.3-0.4-0.6-0.4-1c0-0.1,0-0.2,0-0.2c0-0.3,0.2-0.6,0.4-0.8c0.2-0.2,0.5-0.4,0.8-0.4c0.4-0.1,0.8,0,1.1,0.3l-0.9-0.9
			c-0.3-0.3-0.4-0.7-0.4-1c0-0.1,0-0.2,0-0.2c0-0.3,0.2-0.6,0.4-0.8c0.2-0.2,0.5-0.4,0.8-0.4c0.4-0.1,0.9,0.1,1.2,0.4l1,1
			c-0.3-0.3-0.5-0.8-0.4-1.2c0-0.3,0.2-0.6,0.4-0.8c0.6-0.6,1.5-0.6,2,0l5.8,5.8l0,0c0.3-0.3,0.6-0.5,1-0.6c0.9-0.3,2-0.1,2.7,0.6
			l2.7,2.7c0.5,0.5,0.8,1.2,0.8,2l0,1.7c0,0.8,0.3,1.6,0.9,2.1l0.6,0.6l-6.9,6.9l-0.8-0.8c-0.5-0.5-1.2-0.8-1.9-0.9
			C33,41.2,32.4,40.9,31.9,40.4z"/>
	</g>
	<g>
		<path class="st1" d="M35.9,43.3l7.9-7.9c0.3-0.3,0.7-0.3,0.9,0l2.8,2.8c0.3,0.3,0.3,0.7,0,0.9l-7.9,7.9c-0.3,0.3-0.7,0.3-0.9,0
			l-2.8-2.8C35.7,44,35.7,43.6,35.9,43.3z"/>
	</g>
	<g>
		<path class="st0" d="M24.1,40.4l9-9c0.6-0.6,0.6-1.5,0-2c-0.2-0.2-0.5-0.4-0.8-0.4c-0.4-0.1-0.9,0.1-1.2,0.4l2.3-2.3
			c0.3-0.3,0.4-0.6,0.4-1c0-0.1,0-0.2,0-0.2c0-0.3-0.2-0.6-0.4-0.8c-0.2-0.2-0.5-0.4-0.8-0.4c-0.4-0.1-0.8,0-1.1,0.3l0.9-0.9
			c0.3-0.3,0.4-0.6,0.4-1c0-0.1,0-0.2,0-0.2c0-0.3-0.2-0.6-0.4-0.8c-0.2-0.2-0.5-0.4-0.8-0.4c-0.4-0.1-0.9,0.1-1.2,0.4l-1,1
			c0.3-0.3,0.5-0.8,0.4-1.2c0-0.3-0.2-0.6-0.4-0.8c-0.6-0.6-1.5-0.6-2,0l-5.8,5.8l0,0c-0.3-0.3-0.6-0.5-1-0.6
			c-0.9-0.3-2-0.1-2.7,0.6L15,29.6c-0.5,0.5-0.8,1.2-0.8,2l0,1.7c0,0.8-0.3,1.6-0.9,2.1L12.7,36l6.9,6.9l0.8-0.8
			c0.5-0.5,1.2-0.8,1.9-0.9C23,41.2,23.6,40.9,24.1,40.4z"/>
	</g>
	<g>
		<path class="st2" d="M20.1,43.3l-7.9-7.9c-0.3-0.3-0.7-0.3-0.9,0l-2.8,2.8c-0.3,0.3-0.3,0.7,0,0.9l7.9,7.9c0.3,0.3,0.7,0.3,0.9,0
			l2.8-2.8C20.3,44,20.3,43.6,20.1,43.3z"/>
	</g>
	<g>
		<path class="st3" d="M33.7,18.9v12.7c0,0.8-0.6,1.4-1.4,1.4c-0.3,0-0.6-0.1-0.8-0.3c-0.4-0.3-0.6-0.7-0.6-1.2v3.3
			c0,0.4-0.2,0.8-0.4,1C30.4,36,30.3,36,30.3,36c-0.2,0.2-0.5,0.3-0.8,0.3c-0.3,0-0.6-0.1-0.8-0.3c-0.3-0.2-0.5-0.6-0.6-1v1.2
			c0,0.4-0.2,0.8-0.4,1c-0.1,0.1-0.1,0.1-0.2,0.2c-0.2,0.2-0.5,0.3-0.8,0.3c-0.3,0-0.6-0.1-0.8-0.3c-0.4-0.3-0.6-0.7-0.6-1.2v-1.4
			c0,0.5-0.2,0.9-0.6,1.2c-0.2,0.2-0.5,0.3-0.8,0.3c-0.8,0-1.4-0.6-1.4-1.4v-8.2l0,0c-0.4,0-0.8-0.1-1.2-0.3
			c-0.9-0.4-1.5-1.3-1.5-2.4v-3.8c0-0.7,0.3-1.4,0.8-2l1.2-1.2c0.6-0.6,0.9-1.3,0.9-2.1V14h9.8v1.1c0,0.7,0.3,1.4,0.7,2
			C33.5,17.6,33.7,18.3,33.7,18.9z"/>
	</g>
	<g>
		<path class="st4" d="M33.1,29.4c-0.2-0.2-0.5-0.4-0.8-0.4c-0.4-0.1-0.9,0.1-1.2,0.4l2.3-2.3c0.3-0.3,0.4-0.6,0.4-1
			c0-0.1,0-0.2,0-0.2c0-0.3-0.2-0.6-0.4-0.8c-0.2-0.2-0.5-0.4-0.8-0.4c-0.4-0.1-0.8,0-1.1,0.3l0.9-0.9c0.3-0.3,0.4-0.6,0.4-1
			c0-0.1,0-0.2,0-0.2c0-0.3-0.2-0.6-0.4-0.8c-0.2-0.2-0.5-0.4-0.8-0.4c-0.4-0.1-0.9,0.1-1.2,0.4l-1,1c0.3-0.3,0.5-0.8,0.4-1.2
			c0-0.3-0.2-0.6-0.4-0.8c-0.6-0.6-1.5-0.6-2,0l-5.8,5.8l0,0c-0.3-0.3-0.6-0.5-1-0.6C20,26.1,19.5,26,19,26.1c0.4,0.6,0.9,1,1.5,1.3
			c0.2,0.1,0.3,0.2,0.5,0.2v7.2c0,1.5,1.2,2.6,2.6,2.6c0.2,0,0.3,0,0.5,0c0.2,0.4,0.5,0.7,0.8,1c0.2,0.2,0.5,0.3,0.7,0.4l7.3-7.3
			C33.6,30.9,33.6,30,33.1,29.4z"/>
	</g>
	<g>
		<path class="st4" d="M34.9,31.6v-5.1c-0.1,0.1-0.2,0.2-0.4,0.3l0,0L28.7,21c-0.6-0.6-1.5-0.6-2,0c-0.2,0.2-0.4,0.5-0.4,0.8
			c-0.1,0.4,0.1,0.9,0.4,1.2l-1-1c-0.3-0.3-0.8-0.5-1.2-0.4c-0.3,0-0.6,0.2-0.8,0.4c-0.2,0.2-0.4,0.5-0.4,0.8c0,0.1,0,0.2,0,0.2
			c0,0.4,0.1,0.7,0.4,1l0.9,0.9c-0.3-0.3-0.7-0.3-1.1-0.3c-0.3,0-0.6,0.2-0.8,0.4c-0.2,0.2-0.4,0.5-0.4,0.8c0,0.1,0,0.2,0,0.2
			c0,0.4,0.1,0.7,0.4,1l2.3,2.3c-0.3-0.3-0.8-0.5-1.2-0.4c-0.3,0-0.6,0.2-0.8,0.4c-0.6,0.6-0.6,1.5,0,2l6,6c0.2,0,0.3,0,0.5,0
			c0.6,0,1.1-0.2,1.5-0.5c0.1-0.1,0.2-0.2,0.3-0.3c0.5-0.5,0.8-1.2,0.8-1.9v-0.6c0.1,0,0.2,0,0.2,0C33.7,34.2,34.9,33.1,34.9,31.6z"
			/>
	</g>
	<g>
		<path class="st3" d="M33.7,18.9v12.7c0,0.8-0.6,1.4-1.4,1.4c0,0,0,0-0.1,0c-0.3,0-0.6-0.1-0.8-0.3c0,0,0,0,0,0
			c-0.4-0.3-0.6-0.7-0.6-1.2v3.3c0,0.4-0.2,0.8-0.4,1C30.4,36,30.3,36,30.3,36c-0.2,0.2-0.5,0.3-0.8,0.3c-0.3,0-0.6-0.1-0.8-0.3
			c-0.3-0.2-0.5-0.6-0.6-1v1.2c0,0.4-0.2,0.8-0.4,1c-0.1,0.1-0.1,0.1-0.2,0.2c-0.2,0.2-0.5,0.3-0.8,0.3c-0.3,0-0.6-0.1-0.8-0.3
			c-0.4-0.3-0.6-0.7-0.6-1.2v-1.4c0,0.5-0.2,0.9-0.6,1.2c-0.2,0.2-0.5,0.3-0.8,0.3c-0.8,0-1.4-0.6-1.4-1.4v-8.2l0,0
			c-0.4,0-0.8-0.1-1.2-0.3c-0.9-0.4-1.5-1.3-1.5-2.4v-3.8c0-0.7,0.3-1.4,0.8-2l1.2-1.2c0.3-0.3,0.6-0.8,0.7-1.2
			c0.1-0.3,0.1-0.6,0.1-0.9V14h9.8v1.1c0,0.2,0,0.5,0.1,0.7c0.1,0.5,0.3,0.9,0.7,1.2C33.5,17.6,33.7,18.3,33.7,18.9z"/>
	</g>
	<g>
		<path class="st0" d="M33.7,18.9v12.7c0,0.8-0.6,1.4-1.4,1.4c0,0,0,0-0.1,0c-0.3,0-0.6-0.1-0.8-0.3l0-12.2c0-0.1,0-0.2,0-0.3
			c-0.5-2.7-2.8-4.5-5.5-4.5h-3.5c0.1-0.3,0.1-0.6,0.1-0.9V14h9.8v1.1c0,0.2,0,0.5,0.1,0.7c0.1,0.5,0.3,0.9,0.7,1.2
			C33.5,17.6,33.7,18.3,33.7,18.9z"/>
	</g>
	<g>
		<path class="st5" d="M32.9,14H21.8c-0.4,0-0.7-0.3-0.7-0.7v-4c0-0.4,0.3-0.7,0.7-0.7h11.1c0.4,0,0.7,0.3,0.7,0.7v4
			C33.6,13.7,33.3,14,32.9,14z"/>
	</g>
	<g>
		<path class="st6" d="M24.5,43.6L24.5,43.6l-0.1,0c0,0,0,0,0,0l-0.1,0l0,0c-0.2,0-0.3,0-0.4,0.1c-0.2,0.1-0.3,0.3-0.3,0.5
			c0,0.2,0,0.4,0.1,0.5c0.1,0.2,0.3,0.3,0.4,0.3l0,0c0,0,0.1,0,0.1,0c0.3,0,0.6-0.2,0.7-0.6c0-0.2,0-0.4-0.1-0.5
			C24.8,43.8,24.7,43.7,24.5,43.6z"/>
		<path class="st6" d="M29,43.8L29,43.8l-0.1,0c0,0,0,0,0,0l-0.1,0l0,0c-0.1,0-0.3,0.1-0.4,0.2c-0.1,0.2-0.2,0.3-0.2,0.5
			c0,0.4,0.3,0.7,0.7,0.7c0,0,0,0,0.1,0c0.4,0,0.7-0.4,0.6-0.8C29.7,44.1,29.4,43.8,29,43.8z"/>
		<path class="st6" d="M26.7,43.8l0,0.1l0,0l0,0v0L26.7,43.8c-0.2,0-0.4,0.1-0.5,0.2c-0.1,0.1-0.2,0.3-0.2,0.5
			c0,0.4,0.3,0.7,0.7,0.8l0,0c0.4,0,0.7-0.3,0.7-0.7c0-0.2-0.1-0.4-0.2-0.5C27,43.9,26.8,43.9,26.7,43.8z"/>
		<path class="st6" d="M22.2,43L22.2,43c-0.4-0.1-0.8,0.1-0.9,0.4c-0.1,0.2-0.1,0.4,0,0.6c0.1,0.2,0.2,0.3,0.4,0.4
			c0.1,0,0.2,0,0.2,0c0.3,0,0.6-0.2,0.7-0.5c0.1-0.2,0.1-0.4,0-0.6C22.5,43.2,22.4,43,22.2,43z"/>
		<path class="st6" d="M31.3,43.3L31.3,43.3l-0.1,0c0,0,0,0,0,0l-0.1,0l0,0c-0.1,0.1-0.2,0.2-0.3,0.3c-0.1,0.2-0.1,0.4-0.1,0.6
			c0.1,0.3,0.4,0.5,0.7,0.5c0.1,0,0.1,0,0.2,0c0.4-0.1,0.6-0.5,0.5-0.9C31.9,43.5,31.6,43.3,31.3,43.3z"/>
		<path class="st6" d="M33.4,42.6L33.4,42.6l-0.1,0c0,0,0,0,0,0l-0.1,0l0,0c-0.3,0.2-0.4,0.6-0.3,0.9c0.1,0.3,0.4,0.4,0.7,0.4
			c0.1,0,0.2,0,0.3-0.1c0.4-0.2,0.5-0.6,0.4-1C34.1,42.7,33.7,42.5,33.4,42.6z"/>
		<path class="st6" d="M19.9,15.7c0.1,0,0.2,0,0.3-0.1c0.4-0.2,0.5-0.6,0.3-1c-0.2-0.4-0.6-0.5-1-0.3c-0.4,0.2-0.5,0.6-0.3,1
			C19.4,15.6,19.6,15.7,19.9,15.7z"/>
		<path class="st6" d="M12.9,22.3L12.9,22.3c0.1,0.1,0.2,0.1,0.3,0.1c0.3,0,0.5-0.1,0.6-0.4l0,0c0.1-0.2,0.1-0.4,0-0.6
			c-0.1-0.2-0.2-0.3-0.4-0.4c-0.4-0.2-0.8,0-1,0.3C12.5,21.7,12.6,22.2,12.9,22.3z"/>
		<path class="st6" d="M12.1,24.6c0.1,0,0.2,0,0.2,0c0.3,0,0.6-0.2,0.7-0.5l0,0c0.1-0.2,0-0.4-0.1-0.6c-0.1-0.2-0.2-0.3-0.4-0.4
			c-0.4-0.1-0.8,0.1-0.9,0.5C11.5,24.1,11.7,24.5,12.1,24.6z"/>
		<path class="st6" d="M14.1,20.3c0.1,0.1,0.3,0.1,0.4,0.1c0.2,0,0.5-0.1,0.6-0.3c0.2-0.3,0.2-0.8-0.2-1c-0.3-0.2-0.7-0.2-0.9,0.1
			l0,0L14,19.2c0,0,0,0,0,0l-0.1,0.1l0,0C13.7,19.7,13.8,20,14.1,20.3z"/>
		<path class="st6" d="M17.9,17c0.2,0,0.3-0.1,0.4-0.1c0.3-0.2,0.4-0.7,0.2-1c-0.2-0.3-0.7-0.4-1-0.1c-0.3,0.2-0.4,0.7-0.1,1
			C17.4,16.9,17.6,17,17.9,17z"/>
		<path class="st6" d="M11.5,33.5c0.1,0.3,0.4,0.5,0.7,0.5c0.1,0,0.1,0,0.2,0c0.4-0.1,0.6-0.5,0.5-0.9c-0.1-0.4-0.5-0.6-0.9-0.5
			c-0.2,0.1-0.3,0.2-0.4,0.3C11.5,33.1,11.5,33.3,11.5,33.5L11.5,33.5z"/>
		<path class="st6" d="M16.1,18.6c0.2,0,0.4-0.1,0.5-0.2c0.3-0.3,0.3-0.7,0-1c-0.3-0.3-0.7-0.3-1,0c-0.1,0.1-0.2,0.3-0.2,0.5
			c0,0.2,0.1,0.4,0.2,0.5C15.7,18.5,15.9,18.6,16.1,18.6z"/>
		<path class="st6" d="M11.8,31.7c0.4-0.1,0.7-0.4,0.6-0.8c-0.1-0.4-0.4-0.7-0.8-0.6c-0.4,0-0.7,0.4-0.6,0.8l0,0
			c0.1,0.4,0.4,0.6,0.7,0.6C11.7,31.7,11.8,31.7,11.8,31.7z"/>
		<path class="st6" d="M11.5,29.3L11.5,29.3c0.4,0,0.7-0.3,0.7-0.7l0,0c0-0.4-0.3-0.7-0.7-0.7c-0.4,0-0.7,0.3-0.7,0.7
			C10.8,29,11.1,29.3,11.5,29.3z"/>
		<path class="st6" d="M11.7,26.9L11.7,26.9c0,0,0.1,0,0.1,0c0.4,0,0.7-0.3,0.7-0.6l0,0c0-0.2,0-0.4-0.1-0.5s-0.3-0.3-0.5-0.3
			c-0.4-0.1-0.8,0.2-0.8,0.6C11,26.5,11.3,26.9,11.7,26.9z"/>
		<path class="st6" d="M39.7,20.4c0.1,0.2,0.4,0.3,0.6,0.3c0.1,0,0.3,0,0.4-0.1c0.3-0.2,0.4-0.6,0.3-0.9l0,0l-0.1-0.1c0,0,0,0,0,0
			l-0.1-0.1l0,0c-0.1-0.1-0.2-0.2-0.4-0.2c-0.2,0-0.4,0-0.5,0.1c-0.2,0.1-0.3,0.3-0.3,0.5C39.5,20,39.6,20.2,39.7,20.4L39.7,20.4z
			 M39.8,20.3L39.8,20.3L39.8,20.3L39.8,20.3z"/>
		<path class="st6" d="M42.3,26.5c-0.1,0.2-0.2,0.3-0.2,0.5l0,0c0.1,0.4,0.4,0.6,0.7,0.6c0,0,0.1,0,0.1,0c0.4-0.1,0.7-0.4,0.6-0.8
			c0-0.4-0.4-0.7-0.8-0.6C42.6,26.2,42.4,26.3,42.3,26.5z"/>
		<path class="st6" d="M41.7,24.7L41.7,24.7c0.1,0.3,0.4,0.5,0.7,0.5c0.1,0,0.1,0,0.2,0c0.4-0.1,0.6-0.5,0.5-0.9
			c-0.1-0.2-0.2-0.3-0.3-0.4c-0.2-0.1-0.4-0.1-0.6-0.1C41.8,23.9,41.6,24.3,41.7,24.7z"/>
		<path class="st6" d="M40.8,21.9c-0.1,0.2-0.1,0.4,0,0.6l0,0c0.1,0.2,0.4,0.4,0.7,0.4c0.1,0,0.2,0,0.3-0.1c0.3-0.2,0.5-0.5,0.4-0.8
			l0,0l0-0.1c0,0,0,0,0,0l-0.1-0.1l0,0c-0.1-0.1-0.2-0.2-0.3-0.3c-0.2-0.1-0.4-0.1-0.6,0C41,21.6,40.9,21.7,40.8,21.9z"/>
		<path class="st6" d="M38.2,18.6c0.1,0.1,0.3,0.2,0.5,0.2c0.2,0,0.4-0.1,0.5-0.2c0.3-0.3,0.3-0.7,0-1c-0.3-0.3-0.7-0.3-1,0
			C37.9,17.8,37.9,18.2,38.2,18.6L38.2,18.6z M38.3,18.5L38.3,18.5L38.3,18.5L38.3,18.5z"/>
		<path class="st6" d="M43,28.7L43,28.7C43,28.7,43,28.7,43,28.7c-0.4,0-0.7,0.3-0.7,0.7c0,0.4,0.3,0.7,0.7,0.8c0,0,0,0,0,0
			c0.4,0,0.7-0.3,0.7-0.7l0,0C43.7,29,43.4,28.7,43,28.7z"/>
		<path class="st6" d="M34.1,14.7C34,14.8,34,15,34.1,15.2c0.1,0.2,0.2,0.3,0.3,0.4l0,0c0.1,0.1,0.2,0.1,0.3,0.1
			c0.3,0,0.5-0.1,0.6-0.4c0.2-0.3,0.1-0.7-0.2-0.9l0,0l-0.1-0.1c0,0,0,0,0,0L35,14.3l0,0C34.7,14.2,34.3,14.4,34.1,14.7z"/>
		<path class="st6" d="M36.4,17c0.1,0.1,0.3,0.1,0.4,0.1c0.2,0,0.4-0.1,0.6-0.3c0.1-0.2,0.2-0.3,0.1-0.5c0-0.2-0.1-0.4-0.3-0.5
			c-0.3-0.2-0.8-0.2-1,0.1c-0.1,0.2-0.2,0.3-0.1,0.5C36.2,16.7,36.2,16.8,36.4,17L36.4,17z"/>
		<path class="st6" d="M48.1,37.7l-2.8-2.8c-0.3-0.3-0.6-0.4-1-0.4c-0.4,0-0.7,0.1-1,0.4l-0.1-0.1c-0.2-0.2-0.4-0.5-0.5-0.7
			c0,0,0-0.1,0-0.1c-0.1-0.2-0.1-0.5-0.1-0.8v-0.6c0,0,0,0,0,0c0.4,0.1,0.8-0.2,0.8-0.6c0.1-0.4-0.2-0.8-0.6-0.9c-0.1,0-0.2,0-0.3,0
			c-0.1-0.8-0.4-1.6-1-2.1l-2.7-2.7c-0.6-0.6-1.5-1-2.4-1c-0.7,0-1.3,0.2-1.8,0.5l-0.2-0.2v-6.8c0-0.9-0.3-1.7-0.9-2.3
			c-0.4-0.4-0.6-0.9-0.6-1.5v-0.4c0.7,0,1.3-0.7,1.3-1.4v-4c0-0.8-0.6-1.4-1.4-1.4H21.8c-0.8,0-1.4,0.6-1.4,1.4v4
			c0,0.8,0.6,1.4,1.4,1.4v0.1c0,0.6-0.2,1.2-0.7,1.6l-1.2,1.2c-0.7,0.7-1,1.5-1,2.5V24c0,0.5,0.1,0.9,0.3,1.3c-0.7,0.1-1.4,0.4-2,1
			L14.5,29c-0.7,0.7-1,1.5-1,2.5v1.7c0,0.6-0.2,1.2-0.7,1.6l-0.1,0.1c-0.3-0.2-0.6-0.4-1-0.4c-0.4,0-0.7,0.1-1,0.4l-2.8,2.8
			c-0.5,0.5-0.5,1.4,0,2l1,1c0.1,0.1,0.3,0.2,0.5,0.2c0,0,0,0,0,0c0.2,0,0.4-0.1,0.5-0.2c0.3-0.3,0.3-0.7,0-1L9,38.7l2.7-2.7
			l7.8,7.8l-2.7,2.7l-5.2-5.2c-0.3-0.3-0.7-0.3-1,0c-0.3,0.3-0.3,0.7,0,1l5.2,5.2c0.3,0.3,0.6,0.4,1,0.4c0.4,0,0.7-0.1,1-0.4
			l2.8-2.8c0.5-0.5,0.5-1.4,0.1-1.9l0.3-0.3c0.4-0.4,0.9-0.6,1.5-0.7c0.9-0.1,1.7-0.4,2.3-1l2.5-2.5c0.7-0.2,1.3-0.8,1.5-1.5
			c0.2,0.1,0.5,0.1,0.8,0.1c1.2,0,2.2-1,2.2-2.2v-1.2c0.2,0.1,0.5,0.1,0.7,0.1c1.2,0,2.2-1,2.2-2.2v-3.9l1.6,1.6
			c0.3,0.3,0.8,0.3,1,0c0.3-0.3,0.3-0.7,0-1l-1.4-1.4c0.2-0.1,0.5-0.2,0.8-0.2c0.5,0,1,0.2,1.3,0.6l2.7,2.7c0.4,0.4,0.6,0.9,0.6,1.5
			v1.7c0,1,0.4,1.9,1.1,2.6l0.1,0.1l-5.9,5.9l-0.3-0.3c-0.6-0.6-1.5-1-2.4-1.1c-0.5,0-1-0.2-1.3-0.6l-2-1.9c-0.3-0.3-0.7-0.3-1,0
			c-0.1,0.1-0.2,0.3-0.2,0.5c0,0.2,0.1,0.4,0.2,0.5l2,1.9c0.6,0.6,1.4,1,2.3,1c0.5,0,1.1,0.3,1.5,0.7l0,0c0,0,0,0,0.1,0.1l0.2,0.2
			c-0.5,0.5-0.5,1.4,0.1,1.9l2.8,2.8c0.3,0.3,0.6,0.4,1,0.4c0.4,0,0.7-0.1,1-0.4l7.9-7.9C48.6,39.2,48.6,38.3,48.1,37.7z M23.6,39.9
			L23.6,39.9c-0.4,0.4-0.8,0.6-1.3,0.6c-0.9,0.1-1.8,0.4-2.4,1.1l-0.3,0.3l-5.9-5.9l0.1-0.1c0.7-0.7,1.1-1.6,1.1-2.6v-1.7
			c0-0.5,0.2-1.1,0.6-1.5l2.7-2.7c0.4-0.4,0.8-0.6,1.3-0.6c0.3,0,0.5,0.1,0.8,0.2l-1.4,1.4c-0.3,0.3-0.3,0.7,0,1
			c0.3,0.3,0.8,0.3,1,0l1.6-1.6v7.1c0,1.2,1,2.2,2.2,2.2c0.3,0,0.5-0.1,0.8-0.1c0.1,0.5,0.5,0.9,0.9,1.2L23.6,39.9z M33,31.6
			c0,0.4-0.3,0.7-0.7,0.7c-0.4,0-0.7-0.3-0.7-0.7V25c0-0.4-0.3-0.7-0.7-0.7s-0.7,0.3-0.7,0.7v9.9c0,0.4-0.3,0.7-0.7,0.7
			c-0.3,0-0.6-0.2-0.7-0.6V25c0-0.4-0.3-0.7-0.7-0.7c-0.1,0-0.2,0-0.4,0.1c-0.2,0.1-0.4,0.4-0.4,0.6v9.9c0,0.1,0,0.2,0,0.2v1.2
			c0,0.4-0.3,0.7-0.7,0.7c-0.4,0-0.7-0.3-0.7-0.7V25c0-0.4-0.3-0.7-0.7-0.7c-0.4,0-0.7,0.3-0.7,0.7v9.9c0,0.4-0.3,0.7-0.7,0.7
			c-0.4,0-0.7-0.3-0.7-0.7V23.8c0-0.4-0.3-0.7-0.7-0.7s-0.7,0.3-0.7,0.7v2c0,0,0,0,0,0c-0.7-0.3-1.2-1-1.2-1.8v-3.8
			c0-0.5,0.2-1.1,0.6-1.5l1.2-1.2c0.7-0.7,1.1-1.6,1.1-2.6v-0.1h1.1c0.4,0,0.7-0.3,0.7-0.7s-0.3-0.7-0.7-0.7h-2.4V9.5h11v3.8h-5.8
			c-0.4,0-0.7,0.3-0.7,0.7s0.3,0.7,0.7,0.7h4.5v0.4c0,0.9,0.3,1.8,0.9,2.5c0.3,0.4,0.5,0.9,0.5,1.4V31.6z M39.2,46.5l-2.7-2.7
			l7.8-7.8l2.7,2.7L39.2,46.5z"/>
		<path class="st6" d="M23.7,10.6c-0.4,0-0.8,0.3-0.8,0.8s0.3,0.8,0.8,0.8c0.4,0,0.8-0.3,0.8-0.8S24.1,10.6,23.7,10.6z"/>
		<path class="st6" d="M43.7,38.5c0,0.4,0.3,0.8,0.8,0.8c0.4,0,0.8-0.3,0.8-0.8s-0.3-0.8-0.8-0.8C44.1,37.8,43.7,38.1,43.7,38.5z"/>
		<path class="st6" d="M17.7,44c0-0.4-0.3-0.8-0.8-0.8c-0.4,0-0.8,0.3-0.8,0.8c0,0.4,0.3,0.8,0.8,0.8C17.4,44.7,17.7,44.4,17.7,44z"
			/>
	</g>
</g>
</svg>
