<svg width="360" height="400" viewBox="0 0 360 400" fill="none" xmlns="http://www.w3.org/2000/svg">
<mask id="mask0_4293_5442" style="mask-type:luminance" maskUnits="userSpaceOnUse" x="-40" y="0" width="400" height="400">
<path d="M360 0H-40V400H360V0Z" fill="white"/>
</mask>
<g mask="url(#mask0_4293_5442)">
<g opacity="0.4">
<path d="M667.001 25.5H-41.1992" stroke="#C4D8CC" stroke-width="0.6014" stroke-miterlimit="10"/>
<path d="M667.001 5.5H-41.1992" stroke="#C4D8CC" stroke-width="0.6014" stroke-miterlimit="10"/>
<path d="M667.001 44.5H-41.1992" stroke="#C4D8CC" stroke-width="0.6014" stroke-miterlimit="10"/>
<path d="M667.001 63.5H-41.1992" stroke="#C4D8CC" stroke-width="0.6014" stroke-miterlimit="10"/>
<path d="M667.001 101.5H-41.1992" stroke="#C4D8CC" stroke-width="0.6014" stroke-miterlimit="10"/>
<path d="M667.001 82.5H-41.1992" stroke="#C4D8CC" stroke-width="0.6014" stroke-miterlimit="10"/>
<path d="M667.001 120.5H-41.1992" stroke="#C4D8CC" stroke-width="0.6014" stroke-miterlimit="10"/>
<path d="M667.001 140.5H-41.1992" stroke="#C4D8CC" stroke-width="0.6014" stroke-miterlimit="10"/>
<path d="M667.001 159.5H-41.1992" stroke="#C4D8CC" stroke-width="0.6014" stroke-miterlimit="10"/>
<path d="M667.001 178.5H-41.1992" stroke="#C4D8CC" stroke-width="0.6014" stroke-miterlimit="10"/>
<path d="M667.001 197.5H-41.1992" stroke="#C4D8CC" stroke-width="0.6014" stroke-miterlimit="10"/>
<path d="M667.001 235.5H-41.1992" stroke="#C4D8CC" stroke-width="0.6014" stroke-miterlimit="10"/>
<path d="M667.001 216.5H-41.1992" stroke="#C4D8CC" stroke-width="0.6014" stroke-miterlimit="10"/>
<path d="M667.001 254.5H-41.1992" stroke="#C4D8CC" stroke-width="0.6014" stroke-miterlimit="10"/>
<path d="M667.001 274.5H-41.1992" stroke="#C4D8CC" stroke-width="0.6014" stroke-miterlimit="10"/>
<path d="M667.001 293.5H-41.1992" stroke="#C4D8CC" stroke-width="0.6014" stroke-miterlimit="10"/>
<path d="M667.001 312.5H-41.1992" stroke="#C4D8CC" stroke-width="0.6014" stroke-miterlimit="10"/>
<path d="M667.001 331.5H-41.1992" stroke="#C4D8CC" stroke-width="0.6014" stroke-miterlimit="10"/>
<path d="M667.001 370H-41.1992" stroke="#C4D8CC" stroke-width="0.6014" stroke-miterlimit="10"/>
<path d="M667.001 350.5H-41.1992" stroke="#C4D8CC" stroke-width="0.6014" stroke-miterlimit="10"/>
<path d="M667.001 388.5H-41.1992" stroke="#C4D8CC" stroke-width="0.6014" stroke-miterlimit="10"/>
<path d="M7.90039 0V413.9" stroke="#C4D8CC" stroke-width="0.6" stroke-miterlimit="10"/>
<path d="M27.9004 0V413.9" stroke="#C4D8CC" stroke-width="0.6" stroke-miterlimit="10"/>
<path d="M46.9004 0V413.9" stroke="#C4D8CC" stroke-width="0.6" stroke-miterlimit="10"/>
<path d="M66.9004 0V413.9" stroke="#C4D8CC" stroke-width="0.6" stroke-miterlimit="10"/>
<path d="M86.9004 0V413.9" stroke="#C4D8CC" stroke-width="0.6" stroke-miterlimit="10"/>
<path d="M106.9 0V413.9" stroke="#C4D8CC" stroke-width="0.6" stroke-miterlimit="10"/>
<path d="M126.9 0V413.9" stroke="#C4D8CC" stroke-width="0.6" stroke-miterlimit="10"/>
<path d="M146.9 0V413.9" stroke="#C4D8CC" stroke-width="0.6" stroke-miterlimit="10"/>
<path d="M165.9 0V413.9" stroke="#C4D8CC" stroke-width="0.6" stroke-miterlimit="10"/>
<path d="M185.9 0V413.9" stroke="#C4D8CC" stroke-width="0.6" stroke-miterlimit="10"/>
<path d="M205.9 0V413.9" stroke="#C4D8CC" stroke-width="0.6" stroke-miterlimit="10"/>
<path d="M225.9 0V413.9" stroke="#C4D8CC" stroke-width="0.6" stroke-miterlimit="10"/>
<path d="M244.9 0V413.9" stroke="#C4D8CC" stroke-width="0.6" stroke-miterlimit="10"/>
<path d="M264.9 0V413.9" stroke="#C4D8CC" stroke-width="0.6" stroke-miterlimit="10"/>
<path d="M284.9 0V413.9" stroke="#C4D8CC" stroke-width="0.6" stroke-miterlimit="10"/>
<path d="M304.9 0V413.9" stroke="#C4D8CC" stroke-width="0.6" stroke-miterlimit="10"/>
<path d="M323.9 0V413.9" stroke="#C4D8CC" stroke-width="0.6" stroke-miterlimit="10"/>
<path d="M343.9 0V413.9" stroke="#C4D8CC" stroke-width="0.6" stroke-miterlimit="10"/>
</g>
</g>
</svg>
