<?xml version="1.0" encoding="utf-8"?>
<!-- Generator: Adobe Illustrator 25.0.0, SVG Export Plug-In . SVG Version: 6.00 Build 0)  -->
<svg version="1.1" id="Layer_1" xmlns="http://www.w3.org/2000/svg" xmlns:xlink="http://www.w3.org/1999/xlink" x="0px" y="0px"
	 viewBox="0 0 371 300" style="enable-background:new 0 0 371 300;" xml:space="preserve">
<style type="text/css">
	.st0{fill:#FAD207;}
	.st1{fill:#FAA515;}
	.st2{fill:#FF492C;}
	.st3{fill:#35414D;}
	.st4{fill:#43A2FF;}
	.st5{fill:#2A93FC;}
	.st6{fill:#4FE88E;}
	.st7{fill:#3FC977;}
	.st8{fill:#FDC72E;}
	.st9{fill:#F9AC00;}
	.st10{fill:#FDA02F;}
	.st11{fill:#E68207;}
	.st12{fill:#FB545C;}
	.st13{fill:#F0414A;}
	.st14{fill:#2B6E37;}
	.st15{fill:#FDDD45;}
	.st16{fill:#F8C52D;}
	.st17{fill:#FF4755;}
</style>
<g>
	<g id="g2476_2_">
		<g id="g2482_2_" transform="translate(345.5,141.5)">
			<g id="path2484_2_">
				<path class="st0" d="M-21-39.1l-25.2,2.8l-24.9-2.8c11.8,0,15.9-8.4,16.7-19.6c0.1-1.5,0.2-3,0.2-4.6v-1.1
					c2.6,0.6,5.4,0.9,8.4,0.9c2.9,0,5.6-0.3,8.2-0.8v1c0,1.6,0,3.1,0.1,4.6C-36.7-47.5-32.8-39.1-21-39.1"/>
			</g>
		</g>
		<g id="g2486_2_" transform="translate(379.5,120.3203)">
			<g id="path2488_2_">
				<path class="st0" d="M-45.6-12v9.4l-34.2,0.3l-34.8-0.3V-12c0-3.2,2.6-5.9,5.9-5.9h57.2c2.6,0,4.9,1.7,5.6,4.1
					C-45.7-13.2-45.6-12.6-45.6-12"/>
			</g>
		</g>
		<g id="g2490_2_" transform="translate(378.5801,126.5)">
			<g id="path2492_2_">
				<path class="st1" d="M-44.9-19.9h-61.8c-1.5,0-2.8,1.2-2.8,2.8v8.3h-4.2v-9.4c0-3.2,2.6-5.9,5.9-5.9h57.2
					C-47.9-24.1-45.6-22.3-44.9-19.9"/>
			</g>
		</g>
		<g id="g2494_2_" transform="translate(286.04,212.1299)">
			<g id="path2496_2_">
				<path class="st1" d="M22-129.2c-2.7,0.5-5.5,0.7-8.3,0.7c-3,0-5.9-0.3-8.6-0.8c0.1-1.5,0.2-3,0.2-4.6v-1.1l8.4-0.3l8.2,0.4v1
					C21.9-132.3,21.9-130.7,22-129.2"/>
			</g>
		</g>
		<g id="g2498_2_" transform="translate(504.5,403)">
			<g id="path2500_2_">
				<path class="st0" d="M-136-372.9c0,20.5-16.7,37.2-37.2,37.2h-5.4c2.4-2.5,4.5-5.3,6.3-8.3c14.1-0.4,25.8-11,27.8-24.7h-18.9
					c0.6-3,1-5.8,1.3-8.3h22C-137.8-377-136-375.1-136-372.9"/>
			</g>
		</g>
		<g id="g2502_2_" transform="translate(398.0801,302.3301)">
			<g id="path2504_2_">
				<path class="st1" d="M-59-244.4c-0.7,1.3-1.4,2.6-2.1,3.9c-1.1,1.9-2.4,3.7-3.7,5.4c-0.6,0-1.3,0.1-1.9,0.1h-5.4l0.6-4l5.7-4.3
					C-65.9-243.3-61.2-243.7-59-244.4"/>
			</g>
		</g>
		<g id="g2506_2_" transform="translate(430.1201,418)">
			<g id="path2508_2_">
				<path class="st1" d="M-82.2-392c0,0.2-0.1,0.4-0.1,0.6c-0.3,2.6-0.7,5.1-1.2,7.6H-89l-2-4.1l3.3-4.1H-82.2z"/>
			</g>
		</g>
		<g id="g2510_2_" transform="translate(504.5,403)">
			<g id="path2512_2_">
				<path class="st0" d="M-136-372.9c0,19.9-15.7,36.1-35.3,37.1c1.3-1.7,2.5-3.5,3.7-5.4c0.7-1.2,1.5-2.5,2.1-3.9
					c10.9-3,19.2-12.3,20.9-23.7h-13.2c0.5-2.5,0.8-5.1,1.2-7.6c0-0.2,0-0.4,0.1-0.6h16.4C-137.8-377-136-375.1-136-372.9"/>
			</g>
		</g>
		<g id="g2514_2_" transform="translate(161.5,268.5)">
			<g id="path2516_2_">
				<path class="st0" d="M112.1-201.2h-5.4c-20.5,0-37.2-16.7-37.2-37.2c0-2.3,1.9-4.1,4.2-4.1h22c0.3,2.5,0.7,5.3,1.3,8.3H78
					c2,13.7,13.6,24.3,27.8,24.7C107.6-206.5,109.7-203.7,112.1-201.2"/>
			</g>
		</g>
		<g id="g2518_2_" transform="translate(106.6602,388)">
			<g id="path2520_2_">
				<path class="st1" d="M151.7-353.7h-5.6c-0.5-2.5-0.8-5.1-1.2-7.6c0-0.2,0-0.4-0.1-0.6h5.6l3.3,4.2L151.7-353.7z"/>
			</g>
		</g>
		<g id="g2522_2_" transform="translate(161.5,268.5)">
			<g id="path2524_2_">
				<path class="st1" d="M112.1-201.2h-5.4c-0.7,0-1.3,0-1.9-0.1c-1.3-1.7-2.5-3.5-3.7-5.4c-0.7-1.2-1.5-2.5-2.1-3.9
					c2.2,0.6,6.9,1,6.9,1l5.2,3.7L112.1-201.2z"/>
			</g>
		</g>
		<g id="g2534_2_" transform="translate(412.5,453.5)">
			<g id="path2536_2_">
				<path class="st0" d="M-69.4-437.3c0,0,0,2.1-0.3,5.5c-0.1,1.3-0.2,2.7-0.4,4.3c-0.3,2.5-0.7,5.3-1.3,8.3
					c-1.5,7.8-4.2,16.9-8.9,24.7c-1.8,3-3.9,5.8-6.3,8.3c-4.6,4.8-10.5,8.4-18,10c-2.5,0.5-5.3,0.8-8.2,0.8c-3,0-5.8-0.3-8.4-0.9
					c-7.3-1.6-13.1-5.2-17.7-9.9c-2.4-2.5-4.5-5.3-6.3-8.3c-4.7-7.9-7.4-17-8.9-24.7c-0.6-3-1-5.8-1.3-8.3c-0.2-1.6-0.3-3-0.4-4.3
					c-0.3-3.4-0.3-5.5-0.3-5.5H-69.4z"/>
			</g>
		</g>
		<g id="g2538_2_" transform="translate(261.04,409.3379)">
			<g id="path2540_2_">
				<path class="st2" d="M40.1-381l3.4,10.5h11c1.4,0,2,1.8,0.9,2.7l-8.9,6.5l3.4,10.5c0.4,1.3-1.1,2.5-2.3,1.6l-8.9-6.5l-8.9,6.5
					c-1.1,0.8-2.7-0.3-2.3-1.6l3.4-10.5l-8.9-6.5c-1.2-0.8-0.6-2.7,0.9-2.7h11l3.4-10.5C37.7-382.3,39.7-382.3,40.1-381"/>
			</g>
		</g>
		<g id="g2546_2_" transform="translate(412.5,453.5)">
			<g id="path2548_2_">
				<path class="st1" d="M-69.4-437.3l-45.1-2.8l-36,2.8h-5.5c0,0,0,2.1,0.3,5.5c0.1,1.3,0.2,2.7,0.4,4.3c0.3,2.5,0.7,5.3,1.3,8.3
					c1.5,7.8,4.2,16.9,8.9,24.7c1.8,3,3.9,5.8,6.3,8.3c4.6,4.7,10.4,8.4,17.7,9.9c2.6,0.6,5.4,0.9,8.4,0.9c0.9,0,1.9,0,2.8-0.1
					c-2-0.1-3.9-0.4-5.7-0.8c-7.3-1.6-13.1-5.2-17.7-9.9c-2.4-2.5-4.5-5.3-6.3-8.3c-4.7-7.9-7.4-17-8.9-24.7c-0.6-3-1-5.8-1.3-8.3
					c0,0,0,0,0,0c-0.3-2.3,1.5-4.2,3.8-4.2h76.4C-69.4-435.2-69.4-437.3-69.4-437.3"/>
			</g>
		</g>
		<g id="g2550_2_" transform="translate(99,504.5)">
			<g id="path2552_2_">
				<path class="st0" d="M157.3-502.4h86.9c3.9,0,7.1,3.2,7.1,7.1c0,3.9-3.2,7.1-7.1,7.1h-86.9c-3.9,0-7.1-3.2-7.1-7.1
					C150.2-499.3,153.4-502.4,157.3-502.4"/>
			</g>
		</g>
		<g id="g2554_2_" transform="translate(119,453.5)">
			<g id="path2556_2_">
				<path class="st1" d="M142.8-437.3h-5.5c-3.9,0-7.1-3.2-7.1-7.1c0-1.9,0.8-3.7,2.1-5c1.3-1.3,3-2.1,5-2.1h5.5
					c-1.9,0-3.7,0.8-5,2.1c-1.3,1.3-2.1,3-2.1,5C135.7-440.5,138.9-437.3,142.8-437.3"/>
			</g>
		</g>
		<g id="g2558_2_" transform="translate(164,453.5)">
			<g id="path2560_2_">
				<path class="st3" d="M179.2-435.2h-59.4c-1.1,0-2.1-0.9-2.1-2.1c0-1.1,0.9-2.1,2.1-2.1h59.4c2.7,0,5-2.2,5-5s-2.2-5-5-5H92.3
					c-2.7,0-5,2.2-5,5s2.2,5,5,5h18c1.1,0,2.1,0.9,2.1,2.1c0,1.1-0.9,2.1-2.1,2.1h-18c-5,0-9.1-4.1-9.1-9.1c0-5,4.1-9.1,9.1-9.1
					h86.9c5,0,9.1,4.1,9.1,9.1C188.3-439.3,184.3-435.2,179.2-435.2z"/>
			</g>
		</g>
		<g id="g2562_2_" transform="translate(418.5,86.5)">
			<g id="path2564_2_">
				<path class="st3" d="M-82.5,33.5h-73.2c-1.3,0-2.4-1.1-2.4-2.4c0-1.3,1.1-2.4,2.4-2.4h73.2c1.3,0,2.4,1.1,2.4,2.4
					C-80.1,32.5-81.2,33.5-82.5,33.5z"/>
			</g>
		</g>
		<g id="g2566_2_" transform="translate(306.7598,238.7617)">
			<g id="path2568_2_">
				<path class="st3" d="M-7-158.6c-18.7,0-32.5-11.2-39.9-32.4c-5.5-15.6-5.5-31-5.5-31.7c0-1.1,0.9-2.1,2.1-2.1h0
					c1.1,0,2.1,0.9,2.1,2.1c0,0.6,0.5,59.9,41.3,59.9c4.8,0,9.3-0.8,13.3-2.4c1.1-0.4,2.3,0.1,2.7,1.2c0.4,1.1-0.1,2.3-1.2,2.7
					C3.3-159.5-1.7-158.6-7-158.6z"/>
			</g>
		</g>
		<g id="g2570_2_" transform="translate(412.5,453.5)">
			<g id="path2572_2_">
				<path class="st3" d="M-90.3-380.7c-0.6,0-1.2-0.3-1.6-0.8c-0.7-0.9-0.6-2.2,0.3-2.9c19.8-15.6,20.1-52.5,20.1-52.9
					c0-1.1,0.9-2.1,2.1-2.1c0,0,0,0,0,0c1.1,0,2.1,0.9,2.1,2.1c0,1.6-0.2,39.3-21.7,56.2C-89.4-380.9-89.9-380.7-90.3-380.7z"/>
			</g>
		</g>
		<g id="g2574_2_" transform="translate(130.5,86.5)">
			<g id="path2576_2_">
				<path class="st3" d="M203.4,33.2c-1.1,0-2.1-0.9-2.1-2.1v-9.4c0-2.1-1.7-3.8-3.8-3.8h-57.2c-2.1,0-3.8,1.7-3.8,3.8v9.4
					c0,1.1-0.9,2.1-2.1,2.1c-1.1,0-2.1-0.9-2.1-2.1v-9.4c0-4.4,3.6-7.9,7.9-7.9h57.2c4.4,0,7.9,3.6,7.9,7.9v9.4
					C205.5,32.3,204.6,33.2,203.4,33.2z"/>
			</g>
		</g>
		<g id="g2578_2_" transform="translate(225.5,228.8086)">
			<g id="path2580_2_">
				<path class="st3" d="M48.9-124.3c-1.1,0-2.1-0.9-2.1-2.1c0-1.1,0.9-2.1,2.1-2.1c10.2,0,14.8-6.8,14.8-22.1
					c0-1.1,0.9-2.1,2.1-2.1s2.1,0.9,2.1,2.1C67.9-133.1,61.5-124.3,48.9-124.3z"/>
			</g>
		</g>
		<g id="g2582_2_" transform="translate(285.5,228.8086)">
			<g id="path2584_2_">
				<path class="st3" d="M39-124.3c-18.7,0-18.7-19.7-18.7-26.2c0-1.1,0.9-2.1,2.1-2.1s2.1,0.9,2.1,2.1c0,15.3,4.5,22.1,14.5,22.1
					c1.1,0,2.1,0.9,2.1,2.1C41.1-125.2,40.2-124.3,39-124.3z"/>
			</g>
		</g>
		<g id="g2586_2_" transform="translate(261.04,409.3379)">
			<g id="path2588_2_">
				<path class="st3" d="M48.5-346.9c-0.7,0-1.5-0.2-2.1-0.7l-7.7-5.6l-7.7,5.6c-1.2,0.9-2.9,0.9-4.2,0c-1.2-0.9-1.8-2.5-1.3-4
					l2.9-9l-7.7-5.6c-1.2-0.9-1.8-2.5-1.3-4c0.5-1.5,1.8-2.4,3.4-2.4h9.5l2.9-9c0.5-1.5,1.8-2.4,3.4-2.4c0,0,0,0,0,0
					c1.5,0,2.9,1,3.4,2.4c0,0,0,0,0,0l2.9,9h9.5c1.5,0,2.9,1,3.4,2.4c0.5,1.5,0,3.1-1.3,4l-7.7,5.6l2.9,9c0.5,1.5,0,3.1-1.3,4
					C49.9-347.2,49.2-346.9,48.5-346.9z M24.8-368.4l7.4,5.4c0.7,0.5,1,1.5,0.8,2.3l-2.8,8.7l7.4-5.4c0.7-0.5,1.7-0.5,2.4,0l7.4,5.4
					l-2.8-8.7c-0.3-0.9,0-1.8,0.8-2.3l7.4-5.4h-9.1c-0.9,0-1.7-0.6-2-1.4l-2.8-8.7l-2.8,8.7c-0.3,0.9-1.1,1.4-2,1.4H24.8z
					 M38.1-380.3C38.1-380.3,38.1-380.3,38.1-380.3L38.1-380.3L38.1-380.3z"/>
			</g>
		</g>
		<g id="g2590_2_" transform="translate(54.4004,301.0176)">
			<g id="path2592_2_">
				<path class="st3" d="M189.5-240.6c-0.5,0-1-0.2-1.4-0.5c-8.7-7.5-13.7-18.3-13.7-29.8c0-3.4,2.8-6.2,6.2-6.2h22
					c1.1,0,2.1,0.9,2.1,2.1c0,1.1-0.9,2.1-2.1,2.1h-22c-1.1,0-2.1,0.9-2.1,2.1c0,10.2,4.5,19.9,12.3,26.6c0.9,0.7,1,2.1,0.2,2.9
					C190.7-240.9,190.1-240.6,189.5-240.6z"/>
			</g>
		</g>
		<g id="g2594_2_" transform="translate(161.5,268.5)">
			<g id="path2596_2_">
				<path class="st3" d="M112.1-199.1h-5.4c-6,0-11.7-1.3-17.1-3.9c-1-0.5-1.5-1.7-1-2.8c0.5-1,1.7-1.5,2.8-1
					c4.8,2.3,9.9,3.5,15.2,3.5h5.4c1.1,0,2.1,0.9,2.1,2.1C114.1-200,113.2-199.1,112.1-199.1z"/>
			</g>
		</g>
		<g id="g2598_2_" transform="translate(106.667,388)">
			<g id="path2600_2_">
				<path class="st3" d="M160.6-326.9C160.6-326.9,160.6-326.9,160.6-326.9c-15.1-0.5-27.6-11.6-29.8-26.5c-0.1-0.6,0.1-1.2,0.5-1.7
					c0.4-0.5,1-0.7,1.6-0.7h18.9c1.1,0,2.1,0.9,2.1,2.1s-0.9,2.1-2.1,2.1h-16.3c2.8,11.7,13.1,20.2,25.3,20.6c1.1,0,2,1,2,2.1
					C162.7-327.8,161.7-326.9,160.6-326.9z"/>
			</g>
		</g>
		<g id="g2602_2_" transform="translate(350.5,268.5)">
			<g id="path2604_2_">
				<path class="st3" d="M-19.2-199.1h-5.4c-1.1,0-2.1-0.9-2.1-2.1c0-1.1,0.9-2.1,2.1-2.1h5.4C0.2-203.2,16-219,16-238.4
					c0-1.1-0.9-2.1-2.1-2.1h-22c-1.1,0-2.1-0.9-2.1-2.1c0-1.1,0.9-2.1,2.1-2.1h22c3.4,0,6.2,2.8,6.2,6.2
					C20.1-216.7,2.5-199.1-19.2-199.1z"/>
			</g>
		</g>
		<g id="g2606_2_" transform="translate(405.333,388)">
			<g id="path2608_2_">
				<path class="st3" d="M-73.1-326.9c-1.1,0-2-0.9-2.1-2c0-1.1,0.9-2.1,2-2.1c12.2-0.4,22.5-8.9,25.3-20.6h-16.3
					c-1.1,0-2.1-0.9-2.1-2.1s0.9-2.1,2.1-2.1h18.9c0.6,0,1.2,0.3,1.6,0.7c0.4,0.5,0.6,1.1,0.5,1.7C-45.5-338.5-58-327.4-73.1-326.9
					C-73.1-326.9-73.1-326.9-73.1-326.9z"/>
			</g>
		</g>
	</g>
	<g>
		<g>
			<path class="st4" d="M266.4,297.8c-1.8,0-3.2-1.4-3.2-3V122.3c0-1.7,1.5-3,3.2-3h66.7c1.8,0,3.2,1.4,3.2,3v172.5
				c0,1.7-1.5,3-3.2,3H266.4z"/>
			<path class="st3" d="M333.1,121.5c0.6,0,1,0.4,1,0.8v172.5c0,0.4-0.5,0.8-1,0.8h-66.7c-0.6,0-1-0.4-1-0.8V122.3
				c0-0.4,0.5-0.8,1-0.8H333.1 M333.1,117h-66.7c-3,0-5.5,2.4-5.5,5.3v172.5c0,2.9,2.5,5.3,5.5,5.3h66.7c3,0,5.5-2.4,5.5-5.3V122.3
				C338.6,119.4,336.1,117,333.1,117L333.1,117z"/>
		</g>
		<path class="st5" d="M314.6,121.5h19.6v174h-19.6V121.5z"/>
	</g>
	<g>
		<g>
			<path class="st6" d="M201.2,297.8c-1.8,0-3.2-1.4-3.2-3V148.2c0-1.7,1.5-3,3.2-3H268c1.8,0,3.2,1.4,3.2,3v146.5
				c0,1.7-1.5,3-3.2,3H201.2z"/>
			<path class="st3" d="M268,147.5c0.6,0,1,0.4,1,0.8v146.5c0,0.4-0.5,0.8-1,0.8h-66.7c-0.6,0-1-0.4-1-0.8V148.2
				c0-0.4,0.5-0.8,1-0.8H268 M268,143h-66.7c-3,0-5.5,2.4-5.5,5.3v146.5c0,2.9,2.5,5.3,5.5,5.3H268c3,0,5.5-2.4,5.5-5.3V148.2
				C273.5,145.3,271,143,268,143L268,143z"/>
		</g>
		<path class="st7" d="M249.4,147.5H269v148.1h-19.6V147.5z"/>
	</g>
	<g>
		<g>
			<path class="st8" d="M136.1,297.8c-1.8,0-3.2-1.4-3.2-3V174.2c0-1.7,1.5-3,3.2-3h66.7c1.8,0,3.2,1.4,3.2,3v120.5
				c0,1.7-1.5,3-3.2,3H136.1z"/>
			<path class="st3" d="M202.9,173.4c0.6,0,1,0.4,1,0.8v120.5c0,0.4-0.5,0.8-1,0.8h-66.7c-0.6,0-1-0.4-1-0.8V174.2
				c0-0.4,0.5-0.8,1-0.8H202.9 M202.9,168.9h-66.7c-3,0-5.5,2.4-5.5,5.3v120.5c0,2.9,2.5,5.3,5.5,5.3h66.7c3,0,5.5-2.4,5.5-5.3
				V174.2C208.3,171.3,205.9,168.9,202.9,168.9L202.9,168.9z"/>
		</g>
		<path class="st9" d="M184.3,173.4h19.6v122.1h-19.6V173.4z"/>
	</g>
	<g>
		<g>
			<path class="st10" d="M71,297.8c-1.8,0-3.2-1.4-3.2-3V206c0-1.7,1.5-3,3.2-3h66.7c1.8,0,3.2,1.4,3.2,3v88.8c0,1.7-1.5,3-3.2,3H71
				z"/>
			<path class="st3" d="M137.7,205.2c0.6,0,1,0.4,1,0.8v88.8c0,0.4-0.5,0.8-1,0.8H71c-0.6,0-1-0.4-1-0.8V206c0-0.4,0.5-0.8,1-0.8
				H137.7 M137.7,200.7H71c-3,0-5.5,2.4-5.5,5.3v88.8c0,2.9,2.5,5.3,5.5,5.3h66.7c3,0,5.5-2.4,5.5-5.3V206
				C143.2,203.1,140.7,200.7,137.7,200.7L137.7,200.7z"/>
		</g>
		<path class="st11" d="M119.2,205.2h19.6v90.4h-19.6L119.2,205.2z"/>
	</g>
	<g>
		<g>
			<path class="st12" d="M5.9,297.8c-1.8,0-3.2-1.4-3.2-3v-68.6c0-1.7,1.5-3,3.2-3h66.7c1.8,0,3.2,1.4,3.2,3v68.6c0,1.7-1.5,3-3.2,3
				H5.9z"/>
			<path class="st3" d="M72.6,225.3c0.6,0,1,0.4,1,0.8v68.6c0,0.4-0.5,0.8-1,0.8H5.9c-0.6,0-1-0.4-1-0.8v-68.6c0-0.4,0.5-0.8,1-0.8
				H72.6 M72.6,220.9H5.9c-3,0-5.5,2.4-5.5,5.3v68.6c0,2.9,2.5,5.3,5.5,5.3h66.7c3,0,5.5-2.4,5.5-5.3v-68.6
				C78.1,223.2,75.6,220.9,72.6,220.9L72.6,220.9z"/>
		</g>
		<path class="st13" d="M54,225.3h19.6v70.2H54V225.3z"/>
	</g>
	<g>
		<g>
			<g>
				<path class="st14" d="M302,132.1l4.4,6.3c0.3,0.5,0.8,0.8,1.3,1l7.4,2.3c1.4,0.4,2,2.1,1.1,3.3l-4.6,6.2c-0.3,0.5-0.5,1-0.5,1.6
					l0.1,7.7c0,1.5-1.4,2.5-2.8,2.1l-7.3-2.5c-0.5-0.2-1.1-0.2-1.7,0l-7.3,2.5c-1.4,0.5-2.9-0.6-2.8-2.1l0.1-7.7
					c0-0.6-0.2-1.1-0.5-1.6l-4.6-6.2c-0.9-1.2-0.3-2.9,1.1-3.3l7.4-2.3c0.5-0.2,1-0.5,1.3-1l4.4-6.3
					C299.3,130.9,301.1,130.9,302,132.1L302,132.1z"/>
			</g>
			<g>
				<path class="st14" d="M316.2,145l-4.6,6.2c-0.3,0.5-0.5,1-0.5,1.6l0.1,7.7c0,1.5-1.4,2.5-2.8,2.1l-7.3-2.5
					c-0.5-0.2-1.1-0.2-1.7,0l-7.3,2.5c-1.4,0.5-2.9-0.6-2.8-2.1l0-2.8c10.5-3.6,16.5-11.2,19.9-17.8l6,1.8
					C316.6,142.1,317.1,143.9,316.2,145z"/>
			</g>
		</g>
		<g>
			<g>
				<path class="st15" d="M301,128.6l4.4,6.3c0.3,0.5,0.8,0.8,1.3,1l7.4,2.3c1.4,0.4,2,2.1,1.1,3.3l-4.6,6.2c-0.3,0.5-0.5,1-0.5,1.6
					l0.1,7.7c0,1.5-1.4,2.5-2.8,2.1l-7.3-2.5c-0.5-0.2-1.1-0.2-1.7,0l-7.3,2.5c-1.4,0.5-2.9-0.6-2.8-2.1l0.1-7.7
					c0-0.6-0.2-1.1-0.5-1.6l-4.6-6.2c-0.9-1.2-0.3-2.9,1.1-3.3l7.4-2.3c0.5-0.2,1-0.5,1.3-1l4.4-6.3
					C298.4,127.3,300.2,127.3,301,128.6L301,128.6z"/>
			</g>
			<g>
				<path class="st16" d="M315.3,141.5l-4.6,6.2c-0.3,0.5-0.5,1-0.5,1.6l0.1,7.7c0,1.5-1.4,2.5-2.8,2.1l-7.3-2.5
					c-0.5-0.2-1.1-0.2-1.7,0l-7.3,2.5c-1.4,0.5-2.9-0.6-2.8-2.1l0-2.8c10.5-3.6,16.5-11.2,19.9-17.8l6,1.8
					C315.6,138.6,316.2,140.3,315.3,141.5z"/>
			</g>
		</g>
	</g>
	<g>
		<g>
			<path class="st5" d="M320.4,263.7h-13.3c-1.8,0-3.2-1.5-3.2-3.3c0-1.8,1.4-3.3,3.2-3.3h13.3c1.8,0,3.2,1.5,3.2,3.3
				C323.7,262.3,322.2,263.7,320.4,263.7z"/>
		</g>
		<g>
			<path class="st5" d="M320.4,275h-33c-1.8,0-3.2-1.5-3.2-3.3c0-1.8,1.4-3.3,3.2-3.3h33c1.8,0,3.2,1.5,3.2,3.3
				C323.7,273.5,322.2,275,320.4,275z"/>
		</g>
	</g>
	<g>
		<g id="g6280_1_" transform="translate(485.666,504.4082)">
			<g id="path6282_1_">
				<path class="st17" d="M-267.1-441.1l-31.5,9.8l9.6,9.1l-24,25.4l-16.7-10.3c-2.9-1.8-6.5-1.3-8.8,1.2l-53.8,56.8l-16.3-8.3
					c-2.8-1.4-6.2-0.8-8.4,1.4l-43.3,45.8l10.3,9.7l39.7-41.9l16.3,8.3c2.8,1.4,6.2,0.8,8.4-1.4l53.5-56.5l16.7,10.3
					c2.9,1.8,6.5,1.3,8.8-1.2l28-29.6l9.6,9.1l8-32C-260.2-439-263.5-442.2-267.1-441.1"/>
			</g>
		</g>
		<g id="g6296_1_" transform="translate(485.6654,504.4081)">
			<g id="path6298_1_">
				<path class="st3" d="M-450-297.6c-0.7,0-1.5-0.3-2.1-0.8l-10.3-9.7c-0.6-0.5-0.9-1.3-0.9-2.1c0-0.8,0.3-1.6,0.8-2.1l43.3-45.8
					c3.1-3.2,7.9-4.1,11.9-2l14.3,7.3l52.2-55.1c3.3-3.4,8.6-4.1,12.6-1.7l14.6,9l20.3-21.4l-7.4-7c-0.8-0.7-1.1-1.8-0.9-2.9
					c0.2-1,1-1.9,2-2.2l31.5-9.8l0,0c2.7-0.8,5.5-0.2,7.6,1.8c2.1,1.9,2.9,4.7,2.2,7.5l-8,32c-0.3,1-1,1.9-2.1,2.2
					c-1,0.3-2.1,0-2.9-0.7l-7.4-7l-25.9,27.4c-3.3,3.4-8.6,4.1-12.6,1.7l-14.6-9l-51.8,54.7c-3.1,3.2-7.9,4.1-11.9,2l-14.3-7.3
					l-38.1,40.3C-448.5-297.9-449.3-297.6-450-297.6z M-456.1-310.5l5.9,5.6l37.6-39.7c0.9-1,2.4-1.2,3.5-0.6l16.3,8.3
					c1.6,0.8,3.6,0.5,4.8-0.8l53.5-56.5c1-1,2.5-1.2,3.8-0.5l16.7,10.3c1.6,1,3.8,0.7,5.1-0.7l28-29.6c1.1-1.2,3-1.3,4.2-0.1
					l5.9,5.6l6.8-27c0.2-0.9-0.3-1.5-0.5-1.7c-0.2-0.2-0.8-0.7-1.7-0.4v0l-26.6,8.2l5.9,5.5c1.2,1.1,1.3,3,0.1,4.2l-24,25.4
					c-1,1-2.5,1.2-3.8,0.5l-16.7-10.3c-1.6-1-3.8-0.7-5.1,0.7l-53.8,56.8c-0.9,1-2.4,1.2-3.5,0.6l-16.3-8.3
					c-1.6-0.8-3.6-0.5-4.8,0.8L-456.1-310.5z"/>
			</g>
		</g>
	</g>
</g>
</svg>
