<?xml version="1.0" encoding="utf-8"?>
<!-- Generator: Adobe Illustrator 25.0.0, SVG Export Plug-In . SVG Version: 6.00 Build 0)  -->
<svg version="1.1" id="Layer_1" xmlns="http://www.w3.org/2000/svg" xmlns:xlink="http://www.w3.org/1999/xlink" x="0px" y="0px"
	 viewBox="0 0 568 175" style="enable-background:new 0 0 568 175;" xml:space="preserve">
<style type="text/css">
	.st0{fill:#EC5664;}
	.st1{fill:#FFFFFF;}
	.st2{fill:#7BD8E8;}
	.st3{fill:#FFCF66;stroke:#35414D;stroke-width:2.0019;stroke-miterlimit:10;}
	.st4{fill:#35414D;}
	.st5{fill:#FFC66C;}
	.st6{fill:#FF5D5D;}
	.st7{fill:#FFE4CF;}
	.st8{fill:#4A696F;stroke:#35414D;stroke-width:2.7526;stroke-miterlimit:10;}
	.st9{fill:#384949;stroke:#35414D;stroke-width:2.7526;stroke-miterlimit:10;}
	.st10{fill:#D2C5C2;stroke:#35414D;stroke-width:2.7526;stroke-miterlimit:10;}
	.st11{fill:#DFD7D5;stroke:#35414D;stroke-width:2.7526;stroke-miterlimit:10;}
	.st12{fill:#FFCF66;stroke:#35414D;stroke-width:2.7526;stroke-miterlimit:10;}
	.st13{fill:#E8BA5D;stroke:#35414D;stroke-width:2.7526;stroke-miterlimit:10;}
</style>
<g>
	<g>
		<path class="st0" d="M565.9,4.1c0,0-0.4,11.7-5.3,25.4L540.5,9.4C554.2,4.5,565.9,4.1,565.9,4.1z"/>
		<path class="st1" d="M540.5,9.4l20.2,20.2c-3.2,8.9-8.2,18.8-16.2,26.8c-7.4,7.4-16.3,13.3-25.6,17.4l-22.5-22.5
			c2.7-6.2,6.6-12.9,11.6-19.2c1.8-2.2,3.7-4.4,5.8-6.4C521.7,17.6,531.5,12.6,540.5,9.4z"/>
		<path class="st2" d="M541.3,28.7c3.4,3.4,3.4,8.9,0,12.3c-3.4,3.4-8.9,3.4-12.3,0c-3.4-3.4-3.4-8.9,0-12.3
			C532.4,25.3,537.9,25.3,541.3,28.7z"/>
		<g>
			<path class="st0" d="M538.2,62.5c11.2,16.8-9.8,27.6-21.5,27.6c6.1-6.1,4.3-14.1,4.3-14.1l-2.3-2.3c6.2-2.7,12.9-6.6,19.2-11.6
				L538.2,62.5z"/>
			<path class="st0" d="M493.7,67.1l-0.4-0.4c-1-1-1.5-2.5-1.2-4c0.9-3.5,2.2-7.5,4.1-11.6l22.5,22.5c-4.1,1.8-8.1,3.2-11.6,4.1
				c-1.4,0.4-2.9-0.1-4-1.2l-0.4-0.4L493.7,67.1z"/>
			<path class="st0" d="M507.5,31.8l0.4,0.3c-5.1,6.3-8.9,12.9-11.6,19.2l-2.3-2.3c0,0-7.9-1.8-14.1,4.3
				C479.9,41.5,490.7,20.6,507.5,31.8z"/>
		</g>
		<path class="st3" d="M493.7,67.1l9.2,9.2c-0.7,2.6-2.2,5.3-4.6,7.7c-5.1,5.1-18.4,6.1-18.4,6.1s1.1-13.3,6.1-18.4
			C488.4,69.3,491.1,67.8,493.7,67.1z"/>
		<path class="st4" d="M513.7,58c-0.4,0-0.8-0.2-1.1-0.5c-0.6-0.6-0.6-1.7,0-2.3c0.3-0.3,0.7-0.5,1.1-0.5s0.8,0.2,1.1,0.5
			c0.6,0.6,0.6,1.7,0,2.3C514.6,57.8,514.2,58,513.7,58z"/>
		<path class="st4" d="M535.2,45.1c-2.8,0-5.3-1.1-7.3-3c-4-4-4-10.6,0-14.6c1.9-1.9,4.5-3,7.3-3c2.8,0,5.3,1.1,7.3,3
			c1.9,1.9,3,4.5,3,7.3c0,2.8-1.1,5.3-3,7.3C540.6,44.1,538,45.1,535.2,45.1C535.2,45.1,535.2,45.1,535.2,45.1z M535.2,27.8
			c-1.9,0-3.7,0.7-5,2.1c-2.8,2.8-2.8,7.2,0,10c1.3,1.3,3.1,2.1,5,2.1c1.9,0,3.7-0.7,5-2.1c1.3-1.3,2.1-3.1,2.1-5
			c0-1.9-0.7-3.7-2.1-5C538.9,28.5,537.1,27.8,535.2,27.8z"/>
		<path class="st4" d="M516.8,91.7c-0.7,0-1.2-0.4-1.5-1c-0.3-0.6-0.1-1.3,0.4-1.8c4.6-4.6,4.2-10.3,4-12c0-0.1-0.1-0.2-0.2-0.3
			l-0.8-0.8c-0.1-0.1-0.2-0.2-0.4-0.2c-0.1,0-0.1,0-0.2,0c-3.5,1.5-7.1,2.7-10.5,3.6c-0.4,0.1-0.9,0.2-1.3,0.2
			c-0.7,0-1.4-0.1-2.1-0.4c-0.1,0-0.1,0-0.2,0c-0.2,0-0.4,0.1-0.5,0.3c-0.9,2-2.3,4-4,5.7c-5.4,5.4-18.9,6.6-19.4,6.6
			c0,0-0.1,0-0.1,0c-0.4,0-0.8-0.2-1.1-0.5c-0.3-0.3-0.5-0.8-0.5-1.3c0-0.6,1.2-14,6.6-19.4c1.7-1.7,3.7-3.1,5.7-4
			c0.3-0.1,0.4-0.4,0.3-0.7c-0.4-1.1-0.5-2.3-0.2-3.4c0.9-3.4,2.1-6.9,3.6-10.5c0.1-0.2,0-0.4-0.1-0.6l-0.8-0.8
			c-0.1-0.1-0.2-0.1-0.3-0.2c-0.4-0.1-1-0.1-1.8-0.1c-2.7,0-6.7,0.7-10.1,4.1c-0.3,0.3-0.7,0.5-1.1,0.5c-0.2,0-0.4,0-0.6-0.1
			c-0.6-0.3-1-0.8-1-1.5c0-8.4,5-20.2,13.1-24.6c2.2-1.2,4.5-1.8,6.9-1.8c2.9,0,5.9,0.9,9,2.7c0.1,0.1,0.2,0.1,0.3,0.1
			c0.2,0,0.3-0.1,0.4-0.2c1.5-1.8,3.1-3.5,4.6-5c7.1-7.1,16.3-12.7,27.4-16.6c13.8-4.9,25.4-5.4,25.9-5.4l0.1,0
			c0.4,0,0.8,0.2,1.1,0.5c0.3,0.3,0.5,0.8,0.5,1.2c0,0.5-0.5,12.1-5.4,25.9c-3.9,11.1-9.5,20.3-16.6,27.4c-1.6,1.6-3.3,3.1-5,4.6
			c-0.2,0.2-0.3,0.5-0.1,0.7c4.1,6.9,2.8,12.4,0.9,15.8C537,86.7,525.2,91.7,516.8,91.7z M493.2,69c-0.1,0-0.1,0-0.2,0
			c-2,0.7-4,2.1-5.8,3.8c-3.4,3.4-4.9,11.4-5.4,14.7c0,0.2,0,0.3,0.2,0.5c0.1,0.1,0.2,0.2,0.4,0.2c0,0,0.1,0,0.1,0
			c3.3-0.5,11.3-2,14.7-5.4c1.7-1.7,3-3.7,3.8-5.8c0.1-0.2,0-0.4-0.1-0.6l-7.3-7.3C493.5,69.1,493.3,69,493.2,69z M537.5,64.7
			c-0.1,0-0.2,0-0.3,0.1c-4.6,3.5-9.6,6.5-14.8,9.1c-0.1,0.1-0.2,0.2-0.3,0.3c0,0.2,0,0.3,0.1,0.4c0,0,0.1,0.1,0.1,0.1
			c0.1,0.1,0.4,0.4,0.5,0.8c0.7,2.8,0.3,7.6-1.7,11.5c-0.1,0.2-0.1,0.4,0,0.6c0.1,0.1,0.3,0.2,0.4,0.2c0,0,0.1,0,0.1,0
			c6.2-1.3,13.9-5.1,16.9-10.9c2-3.7,1.8-7.8-0.5-12.1c-0.1-0.1-0.2-0.2-0.4-0.3C537.5,64.7,537.5,64.7,537.5,64.7z M497.1,54.5
			c0,0-0.1,0-0.1,0c-0.2,0-0.3,0.2-0.4,0.3c-1.1,2.8-2,5.6-2.7,8.4c-0.2,0.8,0.1,1.7,0.8,2.4l9.9,9.9c0.5,0.5,1.2,0.8,1.9,0.8
			c0.2,0,0.4,0,0.5-0.1c2.7-0.7,5.5-1.6,8.4-2.7c0.2-0.1,0.3-0.2,0.3-0.4c0-0.2,0-0.4-0.2-0.5l-18-18
			C497.4,54.5,497.2,54.5,497.1,54.5z M540,11.4c-0.1,0-0.1,0-0.2,0c-10,3.7-18.4,8.9-24.9,15.4c-2,2-3.9,4.1-5.7,6.3
			c-4.3,5.3-7.9,11.2-10.8,17.4c-0.1,0.2-0.1,0.5,0.1,0.6l20.4,20.4c0.1,0.1,0.2,0.2,0.4,0.2c0.1,0,0.2,0,0.2-0.1
			c6.3-2.9,12.1-6.5,17.4-10.8c2.2-1.8,4.3-3.7,6.3-5.7c6.5-6.5,11.7-14.9,15.4-24.9c0.1-0.2,0-0.4-0.1-0.6l-18.2-18.2
			C540.2,11.4,540.1,11.4,540,11.4z M498.3,30.2c-1.8,0-3.6,0.5-5.3,1.4c-5.7,3.1-9.6,10.7-10.9,16.9c0,0.2,0,0.4,0.2,0.6
			c0.1,0.1,0.2,0.1,0.3,0.1c0.1,0,0.2,0,0.3-0.1c3.2-1.7,6.3-2,8.4-2c1.8,0,3.1,0.3,3.1,0.3c0.3,0.1,0.6,0.2,0.8,0.5
			c0,0,0.1,0.1,0.1,0.1c0.1,0.1,0.2,0.1,0.3,0.1c0.1,0,0.1,0,0.2,0c0.2,0,0.3-0.1,0.3-0.3c2.5-5.2,5.6-10.2,9.1-14.8
			c0.1-0.1,0.1-0.3,0.1-0.5c0-0.2-0.1-0.3-0.3-0.4C502.7,30.8,500.4,30.2,498.3,30.2z M563.5,5.9c-3.6,0.3-10.8,1.3-19.2,3.9
			c-0.2,0.1-0.3,0.2-0.4,0.4c0,0.2,0,0.4,0.1,0.5l15.2,15.2c0.1,0.1,0.2,0.2,0.4,0.2c0,0,0.1,0,0.1,0c0.2,0,0.3-0.2,0.4-0.4
			c2.6-8.3,3.6-15.6,3.9-19.2c0-0.2,0-0.3-0.2-0.4C563.9,6,563.7,5.9,563.5,5.9C563.6,5.9,563.6,5.9,563.5,5.9z"/>
		<path class="st4" d="M501.4,101c-0.4,0-0.8-0.2-1.1-0.5c-0.6-0.6-0.6-1.7,0-2.3l6.1-6.1c0.3-0.3,0.7-0.5,1.1-0.5
			c0.4,0,0.8,0.2,1.1,0.5c0.3,0.3,0.5,0.7,0.5,1.1c0,0.4-0.2,0.8-0.5,1.1l-6.1,6.1C502.3,100.8,501.9,101,501.4,101L501.4,101z"/>
		<path class="st4" d="M470.7,70.2c-0.4,0-0.8-0.2-1.1-0.5c-0.6-0.6-0.6-1.7,0-2.3l6.1-6.1c0.3-0.3,0.7-0.5,1.1-0.5
			c0.4,0,0.8,0.2,1.1,0.5c0.6,0.6,0.6,1.7,0,2.3l-6.1,6.1C471.6,70.1,471.2,70.2,470.7,70.2C470.7,70.2,470.7,70.2,470.7,70.2z"/>
		<path class="st4" d="M477.5,112.6c-0.4,0-0.8-0.2-1.1-0.5c-0.3-0.3-0.5-0.7-0.5-1.1c0-0.4,0.2-0.8,0.5-1.1l14.7-14.7
			c0.3-0.3,0.7-0.5,1.1-0.5c0.4,0,0.8,0.2,1.1,0.5c0.3,0.3,0.5,0.7,0.5,1.1c0,0.4-0.2,0.8-0.5,1.1l-14.7,14.7
			C478.3,112.4,477.9,112.6,477.5,112.6L477.5,112.6z"/>
		<path class="st4" d="M460.1,112.6c-0.4,0-0.8-0.2-1.1-0.5c-0.3-0.3-0.5-0.7-0.5-1.1c0-0.4,0.2-0.8,0.5-1.1l14.7-14.7
			c0.3-0.3,0.7-0.5,1.1-0.5c0.4,0,0.8,0.2,1.1,0.5c0.3,0.3,0.5,0.7,0.5,1.1c0,0.4-0.2,0.8-0.5,1.1l-14.7,14.7
			C461,112.4,460.6,112.6,460.1,112.6L460.1,112.6z"/>
		<path class="st4" d="M459.1,94.2c-0.4,0-0.8-0.2-1.1-0.5c-0.3-0.3-0.5-0.7-0.5-1.1c0-0.4,0.2-0.8,0.5-1.1l14.7-14.7
			c0.3-0.3,0.7-0.5,1.1-0.5c0.4,0,0.8,0.2,1.1,0.5c0.3,0.3,0.5,0.7,0.5,1.1c0,0.4-0.2,0.8-0.5,1.1l-14.7,14.7
			C459.9,94,459.5,94.2,459.1,94.2z"/>
		<path class="st4" d="M519.9,51.8c-0.4,0-0.8-0.2-1.1-0.5c-0.6-0.6-0.6-1.7,0-2.3l3.1-3.1c0.3-0.3,0.7-0.5,1.1-0.5
			c0.4,0,0.8,0.2,1.1,0.5c0.6,0.6,0.6,1.7,0,2.3l-3.1,3.1C520.7,51.6,520.3,51.8,519.9,51.8z"/>
	</g>
	<g>
		<path class="st5" d="M80.2,72.9l9.3,3.9c3.2,1.3,6.9-0.2,8.2-3.4l10.7-25.5c1.3-3.2-0.2-6.9-3.4-8.2L21.5,4.6
			c-3.2-1.3-6.9,0.2-8.2,3.4L2.5,33.5c-1.3,3.2,0.2,6.9,3.4,8.2L80.2,72.9z"/>
		<path class="st6" d="M58.6,99.4l9.3,22.8c1,2.6,4,3.8,6.5,2.7c2.6-1,3.8-4,2.7-6.5l-9.3-22.8L58.6,99.4z"/>
		<path class="st1" d="M77,83.9c-5.4,12.8-20.1,18.8-33,13.5c-12.8-5.4-18.8-20.1-13.5-33s20.1-18.8,33-13.5S82.3,71.1,77,83.9z"/>
		<path class="st7" d="M68.8,80.5c-3.5,8.3-13.1,12.2-21.4,8.7s-12.2-13.1-8.7-21.4c3.5-8.3,13.1-12.2,21.4-8.7
			C68.4,62.5,72.3,72.1,68.8,80.5z"/>
		<path class="st4" d="M46.8,90.7c-9.1-3.8-13.5-14.4-9.6-23.5s14.4-13.5,23.5-9.6s13.5,14.4,9.6,23.5S55.9,94.5,46.8,90.7z
			 M59.5,60.5c-7.5-3.1-16.2,0.4-19.3,7.9C37,75.9,40.5,84.6,48,87.7s16.2-0.4,19.3-7.9S66.9,63.7,59.5,60.5z"/>
		<path class="st4" d="M59.9,78.5c-0.8-0.3-1.2-1.3-0.9-2.1c1.2-2.9-0.2-6.3-3.1-7.5c-0.8-0.3-1.2-1.3-0.9-2.1
			c0.3-0.8,1.3-1.2,2.1-0.9c4.6,1.9,6.7,7.2,4.8,11.7C61.7,78.4,60.7,78.8,59.9,78.5z"/>
		<path class="st4" d="M28.7,37.1c-0.6-0.2-1-0.8-1-1.4L27,27.7c0-0.2-0.1-0.3-0.3-0.4c0,0,0,0,0,0c-0.2-0.1-0.4,0-0.5,0.1l-5.9,5.2
			c-0.5,0.4-1.1,0.5-1.7,0.3l0,0c-0.6-0.2-1-0.8-1-1.4l-1-12.2c-0.1-0.9,0.6-1.7,1.5-1.7c0.3,0,0.5,0,0.8,0.1c0.6,0.2,0.9,0.8,1,1.4
			l0.6,8.1c0,0.2,0.1,0.3,0.3,0.4c0,0,0,0,0,0c0.2,0.1,0.4,0,0.5-0.1l5.9-5.2c0.5-0.4,1.1-0.5,1.7-0.3c0.6,0.2,1,0.8,1,1.4l0.6,8.1
			c0,0.2,0.1,0.3,0.3,0.4c0,0,0,0,0,0c0.2,0.1,0.4,0,0.5-0.1l5.9-5.2c0.5-0.4,1.1-0.5,1.7-0.3c0.2,0.1,0.4,0.2,0.6,0.4
			c0.3,0.3,0.4,0.7,0.4,1.2c0,0.4-0.2,0.8-0.5,1.1l-9.1,8C29.9,37.3,29.3,37.4,28.7,37.1z"/>
		<path class="st4" d="M37.5,13.1c-0.4-0.2-0.7-0.5-0.9-0.9c-0.2-0.4-0.2-0.8,0-1.2c0.2-0.4,0.5-0.7,0.9-0.9c0.4-0.2,0.8-0.2,1.2,0
			c0.4,0.2,0.7,0.5,0.9,0.9c0.2,0.4,0.2,0.8,0,1.2c-0.2,0.4-0.5,0.7-0.9,0.9C38.4,13.3,37.9,13.3,37.5,13.1z"/>
		<path class="st4" d="M70,126.4c-1.6-0.7-2.9-2-3.6-3.6L57.6,101c0-0.1-0.1-0.2-0.3-0.3c-0.1,0-0.2,0-0.2,0
			c-4.6,0.6-9.4-0.1-13.7-1.9c-13.6-5.7-20-21.5-14.3-35.1c1.2-2.9,2.9-5.5,5-7.7c0.1-0.1,0.1-0.3,0.1-0.4s-0.1-0.3-0.3-0.3
			l-28.6-12c-4-1.7-5.9-6.3-4.2-10.4L11.8,7.3c1.7-4,6.3-5.9,10.4-4.2l7.9,3.3c0.8,0.3,1.2,1.3,0.9,2.1s-1.3,1.2-2.1,0.9l-7.9-3.3
			c-2.4-1-5.1,0.1-6.1,2.5L4,34.1c-1,2.4,0.1,5.1,2.5,6.1L36.9,53c0.2,0.1,0.3,0,0.5-0.1c4.4-3.4,9.8-5.4,15.4-5.6
			c0.1,0,0.3-0.1,0.4-0.2c0.1-0.1,0.1-0.3,0.1-0.4c0-0.1-0.1-0.2-0.1-0.3l-0.6-8.1c0-0.2-0.1-0.3-0.3-0.4c0,0,0,0,0,0
			c-0.2-0.1-0.4,0-0.5,0.1l-5.9,5.2c-0.5,0.4-1.1,0.5-1.7,0.3c-0.6-0.2-1-0.8-1-1.4l-1-12.2c0-0.4,0.1-0.8,0.4-1.2
			c0.3-0.3,0.7-0.5,1.1-0.6c0.3,0,0.5,0,0.8,0.1c0.6,0.2,0.9,0.8,1,1.4l0.6,8.1c0,0.2,0.1,0.3,0.3,0.4c0,0,0,0,0,0
			c0.2,0.1,0.4,0,0.5-0.1l5.9-5.2c0.5-0.4,1.1-0.5,1.7-0.3c0.6,0.2,1,0.8,1,1.4L56,42c0,0.2,0.1,0.3,0.3,0.4c0,0,0,0,0,0
			c0.2,0.1,0.4,0,0.5-0.1l5.9-5.2c0.5-0.4,1.1-0.5,1.7-0.3c0.2,0.1,0.4,0.2,0.6,0.4c0.3,0.3,0.4,0.7,0.4,1.2c0,0.4-0.2,0.8-0.5,1.1
			l-8.1,7.2c-0.1,0.1-0.2,0.3-0.1,0.5c0,0.1,0.1,0.2,0.3,0.3c0,0,0.1,0,0.1,0c2.4,0.3,4.8,0.9,7.1,1.9c1.2,0.5,2.3,1.1,3.4,1.7
			c0,0,0,0,0.1,0c0.1,0.1,0.3,0,0.4,0c0.2-0.1,0.2-0.3,0.2-0.4l-0.8-10.1c-0.1-0.9,0.6-1.7,1.5-1.7c0.3,0,0.5,0,0.8,0.1
			c0.6,0.2,0.9,0.8,1,1.4l0.6,8.1c0,0.2,0.1,0.3,0.3,0.4c0,0,0,0,0,0c0.2,0.1,0.4,0,0.5-0.1l5.9-5.2c0.5-0.4,1.1-0.5,1.7-0.3
			c0.6,0.2,1,0.8,1,1.4l0.6,8.1c0,0.2,0.1,0.3,0.3,0.4c0,0,0,0,0,0c0.2,0.1,0.4,0,0.5-0.1l5.9-5.2c0.5-0.4,1.1-0.5,1.7-0.3
			c0.2,0.1,0.4,0.2,0.6,0.4c0.3,0.3,0.4,0.7,0.4,1.2c0,0.4-0.2,0.8-0.5,1.1l-9.1,8c-0.5,0.4-1.1,0.5-1.7,0.3c-0.6-0.2-1-0.8-1-1.4
			l-0.6-8.1c0-0.2-0.1-0.3-0.3-0.4c0,0,0,0,0,0c-0.2-0.1-0.4,0-0.5,0.1l-5.4,4.8c-0.1,0.1-0.2,0.2-0.2,0.4c0,0.1,0.1,0.3,0.2,0.4
			c4.8,4.4,7.9,10.3,8.7,16.8c0,0.2,0.1,0.3,0.3,0.4c0,0,0,0,0,0c0,0,0.1,0,0.1,0l9.3,3.9c2.4,1,5.1-0.1,6.1-2.5l10.7-25.5
			c1-2.4-0.1-5.1-2.5-6.1L45.6,16.5c-0.8-0.3-1.2-1.3-0.9-2.1c0.3-0.8,1.3-1.2,2.1-0.9l58.8,24.7c4,1.7,5.9,6.3,4.2,10.4L99.2,74.1
			c-1.7,4-6.3,5.9-10.4,4.2l-7.7-3.2c-0.1-0.1-0.3,0-0.4,0c-0.1,0.1-0.2,0.2-0.2,0.4c-0.2,3.1-0.8,6.1-2.1,9
			C75.3,92,69,97.6,61.2,99.9c-0.1,0-0.2,0.1-0.3,0.3c-0.1,0.1-0.1,0.3,0,0.4l8.6,21.1c0.3,0.8,1,1.5,1.8,1.8c0.8,0.4,1.8,0.4,2.6,0
			c1.7-0.7,2.6-2.7,1.9-4.4l-3.5-8.6c-0.3-0.8,0.1-1.8,0.9-2.1c0.4-0.2,0.8-0.2,1.2,0c0.4,0.2,0.7,0.5,0.9,0.9l3.5,8.6
			c1.4,3.4-0.2,7.3-3.6,8.6C73.5,127.1,71.7,127.1,70,126.4z M62.9,52.4C50.9,47.4,37.1,53,32,65s0.6,25.8,12.6,30.8
			c12,5,25.8-0.6,30.8-12.6C80.5,71.3,74.8,57.4,62.9,52.4z"/>
		<path class="st4" d="M70.5,104.8c-0.4-0.2-0.7-0.5-0.9-0.9c-0.2-0.4-0.2-0.8,0-1.2c0.2-0.4,0.5-0.7,0.9-0.9c0.4-0.2,0.8-0.2,1.2,0
			c0.4,0.2,0.7,0.5,0.9,0.9c0.2,0.4,0.2,0.8,0,1.2c-0.2,0.4-0.5,0.7-0.9,0.9C71.3,105,70.8,105,70.5,104.8z"/>
	</g>
	<g>
		<path class="st8" d="M272.6,147.1l16.9,16.9c11,11,29.4,11.6,41.1,0c11.3-11.3,11.3-29.7,0-41l-16.9-16.9c-3.2-3.2-7.1-5.6-11.3-7
			l-5.7-0.4L284,99.2l-0.1-0.1c-4.2,1.4-8,3.7-11.3,7c-3.3,3.3-5.6,7.2-7,11.3l-10.4,2.7l10.4,15.8C267,140,269.3,143.8,272.6,147.1
			z M284,135.7l9.2-9l9.2-9.1l16.8,16.7c5,5,5,13.2,0,18.2c-5,5-13.1,5.1-18.2,0L284,135.7z"/>
		<path class="st9" d="M265.6,135.9L255.2,120l10.4-2.7c1.4-4.1,3.7-8,7-11.3l20.6,20.6l-9.2,9l16.9,16.9c5.1,5.1,13.3,5,18.2,0
			l11.4,11.4c-11.6,11.6-30,11-41.1,0l-16.9-16.9C269.3,143.8,267,140,265.6,135.9z"/>
		<path class="st10" d="M245.2,156.3c-1.3-1.3-1.3-3.3,0-4.6l4.6-4.6c1.3-1.3,3.3-1.3,4.6,0c1.3,1.3,1.3,3.3,0,4.6l-4.6,4.6
			C248.5,157.5,246.5,157.5,245.2,156.3z"/>
		<path class="st11" d="M313.7,87.8c-1.3-1.3-1.3-3.3,0-4.6l4.6-4.6c1.3-1.3,3.3-1.3,4.6,0s1.3,3.3,0,4.6l-4.6,4.6
			C317,89.1,314.9,89.1,313.7,87.8z"/>
		<path class="st10" d="M241.2,132.3l-6.2,1.7c-1.7,0.5-3.5-0.6-4-2.3c-0.5-1.7,0.6-3.5,2.3-4l6.2-1.7c1.7-0.5,3.5,0.6,4,2.3
			C244,130.1,242.9,131.8,241.2,132.3z"/>
		<path class="st11" d="M334.7,107.2l-6.2,1.7c-1.7,0.5-3.5-0.6-4-2.3c-0.5-1.7,0.6-3.5,2.3-4l6.2-1.7c1.7-0.5,3.5,0.6,4,2.3
			C337.4,105,336.4,106.8,334.7,107.2z"/>
		<path class="st10" d="M269.8,170.4c-1.7-0.5-2.7-2.2-2.3-4l1.7-6.2c0.5-1.7,2.2-2.7,4-2.3c1.7,0.5,2.7,2.2,2.3,4l-1.7,6.2
			C273.3,169.9,271.5,170.9,269.8,170.4z"/>
		<path class="st11" d="M294.9,77c-1.7-0.5-2.7-2.2-2.3-4l1.7-6.2c0.5-1.7,2.2-2.7,4-2.3c1.7,0.5,2.7,2.2,2.3,4l-1.7,6.2
			C298.3,76.4,296.6,77.4,294.9,77z"/>
		<path class="st12" d="M237.4,112l16.9,16.9c3.2,3.2,7.1,5.6,11.3,7c-2-6-2-12.5,0-18.5l-16.8-16.7c-5-5-5-13.2,0-18.2
			c2.4-2.4,5.6-3.7,8.1-3.7c0.2-0.1,1-0.1,1,0c3.5,0,6.7,1.3,9.1,3.7L284,99.2c5,5,5,13.2,0,18.2c-5,5-5,13.2,0,18.2l0.1,0.1
			c4.2-1.4,8.1-3.8,11.3-7c3.3-3.3,5.6-7.2,7-11.3c2-6,2-12.5,0-18.5c-1.4-4.1-3.7-8-7-11.3L278.5,71c-11.4-11.4-29.7-11.3-41.1,0
			C226.1,82.3,226.1,100.7,237.4,112z"/>
		<g>
			<path class="st13" d="M284,117.5l11.4,11.4c-3.2,3.2-7,5.6-11.3,7l-0.1-0.1C279,130.7,279,122.5,284,117.5z"/>
			<path class="st13" d="M237.4,71l11.4,11.4c-5,5-5,13.2,0,18.2l16.8,16.7c-2,6-2,12.5,0,18.5c-4.2-1.4-8.1-3.8-11.3-7L237.4,112
				C226.1,100.7,226.1,82.3,237.4,71z"/>
		</g>
	</g>
</g>
</svg>
