<?xml version="1.0" encoding="utf-8"?>
<!-- Generator: Adobe Illustrator 25.0.0, SVG Export Plug-In . SVG Version: 6.00 Build 0)  -->
<svg version="1.1" id="Layer_1" xmlns="http://www.w3.org/2000/svg" xmlns:xlink="http://www.w3.org/1999/xlink" x="0px" y="0px"
	 viewBox="0 0 563 175" style="enable-background:new 0 0 563 175;" xml:space="preserve">
<style type="text/css">
	.st0{fill:#F4F4F4;}
	.st1{fill:#E8E8E8;}
	.st2{fill:#5994CE;}
	.st3{fill:#4C7EB0;}
	.st4{fill:#FA5D72;}
	.st5{fill:#F6D867;}
	.st6{fill:#2CAB72;}
	.st7{fill:#35414D;}
	.st8{fill:#FFE27A;}
	.st9{fill:#F9CF58;}
	.st10{fill:#8BCAFF;}
	.st11{fill:#98DB7C;}
	.st12{fill:#82D361;}
	.st13{fill:#6CC4FF;}
	.st14{fill:#FFBA57;}
	.st15{fill:#FFAC3E;}
	.st16{fill:#FD646F;}
	.st17{fill:#CC5266;}
	.st18{fill:#07BEEF;}
	.st19{fill:#FC635B;}
	.st20{fill:#7EC927;}
	.st21{fill:#FFA733;}
	.st22{fill:#00B6E0;}
	.st23{fill:#F34234;}
	.st24{fill:#60A917;}
	.st25{fill:#FF9801;}
	.st26{fill:#EF6D7A;}
	.st27{fill:#3A312A;}
	.st28{fill:#D6DF58;}
	.st29{fill:#8AC5DC;}
	.st30{fill:#87796F;}
	.st31{fill:#C1A897;}
	.st32{fill:#F9A7A7;}
	.st33{fill:#36414D;}
	.st34{fill:#FFE4CF;}
	.st35{fill:#E0EBFC;}
	.st36{fill:#B9BEFC;}
	.st37{fill:#EAA97D;}
	.st38{fill:#FFEA92;}
</style>
<g>
	<g>
		<g>
			<path class="st0" d="M37.7,118.2l-35.1-70c-1.1-2.2-0.2-4.9,2-6L80,4.4c2.2-1.1,4.9-0.2,6,2l35.1,70c1.1,2.2,0.2,4.9-2,6
				l-75.4,37.8C41.5,121.3,38.8,120.4,37.7,118.2z"/>
			<path class="st1" d="M2.6,48.2l35.1,70c1.1,2.2,3.8,3.1,6,2l5.9-2.9c-2.2,1.1-4.9,0.2-6-2l-35.1-70c-1.1-2.2-0.2-4.9,2-6
				l-5.9,2.9C2.4,43.3,1.5,46,2.6,48.2z"/>
			<path class="st2" d="M86,6.4c-1.1-2.2-3.8-3.1-6-2L4.6,42.2c-2.2,1.1-3.1,3.8-2,6l5.5,11l83.4-41.8L86,6.4z"/>
			<path class="st3" d="M2.6,48.2l5.5,11l5.9-2.9l-5.5-11c-1.1-2.2-0.2-4.9,2-6l-5.9,2.9C2.4,43.3,1.5,46,2.6,48.2z"/>
			<path class="st4" d="M76.3,11.9c1.6-0.8,3.6-0.2,4.4,1.5s0.2,3.6-1.5,4.4c-1.6,0.8-3.6,0.2-4.4-1.5C74,14.8,74.6,12.8,76.3,11.9z
				"/>
			<path class="st5" d="M66.2,17c1.6-0.8,3.6-0.2,4.4,1.5c0.8,1.6,0.2,3.6-1.5,4.4c-1.6,0.8-3.6,0.2-4.4-1.5
				C63.9,19.8,64.6,17.8,66.2,17z"/>
			<path class="st6" d="M56.2,22c1.6-0.8,3.6-0.2,4.4,1.5c0.8,1.6,0.2,3.6-1.5,4.4c-1.6,0.8-3.6,0.2-4.4-1.5
				C53.9,24.8,54.6,22.8,56.2,22z"/>
			<path class="st7" d="M74.1,16.7c-1-2-0.2-4.5,1.8-5.5s4.5-0.2,5.5,1.8c1,2,0.2,4.5-1.8,5.5C77.6,19.6,75.1,18.8,74.1,16.7z
				 M75.5,16c0.6,1.2,2.1,1.7,3.4,1.1c1.2-0.6,1.7-2.1,1.1-3.4s-2.1-1.7-3.4-1.1C75.4,13.3,74.9,14.8,75.5,16z"/>
			<path class="st7" d="M64,21.8c-1-2-0.2-4.5,1.8-5.5c2-1,4.5-0.2,5.5,1.8c1,2,0.2,4.5-1.8,5.5C67.5,24.6,65.1,23.8,64,21.8z
				 M65.5,21.1c0.6,1.2,2.1,1.7,3.4,1.1c1.2-0.6,1.7-2.1,1.1-3.4c-0.6-1.2-2.1-1.7-3.4-1.1C65.4,18.3,64.9,19.8,65.5,21.1z"/>
			<path class="st7" d="M54,26.8c-1-2-0.2-4.5,1.8-5.5c2-1,4.5-0.2,5.5,1.8c1,2,0.2,4.5-1.8,5.5C57.5,29.7,55,28.8,54,26.8z
				 M55.5,26.1c0.6,1.2,2.1,1.7,3.4,1.1s1.7-2.1,1.1-3.4c-0.6-1.2-2.1-1.7-3.4-1.1S54.8,24.8,55.5,26.1z"/>
			<path class="st7" d="M45,31.3c-0.3-0.7-1.2-1-1.9-0.6L12.5,46c-0.7,0.3-1,1.2-0.6,1.9c0.3,0.7,1.2,1,1.9,0.6l30.6-15.4
				C45.1,32.8,45.4,32,45,31.3z"/>
			<path class="st7" d="M1.3,48.8l35.1,70c1.5,2.9,5,4.1,7.9,2.6l75.4-37.8c2.9-1.5,4.1-5,2.6-7.9l-35.1-70c-1.4-2.9-5-4.1-7.9-2.6
				L4,40.9C1.1,42.4-0.1,45.9,1.3,48.8z M39,117.6L10,59.8l69.2-34.7c0.7-0.3,1-1.2,0.6-1.9c-0.3-0.7-1.2-1-1.9-0.6L8.8,57.3
				l-4.9-9.8c-0.8-1.5-0.1-3.4,1.4-4.1L80.6,5.6C82.1,4.9,84,5.5,84.7,7l4.9,9.8l-7,3.5c-0.7,0.3-1,1.2-0.6,1.9
				c0.3,0.7,1.2,1,1.9,0.6l7-3.5L119.8,77c0.8,1.5,0.1,3.4-1.4,4.1l-75.4,37.8C41.6,119.7,39.7,119.1,39,117.6z"/>
		</g>
		<g>
			<g>
				<path class="st8" d="M55,48.6L55,48.6c-10.6,5.3-15.3,17.8-11.1,28.6l5.3-3c-2.5-7.8,1-16.5,8.5-20.3l0,0l1,2.1l3.1-6.8
					l-7.7-2.4L55,48.6"/>
				<path class="st9" d="M58.7,56l2.3-5.2c-1.4,0.3-2.8,0.8-4.2,1.5c-8.1,4.1-11.5,13.8-7.9,22l0.2-0.1c-2.5-7.8,1-16.5,8.5-20.3
					l0,0L58.7,56z"/>
				<path class="st10" d="M44.8,79.3C44.8,79.3,44.8,79.3,44.8,79.3c5.3,10.6,17.8,15.3,28.6,11.2l-3-5.3c-7.8,2.5-16.5-1-20.2-8.6
					c0,0,0,0,0,0l0,0l2.1-1l-6.8-3.1l-2.4,7.7L44.8,79.3"/>
				<path class="st11" d="M72.8,84.2C72.8,84.2,72.8,84.2,72.8,84.2c7.6-3.8,11.1-12.5,8.6-20.3l5.2-3.1
					c4.2,10.9-0.5,23.3-11.1,28.7c0,0,0,0,0,0l0,0l0.9,1.9L68.7,89l3.1-6.8L72.8,84.2L72.8,84.2z"/>
				<path class="st12" d="M74.7,87.9c-1.4,0.7-2.8,1.2-4.3,1.6l6,1.9l-0.9-1.8c0,0,0,0,0,0c10.6-5.3,15.3-17.8,11.1-28.7l-0.1,0.4
					C89.4,71.6,84.7,82.9,74.7,87.9L74.7,87.9z"/>
				<path class="st13" d="M70.4,89.5c-9.7,2.7-20.3-1.4-25.6-10.3l-0.1,0c0,0,0,0,0,0c5.3,10.6,17.8,15.3,28.6,11.1L70.4,89.5z"/>
				<path class="st14" d="M85.7,58.8C85.7,58.8,85.7,58.8,85.7,58.8c-5.3-10.6-17.8-15.3-28.7-11.1l4.8,1.5l-1.7,3.8
					c7.8-2.5,16.5,1,20.3,8.5c0,0,0,0,0,0l0,0l-2.1,1l6.8,3.1l2.4-7.7L85.7,58.8z"/>
				<g>
					<path class="st15" d="M61.1,50.8l-0.9,2.1c7.5-2.4,15.9,0.7,19.9,7.7c-0.1-0.3-0.2-0.6-0.4-0.8C76.1,52.8,68.4,49.3,61.1,50.8
						L61.1,50.8z"/>
				</g>
				<g>
					<path class="st7" d="M88.1,57.3c-0.2-0.2-0.6-0.2-0.8-0.1l-1.2,0.6c-2.7-5-7-8.8-12.3-10.8c-5.4-2.1-11.3-2.1-16.7-0.1L54.3,46
						c-0.6-0.2-1.2,0.5-0.9,1.1l0.6,1.2c-4.1,2.2-7.4,5.5-9.6,9.6c-0.2,0.4-0.1,0.8,0.3,1c0.4,0.2,0.8,0.1,1-0.3
						c2.2-4,5.5-7.3,9.6-9.3c0.4-0.2,0.5-0.6,0.3-1l-0.1-0.3l5.2,1.6l-2.1,4.6l-0.3-0.7c-0.2-0.4-0.6-0.5-1-0.3
						c-3.8,1.9-6.8,5.1-8.4,9c-1.4,3.4-1.7,7.1-0.9,10.6l-2.3-1.1c-0.4-0.2-0.9,0-1,0.5l-0.8,2.4c-1.2-4.4-0.9-9.1,0.7-13.5
						c0.1-0.4,0-0.8-0.4-1c-0.4-0.1-0.8,0.1-1,0.4c-2,5.3-2,11.2-0.1,16.5L42.2,80c-0.2,0.6,0.5,1.2,1.1,0.9l1.2-0.6
						c2.7,5,7,8.8,12.3,10.8c5.4,2.1,11.3,2.1,16.7,0.1l2.8,0.9c0.6,0.2,1.2-0.5,0.9-1.1l-0.6-1.2c4.2-2.2,7.5-5.6,9.7-9.8
						c0.2-0.4,0.1-0.8-0.3-1c-0.4-0.2-0.8-0.1-1,0.3c-2.2,4.1-5.5,7.4-9.7,9.5l0,0c-0.4,0.2-0.5,0.6-0.3,1l0.1,0.3l-5.2-1.6l2.1-4.6
						l0.3,0.7c0.2,0.4,0.6,0.5,1,0.3l0,0c3.8-1.9,6.8-5.1,8.4-9c1.4-3.4,1.7-7.1,1-10.6l2.3,1c0.4,0.2,0.9,0,1-0.5l0.8-2.5
						c1.2,4.4,1,9.1-0.6,13.4c-0.1,0.4,0.1,0.8,0.4,1c0.4,0.1,0.8-0.1,1-0.4c2-5.3,1.9-11.1,0-16.4l0.8-2.7
						C88.4,57.8,88.3,57.5,88.1,57.3L88.1,57.3z M68,88.7c-0.2,0.4,0,0.9,0.5,1l2.5,0.8c-4.5,1.2-9.2,0.9-13.6-0.8
						c-5.2-2-9.4-5.8-11.8-10.8l0,0c-0.2-0.4-0.6-0.5-1-0.3l-0.3,0.1l1.6-5.2l4.6,2.1l-0.6,0.3c-0.4,0.2-0.5,0.6-0.3,1l0,0
						c1.9,3.8,5.1,6.8,9,8.4c3.4,1.4,7.1,1.7,10.6,1L68,88.7z M80.2,75.3c-1.4,3.4-3.9,6.1-7.1,7.9l-0.7-1.4c-0.3-0.6-1.1-0.5-1.4,0
						l-1.3,2.8c-3.5,1-7.4,0.8-10.8-0.6c-3.4-1.4-6.1-3.9-7.9-7l1.4-0.7c0.6-0.3,0.5-1.1,0-1.4l-2.7-1.2c-1.1-3.6-0.9-7.4,0.6-10.8
						c1.4-3.4,3.9-6.1,7-7.9l0.7,1.4c0.3,0.6,1.1,0.5,1.4,0l1.3-2.8c3.6-1.1,7.4-0.9,10.8,0.6c3.4,1.4,6.2,3.9,7.9,7.1L78,61.8
						c-0.6,0.3-0.5,1.1,0,1.4l2.8,1.3C81.9,68,81.6,71.8,80.2,75.3L80.2,75.3z M84.7,64.6l-4.6-2.1l0.7-0.3c0.4-0.2,0.5-0.6,0.3-1
						l0,0c-1.9-3.8-5.1-6.8-9-8.4c-3.4-1.4-7.1-1.7-10.6-0.9l1.1-2.3c0.2-0.4,0-0.9-0.5-1l-2.5-0.8c4.5-1.2,9.3-1,13.7,0.7
						c5.2,2,9.4,5.8,11.9,10.8l0,0c0.2,0.4,0.6,0.5,1,0.3l0.2-0.1L84.7,64.6z"/>
					<path class="st7" d="M76.8,92.2c-0.2,0.1-0.4,0.1-0.6,0l-2.7-0.8c-5.4,2-11.4,1.9-16.8-0.1c-5.3-2-9.6-5.9-12.3-10.8L43.3,81
						c-0.3,0.2-0.7,0.1-1-0.1C42,80.7,41.9,80.3,42,80l0.9-2.7c-2-5.4-1.9-11.2,0.1-16.6c0.2-0.5,0.7-0.7,1.1-0.5
						c0.5,0.2,0.7,0.7,0.5,1.1c-1.6,4.2-1.9,8.7-0.8,13l0.6-2c0.1-0.2,0.2-0.4,0.5-0.5c0.2-0.1,0.5-0.1,0.7,0l2.1,1
						c-0.7-3.5-0.4-7.1,1-10.4c1.6-4,4.7-7.2,8.5-9.1c0.4-0.2,1,0,1.2,0.4l0.2,0.4l1.9-4.3l-4.8-1.5c0.2,0.4,0,1-0.4,1.2
						c-4.1,2.1-7.4,5.3-9.5,9.3c-0.1,0.2-0.3,0.4-0.5,0.4c-0.2,0.1-0.5,0-0.7-0.1c-0.2-0.1-0.4-0.3-0.4-0.5c-0.1-0.2,0-0.5,0.1-0.7
						c2.2-4.1,5.5-7.4,9.5-9.6l-0.5-1.1c-0.2-0.3-0.1-0.7,0.1-1c0.2-0.3,0.6-0.4,0.9-0.3l2.7,0.8c5.4-2,11.4-2,16.8,0.1
						c5.3,2,9.6,5.9,12.3,10.8l1-0.5c0.3-0.2,0.7-0.1,1,0.1l0,0c0.3,0.2,0.4,0.6,0.3,0.9l-0.8,2.7c2,5.3,2,11.1,0,16.5
						c-0.1,0.2-0.2,0.4-0.4,0.5c0,0,0,0,0,0c-0.2,0.1-0.5,0.1-0.7,0c-0.2-0.1-0.4-0.2-0.5-0.5c-0.1-0.2-0.1-0.5,0-0.7
						c1.5-4.2,1.8-8.6,0.7-12.9L86,65.9c-0.1,0.2-0.2,0.4-0.5,0.5c-0.2,0.1-0.5,0.1-0.7,0l-2.1-0.9c0.7,3.5,0.4,7.1-1,10.4
						c-1.6,3.9-4.7,7.2-8.5,9.1l0,0c-0.4,0.2-1,0-1.2-0.4l-0.2-0.4l-1.9,4.3l4.8,1.5c-0.2-0.4,0-1,0.4-1.2l0,0
						c4.2-2.1,7.5-5.3,9.6-9.4c0.2-0.4,0.8-0.6,1.2-0.4c0.2,0.1,0.4,0.3,0.4,0.5c0.1,0.2,0,0.5-0.1,0.7c-2.2,4.2-5.5,7.6-9.7,9.8
						l0.5,1.1c0.2,0.3,0.1,0.7-0.1,1C77,92.1,76.9,92.2,76.8,92.2z M44.4,80.2l0.1-0.1l0.1,0.1c2.7,4.9,7,8.8,12.3,10.8
						c5.4,2.1,11.3,2.1,16.6,0.1l0,0l0,0l2.8,0.9c0.3,0.1,0.5,0,0.7-0.2c0.1-0.2,0.2-0.4,0.1-0.7l-0.6-1.3l0.1-0.1
						c4.1-2.2,7.5-5.6,9.7-9.8c0.1-0.1,0.1-0.3,0-0.5s-0.2-0.3-0.3-0.4c-0.3-0.2-0.7,0-0.8,0.3c-2.2,4.1-5.5,7.4-9.8,9.6l0,0
						c-0.3,0.2-0.4,0.5-0.3,0.8l0.3,0.5l-5.7-1.8l0.1-0.1l2.2-4.9l0.5,0.9c0.2,0.3,0.5,0.4,0.8,0.3l0,0c3.8-1.9,6.7-5.1,8.4-9
						c1.4-3.3,1.7-7,1-10.5L82.4,65l2.5,1.2c0.2,0.1,0.3,0.1,0.5,0c0.2-0.1,0.3-0.2,0.3-0.4l0.9-3l0.1,0.4c1.2,4.5,1,9.1-0.6,13.4
						c-0.1,0.2-0.1,0.3,0,0.5c0.1,0.2,0.2,0.3,0.4,0.3c0.2,0.1,0.3,0.1,0.5,0c0,0,0,0,0,0c0.1-0.1,0.3-0.2,0.3-0.3
						c1.9-5.3,1.9-11.1,0-16.3l0,0l0.9-2.8c0.1-0.2,0-0.5-0.2-0.7l0,0c-0.2-0.2-0.5-0.2-0.7-0.1L86,57.9L86,57.8
						c-2.7-4.9-7-8.8-12.3-10.8c-5.4-2.1-11.3-2.1-16.6-0.1l0,0l0,0l-2.8-0.9c-0.3-0.1-0.5,0-0.7,0.2c-0.1,0.2-0.2,0.4-0.1,0.7
						l0.7,1.3L54,48.3c-4.1,2.2-7.4,5.5-9.5,9.6c-0.1,0.1-0.1,0.3,0,0.5c0,0.2,0.2,0.3,0.3,0.4s0.3,0.1,0.5,0c0.2,0,0.3-0.2,0.4-0.3
						c2.2-4.1,5.5-7.3,9.7-9.4c0.3-0.2,0.4-0.5,0.3-0.8l-0.3-0.5l5.7,1.8l-0.1,0.1l-2.2,4.9l-0.5-0.9c-0.2-0.3-0.5-0.4-0.8-0.3
						c-3.8,1.9-6.7,5.1-8.4,9c-1.4,3.4-1.7,7-0.9,10.5l0.1,0.3l-2.6-1.2c-0.2-0.1-0.3-0.1-0.5,0c0,0,0,0,0,0
						c-0.2,0.1-0.3,0.2-0.3,0.4l-0.9,2.9l-0.1-0.4c-1.2-4.5-0.9-9.2,0.7-13.6c0.1-0.3,0-0.7-0.4-0.8c-0.3-0.1-0.7,0-0.8,0.4
						c-2,5.3-2,11.2-0.1,16.5l0,0l0,0L42.3,80c-0.1,0.3,0,0.5,0.2,0.7c0.2,0.1,0.4,0.2,0.7,0.1c0,0,0,0,0,0L44.4,80.2z M71.4,90.5
						l-0.4,0.1c-4.6,1.2-9.3,0.9-13.7-0.8C52,87.9,47.8,84,45.3,79c-0.2-0.3-0.5-0.5-0.9-0.3L43.9,79l1.8-5.7l0.1,0.1l4.9,2.2
						l-0.9,0.4c-0.3,0.2-0.4,0.5-0.3,0.8c1.9,3.8,5.1,6.8,9,8.4c3.3,1.4,7,1.7,10.5,1l0.3-0.1l-1.2,2.6c-0.1,0.2-0.1,0.3,0,0.5
						c0.1,0.2,0.2,0.3,0.4,0.3L71.4,90.5z M44.3,78.5L44.3,78.5c0.4-0.2,1,0,1.2,0.4c2.5,4.9,6.7,8.7,11.8,10.7
						c4.2,1.6,8.7,1.9,13.1,0.9l-2-0.6c-0.2-0.1-0.4-0.2-0.5-0.5c-0.1-0.2-0.1-0.5,0-0.7l1-2.1c-3.5,0.7-7.1,0.4-10.4-1
						c-3.9-1.6-7.2-4.7-9.1-8.5c-0.2-0.5-0.1-1,0.4-1.2l0.4-0.2l-4.3-1.9L44.3,78.5z M73.1,83.4l-0.8-1.5c-0.1-0.3-0.4-0.3-0.6-0.3
						c-0.2,0-0.5,0.1-0.6,0.4l-1.3,2.8l-0.1,0c-3.6,1.1-7.4,0.8-10.9-0.6c-3.4-1.4-6.2-3.9-8-7.1l-0.1-0.1l1.5-0.7c0,0,0,0,0,0
						c0.2-0.1,0.3-0.4,0.3-0.6c0-0.2-0.1-0.5-0.4-0.6l-2.8-1.3l0-0.1c-1.1-3.6-0.9-7.5,0.6-10.9c1.4-3.4,3.9-6.2,7.1-8l0.1-0.1
						l0.8,1.5c0.1,0.3,0.4,0.3,0.6,0.3c0.2,0,0.4-0.1,0.6-0.4l1.3-2.8l0.1,0c3.6-1.1,7.5-0.9,10.9,0.6c3.4,1.4,6.2,3.9,8,7.1
						l0.1,0.1L78,61.9c0,0,0,0,0,0c-0.2,0.1-0.3,0.4-0.3,0.6c0,0.2,0.1,0.5,0.4,0.6l2.8,1.3l0,0.1c1.1,3.6,0.8,7.4-0.6,10.9l0,0
						c-1.4,3.4-3.9,6.2-7.1,8L73.1,83.4z M71.4,81.4c0.1-0.1,0.3-0.1,0.4-0.1c0.4,0,0.7,0.2,0.8,0.5l0.6,1.3
						c3.1-1.8,5.5-4.5,6.9-7.8l0,0c1.4-3.4,1.6-7.2,0.6-10.7L78,63.3c-0.3-0.1-0.5-0.4-0.5-0.8c0-0.3,0.2-0.7,0.5-0.8c0,0,0,0,0,0
						l1.3-0.6c-1.8-3.1-4.5-5.5-7.8-6.9c-3.4-1.4-7.2-1.6-10.7-0.6l-1.2,2.7c-0.1,0.3-0.4,0.5-0.8,0.5c-0.4,0-0.7-0.2-0.8-0.5
						l-0.6-1.3c-3.1,1.8-5.5,4.5-6.9,7.8c-1.4,3.4-1.6,7.2-0.6,10.7l2.7,1.2c0.3,0.1,0.5,0.4,0.5,0.8c0,0.4-0.2,0.7-0.5,0.8L51.3,77
						c1.8,3.1,4.5,5.5,7.8,6.9c3.4,1.4,7.2,1.6,10.7,0.6l1.2-2.7C71,81.6,71.2,81.4,71.4,81.4z M84.8,64.8l-0.1-0.1l-4.9-2.2
						l0.9-0.5c0.3-0.2,0.4-0.5,0.3-0.8c-1.9-3.8-5.1-6.8-9-8.4c-3.4-1.4-7-1.7-10.5-0.9l-0.3,0.1l1.2-2.6c0.1-0.2,0.1-0.3,0-0.5
						c-0.1-0.2-0.2-0.3-0.4-0.3l-2.9-0.9l0.4-0.1c4.6-1.2,9.3-1,13.8,0.7c5.2,2,9.4,5.8,11.9,10.8c0.2,0.3,0.5,0.5,0.9,0.3l0.5-0.3
						L84.8,64.8z M80.4,62.5l4.3,1.9l1.5-4.8c-0.4,0.2-0.9,0-1.2-0.4c-2.5-4.9-6.7-8.7-11.8-10.7c-4.2-1.6-8.8-1.9-13.2-0.8l2.1,0.6
						c0.2,0.1,0.4,0.2,0.5,0.5c0.1,0.2,0.1,0.5,0,0.7l-0.9,2.1c3.5-0.7,7.1-0.4,10.4,1c4,1.6,7.2,4.7,9.1,8.5c0.2,0.5,0.1,1-0.4,1.2
						L80.4,62.5z"/>
				</g>
			</g>
			<g>
				<g>
					<path class="st7" d="M69.8,71.1l1.2,2.4c0.4,0.8,1.4,1.2,2.3,0.8s1.2-1.4,0.8-2.3l-1.2-2.4c-0.4-0.8-1.4-1.2-2.3-0.8
						C69.7,69.3,69.3,70.3,69.8,71.1z M72.3,69.9l1.2,2.4c0.3,0.5,0.1,1.2-0.5,1.5c-0.5,0.3-1.2,0.1-1.5-0.5l-1.2-2.4
						c-0.3-0.5-0.1-1.2,0.5-1.5C71.3,69.1,72,69.3,72.3,69.9z"/>
					<path class="st7" d="M73.5,74.7c-1.1,0.5-2.4,0.1-3-1l-1.2-2.4c-0.5-1.1-0.1-2.4,1-3c1.1-0.5,2.4-0.1,3,1l1.2,2.4
						C75,72.9,74.6,74.2,73.5,74.7z M71,69.8c-0.3,0.1-0.4,0.5-0.3,0.8L72,73c0.1,0.3,0.5,0.4,0.8,0.3c0.3-0.1,0.4-0.5,0.3-0.8
						l-1.2-2.4C71.7,69.8,71.3,69.7,71,69.8z"/>
				</g>
				<g>
					<path class="st7" d="M59.9,69.3c0.8-0.4,1.2-1.4,0.8-2.3l-0.4-0.8c-0.1-0.1-0.3-0.2-0.4-0.1c-0.1,0.1-0.2,0.3-0.1,0.4l0.4,0.8
						c0.3,0.5,0.1,1.2-0.5,1.5c-0.5,0.3-1.2,0.1-1.5-0.5L57,65.8c-0.3-0.5-0.1-1.2,0.5-1.5c0.5-0.3,1.2-0.1,1.5,0.5l0.3,0.6
						c0.1,0.1,0.3,0.2,0.4,0.1c0.1-0.1,0.2-0.3,0.1-0.4l-0.3-0.6c-0.4-0.8-1.4-1.2-2.3-0.8c-0.8,0.4-1.2,1.4-0.8,2.3l1.2,2.4
						C58.1,69.3,59.1,69.7,59.9,69.3z"/>
					<path class="st7" d="M60.2,69.7c-1.1,0.5-2.4,0.1-3-1L56,66.3c-0.5-1.1-0.1-2.4,1-3c1.1-0.5,2.4-0.1,3,1l0.3,0.6
						c0.1,0.2,0.1,0.4,0,0.7c0.2,0.1,0.4,0.2,0.5,0.4l0.4,0.8C61.7,67.8,61.3,69.2,60.2,69.7z M57.7,64.8c-0.3,0.1-0.4,0.5-0.3,0.8
						l1.2,2.4c0.1,0.3,0.5,0.4,0.8,0.3c0.3-0.1,0.4-0.5,0.3-0.8l-0.4-0.8c-0.1-0.2-0.1-0.4,0-0.7c-0.2-0.1-0.4-0.2-0.5-0.4l-0.3-0.6
						C58.4,64.8,58,64.7,57.7,64.8z"/>
				</g>
				<g>
					<path class="st7" d="M60.8,71c1.8-0.9,2.6-3.2,1.7-5l-1.2-2.4c-0.4-0.9-1.2-1.5-2.1-1.9c-0.9-0.3-1.9-0.2-2.8,0.2
						c-1.8,0.9-2.6,3.2-1.7,5l1.2,2.4C56.8,71.2,59,72,60.8,71z M55.2,66.7c-0.8-1.5-0.1-3.4,1.4-4.2c0.7-0.4,1.6-0.4,2.4-0.2l0,0
						c0.8,0.3,1.4,0.8,1.8,1.6l1.2,2.4c0.8,1.5,0.1,3.4-1.4,4.2c-1.5,0.8-3.4,0.1-4.2-1.4L55.2,66.7L55.2,66.7z"/>
					<path class="st7" d="M61.1,71.5c-2.1,1-4.6,0.2-5.7-1.9l-1.2-2.4c-1-2.1-0.2-4.6,1.9-5.7c1-0.5,2.2-0.6,3.2-0.2
						c1.1,0.4,1.9,1.1,2.4,2.1l1.2,2.4C64,67.9,63.2,70.5,61.1,71.5z M56.8,63c-1.3,0.6-1.8,2.2-1.2,3.5l1.2,2.4
						c0.6,1.3,2.2,1.8,3.5,1.2c1.3-0.6,1.8-2.2,1.2-3.5l-1.2-2.4c-0.3-0.6-0.8-1.1-1.5-1.3C58.1,62.6,57.4,62.7,56.8,63z"/>
				</g>
				<g>
					<path class="st7" d="M72.5,66.8c-0.9-0.3-1.9-0.2-2.8,0.2c-1.8,0.9-2.6,3.2-1.7,5l1.2,2.4c0.9,1.8,3.2,2.6,5,1.7
						c0.8-0.4,1.4-1,1.7-1.8c0.1-0.2,0-0.3-0.2-0.4c-0.2-0.1-0.3,0-0.4,0.2c-0.3,0.7-0.8,1.2-1.4,1.5c-1.5,0.8-3.4,0.1-4.2-1.4
						l-1.2-2.4c-0.8-1.5-0.1-3.4,1.4-4.2c0.7-0.4,1.6-0.4,2.4-0.2c0.8,0.3,1.4,0.8,1.8,1.6l1.2,2.4c0.3,0.5,0.4,1.1,0.3,1.6
						c0,0.2,0.1,0.3,0.3,0.3c0.2,0,0.3-0.1,0.3-0.3c0-0.7-0.1-1.3-0.4-1.9l-1.2-2.4C74.2,67.8,73.4,67.1,72.5,66.8L72.5,66.8z"/>
					<path class="st7" d="M74.4,76.5c-2.1,1-4.6,0.2-5.7-1.9l-1.2-2.4c-1-2.1-0.2-4.6,1.9-5.7c1-0.5,2.2-0.6,3.2-0.2l0,0l0,0l0,0
						c1.1,0.4,1.9,1.1,2.4,2.1l1.2,2.4c0.3,0.7,0.5,1.4,0.4,2.2c0,0.3-0.2,0.5-0.4,0.7c0.1,0.2,0.2,0.5,0.1,0.8
						C76,75.4,75.3,76.1,74.4,76.5z M75.8,74.2C75.8,74.2,75.8,74.2,75.8,74.2C75.8,74.2,75.8,74.2,75.8,74.2z M70.1,68
						c-1.3,0.6-1.8,2.2-1.2,3.5l1.2,2.4c0.6,1.3,2.2,1.8,3.5,1.2c0.5-0.3,1-0.7,1.2-1.3c0.1-0.2,0.2-0.3,0.4-0.4
						c-0.1-0.1-0.1-0.3-0.1-0.5c0-0.5-0.1-0.9-0.3-1.3l-1.2-2.4c-0.3-0.6-0.8-1.1-1.5-1.3C71.5,67.7,70.7,67.7,70.1,68z"/>
				</g>
				<g>
					<path class="st7" d="M69.1,59.7c-0.1-0.3-0.4-0.5-0.6-0.5c-0.3-0.1-0.6-0.1-0.8,0.1c-0.3,0.1-0.5,0.4-0.5,0.6l-5.9,17.6
						c-0.2,0.6,0.1,1.2,0.7,1.4c0.3,0.1,0.6,0.1,0.8-0.1s0.5-0.4,0.5-0.6l5.9-17.6C69.3,60.3,69.3,60,69.1,59.7L69.1,59.7z
						 M68.6,60.4L62.8,78c0,0.1-0.1,0.2-0.2,0.3c-0.1,0.1-0.2,0.1-0.4,0c-0.3-0.1-0.4-0.4-0.3-0.6l5.9-17.6c0-0.1,0.1-0.2,0.2-0.3
						s0.2-0.1,0.4,0c0.1,0,0.2,0.1,0.3,0.2C68.7,60.1,68.7,60.3,68.6,60.4L68.6,60.4z"/>
					<path class="st7" d="M63,79.3c-0.4,0.2-0.8,0.2-1.2,0.1c-0.4-0.1-0.7-0.4-0.9-0.8c-0.2-0.4-0.2-0.8-0.1-1.2l5.9-17.6
						c0.3-0.8,1.2-1.3,2-1c0.4,0.1,0.7,0.4,0.9,0.8c0.2,0.4,0.2,0.8,0.1,1.2l-5.9,17.6C63.7,78.8,63.4,79.1,63,79.3z"/>
				</g>
				<g>
					<g>
						<path class="st16" d="M62.7,78.6c-0.2,0.1-0.4,0.1-0.6,0c-0.4-0.1-0.6-0.6-0.5-1L67.4,60c0.1-0.4,0.6-0.6,1-0.5
							c0.4,0.1,0.6,0.6,0.5,1l-5.9,17.6C63,78.3,62.8,78.5,62.7,78.6L62.7,78.6z"/>
					</g>
					<g>
						<path class="st17" d="M68.7,59.7c-0.3,0-0.6,0.2-0.7,0.5l-5.9,17.6c-0.1,0.3,0,0.6,0.2,0.8c-0.1,0-0.2,0-0.3,0
							c-0.4-0.1-0.6-0.6-0.5-1L67.4,60c0.1-0.4,0.6-0.6,1-0.5C68.5,59.5,68.6,59.6,68.7,59.7z"/>
					</g>
					<g>
						<g>
							<path class="st16" d="M59.1,62.1c-0.8-0.3-1.8-0.2-2.6,0.2c-1.7,0.8-2.4,2.9-1.5,4.6l1.2,2.4c0.8,1.7,2.9,2.4,4.6,1.5
								c1.7-0.8,2.4-2.9,1.5-4.6L61,63.8C60.6,63,59.9,62.4,59.1,62.1L59.1,62.1z M60.4,67.1c0.3,0.7,0.1,1.5-0.6,1.9
								c-0.7,0.3-1.5,0.1-1.9-0.6L56.7,66c-0.3-0.7-0.1-1.5,0.6-1.9c0.7-0.3,1.5-0.1,1.9,0.6L60.4,67.1z"/>
						</g>
						<g>
							<path class="st16" d="M72.4,67.1c-0.8-0.3-1.8-0.2-2.6,0.2c-1.7,0.8-2.4,2.9-1.5,4.6l1.2,2.4c0.8,1.7,2.9,2.4,4.6,1.5
								s2.4-2.9,1.5-4.6l-1.2-2.4C73.9,68,73.2,67.4,72.4,67.1L72.4,67.1z M73.7,72.1c0.3,0.7,0.1,1.5-0.6,1.9
								c-0.7,0.3-1.5,0.1-1.9-0.6L70,71c-0.3-0.7-0.1-1.5,0.6-1.9c0.7-0.3,1.5-0.1,1.9,0.6L73.7,72.1z"/>
						</g>
					</g>
					<g>
						<g>
							<g>
								<path class="st17" d="M60.2,68.7c0.1,0,0.3-0.1,0.4-0.1c0.7-0.3,1-1.2,0.6-1.9L60,64.3c-0.3-0.7-1.2-1-1.9-0.6
									c-0.1,0.1-0.2,0.2-0.3,0.2c0.6-0.1,1.2,0.2,1.5,0.8l1.2,2.4C60.7,67.7,60.6,68.3,60.2,68.7L60.2,68.7z"/>
							</g>
							<g>
								<path class="st17" d="M56.9,68.9l-1.2-2.4c-0.8-1.6-0.3-3.4,1.2-4.4c-0.1,0-0.3,0.1-0.4,0.2c-1.7,0.8-2.4,2.9-1.5,4.6
									l1.2,2.4c0.8,1.7,2.9,2.4,4.6,1.5c0.1-0.1,0.3-0.1,0.4-0.2C59.5,71.1,57.7,70.4,56.9,68.9L56.9,68.9z"/>
							</g>
						</g>
						<g>
							<g>
								<path class="st17" d="M73.5,73.8c0.1,0,0.3-0.1,0.4-0.1c0.7-0.3,1-1.2,0.6-1.9l-1.2-2.4c-0.3-0.7-1.2-1-1.9-0.6
									c-0.1,0.1-0.2,0.2-0.3,0.2c0.6-0.1,1.2,0.2,1.5,0.8l1.2,2.4C74,72.7,73.9,73.3,73.5,73.8z"/>
							</g>
							<g>
								<path class="st17" d="M70.2,73.9L69,71.5c-0.8-1.6-0.3-3.4,1.2-4.4c-0.1,0-0.3,0.1-0.4,0.2c-1.7,0.8-2.4,2.9-1.5,4.6
									l1.2,2.4c0.8,1.7,2.9,2.4,4.6,1.5c0.1-0.1,0.3-0.1,0.4-0.2C72.8,76.2,71,75.5,70.2,73.9L70.2,73.9z"/>
							</g>
						</g>
					</g>
				</g>
			</g>
		</g>
	</g>
	<g>
		<g>
			<path class="st0" d="M222.5,128l34.1-70.5c1.1-2.2,3.7-3.2,6-2.1l75.9,36.7c2.2,1.1,3.2,3.7,2.1,6l-34.1,70.5
				c-1.1,2.2-3.7,3.2-6,2.1l-75.9-36.7C222.3,132.9,221.4,130.2,222.5,128z"/>
			<path class="st1" d="M256.6,57.5L222.5,128c-1.1,2.2-0.1,4.9,2.1,6l5.9,2.9c-2.2-1.1-3.2-3.7-2.1-6l34.1-70.5
				c1.1-2.2,3.7-3.2,6-2.1l-5.9-2.9C260.3,54.3,257.6,55.2,256.6,57.5z"/>
			<path class="st2" d="M340.5,98.1c1.1-2.2,0.1-4.9-2.1-6l-75.9-36.7c-2.2-1.1-4.9-0.1-6,2.1l-5.4,11.1l84,40.6L340.5,98.1z"/>
			<path class="st3" d="M256.6,57.5l-5.4,11.1l5.9,2.9l5.4-11.1c1.1-2.2,3.7-3.2,6-2.1l-5.9-2.9C260.3,54.3,257.6,55.2,256.6,57.5z"
				/>
			<path class="st4" d="M330.2,93.7c1.6,0.8,2.3,2.8,1.5,4.4c-0.8,1.6-2.8,2.3-4.4,1.5c-1.6-0.8-2.3-2.8-1.5-4.4
				C326.6,93.6,328.5,92.9,330.2,93.7z"/>
			<path class="st5" d="M320.1,88.9c1.6,0.8,2.3,2.8,1.5,4.4c-0.8,1.6-2.8,2.3-4.4,1.5s-2.3-2.8-1.5-4.4
				C316.5,88.8,318.4,88.1,320.1,88.9z"/>
			<path class="st6" d="M310,84c1.6,0.8,2.3,2.8,1.5,4.4s-2.8,2.3-4.4,1.5c-1.6-0.8-2.3-2.8-1.5-4.4C306.4,83.9,308.3,83.2,310,84z"
				/>
			<path class="st7" d="M325,94.9c1-2,3.5-2.9,5.5-1.9s2.9,3.5,1.9,5.5c-1,2-3.5,2.9-5.5,1.9S324,97,325,94.9z M326.5,95.6
				c-0.6,1.2-0.1,2.7,1.2,3.3c1.2,0.6,2.7,0.1,3.3-1.2c0.6-1.2,0.1-2.7-1.2-3.3C328.6,93.9,327.1,94.4,326.5,95.6z"/>
			<path class="st7" d="M314.9,90c1-2,3.5-2.9,5.5-1.9s2.9,3.5,1.9,5.5c-1,2-3.5,2.9-5.5,1.9S313.9,92.1,314.9,90z M316.4,90.7
				c-0.6,1.2-0.1,2.7,1.2,3.3c1.2,0.6,2.7,0.1,3.3-1.2c0.6-1.2,0.1-2.7-1.2-3.3C318.5,89,317,89.5,316.4,90.7z"/>
			<path class="st7" d="M304.8,85.2c1-2,3.5-2.9,5.5-1.9s2.9,3.5,1.9,5.5c-1,2-3.5,2.9-5.5,1.9C304.7,89.7,303.8,87.2,304.8,85.2z
				 M306.3,85.9c-0.6,1.2-0.1,2.7,1.2,3.3c1.2,0.6,2.7,0.1,3.3-1.2c0.6-1.2,0.1-2.7-1.2-3.3C308.4,84.1,306.9,84.6,306.3,85.9z"/>
			<path class="st7" d="M295.8,80.8c0.3-0.7,0-1.5-0.7-1.9L264.3,64c-0.7-0.3-1.5,0-1.9,0.7c-0.3,0.7,0,1.5,0.7,1.9l30.9,14.9
				C294.6,81.8,295.5,81.5,295.8,80.8z"/>
			<path class="st7" d="M255.3,56.8l-34.1,70.5c-1.4,2.9-0.2,6.4,2.7,7.9l75.9,36.7c2.9,1.4,6.4,0.2,7.9-2.7l34.1-70.5
				c1.4-2.9,0.2-6.4-2.7-7.9l-75.9-36.7C260.2,52.7,256.7,53.9,255.3,56.8z M223.7,128.6l28.1-58.1l69.6,33.7c0.7,0.3,1.5,0,1.9-0.7
				c0.3-0.7,0-1.5-0.7-1.9l-69.6-33.7l4.8-9.8c0.7-1.5,2.6-2.2,4.1-1.4l75.9,36.7c1.5,0.7,2.2,2.6,1.4,4.1l-4.8,9.8l-7.1-3.4
				c-0.7-0.3-1.5,0-1.9,0.7c-0.3,0.7,0,1.5,0.7,1.9l7.1,3.4L305.2,168c-0.7,1.5-2.6,2.2-4.1,1.4l-75.9-36.7
				C223.6,131.9,223,130.1,223.7,128.6z"/>
		</g>
		<g>
			<g>
				<path class="st18" d="M263.4,106.6c-0.7,1.3-2.3,1.9-3.6,1.3c-1.3-0.7-1.9-2.3-1.3-3.6c0.6-1.3,2.3-1.9,3.6-1.2
					C263.5,103.6,264,105.2,263.4,106.6L263.4,106.6z"/>
				<path class="st19" d="M281.9,101.6c-0.7,1.3-2.3,1.9-3.6,1.3c-1.3-0.7-1.9-2.3-1.3-3.6c0.6-1.3,2.3-1.9,3.6-1.2
					C282,98.7,282.6,100.3,281.9,101.6z"/>
				<path class="st20" d="M291.2,115.9c-0.7,1.3-2.3,1.9-3.6,1.3c-1.3-0.6-1.9-2.3-1.3-3.6c0.6-1.3,2.3-1.9,3.6-1.2
					C291.3,113,291.8,114.6,291.2,115.9L291.2,115.9z"/>
				<path class="st21" d="M310.4,109.6c-0.7,1.3-2.3,1.9-3.6,1.3c-1.3-0.6-1.9-2.3-1.3-3.6c0.6-1.3,2.3-1.9,3.6-1.2
					C310.4,106.7,311,108.3,310.4,109.6z"/>
				<path class="st22" d="M263.4,106.5L263.4,106.5c-0.7,1.4-2.3,2-3.6,1.4s-1.9-2.3-1.3-3.6c0.3-0.7,1-1.2,1.7-1.4
					c-0.6,1.3,0,2.9,1.3,3.5C262.2,106.6,262.8,106.6,263.4,106.5z"/>
				<path class="st23" d="M282,101.5L282,101.5c-0.7,1.4-2.3,2-3.6,1.4c-1.3-0.7-1.9-2.3-1.3-3.6c0.4-0.7,1-1.2,1.7-1.4
					c-0.6,1.3,0,2.9,1.3,3.5C280.7,101.7,281.4,101.7,282,101.5L282,101.5z"/>
				<path class="st24" d="M291.2,115.8l-0.1,0.1c-0.7,1.3-2.3,1.9-3.6,1.3c-1.3-0.7-1.9-2.3-1.3-3.6c0.4-0.7,1-1.2,1.7-1.4
					c-0.6,1.3,0,2.9,1.3,3.5C289.9,115.9,290.6,116,291.2,115.8L291.2,115.8z"/>
				<path class="st25" d="M310.4,109.5L310.4,109.5c-0.7,1.4-2.3,2-3.6,1.4c-1.3-0.6-1.9-2.3-1.3-3.6c0.3-0.7,1-1.2,1.7-1.4
					c-0.6,1.3,0,2.9,1.3,3.5C309.1,109.6,309.8,109.7,310.4,109.5z"/>
				<path class="st7" d="M259.4,108.6c1.8,0.9,3.9,0.1,4.8-1.7c0.3-0.5,0.4-1.1,0.3-1.6l11.7-3.4c0.3,0.7,0.9,1.4,1.7,1.7
					c0.9,0.5,2,0.4,2.9,0.1l5.1,8.8c-0.2,0.2-0.3,0.4-0.4,0.7c-0.9,1.8-0.1,3.9,1.7,4.8c1.8,0.9,3.9,0.1,4.8-1.7
					c0.2-0.5,0.3-1,0.3-1.5l12.6-4.5c0.3,0.5,0.8,1,1.5,1.3c1.8,0.9,3.9,0.1,4.8-1.7c0.9-1.8,0.1-3.9-1.7-4.8
					c-1.8-0.9-3.9-0.1-4.8,1.7c-0.3,0.6-0.4,1.2-0.3,1.8l-12.5,4.4c-0.3-0.7-0.9-1.2-1.6-1.5c-1-0.5-2-0.4-2.9-0.1l-5.1-8.8
					c0.2-0.2,0.3-0.4,0.5-0.7c0.9-1.8,0.1-3.9-1.7-4.8c-1.8-0.9-3.9-0.1-4.8,1.7c-0.2,0.4-0.3,0.9-0.3,1.3l-11.9,3.4
					c-0.3-0.6-0.9-1.1-1.5-1.4c-1.8-0.9-3.9-0.1-4.8,1.7C256.9,105.6,257.6,107.8,259.4,108.6z M308.7,106.8
					c0.9,0.4,1.3,1.5,0.8,2.4c-0.4,0.9-1.5,1.3-2.4,0.8c-0.9-0.4-1.3-1.5-0.8-2.4S307.8,106.4,308.7,106.8z M289.5,113.1
					c0.9,0.4,1.3,1.5,0.8,2.4s-1.5,1.3-2.4,0.8c-0.9-0.4-1.3-1.5-0.8-2.4C287.5,113.1,288.6,112.7,289.5,113.1L289.5,113.1z
					 M280.3,98.8c0.9,0.4,1.3,1.5,0.8,2.4c-0.4,0.9-1.5,1.3-2.4,0.8c-0.9-0.4-1.3-1.5-0.8-2.4C278.3,98.8,279.4,98.4,280.3,98.8
					L280.3,98.8z M261.7,103.8c0.9,0.4,1.3,1.5,0.8,2.4c-0.4,0.9-1.5,1.3-2.4,0.8c-0.9-0.4-1.3-1.5-0.8-2.4
					C259.8,103.7,260.8,103.3,261.7,103.8L261.7,103.8z"/>
			</g>
			<g>
				<path class="st26" d="M252,119.3l8.4,4.1l-5.8,12l-8.4-4.1L252,119.3z"/>
				<path class="st27" d="M254.3,136l-8.4-4.1c-0.4-0.2-0.5-0.6-0.3-1l5.8-12c0.2-0.4,0.6-0.5,1-0.3l8.4,4.1c0.4,0.2,0.5,0.6,0.3,1
					l-5.8,12C255.1,136.1,254.7,136.2,254.3,136z M247.2,131l7.1,3.4l5.2-10.7l-7.1-3.4L247.2,131z"/>
				<path class="st28" d="M269.6,112.7l8.4,4.1L266.3,141l-8.4-4.1L269.6,112.7z"/>
				<path class="st27" d="M266,141.7l-8.4-4.1c-0.4-0.2-0.5-0.6-0.3-1l11.7-24.2c0.2-0.4,0.6-0.5,1-0.3l8.4,4.1
					c0.4,0.2,0.5,0.6,0.3,1L267,141.3C266.8,141.7,266.3,141.9,266,141.7z M258.9,136.6l7.1,3.4l11.1-22.9l-7.1-3.4L258.9,136.6z"/>
				<path class="st29" d="M278.3,124.5l8.4,4.1l-8.7,18.1l-8.4-4.1L278.3,124.5z"/>
				<path class="st27" d="M277.6,147.3l-8.4-4.1c-0.4-0.2-0.5-0.6-0.3-1l8.7-18.1c0.2-0.4,0.6-0.5,1-0.3l8.4,4.1
					c0.4,0.2,0.5,0.6,0.3,1l-8.7,18.1C278.4,147.4,278,147.5,277.6,147.3z M270.5,142.3l7.1,3.4l8.1-16.7l-7.1-3.4L270.5,142.3z"/>
				<path class="st30" d="M295.2,119.3l8.4,4.1l-14,29l-8.4-4.1L295.2,119.3z"/>
				<path class="st27" d="M289.3,153l-8.4-4.1c-0.4-0.2-0.5-0.6-0.3-1l14-29c0.2-0.4,0.6-0.5,1-0.3l8.4,4.1c0.4,0.2,0.5,0.6,0.3,1
					l-14,29C290.1,153,289.7,153.2,289.3,153L289.3,153z M282.2,147.9l7.1,3.4l13.4-27.6l-7.1-3.4L282.2,147.9z"/>
			</g>
		</g>
	</g>
	<g>
		<g>
			<path class="st0" d="M477,118.2l-35.2-70c-1.1-2.2-0.2-4.9,2-6l75.4-37.9c2.2-1.1,4.9-0.2,6,2l35.2,70c1.1,2.2,0.2,4.9-2,6
				L483,120.2C480.8,121.3,478.1,120.4,477,118.2z"/>
			<path class="st1" d="M441.9,48.2l35.2,70c1.1,2.2,3.8,3.1,6,2l5.9-2.9c-2.2,1.1-4.9,0.2-6-2l-35.2-70c-1.1-2.2-0.2-4.9,2-6
				l-5.9,2.9C441.7,43.4,440.8,46,441.9,48.2z"/>
			<path class="st2" d="M525.2,6.4c-1.1-2.2-3.8-3.1-6-2l-75.4,37.9c-2.2,1.1-3.1,3.8-2,6l5.5,11l83.4-41.9L525.2,6.4z"/>
			<path class="st3" d="M441.9,48.2l5.5,11l5.9-2.9l-5.5-11c-1.1-2.2-0.2-4.9,2-6l-5.9,2.9C441.7,43.4,440.8,46,441.9,48.2z"/>
			<path class="st4" d="M515.5,11.9c1.6-0.8,3.6-0.2,4.4,1.5c0.8,1.6,0.2,3.6-1.5,4.4c-1.6,0.8-3.6,0.2-4.4-1.5
				C513.2,14.8,513.9,12.8,515.5,11.9z"/>
			<path class="st5" d="M505.5,17c1.6-0.8,3.6-0.2,4.4,1.5s0.2,3.6-1.5,4.4c-1.6,0.8-3.6,0.2-4.4-1.5S503.8,17.8,505.5,17z"/>
			<path class="st6" d="M495.5,22c1.6-0.8,3.6-0.2,4.4,1.5c0.8,1.6,0.2,3.6-1.5,4.4c-1.6,0.8-3.6,0.2-4.4-1.5S493.8,22.8,495.5,22z"
				/>
			<path class="st7" d="M513.3,16.8c-1-2-0.2-4.5,1.8-5.5s4.5-0.2,5.5,1.8s0.2,4.5-1.8,5.5C516.8,19.6,514.3,18.8,513.3,16.8z
				 M514.8,16c0.6,1.2,2.1,1.7,3.4,1.1c1.2-0.6,1.7-2.1,1.1-3.4c-0.6-1.2-2.1-1.7-3.4-1.1C514.6,13.3,514.1,14.8,514.8,16z"/>
			<path class="st7" d="M503.3,21.8c-1-2-0.2-4.5,1.8-5.5c2-1,4.5-0.2,5.5,1.8s0.2,4.5-1.8,5.5C506.8,24.6,504.3,23.8,503.3,21.8z
				 M504.7,21.1c0.6,1.2,2.1,1.7,3.4,1.1c1.2-0.6,1.7-2.1,1.1-3.4c-0.6-1.2-2.1-1.7-3.4-1.1C504.6,18.3,504.1,19.8,504.7,21.1z"/>
			<path class="st7" d="M493.3,26.8c-1-2-0.2-4.5,1.8-5.5c2-1,4.5-0.2,5.5,1.8c1,2,0.2,4.5-1.8,5.5
				C496.8,29.7,494.3,28.9,493.3,26.8z M494.7,26.1c0.6,1.2,2.1,1.7,3.4,1.1c1.2-0.6,1.7-2.1,1.1-3.4c-0.6-1.2-2.1-1.7-3.4-1.1
				C494.6,23.4,494.1,24.9,494.7,26.1z"/>
			<path class="st7" d="M484.3,31.3c-0.3-0.7-1.2-1-1.9-0.6l-30.6,15.4c-0.7,0.3-1,1.2-0.6,1.9c0.3,0.7,1.2,1,1.9,0.6l30.6-15.4
				C484.4,32.9,484.6,32,484.3,31.3z"/>
			<path class="st7" d="M440.6,48.9l35.2,70c1.5,2.9,5,4.1,7.9,2.6L559,83.6c2.9-1.5,4.1-5,2.6-7.9l-35.2-70c-1.4-2.9-5-4.1-7.9-2.6
				L443.2,41C440.3,42.4,439.2,46,440.6,48.9z M478.3,117.6l-29-57.7l69.1-34.7c0.7-0.3,1-1.2,0.6-1.9c-0.3-0.7-1.2-1-1.9-0.6
				L448,57.4l-4.9-9.8c-0.8-1.5-0.1-3.4,1.4-4.1l75.4-37.9c1.5-0.8,3.4-0.2,4.1,1.4l4.9,9.8l-7,3.5c-0.7,0.3-1,1.2-0.6,1.9
				c0.3,0.7,1.2,1,1.9,0.6l7-3.5l29,57.7c0.8,1.5,0.1,3.4-1.4,4.1L482.4,119C480.9,119.7,479.1,119.1,478.3,117.6z"/>
		</g>
		<g>
			<g>
				<path class="st30" d="M513,56.8l-24.4,12.3c-0.4,0.2-0.9,0-1.1-0.4l-0.7-1.4c-0.2-0.4,0-0.9,0.4-1.1L511.6,54
					c0.4-0.2,0.9,0,1.1,0.4l0.7,1.4C513.6,56.2,513.4,56.6,513,56.8L513,56.8z"/>
			</g>
			<g>
				<path class="st31" d="M501.2,62.8l-0.8,0.4l-11,5.5l13.9,6.8l4.3,8.6c0.1,0.2,0.3,0.3,0.5,0.2l5.3-2.7c0.2-0.1,0.3-0.3,0.2-0.5
					l-4.3-8.6l2.8-15.2L501.2,62.8z"/>
			</g>
			<g>
				<g>
					<g>
						<path class="st32" d="M508.9,50.9l-5.4,2.7l-0.5-1.1c-0.6-1.3-0.1-2.8,1.1-3.5l0.7-0.4c1.3-0.6,2.8-0.1,3.5,1.1L508.9,50.9
							L508.9,50.9z"/>
					</g>
					<g>
						<path class="st7" d="M509,51.3l-5.4,2.7c-0.2,0.1-0.4,0-0.5-0.2l-0.5-1.1c-0.7-1.5-0.1-3.3,1.3-4l0.7-0.4
							c1.5-0.7,3.3-0.1,4,1.3l0.5,1.1C509.3,50.9,509.2,51.2,509,51.3L509,51.3z M503.7,53.1l4.6-2.3L508,50c-0.5-1.1-1.9-1.5-2.9-1
							l-0.7,0.4c-1.1,0.5-1.5,1.9-1,2.9L503.7,53.1L503.7,53.1z"/>
						<path class="st33" d="M509.2,51.5l-5.4,2.7c-0.3,0.2-0.8,0-0.9-0.3l-0.5-1.1c-0.8-1.6-0.2-3.6,1.5-4.4l0.7-0.4
							c1.6-0.8,3.6-0.2,4.4,1.5l0.5,1.1C509.6,50.9,509.5,51.4,509.2,51.5z M504.1,48.9c-1.3,0.7-1.9,2.3-1.2,3.6l0.5,1.1
							c0,0.1,0.1,0.1,0.2,0l5.4-2.7c0.1,0,0.1-0.1,0-0.2l-0.5-1.1c-0.7-1.3-2.3-1.9-3.6-1.2L504.1,48.9z M508.7,50.9l-5.2,2.6
							l-0.5-1c-0.6-1.2-0.1-2.7,1.1-3.3l0.7-0.4c1.2-0.6,2.7-0.1,3.3,1.1L508.7,50.9z M503.8,52.7l4.1-2.1l-0.2-0.5
							c-0.5-0.9-1.6-1.3-2.5-0.8l-0.7,0.4c-0.9,0.5-1.3,1.6-0.8,2.5L503.8,52.7z"/>
					</g>
					<g>
						<circle class="st34" cx="503.1" cy="46.2" r="3"/>
					</g>
					<g>
						<path class="st7" d="M504.7,49.2c-1.7,0.8-3.7,0.2-4.6-1.5c-0.8-1.7-0.2-3.7,1.5-4.6s3.7-0.2,4.6,1.5S506.3,48.4,504.7,49.2z
							 M502,43.9c-1.3,0.6-1.8,2.2-1.2,3.5c0.6,1.3,2.2,1.8,3.5,1.2c1.3-0.6,1.8-2.2,1.2-3.5C504.8,43.7,503.2,43.2,502,43.9z"/>
						<path class="st33" d="M504.8,49.5c-1.8,0.9-4,0.2-4.9-1.6c-0.9-1.8-0.2-4,1.6-4.9c1.8-0.9,4-0.2,4.9,1.6
							C507.3,46.3,506.6,48.6,504.8,49.5z M501.7,43.4c-1.5,0.8-2.2,2.6-1.4,4.2c0.8,1.5,2.6,2.1,4.2,1.4s2.2-2.6,1.4-4.2
							C505.1,43.3,503.3,42.6,501.7,43.4z M504.4,48.8c-1.4,0.7-3.2,0.1-3.9-1.3c-0.7-1.4-0.1-3.2,1.3-3.9c1.4-0.7,3.2-0.1,3.9,1.3
							C506.4,46.3,505.8,48,504.4,48.8z M502.1,44.1c-1.1,0.6-1.6,2-1,3.1c0.6,1.1,2,1.6,3.1,1c1.1-0.6,1.6-2,1-3.1
							C504.6,44,503.2,43.5,502.1,44.1z"/>
					</g>
				</g>
				<g>
					<g>
						<path class="st35" d="M501.1,54.7l-7,3.5l-0.7-1.4c-0.8-1.7-0.2-3.7,1.5-4.6l1-0.5c1.7-0.8,3.7-0.2,4.6,1.5L501.1,54.7
							L501.1,54.7z"/>
					</g>
					<g>
						<path class="st7" d="M501.3,55.2l-7,3.5c-0.2,0.1-0.5,0-0.6-0.2l-0.7-1.4c-1-1.9-0.2-4.2,1.7-5.2l1-0.5c1.9-1,4.2-0.2,5.2,1.7
							l0.7,1.4C501.6,54.8,501.5,55,501.3,55.2L501.3,55.2z M494.3,57.7l6.2-3.1l-0.5-1c-0.7-1.4-2.5-2-3.9-1.3l-1,0.5
							c-1.4,0.7-2,2.5-1.3,3.9L494.3,57.7L494.3,57.7z"/>
						<path class="st7" d="M501.4,55.5l-7,3.5c-0.4,0.2-0.9,0-1.1-0.4l-0.7-1.4c-1-2.1-0.2-4.6,1.9-5.6l1-0.5c2.1-1,4.6-0.2,5.6,1.9
							l0.7,1.4C502,54.8,501.8,55.3,501.4,55.5z M494.8,52.2c-1.7,0.9-2.4,3-1.6,4.7l0.7,1.4c0,0.1,0.1,0.1,0.2,0.1l7-3.5
							c0.1,0,0.1-0.1,0.1-0.2l-0.7-1.4c-0.9-1.7-3-2.4-4.7-1.6L494.8,52.2z M500.9,54.7l-6.8,3.4l-0.7-1.3c-0.8-1.6-0.2-3.6,1.4-4.4
							l1-0.5c1.6-0.8,3.6-0.2,4.4,1.4L500.9,54.7z M494.4,57.2l5.6-2.8l-0.4-0.7c-0.6-1.3-2.2-1.8-3.5-1.2l-1,0.5
							c-1.3,0.6-1.8,2.2-1.2,3.5L494.4,57.2z"/>
					</g>
					<g>
						<circle class="st34" cx="493.6" cy="48.5" r="3.9"/>
					</g>
					<g>
						<path class="st7" d="M495.5,52.5c-2.2,1.1-4.8,0.2-5.9-2s-0.2-4.8,2-5.9c2.2-1.1,4.8-0.2,5.9,2
							C498.6,48.7,497.7,51.4,495.5,52.5z M492,45.4c-1.7,0.9-2.4,2.9-1.5,4.7c0.9,1.7,2.9,2.4,4.7,1.5c1.7-0.9,2.4-2.9,1.5-4.7
							S493.7,44.6,492,45.4z"/>
						<path class="st7" d="M495.7,52.8c-2.3,1.2-5.2,0.2-6.3-2.1c-1.2-2.3-0.2-5.2,2.1-6.3c2.3-1.2,5.2-0.2,6.3,2.1
							C499,48.7,498,51.6,495.7,52.8z M491.7,44.9c-2,1-2.8,3.4-1.8,5.4c1,2,3.4,2.8,5.4,1.8c2-1,2.8-3.4,1.8-5.4
							S493.7,43.9,491.7,44.9z M495.3,51.9c-1.9,0.9-4.2,0.2-5.1-1.7s-0.2-4.2,1.7-5.1c1.9-0.9,4.2-0.2,5.1,1.7
							C497.9,48.7,497.1,51,495.3,51.9z M492.2,45.7c-1.5,0.8-2.2,2.7-1.4,4.2c0.8,1.5,2.7,2.2,4.2,1.4c1.5-0.8,2.2-2.7,1.4-4.2
							C495.6,45.6,493.7,45,492.2,45.7z"/>
					</g>
				</g>
				<g>
					<g>
						<path class="st36" d="M491.7,59.5l-5.4,2.7l-0.5-1.1c-0.6-1.3-0.1-2.8,1.1-3.5l0.7-0.4c1.3-0.6,2.8-0.1,3.5,1.1L491.7,59.5
							L491.7,59.5z"/>
					</g>
					<g>
						<path class="st7" d="M491.9,59.9l-5.4,2.7c-0.2,0.1-0.4,0-0.5-0.2l-0.5-1.1c-0.7-1.5-0.1-3.3,1.3-4l0.7-0.4
							c1.5-0.7,3.3-0.1,4,1.3l0.5,1.1C492.1,59.6,492.1,59.8,491.9,59.9L491.9,59.9z M486.5,61.7l4.6-2.3l-0.4-0.7
							c-0.5-1.1-1.9-1.5-2.9-1l-0.7,0.4c-1.1,0.5-1.5,1.9-1,2.9L486.5,61.7z"/>
						<path class="st7" d="M492,60.2l-5.4,2.7c-0.3,0.2-0.8,0-0.9-0.3l-0.5-1.1c-0.8-1.6-0.2-3.6,1.5-4.4l0.7-0.4
							c1.6-0.8,3.6-0.2,4.4,1.5l0.5,1.1c0.1,0.2,0.1,0.3,0,0.5C492.3,59.9,492.2,60.1,492,60.2z M486.9,57.6
							c-1.3,0.7-1.9,2.3-1.2,3.6l0.5,1.1c0,0.1,0.1,0.1,0.2,0l5.4-2.7c0,0,0.1,0,0.1-0.1c0,0,0,0,0-0.1l-0.5-1.1
							c-0.7-1.3-2.3-1.9-3.6-1.2L486.9,57.6z M491.5,59.5l-5.2,2.6l-0.5-1c-0.6-1.2-0.1-2.7,1.1-3.3l0.7-0.4
							c1.2-0.6,2.7-0.1,3.3,1.1L491.5,59.5z M486.6,61.3l4.1-2.1l-0.2-0.5c-0.5-0.9-1.6-1.3-2.5-0.8l-0.7,0.4
							c-0.9,0.5-1.3,1.6-0.8,2.5L486.6,61.3z"/>
					</g>
					<g>
						<circle class="st34" cx="486" cy="54.8" r="3"/>
					</g>
					<g>
						<path class="st7" d="M487.5,57.8c-1.7,0.8-3.7,0.2-4.6-1.5c-0.8-1.7-0.2-3.7,1.5-4.6s3.7-0.2,4.6,1.5
							C489.8,55,489.2,57,487.5,57.8L487.5,57.8z M484.8,52.5c-1.3,0.6-1.8,2.2-1.2,3.5s2.2,1.8,3.5,1.2s1.8-2.2,1.2-3.5
							S486.1,51.8,484.8,52.5z"/>
						<path class="st7" d="M487.6,58.1c-1.8,0.9-4,0.2-4.9-1.6s-0.2-4,1.6-4.9c1.8-0.9,4-0.2,4.9,1.6S489.4,57.2,487.6,58.1z
							 M484.6,52c-1.5,0.8-2.2,2.6-1.4,4.2c0.8,1.5,2.6,2.1,4.2,1.4s2.2-2.6,1.4-4.2S486.1,51.3,484.6,52z M487.3,57.4
							c-1.4,0.7-3.2,0.1-3.9-1.3c-0.7-1.4-0.1-3.2,1.3-3.9c1.4-0.7,3.2-0.1,3.9,1.3C489.2,54.9,488.7,56.7,487.3,57.4z M484.9,52.7
							c-1.1,0.6-1.6,2-1,3.1c0.6,1.1,2,1.6,3.1,1s1.6-2,1-3.1C487.5,52.6,486.1,52.2,484.9,52.7z"/>
					</g>
				</g>
			</g>
			<g>
				<g>
					<circle class="st37" cx="514.4" cy="90" r="4.6"/>
				</g>
				<g>
					<circle class="st38" cx="514.4" cy="90" r="3.3"/>
				</g>
				<g>
					<path class="st37" d="M515.2,92.2c-0.6,0.2-1.2,0.1-1.5-0.5c0-0.1,0-0.1,0-0.2l0.4-0.2c0,0,0.1,0,0.1,0
						c0.1,0.2,0.3,0.3,0.5,0.3c0.1,0,0.1-0.1,0.1-0.2l-0.5-1.1c0,0-0.1-0.1-0.1-0.1c-0.6,0.1-1.2,0.2-1.6-0.6
						c-0.3-0.6-0.1-1.3,0.4-1.6c0,0,0.1-0.1,0-0.1l-0.1-0.3c0-0.1,0-0.1,0.1-0.2l0.1-0.1c0.1,0,0.1,0,0.2,0.1l0.1,0.3
						c0,0,0.1,0.1,0.1,0.1c0.6-0.2,1.1,0,1.4,0.5c0,0.1,0,0.1,0,0.2l-0.4,0.2c0,0-0.1,0-0.1,0c-0.1-0.1-0.3-0.2-0.4-0.2
						c-0.1,0-0.2,0.1-0.1,0.2l0.5,1c0,0,0.1,0.1,0.1,0.1c0.6-0.1,1.2-0.2,1.6,0.6c0.3,0.5,0.2,1.2-0.4,1.7c0,0-0.1,0.1,0,0.1
						l0.1,0.3c0,0.1,0,0.1-0.1,0.2l-0.1,0.1c-0.1,0-0.1,0-0.2-0.1l-0.1-0.3C515.3,92.2,515.2,92.2,515.2,92.2L515.2,92.2z M514,89.6
						l-0.4-0.9c0-0.1-0.1-0.1-0.2,0c-0.2,0.2-0.2,0.4-0.1,0.7c0.1,0.3,0.4,0.4,0.6,0.4C514,89.8,514,89.7,514,89.6z M514.8,90.4
						l0.4,0.9c0,0.1,0.1,0.1,0.2,0c0.2-0.2,0.2-0.5,0.1-0.7c-0.1-0.3-0.3-0.3-0.6-0.3C514.8,90.3,514.8,90.4,514.8,90.4z"/>
				</g>
				<g>
					<path class="st7" d="M516.7,94.5c-2.5,1.2-5.5,0.2-6.8-2.2c-1.2-2.5-0.2-5.5,2.2-6.8c2.5-1.2,5.5-0.2,6.8,2.2
						C520.2,90.3,519.2,93.3,516.7,94.5L516.7,94.5z M512.5,86.3c-2.1,1-2.9,3.6-1.9,5.7c1,2.1,3.6,2.9,5.7,1.9
						c2.1-1,2.9-3.6,1.9-5.7C517.1,86.1,514.6,85.2,512.5,86.3L512.5,86.3z"/>
					<path class="st33" d="M516.8,94.8c-2.6,1.3-5.8,0.3-7.1-2.4c-1.3-2.6-0.3-5.8,2.4-7.1s5.8-0.3,7.1,2.4
						C520.5,90.3,519.4,93.5,516.8,94.8z M512.3,85.8c-2.3,1.2-3.3,4-2.1,6.4c1.2,2.3,4,3.3,6.4,2.1c2.3-1.2,3.3-4,2.1-6.4
						S514.6,84.6,512.3,85.8z M516.4,94.1c-2.2,1.1-4.9,0.2-6.1-2c-1.1-2.2-0.2-4.9,2-6.1c2.2-1.1,4.9-0.2,6.1,2
						C519.6,90.2,518.7,93,516.4,94.1z M512.6,86.5c-1.9,1-2.7,3.4-1.8,5.3c1,1.9,3.4,2.7,5.3,1.8c1.9-1,2.7-3.4,1.8-5.3
						C517,86.3,514.6,85.5,512.6,86.5z"/>
				</g>
			</g>
			<g>
				<path class="st28" d="M517.7,82.5l6.8,3.5c0.2,0.1,0.5,0,0.5-0.3l1.2-7.5c0-0.3-0.2-0.5-0.5-0.4l-1.4,0.7
					c-0.2,0.1-0.4,0-0.5-0.2l-4.3-8.6c-0.1-0.2-0.3-0.2-0.5-0.2l-4,2c-0.2,0.1-0.2,0.3-0.2,0.5l4.3,8.6c0.1,0.2,0,0.4-0.2,0.5
					l-1.4,0.7C517.4,82,517.4,82.4,517.7,82.5L517.7,82.5z"/>
				<path class="st7" d="M525,86.6c-0.3,0.1-0.6,0.1-0.9,0l-6.8-3.5c-0.3-0.2-0.5-0.5-0.5-0.9c0-0.4,0.2-0.7,0.5-0.9l1.1-0.6
					l-4.2-8.3c-0.2-0.5,0-1.1,0.4-1.3l4-2c0.5-0.2,1.1,0,1.3,0.4l4.2,8.3l1.1-0.6c0.3-0.2,0.7-0.1,1,0.1c0.3,0.2,0.4,0.6,0.4,0.9
					l-1.2,7.5C525.5,86.2,525.3,86.4,525,86.6C525,86.6,525,86.6,525,86.6z M518.4,82.2l5.9,3.1l1.1-6.6l-0.9,0.4
					c-0.5,0.2-1.1,0-1.3-0.4l-4.2-8.3l-3.5,1.8l4.2,8.3c0.2,0.5,0,1.1-0.4,1.3L518.4,82.2z M517.9,81.9L517.9,81.9
					C517.9,81.9,517.9,81.9,517.9,81.9L517.9,81.9z"/>
			</g>
			<g>
				<g>
					<path class="st7" d="M513.2,57.2l-24.4,12.3c-0.6,0.3-1.3,0.1-1.6-0.5l-0.7-1.4c-0.3-0.6-0.1-1.3,0.5-1.6l24.4-12.3
						c0.6-0.3,1.3-0.1,1.6,0.5l0.7,1.4C514,56.2,513.8,56.9,513.2,57.2z M487.3,66.6c-0.2,0.1-0.3,0.4-0.2,0.6l0.7,1.4
						c0.1,0.2,0.4,0.3,0.6,0.2l24.4-12.3c0.2-0.1,0.3-0.4,0.2-0.6l-0.7-1.4c-0.1-0.2-0.4-0.3-0.6-0.2L487.3,66.6z"/>
					<path class="st7" d="M513.4,57.6L489,69.9c-0.8,0.4-1.8,0.1-2.2-0.7l-0.7-1.4c-0.4-0.8-0.1-1.8,0.7-2.2l24.4-12.3
						c0.8-0.4,1.8-0.1,2.2,0.7l0.7,1.4C514.5,56.2,514.2,57.2,513.4,57.6z M487.6,67l0.7,1.4l24.4-12.3l-0.7-1.4L487.6,67z"/>
				</g>
				<g>
					<path class="st7" d="M513.7,82l-5.3,2.7c-0.4,0.2-0.9,0-1.1-0.4l-4.2-8.4L489.3,69c-0.1-0.1-0.2-0.2-0.2-0.4
						c0-0.2,0.1-0.3,0.2-0.4L512,56.9c0.1-0.1,0.3-0.1,0.4,0c0.1,0.1,0.2,0.2,0.2,0.4l-2.8,15.1l4.2,8.4
						C514.2,81.3,514.1,81.8,513.7,82z M490.3,68.7l13.2,6.5c0.1,0,0.1,0.1,0.2,0.2l4.3,8.6l5.3-2.6l-4.3-8.6c0-0.1-0.1-0.2,0-0.3
						l2.7-14.4L490.3,68.7L490.3,68.7z"/>
					<path class="st7" d="M513.9,82.4l-5.3,2.7c-0.6,0.3-1.4,0.1-1.7-0.5l-4.2-8.3l-13.7-6.7c-0.3-0.1-0.5-0.4-0.5-0.7
						c0-0.3,0.2-0.6,0.5-0.7l22.7-11.4c0.3-0.1,0.6-0.1,0.9,0.1c0.3,0.2,0.4,0.5,0.3,0.8l-2.8,15l4.2,8.3
						C514.7,81.3,514.5,82,513.9,82.4z M508.2,83.3l4.5-2.3l-4.1-8.2c-0.1-0.2-0.1-0.3-0.1-0.5l2.5-13.6l-19.8,9.9l12.4,6.1
						c0.2,0.1,0.3,0.2,0.4,0.4L508.2,83.3z"/>
				</g>
			</g>
		</g>
	</g>
</g>
</svg>
