<?xml version="1.0" encoding="utf-8"?>
<!-- Generator: Adobe Illustrator 25.0.0, SVG Export Plug-In . SVG Version: 6.00 Build 0)  -->
<svg version="1.1" id="Layer_1" xmlns="http://www.w3.org/2000/svg" xmlns:xlink="http://www.w3.org/1999/xlink" x="0px" y="0px"
	 viewBox="0 0 151 150" style="enable-background:new 0 0 151 150;" xml:space="preserve">
<style type="text/css">
	.st0{fill:#FAB365;}
	.st1{fill:#E5A25A;}
	.st2{fill:#44C7F4;}
	.st3{fill:#2DB9EB;}
	.st4{fill:#FFFFFF;}
	.st5{fill:#DDDDDC;}
	.st6{fill:#35414D;}
</style>
<g>
	<g>
		<g>
			<g>
				<g>
					<g>
						<path class="st0" d="M143,88.9L143,88.9c-2.3,0-4.2-1.4-5-3.5c-0.3-0.8-0.6-1.6-1-2.4c-0.9-2-0.6-4.4,1-6h0
							c2.1-2.1,2.1-5.4,0-7.5l-7.7-7.7c-2.1-2.1-5.4-2.1-7.4,0l0,0c-1.6,1.6-4,1.9-6,1c-0.8-0.4-1.6-0.7-2.4-1
							c-2.1-0.8-3.5-2.7-3.5-5c0-1.5-0.6-2.8-1.5-3.7c-1-0.9-2.3-1.5-3.7-1.5H94.7c-2.9,0-5.3,2.4-5.3,5.3c0,2.2-1.4,4.2-3.5,5
							c-0.8,0.3-1.6,0.6-2.4,1c-2,0.9-4.4,0.5-6-1c-1-1-2.4-1.5-3.7-1.5c-1.3,0-2.7,0.5-3.7,1.5l-7.7,7.7c-2.1,2.1-2.1,5.4,0,7.4
							l0.1,0.1c1.6,1.6,1.9,4,1,6c-0.4,0.8-0.7,1.6-1,2.4c-0.8,2.1-2.7,3.5-5,3.5h-0.1c-2.9,0-5.3,2.4-5.3,5.3v10.9
							c0,2.9,2.4,5.3,5.3,5.3h0c2.2,0,4.2,1.4,5,3.5c0.3,0.8,0.6,1.6,1,2.4c0.9,2,0.5,4.4-1,6c-1,1-1.5,2.4-1.5,3.7
							c0,1.4,0.5,2.7,1.5,3.7l7.7,7.7c2.1,2,5.4,2,7.4,0v0c1.6-1.6,4-1.9,6-1c0.8,0.3,1.6,0.7,2.4,1c2.1,0.8,3.5,2.7,3.5,5v0
							c0,2.9,2.4,5.3,5.3,5.3h10.9c2.9,0,5.3-2.4,5.3-5.3v0c0-2.2,1.4-4.2,3.5-4.9c0.8-0.3,1.6-0.6,2.4-1c2-0.9,4.4-0.6,6,1l0,0
							c2.1,2,5.4,2,7.4,0l7.7-7.7c2.1-2.1,2.1-5.4,0-7.5c-1-1-1.5-2.3-1.5-3.7c0-0.8,0.2-1.5,0.5-2.3c0.4-0.8,0.7-1.6,1-2.4
							c0.8-2.1,2.7-3.5,4.9-3.5h0c2.9,0,5.3-2.4,5.3-5.3V94.2C148.2,91.3,145.9,88.9,143,88.9L143,88.9z M100.2,122.5
							c-12.6,0-22.9-10.2-22.9-22.9c0-12.6,10.2-22.9,22.9-22.9c12.6,0,22.9,10.2,22.9,22.9C123,112.3,112.8,122.5,100.2,122.5z"/>
					</g>
				</g>
			</g>
			<g>
				<g>
					<g>
						<path class="st1" d="M148.2,94.2v10.9c0,2.9-2.4,5.3-5.3,5.3h0c-2.2,0-4.2,1.4-4.9,3.5c-0.3,0.8-0.7,1.6-1,2.4
							c-0.3,0.7-0.5,1.5-0.5,2.3c0,1.4,0.5,2.7,1.5,3.7c2.1,2.1,2.1,5.4,0,7.5l-7.7,7.7c-2.1,2-5.4,2-7.4,0l0,0
							c-1.6-1.6-3.9-1.9-6-1c-0.8,0.4-1.6,0.7-2.4,1c-2.1,0.8-3.5,2.7-3.5,4.9v0c0,2.9-2.4,5.3-5.3,5.3H94.7c-2.9,0-5.3-2.4-5.3-5.3
							v0c0-0.9-0.2-1.7-0.6-2.5h9.1c2.9,0,5.3-2.4,5.3-5.3v0c0-2.2,1.4-4.2,3.5-4.9c0.8-0.3,1.6-0.6,2.4-1c2-0.9,4.4-0.6,6,1l0,0
							c2.1,2,5.4,2,7.4,0l7.7-7.7c2.1-2.1,2.1-5.4,0-7.5c-1-1-1.5-2.3-1.5-3.7c0-0.8,0.2-1.5,0.5-2.3c0.4-0.8,0.7-1.6,1-2.4
							c0.8-2.1,2.7-3.5,4.9-3.5h0c2.9,0,5.3-2.4,5.3-5.3v-9c0.7,0.4,1.6,0.6,2.4,0.6h0.1C145.9,88.9,148.2,91.3,148.2,94.2z"/>
					</g>
				</g>
			</g>
		</g>
	</g>
	<g>
		<g>
			<g>
				<g>
					<g>
						<g>
							<path class="st2" d="M110.8,46.6L110.8,46.6c-2.7,0-5-1.7-6-4.1c-0.4-1-0.8-1.9-1.2-2.9c-1.1-2.4-0.7-5.3,1.2-7.1h0
								c2.5-2.5,2.5-6.4,0-8.9l-9.2-9.2c-2.5-2.5-6.4-2.5-8.9,0l0,0c-1.9,1.9-4.7,2.3-7.1,1.2c-0.9-0.4-1.9-0.8-2.9-1.2
								c-2.5-0.9-4.2-3.2-4.2-5.9c0-1.7-0.7-3.3-1.8-4.4c-1.1-1.1-2.7-1.8-4.4-1.8h-13c-3.5,0-6.3,2.8-6.3,6.3c0,2.7-1.7,5-4.2,5.9
								c-1,0.4-1.9,0.8-2.8,1.2c-2.4,1.1-5.3,0.6-7.1-1.2c-1.2-1.2-2.8-1.8-4.4-1.8c-1.6,0-3.2,0.6-4.4,1.8l-9.2,9.2
								c-2.5,2.5-2.5,6.4,0,8.9l0.1,0.1c1.9,1.9,2.3,4.7,1.2,7.1c-0.4,0.9-0.8,1.9-1.2,2.8c-1,2.5-3.3,4.1-5.9,4.1H9
								c-3.5,0-6.3,2.8-6.3,6.3v13c0,3.5,2.8,6.3,6.3,6.3h0c2.6,0,5,1.7,5.9,4.1c0.4,1,0.8,2,1.2,2.9c1.1,2.4,0.6,5.2-1.2,7.1
								c-1.2,1.2-1.8,2.8-1.8,4.4c0,1.6,0.6,3.2,1.8,4.5l9.2,9.2c2.5,2.4,6.4,2.4,8.9,0v0c1.9-1.9,4.7-2.3,7.1-1.2
								c1,0.4,1.9,0.8,2.9,1.2c2.5,1,4.2,3.3,4.2,5.9v0c0,3.5,2.8,6.3,6.3,6.3h13c3.5,0,6.3-2.8,6.3-6.3v0c0-2.6,1.7-5,4.2-5.9
								c1-0.4,2-0.8,2.9-1.2c2.4-1.1,5.2-0.7,7.1,1.2l0,0c2.5,2.4,6.4,2.4,8.9,0l9.2-9.2c2.5-2.5,2.5-6.4,0-8.9
								c-1.2-1.2-1.8-2.8-1.8-4.4c0-0.9,0.2-1.8,0.6-2.7c0.4-1,0.8-1.9,1.2-2.9c0.9-2.5,3.2-4.1,5.9-4.1h0c3.5,0,6.3-2.8,6.3-6.3
								v-13C117,49.4,114.2,46.6,110.8,46.6L110.8,46.6z"/>
						</g>
					</g>
				</g>
				<g>
					<g>
						<g>
							<path class="st3" d="M117,52.9v13c0,3.5-2.8,6.3-6.3,6.3h0c-2.6,0-5,1.7-5.9,4.1c-0.4,1-0.8,2-1.2,2.9
								c-0.4,0.9-0.6,1.8-0.6,2.7c0,1.6,0.6,3.2,1.8,4.4c2.5,2.5,2.5,6.4,0,8.9l-9.2,9.2c-2.5,2.4-6.4,2.4-8.9,0l0,0
								c-1.9-1.9-4.7-2.3-7.1-1.2c-1,0.4-1.9,0.8-2.9,1.2c-2.5,0.9-4.2,3.2-4.2,5.9v0c0,3.5-2.8,6.3-6.3,6.3h-13
								c-3.5,0-6.3-2.8-6.3-6.3v0c0-1-0.3-2-0.8-2.9h10.8c3.5,0,6.3-2.8,6.3-6.3v0c0-2.6,1.7-5,4.2-5.9c1-0.4,2-0.8,2.9-1.2
								c2.4-1.1,5.2-0.7,7.1,1.2l0,0c2.5,2.4,6.4,2.4,8.9,0l9.2-9.2c2.5-2.5,2.5-6.4,0-8.9c-1.2-1.2-1.8-2.8-1.8-4.4
								c0-0.9,0.2-1.8,0.6-2.7c0.4-1,0.8-1.9,1.2-2.9c0.9-2.5,3.2-4.1,5.9-4.1h0c3.5,0,6.3-2.8,6.3-6.3V45.9
								c0.9,0.5,1.9,0.7,2.9,0.7h0.1C114.2,46.6,117,49.4,117,52.9L117,52.9z"/>
						</g>
					</g>
				</g>
			</g>
		</g>
		<g>
			<g>
				<g>
					<g>
						<path class="st4" d="M91.8,59.4c0,6-1.6,11.6-4.5,16.4c-0.4,0.6-0.7,1.1-1.1,1.7c-0.5,0.7-1,1.4-1.5,2
							c-5.9,7.2-14.8,11.8-24.8,11.8S41,86.7,35.1,79.5c-0.5-0.7-1.1-1.3-1.5-2c-0.4-0.5-0.7-1.1-1.1-1.7C29.6,71,28,65.4,28,59.4
							c0-17.6,14.3-31.9,31.9-31.9S91.8,41.8,91.8,59.4z"/>
					</g>
				</g>
			</g>
			<g>
				<g>
					<g>
						<path class="st5" d="M72,51.2c0,6.7-5.4,12-12,12c-6.7,0-12-5.4-12-12c0-6.6,5.4-12,12-12C66.6,39.2,72,44.6,72,51.2z"/>
					</g>
				</g>
			</g>
			<g>
				<g>
					<g>
						<path class="st5" d="M84.7,79.5c-5.9,7.2-14.8,11.8-24.8,11.8S41,86.7,35.1,79.5c5.7-7.4,14.7-12.2,24.8-12.2
							S79,72.1,84.7,79.5z"/>
					</g>
				</g>
			</g>
			<g>
				<path class="st6" d="M142.9,86.6c-1.3,0-2.4-0.8-2.8-2c-0.3-0.9-0.7-1.7-1.1-2.5c-0.5-1.1-0.4-2.4,0.4-3.3l0.2-0.2
					c1.4-1.4,2.2-3.3,2.2-5.3c0-2-0.8-3.9-2.2-5.3l-7.7-7.7c-1.4-1.4-3.3-2.1-5.3-2.1c-2,0-3.8,0.7-5.2,2c-0.1,0.1-0.1,0.1-0.2,0.2
					c-0.2,0.2-0.5,0.4-0.8,0.5l-1.1,0.5v-8.3c0-4.7-3.9-8.6-8.6-8.6c-1.7,0-3.1-1-3.7-2.7c-0.4-1-0.8-2.1-1.2-3
					c-0.7-1.5-0.5-3.2,0.6-4.4l0,0c0,0,0.1-0.1,0.2-0.2c3.3-3.3,3.3-8.8,0-12.1l-9.2-9.2c-1.5-1.5-3.7-2.4-6-2.4
					c-2.2,0-4.3,0.8-5.9,2.3c-0.1,0.1-0.1,0.1-0.2,0.2c-0.7,0.7-1.8,1.1-2.8,1.1c-0.6,0-1.2-0.1-1.7-0.4c-1-0.5-2.1-0.9-3-1.3
					c-1.6-0.6-2.7-2.1-2.7-3.8c0-2.3-0.9-4.4-2.5-6.1c-1.6-1.6-3.8-2.5-6-2.5h-13c-4.7,0-8.5,3.8-8.5,8.5c0,1.7-1.1,3.2-2.7,3.8
					c-1,0.4-2,0.8-3,1.2c-1.6,0.7-3.4,0.4-4.6-0.8c-1.6-1.5-3.7-2.4-6-2.4c-2.3,0-4.5,0.9-6,2.4L13.3,22c-1.6,1.6-2.5,3.8-2.5,6
					c0,2.3,0.9,4.5,2.5,6.1c1.2,1.2,1.5,3,0.8,4.6c-0.4,0.9-0.8,1.9-1.2,2.9c-0.6,1.6-2.1,2.7-3.9,2.7c-4.7,0-8.5,3.8-8.5,8.6v13
					c0,4.7,3.8,8.6,8.6,8.6c1.7,0,3.2,1,3.8,2.6c0.3,1,0.7,1.9,1.3,3.1c0.7,1.6,0.4,3.4-0.8,4.6c-1.6,1.6-2.5,3.8-2.5,6
					c0,2.3,0.9,4.5,2.5,6.1l9.2,9.2c1.5,1.5,3.7,2.4,6,2.4c2.3,0,4.5-0.9,6-2.4c0,0,0.1-0.1,0.1-0.1l0.1-0.1c1.2-1,2.9-1.2,4.4-0.5
					c0.9,0.4,1.9,0.8,2.9,1.2c1.7,0.6,2.7,2.1,2.7,3.8c0,4.7,3.8,8.5,8.5,8.5h8.4l-0.5,1.1c-0.1,0.3-0.3,0.6-0.6,0.8
					c-1.4,1.4-2.2,3.3-2.2,5.3c0,2.1,0.8,4,2.2,5.4l7.7,7.7c1.4,1.3,3.3,2.1,5.3,2.1c2,0,4-0.8,5.3-2.1l0.2-0.2
					c0.9-0.8,2.1-0.9,3.4-0.3c0.9,0.4,1.7,0.7,2.4,1c1.3,0.5,2.1,1.6,2.1,2.9c0,4.2,3.4,7.5,7.5,7.5h10.9c4.2,0,7.5-3.4,7.5-7.6
					c0-1.3,0.8-2.4,2.1-2.8c0.8-0.3,1.7-0.7,2.5-1c1.2-0.5,2.6-0.3,3.4,0.6c1.4,1.3,3.3,2.1,5.3,2.1c2,0,4-0.8,5.3-2.1l7.7-7.7
					c2.9-2.9,2.9-7.7,0-10.7c-0.6-0.6-0.9-1.3-0.9-2.1c0-0.5,0.1-0.9,0.3-1.4c0.4-0.8,0.7-1.6,1.1-2.6c0.5-1.2,1.6-2,2.8-2
					c4.2,0,7.5-3.4,7.5-7.6V94.2C150.5,90,147.1,86.6,142.9,86.6z M53.4,114.3c-2.2,0-4-1.8-4-4c0-3.6-2.2-6.7-5.7-8
					c-0.9-0.3-1.8-0.7-2.7-1.1c-1.2-0.5-2.4-0.8-3.7-0.8c-2.3,0-4.4,0.9-6,2.4c0,0-0.1,0.1-0.1,0.1l-0.1,0.1c-0.7,0.6-1.6,1-2.6,1
					c-1.1,0-2.1-0.4-2.8-1.1l-9.2-9.2c-0.7-0.7-1.2-1.7-1.2-2.8c0-0.8,0.2-1.9,1.2-2.8c2.5-2.5,3.2-6.4,1.7-9.7
					c-0.3-0.8-0.7-1.7-1.1-2.8c-1.3-3.4-4.5-5.6-8.1-5.6c-2.2,0-4-1.8-4-4v-13c0-2.2,1.8-4,4.1-4c3.6,0,6.7-2.2,8-5.6
					c0.4-1,0.7-1.8,1.1-2.7c1.5-3.3,0.8-7.2-1.7-9.7c-0.8-0.8-1.2-1.8-1.2-2.8s0.4-2.1,1.2-2.8l9.2-9.2c0.8-0.7,1.8-1.1,2.8-1.1
					c1.1,0,2.1,0.4,2.8,1.1c1.6,1.6,3.8,2.5,6.1,2.5c1.3,0,2.5-0.3,3.6-0.8c0.9-0.4,1.8-0.8,2.7-1.1c3.4-1.3,5.7-4.4,5.7-8
					c0-2.2,1.8-4,4-4h13c1,0,2.1,0.4,2.8,1.2c0.5,0.5,1.2,1.5,1.2,2.8c0,3.6,2.2,6.7,5.7,8c0.9,0.3,1.7,0.7,2.7,1.1
					c1.1,0.5,2.4,0.8,3.6,0.8c2.2,0,4.3-0.8,5.9-2.3c0.1-0.1,0.1-0.1,0.2-0.2c0.7-0.7,1.8-1.1,2.8-1.1c1.1,0,2.1,0.4,2.8,1.1
					l9.2,9.2c1.5,1.5,1.6,3.9,0.2,5.5l0,0c0,0-0.1,0.1-0.2,0.2c-2.5,2.5-3.2,6.3-1.7,9.7c0.4,0.9,0.8,1.8,1.1,2.7
					c1.3,3.4,4.4,5.6,8.1,5.6c2.2,0,4,1.8,4,4v13c0,2.2-1.8,4-4,4c-3.6,0-6.7,2.2-8,5.6c-0.4,1-0.8,1.9-1.2,2.8
					c-0.5,1.2-0.8,2.4-0.8,3.7c0,2.3,0.9,4.4,2.5,6c0.8,0.8,1.2,1.8,1.2,2.8c0,1.1-0.4,2.1-1.2,2.8l-9.2,9.2
					c-0.7,0.7-1.8,1.1-2.8,1.1c-1.1,0-2.1-0.4-2.8-1.2c-1.5-1.5-3.7-2.4-6-2.4c-1.2,0-2.5,0.3-3.6,0.8c-0.9,0.4-1.8,0.7-2.8,1.1
					c-3.4,1.3-5.6,4.5-5.6,8.1c0,2.2-1.8,4-4,4H53.4z M106.5,84.7c-0.7-0.7-1.1-1.7-1.1-2.8c0-0.4,0.1-0.8,0.2-1.1l0.3-0.8l0.7,0.2
					c8.5,2.8,14.2,10.6,14.2,19.5c0,11.4-9.2,20.6-20.6,20.6c-8.9,0-16.7-5.7-19.5-14.3l-0.2-0.7l0.7-0.2c0.4-0.1,0.8-0.2,1.3-0.2
					c1.1,0,2,0.4,2.8,1.1c1.5,1.5,3.7,2.4,6,2.4c2.3,0,4.5-0.9,6-2.4l9.2-9.2c1.6-1.6,2.5-3.8,2.5-6C109,88.5,108.1,86.3,106.5,84.7
					z M146,105.1c0,1.7-1.4,3-3,3c-3.2,0-5.9,1.9-7.1,4.9c-0.3,0.8-0.6,1.6-1,2.3c-0.5,1-0.7,2.1-0.7,3.2c0,2,0.8,3.9,2.2,5.3
					c0.6,0.6,0.9,1.3,0.9,2.1c0,0.8-0.3,1.6-0.9,2.1l-7.7,7.7c-0.6,0.5-1.3,0.9-2.1,0.9c-0.8,0-1.6-0.3-2.1-0.9
					c-1.4-1.4-3.3-2.1-5.4-2.1c-1.1,0-2.2,0.2-3.2,0.7c-0.7,0.3-1.4,0.6-2.1,0.9l-0.2,0.1c-3,1.1-5,4-5,7.1c0,1.6-1.3,3-3,3H94.7
					c-1.7,0-3-1.4-3-3c0-3.2-2-5.9-5-7.1c-0.7-0.3-1.4-0.5-2-0.8l-0.2-0.1c-1-0.5-2.1-0.7-3.2-0.7c-2,0-3.9,0.8-5.3,2.2l-0.2,0.2
					c-0.5,0.4-1.2,0.7-1.9,0.7c-0.8,0-1.6-0.3-2.1-0.8l-7.7-7.7c-0.7-0.7-0.9-1.6-0.9-2.1c0-0.8,0.3-1.6,0.9-2.1
					c1.2-1.2,1.9-2.7,2.1-4.5l0.1-0.6l0.6,0c4.6-0.2,8.2-4,8.2-8.5c0-0.6,0.1-1.1,0.4-1.7l0.8-1.5l0.6,1.6
					c3.7,9.7,13.1,16.2,23.4,16.2c13.9,0,25.1-11.3,25.1-25.1c0-10.3-6.5-19.8-16.2-23.5l-1.6-0.6l1.6-0.8c0.6-0.3,1.2-0.4,1.7-0.4
					c4.5,0,8.3-3.6,8.5-8.1l0-0.6l0.6-0.1c1.6-0.2,3.1-0.9,4.3-2c0.1-0.1,0.1-0.1,0.2-0.2c0.5-0.5,1.3-0.9,2.1-0.9
					c0.8,0,1.6,0.3,2.1,0.9l7.7,7.7c0.6,0.6,0.9,1.3,0.9,2.1c0,0.7-0.3,1.4-0.7,1.9l-0.2,0.2c-2.2,2.2-2.8,5.6-1.5,8.6
					c0.3,0.7,0.6,1.5,0.9,2.2c1.1,3,3.9,5,7.1,5c1.6,0,3,1.4,3,3V105.1z"/>
				<path class="st6" d="M89.2,77c3.2-5.3,4.9-11.4,4.9-17.6c0-18.9-15.3-34.2-34.2-34.2c-18.9,0-34.2,15.3-34.2,34.2
					c0,6.2,1.7,12.3,4.9,17.6c6.3,10.4,17.2,16.6,29.3,16.6C72,93.6,83,87.4,89.2,77z M59.9,89.1c-10.5,0-20-5.4-25.4-14.4
					c-2.8-4.6-4.2-9.8-4.2-15.2c0-16.3,13.3-29.6,29.6-29.6c16.3,0,29.6,13.3,29.6,29.6c0,5.4-1.5,10.7-4.2,15.2
					C79.9,83.7,70.4,89.1,59.9,89.1z"/>
			</g>
		</g>
	</g>
</g>
</svg>
