<?xml version="1.0" encoding="utf-8"?>
<!-- Generator: Adobe Illustrator 25.0.0, SVG Export Plug-In . SVG Version: 6.00 Build 0)  -->
<svg version="1.1" id="Layer_1" xmlns="http://www.w3.org/2000/svg" xmlns:xlink="http://www.w3.org/1999/xlink" x="0px" y="0px"
	 viewBox="0 0 156 150" style="enable-background:new 0 0 156 150; " xml:space="preserve">
<style type="text/css">
	.st0{fill:#F6E06E;}
	.st1{fill:#DDA86A;}
	.st2{fill:#C2B2EB;}
	.st3{fill:#9781DD;}
	.st4{fill:#E8C2D8;}
	.st5{fill:#D789B9;}
	.st6{fill:#E8A284;}
	.st7{fill:#A1E8C3;}
	.st8{fill:#96B4EB;}
	.st9{fill:#35414D;}
	.st10{fill:#FFFFFF;}
	.st11{fill:#29CEF6;}
	.st12{fill:#F75632;}
	.st13{fill:#FFC328;}
	.st14{fill:#FFA000;}
</style>
<g>
	<g>
		<path class="st0" d="M79.4,70.2C63.8,54.6,46.5,46.4,40.9,52c0,0,0,0,0,0c-1.2,0.6-2.2,1.6-2.8,2.9L2.7,136.8
			c-1.4,3-0.8,6.6,1.6,9c2.4,2.4,5.9,3,9,1.6l82-35.3c2.2-1,3.5-3.1,3.7-5.3C101.6,99.7,93.5,84.3,79.4,70.2L79.4,70.2z"/>
	</g>
	<g>
		<path class="st1" d="M72.6,104.3l-60.3,26c-2.1,1-4.6,0.6-6.4-1l-3.3,7.5c-1.4,3-0.8,6.6,1.6,9c2.4,2.4,5.9,3,9,1.6l81.2-35
			C92.6,111.6,72.9,104.2,72.6,104.3L72.6,104.3z"/>
	</g>
	<g>
		<ellipse transform="matrix(0.7071 -0.7071 0.7071 0.7071 -39.0727 68.746)" class="st1" cx="63.4" cy="81.5" rx="9.4" ry="28.2"/>
	</g>
	<g>
		<path class="st2" d="M61.4,68.4c-0.7-0.7-1.2-1.5-1.5-2.5l-2.7-9.1c-1-3.4-0.1-7.1,2.4-9.6l4.9-4.9c2.5-2.5,6.2-3.4,9.6-2.4
			l9.8,2.8l-3.3-11.8c-0.9-3.2,0.9-6.5,4-7.4c3.2-0.9,6.5,0.9,7.4,4l2.7,9.1c1,3.4,0.1,7.1-2.4,9.6L87.5,51
			c-2.5,2.5-6.2,3.4-9.6,2.4L68,50.2l3.4,12.3c0.9,3.2-0.9,6.5-4,7.4C65.2,70.6,62.9,69.9,61.4,68.4L61.4,68.4z"/>
	</g>
	<g>
		<path class="st3" d="M84.2,43.6l-1.3-1.3l-8.8-2.5c-3-0.9-6.1-0.3-8.5,1.4c0.7,2.7,1.5,5.4,2.3,8l1.3,1.3l8.6,2.8
			c3.1,0.9,6.4,0.3,8.9-1.7C85.9,49,85,46.3,84.2,43.6L84.2,43.6z"/>
	</g>
	<g>
		<path class="st4" d="M99.4,64.1c0.7,0.7,1.5,1.2,2.5,1.5l9.1,2.7c3.4,1,7.1,0.1,9.6-2.4l4.9-4.9c2.5-2.5,3.4-6.2,2.4-9.6l-2.8-9.8
			l11.8,3.3c3.2,0.9,6.5-0.9,7.4-4c0.9-3.2-0.9-6.5-4-7.4l-9.1-2.7c-3.4-1-7.1-0.1-9.6,2.4l-4.9,4.9c-2.5,2.5-3.4,6.2-2.4,9.6
			l3.2,9.9l-12.3-3.4c-3.2-0.9-6.5,0.9-7.4,4C97.2,60.4,97.8,62.6,99.4,64.1L99.4,64.1z"/>
	</g>
	<g>
		<path class="st5" d="M127.9,51.4l-2.4-8.5l-1.5-1.5c-2.9-0.6-5.7-1.2-8.6-1.9c-1.5,2.3-2,5.3-1.1,8.1l2.8,8.6l0.7,0.7
			c3,0.7,5.8,1.8,8.7,3C128.3,57.5,128.8,54.4,127.9,51.4L127.9,51.4z"/>
	</g>
	<g>
		<circle class="st6" cx="109.9" cy="11.4" r="4.9"/>
	</g>
	<g>
		<ellipse class="st7" cx="120.7" cy="90.8" rx="4.9" ry="4.9"/>
	</g>
	<g>
		<circle class="st8" cx="90.6" cy="91.7" r="4.9"/>
	</g>
	<g>
		<circle class="st7" cx="107.2" cy="27.4" r="2.3"/>
	</g>
	<g>
		<ellipse class="st8" cx="137.3" cy="12.9" rx="4.2" ry="4.2"/>
	</g>
	<g>
		<g>
			<g>
				<path class="st9" d="M9.9,150c-2.6,0-5.2-1.1-7-2.9c-2.9-2.9-3.7-7.4-2-11.1l35.5-81.8c0.7-1.6,1.9-2.8,3.3-3.7l0.1,0l0.1-0.1
					c1.5-1.4,3.6-2.1,6.2-2.1c2.4,0,5.2,0.6,8.4,1.9l0.9,0.4l0.4-0.9c0.6-1.5,1.4-2.8,2.6-3.9l4.9-4.9c2.2-2.2,5.1-3.4,8.2-3.4
					c1.1,0,2.3,0.2,3.3,0.5l6.5,1.8l-2.4-8.5c-1.2-4.2,1.2-8.6,5.4-9.8c0.7-0.2,1.5-0.3,2.2-0.3c3.5,0,6.6,2.3,7.6,5.7l2.7,9.1
					c1.2,4.1,0.1,8.6-2.9,11.6l-4.9,4.9c-2.2,2.2-5.1,3.4-8.2,3.4c-1.1,0-2.3-0.2-3.4-0.5l-6.5-2.1l2.4,8.8l0.2,0.2
					c2.5,2.1,4.9,4.3,7.3,6.7c7.7,7.7,13.9,16.1,17.5,23.6c2.9,6.2,3.8,11.2,2.6,14.7l0,0.1l0,0.1c0,0.2,0,0.3,0,0.4
					c-0.5,2.7-2.2,4.9-4.7,6.1l-82,35.3C12.7,149.7,11.3,150,9.9,150z M4.5,137.6c-1.1,2.3-0.6,5,1.2,6.8c1.1,1.1,2.7,1.8,4.2,1.8
					c0.9,0,1.7-0.2,2.5-0.6l77.2-33.3l-2.6-0.8c-1.8-0.5-3.7-1.3-5.7-2.2c-7.5-3.5-15.8-9.7-23.6-17.5C50,84.2,43.8,75.8,40.3,68.3
					c-0.8-1.7-1.4-3.3-1.9-4.7l-0.8-2.4L4.5,137.6z M46,52.2c-1.7,0-2.9,0.4-3.7,1.2c-2,2-1.5,7,1.5,13.3
					c3.3,7.1,9.3,15.1,16.7,22.5c7.4,7.4,15.4,13.3,22.5,16.7c3.8,1.8,7.1,2.7,9.5,2.7c1.7,0,2.9-0.4,3.7-1.2
					c1.8-1.8,1.6-5.8-0.5-10.9l-0.5-1.3l-1,0.9c-1,0.9-2.3,1.3-3.6,1.3c-1.5,0-2.9-0.6-4-1.6c-2.2-2.2-2.2-5.8,0-8
					c0.6-0.6,1.4-1.1,2.2-1.4l1.2-0.4l-0.8-1.1c-3.1-4.5-6.9-9-11.3-13.3c-1.3-1.3-2.6-2.6-4-3.8L73.2,67L72.6,68
					c-1,1.8-2.7,3.1-4.7,3.7c-0.7,0.2-1.5,0.3-2.2,0.3c-2.1,0-4.1-0.8-5.6-2.3c-0.9-0.9-1.6-2.1-2-3.4l-2.7-9.1
					c-0.2-0.7-0.3-1.4-0.4-2.2l-0.1-0.6l-0.5-0.2C51.1,52.9,48.3,52.2,46,52.2z M90.6,87.6c-1.1,0-2.1,0.4-2.9,1.2
					c-1.6,1.6-1.6,4.2,0,5.8c0.8,0.8,1.8,1.2,2.9,1.2s2.1-0.4,2.9-1.2c1.6-1.6,1.6-4.2,0-5.8C92.7,88.1,91.7,87.6,90.6,87.6z
					 M61,48.5c-2,2-2.7,4.9-1.9,7.7l2.7,9.1c0.2,0.7,0.5,1.2,1,1.7c0.8,0.8,1.8,1.2,2.9,1.2c0.4,0,0.8-0.1,1.1-0.2
					c1-0.3,1.9-1,2.4-2c0.5-0.9,0.6-2,0.3-3.1l-3.3-11.8l0-0.1l-1.9-6.1L61,48.5z M71.3,41.3c-1,0-2,0.2-2.9,0.6l-0.8,0.3l2,6.4
					l8.9,2.9c0.8,0.2,1.5,0.3,2.2,0.3c1,0,2-0.2,3-0.6l0.8-0.3l-2.1-6.8l-8.8-2.5C72.8,41.5,72.1,41.3,71.3,41.3z M85.8,42l1.9,6.1
					l3.4-3.4c2-2,2.7-4.9,1.9-7.7l-2.7-9.1c-0.5-1.7-2.1-2.9-3.9-2.9c-0.4,0-0.8,0.1-1.1,0.2c-1,0.3-1.9,1-2.4,2
					c-0.5,1-0.6,2-0.3,3.1L85.8,42L85.8,42z"/>
			</g>
			<g>
				<path class="st9" d="M113.8,70.7c-1.1,0-2.3-0.2-3.4-0.5l-9.1-2.7c-1.3-0.4-2.4-1.1-3.4-2c-2.1-2.1-2.8-5.1-2-7.9
					c1-3.3,4.1-5.7,7.6-5.7c0.7,0,1.5,0.1,2.2,0.3l8.8,2.4l-2.1-6.5c-1.2-4.2-0.1-8.6,2.9-11.6l4.9-4.9c2.2-2.2,5.1-3.4,8.2-3.4
					c1.1,0,2.3,0.2,3.4,0.5l9.1,2.7c4.2,1.2,6.6,5.7,5.4,9.9c-0.6,2-2,3.7-3.8,4.7c-1.2,0.6-2.5,1-3.8,1c0,0,0,0,0,0
					c-0.8,0-1.5-0.1-2.2-0.3l-8.5-2.4l1.8,6.5c1.2,4.1,0.1,8.6-2.9,11.5l-4.9,4.9C119.8,69.5,116.9,70.7,113.8,70.7z M103.6,55.8
					c-1.8,0-3.4,1.2-3.9,2.9c-0.4,1.4,0,3,1,4c0.5,0.5,1.1,0.8,1.7,1l9.1,2.7c0.7,0.2,1.5,0.3,2.3,0.3c2.1,0,4-0.8,5.4-2.2l3.4-3.4
					l-6.2-1.9L104.8,56C104.4,55.9,104,55.8,103.6,55.8z M116.4,41.8c-0.7,1.6-0.8,3.5-0.3,5.2l2.9,9l6.4,2l0.3-0.8
					c0.7-1.6,0.8-3.5,0.2-5.2l-2.5-8.8l-6.8-2.1L116.4,41.8z M137.5,43c0.4,0.1,0.8,0.2,1.2,0.2c0.7,0,1.3-0.2,1.9-0.5
					c0.9-0.5,1.6-1.4,1.9-2.4c0.6-2.1-0.6-4.4-2.7-5l-9.1-2.7c-0.7-0.2-1.5-0.3-2.3-0.3c-2.1,0-4,0.8-5.4,2.2l-3.4,3.4l6.2,1.9h0
					L137.5,43z"/>
			</g>
			<path class="st9" d="M114.2,7.1c-1.2-1.2-2.7-1.8-4.3-1.8c-1.6,0-3.2,0.6-4.3,1.8c-2.4,2.4-2.4,6.3,0,8.7
				c1.2,1.2,2.7,1.8,4.3,1.8c1.6,0,3.2-0.6,4.3-1.8C116.6,13.4,116.6,9.5,114.2,7.1z M107.3,14c-0.7-0.7-1.1-1.6-1.1-2.5
				c0-1,0.4-1.9,1.1-2.5c0.7-0.7,1.6-1.1,2.6-1.1s1.9,0.4,2.5,1.1c1.4,1.4,1.4,3.7,0,5.1C111.1,15.3,108.7,15.3,107.3,14z"/>
			<path class="st9" d="M125,86.5c-1.2-1.2-2.7-1.8-4.3-1.8s-3.2,0.6-4.3,1.8s-1.8,2.7-1.8,4.3s0.6,3.2,1.8,4.3s2.7,1.8,4.3,1.8
				s3.2-0.6,4.3-1.8c1.2-1.2,1.8-2.7,1.8-4.3C126.8,89.2,126.1,87.7,125,86.5z M118.1,93.4c-1.4-1.4-1.4-3.7,0-5.1
				c0.7-0.7,1.6-1.1,2.5-1.1c1,0,1.9,0.4,2.5,1.1c1.4,1.4,1.4,3.7,0,5.1C121.8,94.7,119.5,94.7,118.1,93.4z"/>
		</g>
		<g>
			<path class="st10" d="M28.4,109.4c-0.4,0-0.8-0.1-1.2-0.2c-1.5-0.6-2.2-2.4-1.5-3.8l3.7-8.6c0.6-1.5,2.3-2.2,3.8-1.5
				c1.5,0.6,2.2,2.4,1.5,3.8l-3.7,8.6C30.6,108.8,29.6,109.4,28.4,109.4L28.4,109.4z"/>
		</g>
		<g>
			<path class="st10" d="M36.3,91.3c-0.4,0-0.8-0.1-1.2-0.2c-1.5-0.6-2.2-2.4-1.5-3.8l1.1-2.6c0.6-1.5,2.4-2.2,3.8-1.5
				c1.5,0.6,2.2,2.4,1.5,3.8l-1.1,2.6C38.5,90.6,37.4,91.3,36.3,91.3L36.3,91.3z"/>
		</g>
	</g>
	<g id="g8311" transform="translate(191.7051,416.9355)">
		<g id="path8313">
			<path class="st11" d="M-161.9-374.1l-7.1-4.9c-1.3-0.9-1.6-2.6-0.7-3.9l4.9-7.1c0.9-1.3,2.6-1.6,3.9-0.7l7.1,4.9
				c1.3,0.9,1.6,2.6,0.7,3.9l-4.9,7.1C-158.9-373.6-160.6-373.2-161.9-374.1"/>
		</g>
	</g>
	<g id="g8319" transform="translate(440.4629,178.748)">
		<g id="path8321">
			<path class="st12" d="M-324.3-56.6v-8.7c0-1.5,1.3-2.8,2.8-2.8h8.7c1.5,0,2.8,1.3,2.8,2.8v8.7c0,1.5-1.3,2.8-2.8,2.8h-8.7
				C-323-53.8-324.3-55.1-324.3-56.6"/>
		</g>
	</g>
	<g id="g8327" transform="translate(92.3516,472.7578)">
		<g id="path8329">
			<path class="st13" d="M-26.2-462l-5.4-3c-0.1-0.1-0.2-0.2-0.3-0.3l-3-5.4c-0.3-0.5-1-0.5-1.3,0l-3,5.4c-0.1,0.1-0.2,0.2-0.3,0.3
				l-5.4,3c-0.5,0.3-0.5,1,0,1.3l5.4,3c0.1,0.1,0.2,0.2,0.3,0.3l3,5.4c0.3,0.5,1,0.5,1.3,0l3-5.4c0.1-0.1,0.2-0.2,0.3-0.3l5.4-3
				C-25.7-461-25.7-461.7-26.2-462"/>
		</g>
	</g>
	<g id="g8331" transform="translate(61.9482,437.8389)">
		<g id="path8333">
			<path class="st14" d="M-4.5-417.1l3-5.4c0.1-0.1,0.2-0.2,0.3-0.3l5.4-3c0.5-0.3,0.5-1,0-1.3l-5.4-3c-0.1-0.1-0.2-0.2-0.3-0.3
				l-3-5.4c-0.1-0.3-0.4-0.4-0.6-0.4v19.4C-4.9-416.7-4.7-416.8-4.5-417.1"/>
		</g>
	</g>
	<g id="g8335" transform="translate(503.1611,43.7578)">
		<g id="path8337">
			<path class="st13" d="M-349.3,41.2l-5.4-3c-0.1-0.1-0.2-0.2-0.3-0.3l-3-5.4c-0.3-0.5-1-0.5-1.3,0l-3,5.4
				c-0.1,0.1-0.2,0.2-0.3,0.3l-5.4,3c-0.5,0.3-0.5,1,0,1.3l5.4,3c0.1,0.1,0.2,0.2,0.3,0.3l3,5.4c0.3,0.5,1,0.5,1.3,0l3-5.4
				c0.1-0.1,0.2-0.2,0.3-0.3l5.4-3C-348.8,42.2-348.8,41.4-349.3,41.2"/>
		</g>
	</g>
	<g id="g8339" transform="translate(472.7578,8.8389)">
		<g id="path8341">
			<path class="st14" d="M-327.5,86.1l3-5.4c0.1-0.1,0.2-0.2,0.3-0.3l5.4-3c0.5-0.3,0.5-1,0-1.3l-5.4-3c-0.1-0.1-0.2-0.2-0.3-0.3
				l-3-5.4c-0.1-0.3-0.4-0.4-0.6-0.4v19.4C-327.9,86.4-327.7,86.3-327.5,86.1"/>
		</g>
	</g>
	<g id="g8375" transform="translate(92.3516,472.7578)">
		<g id="path8377">
			<path class="st9" d="M-35.6-449.9c-0.9,0-1.7-0.5-2.1-1.3l-2.8-5.2l-5.2-2.8c-0.8-0.4-1.3-1.2-1.3-2.1c0-0.9,0.5-1.7,1.3-2.1
				l5.2-2.8l2.8-5.2c0.4-0.8,1.2-1.3,2.1-1.3c0.9,0,1.7,0.5,2.1,1.3l2.8,5.2l5.2,2.8c0.8,0.4,1.3,1.2,1.3,2.1c0,0.9-0.5,1.7-1.3,2.1
				l-5.2,2.8l-2.8,5.2C-33.9-450.4-34.7-449.9-35.6-449.9z M-42.5-461.3l3.9,2.1c0.4,0.2,0.7,0.6,1,1l2.1,3.9l2.1-3.9
				c0.2-0.4,0.6-0.7,1-1l3.9-2.1l-3.9-2.1c-0.4-0.2-0.7-0.6-1-1l-2.1-3.9l-2.1,3.9c-0.2,0.4-0.6,0.7-1,1L-42.5-461.3z M-27.1-460.5
				C-27.1-460.5-27.1-460.5-27.1-460.5L-27.1-460.5L-27.1-460.5z"/>
		</g>
	</g>
	<g id="g8379" transform="translate(503.1611,43.7578)">
		<g id="path8381">
			<path class="st9" d="M-358.6,53.2c-0.9,0-1.7-0.5-2.1-1.3l-2.8-5.2l-5.2-2.8c-0.8-0.4-1.3-1.2-1.3-2.1c0-0.9,0.5-1.7,1.3-2.1
				l5.2-2.8l2.8-5.2c0.4-0.8,1.2-1.3,2.1-1.3c0.9,0,1.7,0.5,2.1,1.3l2.8,5.2l5.2,2.8c0,0,0,0,0,0c0.8,0.4,1.3,1.2,1.3,2.1
				c0,0.9-0.5,1.7-1.3,2.1l-5.2,2.8l-2.8,5.2C-356.9,52.7-357.7,53.2-358.6,53.2z M-365.5,41.8l3.9,2.1c0.4,0.2,0.7,0.6,1,1l2.1,3.9
				l2.1-3.9c0.2-0.4,0.6-0.7,1-1l3.9-2.1l-3.9-2.1c-0.4-0.2-0.7-0.6-1-1l-2.1-3.9l-2.1,3.9c-0.2,0.4-0.6,0.7-1,1L-365.5,41.8z"/>
		</g>
	</g>
	<g id="g8383" transform="translate(191.7051,416.9355)">
		<g id="path8385">
			<path class="st9" d="M-160.3-371.9c-0.9,0-1.8-0.3-2.5-0.8l-7.1-4.9c-1-0.7-1.7-1.7-1.9-2.9c-0.2-1.2,0-2.4,0.7-3.4l4.9-7.1
				c0.7-1,1.7-1.7,2.9-1.9c1.2-0.2,2.4,0,3.4,0.7l7.1,4.9c1,0.7,1.7,1.7,1.9,2.9c0.2,1.2,0,2.4-0.7,3.4l-4.9,7.1
				c-0.7,1-1.7,1.7-2.9,1.9C-159.8-371.9-160.1-371.9-160.3-371.9z M-162.5-389.6c-0.1,0-0.1,0-0.2,0c-0.3,0.1-0.5,0.2-0.7,0.5
				l-4.9,7.1c-0.2,0.2-0.2,0.5-0.2,0.8c0.1,0.3,0.2,0.5,0.5,0.7l7.1,4.9l0,0c0.2,0.2,0.5,0.2,0.8,0.2c0.3-0.1,0.5-0.2,0.7-0.5
				l4.9-7.1c0.3-0.5,0.2-1.2-0.3-1.5l-7.1-4.9C-162.1-389.5-162.3-389.6-162.5-389.6z"/>
		</g>
	</g>
	<g id="g8391" transform="translate(440.4629,178.748)">
		<g id="path8393">
			<path class="st9" d="M-312.8-52.1h-8.7c-2.5,0-4.5-2-4.5-4.5v-8.7c0-2.5,2-4.5,4.5-4.5h8.7c2.5,0,4.5,2,4.5,4.5v8.7
				C-308.3-54.2-310.3-52.1-312.8-52.1z M-321.5-66.4c-0.6,0-1.1,0.5-1.1,1.1v8.7c0,0.6,0.5,1.1,1.1,1.1h8.7c0.6,0,1.1-0.5,1.1-1.1
				v-8.7c0-0.6-0.5-1.1-1.1-1.1H-321.5z"/>
		</g>
	</g>
</g>
</svg>
