<?xml version="1.0" encoding="utf-8"?>
<!-- Generator: Adobe Illustrator 25.0.0, SVG Export Plug-In . SVG Version: 6.00 Build 0)  -->
<svg version="1.1" id="Layer_1" xmlns="http://www.w3.org/2000/svg" xmlns:xlink="http://www.w3.org/1999/xlink" x="0px" y="0px"
	 viewBox="0 0 571 175" style="enable-background:new 0 0 571 175;" xml:space="preserve">
<style type="text/css">
	.st0{fill:#70D6F9;}
	.st1{fill:#B598F9;}
	.st2{fill:#F5C84C;}
	.st3{fill:#DAE6F1;}
	.st4{fill:#FC657E;}
	.st5{fill:#F98FA6;}
	.st6{fill:#F9D0B4;}
	.st7{fill:#87D147;}
	.st8{fill:#35414D;}
	.st9{fill:#8AC5DC;}
	.st10{fill:#7FB8C9;}
	.st11{fill:#B7C0D7;}
	.st12{fill:#57B7EB;}
	.st13{fill:#A7AFC1;}
	.st14{fill:#AAE1F9;}
	.st15{fill:#F89C8D;}
	.st16{fill:#F8664F;}
	.st17{fill:#FFE4CF;}
	.st18{fill:#E8CFBF;}
	.st19{fill:#FFCF66;}
	.st20{fill:#EF6D7A;}
	.st21{fill:#87796F;}
	.st22{fill:#D6DF58;}
</style>
<g>
	<g id="Layer_23_2_">
		<g>
			<g>
				<g>
					<circle class="st0" cx="70.6" cy="47.6" r="10.5"/>
				</g>
			</g>
			<g>
				<g>
					<ellipse class="st1" cx="101.6" cy="62.5" rx="11.5" ry="11.5"/>
				</g>
			</g>
			<g>
				<g>
					<circle class="st2" cx="94.1" cy="16.6" r="12.9"/>
				</g>
			</g>
			<g>
				<g>
					<path class="st3" d="M80.6,50.5c-0.5,1.7-1.4,3.2-2.6,4.4l12.3,5.7c0.3-1.7,1-3.3,2-4.8L80.6,50.5z"/>
				</g>
			</g>
			<g>
				<g>
					<path class="st3" d="M84.3,24.9L75,38.1c1.6,0.7,2.9,1.8,4,3.3l9.3-13.2C86.8,27.3,85.4,26.3,84.3,24.9L84.3,24.9z"/>
				</g>
			</g>
			<g>
				<g>
					<path class="st3" d="M76.3,85.8L40,39.4c-1.1-1.4-3.1-1.6-4.4-0.5l-2.4,1.9c-1.4,1.1-1.6,3.1-0.5,4.4L69,91.6
						c1.1,1.4,3.1,1.6,4.4,0.5l2.4-1.9C77.1,89.2,77.4,87.2,76.3,85.8z"/>
				</g>
			</g>
			<g>
				<g>
					<path class="st4" d="M33.5,46.3c0.6,3.9,1,14.7-8.8,24c-1.4,1.3-1.6,3.5-0.4,5l13.3,17c1.2,1.5,3.3,1.8,4.9,0.8
						c11.4-7.2,21.7-4.2,25.4-2.7L33.5,46.3z"/>
				</g>
			</g>
			<g>
				<g>
					<path class="st5" d="M25,76L11.8,86.3c-4.3,3.4-5,9.6-1.7,13.8c3.4,4.3,9.6,5,13.8,1.7l13.1-10.3L25,76z"/>
				</g>
			</g>
			<g>
				<g>
					<path class="st3" d="M46.9,110.6l-17-13.3l-5.9,4.6c-1.4,1.1-2.9,1.7-4.5,2l20.2,15.9c2.5,2,6.1,1.5,8.1-1
						C49.8,116.2,49.4,112.5,46.9,110.6L46.9,110.6z"/>
				</g>
			</g>
			<g>
				<g>
					<circle class="st6" cx="69.9" cy="45.5" r="3.5"/>
				</g>
			</g>
			<g>
				<g>
					<path class="st2" d="M72.7,49.2l-2.9,0.9c-2.8,0.9-4.3,3.8-3.5,6.6l0.2,0.5c2.2,0.9,4.7,1.1,7.2,0.4c2.5-0.8,4.4-2.4,5.7-4.4
						l-0.2-0.5C78.4,49.9,75.4,48.3,72.7,49.2L72.7,49.2z"/>
				</g>
			</g>
			<g>
				<g>
					<circle class="st6" cx="100.9" cy="60.3" r="3.9"/>
				</g>
			</g>
			<g>
				<g>
					<path class="st0" d="M103.9,64.4l-3.2,1c-3,0.9-4.7,4.2-3.8,7.2l0.2,0.6c2.4,1,5.2,1.2,7.9,0.4c2.7-0.8,4.9-2.6,6.3-4.8
						l-0.2-0.6C110.2,65.2,107,63.4,103.9,64.4L103.9,64.4z"/>
				</g>
			</g>
			<g>
				<g>
					<circle class="st6" cx="93.3" cy="14" r="4.3"/>
				</g>
			</g>
			<g>
				<g>
					<path class="st4" d="M96.7,18.6l-3.6,1.1c-3.4,1-5.3,4.7-4.2,8.1l0.2,0.7c2.7,1.2,5.8,1.4,8.8,0.5c3-0.9,5.5-2.9,7-5.4
						l-0.2-0.7C103.7,19.5,100.1,17.6,96.7,18.6L96.7,18.6z"/>
				</g>
			</g>
			<g>
				<g>
					<path class="st7" d="M74.9,16c-1.5,0.2-3.1-0.6-3.8-2c0,0-0.2,0-0.1,0c0.2,1.5-0.7,3-2,3.8c0,0,0,0.1,0,0.1
						c1.5-0.2,3.1,0.6,3.8,2c0,0,0.2,0,0.1,0c-0.2-1.5,0.7-3,2-3.8C75,16.1,74.9,16,74.9,16z"/>
				</g>
			</g>
			<g>
				<g>
					<path class="st0" d="M14.8,60l-1.1,0.3l-0.3-1.1c-0.3-0.8-1.1-1.3-2-1c-0.8,0.2-1.3,1.1-1.1,1.9l0.3,1.1l-1.1,0.3
						c-0.8,0.3-1.3,1.1-1,2c0.2,0.8,1.1,1.3,2,1l1.1-0.3l0.3,1.1c0.3,0.8,1.1,1.3,2,1c0.8-0.2,1.3-1.1,1.1-1.9l-0.3-1.1l1.1-0.3
						c0.8-0.3,1.3-1.1,1-2C16.5,60.3,15.6,59.8,14.8,60z"/>
				</g>
			</g>
			<g>
				<g>
					<path class="st2" d="M1.4,72.4c-0.9,0.3-1.4,1.2-1.1,2.1c0.3,0.9,1.2,1.4,2.1,1.1s1.4-1.2,1.1-2.1C3.2,72.6,2.2,72.1,1.4,72.4z
						"/>
				</g>
			</g>
			<g>
				<g>
					<path class="st4" d="M123.3,51.4c-0.9,0.3-1.4,1.2-1.1,2.1c0.3,0.9,1.2,1.4,2.1,1.1c0.9-0.3,1.4-1.2,1.1-2.1
						C125.1,51.7,124.2,51.2,123.3,51.4z"/>
				</g>
			</g>
			<g>
				<g>
					<path class="st2" d="M115.1,41.2c-2.2,0.3-4.4-0.9-5.5-2.8c0-0.1-0.2,0-0.2,0.1c0.2,2.2-0.9,4.4-2.9,5.4
						c-0.1,0-0.1,0.2,0.1,0.2c2.2-0.3,4.4,0.9,5.5,2.8c0,0.1,0.2,0,0.2-0.1c-0.2-2.2,0.9-4.4,2.9-5.4
						C115.3,41.3,115.2,41.2,115.1,41.2z"/>
				</g>
			</g>
			<g>
				<g>
					<g>
						<path class="st8" d="M67.1,36.4c-6.2,1.9-9.6,8.5-7.7,14.7c1.9,6.2,8.5,9.6,14.7,7.7c6.2-1.9,9.6-8.5,7.7-14.7
							C79.8,37.9,73.3,34.5,67.1,36.4L67.1,36.4z M73.3,56.4c-4.9,1.5-10.1-1.2-11.6-6.1c-1.5-4.9,1.2-10.1,6.1-11.6
							c4.9-1.5,10.1,1.2,11.6,6.1C80.9,49.7,78.2,54.9,73.3,56.4z"/>
					</g>
				</g>
			</g>
			<g>
				<g>
					<g>
						<path class="st8" d="M97.9,50.4c-6.7,2.1-10.5,9.3-8.4,16s9.3,10.5,16,8.4c6.7-2.1,10.5-9.3,8.4-16S104.6,48.3,97.9,50.4
							L97.9,50.4z M104.7,72.4c-5.4,1.7-11.2-1.4-12.9-6.8s1.4-11.2,6.8-12.9c5.4-1.7,11.2,1.4,12.9,6.8
							C113.2,65,110.1,70.8,104.7,72.4L104.7,72.4z"/>
					</g>
				</g>
			</g>
			<g>
				<g>
					<g>
						<path class="st8" d="M89.9,3.1c-7.4,2.3-11.6,10.2-9.3,17.6c2.3,7.4,10.2,11.6,17.6,9.3c7.4-2.3,11.6-10.2,9.3-17.6
							C105.3,5,97.3,0.8,89.9,3.1z M97.5,27.7C91.4,29.6,84.9,26.2,83,20c-1.9-6.1,1.5-12.7,7.7-14.6s12.7,1.5,14.6,7.7
							C107.1,19.3,103.7,25.8,97.5,27.7z"/>
					</g>
				</g>
			</g>
			<g>
				<g>
					<path class="st8" d="M92.5,54.7l-11.1-5.2c-0.6-0.3-1.3,0-1.6,0.6c-0.3,0.6,0,1.3,0.6,1.6l11.1,5.2c0.3,0.1,0.6,0.1,0.9,0.1
						c0.3-0.1,0.6-0.3,0.8-0.7C93.4,55.7,93.2,55,92.5,54.7L92.5,54.7z"/>
				</g>
			</g>
			<g>
				<g>
					<path class="st8" d="M90.5,59.5L78.8,54c-0.6-0.3-1.3,0-1.6,0.6c-0.3,0.6,0,1.3,0.6,1.6l11.8,5.5c0.3,0.1,0.6,0.1,0.9,0.1
						c0.3-0.1,0.6-0.3,0.8-0.7C91.4,60.5,91.2,59.7,90.5,59.5L90.5,59.5z"/>
				</g>
			</g>
			<g>
				<g>
					<path class="st8" d="M88.9,27.3c-0.6-0.4-1.3-0.3-1.7,0.3l-9,12.8c-0.4,0.6-0.3,1.3,0.3,1.7c0.3,0.2,0.7,0.3,1.1,0.2
						c0.3-0.1,0.5-0.2,0.6-0.5l9-12.8C89.6,28.5,89.4,27.7,88.9,27.3L88.9,27.3z"/>
				</g>
			</g>
			<g>
				<g>
					<path class="st8" d="M84.8,24.2c-0.6-0.4-1.3-0.3-1.7,0.3L74.2,37c-0.4,0.6-0.3,1.3,0.3,1.7c0.3,0.2,0.7,0.3,1.1,0.2
						c0.3-0.1,0.5-0.2,0.6-0.5l8.8-12.6C85.5,25.3,85.4,24.6,84.8,24.2L84.8,24.2z"/>
				</g>
			</g>
			<g>
				<g>
					<g>
						<path class="st8" d="M77.3,85L41,38.6c-1.5-1.9-4.2-2.2-6.2-0.8l-2.4,1.9c-0.9,0.7-1.5,1.8-1.6,2.9c-0.1,1.2,0.2,2.3,0.9,3.2
							L68,92.3c1.2,1.5,3.1,2,4.8,1.5c0.5-0.2,1-0.4,1.4-0.7l2.4-1.9c0.9-0.7,1.5-1.8,1.7-2.9C78.3,87.1,78,86,77.3,85L77.3,85z
							 M75.7,88c-0.1,0.5-0.3,1-0.7,1.3l-2.4,1.9c-0.4,0.3-0.9,0.5-1.4,0.4c-0.5-0.1-1-0.3-1.3-0.7L33.6,44.4
							c-0.3-0.4-0.5-0.9-0.4-1.4c0.1-0.5,0.3-1,0.7-1.3l2.4-1.9c0.2-0.1,0.4-0.3,0.6-0.3c0.7-0.2,1.6,0,2.1,0.7l36.3,46.4
							C75.7,87,75.8,87.5,75.7,88z"/>
					</g>
				</g>
			</g>
			<g>
				<g>
					<path class="st8" d="M68.4,89.2c-4.1-1.6-14.8-4.6-26.4,2.9c-1.1,0.7-2.5,0.5-3.3-0.5l-13.3-17c-0.8-1-0.7-2.4,0.3-3.3
						c10-9.5,9.7-20.6,9.1-25c-0.1-0.7-0.7-1.1-1.4-1.1c-0.7,0.1-1.1,0.7-1.1,1.4c0.5,4,0.8,14.1-8.4,22.9c-1.9,1.8-2.1,4.6-0.5,6.6
						l13.3,17c1.6,2,4.4,2.5,6.6,1.1C54,87.3,63.8,90,67.5,91.5c0.3,0.1,0.6,0.1,0.8,0c0.3-0.1,0.6-0.4,0.8-0.7
						C69.4,90.2,69.1,89.5,68.4,89.2L68.4,89.2z"/>
				</g>
			</g>
			<g>
				<g>
					<path class="st8" d="M37.7,91.1c-0.4-0.5-1.2-0.6-1.7-0.2l-12.8,10c-3.7,2.9-9.2,2.3-12.1-1.5c-2.9-3.7-2.3-9.2,1.5-12.1
						l12.9-10.1c0.5-0.4,0.6-1.2,0.2-1.7c-0.4-0.5-1.2-0.6-1.7-0.2L11.1,85.3c-4.8,3.8-5.7,10.8-1.9,15.6c2.9,3.7,7.8,5.1,12,3.8
						c1.3-0.4,2.5-1,3.5-1.9l12.8-10C38,92.4,38.1,91.6,37.7,91.1L37.7,91.1z"/>
				</g>
			</g>
			<g>
				<g>
					<path class="st8" d="M47.6,109.6L31,96.6c-0.5-0.4-1.3-0.3-1.7,0.2c-0.4,0.5-0.3,1.3,0.2,1.7l16.6,13c2,1.5,2.3,4.4,0.8,6.4
						c-0.7,1-1.8,1.6-3,1.7c-1.2,0.1-2.4-0.2-3.4-0.9L20.5,103c-0.5-0.4-1.3-0.3-1.7,0.2c-0.4,0.5-0.3,1.3,0.2,1.7L39,120.6
						c1.5,1.2,3.3,1.7,5.2,1.4c0.4-0.1,0.8-0.1,1.2-0.3c1.4-0.4,2.5-1.2,3.4-2.4C51.2,116.4,50.7,112,47.6,109.6L47.6,109.6z"/>
				</g>
			</g>
			<g>
				<g>
					<g>
						<path class="st8" d="M68.5,41c-2.5,0.8-3.9,3.4-3.1,5.9c0.8,2.5,3.4,3.9,5.9,3.1s3.9-3.4,3.1-5.9C73.7,41.6,71,40.2,68.5,41z
							 M70.6,47.6c-1.2,0.4-2.5-0.3-2.8-1.5s0.3-2.5,1.5-2.8c1.2-0.4,2.5,0.3,2.8,1.5C72.4,46,71.8,47.3,70.6,47.6z"/>
					</g>
				</g>
			</g>
			<g>
				<g>
					<path class="st8" d="M72.3,48l-2.9,0.9C66,50,64.1,53.6,65.1,57l0.1,0.3c0.2,0.6,0.9,1,1.5,0.8c0.6-0.2,1-0.9,0.8-1.5l-0.1-0.3
						c-0.7-2.1,0.5-4.4,2.6-5l2.9-0.9c2.1-0.7,4.4,0.5,5,2.6l0.1,0.4c0.2,0.6,0.9,1,1.5,0.8c0.6-0.2,1-0.9,0.8-1.5l-0.1-0.4
						C79.3,48.9,75.7,47,72.3,48L72.3,48z"/>
				</g>
			</g>
			<g>
				<g>
					<g>
						<path class="st8" d="M99.4,55.4c-2.7,0.8-4.2,3.7-3.4,6.4c0.8,2.7,3.7,4.2,6.4,3.4s4.2-3.7,3.4-6.4S102.1,54.6,99.4,55.4z
							 M101.7,62.8c-1.4,0.4-2.8-0.3-3.3-1.7c-0.4-1.4,0.3-2.8,1.7-3.3c1.4-0.4,2.8,0.3,3.3,1.7C103.8,60.9,103.1,62.4,101.7,62.8z"
							/>
					</g>
				</g>
			</g>
			<g>
				<g>
					<path class="st8" d="M103.6,63.2l-3.2,1c-3.7,1.1-5.8,5.1-4.6,8.8l0.1,0.3c0.2,0.6,0.9,1,1.5,0.8c0.6-0.2,1-0.9,0.8-1.5
						l-0.1-0.3c-0.7-2.4,0.6-4.9,3-5.7l3.2-1c2.4-0.7,4.9,0.6,5.7,3l0.1,0.4c0.2,0.6,0.9,1,1.5,0.8c0.6-0.2,1-0.9,0.8-1.5l-0.1-0.4
						C111.2,64.1,107.3,62.1,103.6,63.2z"/>
				</g>
			</g>
			<g>
				<g>
					<g>
						<path class="st8" d="M91.7,8.8c-2.9,0.9-4.5,4-3.6,6.9c0.9,2.9,4,4.5,6.9,3.6s4.5-4,3.6-6.9C97.7,9.5,94.6,7.9,91.7,8.8z
							 M94.2,17c-1.6,0.5-3.3-0.4-3.8-2c-0.5-1.6,0.4-3.3,2-3.8c1.6-0.5,3.3,0.4,3.8,2C96.7,14.8,95.8,16.5,94.2,17z"/>
					</g>
				</g>
			</g>
			<g>
				<g>
					<path class="st8" d="M96.3,17.4l-3.6,1.1c-4,1.2-6.3,5.6-5.1,9.6l0.1,0.4c0.2,0.6,0.9,1,1.5,0.8c0.6-0.2,1-0.9,0.8-1.5L90,27.4
						c-0.8-2.7,0.7-5.7,3.4-6.5l3.6-1.1c2.7-0.8,5.7,0.7,6.5,3.4l0.1,0.4c0.2,0.6,0.9,1,1.5,0.8c0.6-0.2,1-0.9,0.8-1.5l-0.1-0.4
						C104.7,18.5,100.3,16.2,96.3,17.4z"/>
				</g>
			</g>
		</g>
	</g>
	<g>
		<g>
			<path class="st9" d="M288.3,64.9l26.5-6.8c2.4-0.6,4.9,0.8,5.5,3.3l6.8,26.5c0.6,2.4-0.8,4.9-3.3,5.5l-26.5,6.8
				c-2.4,0.6-4.9-0.8-5.5-3.3L285,70.5C284.4,68,285.9,65.5,288.3,64.9z"/>
			<path class="st10" d="M293.3,75.4l-2.8-11l-2.2,0.6c-2.4,0.6-3.9,3.1-3.3,5.5l6.8,26.5c0.6,2.4,3.1,3.9,5.5,3.3l26.5-6.8
				c2.4-0.6,3.9-3.1,3.3-5.5l-0.6-2.2l-11,2.8C305.8,91,295.8,85.1,293.3,75.4z"/>
			<path class="st8" d="M306.5,90c-0.8,0.2-1.5-0.3-1.7-1l-1.9-7.4l-3,0.8c-0.8,0.2-1.5-0.3-1.7-1s0.3-1.5,1-1.7l3-0.8l-0.8-3
				c-0.8-3.2,1.1-6.5,4.3-7.3l4.4-1.1c0.8-0.2,1.5,0.3,1.7,1c0.2,0.8-0.3,1.5-1,1.7l-4.4,1.1c-1.7,0.4-2.7,2.1-2.3,3.8l0.8,3l3-0.8
				c0.8-0.2,1.5,0.3,1.7,1c0.2,0.8-0.3,1.5-1,1.7l-3,0.8l1.9,7.4C307.7,89,307.2,89.8,306.5,90z"/>
			<path class="st8" d="M297.7,101.6c-3.2,0.8-6.5-1.1-7.3-4.3L287,84.1c-0.2-0.8,0.3-1.5,1-1.7c0.8-0.2,1.5,0.3,1.7,1l3.4,13.2
				c0.4,1.7,2.1,2.7,3.8,2.3l26.5-6.8c1.7-0.4,2.7-2.1,2.3-3.8l-6.8-26.5c-0.4-1.7-2.1-2.7-3.8-2.3l-26.5,6.8
				c-1.7,0.4-2.7,2.1-2.3,3.8l1.1,4.4c0.2,0.8-0.3,1.5-1,1.7c-0.8,0.2-1.5-0.3-1.7-1l-1.1-4.4c-0.8-3.2,1.1-6.5,4.3-7.3l26.5-6.8
				c3.2-0.8,6.5,1.1,7.3,4.3l6.8,26.5c0.8,3.2-1.1,6.5-4.3,7.3L297.7,101.6z"/>
		</g>
		<g>
			<path class="st11" d="M307.8,135.6l26.5-6.8c2.4-0.6,4.9,0.8,5.5,3.3l6.8,26.5c0.6,2.4-0.8,4.9-3.3,5.5l-26.5,6.8
				c-2.4,0.6-4.9-0.8-5.5-3.3l-6.8-26.5C303.9,138.7,305.3,136.2,307.8,135.6z"/>
			<circle class="st12" cx="325.5" cy="149.9" r="6.8"/>
			<path class="st13" d="M312.8,146.1l-2.8-11l-2.2,0.6c-2.4,0.6-3.9,3.1-3.3,5.5l6.8,26.5c0.6,2.4,3.1,3.9,5.5,3.3l26.5-6.8
				c2.4-0.6,3.9-3.1,3.3-5.5l-0.6-2.2l-11,2.8C325.2,161.7,315.3,155.8,312.8,146.1z"/>
			<circle class="st14" cx="327.2" cy="147.1" r="2.3"/>
			<path class="st8" d="M327.6,157.9c-4.4,1.1-8.9-1.5-10.1-6c-1.1-4.4,1.5-8.9,6-10.1c4.4-1.1,8.9,1.5,10.1,6
				C334.7,152.2,332,156.8,327.6,157.9z M324.2,144.6c-2.9,0.7-4.6,3.7-3.9,6.6c0.7,2.9,3.7,4.6,6.6,3.9s4.6-3.7,3.9-6.6
				S327.1,143.9,324.2,144.6z"/>
			<path class="st8" d="M317.2,172.3c-3.2,0.8-6.5-1.1-7.3-4.3l-6.8-26.5c-0.8-3.2,1.1-6.5,4.3-7.3l26.5-6.8
				c3.2-0.8,6.5,1.1,7.3,4.3l3.4,13.2c0.2,0.8-0.3,1.5-1,1.7c-0.8,0.2-1.5-0.3-1.7-1l-3.4-13.2c-0.4-1.7-2.1-2.7-3.8-2.3l-26.5,6.8
				c-1.7,0.4-2.7,2.1-2.3,3.8l6.8,26.5c0.4,1.7,2.1,2.7,3.8,2.3l26.5-6.8c1.7-0.4,2.7-2.1,2.3-3.8l-1.1-4.4c-0.2-0.8,0.3-1.5,1-1.7
				c0.8-0.2,1.5,0.3,1.7,1l1.1,4.4c0.8,3.2-1.1,6.5-4.3,7.3L317.2,172.3z"/>
		</g>
		<g>
			<circle class="st15" cx="269.6" cy="139.9" r="18.2"/>
			<path class="st14" d="M266.9,147.6l-3.4-13.2l14.9,3.2L266.9,147.6z"/>
			<path class="st16" d="M279.1,149.2c-9.8,2.5-19.7-3.4-22.2-13.1c-0.8-3.1-0.8-6.3,0.1-9.3c-7.1,7.1-7.2,18.6-0.1,25.8
				c7.1,7.1,18.6,7.2,25.8,0.1c2.2-2.2,3.8-4.9,4.7-7.9C285,146.9,282.2,148.5,279.1,149.2z"/>
			<path class="st8" d="M267.2,149c-0.3,0.1-0.5,0.1-0.8,0c-0.5-0.1-0.8-0.5-0.9-1l-3.4-13.2c-0.1-0.2-0.1-0.4,0-0.7
				c0.1-0.5,0.5-0.9,1-1.1c0.2-0.1,0.4-0.1,0.7,0l14.9,3.2c0.3,0.1,0.5,0.2,0.7,0.4c0.5,0.6,0.5,1.5-0.1,2l-11.5,10
				C267.7,148.9,267.5,149,267.2,149L267.2,149z M267.7,145l7.6-6.6l-9.9-2.1L267.7,145z"/>
			<path class="st8" d="M274.5,158.9c-10.5,2.7-21.2-3.7-23.9-14.2c-2.7-10.5,3.7-21.2,14.2-23.9c10.5-2.7,21.2,3.7,23.9,14.2
				C291.3,145.5,285,156.2,274.5,158.9z M265.4,123.6c-9,2.3-14.4,11.5-12.1,20.4s11.5,14.4,20.4,12.1c9-2.3,14.4-11.5,12.1-20.4
				C283.6,126.7,274.4,121.3,265.4,123.6z"/>
		</g>
		<g>
			<path class="st17" d="M224.3,71.7l26.5-6.8l9,35.3l-26.5,6.8L224.3,71.7z"/>
			<path class="st18" d="M234.8,85.5l-4-15.5l-6.6,1.7l9,35.3l26.5-6.8l-1.7-6.6l-6.6,1.7C244.2,97.2,236.7,92.8,234.8,85.5z"/>
			<path class="st8" d="M233.7,108.4c-0.8,0.2-1.5-0.3-1.7-1l-9-35.3c-0.2-0.8,0.3-1.5,1-1.7l26.5-6.8c0.8-0.2,1.5,0.3,1.7,1l9,35.3
				c0.2,0.8-0.3,1.5-1,1.7L233.7,108.4z M234.3,105.3l23.7-6.1l-8.3-32.6L226,72.8L234.3,105.3z"/>
			<path class="st8" d="M240.1,78.6c-0.8,0.2-1.5-0.3-1.7-1c-0.2-0.8,0.3-1.5,1-1.7l4.4-1.1c0.8-0.2,1.5,0.3,1.7,1
				c0.2,0.8-0.3,1.5-1,1.7L240.1,78.6z"/>
			<path class="st8" d="M238,88.5c-0.8,0.2-1.5-0.3-1.7-1c-0.2-0.8,0.3-1.5,1-1.7l8.8-2.3c0.8-0.2,1.5,0.3,1.7,1
				c0.2,0.8-0.3,1.5-1,1.7L238,88.5z"/>
			<path class="st8" d="M240.2,97.3c-0.8,0.2-1.5-0.3-1.7-1c-0.2-0.8,0.3-1.5,1-1.7l8.8-2.3c0.8-0.2,1.5,0.3,1.7,1
				c0.2,0.8-0.3,1.5-1,1.7L240.2,97.3z"/>
		</g>
	</g>
	<g>
		<path class="st19" d="M490.9,5.2c-9.3-2.6-18.9,2.8-21.5,12c-2.6,9.3,2.8,18.9,12,21.5c9.3,2.6,18.9-2.8,21.5-12c0,0,0,0,0,0
			C505.6,17.5,500.2,7.9,490.9,5.2z"/>
		<path class="st20" d="M464.8,69.2l14.5,4.1l-7.1,25.3l-14.5-4.1L464.8,69.2z"/>
		<path class="st21" d="M546.9,42.2l-0.8,2.8c1.6,0.5,3.2,2.2,2.8,3.5l-18.1,66.7l12.9,3.7L563.9,52c0.4-1.3,2-1.5,3.6-1.1l0.7-2.7
			L560.7,34L546.9,42.2z"/>
		<path class="st22" d="M497.3,49.3l13.6,3.8l-14.7,52.2l-13.6-3.8L497.3,49.3z"/>
		<path class="st9" d="M518,66.8l14,3.9l-11.7,41.5l-14-3.9L518,66.8z"/>
		<path class="st8" d="M446.4,93c-0.7-0.2-1.1-0.9-0.9-1.6c0.2-0.7,0.9-1.1,1.6-0.9l8.6,2.4c0.6,0.2,1.2-0.2,1.3-0.7l6.6-23.5
			c0.2-0.7,0.9-1.1,1.6-0.9L480,72c0.7,0.2,1.1,0.9,0.9,1.6l-6.6,23.5c-0.2,0.6,0.2,1.2,0.7,1.3l4.9,1.4c0.6,0.2,1.2-0.2,1.3-0.7
			l14.3-50.7c0.2-0.7,0.9-1.1,1.6-0.9l14.7,4.1c0.7,0.2,1.1,0.9,0.9,1.6l-14.3,50.7c-0.2,0.6,0.2,1.2,0.7,1.3l4.9,1.4
			c0.6,0.2,1.2-0.2,1.3-0.7l11.1-39.4c0.2-0.7,0.9-1.1,1.6-0.9l14.6,4.1c0.7,0.2,1.1,0.9,0.9,1.6l-11.1,39.4
			c-0.2,0.6,0.2,1.2,0.7,1.3l4.9,1.4c0.6,0.2,1.2-0.2,1.3-0.7l18-63.8c0.2-0.6-0.2-1.2-0.7-1.3l-3.4-1c-0.3-0.1-0.5-0.2-0.7-0.5
			c-0.2-0.3-0.3-0.6-0.2-1c0.1-0.3,0.2-0.6,0.5-0.8l17.7-13c0.3-0.2,0.7-0.3,1.1-0.2c0.4,0.1,0.7,0.4,0.8,0.8l8.3,20.3
			c0.1,0.3,0.1,0.6,0.1,0.8c-0.2,0.7-0.9,1.1-1.6,0.9l-3.4-1c-0.6-0.2-1.2,0.2-1.3,0.7l-18,63.8c-0.2,0.6,0.2,1.2,0.7,1.3l8.7,2.4
			c0.7,0.2,1.1,0.9,0.9,1.6c-0.2,0.7-0.9,1.1-1.6,0.9L446.4,93z M560.5,35c-0.3-0.1-0.7,0-0.9,0.2l-11.4,8.3
			c-0.3,0.2-0.5,0.7-0.4,1.1c0.1,0.4,0.4,0.7,0.8,0.8l1,0.3c0.7,0.2,1.1,0.9,0.9,1.6l-18.7,66.1c-0.2,0.6,0.2,1.2,0.7,1.3l10.1,2.9
			c0.6,0.2,1.2-0.2,1.3-0.7l18.7-66.1c0.2-0.7,0.9-1.1,1.6-0.9l1,0.3c0.4,0.1,0.8,0,1.1-0.3c0.3-0.3,0.3-0.7,0.2-1.1l-5.3-13
			C561.1,35.3,560.8,35,560.5,35L560.5,35z M519.5,68.6c-0.6-0.2-1.2,0.2-1.3,0.7l-10.5,37.1c-0.2,0.6,0.2,1.2,0.7,1.3l10.1,2.9
			c0.6,0.2,1.2-0.2,1.3-0.7l10.5-37.1c0.2-0.6-0.2-1.2-0.7-1.3L519.5,68.6z M498.7,50.5c-0.6-0.2-1.2,0.2-1.3,0.7l-13.7,48.4
			c-0.2,0.6,0.2,1.2,0.7,1.3l10.1,2.9c0.6,0.2,1.2-0.2,1.3-0.7l13.7-48.4c0.2-0.6-0.2-1.2-0.7-1.3L498.7,50.5z M466.9,71
			c-0.6-0.2-1.2,0.2-1.3,0.7l-6,21.2c-0.2,0.6,0.2,1.2,0.7,1.3l10.1,2.9c0.6,0.2,1.2-0.2,1.3-0.7l6-21.2c0.2-0.6-0.2-1.2-0.7-1.3
			L466.9,71z M480.9,40.8c-5-1.4-9.2-4.7-11.7-9.2c-2.5-4.5-3.2-9.8-1.7-14.8c2.9-10.4,13.7-16.4,24.1-13.5
			C501.8,6.2,507.9,17,505,27.3C502,37.7,491.2,43.7,480.9,40.8z M490.8,5.7c-9-2.5-18.4,2.7-20.9,11.7l0,0
			c-2.5,9,2.7,18.3,11.7,20.9c9,2.5,18.4-2.7,20.9-11.7C505,17.6,499.8,8.3,490.8,5.7z M482.5,35.1c-0.7-0.2-1.1-0.9-0.9-1.6
			l0.2-0.8c0.1-0.5-0.1-0.9-0.5-1.2c-2.4-1.5-3.5-4.2-2.8-6.7c0.2-0.7,0.9-1.1,1.6-0.9c0.7,0.2,1.1,0.9,0.9,1.6
			c-0.5,1.8,0.8,3.8,3,4.4c2.1,0.6,4.3-0.4,4.8-2.2c0.6-2.2-0.4-3-3.2-4.5c-3-1.6-5.6-3.4-4.5-7.5c0.7-2.5,3.1-4.2,5.9-4.2
			c0.5,0,0.9-0.3,1-0.8l0.2-0.8c0.2-0.7,0.9-1.1,1.6-0.9c0.7,0.2,1.1,0.9,0.9,1.6l-0.2,0.8c-0.1,0.5,0.1,0.9,0.5,1.2
			c2.4,1.5,3.5,4.2,2.8,6.7c-0.2,0.7-0.9,1.1-1.6,0.9c-0.7-0.2-1.1-0.9-0.9-1.6c0.5-1.8-0.8-3.8-2.9-4.4c-2.1-0.6-4.3,0.4-4.8,2.2
			c-0.6,2.2,0.4,3,3.2,4.5c3,1.6,5.7,3.3,4.5,7.5c-0.7,2.5-3.1,4.2-5.9,4.2c-0.5,0-0.9,0.3-1,0.8l-0.2,0.8
			C483.9,34.9,483.2,35.3,482.5,35.1z"/>
	</g>
</g>
</svg>
