<?xml version="1.0" encoding="utf-8"?>
<!-- Generator: Adobe Illustrator 25.0.0, SVG Export Plug-In . SVG Version: 6.00 Build 0)  -->
<svg version="1.1" id="Layer_1" xmlns="http://www.w3.org/2000/svg" xmlns:xlink="http://www.w3.org/1999/xlink" x="0px" y="0px"
	 viewBox="0 0 580 48" style="enable-background:new 0 0 580 48;" xml:space="preserve">
<style type="text/css">
	.st0{fill:#C8BDA6;}
	.st1{fill:none;}
	.st2{fill:#FFFAF1;}
</style>
<g>
	<path class="st0" d="M0,48h580V19.6v-6.8c-0.9,0-1.7-0.3-2.4-1.1c-2.2,1.3-4.3-1.7-6.5-2.6c-2.6,2.2-4.7-1.3-6.9-0.9
		c-2.6-0.9-5.2,0-7.3,0c-2.6,2.2-5.2-2.2-7.3,0c-2.6,3-4.7,0-6.9,0c-2.2,0.4-4.3-3.5-6.5,1.3c-1.7,0.9-2.6,2.2-4.7,2.2
		c-1.7-2.6-3,0.4-4.7,0c-1.3-0.4-3-4.3-4.3,0c-1.7-3.5-4.7,3-6.9,0c-3-3.5-4.7,0.4-7.8-3.5c-2.2-0.4-4.3,3-6.9,0
		c-3-0.4-4.3,0.9-6.9,2.6c-0.4,1.7-0.9,0.9-1.3,0.9c-0.4,2.2-0.4,3-0.9,2.2c-0.9,3-2.2,0-3,1.7c-1.7-0.9-3.9,1.7-6,0
		c-3.5,0.9-6.5,0.9-9.9,0c-3.5-1.3-6.9-0.4-10.8,0c-2.2-1.7-4.7-4.3-7.3-0.9c-2.6-2.6-4.7-1.7-6.9,0.9c-1.3,0.9-2.6,1.3-3.9,2.2
		c-1.7,0.4-1.7,0.4-3.5,0.4c-2.2-5.6-3.9,0-6.5,0.9c-3.5,2.6-6.5-0.4-9.9,2.6c-2.6,0.4-5.6-2.2-8.2,1.3c-2.6,0-5.6,0.9-8.2,0.9
		c-2.6,0-5.6-1.3-8.2,0c-2.2-0.4-4.7-3.5-6.9-2.2c-1.7-0.9-3-0.9-4.7-1.7c-1.7,0.4-2.6-3.5-4.3-3c-0.9-3.5-2.2-1.3-3-1.7
		c-0.4-0.9-1.3-0.9-1.7-2.2c-1.3-1.7-4.3-0.4-5.2,0c-1.7-0.9-3.5,0.9-5.6,0c-1.7-1.3-3.5,0.4-5.2,0.4c-1.7-0.4-3-0.9-4.3,0.4
		c-1.3-0.4-3-1.3-4.3,0.9c-2.2-0.9-4.3-5.2-6.5,0c-2.2-0.9-4.3-1.3-6.5-0.9c-3.5,3.5-5.6-0.4-7.3-0.9c-2.2,0-3.9-2.2-5.6,0.4
		c-1.3-0.9-2.6,3-4.3,0.9c-1.7-1.7-3.5,0.9-5.6,0c-1.7,0.9-3.5-0.9-5.2,0c-2.2,0.4-4.3,1.3-6,2.2c-1.7,0.9-2.2,1.7-4.3,2.2
		c-3-1.7-6.5-3.5-9.5,0c-2.2,2.2-3.9-0.9-5.6-0.4c-2.6-1.7-5.2-2.2-8.2-0.9c-2.2,0.4-4.3-1.3-6.5,0c-2.2-1.3-4.3,1.3-6.5,0
		c-2.6-0.9-4.7-1.7-6.5-0.4c-2.6,0.4-4.3,0.9-6.5-3.5c-2.2-4.3-3-1.3-5.6-1.7c-2.6-2.2-5.6-0.9-8.2,0c-2.2,0.4-3.9,3.5-5.6,0.9
		c-2.2-0.9-3.9,0.9-6,0c-2.6-0.9-6.5-2.6-8.6,0.4c-0.4,0.4-0.4,4.3-0.9,1.3c-0.4-1.3-2.2,3-3,1.7c-1.7,1.3-3.9,1.3-6,1.3
		c-2.2,0.9-4.3,0-6.5,0c-2.2-3.5-4.3-2.6-6.5,0c-1.3-0.9-3-1.7-4.3,0c-2.2,1.7-2.6,0.4-3.9-2.2c-2.2-0.9-4.3-0.9-6.5-3
		c-2.2-2.2-4.7,0-6.9-0.4c-2.6-2.6-4.7,0-7.3,0.9c-3-0.9-4.3,0.9-6.9-1.7c-2.2,0-4.7,0.9-6.9-4.3c-2.6,1.7-5.2-3.5-7.8-2.6
		c-1.7-3.5-3.9-0.4-5.6,0c-1.3,4.7-6,0.4-6.9,1.7c-1.7-3-3.5,0-4.7-2.2c-2.6,0-4.7,0.9-8.2-2.6c-2.2-2.6-4.7,0.9-6.9,0
		c-2.2,0-4.7-0.9-6.9,0.4c-2.6,4.7-5.2-0.4-7.3,2.2c-1.3-3.5-2.2,0.4-3.5,0c-0.9,0.4-1.3-3-2.2,1.3c-0.9,3.9-2.2,1.3-3,0.4
		c-2.2-3-3.9,1.3-6,0.4c-3,0.4-6-1.3-9.1,0c-2.2-3.9-3.9-0.4-6,0c-2.2,3-3.9-0.4-6,0c-2.2,0.9-4.7,0-7.8,0c-3,2.6-5.6,3.5-7.3,2.2
		c-3.5-2.6-0.4,7.8-3.5,6.5c-1.3,3-3.5-0.9-6,1.3c-2.2,0.4-4.3,1.7-6-0.4c-2.6,0-5.2-2.2-7.8-2.6c-1.3,0.4-3-5.6-4.3,0
		c-3,2.6-5.2-1.3-8.2-1.7c-1.7,0.9-3.5-2.6-5.2,0c-2.6-1.3-5.2,1.3-6.5,0c-0.4-0.4-0.7-0.3-1.1-0.1v12.6V48z"/>
	<rect class="st1" width="580" height="48"/>
	<path class="st2" d="M580,48V19.6c-2.1,0.1-4.5,0-5.9,0.6c-1.3,1.9-2.2,2.4-3,1.9c-1.3,2.9-3.5-1-4.7,0c-2.6-1-5.2,1-7.8-1
		c-2.2-5.3-3.5-6.7-5.6-1c-3.5,3.4-6.9,3.4-10.4-1c-3,0-6.5-0.5-9.5,0c-1.3,5.3-3-0.5-4.3,0c-1.7-4.3-2.2-1-4.3,1
		c-3,1.4-6.9-1.4-9.5,0.5c-1.7-1.4-2.6,2.9-4.3,1.9c-1.7,2.4-3-1.4-4.7,1c-3-1.4-6-2.9-9.1,2.9c-3.5,2.4-6.5,0-9.9,2.4
		c-1.7,0.5-3.9-1.9-6,0c-1.7,0.5-2.6-1.4-4.3,1c-1.3,2.9-2.6,2.4-3.9,0c-1.3-2.9-2.2-3.8-3.9-1.4c-1.3-2.4-2.6,1-3.9,0
		c-1.7,2.4-3.5-0.5-5.2-1c-1.7-2.4-3.5,1.4-5.2,0c-2.2,1.9-4.3-1.9-6.9-1c-3.9,0.5-8.2,1.4-12.1,0c-3.9,2.9-8.2-0.5-11.6,1.9
		c-2.2-2.4-4.3,4.8-6.5,1c-2.2-0.5-4.3-0.5-6.5,1c-1.3,0.5-1.7,0.5-2.6,1.9c-1.7,2.9-4.7-2.9-6.9,0c-1.7,1.4-3.9,0.5-5.6,0
		c-2.2,1.9-3.9-2.4-5.6-0.5c-2.2-1-4.3-4.3-6.5-1.4c-3-0.5-4.7-1.4-7.3-1.9c-3.5-1-6.5,0.5-9.9-2.4c-1.7-2.4-3.5-2.4-5.6-0.5
		c-1.7-1-3.9-3.4-5.6,0c-3-0.5-6-1.9-9.1,0c-3.9-0.5-6.5-2.4-10.4,1.4c-1.7,2.9-3.9,0-5.6,1c-1.7-0.5-3.9-3.4-5.6-0.5
		c-2.2-1.4-4.3,1.9-6.5-0.5c-2.2,2.4-4.3,1.9-6.5,1.4c-2.6,0.5-5.2,4.8-7.8,1.9c-3,2.9-6-2.4-9.5,1c-1.7,3.4-3.9-1-5.6,0
		c-1.7-1-3.9-1.9-5.6,0c-2.6-1-4.7-1-7.3,0c-1.3-0.5-2.2,3.8-3.5,0c-1.3,1-1.7-1.9-3-1.9s-1.7-3.4-3.5-1c-1.7-0.5-3.9-1.9-5.6-1
		c-1.7-1.4-2.2,0-4.3-1.9c-1.3,1-2.6,0.5-3.9,0c-3.5,0.5-6.9-1-10.4,0c-3.5-3.4-6.9,4.8-10.4,0c-1.7,3.4-3.9,0-5.6-0.5
		c-2.2-2.4-3.9,1.9-5.6,0.5c-2.2,1.9-3.5,0.5-5.6,1.4c-2.2-0.5-3.9-2.9-6,0c-3-3.4-6.9,1.9-9.5,0c-1.3,2.9-2.2,1.9-3.5-1.9
		c-0.4,1-2.2,4.3-3.5,2.4c-1.7-0.5-3.5,1.4-5.2-0.5c-2.2-0.5-4.3,1.9-6.5,0c-2.2,3.8-3-1.9-4.7-1.9c-2.2-5.3-2.6,1-5.2-1.9
		c-2.2,0-3.9,0.5-6,1c-1.7,0-3.9-6.2-6,0.5c-2.2-1.4-4.3,0-6-0.5c-2.2-0.5-4.3,2.4-6.9,0.5c-2.2-0.5-4.7,3.8-6.5-1.4
		c-1.3-4.8-2.6,2.4-3.5-3.4c-1.3-3.8-1.3,0.5-3.5-2.9c-1.7,4.8-3.9-6.7-5.6-1.4c-1.3,3.8-2.2-2.4-3.5-2.4c-2.2-1.9-3.9,1.9-6-1
		c-2.2-2.9-4.7,1.4-6.9-0.5c-2.2,1-4.7,0.5-6.9,0.5c-1.3-1.4-2.6,0.5-3.9,1c-3,1.4-6-0.5-9.1,0c-1.7-2.4-3.5,1.4-5.2,1.9
		c-1.7,0.5-3.5,1.4-5.2,1.9c-1.7,0.5-3.9,3.4-5.6,1c-2.2-1.9-3.9,1.4-6,1c-1.7,0.5-3.5,0-4.7,1.4c-1.7,1.9-2.6,5.3-4.7,3.8
		c-2.2,1.4-4.7-1.4-7.3,1c-2.6,0.5-4.7-1.9-7.3,0c-2.6,2.4-5.2,0.5-7.8,0c-2.6,1.4-5.2-1-7.8,0c-3.5-1-6.5,2.9-9.9-0.5
		c-3,2.4-6.5,1.9-9.9-0.5c-3,3.4-2.6,2.4-6.9,1c-0.7-1.2-1.3-1.7-2-1.7V48H580z"/>
</g>
</svg>
