<?xml version="1.0" encoding="utf-8"?>
<!-- Generator: Adobe Illustrator 25.0.0, SVG Export Plug-In . SVG Version: 6.00 Build 0)  -->
<svg version="1.1" id="Layer_1" xmlns="http://www.w3.org/2000/svg" xmlns:xlink="http://www.w3.org/1999/xlink" x="0px" y="0px"
	 viewBox="0 0 200.9 150" style="enable-background:new 0 0 200.9 150;" xml:space="preserve">
<style type="text/css">
	.st0{fill:#FDB659;}
	.st1{fill:#FD9E28;}
	.st2{fill:#38627C;}
	.st3{fill:#4F7693;}
	.st4{fill:#FEDFC5;}
	.st5{fill:#2F5066;}
	.st6{fill:#83D9FF;}
	.st7{fill:#43A3F9;}
	.st8{fill:#69D998;}
	.st9{fill:#3DC5A1;}
	.st10{fill:#35414D;}
</style>
<g id="g9223_6_">
	<g id="g9229_1_" transform="translate(382.209,305.0132)">
		<g id="path9231_1_">
			<path class="st0" d="M-232.2-249.2l-0.1-0.2c-1.4-1.8-3.8-2.5-5.9-1.8l-43.9,26.3c1,4.6,6,7,10.2,4.9l18.5-9.1l-3,14.8l18.2,2.1
				l8.4-22.8C-228.1-239.8-229-245.2-232.2-249.2"/>
		</g>
	</g>
	<g id="g9233_1_" transform="translate(377.2666,296.5464)">
		<g id="path9235_1_">
			<path class="st1" d="M-229.2-237.5c1.4-0.4,2.8-0.3,4.1,0.4c-0.5-1.3-1.2-2.5-2.1-3.7l-0.1-0.2c-1.4-1.8-3.8-2.5-5.9-1.8
				l-43.9,26.3c0.5,2.5,2.3,4.3,4.4,5.1L-229.2-237.5z"/>
		</g>
	</g>
	<g id="g9237_1_" transform="translate(320.4795,215.7949)">
		<g id="path9239_1_">
			<path class="st2" d="M-194.7-125l-5.1,24.5c-0.2,1.2-0.9,2.2-1.8,3l-14.4,12.3c-0.6,0.5-0.6,1.5,0,2l3.7,3.1
				c0.5,0.4,1.3,0.5,1.9,0.2l17.6-10.1c1.9-1.1,3.6-2,4.4-3.8l11.8-29.1L-194.7-125z"/>
		</g>
	</g>
	<g id="g9241_1_" transform="translate(320.4795,215.7949)">
		<g id="path9243_1_">
			<path class="st3" d="M-194.7-125l-0.3,1.3c-1.8,8.1,1.8,16.4,9,20.5l10.5,6.1c2.3,1.3,3.6,3.9,3.4,6.5l-1.1,12.4
				c0,0.3,0.2,0.6,0.5,0.6h7.1c0.2,0,0.4-0.2,0.5-0.4l4.4-18.7c0.5-1.5,0.3-3.2-0.5-4.5l-15.3-21.6L-194.7-125z"/>
		</g>
	</g>
	<g id="g9245_1_" transform="translate(424.9971,298.6338)">
		<g id="path9247_1_">
			<path class="st4" d="M-258.2-240.4l-6.2,3.6c-2.9,1.7-6.7,0.7-8.4-2.2l-1.4-2.5c-1.7-2.9-0.7-6.7,2.2-8.4l6.2-3.6
				c2.9-1.7,6.7-0.7,8.4,2.2l1.4,2.5C-254.3-245.8-255.3-242.1-258.2-240.4"/>
		</g>
	</g>
	<g id="g9249_1_" transform="translate(405.2217,64.8701)">
		<g id="path9251_1_">
			<path class="st5" d="M-246.2,85.1h-11.7c-1.6,0-3-1.3-3-3c0-1.6,1.3-3,3-3h11.7c1.6,0,3,1.3,3,3
				C-243.3,83.8-244.6,85.1-246.2,85.1"/>
		</g>
	</g>
	<g id="g9253_1_" transform="translate(269.8574,67.0508)">
		<g id="path9255_1_">
			<path class="st5" d="M-164,82.1c-0.7,0-1.4-0.2-1.9-0.7l-9.4-8.3c-1.2-1.1-1.4-2.9-0.3-4.2c1.1-1.2,2.9-1.4,4.2-0.3l9.4,8.3
				c1.2,1.1,1.4,2.9,0.3,4.2C-162.3,81.8-163.1,82.1-164,82.1"/>
		</g>
	</g>
	<g id="g9257_1_" transform="translate(150.7852,305.0132)">
		<g id="path9259_1_">
			<path class="st6" d="M-91.6-249.2l-0.1-0.2c-1.4-1.8-3.8-2.5-5.9-1.8l-43.9,26.3c1,4.6,6,7,10.2,4.9l18.5-9.1l-3,14.8l18.2,2.1
				l8.4-22.8C-87.5-239.8-88.4-245.2-91.6-249.2"/>
		</g>
	</g>
	<g id="g9261_1_" transform="translate(33.8447,231.6992)">
		<g id="path9263_1_">
			<path class="st7" d="M-20.6-147.2l43.9-26.3c1.2-0.4,2.5-0.3,3.6,0.1c-0.5-0.9-1-1.8-1.7-2.6l-0.1-0.2c-1.4-1.8-3.8-2.5-5.9-1.8
				l-43.9,26.3c0.5,2.4,2.2,4.2,4.3,5.1C-20.5-146.7-20.5-146.9-20.6-147.2"/>
		</g>
	</g>
	<g id="g9265_1_" transform="translate(89.0557,215.7949)">
		<g id="path9267_1_">
			<path class="st2" d="M-54.1-125l-5.1,24.5c-0.2,1.2-0.9,2.2-1.8,3l-14.4,12.3c-0.6,0.5-0.6,1.5,0,2l3.7,3.1
				c0.5,0.4,1.3,0.5,1.9,0.2L-52.2-90c1.9-1.1,3.6-2,4.4-3.8l11.8-29.1L-54.1-125z"/>
		</g>
	</g>
	<g id="g9269_1_" transform="translate(89.0557,215.7949)">
		<g id="path9271_1_">
			<path class="st3" d="M-54.1-125l-0.3,1.3c-1.8,8.1,1.8,16.4,9,20.5l10.5,6.1c2.3,1.3,3.6,3.9,3.4,6.5l-1.1,12.4
				c0,0.3,0.2,0.6,0.5,0.6h7.1c0.2,0,0.4-0.2,0.5-0.4l4.4-18.7c0.5-1.5,0.3-3.2-0.5-4.5l-15.3-21.6L-54.1-125z"/>
		</g>
	</g>
	<g id="g9273_1_" transform="translate(193.5732,298.6338)">
		<g id="path9275_1_">
			<path class="st4" d="M-117.6-240.4l-6.2,3.6c-2.9,1.7-6.7,0.7-8.4-2.2l-1.4-2.5c-1.7-2.9-0.7-6.7,2.2-8.4l6.2-3.6
				c2.9-1.7,6.7-0.7,8.4,2.2l1.4,2.5C-113.7-245.8-114.7-242.1-117.6-240.4"/>
		</g>
	</g>
	<g id="g9277_1_" transform="translate(173.7969,64.8701)">
		<g id="path9279_1_">
			<path class="st5" d="M-105.6,85.1h-11.7c-1.6,0-3-1.3-3-3c0-1.6,1.3-3,3-3h11.7c1.6,0,3,1.3,3,3C-102.7,83.8-104,85.1-105.6,85.1
				"/>
		</g>
	</g>
	<g id="g9281_1_" transform="translate(38.4336,67.0508)">
		<g id="path9283_1_">
			<path class="st5" d="M-23.4,82.1c-0.7,0-1.4-0.2-1.9-0.7l-9.4-8.3c-1.2-1.1-1.4-2.9-0.3-4.2c1.1-1.2,2.9-1.4,4.2-0.3l9.4,8.3
				c1.2,1.1,1.4,2.9,0.3,4.2C-21.7,81.8-22.5,82.1-23.4,82.1"/>
		</g>
	</g>
	<g id="g9285_1_" transform="translate(11.7314,236.1357)">
		<g id="path9287_1_">
			<path class="st8" d="M-7.1-153.3l77.9-46.4c1.1-0.7,2.6-0.3,3.3,0.8l23.5,37.3l66.7-38.9c0.4-0.2,0.9-0.1,1.1,0.2l10.8,15.2
				c0.7,0.9,2.1,0.6,2.4-0.5l7.5-40.9c0.1-0.7-0.4-1.4-1.1-1.5l-40.7-5.1c-1.1-0.1-1.9,1.1-1.2,2.1l10.7,14.9c0.3,0.4,0.2,1-0.3,1.3
				l-47,27.9c-0.4,0.2-0.8,0.1-1.1-0.3l-24.9-43.6c-0.8-1.4-2.6-1.7-3.8-0.6l-85.2,76.4C-9.4-154.2-8.3-152.7-7.1-153.3"/>
		</g>
	</g>
	<g id="g9289_1_" transform="translate(486.1572,346.626)">
		<g id="path9291_1_">
			<path class="st9" d="M-295.4-307.2l-10.8-15.2c-0.3-0.4-0.8-0.5-1.1-0.2l-55.4,32.3c-6.3,3.7-14.4,1.7-18.3-4.5l-16.5-26.2
				c-0.7-1.1-2.2-1.5-3.3-0.8l-57.2,34.1l-24.7,22.1c-1,0.9,0.2,2.4,1.3,1.7l77.9-46.4c1.1-0.7,2.6-0.3,3.3,0.8l23.5,37.3l66.7-38.9
				c0.4-0.2,0.9-0.1,1.1,0.2l10.8,15.2c0.7,0.9,2.1,0.6,2.4-0.5l2-10.6C-294.3-306.5-295-306.6-295.4-307.2"/>
		</g>
	</g>
	<g id="g9293_1_" transform="translate(322.2666,224.7227)">
		<g id="path9295_1_">
			<path class="st10" d="M-178.3-128.9c-0.1,0-0.2,0-0.3,0l-18.2-2.1c-0.8-0.1-1.6-0.5-2-1.2c-0.5-0.7-0.7-1.5-0.5-2.3l0.7-3.5
				c0.3-1.6,1.9-2.6,3.5-2.3c1.6,0.3,2.6,1.9,2.3,3.5l-0.1,0.4l12.7,1.5l7.6-20.6c1.4-3.9,0.7-8.2-1.9-11.5l-0.1-0.2
				c-0.6-0.7-1.5-1.1-2.5-0.9l-41.3,24.7c0.4,0.5,0.9,0.8,1.4,1.1c1.2,0.6,2.5,0.6,3.7,0l26-12.7c1.5-0.7,3.2-0.1,3.9,1.3
				c0.7,1.5,0.1,3.2-1.3,3.9l-26,12.7c-2.8,1.4-6.1,1.4-8.9,0c-2.8-1.4-4.8-3.9-5.5-7c-0.3-1.2,0.3-2.5,1.4-3.2l43.9-26.3
				c0.2-0.1,0.4-0.2,0.7-0.3c3.3-1,6.9,0.1,9.1,2.8l0.1,0.2c3.9,4.9,4.9,11.3,2.9,17.1l-8.4,22.8
				C-176-129.7-177.1-128.9-178.3-128.9z"/>
		</g>
	</g>
	<g id="g9297_1_" transform="translate(366.8105,210.4326)">
		<g id="path9299_1_">
			<path class="st10" d="M-257.5-71.5c-1,0-2.1-0.4-2.9-1l-3.7-3.1c-1-0.8-1.5-2-1.5-3.2c0-1.3,0.5-2.4,1.5-3.3l14.4-12.3
				c0.4-0.3,0.7-0.8,0.8-1.3l5.1-24.5c0.3-1.5,1.7-2.5,3.2-2.3l18.2,2.1c1.6,0.2,2.8,1.6,2.6,3.3c-0.2,1.6-1.7,2.8-3.3,2.6
				l-15.5-1.8l-4.5,21.9c-0.4,1.8-1.3,3.4-2.7,4.6l-12.9,11.1l1.5,1.3l17.3-9.9c1.4-0.8,2.3-1.4,2.7-2.1l3.5-8.6
				c0.6-1.5,2.3-2.2,3.8-1.6c1.5,0.6,2.2,2.3,1.6,3.8l-3.5,8.7c0,0,0,0.1-0.1,0.1c-1.2,2.5-3.2,3.7-5.1,4.8l-0.5,0.3l-17.6,10.1
				C-255.9-71.7-256.7-71.5-257.5-71.5z M-256.6-77.1L-256.6-77.1C-256.6-77.1-256.6-77.1-256.6-77.1z M-260.4-77.6L-260.4-77.6
				C-260.4-77.6-260.4-77.6-260.4-77.6z M-260.4-80.1L-260.4-80.1C-260.4-80.1-260.4-80.1-260.4-80.1z"/>
		</g>
	</g>
	<g id="g9301_1_" transform="translate(320.4795,215.7949)">
		<g id="path9303_1_">
			<path class="st10" d="M-165.6-74.7h-7.1c-1,0-1.9-0.4-2.5-1.1c-0.7-0.7-1-1.7-0.9-2.6l1.1-12.4c0.1-1.5-0.6-2.9-1.9-3.7
				l-10.5-6.1c-8.3-4.8-12.5-14.3-10.4-23.7l0.3-1.3c0.3-1.5,1.7-2.4,3.2-2.3l18.2,2.1c0.8,0.1,1.6,0.5,2.1,1.2l15.3,21.6
				c0,0.1,0.1,0.1,0.1,0.2c1.3,2.1,1.6,4.6,0.8,6.9l-4.4,18.6C-162.7-75.8-164-74.7-165.6-74.7z M-170.3-77.9L-170.3-77.9
				C-170.3-77.9-170.3-77.9-170.3-77.9z M-170-80.6h2.5l4-16.9c0-0.1,0.1-0.2,0.1-0.3c0.2-0.7,0.2-1.4-0.2-2l-14.5-20.4l-14.2-1.6
				c-0.9,6.4,2.1,12.7,7.8,16l10.5,6.1c3.3,1.9,5.2,5.6,4.9,9.3L-170-80.6z"/>
		</g>
	</g>
	<g id="g9305_1_" transform="translate(424.9971,298.6338)">
		<g id="path9307_1_">
			<path class="st10" d="M-267.5-233c-3.1,0-6.2-1.6-7.9-4.5l-1.4-2.5c-2.5-4.3-1-9.9,3.3-12.4l6.2-3.6c4.3-2.5,9.9-1,12.4,3.3
				l1.4,2.5c2.5,4.3,1,9.9-3.3,12.4l0,0l-6.2,3.6C-264.4-233.4-266-233-267.5-233z M-262.7-251.3c-0.6,0-1.1,0.1-1.6,0.4l-6.2,3.6
				c-1.5,0.9-2,2.8-1.2,4.4l1.4,2.5c0.4,0.7,1.1,1.3,1.9,1.5c0.8,0.2,1.7,0.1,2.4-0.3l6.2-3.6c1.5-0.9,2-2.8,1.2-4.4l-1.4-2.5
				c-0.4-0.7-1.1-1.3-1.9-1.5C-262.2-251.3-262.5-251.3-262.7-251.3z M-258.2-240.4L-258.2-240.4L-258.2-240.4z"/>
		</g>
	</g>
	<g id="g9309_1_" transform="translate(375.3477,72.4033)">
		<g id="path9311_1_">
			<path class="st10" d="M-216.3,77.6h-11.7c-1.6,0-2.9-1.3-2.9-2.9s1.3-2.9,2.9-2.9h11.7c1.6,0,2.9,1.3,2.9,2.9
				S-214.7,77.6-216.3,77.6z"/>
		</g>
	</g>
	<g id="g9313_1_" transform="translate(245.79,95.6475)">
		<g id="path9315_1_">
			<path class="st10" d="M-139.9,53.5c-0.7,0-1.4-0.2-1.9-0.7l-9.4-8.3c-1.2-1.1-1.3-2.9-0.3-4.2c1.1-1.2,2.9-1.3,4.2-0.3l9.4,8.3
				c1.2,1.1,1.3,2.9,0.3,4.2C-138.3,53.1-139.1,53.5-139.9,53.5z"/>
		</g>
	</g>
	<g id="g9317_1_" transform="translate(96.626,253.6211)">
		<g id="path9319_1_">
			<path class="st10" d="M-43.5-157.8c-0.1,0-0.2,0-0.3,0l-18.2-2.1c-0.8-0.1-1.6-0.5-2-1.2c-0.5-0.7-0.7-1.5-0.5-2.3l1.8-9
				l-13.2,6.4c-2.8,1.4-6.1,1.4-8.9,0c-2.8-1.4-4.8-3.9-5.5-7c-0.3-1.2,0.3-2.5,1.4-3.2l43.9-26.3c0.2-0.1,0.4-0.2,0.7-0.3
				c3.3-1,6.9,0.1,9.1,2.8l0.1,0.1c3.9,4.9,4.9,11.3,2.9,17.1l-8.5,22.8C-41.2-158.6-42.3-157.8-43.5-157.8z M-58.2-165.4l12.7,1.5
				l7.6-20.6c1.4-3.9,0.7-8.2-1.9-11.5l-0.1-0.2c-0.6-0.8-1.5-1.1-2.5-0.9l-41.3,24.7c0.4,0.5,0.9,0.8,1.4,1.1
				c1.2,0.6,2.5,0.6,3.7,0l18.5-9c0,0,0.1,0,0.1-0.1l7.4-3.6c1.5-0.7,3.2-0.1,3.9,1.3c0.7,1.5,0.1,3.2-1.3,3.9l-6.2,3L-58.2-165.4z"
				/>
		</g>
	</g>
	<g id="g9321_1_" transform="translate(48.3262,125.7988)">
		<g id="path9323_1_">
			<path class="st10" d="M-29.8,13.2c-1,0-2.1-0.4-2.9-1L-36.5,9c-1-0.8-1.5-2-1.5-3.2c0-1.3,0.5-2.4,1.5-3.3l5.2-4.5
				c1.2-1.1,3.1-0.9,4.2,0.3c1.1,1.2,0.9,3.1-0.3,4.2l-3.7,3.2l1.5,1.3l17.3-9.9c1.4-0.8,2.3-1.4,2.7-2.1l3.5-8.6
				c0.6-1.5,2.3-2.2,3.8-1.6c1.5,0.6,2.2,2.3,1.6,3.8l-3.5,8.7c0,0,0,0.1-0.1,0.1c-1.2,2.5-3.2,3.7-5.1,4.8l-0.5,0.3l-17.6,10.1
				C-28.2,13-29,13.2-29.8,13.2z M-32.7,7L-32.7,7C-32.7,7-32.7,7-32.7,7z M-32.7,4.5L-32.7,4.5C-32.7,4.5-32.7,4.5-32.7,4.5z"/>
		</g>
	</g>
	<g id="g9325_1_" transform="translate(135.3848,210.4326)">
		<g id="path9327_1_">
			<path class="st10" d="M-107.3-89.3c-0.8,0-1.7-0.4-2.2-1c-1.1-1.2-0.9-3.1,0.3-4.1c0.4-0.3,0.7-0.8,0.8-1.3l5.1-24.5
				c0.3-1.5,1.7-2.5,3.2-2.3l18.2,2.1c1.6,0.2,2.8,1.6,2.6,3.3c-0.2,1.6-1.7,2.8-3.3,2.6l-15.5-1.8l-4.5,21.9
				c-0.4,1.8-1.3,3.4-2.7,4.6C-105.9-89.5-106.6-89.3-107.3-89.3z"/>
		</g>
	</g>
	<g id="g9329_1_" transform="translate(89.0557,215.7949)">
		<g id="path9331_1_">
			<path class="st10" d="M-25-74.7h-7.1c-1,0-1.9-0.4-2.5-1.1c-0.7-0.7-1-1.7-0.9-2.6l1.1-12.5c0.1-1.5-0.6-2.9-1.9-3.7l-10.5-6.1
				c-8.4-4.8-12.5-14.3-10.4-23.7l0.3-1.3c0.3-1.5,1.7-2.4,3.2-2.3l18.2,2.1c0.8,0.1,1.6,0.5,2.1,1.2l15.3,21.6
				c0,0.1,0.1,0.1,0.1,0.2c1.3,2.1,1.6,4.6,0.8,6.9l-4.4,18.6C-22-75.8-23.4-74.7-25-74.7z M-29.4-80.6h2.5l4-16.9
				c0-0.1,0.1-0.2,0.1-0.3c0.2-0.7,0.2-1.4-0.2-2l-14.5-20.4l-14.2-1.6c-0.9,6.4,2.1,12.7,7.8,16l10.5,6.1c3.3,1.9,5.2,5.6,4.9,9.3
				L-29.4-80.6z"/>
		</g>
	</g>
	<g id="g9333_1_" transform="translate(193.5732,298.6338)">
		<g id="path9335_1_">
			<path class="st10" d="M-126.9-233c-3.1,0-6.2-1.6-7.9-4.5l-1.4-2.5c-2.5-4.3-1-9.9,3.3-12.4l6.2-3.6c2.1-1.2,4.5-1.5,6.9-0.9
				c2.3,0.6,4.3,2.1,5.5,4.2l1.4,2.5c1.2,2.1,1.5,4.5,0.9,6.9c-0.6,2.3-2.1,4.3-4.2,5.5l0,0l-6.2,3.6
				C-123.8-233.4-125.4-233-126.9-233z M-122.1-251.3c-0.6,0-1.1,0.1-1.6,0.4l-6.2,3.6c-1.5,0.9-2,2.8-1.2,4.4l1.4,2.5
				c0.4,0.7,1.1,1.3,1.9,1.5c0.8,0.2,1.7,0.1,2.4-0.3l6.2-3.6c1.5-0.9,2-2.8,1.2-4.4l-1.4-2.5c-0.4-0.7-1.1-1.3-1.9-1.5
				C-121.6-251.3-121.8-251.3-122.1-251.3z M-117.6-240.4L-117.6-240.4L-117.6-240.4z"/>
		</g>
	</g>
	<g id="g9337_1_" transform="translate(143.9229,72.4033)">
		<g id="path9339_1_">
			<path class="st10" d="M-75.7,77.6h-11.7c-1.6,0-2.9-1.3-2.9-2.9s1.3-2.9,2.9-2.9h11.7c1.6,0,2.9,1.3,2.9,2.9
				S-74.1,77.6-75.7,77.6z"/>
		</g>
	</g>
	<g id="g9341_1_" transform="translate(14.3662,95.6475)">
		<g id="path9343_1_">
			<path class="st10" d="M0.7,53.5c-0.7,0-1.4-0.2-1.9-0.7l-9.4-8.3c-1.2-1.1-1.3-2.9-0.3-4.2c1.1-1.2,2.9-1.3,4.2-0.3l9.4,8.3
				c1.2,1.1,1.3,2.9,0.3,4.2C2.3,53.1,1.5,53.5,0.7,53.5z"/>
		</g>
	</g>
	<g id="g9345_1_" transform="translate(96.9404,319.9438)">
		<g id="path9347_1_">
			<path class="st10" d="M-92.9-234c-1.2,0-2.5-0.6-3.2-1.6c-1.2-1.7-1-4,0.6-5.4l34.7-31.1c1.2-1.1,3.1-1,4.2,0.2
				c1.1,1.2,1,3.1-0.2,4.2l-20.5,18.4l61.5-36.7c2.5-1.5,5.8-0.7,7.3,1.8l22,34.9l64.3-37.5c1.7-1,3.9-0.5,5,1.1l8.6,12.1l6.5-35.4
				l-35.3-4.4l8.5,11.9c0.6,0.9,0.9,2,0.6,3s-0.9,2-1.8,2.5l-47,27.9c-0.9,0.5-1.9,0.7-2.8,0.4c-1-0.3-1.8-0.9-2.3-1.7l-24.7-43.1
				l-41.8,37.5c-1.2,1.1-3.1,1-4.2-0.2c-1.1-1.2-1-3.1,0.2-4.2l42.2-37.9c1.2-1.1,2.9-1.6,4.5-1.3c1.6,0.3,3,1.2,3.9,2.7l23.8,41.6
				l43.1-25.6l-9.4-13.1c-1-1.4-1.1-3.2-0.2-4.7c0.9-1.5,2.5-2.3,4.2-2l40.7,5.1c1.2,0.1,2.2,0.8,2.9,1.7c0.7,0.9,1,2.1,0.7,3.3
				l-7.5,40.9c-0.3,1.7-1.6,3-3.3,3.4c-1.7,0.4-3.4-0.3-4.4-1.7L79-280.9L13.9-243c-1.4,0.8-3.1,0.4-4-1l-23.3-36.9l-77.5,46.2
				C-91.5-234.2-92.2-234-92.9-234z"/>
		</g>
	</g>
</g>
</svg>
