<?xml version="1.0" encoding="utf-8"?>
<!-- Generator: Adobe Illustrator 25.0.0, SVG Export Plug-In . SVG Version: 6.00 Build 0)  -->
<svg version="1.1" id="Layer_1" xmlns="http://www.w3.org/2000/svg" xmlns:xlink="http://www.w3.org/1999/xlink" x="0px" y="0px"
	 viewBox="0 0 153.5 150" style="enable-background:new 0 0 153.5 150;" xml:space="preserve">
<style type="text/css">
	.st0{fill:#FECBAA;}
	.st1{fill:#FDD559;}
	.st2{fill:#FF84A7;}
	.st3{fill:#FEDFC5;}
	.st4{fill:#FFAE85;}
	.st5{fill:#83D9FF;}
	.st6{fill:#35414D;}
</style>
<g>
	<g>
		<path class="st0" d="M91.4,121.6L57.7,88c-2.1-2.1-2.1-5.5,0-7.6c0.8-0.8,1.9-1.3,3-1.5c1.6-0.3,3.4,0.2,4.7,1.5l-8.7-8.7
			c-1.1-1.1-1.6-2.4-1.6-3.8c0-0.3,0-0.6,0.1-0.9c0.2-1.1,0.7-2.1,1.5-3c0.8-0.8,1.8-1.3,2.9-1.5c1.5-0.2,3,0.1,4.2,1.1l-3.3-3.3
			c-1.1-1.1-1.6-2.4-1.6-3.8c0-0.3,0-0.6,0.1-0.9c0.2-1.1,0.7-2.1,1.5-2.9c0.8-0.8,1.9-1.3,3-1.5c1.6-0.3,3.4,0.2,4.7,1.5l3.8,3.8
			c-1.3-1.3-1.8-3-1.5-4.7c0.2-1.1,0.7-2.1,1.5-3c2.1-2.1,5.5-2.1,7.6,0l21.9,21.9l0.1-0.1c1.1-1.1,2.4-1.9,3.8-2.4
			c3.4-1.2,7.4-0.4,10.1,2.4l10.2,10.2c2,2,3.1,4.6,3.1,7.4l0,6.4c0,3,1.2,5.8,3.3,7.9l2.3,2.3l-26,26l-2.9-2.9
			c-1.9-1.9-4.5-3.1-7.2-3.3C95.5,124.5,93.1,123.4,91.4,121.6z"/>
	</g>
	<g>
		<path class="st1" d="M106.5,132.5L136,103c1-1,2.5-1,3.5,0l10.5,10.5c1,1,1,2.5,0,3.5l-29.5,29.5c-1,1-2.5,1-3.5,0L106.5,136
			C105.5,135.1,105.5,133.5,106.5,132.5z"/>
	</g>
	<g>
		<path class="st0" d="M62.1,121.6L95.8,88c2.1-2.1,2.1-5.5,0-7.6c-0.8-0.8-1.9-1.3-3-1.5c-1.6-0.3-3.4,0.2-4.7,1.5l8.7-8.7
			c1.1-1.1,1.6-2.4,1.6-3.8c0-0.3,0-0.6-0.1-0.9c-0.2-1.1-0.7-2.1-1.5-3c-0.8-0.8-1.8-1.3-2.9-1.5c-1.5-0.2-3,0.1-4.2,1.1l3.3-3.3
			c1.1-1.1,1.6-2.4,1.6-3.8c0-0.3,0-0.6-0.1-0.9c-0.2-1.1-0.7-2.1-1.5-2.9c-0.8-0.8-1.9-1.3-3-1.5c-1.6-0.3-3.4,0.2-4.7,1.5
			l-3.8,3.8c1.3-1.3,1.8-3,1.5-4.7c-0.2-1.1-0.7-2.1-1.5-3c-2.1-2.1-5.5-2.1-7.6,0L52.1,70.7l-0.1-0.1c-1.1-1.1-2.4-1.9-3.8-2.4
			c-3.4-1.2-7.4-0.4-10.1,2.4L27.9,80.8c-2,2-3.1,4.6-3.1,7.4l0,6.4c0,3-1.2,5.8-3.3,7.9l-2.3,2.3l26,26l2.9-2.9
			c1.9-1.9,4.5-3.1,7.2-3.3C58,124.5,60.3,123.4,62.1,121.6z"/>
	</g>
	<g>
		<path class="st2" d="M47,132.5L17.5,103c-1-1-2.5-1-3.5,0L3.5,113.5c-1,1-1,2.5,0,3.5L33,146.5c1,1,2.5,1,3.5,0L47,136
			C48,135.1,48,133.5,47,132.5z"/>
	</g>
	<g>
		<path class="st3" d="M98.3,41v47.6c0,3-2.4,5.4-5.4,5.4c-1.2,0-2.3-0.4-3.2-1c-1.4-1-2.2-2.6-2.2-4.4v12.2c0,1.5-0.6,2.8-1.6,3.8
			c-0.2,0.2-0.4,0.4-0.7,0.6c-0.9,0.6-2,1-3.2,1c-1.2,0-2.2-0.4-3.1-1c-1.2-0.9-2-2.2-2.2-3.7v4.7c0,1.5-0.6,2.8-1.6,3.8
			c-0.2,0.2-0.4,0.4-0.7,0.6c-0.9,0.6-2,1-3.1,1c-1.2,0-2.3-0.4-3.2-1c-1.4-1-2.2-2.6-2.2-4.4v-5.3c0,1.8-0.9,3.4-2.2,4.4
			c-0.9,0.6-2,1-3.2,1c-3,0-5.4-2.4-5.4-5.4V69.9l-0.1,0c-1.6,0-3-0.4-4.4-1c-3.2-1.6-5.5-5-5.5-8.8V45.6c0-2.8,1.1-5.4,3.1-7.4
			l4.5-4.5c2.1-2.1,3.3-5,3.3-8v-3.2h36.8v4.1c0,2.7,1,5.4,2.8,7.4C97.3,36,98.3,38.5,98.3,41z"/>
	</g>
	<g>
		<path class="st4" d="M95.8,80.3c-0.8-0.8-1.9-1.3-3-1.5c-1.6-0.3-3.4,0.2-4.7,1.5l8.7-8.7c1.1-1.1,1.6-2.4,1.6-3.8
			c0-0.3,0-0.6-0.1-0.9c-0.2-1.1-0.7-2.1-1.5-3c-0.8-0.8-1.8-1.3-2.9-1.5c-1.5-0.2-3,0.1-4.2,1.1l3.3-3.3c1.1-1.1,1.6-2.4,1.6-3.8
			c0-0.3,0-0.6-0.1-0.9c-0.2-1.1-0.7-2.1-1.5-2.9c-0.8-0.8-1.9-1.3-3-1.5c-1.6-0.3-3.4,0.2-4.7,1.5l-3.8,3.8c1.3-1.3,1.8-3,1.5-4.7
			c-0.2-1.1-0.7-2.1-1.5-3c-2.1-2.1-5.5-2.1-7.6,0L52.1,70.7l-0.1-0.1c-1.1-1.1-2.4-1.9-3.8-2.4c-1.6-0.6-3.4-0.7-5.1-0.3
			c1.4,2.1,3.3,3.8,5.6,4.9c0.6,0.3,1.3,0.6,2,0.8v27.1c0,5.4,4.4,9.9,9.9,9.9c0.7,0,1.3-0.1,1.9-0.2c0.7,1.4,1.7,2.7,3.1,3.6
			c0.8,0.6,1.7,1.1,2.6,1.4L95.8,88C97.9,85.9,97.9,82.4,95.8,80.3z"/>
	</g>
	<g>
		<path class="st4" d="M102.7,88.6v-19c-0.5,0.3-0.9,0.7-1.3,1.1l-0.1,0.1L79.5,48.9c-2.1-2.1-5.5-2.1-7.6,0c-0.8,0.8-1.3,1.9-1.5,3
			c-0.3,1.6,0.2,3.4,1.5,4.7l-3.8-3.8c-1.3-1.3-3-1.8-4.7-1.5c-1.1,0.2-2.1,0.7-3,1.5c-0.8,0.8-1.3,1.9-1.5,2.9
			c0,0.3-0.1,0.6-0.1,0.9c0,1.4,0.5,2.8,1.6,3.8l3.3,3.3c-1.2-0.9-2.7-1.3-4.2-1.1c-1.1,0.2-2.1,0.7-2.9,1.5c-0.8,0.8-1.3,1.9-1.5,3
			c0,0.3-0.1,0.6-0.1,0.9c0,1.4,0.5,2.8,1.6,3.8l8.7,8.7c-1.3-1.3-3-1.8-4.7-1.5c-1.1,0.2-2.1,0.7-3,1.5c-2.1,2.1-2.1,5.5,0,7.6
			l22.5,22.5c0.6,0.1,1.2,0.2,1.9,0.2c2.1,0,4.1-0.6,5.8-1.9c0.4-0.3,0.8-0.7,1.2-1c1.9-1.9,2.9-4.3,2.9-7v-2.4c0.3,0,0.6,0,0.9,0
			C98.3,98.4,102.7,94,102.7,88.6z"/>
	</g>
	<g>
		<path class="st3" d="M98.3,41v47.6c0,3-2.4,5.4-5.4,5.4c-0.1,0-0.2,0-0.3,0c-1.1-0.1-2.1-0.4-2.9-1c0,0,0,0,0,0
			c-1.4-1-2.2-2.6-2.2-4.4v12.2c0,1.5-0.6,2.8-1.6,3.8c-0.2,0.2-0.4,0.4-0.7,0.6c-0.9,0.6-2,1-3.2,1c-1.2,0-2.2-0.4-3.1-1
			c-1.2-0.9-2-2.2-2.2-3.7v4.7c0,1.5-0.6,2.8-1.6,3.8c-0.2,0.2-0.4,0.4-0.7,0.6c-0.9,0.6-2,1-3.1,1c-1.2,0-2.3-0.4-3.2-1
			c-1.4-1-2.2-2.6-2.2-4.4v-5.3c0,1.8-0.9,3.4-2.2,4.4c-0.9,0.6-2,1-3.2,1c-3,0-5.4-2.4-5.4-5.4V69.9l-0.1,0c-1.6,0-3-0.4-4.4-1
			c-3.2-1.6-5.5-5-5.5-8.8V45.6c0-2.8,1.1-5.4,3.1-7.4l4.5-4.5c1.3-1.3,2.3-2.9,2.8-4.6c0.3-1.1,0.5-2.2,0.5-3.3v-3.2h36.8v4.1
			c0,0.9,0.1,1.9,0.4,2.8c0.4,1.7,1.3,3.3,2.4,4.6C97.3,36,98.3,38.5,98.3,41z"/>
	</g>
	<g>
		<path class="st0" d="M98.3,41v47.6c0,3-2.4,5.4-5.4,5.4c-0.1,0-0.2,0-0.3,0c-1.1-0.1-2.1-0.4-2.9-1l0.1-45.8
			c0-0.3-0.1-0.7-0.2-1.3c-2.1-10-10.5-16.7-20.7-16.7H55.6c0.3-1.1,0.5-2.2,0.5-3.3v-3.2h36.8v4.1c0,0.9,0.1,1.9,0.4,2.8
			c0.4,1.7,1.3,3.3,2.4,4.6C97.3,36,98.3,38.5,98.3,41z"/>
	</g>
	<g>
		<path class="st5" d="M95.3,22.6H53.5c-1.4,0-2.5-1.1-2.5-2.5V5.2c0-1.4,1.1-2.5,2.5-2.5h41.7c1.4,0,2.5,1.1,2.5,2.5v14.9
			C97.8,21.5,96.6,22.6,95.3,22.6z"/>
	</g>
	<g>
		<path class="st6" d="M63.7,133.6L63.7,133.6l-0.4-0.1c0,0,0,0-0.1,0l-0.5-0.1l0,0c-0.6,0-1.1,0.1-1.6,0.5c-0.6,0.4-1,1-1.2,1.7
			c-0.1,0.7,0,1.4,0.4,2c0.4,0.6,1,1,1.7,1.1l0.1,0c0.2,0,0.3,0,0.5,0c1.3,0,2.4-0.9,2.7-2.2c0.1-0.7,0-1.4-0.4-2
			C64.7,134.1,64.2,133.7,63.7,133.6z"/>
		<path class="st6" d="M80.7,134.1L80.7,134.1l-0.4,0c0,0,0,0,0,0l-0.5,0.1l0,0c-0.5,0.2-1,0.5-1.4,0.9c-0.5,0.6-0.7,1.3-0.6,2
			c0.1,1.4,1.3,2.5,2.7,2.5c0.1,0,0.2,0,0.4,0c1.5-0.2,2.6-1.5,2.4-3C83,135.2,82,134.2,80.7,134.1z"/>
		<path class="st6" d="M71.7,134.4l0,0.5c0,0,0,0,0,0v0L71.7,134.4c-0.8,0-1.5,0.2-2,0.7c-0.5,0.5-0.8,1.2-0.9,1.9
			c-0.1,1.5,1.1,2.8,2.6,2.9l0.1,0c1.5,0,2.7-1.1,2.7-2.6c0-0.7-0.2-1.4-0.7-2C73.1,134.8,72.4,134.4,71.7,134.4z"/>
		<path class="st6" d="M55.1,131.2L55.1,131.2c-1.4-0.5-3,0.2-3.5,1.6c-0.2,0.7-0.2,1.4,0.1,2.1c0.3,0.7,0.9,1.2,1.6,1.4
			c0.3,0.1,0.6,0.2,0.9,0.2c1.1,0,2.2-0.7,2.6-1.8c0.2-0.7,0.2-1.4-0.1-2.1C56.3,131.9,55.8,131.4,55.1,131.2z"/>
		<path class="st6" d="M89,132.5L89,132.5l-0.4,0.1c0,0,0,0,0,0l-0.5,0.1l0,0c-0.5,0.2-0.9,0.6-1.2,1.1c-0.4,0.6-0.5,1.4-0.3,2.1
			c0.3,1.2,1.4,2.1,2.6,2.1c0.2,0,0.5,0,0.7-0.1c1.4-0.4,2.3-1.9,1.9-3.3C91.5,133.2,90.3,132.4,89,132.5z"/>
		<path class="st6" d="M97,129.6L97,129.6l-0.5,0.2c0,0,0,0-0.1,0l-0.4,0.2l0,0c-1.1,0.7-1.5,2.1-1,3.4c0.4,1,1.4,1.6,2.5,1.6
			c0.4,0,0.7-0.1,1.1-0.3c1.4-0.6,2-2.2,1.4-3.6C99.6,130,98.3,129.3,97,129.6z"/>
		<path class="st6" d="M46.4,28.9c0.4,0,0.9-0.1,1.3-0.3c1.3-0.7,1.8-2.4,1.1-3.7c-0.7-1.3-2.4-1.8-3.7-1.1
			c-1.3,0.7-1.8,2.4-1.1,3.7C44.4,28.4,45.4,28.9,46.4,28.9z"/>
		<path class="st6" d="M20.3,53.8L20.3,53.8c0.4,0.2,0.8,0.3,1.3,0.3c1,0,1.9-0.6,2.4-1.5l0-0.1c0.3-0.7,0.4-1.4,0.1-2.1
			c-0.2-0.7-0.7-1.2-1.4-1.6c-1.3-0.7-3-0.1-3.6,1.2C18.5,51.4,19,53.1,20.3,53.8z"/>
		<path class="st6" d="M17.2,62.2c0.3,0.1,0.6,0.1,0.9,0.1c1.2,0,2.2-0.7,2.6-1.9l0-0.1c0.2-0.7,0.1-1.4-0.2-2.1
			c-0.3-0.6-0.9-1.1-1.6-1.3c-1.4-0.4-3,0.4-3.4,1.8C15,60.2,15.8,61.8,17.2,62.2z"/>
		<path class="st6" d="M24.6,45.9c0.5,0.3,1,0.5,1.6,0.5c0.9,0,1.7-0.4,2.2-1.2c0.9-1.2,0.6-2.9-0.6-3.8c-1.1-0.8-2.6-0.6-3.5,0.3
			l0,0l-0.3,0.4c0,0,0,0,0,0l-0.3,0.4l0,0C23.2,43.7,23.6,45.2,24.6,45.9z"/>
		<path class="st6" d="M38.8,33.7c0.6,0,1.2-0.2,1.6-0.6c1.2-0.9,1.5-2.6,0.6-3.8c-0.9-1.2-2.6-1.5-3.9-0.5
			c-1.2,0.9-1.4,2.6-0.5,3.8C37.1,33.3,37.9,33.7,38.8,33.7z"/>
		<path class="st6" d="M14.9,95.8c0.4,1.1,1.4,1.9,2.6,1.9c0.3,0,0.5,0,0.8-0.1c1.4-0.4,2.2-2,1.8-3.4c-0.4-1.4-1.9-2.3-3.3-1.9
			c-0.7,0.2-1.3,0.6-1.7,1.3c-0.4,0.6-0.5,1.4-0.3,2.1L14.9,95.8z"/>
		<path class="st6" d="M32,39.6c0.7,0,1.4-0.3,2-0.8c1.1-1.1,1.1-2.8,0-3.9c-1.1-1.1-2.8-1.1-3.9,0c-0.5,0.5-0.8,1.2-0.8,1.9
			c0,0.7,0.3,1.4,0.8,1.9C30.6,39.3,31.3,39.6,32,39.6z"/>
		<path class="st6" d="M16,88.9c1.5-0.2,2.5-1.6,2.3-3.1c-0.2-1.5-1.6-2.5-3-2.4c-1.5,0.2-2.6,1.5-2.4,3l0,0.1
			c0.2,1.3,1.4,2.3,2.7,2.3C15.8,88.9,15.9,88.9,16,88.9z"/>
		<path class="st6" d="M15,80L15,80c1.6,0,2.8-1.2,2.8-2.7l0-0.1c0-1.5-1.2-2.7-2.7-2.7c-1.5,0-2.7,1.2-2.7,2.7
			C12.4,78.7,13.5,80,15,80z"/>
		<path class="st6" d="M15.5,71L15.5,71c0.2,0,0.3,0,0.5,0c1.3,0,2.5-0.9,2.7-2.3l0-0.1c0.1-0.7-0.1-1.4-0.5-2
			c-0.4-0.6-1.1-1-1.8-1.1c-1.5-0.2-2.9,0.8-3.1,2.3C13,69.4,14,70.8,15.5,71z"/>
		<path class="st6" d="M120.5,46.5c0.5,0.7,1.3,1.2,2.2,1.2c0.6,0,1.1-0.2,1.5-0.5c1.1-0.8,1.5-2.2,0.9-3.4l0,0l-0.2-0.3
			c0,0,0,0,0-0.1l-0.3-0.4l0,0c-0.4-0.4-0.9-0.7-1.4-0.8c-0.7-0.1-1.4,0-2,0.4c-0.6,0.4-1,1-1.1,1.7
			C119.9,45.2,120.1,45.9,120.5,46.5L120.5,46.5z M120.9,46.2L120.9,46.2L120.9,46.2L120.9,46.2z"/>
		<path class="st6" d="M132.3,68.2c-0.7,0.1-1.4,0.4-1.8,1c-0.5,0.6-0.7,1.3-0.6,2l0,0.1c0.2,1.3,1.4,2.3,2.7,2.3c0.1,0,0.3,0,0.4,0
			c1.5-0.2,2.5-1.6,2.3-3C135.1,69.1,133.8,68.1,132.3,68.2z"/>
		<path class="st6" d="M128.1,62.6L128.1,62.6c0.3,1.2,1.4,2,2.6,2c0.3,0,0.5,0,0.8-0.1c1.4-0.4,2.3-1.9,1.8-3.4
			c-0.2-0.7-0.7-1.3-1.3-1.6c-0.6-0.3-1.4-0.4-2.1-0.2C128.5,59.6,127.7,61.1,128.1,62.6z"/>
		<path class="st6" d="M124.8,52.1c-0.2,0.7-0.2,1.4,0.1,2.1l0,0.1c0.5,0.9,1.4,1.5,2.5,1.5c0.4,0,0.8-0.1,1.2-0.3
			c1.2-0.6,1.8-1.9,1.4-3.2l0,0l-0.2-0.3c0,0,0-0.1-0.1-0.1l-0.2-0.4l0,0c-0.3-0.5-0.8-0.8-1.3-1c-0.7-0.2-1.4-0.2-2.1,0.1
			C125.6,50.9,125.1,51.4,124.8,52.1z"/>
		<path class="st6" d="M114.9,39.6c0.5,0.5,1.2,0.8,1.9,0.8c0.7,0,1.4-0.3,1.9-0.8c1.1-1,1.1-2.8,0.1-3.8c-1-1.1-2.8-1.2-3.9-0.1
			C113.9,36.7,113.8,38.4,114.9,39.6L114.9,39.6z M115.3,39.3L115.3,39.3L115.3,39.3L115.3,39.3z"/>
		<path class="st6" d="M133.1,77.6L133.1,77.6C133,77.6,133,77.6,133.1,77.6c-1.5,0-2.8,1.2-2.8,2.6c-0.1,1.5,1.1,2.8,2.6,2.9
			c0.1,0,0.1,0,0.2,0c1.4,0,2.6-1.1,2.7-2.6l0-0.1C135.8,78.9,134.6,77.6,133.1,77.6z"/>
		<path class="st6" d="M99.7,25c-0.4,0.6-0.4,1.4-0.2,2.1c0.2,0.7,0.7,1.3,1.3,1.6l0.1,0c0.4,0.2,0.8,0.3,1.3,0.3
			c1,0,1.9-0.6,2.4-1.4c0.6-1.2,0.3-2.6-0.7-3.4l0,0l-0.4-0.2c0,0,0,0-0.1,0l-0.4-0.2l0,0C101.7,23.3,100.3,23.9,99.7,25z"/>
		<path class="st6" d="M108.3,33.6L108.3,33.6c0.5,0.4,1.1,0.6,1.7,0.6c0.9,0,1.7-0.4,2.2-1.1c0.4-0.6,0.6-1.3,0.5-2
			s-0.5-1.4-1.1-1.8c-1.2-0.9-2.9-0.7-3.8,0.5c-0.4,0.6-0.6,1.3-0.5,2S107.7,33.2,108.3,33.6z"/>
		<path class="st6" d="M152,111.5L141.5,101c-1-1-2.3-1.5-3.7-1.5c-1.3,0-2.6,0.5-3.6,1.4l-0.3-0.3c-0.8-0.8-1.4-1.7-1.8-2.7
			c0-0.2-0.1-0.3-0.2-0.4c-0.3-0.9-0.5-1.9-0.5-2.9v-2.3c0,0,0.1,0,0.1,0c1.5,0.3,2.9-0.8,3.1-2.2c0.3-1.5-0.7-2.9-2.1-3.2
			c-0.4-0.1-0.8-0.1-1.1,0c-0.3-3-1.6-5.9-3.8-8.1l-10.2-10.2c-2.4-2.4-5.5-3.7-8.9-3.7c-2.4,0-4.8,0.7-6.8,2l-0.6-0.6V41
			c0-3.2-1.2-6.3-3.3-8.7c-1.4-1.6-2.1-3.6-2.1-5.6v-1.4c2.7-0.2,4.9-2.4,4.9-5.2V5.2c0-2.9-2.3-5.2-5.2-5.2H53.5
			c-2.9,0-5.2,2.3-5.2,5.2v14.9c0,2.8,2.3,5.1,5.1,5.2v0.5c0,2.3-0.9,4.4-2.5,6l-4.5,4.5c-2.5,2.5-3.9,5.8-3.9,9.3V60
			c0,1.7,0.4,3.4,1,5c-2.8,0.3-5.4,1.6-7.4,3.6L26,78.9c-2.5,2.5-3.9,5.8-3.9,9.3v6.4c0,2.3-0.9,4.4-2.5,6l-0.3,0.3
			c-1-0.9-2.2-1.4-3.6-1.4c-1.4,0-2.7,0.5-3.7,1.5L1.5,111.5c-2,2-2,5.3,0,7.4l3.6,3.6c0.5,0.5,1.2,0.8,1.9,0.8c0,0,0,0,0,0
			c0.7,0,1.4-0.3,1.9-0.8c1.1-1.1,1.1-2.8,0-3.9l-3.4-3.4l10.1-10.2l29.2,29.2l-10.1,10.2L15.3,125c-1.1-1.1-2.8-1.1-3.9,0
			c-1.1,1.1-1.1,2.8,0,3.9L31,148.5c1,1,2.3,1.5,3.7,1.5c1.4,0,2.7-0.5,3.7-1.5L48.9,138c2-2,2-5.1,0.2-7.1l1-1
			c1.5-1.5,3.4-2.3,5.5-2.5c3.2-0.2,6.2-1.6,8.5-3.8l9.5-9.6c2.7-0.8,4.8-2.9,5.6-5.6c0.9,0.4,1.9,0.5,2.9,0.5
			c4.5,0,8.1-3.6,8.1-8.1v-4.6c0.9,0.3,1.7,0.4,2.7,0.4c4.5,0,8.1-3.6,8.1-8.1V74.1l6,6.1c1,1,2.8,1,3.9,0c1.1-1.1,1.1-2.8,0-3.9
			l-5.2-5.3c0.9-0.4,1.8-0.6,2.8-0.6c1.9,0,3.7,0.7,5,2.1l10.2,10.2c1.5,1.5,2.3,3.4,2.3,5.5v6.4c0,3.7,1.5,7.2,4.1,9.9l0.3,0.3
			L108.2,127l-1-1c-2.4-2.4-5.6-3.8-9-4.1c-1.9-0.1-3.6-0.9-4.9-2.2l-7.3-7.3c-1.1-1.1-2.8-1.1-3.9,0c-0.5,0.5-0.8,1.2-0.8,1.9
			c0,0.7,0.3,1.4,0.8,1.9l7.3,7.3c2.3,2.3,5.3,3.6,8.5,3.8c2.1,0.1,4,1,5.5,2.5l0.1,0.1c0.1,0.1,0.1,0.2,0.2,0.2l0.7,0.7
			c-1.8,2-1.7,5.2,0.2,7.1l10.5,10.5c1,1,2.3,1.5,3.7,1.5c1.4,0,2.7-0.5,3.7-1.5l29.5-29.6C154,116.9,154,113.6,152,111.5z
			 M118.8,144.4l-10.1-10.2l29.2-29.2l10.1,10.2L118.8,144.4z M87.5,60.9c-1.5,0-2.7,1.2-2.7,2.7v37.2c0,1.5-1.2,2.7-2.7,2.7
			c-1.3,0-2.4-0.9-2.6-2.1V63.6c0-1.5-1.2-2.7-2.7-2.7c-0.5,0-0.9,0.1-1.3,0.3c-0.9,0.5-1.4,1.4-1.4,2.4v37.2c0,0.3,0,0.6,0,0.8v4.5
			c0,1.5-1.2,2.7-2.7,2.7c-1.5,0-2.7-1.2-2.7-2.7V63.6c0-1.5-1.2-2.7-2.7-2.7c-1.5,0-2.7,1.2-2.7,2.7v37.2c0,1.5-1.2,2.7-2.7,2.7
			c-1.5,0-2.7-1.2-2.7-2.7V59.3c0-1.5-1.2-2.7-2.7-2.7c-1.5,0-2.7,1.2-2.7,2.7v7.4c0,0-0.1,0-0.1,0C49.8,65.5,48,62.9,48,60V45.6
			c0-2.1,0.8-4,2.3-5.5l4.5-4.5c2.6-2.6,4.1-6.1,4.1-9.9v-0.5h4c1.5,0,2.7-1.2,2.7-2.7c0-1.5-1.2-2.7-2.7-2.7h-9.1V5.5H95v14.4H73.3
			c-1.5,0-2.7,1.2-2.7,2.7c0,1.5,1.2,2.7,2.7,2.7h16.8v1.4c0,3.4,1.2,6.7,3.5,9.2c1.2,1.4,1.9,3.2,1.9,5.1v47.6
			c0,1.5-1.2,2.7-2.7,2.7c-1.5,0-2.7-1.2-2.7-2.7V63.6C90.2,62.1,89,60.9,87.5,60.9z M42.6,76.3c-1.1,1.1-1.1,2.8,0,3.9
			c1,1,2.8,1,3.9,0l6-6v26.7c0,4.5,3.6,8.1,8.1,8.1c1,0,2-0.2,3-0.6c0.5,1.9,1.7,3.5,3.3,4.5l-6.7,6.8h0c-1.3,1.3-3.1,2.1-4.9,2.2
			c-3.4,0.2-6.6,1.7-9,4.1l-1,1l-22.1-22.2l0.3-0.3c2.6-2.6,4.1-6.1,4.1-9.9v-6.4c0-2.1,0.8-4,2.3-5.5L40,72.5
			c1.3-1.3,3.1-2.1,5-2.1c1,0,1.9,0.2,2.8,0.6L42.6,76.3z"/>
		<path class="st6" d="M60.6,9.8c-1.6,0-2.9,1.3-2.9,2.9c0,1.6,1.3,2.9,2.9,2.9c1.6,0,2.9-1.3,2.9-2.9C63.5,11.1,62.2,9.8,60.6,9.8z
			"/>
		<path class="st6" d="M138.5,111.6c-1.6,0-2.9,1.3-2.9,2.9c0,1.6,1.3,2.9,2.9,2.9c1.6,0,2.9-1.3,2.9-2.9
			C141.4,112.9,140.1,111.6,138.5,111.6z"/>
		<path class="st6" d="M38.2,134.9c0-1.6-1.3-2.9-2.9-2.9c-1.6,0-2.9,1.3-2.9,2.9c0,1.6,1.3,2.9,2.9,2.9
			C36.9,137.8,38.2,136.5,38.2,134.9z"/>
	</g>
</g>
</svg>
