<?xml version="1.0" encoding="utf-8"?>
<!-- Generator: Adobe Illustrator 25.0.0, SVG Export Plug-In . SVG Version: 6.00 Build 0)  -->
<svg version="1.1" id="Layer_1" xmlns="http://www.w3.org/2000/svg" xmlns:xlink="http://www.w3.org/1999/xlink" x="0px" y="0px"
	 viewBox="0 0 149.5 150" style="enable-background:new 0 0 149.5 150;" xml:space="preserve">
<style type="text/css">
	.st0{fill-rule:evenodd;clip-rule:evenodd;fill:#DAD0D3;}
	.st1{fill-rule:evenodd;clip-rule:evenodd;fill:#FFDCD5;}
	.st2{fill-rule:evenodd;clip-rule:evenodd;fill:#9D9AE8;}
	.st3{fill-rule:evenodd;clip-rule:evenodd;fill:#FEDFC5;}
	.st4{fill:#35414D;}
</style>
<g>
	<g>
		<path class="st0" d="M112.9,144.8l31.6-31.6c2.7-2.7,2.7-7.1,0-9.7l-5.2-5.2c-2.7-2.7-7.1-2.7-9.7,0l-0.1,0.1l-31.3,31.3l-0.1,0.1
			c-2.7,2.7-2.7,7.1,0,9.7l5.2,5.2c0.5,0.5,1.1,1,1.8,1.3h6.2C111.8,145.7,112.4,145.3,112.9,144.8L112.9,144.8z"/>
		<path class="st1" d="M98.1,129.7l31.3-31.3l-13.7-13.7c-20.5-11.6-37.2,15-32.6,30.1L98.1,129.7z"/>
		<path class="st2" d="M37.8,146.1H44c0.6-0.3,1.2-0.8,1.8-1.3l5.2-5.2c2.7-2.7,2.7-7.1,0-9.7l-0.1-0.1L19.5,98.4l-0.1-0.1
			c-2.7-2.7-7.1-2.7-9.8,0l-5.2,5.2c-2.7,2.7-2.7,7.1,0,9.7l31.6,31.6C36.6,145.3,37.2,145.7,37.8,146.1z"/>
		<path class="st3" d="M88.2,112.2l19.4-19.3l8.2-8.1l2.6-2.6c2.8-2.8,2.8-7.5,0-10.3c-2.8-2.8-7.5-2.8-10.3,0l2.6-2.6
			c2.8-2.8,2.8-7.5,0-10.3c-2.8-2.8-7.5-2.8-10.3,0l2.6-2.6c2.8-2.8,2.8-7.5,0-10.3c-2.8-2.8-7.5-2.8-10.3,0l2.6-2.6
			c2.8-2.8,2.8-7.5,0-10.3c-1.7-1.7-4.1-2.4-6.3-2c-1.5,0.2-2.9,0.9-4,2L74.5,43.5l0.3,0.3l0.1,0.1c2.8,2.8,2.8,7.5,0,10.3
			c-2.8,2.8-7.5,2.8-10.3,0c2.8,2.8,2.8,7.5,0,10.3c-2.8,2.8-7.5,2.8-10.3,0c2.8,2.8,2.8,7.5,0,10.3c-2.8,2.8-7.5,2.8-10.3,0
			c2.8,2.8,2.8,7.5,0,10.3c-2.8,2.8-7.5,2.8-10.3,0l-0.4-0.4L19.5,98.4l31.3,31.3L64,116.6c3.7-3.8,12.4-0.5,19.1-1.9
			C85,114.4,86.8,113.6,88.2,112.2L88.2,112.2z"/>
		<path class="st1" d="M64.6,54.2c2.8,2.8,7.5,2.8,10.3,0c2.8-2.8,2.8-7.5,0-10.3l-0.1-0.1c-4.4-0.3-12.7-7.9-13.2-13.2
			c-2.8-2.8-7.5-2.8-10.3,0c-2.8,2.8-2.8,7.5,0,10.3l2.6,2.6L64.6,54.2z"/>
		<path class="st1" d="M54.3,64.5c2.8,2.8,7.5,2.8,10.3,0c2.8-2.8,2.8-7.5,0-10.3L53.8,43.5c-2.8-2.8-7.5-2.8-10.3,0
			c-2.8,2.8-2.8,7.5,0,10.3l2.6,2.6L54.3,64.5z"/>
		<path class="st1" d="M43.9,74.8c2.8,2.8,7.5,2.8,10.3,0c2.8-2.8,2.8-7.5,0-10.3l-8.1-8.1c-2.8-2.8-7.5-2.8-10.3,0
			c-2.8,2.8-2.8,7.5,0,10.3l5.2,5.2L43.9,74.8z"/>
		<path class="st1" d="M33.6,85.1c2.8,2.8,7.5,2.8,10.3,0c2.8-2.8,2.8-7.5,0-10.3l-3-3c-2.8-2.8-7.5-2.8-10.3,0
			c-2.8,2.8-2.8,7.5,0,10.3l2.6,2.6L33.6,85.1z"/>
		<path class="st1" d="M74.5,43.5l10.3-10.3c1.1-1.1,2.5-1.8,4-2l-19.9-3.8c-3.9-0.7-7.7-0.8-7.3,3.2c0.5,5.3,8.9,12.9,13.2,13.2
			L74.5,43.5z"/>
	</g>
	<path class="st4" d="M74.5,19.1c1.6,0,3-1.3,3-3V3c0-1.6-1.3-3-3-3c-1.6,0-3,1.3-3,3v13.2C71.5,17.7,72.8,19.1,74.5,19.1L74.5,19.1
		z"/>
	<path class="st4" d="M146.6,101.4l-5.2-5.2c-1.9-1.9-4.3-2.9-7-2.9c-1.7,0-3.3,0.4-4.7,1.2l-9.8-9.8l0.5-0.5c4-4,4-10.5,0-14.5
		c-1.4-1.4-3.2-2.4-5.1-2.8c0.3-0.9,0.4-1.9,0.4-2.9c0-2.7-1.1-5.3-3-7.2c-1.4-1.4-3.2-2.4-5.1-2.8c0.3-0.9,0.4-1.9,0.4-2.9
		c0-2.7-1.1-5.3-3-7.2c-1.5-1.5-3.2-2.4-5.1-2.8c1-3.5,0.1-7.4-2.6-10.1c-2.3-2.3-5.4-3.2-8.3-2.9l-19.5-3.7c-3-0.6-6.7-0.9-9,1.2
		c-0.1,0.1-0.3,0.3-0.4,0.5c-3.6-1.3-7.9-0.5-10.8,2.4c-1.9,1.9-3,4.5-3,7.2c0,1,0.1,2,0.4,2.9c-1.9,0.4-3.7,1.3-5.1,2.8
		c-1.9,1.9-3,4.5-3,7.2c0,1,0.1,2,0.4,2.9c-1.9,0.4-3.7,1.3-5.1,2.8c-1.9,1.9-3,4.5-3,7.2c0,2.1,0.6,4.1,1.8,5.8
		c-1.5,0.5-2.8,1.3-3.9,2.4c-4,4-4,10.5,0,14.5l0.5,0.5l-9.8,9.8c-3.7-1.7-8.1-1.1-11.2,1.9l-5.2,5.2C1,103.5,0,106,0,108.6
		c0,2.6,1,5.1,2.9,7l6.5,6.5c1.2,1.2,3,1.2,4.2,0c1.2-1.2,1.2-3,0-4.2L7,111.4c-0.7-0.7-1.1-1.7-1.1-2.8c0-1.1,0.4-2,1.1-2.8
		l5.2-5.2c1.3-1.3,3.3-1.5,4.8-0.6c0.1,0.2,0.2,0.3,0.4,0.5c0.3,0.3,0.5,0.4,0.8,0.6l29.9,29.9c0.1,0.3,0.3,0.6,0.6,0.9
		c0.2,0.2,0.5,0.4,0.8,0.6c0.6,0.7,1,1.6,1,2.6c0,1.1-0.4,2-1.1,2.8l-5.2,5.2c-1.5,1.5-4,1.5-5.6,0l-6.5-6.5c-1.2-1.2-3-1.2-4.2,0
		c-1.2,1.2-1.2,3,0,4.2l6.5,6.5c1.9,1.9,4.4,2.9,7,2.9c2.5,0,5-1,7-2.9l5.2-5.2c1.9-1.9,2.9-4.3,2.9-7c0-1.9-0.5-3.7-1.5-5.2
		l11.1-11c0,0,0,0,0,0c1.3-1.3,4.8-1.1,8.2-0.8c2.4,0.2,5.1,0.4,7.8,0.1L94.2,130c-0.8,1.4-1.2,3-1.2,4.7c0,2.6,1,5.1,2.9,7l5.2,5.2
		c1.9,1.9,4.3,2.9,7,2.9c2.6,0,5.1-1,7-2.9l31.6-31.6c1.9-1.9,2.9-4.3,2.9-7C149.5,105.7,148.5,103.2,146.6,101.4L146.6,101.4z
		 M68.3,30.3l12.8,2.4l-7.7,7.7c-1.2-0.6-2.8-1.6-4.6-3.3c-2.4-2.3-4.2-5-4.3-6.7c0,0,0,0,0,0c0,0,0,0,0,0c0-0.1,0-0.2,0-0.3
		C64.9,30,65.9,29.8,68.3,30.3L68.3,30.3z M53.3,32.7c1.5-1.5,3.8-1.7,5.5-0.5c1,4,4.4,7.7,5.9,9.1c1.1,1.1,4.8,4.4,8.5,5.3
		c0.5,0.7,0.8,1.6,0.8,2.5c0,1.2-0.4,2.2-1.3,3.1c-0.8,0.8-1.9,1.3-3.1,1.3c-1.2,0-2.3-0.4-3.1-1.3l0,0l0,0L53.3,38.8
		c-0.8-0.8-1.3-1.9-1.3-3.1C52.1,34.6,52.5,33.5,53.3,32.7L53.3,32.7z M45.6,45.6c0.8-0.8,1.9-1.3,3.1-1.3c1.2,0,2.3,0.4,3.1,1.3
		l10.7,10.7c1.7,1.7,1.7,4.4,0,6.1c-0.8,0.8-1.9,1.3-3.1,1.3c-1.2,0-2.3-0.4-3.1-1.3l0,0l-8.1-8.1c0,0,0,0,0,0l-2.5-2.5
		c-0.8-0.8-1.3-1.9-1.3-3.1C44.4,47.5,44.8,46.4,45.6,45.6L45.6,45.6z M37.9,58.5c0.8-0.8,1.9-1.3,3.1-1.3c1.2,0,2.2,0.4,3,1.2
		l8.2,8.1c0.8,0.8,1.3,1.9,1.3,3.1c0,1.2-0.4,2.2-1.3,3.1c-0.8,0.8-1.9,1.3-3.1,1.3c-1.2,0-2.3-0.4-3.1-1.3l-3-3c0,0,0,0,0,0
		l-5.2-5.2c-0.8-0.8-1.3-1.9-1.3-3.1C36.6,60.4,37.1,59.3,37.9,58.5L37.9,58.5z M32.8,73.9c0.8-0.8,1.9-1.3,3.1-1.3
		c1.2,0,2.3,0.4,3.1,1.3l3,3c0.8,0.8,1.3,1.9,1.3,3.1c0,1.2-0.4,2.2-1.3,3.1c-0.8,0.8-1.9,1.3-3.1,1.3c-1.2,0-2.3-0.4-3.1-1.3
		l-0.4-0.4c0,0,0,0,0,0c0,0,0,0,0,0L32.8,80C31.1,78.3,31.1,75.6,32.8,73.9L32.8,73.9z M92.9,107.5c-1.2-1.2-3-1.2-4.2,0l-2.6,2.6
		c-2.5,2.5-7,2.2-11.4,1.9c-4.7-0.3-9.7-0.7-12.8,2.6L51,125.4L23.8,98.3l9.6-9.6c1.6,1,3.4,1.5,5.3,1.5c2.7,0,5.3-1.1,7.2-3
		c1.9-1.9,3-4.5,3-7.2c0,0,0-0.1,0-0.1c0,0,0.1,0,0.1,0c2.7,0,5.3-1.1,7.2-3c1.9-1.9,3-4.5,3-7.2c0,0,0-0.1,0-0.1c0,0,0.1,0,0.1,0
		c2.7,0,5.3-1.1,7.2-3c2-2,3-4.7,3-7.3c0,0,0.1,0,0.1,0c2.7,0,5.3-1.1,7.2-3c1.9-1.9,3-4.5,3-7.2c0-1.9-0.5-3.7-1.5-5.3l8.4-8.4
		c0.6-0.6,1.4-1,2.2-1.2c0.1,0,0.2,0,0.3,0c1.3-0.2,2.7,0.2,3.7,1.2c1.7,1.7,1.7,4.4,0,6.1L90.5,44c0,0,0,0,0,0l-3,3
		c-1.2,1.2-1.2,3,0,4.2c1.2,1.2,3,1.2,4.2,0l2.6-2.6c0,0,0,0,0,0l0.4-0.4c1.7-1.7,4.4-1.7,6.1,0c0.8,0.8,1.3,1.9,1.3,3.1
		c0,1.2-0.4,2.2-1.3,3.1l-2.6,2.6c0,0,0,0,0,0l-3,2.9c-1.2,1.1-1.2,3,0,4.2c1.1,1.2,3,1.2,4.2,0l3-3c0.8-0.8,1.9-1.3,3.1-1.3
		c1.2,0,2.3,0.4,3.1,1.3c0.8,0.8,1.3,1.9,1.3,3.1s-0.4,2.2-1.3,3.1l-5.1,5.1c-1.2,1.2-1.2,3,0,4.2c0.6,0.6,1.3,0.9,2.1,0.9
		c0.8,0,1.5-0.3,2.1-0.9L110,74c0,0,0,0,0,0c0.8-0.8,1.9-1.3,3.1-1.3c1.2,0,2.3,0.4,3.1,1.3c1.7,1.7,1.7,4.4,0,6.1l-2.6,2.6
		c0,0,0,0,0,0c0,0,0,0,0,0l-4.1,4.1c-1.2,1.2-1.2,3,0,4.2c0.6,0.6,1.3,0.9,2.1,0.9c0.8,0,1.5-0.3,2.1-0.9l2-2l9.5,9.5l-27.2,27.1
		l-9.7-9.7c0.7-0.4,1.3-0.9,1.9-1.6l2.6-2.6C94,110.5,94,108.6,92.9,107.5L92.9,107.5z M142.4,111.1l-31.6,31.6
		c-0.7,0.7-1.7,1.1-2.8,1.1s-2-0.4-2.8-1.1l-5.2-5.2c-0.7-0.7-1.1-1.7-1.1-2.8c0-1.1,0.4-2,1.1-2.8l31.6-31.6
		c0.7-0.7,1.7-1.1,2.8-1.1c1.1,0,2,0.4,2.8,1.1l5.2,5.2c0.7,0.7,1.1,1.7,1.1,2.8C143.6,109.4,143.2,110.4,142.4,111.1z"/>
	<path class="st4" d="M35.3,16.6c0.6,0.6,1.3,0.9,2.1,0.9c0.8,0,1.5-0.3,2.1-0.9c1.2-1.2,1.1-3,0-4.2L28.7,1.7c-1.2-1.2-3-1.1-4.2,0
		c-1.2,1.2-1.1,3,0,4.2L35.3,16.6z"/>
	<path class="st4" d="M111.6,17.4c0.8,0,1.5-0.3,2.1-0.9l10.7-10.7c1.2-1.2,1.2-3,0-4.2c-1.2-1.2-3-1.2-4.2,0l-10.7,10.7
		c-1.2,1.2-1.2,3,0,4.2C110.1,17.1,110.8,17.4,111.6,17.4z"/>
	<path class="st4" d="M18.1,126.9c-1.1,1.2-1.1,3,0,4.2l0,0c0.6,0.6,1.3,0.8,2.1,0.8c0.8,0,1.5-0.3,2.1-0.9c1.1-1.2,1.1-3,0-4.2
		C21.2,125.7,19.3,125.8,18.1,126.9z"/>
	<path class="st4" d="M100.1,103.2c0.4,0,0.9-0.1,1.3-0.3c1.5-0.7,2-2.5,1.3-4c-0.7-1.5-2.5-2-4-1.3l0,0c-1.5,0.7-2,2.5-1.3,4
		C98,102.6,99,103.2,100.1,103.2L100.1,103.2z"/>
</g>
</svg>
