<?xml version="1.0" encoding="utf-8"?>
<!-- Generator: Adobe Illustrator 25.0.0, SVG Export Plug-In . SVG Version: 6.00 Build 0)  -->
<svg version="1.1" id="Layer_1" xmlns="http://www.w3.org/2000/svg" xmlns:xlink="http://www.w3.org/1999/xlink" x="0px" y="0px"
	 viewBox="0 0 150 150" style="enable-background:new 0 0 150 150;" xml:space="preserve">
<style type="text/css">
	.st0{clip-path:url(#SVGID_2_);}
	.st1{fill:#00CCF2;}
	.st2{fill:#FFBE52;}
	.st3{fill:#FF6371;}
	.st4{fill:none;stroke:#35414D;stroke-width:5.8594;stroke-linecap:round;stroke-linejoin:round;stroke-miterlimit:13.3333;}
	.st5{fill:#FED2A4;}
	.st6{fill:#FF9357;}
	.st7{fill:#FFFFFF;}
</style>
<g id="g7686" transform="matrix(1.3333333,0,0,-1.3333333,0,682.66667)">
	<g id="g7688">
		<g>
			<defs>
				<rect id="SVGID_1_" x="-18.7" y="380.8" width="150" height="150"/>
			</defs>
			<clipPath id="SVGID_2_">
				<use xlink:href="#SVGID_1_"  style="overflow:visible;"/>
			</clipPath>
			<g id="g7690" class="st0">
				<g id="g7696" transform="translate(205.6373,416.8605)">
					<path id="path7698" class="st1" d="M-160.5,74.2c-4.2-5.1-9.7-8.8-16-10.6c-2.1-0.6-3.3-2.8-2.7-4.8c0.6-2,2.5-3.1,4.5-2.8
						c0.1,0,0.2,0.1,0.4,0.1c3.2,0.9,6.3,2.2,9.1,3.9L-160.5,74.2z"/>
				</g>
				<g id="g7700" transform="translate(256.127,307.7559)">
					<path id="path7702" class="st1" d="M-199.8,159.4l4.2,12.1c1.3-0.2,2.6-0.3,3.8-0.3c5.8,0,11.5,2,16,5.8l0.5,0.4
						c1.6,1.4,2,3.8,0.7,5.4c-1.4,1.8-3.9,2-5.6,0.6l-0.6-0.5c-1-0.8-2.1-1.6-3.3-2.1c-4.5-2.3-9.9-1.1-13.3,2.6
						c-1.7,1.8-4.1,3-6.8,3c-4.2,0-7.9-2.8-8.9-6.9l-5.2-20.1H-199.8z"/>
				</g>
				<g id="g7704" transform="translate(172.4155,307.7559)">
					<path id="path7706" class="st2" d="M-134.5,159.4l-15.4-40.3c-1-2.6,0.7-5.5,3.5-5.9l0.1,0c1.9-0.3,3.7,0.7,4.6,2.4
						c4.3,8.6,17.2,34,17.2,34h5.2l-2.7-16.7c-0.4-2.5,1.5-4.7,4-4.7l0,0c1.8,0,3.4,1.2,3.9,3l5,17.9c1.4,5.2-2.4,10.3-7.8,10.3
						h-2.4H-134.5z"/>
				</g>
				<g id="g7708" transform="translate(502,289.5896)">
					<path id="path7710" class="st3" d="M-391.7,173.5l-18.9-3.8l4.1-4.1l-13.2-13.2l-9.3,9.3l-43.4-43.4l6.3-6.3l37.1,37.1l9.3-9.3
						l19.5,19.5l4.7-4.7L-391.7,173.5z"/>
				</g>
				<g id="g7712" transform="translate(502,289.5896)">
					<path id="path7714" class="st3" d="M-391.7,173.5l-18.9-3.8l4.1-4.1l-13.2-13.2l-9.3,9.3l-43.4-43.4l6.3-6.3l37.1,37.1l9.3-9.3
						l19.5,19.5l4.7-4.7L-391.7,173.5z"/>
				</g>
				<g id="g7716" transform="translate(205.6373,416.8605)">
					<path id="path7718" class="st4" d="M-160.5,74.2c-4.2-5.1-9.7-8.8-16-10.6c-2.1-0.6-3.3-2.8-2.7-4.8c0.6-2,2.5-3.1,4.5-2.8
						c0.1,0,0.2,0.1,0.4,0.1c3.2,0.9,6.3,2.2,9.1,3.9"/>
				</g>
				<g id="g7720" transform="translate(256.127,307.7559)">
					<path id="path7722" class="st4" d="M-199.8,159.4l4.2,12.1c1.3-0.2,2.6-0.3,3.8-0.3c5.8,0,11.5,2,16,5.8l0.5,0.4
						c1.6,1.4,2,3.8,0.7,5.4c-1.4,1.8-3.9,2-5.6,0.6l-0.6-0.5c-1-0.8-2.1-1.6-3.3-2.1c-4.5-2.3-9.9-1.1-13.3,2.6
						c-1.7,1.8-4.1,3-6.8,3c-4.2,0-7.9-2.8-8.9-6.9l-5.2-20.1H-199.8z"/>
				</g>
				<g id="g7724" transform="translate(275.0957,121.6892)">
					<path id="path7726" class="st4" d="M-214.6,304.5l12.5,12.5l9.3-9.3l19.5,19.5l4.7-4.7l3.8,18.9l-18.9-3.8l4.1-4.1l-13.2-13.2
						l-9.3,9.3l-43.4-43.4l6.3-6.3l12.1,12.1"/>
				</g>
				<g id="g7728" transform="translate(298.5151,466.3648)">
					<path id="path7730" class="st5" d="M-232.9,35.6c0,4.3-3.5,7.8-7.8,7.8c-4.3,0-7.8-3.5-7.8-7.8s3.5-7.8,7.8-7.8
						C-236.4,27.8-232.9,31.3-232.9,35.6"/>
				</g>
				<g id="g7732" transform="translate(298.5151,466.3648)">
					<path id="path7734" class="st4" d="M-232.9,35.6c0,4.3-3.5,7.8-7.8,7.8c-4.3,0-7.8-3.5-7.8-7.8s3.5-7.8,7.8-7.8
						C-236.4,27.8-232.9,31.3-232.9,35.6z"/>
				</g>
				<g id="g7736" transform="translate(108.6529,140.5587)">
					<path id="path7738" class="st4" d="M-84.8,289.8l-1.4-3.6c-1-2.6,0.7-5.5,3.5-5.9l0.1,0c1.9-0.3,3.7,0.7,4.6,2.4
						c4.3,8.6,17.2,34,17.2,34h5.2l-2.7-16.7c-0.4-2.5,1.5-4.7,4-4.7l0,0c1.8,0,3.4,1.2,3.9,3l5,17.9c1.4,5.2-2.4,10.3-7.8,10.3
						h-2.4"/>
				</g>
				<g id="g7740" transform="translate(172.4155,307.7559)">
					<path id="path7742" class="st4" d="M-134.5,159.4l-7.7-20.3"/>
				</g>
				<g id="g7744" transform="translate(87.7601,232.712)">
					<path id="path7746" class="st6" d="M-68.5,217.9l-16.2,16.2c-1.1,1.1-1.1,2.9,0,4l11.8,11.8c1.1,1.1,2.9,1.1,4,0l16.2-16.2
						c1.1-1.1,1.1-2.9,0-4l-11.8-11.8C-65.6,216.8-67.4,216.8-68.5,217.9"/>
				</g>
				<g id="g7748" transform="translate(75.8777,294.116)">
					<path id="path7750" class="st7" d="M-59.2,170l-0.7,0.7c-1.2,1.2-1.2,3.1,0,4.3l2.8,2.8l4.9-4.9l-2.8-2.8
						C-56.1,168.8-58,168.8-59.2,170"/>
				</g>
				<g id="g7752" transform="translate(87.7601,232.712)">
					<path id="path7754" class="st4" d="M-68.5,217.9l-16.2,16.2c-1.1,1.1-1.1,2.9,0,4l11.8,11.8c1.1,1.1,2.9,1.1,4,0l16.2-16.2
						c1.1-1.1,1.1-2.9,0-4l-11.8-11.8C-65.6,216.8-67.4,216.8-68.5,217.9z"/>
				</g>
				<g id="g7756" transform="translate(40.6778,351.8257)">
					<path id="path7758" class="st4" d="M-31.7,125l7.4-7.4"/>
				</g>
				<g id="g7760" transform="translate(130.5296,261.9739)">
					<path id="path7762" class="st4" d="M-101.8,195.1l-7.4,7.4"/>
				</g>
				<g id="g7764" transform="translate(75.8777,294.116)">
					<path id="path7766" class="st4" d="M-59.2,170l-0.7,0.7c-1.2,1.2-1.2,3.1,0,4.3l2.8,2.8l4.9-4.9l-2.8-2.8
						C-56.1,168.8-58,168.8-59.2,170z"/>
				</g>
				<g id="g7768" transform="translate(247,93.2163)">
					<path id="path7770" class="st4" d="M-192.7,326.8L-192.7,326.8"/>
				</g>
				<g id="g7772" transform="translate(122.8861,177.8808)">
					<path id="path7774" class="st4" d="M-95.9,260.7L-95.9,260.7"/>
				</g>
			</g>
		</g>
	</g>
</g>
</svg>
