<?xml version="1.0" encoding="utf-8"?>
<!-- Generator: Adobe Illustrator 25.0.0, SVG Export Plug-In . SVG Version: 6.00 Build 0)  -->
<svg version="1.1" id="Layer_1" xmlns="http://www.w3.org/2000/svg" xmlns:xlink="http://www.w3.org/1999/xlink" x="0px" y="0px"
	 viewBox="0 0 169.5 150" style="enable-background:new 0 0 169.5 150;" xml:space="preserve">
<style type="text/css">
	.st0{fill:#365E7D;}
	.st1{fill:#DDB7A0;}
	.st2{fill:#D6A889;}
	.st3{fill:#CC9675;}
	.st4{fill:#C4845C;}
	.st5{fill:#F4FBFF;}
	.st6{fill:#E4F6FF;}
	.st7{fill:#407093;}
	.st8{fill:#4A80AA;}
	.st9{fill:#CBE2FF;}
	.st10{fill:#BED8FB;}
	.st11{fill:#35414D;}
</style>
<g>
	<g>
		<g>
			<g>
				<g>
					<g>
						<path class="st0" d="M101.4,40.7c-2.8,0-5.1-2.3-5.1-5.1V17.1c0-2.2-1.8-4-4-4H64.2c-2.2,0-4,1.8-4,4v18.5
							c0,2.8-2.3,5.1-5.1,5.1s-5.1-2.3-5.1-5.1V17.1C50.1,9.3,56.4,3,64.2,3h28.1c7.8,0,14.2,6.4,14.2,14.2v18.5
							C106.5,38.4,104.2,40.7,101.4,40.7z"/>
					</g>
				</g>
				<g>
					<g>
						<path class="st1" d="M139,133.6H17.6C9.5,133.6,3,127.1,3,119V42.8c0-8.1,6.6-14.6,14.6-14.6H139c8.1,0,14.6,6.6,14.6,14.6
							V119C153.6,127.1,147.1,133.6,139,133.6z"/>
					</g>
					<g>
						<path class="st2" d="M139,28.2h-20.8c8.1,0,14.6,6.6,14.6,14.6V119c0,8.1-6.6,14.6-14.6,14.6H139c8.1,0,14.6-6.6,14.6-14.6
							V42.8C153.6,34.8,147.1,28.2,139,28.2z"/>
					</g>
					<g>
						<path class="st3" d="M139,28.2H17.6C9.5,28.2,3,34.8,3,42.8V53c0,14.6,11.9,26.5,26.5,26.5h97.6c14.6,0,26.5-11.9,26.5-26.5
							V42.8C153.6,34.8,147.1,28.2,139,28.2L139,28.2z"/>
					</g>
					<g>
						<path class="st4" d="M139,28.2h-20.8c8.1,0,14.6,6.6,14.6,14.6v36.1c11.9-2.6,20.8-13.2,20.8-25.9V42.8
							C153.6,34.8,147.1,28.2,139,28.2z"/>
					</g>
				</g>
			</g>
		</g>
		<g>
			<g>
				<path class="st5" d="M36.6,97.8c-3.8,0-6.8-3.1-6.8-6.8V75c0-3.8,3.1-6.8,6.8-6.8c3.8,0,6.8,3.1,6.8,6.8v15.9
					C43.5,94.7,40.4,97.8,36.6,97.8z"/>
			</g>
			<g>
				<path class="st6" d="M29.8,85.8v5.1c0,3.8,3.1,6.8,6.8,6.8c3.8,0,6.8-3.1,6.8-6.8v-5.1H29.8z"/>
			</g>
		</g>
		<g>
			<g>
				<g>
					<g>
						<path class="st5" d="M102.3,100.8l7,7l-14.7,14.7l-7-7L102.3,100.8z"/>
					</g>
					<g>
						<path class="st7" d="M76.4,144.8l20.1-20.1c1.2-1.2,1.2-3,0-4.2l-6.8-6.8c-1.2-1.2-3-1.2-4.2,0l-20.1,20.1c-3,3-3,7.9,0,11
							C68.5,147.8,73.4,147.8,76.4,144.8L76.4,144.8z"/>
					</g>
					<g>
						<path class="st8" d="M96.5,120.5l-6.8-6.8c-1.2-1.2-3-1.2-4.2,0l-4.4,4.4l11,11l4.4-4.4C97.7,123.5,97.7,121.6,96.5,120.5
							L96.5,120.5z"/>
					</g>
					<g>
						<circle class="st6" cx="128.1" cy="82.1" r="38.4"/>
					</g>
					<g>
						<circle class="st9" cx="128.1" cy="82.1" r="27.2"/>
					</g>
					<g>
						<path class="st10" d="M147.3,62.9c-8-8-19.8-10-29.6-5.9c3.2,1.3,6.2,3.3,8.8,5.9c10.6,10.6,10.6,27.8,0,38.4
							c-2.6,2.6-5.6,4.6-8.8,5.9c9.9,4.1,21.6,2.1,29.6-5.9C157.9,90.7,157.9,73.5,147.3,62.9L147.3,62.9z"/>
					</g>
				</g>
			</g>
		</g>
	</g>
	<g>
		<path class="st11" d="M157.4,52.9c-0.3-0.3-0.5-0.5-0.8-0.7v-9.3c0-9.7-7.9-17.6-17.6-17.6h-29.5v-8.1c0-9.4-7.7-17.1-17.1-17.1
			H64.2c-9.4,0-17.1,7.7-17.1,17.1v8.1H17.6C7.9,25.2,0,33.1,0,42.8V119c0,9.7,7.9,17.6,17.6,17.6h35.7c1.6,0,3-1.3,3-3
			c0-1.6-1.3-3-3-3H17.6c-6.4,0-11.7-5.2-11.7-11.7V70.7c5,6.7,12.6,10.9,20.9,11.7v8.5c0,5.4,4.4,9.8,9.8,9.8
			c5.4,0,9.8-4.4,9.8-9.8v-8.4h40.3c0.1,8.2,2.5,16,7.1,22.8L89,110c-2-0.5-4.1,0.1-5.5,1.6l-20.1,20.1c-4.2,4.2-4.2,11,0,15.1
			c2,2,4.7,3.1,7.6,3.1c2.9,0,5.5-1.1,7.6-3.1l20.1-20.1c1.4-1.4,2-3.5,1.6-5.5l4.8-4.8c13.7,9.2,31.9,9.4,45.7,0.4v2.2
			c0,6.4-5.2,11.7-11.7,11.7h-39c-1.6,0-3,1.3-3,3c0,1.6,1.3,3,3,3h39c9.7,0,17.6-7.9,17.6-17.6v-6.8c0.3-0.2,0.5-0.5,0.8-0.7
			c7.8-7.8,12.1-18.2,12.1-29.3C169.5,71.1,165.2,60.7,157.4,52.9z M87.9,129.1l-13.6,13.6c-1.9,1.9-4.9,1.9-6.8,0
			c-0.9-0.9-1.4-2.1-1.4-3.4c0-1.3,0.5-2.5,1.4-3.4l13.6-13.6L87.9,129.1z M94.4,122.6l-2.3,2.3l-6.8-6.8l2.3-2.3L94.4,122.6z
			 M63.2,17.1c0-0.6,0.5-1,1-1h28.1c0.6,0,1,0.5,1,1v8.1H63.2V17.1z M92.3,10.2H64.2c-3.8,0-6.9,3.1-6.9,6.9v8.1H53v-8.1
			c0-6.2,5-11.2,11.2-11.2h28.1c6.2,0,11.2,5,11.2,11.2v8.1h-4.3v-8.1C99.3,13.3,96.2,10.2,92.3,10.2z M97.4,109.9
			c0.5,0.5,0.9,1,1.4,1.5c0.5,0.5,0.9,0.9,1.5,1.4l-3.6,3.6l-2.8-2.8L97.4,109.9z M103,57c6.7-6.7,15.6-10.4,25.1-10.4
			s18.4,3.7,25.1,10.4c13.8,13.8,13.8,36.3,0,50.2c-6.7,6.7-15.6,10.4-25.1,10.4c-9.5,0-18.4-3.7-25.1-10.4
			c-6.7-6.7-10.4-15.6-10.4-25.1C92.6,72.7,96.3,63.7,103,57z M36.6,65.2c-5.4,0-9.8,4.4-9.8,9.8v1.4C15.1,75.1,5.9,64.9,5.9,53
			V42.8c0-6.4,5.2-11.7,11.7-11.7H139c6.4,0,11.7,5.2,11.7,11.7v4.6c-16.3-10.7-38-8.4-51.8,5.4c-6.5,6.5-10.6,14.7-11.8,23.7H46.4
			V75C46.4,69.6,42,65.2,36.6,65.2z M32.8,88.8h7.8v2.2c0,2.1-1.7,3.9-3.9,3.9c-2.1,0-3.9-1.7-3.9-3.9V88.8z M32.8,75
			c0-2.1,1.7-3.9,3.9-3.9c2.1,0,3.9,1.7,3.9,3.9v7.8h-7.8V75z"/>
		<path class="st11" d="M128.1,112.2c7.7,0,15.4-2.9,21.3-8.8c4.1-4.1,6.9-9.2,8.1-14.9c0.3-1.6-0.7-3.2-2.3-3.5
			c-1.6-0.4-3.2,0.7-3.5,2.3c-1,4.5-3.2,8.7-6.5,12c-9.4,9.4-24.8,9.4-34.2,0c-9.4-9.4-9.4-24.8,0-34.2c4.6-4.6,10.7-7.1,17.1-7.1
			c6.5,0,12.5,2.5,17.1,7.1c3.3,3.3,5.5,7.4,6.5,11.9c0.2,0.8,0.6,1.4,1.3,1.9c0.7,0.4,1.5,0.6,2.2,0.4c1.6-0.3,2.6-1.9,2.3-3.5
			c-1.2-5.6-4-10.8-8.1-14.9c-5.7-5.7-13.3-8.8-21.3-8.8c-8,0-15.6,3.1-21.3,8.8c-5.7,5.7-8.8,13.3-8.8,21.3
			c0,8.1,3.1,15.6,8.8,21.3C112.6,109.3,120.4,112.2,128.1,112.2z"/>
	</g>
</g>
</svg>
