<?xml version="1.0" encoding="utf-8"?>
<!-- Generator: Adobe Illustrator 25.0.0, SVG Export Plug-In . SVG Version: 6.00 Build 0)  -->
<svg version="1.1" id="Layer_1" xmlns="http://www.w3.org/2000/svg" xmlns:xlink="http://www.w3.org/1999/xlink" x="0px" y="0px"
	 viewBox="0 0 171 150" style="enable-background:new 0 0 171 150;" xml:space="preserve">
<style type="text/css">
	.st0{fill-rule:evenodd;clip-rule:evenodd;fill:#FEDC97;}
	.st1{fill-rule:evenodd;clip-rule:evenodd;fill:#DDBE63;}
	.st2{fill-rule:evenodd;clip-rule:evenodd;fill:#697277;}
	.st3{fill-rule:evenodd;clip-rule:evenodd;fill:#575E61;}
	.st4{fill-rule:evenodd;clip-rule:evenodd;fill:#FDB614;}
	.st5{fill:#35414D;}
</style>
<g>
	<g>
		<path class="st0" d="M35.1,106.2c4.7-0.4,9.2-2.6,13.5-6.2c16.3-13.6,19.7-9.6,47.1-6.9c11.6,1.2,8.1,14-3.6,13.7
			c-6.7-0.2-13.5-0.3-20.2-0.5c-2.6,6.5,29.1,13.6,42,9l24.3-8.8c10.8-4.4,20.5,3.2,10.5,9.2c-12.5,7.5-42.3,26.9-53.1,29.3
			l-60.5-3.5L35.1,106.2z"/>
		<path class="st1" d="M123.1,131.3c-10.9,6.5-21.8,12.4-27.4,13.6l-60.5-3.5v-20.5L123.1,131.3z"/>
		<path class="st2" d="M17,100.6h18.1V147H2.9L17,100.6z"/>
		<path class="st3" d="M35.1,120.9V147H2.9l7.9-26.1H35.1z"/>
		<path class="st0" d="M140.1,48.9H74.9c-3-9.9-12.1-17.1-23-17.1c-13.2,0-24,10.7-24,24s10.7,24,24,24c10.9,0,20.1-7.2,23-17.1
			h21.8v11.4h11.8V62.7h11.1v11.4h11.8V62.7h8.7L140.1,48.9L140.1,48.9z M51.9,45c-5.9,0-10.7,4.8-10.7,10.7S46,66.5,51.9,66.5
			s10.7-4.8,10.7-10.7C62.6,49.9,57.8,45,51.9,45z"/>
		<path class="st4" d="M27.9,55.8c0,13.3,10.7,24,24,24c10.9,0,20.1-7.2,23-17.1h21.8v11.4h11.8V62.7h11.1v11.4h11.8V62.7h8.7v-6.9
			H62.6c0,5.9-4.8,10.7-10.7,10.7s-10.7-4.8-10.7-10.7L27.9,55.8z"/>
	</g>
	<path class="st5" d="M113.1,15.9c0-1.6,1.3-2.9,2.9-2.9c1.6,0,2.9,1.3,2.9,2.9l-0.1,12.5c0,1.6-1.3,2.9-2.9,2.9
		c-1.6,0-2.9-1.3-2.9-2.9L113.1,15.9z M166.6,42.8c1.4-0.8,3.2-0.3,4,1.1s0.3,3.2-1.1,4L158.5,54c-1.4,0.8-3.2,0.3-4-1.1
		c-0.8-1.4-0.3-3.2,1.1-4L166.6,42.8z M146.5,17.6c0.8-1.4,2.6-1.9,4-1s1.9,2.6,1,4l-6.4,10.7c-0.8,1.4-2.6,1.9-4,1
		c-1.4-0.8-1.8-2.6-1-4L146.5,17.6z M83.7,10.1c0.8-1.4,2.6-1.9,4-1.1c1.4,0.8,1.9,2.6,1.1,4l-6.2,10.8c-0.8,1.4-2.6,1.9-4,1.1
		c-1.4-0.8-1.9-2.6-1.1-4L83.7,10.1z M2.7,34.3c-1.4-0.8-1.9-2.6-1.1-4c0.8-1.4,2.6-1.9,4-1.1l10.8,6.2c1.4,0.8,1.9,2.6,1.1,4
		c-0.8,1.4-2.6,1.9-4,1.1L2.7,34.3z M23.9,11.8c-0.8-1.4-0.3-3.2,1.1-4c1.4-0.8,3.2-0.3,4,1.1l6.3,10.8c0.8,1.4,0.3,3.2-1.1,4
		s-3.2,0.3-4-1.1L23.9,11.8z M53.6,2.9c0-1.6,1.3-2.9,2.9-2.9c1.6,0,2.9,1.3,2.9,2.9v12.5c0,1.6-1.3,2.9-2.9,2.9
		c-1.6,0-2.9-1.3-2.9-2.9V2.9z M137.2,51.9H74.9c-1.4,0-2.5-1-2.9-2.2c-1.3-4.3-4-8.1-7.6-10.7c-8.4-6.2-20.1-5.4-27.5,2
		c-8.3,8.3-8.3,21.6,0,29.8c7.4,7.4,19.1,8.3,27.5,2c3.6-2.7,6.3-6.5,7.6-10.9c0.4-1.3,1.5-2.1,2.8-2.1h21.8c1.6,0,2.9,1.3,2.9,2.9
		v8.4h5.9v-8.4c0-1.6,1.3-2.9,2.9-2.9h11.1c1.6,0,2.9,1.3,2.9,2.9v8.4h5.9v-8.4c0-1.6,1.3-2.9,2.9-2.9h5.8V51.9z M77,46h63.1
		c1.6,0,2.9,1.3,2.9,2.9v13.8c0,1.6-1.3,2.9-2.9,2.9h-5.8v8.4c0,1.6-1.3,2.9-2.9,2.9h-11.8c-1.6,0-2.9-1.3-2.9-2.9v-8.4h-5.2v8.4
		c0,1.6-1.3,2.9-2.9,2.9H96.8c-1.6,0-2.9-1.3-2.9-2.9v-8.4H77.1c-4,10.2-13.9,17.1-25.1,17.1c-14.9,0-26.9-12.1-26.9-27
		S37.1,28.9,52,28.9C63.1,28.9,73,35.8,77,46L77,46z M51.9,48c-6.9,0-10.4,8.4-5.5,13.4s13.4,1.4,13.4-5.5
		C59.7,51.5,56.2,48,51.9,48L51.9,48z M42.2,46.1c5.4-5.4,14-5.4,19.4,0c5.3,5.4,5.3,14,0,19.4c-5.4,5.4-14,5.4-19.4,0
		C36.9,60.1,36.9,51.5,42.2,46.1z M17.1,97.7h18c1.6,0,2.9,1.3,2.9,2.9v2.1c3.1-0.9,6-2.7,8.7-4.9C61,85.9,66,86.5,83.1,88.7
		c3.6,0.5,7.8,1,12.9,1.5c4.8,0.5,7.7,2.6,9,5.4c1.4,2.8,0.9,6-0.9,8.6c-2.1,3.2-6.3,5.7-12.1,5.5l-13.3-0.3
		c9.1,3.9,26.2,5.9,34.2,3.1l24.2-8.7c6.5-2.6,14.4-1.9,17.6,2.9c0.9,1.3,1.3,2.9,1.1,4.5c-0.3,2.4-2,5-5.6,7.1
		c-15.1,9-42.7,27.1-53.9,29.6c-0.3,0-0.5,0.1-0.8,0.1L38,144.6v2.5c0,1.6-1.3,2.9-2.9,2.9H2.9c-1.9,0-3.5-1.8-2.7-4l14-46.2
		C14.6,98.5,15.8,97.7,17.1,97.7L17.1,97.7z M38,108.7v30l57.3,3.3c8.4-2.1,28.5-14.5,42.5-23.1c3.4-2.1,6.5-4,9.3-5.6
		c1.8-1.1,3.2-2.4,2.6-3.3c-0.2-0.3-0.6-0.7-1.2-1c-2.1-1.1-5.6-1.3-9.3,0.3l-0.1,0l-24.3,8.8c-9.5,3.4-29.1,1.1-39.4-3.6
		c-4.4-2.1-7.8-5.1-6.4-9c0.4-1.2,1.5-2,2.8-2l20.2,0.5c5.6,0.1,8.5-3.6,7.5-5.8c-0.5-1-1.8-1.8-4.3-2.1c-5-0.5-9.3-1.1-13-1.5
		c-15.2-2-19.6-2.5-31.9,7.7C46.8,105.3,42.6,107.7,38,108.7L38,108.7z M32.2,103.5h-13L6.9,144.1h25.3V103.5z"/>
</g>
</svg>
