<?xml version="1.0" encoding="utf-8"?>
<!-- Generator: Adobe Illustrator 25.0.0, SVG Export Plug-In . SVG Version: 6.00 Build 0)  -->
<svg version="1.1" id="Layer_1" xmlns="http://www.w3.org/2000/svg" xmlns:xlink="http://www.w3.org/1999/xlink" x="0px" y="0px"
	 viewBox="0 0 564 175" style="enable-background:new 0 0 564 175;" xml:space="preserve">
<style type="text/css">
	.st0{fill:#4AA5FF;}
	.st1{fill:#E6F3FF;}
	.st2{fill:#35414D;}
	.st3{fill:#EF6D7A;}
	.st4{fill:#FFFFFF;}
	.st5{fill:#FEC200;}
	.st6{fill:#009AFF;}
	.st7{fill:#AAB2BD;}
	.st8{fill:#F9CF58;}
	.st9{opacity:0.1;}
	.st10{fill:#E5D3B3;}
	.st11{fill-rule:evenodd;clip-rule:evenodd;fill:#F17171;}
	.st12{fill-rule:evenodd;clip-rule:evenodd;fill:#85CFF5;}
	.st13{fill-rule:evenodd;clip-rule:evenodd;fill:#C9EBFA;}
	.st14{fill-rule:evenodd;clip-rule:evenodd;fill:#FEE97E;}
	.st15{fill-rule:evenodd;clip-rule:evenodd;fill:#76D6B2;}
	.st16{fill-rule:evenodd;clip-rule:evenodd;fill:#FFFFFF;}
</style>
<g>
	<g>
		<path class="st0" d="M92.8,114.8L6.2,80.6C3.3,79.4,1.8,76,3,73L28.6,8.1c1.2-3,4.6-4.5,7.5-3.3L122.7,39c3,1.2,4.5,4.6,3.3,7.5
			l-25.6,64.9C99.2,114.5,95.8,115.9,92.8,114.8z"/>
		<path class="st1" d="M31.9,15.7l86.6,34.2c3,1.2,4.5,4.6,3.3,7.5l-21.4,54.1c-1.2,3-4.6,4.5-7.5,3.3L6.2,80.6
			C3.3,79.4,1.8,76,3,73l21.4-54.1C25.5,16,28.9,14.5,31.9,15.7z"/>
		<g>
			<path class="st0" d="M97.7,61.8C98,70.6,93.3,78.8,85.7,83c7.6,0.9,15.3-1.5,21.1-6.5c4.8-4.4,7.9-10.5,8.6-17
				C109.5,60.3,103.6,61.1,97.7,61.8L97.7,61.8z"/>
			<path class="st0" d="M88,39.5c-6.2-6.2-15.4-8.4-23.7-5.7c4.6-6.2,11.5-10.2,19.2-11c6.5-0.5,13,1.4,18.3,5.4
				C97.2,32,92.6,35.7,88,39.5L88,39.5z"/>
			<path class="st0" d="M70.1,76.3c-14.2,6.2-28.5-2.4-28.5-2.4s3.5-16.3,17.7-22.5c6.9-3,14.9,0.2,17.9,7
				C80.2,65.3,77,73.3,70.1,76.3L70.1,76.3L70.1,76.3z"/>
		</g>
		<ellipse transform="matrix(0.9174 -0.3981 0.3981 0.9174 -18.6998 32.974)" class="st1" cx="70.1" cy="61.5" rx="7.8" ry="5.8"/>
		<path class="st1" d="M91,64.8l-9.7-22.4C86.7,33.5,95.2,27,105.2,24c6.8-1.9,13.9-1.9,20.7-0.1c5,1.3,9.7,3.4,13.9,6.3
			c-0.8,5.1-2.4,10-4.9,14.5c-3.3,6.2-8.2,11.4-14.2,15C111.8,65.1,101.2,66.9,91,64.8L91,64.8z"/>
		<circle class="st0" cx="114.5" cy="41.3" r="11.6"/>
		<path class="st2" d="M118.9,66.6c-0.8-0.7-2-0.7-2.7,0c-0.2,0.2-0.3,0.4-0.4,0.6l-17.2,43.5c-0.8,2-3,3-5,2.2L7,78.8
			c-2-0.8-3-3-2.2-5l21.4-54.1c0.8-2,3-3,5-2.2l30.1,11.9c1,0.4,2.1-0.1,2.5-1.1c0.4-1-0.1-2.1-1.1-2.5L32.6,13.9
			c-1.3-0.5-2.7-0.6-4-0.4l1.8-4.6c0.8-2,3-3,5-2.2l37.1,14.7c1,0.4,2.1-0.1,2.5-1.1c0.4-1-0.1-2.1-1.1-2.5L36.9,3
			c-4-1.6-8.5,0.4-10.1,4.4L1.2,72.3c-1.6,4,0.4,8.5,4.4,10.1l86.6,34.2c4,1.6,8.5-0.4,10.1-4.4l17.2-43.5
			C119.6,68,119.5,67.1,118.9,66.6z"/>
		<path class="st2" d="M23.6,80.6c0.5,1,1.6,1.4,2.6,0.9c4.5-2.2,9.9-0.8,12.7,3.3c0.6,0.9,1.8,1.1,2.7,0.5c0,0,0,0,0,0
			c2.5-1.9-1.5-5.6-5.2-7.4c1.2-5.3-1.7-9.6-6.1-11.9c4.2-3.2,4.9-9.3,1.7-13.4c-1.3-1.7-3.1-2.9-5.2-3.4c-1-0.3-2.1,0.3-2.4,1.4
			c-0.3,1,0.3,2.1,1.4,2.4c3.1,0.8,5,3.9,4.2,6.9c-0.5,2-2,3.5-3.9,4.1c-0.3,0.1-0.5,0.2-0.7,0.4c-8.2-1.5-14.4,5-15.4,6.9
			c-0.6,0.9-0.3,2.1,0.6,2.7c0.9,0.6,2.1,0.3,2.6-0.6c2.1-3.1,5.5-5,9.2-5.3c5.1-0.2,11.5,3.2,10.1,8.7C28,76.2,22.2,77.7,23.6,80.6
			L23.6,80.6z"/>
		<path class="st2" d="M140.9,28.7c-11.3-8-28.5-10.9-41.8-4.4c-14.3-8-30-0.9-36.4,8.4c-0.6,0.9-0.4,2.1,0.4,2.7
			c0.5,0.4,1.1,0.5,1.7,0.3c4.1-1.7,12.2-1.3,17.4,1.8c-1,1.7-3.4,3.7-2.8,5.7l1.2,2.7c-3.3,0.7-5.4,4-4.7,7.3c0,0,0,0,0,0
			c-4.5-4.7-11.4-6.2-17.4-3.6c-15,6.5-18.7,23.2-18.8,23.9c-0.2,0.8,0.2,1.6,0.9,2.1c11.2,7.2,40.5,8.9,39.5-13.5
			c2.1,2.4,5.3,2.2,7.9,0.8l1.2,2.7c0.2,0.5,0.6,0.8,1.1,1c1.6,0.4,3.3,0.6,5,0.8c-1.3,5.9-6.5,12.2-10.6,14
			c-0.9,0.5-1.3,1.7-0.7,2.7c0.2,0.4,0.5,0.7,0.9,0.8c14.2,2.1,27.7-6.8,31.5-20.6c13.5-4.9,24.1-21.1,25.4-33.6
			C141.9,29.8,141.5,29.1,140.9,28.7L140.9,28.7z M69.7,30.8c6.9-6,16.6-7.7,25.1-4.4c-3.7,2.2-7.1,4.9-10.1,8
			C80.3,31.8,75,30.5,69.7,30.8L69.7,30.8z M69.4,74.5c-10.8,4.7-21.8,0.2-25.5-1.6c1.2-3.9,5.5-15,16.2-19.7
			C74.5,47.5,83.3,67.9,69.4,74.5L69.4,74.5z M91.6,81.1c3.9-3.6,6.5-8.4,7.6-13.6c4.3,0.1,8.6-0.5,12.7-1.7
			C108.5,74.3,100.6,80.2,91.6,81.1L91.6,81.1z M97.9,63.7c-1.9-0.1-3.7-0.3-5.5-0.7l-8.9-20.5c11.4-18,35.2-23.4,53.2-12
			c0.4,0.2,0.7,0.5,1.1,0.7C134.6,50.6,117.5,64.6,97.9,63.7L97.9,63.7z"/>
		<circle class="st1" cx="35.8" cy="11" r="1.9"/>
		<circle class="st1" cx="41.2" cy="13.1" r="1.9"/>
		<circle class="st1" cx="46.6" cy="15.2" r="1.9"/>
	</g>
	<g>
		<g>
			<g>
				<path class="st3" d="M314.5,57.8c-1.2-2.9-4.6-4.3-7.5-3.1l-74.6,31.1c-2.9,1.2-4.3,4.6-3.1,7.5l4.4,10.7L319,68.4L314.5,57.8z"
					/>
			</g>
			<g>
				<path class="st4" d="M233.8,103.9l26.6,63.9c1.2,2.9,4.6,4.3,7.6,3.1l74.6-31.1c2.9-1.2,4.3-4.6,3.1-7.6L319,68.4L233.8,103.9z"
					/>
			</g>
			<g>
				<circle class="st5" cx="238.4" cy="92.6" r="2.9"/>
			</g>
			<g>
				<circle class="st4" cx="248.6" cy="88.4" r="2.9"/>
			</g>
			<g>
				<circle class="st5" cx="258.8" cy="84.1" r="2.9"/>
			</g>
			<g>
				<path class="st6" d="M244.1,105.9c-1.5,0.6-2.2,2.4-1.6,3.9l22.1,53.1c0.6,1.5,2.4,2.2,3.9,1.6l16.3-6.8l-24.4-58.6L244.1,105.9
					z"/>
			</g>
			<g>
				<path class="st7" d="M313.1,77.1l-52.7,22l24.4,58.6l52.7-22c1.5-0.6,2.2-2.4,1.6-3.9L317,78.7
					C316.4,77.2,314.6,76.5,313.1,77.1L313.1,77.1z"/>
			</g>
			<g>
				<path class="st8" d="M269.3,101.6l42.1-17.5c0.8-0.3,1.6,0,1.9,0.8l7,16.8c0.3,0.8,0,1.6-0.8,1.9l-42.1,17.5
					c-0.8,0.3-1.6,0-1.9-0.8l-7-16.8C268.2,102.8,268.5,101.9,269.3,101.6L269.3,101.6z"/>
			</g>
			<g class="st9">
				<path d="M293.8,109.3c-8.4,3.5-18.1-0.5-21.6-8.9l-2.9,1.2c-0.8,0.3-1.1,1.2-0.8,1.9l7,16.8c0.3,0.8,1.2,1.1,1.9,0.8l42.1-17.5
					c0.8-0.3,1.1-1.2,0.8-1.9l-1.2-2.9L293.8,109.3z"/>
			</g>
			<g>
				<path class="st10" d="M326.2,119.6l-17,7.1c-0.8,0.3-1.1,1.2-0.8,1.9l4,9.7c0.3,0.8,1.2,1.1,1.9,0.8l17-7.1
					c0.8-0.3,1.1-1.2,0.8-1.9l-4-9.7C327.8,119.7,326.9,119.3,326.2,119.6z"/>
			</g>
			<g class="st9">
				<path d="M324.4,132.1c-5.5,2.3-11.9-0.3-14.2-5.8l-1.1,0.4c-0.8,0.3-1.1,1.2-0.8,1.9l4,9.7c0.3,0.8,1.2,1.1,1.9,0.8l17-7.1
					c0.8-0.3,1.1-1.2,0.8-1.9l-0.4-1.1L324.4,132.1z"/>
			</g>
			<g>
				<path class="st10" d="M283.3,139.1l4,9.7c0.3,0.8,1.2,1.1,1.9,0.8l17-7.1c0.8-0.3,1.1-1.2,0.8-1.9l-4-9.7
					c-0.3-0.8-1.2-1.1-1.9-0.8l-17,7.1C283.3,137.5,283,138.3,283.3,139.1L283.3,139.1z"/>
			</g>
			<g class="st9">
				<path d="M250.5,89.2c-1.5,0.6-3.2-0.1-3.8-1.6c-0.2-0.4-0.2-0.8-0.2-1.2c-0.7,0.8-1,2-0.5,3c0.6,1.5,2.3,2.2,3.8,1.6
					c1.1-0.4,1.7-1.5,1.8-2.5C251.2,88.8,250.9,89.1,250.5,89.2z"/>
			</g>
			<g class="st9">
				<path d="M260.6,85c-1.5,0.6-3.2-0.1-3.8-1.6c-0.2-0.4-0.2-0.8-0.2-1.2c-0.7,0.8-1,2-0.5,3c0.6,1.5,2.3,2.2,3.8,1.6
					c1.1-0.4,1.7-1.5,1.8-2.5C261.4,84.6,261,84.8,260.6,85z"/>
			</g>
			<g class="st9">
				<path d="M246.9,93.7c-5.9,2.5-12.7-0.3-15.1-6.2c-0.2-0.4-0.3-0.8-0.4-1.2c-2.2,1.5-3.2,4.4-2.1,7l4.4,10.7L319,68.4l-1.7-4
					L246.9,93.7z"/>
			</g>
			<g class="st9">
				<path d="M328,135.2c-33.2,13.8-71.2-1.9-85.1-35l-9.2,3.8l26.6,63.9c1.2,2.9,4.6,4.3,7.6,3.1l74.6-31.1c2.9-1.2,4.3-4.6,3.1-7.6
					l-1.6-3.8L328,135.2z"/>
			</g>
		</g>
		<g>
			<g>
				<path class="st2" d="M319.4,69.5L234.2,105c-0.6,0.2-1.2,0-1.5-0.6l-4.4-10.7c-1.5-3.5,0.2-7.6,3.7-9l74.6-31.1
					c3.5-1.5,7.6,0.2,9,3.7L320,68C320.2,68.6,320,69.2,319.4,69.5z M234.4,102.5l83.2-34.6l-4-9.6c-1-2.4-3.7-3.5-6.1-2.5l-74.5,31
					c-2.4,1-3.5,3.7-2.5,6.1L234.4,102.5z"/>
			</g>
			<g>
				<path class="st2" d="M342.9,140.9L268.3,172c-3.5,1.5-7.6-0.2-9-3.7l-26.6-63.9c-0.2-0.6,0-1.2,0.6-1.5l85.2-35.5
					c0.6-0.2,1.2,0,1.5,0.6l26.6,63.9C348.1,135.4,346.4,139.5,342.9,140.9z M235.2,104.5l26.2,62.9c1,2.4,3.7,3.5,6.1,2.5
					l74.6-31.1c2.4-1,3.5-3.7,2.5-6.1l-26.2-62.9L235.2,104.5z"/>
			</g>
			<g>
				<g>
					<path class="st2" d="M239.9,96.3c-2,0.8-4.4-0.1-5.2-2.2c-0.8-2,0.1-4.4,2.2-5.2c2-0.8,4.4,0.1,5.2,2.2
						C242.9,93.1,242,95.5,239.9,96.3z M237.7,91c-0.9,0.4-1.3,1.4-1,2.3c0.4,0.9,1.4,1.3,2.3,0.9s1.3-1.4,1-2.3
						S238.6,90.6,237.7,91z"/>
				</g>
				<g>
					<path class="st2" d="M250.1,92.1c-2,0.8-4.4-0.1-5.2-2.2s0.1-4.4,2.2-5.2c2-0.8,4.4,0.1,5.2,2.2
						C253.1,88.9,252.2,91.2,250.1,92.1z M247.9,86.7c-0.9,0.4-1.3,1.4-1,2.3c0.4,0.9,1.4,1.3,2.3,0.9c0.9-0.4,1.3-1.4,1-2.3
						C249.9,86.8,248.8,86.4,247.9,86.7z"/>
				</g>
				<g>
					<path class="st2" d="M260.3,87.8c-2,0.8-4.4-0.1-5.2-2.2s0.1-4.4,2.2-5.2c2-0.8,4.4,0.1,5.2,2.2S262.4,87,260.3,87.8z
						 M258.1,82.5c-0.9,0.4-1.3,1.4-1,2.3c0.4,0.9,1.4,1.3,2.3,0.9c0.9-0.4,1.3-1.4,1-2.3C260,82.5,259,82.1,258.1,82.5z"/>
				</g>
			</g>
			<g>
				<path class="st2" d="M285.2,158.7l-19.1,7.9c-0.6,0.2-1.2,0-1.5-0.6l-24.4-58.6c-0.2-0.6,0-1.2,0.6-1.5l19.1-7.9
					c0.6-0.2,1.2,0,1.5,0.6l24.4,58.6C286,157.8,285.8,158.5,285.2,158.7z M266.3,164.2l17-7.1l-23.5-56.5l-17,7.1L266.3,164.2z"/>
			</g>
			<g>
				<path class="st2" d="M340.7,135.6l-55.5,23.1c-0.6,0.2-1.2,0-1.5-0.6l-24.4-58.6c-0.2-0.6,0-1.2,0.6-1.5L315.4,75
					c0.6-0.2,1.2,0,1.5,0.6l24.4,58.6C341.5,134.7,341.3,135.4,340.7,135.6L340.7,135.6z M285.4,156.2l53.4-22.2l-23.5-56.5
					l-53.4,22.2L285.4,156.2z"/>
			</g>
			<g>
				<path class="st2" d="M321.3,104.1l-44.8,18.7c-0.6,0.2-1.2,0-1.5-0.6l-8.1-19.5c-0.2-0.6,0-1.2,0.6-1.5l44.8-18.7
					c0.6-0.2,1.2,0,1.5,0.6l8.1,19.5C322.1,103.2,321.9,103.9,321.3,104.1z M276.6,120.3l42.8-17.8L312.2,85l-42.8,17.8L276.6,120.3
					z"/>
			</g>
			<g>
				<path class="st2" d="M333.1,132.5l-19.8,8.2c-0.6,0.2-1.2,0-1.5-0.6l-5.2-12.4c-0.2-0.6,0-1.2,0.6-1.5l19.8-8.2
					c0.6-0.2,1.2,0,1.5,0.6l5.2,12.4C334,131.6,333.7,132.2,333.1,132.5L333.1,132.5z M313.6,138.2l17.7-7.4l-4.3-10.4l-17.7,7.4
					L313.6,138.2z"/>
			</g>
			<g>
				<path class="st2" d="M308.1,142.9l-19.8,8.2c-0.6,0.2-1.2,0-1.5-0.6l-5.2-12.4c-0.2-0.6,0-1.2,0.6-1.5l19.8-8.2
					c0.6-0.2,1.2,0,1.5,0.6l5.2,12.4C308.9,142,308.6,142.7,308.1,142.9z M288.5,148.7l17.7-7.4l-4.3-10.4l-17.7,7.4L288.5,148.7z"
					/>
			</g>
			<g>
				<g>
					<path class="st2" d="M298.4,119.9l-19.8,8.2c-0.6,0.2-1.2,0-1.5-0.6c-0.2-0.6,0-1.2,0.6-1.5l19.8-8.2c0.6-0.2,1.2,0,1.5,0.6
						C299.3,119,299,119.6,298.4,119.9z"/>
				</g>
				<g>
					<path class="st2" d="M292.7,128.5l-11.8,4.9c-0.6,0.2-1.2,0-1.5-0.6c-0.2-0.6,0-1.2,0.6-1.5l11.8-4.9c0.6-0.2,1.2,0,1.5,0.6
						C293.5,127.6,293.2,128.3,292.7,128.5z"/>
				</g>
			</g>
			<g>
				<g>
					<path class="st2" d="M323.5,109.4l-19.8,8.2c-0.6,0.2-1.2,0-1.5-0.6c-0.2-0.6,0-1.2,0.6-1.5l19.8-8.2c0.6-0.2,1.2,0,1.5,0.6
						C324.4,108.5,324.1,109.2,323.5,109.4z"/>
				</g>
				<g>
					<path class="st2" d="M317.7,118.1L306,123c-0.6,0.2-1.2,0-1.5-0.6c-0.2-0.6,0-1.2,0.6-1.5l11.8-4.9c0.6-0.2,1.2,0,1.5,0.6
						C318.6,117.2,318.3,117.8,317.7,118.1z"/>
				</g>
			</g>
			<g>
				<path class="st2" d="M257.7,107.7l-8.4,3.5c-0.6,0.2-1.2,0-1.5-0.6c-0.2-0.6,0-1.2,0.6-1.5l8.4-3.5c0.6-0.2,1.2,0,1.5,0.6
					C258.5,106.8,258.3,107.4,257.7,107.7z"/>
			</g>
			<g>
				<path class="st2" d="M260.5,114.5l-8.4,3.5c-0.6,0.2-1.2,0-1.5-0.6c-0.2-0.6,0-1.2,0.6-1.5l8.4-3.5c0.6-0.2,1.2,0,1.5,0.6
					C261.4,113.6,261.1,114.3,260.5,114.5z"/>
			</g>
			<g>
				<path class="st2" d="M263.4,121.4l-8.4,3.5c-0.6,0.2-1.2,0-1.5-0.6c-0.2-0.6,0-1.2,0.6-1.5l8.4-3.5c0.6-0.2,1.2,0,1.5,0.6
					C264.2,120.5,264,121.1,263.4,121.4z"/>
			</g>
			<g>
				<path class="st2" d="M266.2,128.2l-8.4,3.5c-0.6,0.2-1.2,0-1.5-0.6c-0.2-0.6,0-1.2,0.6-1.5l8.4-3.5c0.6-0.2,1.2,0,1.5,0.6
					C267.1,127.3,266.8,128,266.2,128.2z"/>
			</g>
			<g>
				<path class="st2" d="M269.1,135.1l-8.4,3.5c-0.6,0.2-1.2,0-1.5-0.6s0-1.2,0.6-1.5l8.4-3.5c0.6-0.2,1.2,0,1.5,0.6
					C269.9,134.2,269.7,134.8,269.1,135.1z"/>
			</g>
			<g>
				<path class="st2" d="M271.9,141.9l-8.4,3.5c-0.6,0.2-1.2,0-1.5-0.6c-0.2-0.6,0-1.2,0.6-1.5l8.4-3.5c0.6-0.2,1.2,0,1.5,0.6
					C272.8,141,272.5,141.7,271.9,141.9z"/>
			</g>
			<g>
				<path class="st2" d="M274.8,148.8l-8.4,3.5c-0.6,0.2-1.2,0-1.5-0.6c-0.2-0.6,0-1.2,0.6-1.5l8.4-3.5c0.6-0.2,1.2,0,1.5,0.6
					C275.6,147.9,275.4,148.5,274.8,148.8z"/>
			</g>
			<g>
				<path class="st2" d="M277.7,155.6l-8.4,3.5c-0.6,0.2-1.2,0-1.5-0.6c-0.2-0.6,0-1.2,0.6-1.5l8.4-3.5c0.6-0.2,1.2,0,1.5,0.6
					C278.5,154.7,278.2,155.4,277.7,155.6z"/>
			</g>
		</g>
	</g>
	<g id="Layer_35_5_">
		<g>
			<g>
				<path class="st11" d="M513.2,87.2l15.7,7.5l-4,8.4l-15.7-7.5L513.2,87.2z"/>
			</g>
			<g>
				<path class="st11" d="M487.8,75.1l15.7,7.5l-4,8.4l-15.7-7.5L487.8,75.1z"/>
			</g>
			<g>
				<path class="st11" d="M462.6,63.1l15.7,7.5l-4,8.4l-15.7-7.5L462.6,63.1z"/>
			</g>
			<g>
				<path class="st12" d="M480.7,6.5l-4.8,10.1l80.7,38.5l4.8-10.1c1-2.1,0.1-4.7-2-5.8L486.5,4.4C484.3,3.4,481.7,4.4,480.7,6.5
					L480.7,6.5z"/>
			</g>
			<g>
				<path class="st13" d="M479.7,27.3l-13.6,28.6L481,63l27.9-13l5.7,22.5l12.6-5.8l5.2,20.8L546,58.9L479.7,27.3z M488.3,40.2
					c2.5,1.2,3.5,4.2,2.3,6.7c-1.2,2.5-4.2,3.5-6.6,2.3c-2.5-1.2-3.6-4.2-2.4-6.6C482.9,40.1,485.8,39,488.3,40.2z"/>
			</g>
			<g>
				<path class="st14" d="M481.8,42.5c-1.2,2.5-0.1,5.4,2.4,6.6s5.4,0.1,6.6-2.3c1.2-2.5,0.1-5.5-2.3-6.7
					C485.8,39,482.9,40.1,481.8,42.5z"/>
			</g>
			<g>
				<path class="st15" d="M508.9,50L481,63l35.4,16.9l-1.9-7.4L508.9,50z"/>
			</g>
			<g>
				<path class="st15" d="M527.1,66.6l-12.6,5.8l1.9,7.4l15.9,7.6L527.1,66.6z"/>
			</g>
			<g>
				<path class="st16" d="M478.3,70.6l-4,8.4l-15.7-7.5l4-8.4L478.3,70.6z M475.9,16.6l-29.9,62.8c-1,2.1-0.1,4.7,2,5.8l72.9,34.8
					c2.1,1,4.7,0.1,5.8-2l29.9-62.8L475.9,16.6z M516.4,79.9L481,63l-14.9-7.1l13.6-28.6l66.2,31.6l-13.6,28.6L516.4,79.9z
					 M483.9,83.4l4-8.4l15.7,7.5l-4,8.4L483.9,83.4z M509.2,95.5l4-8.4l15.7,7.5l-4,8.4L509.2,95.5z"/>
			</g>
			<g>
				<path class="st2" d="M503.7,22.9c0.7,0.4,1.7,0,2.1-0.7c0.4-0.7,0-1.7-0.7-2.1s-1.7,0-2.1,0.7C502.6,21.7,503,22.6,503.7,22.9z"
					/>
				<path class="st2" d="M495.9,19.2c0.7,0.4,1.7,0,2.1-0.7c0.4-0.7,0-1.7-0.7-2.1c-0.7-0.4-1.7,0-2.1,0.7
					C494.8,18,495.2,18.9,495.9,19.2z"/>
				<path class="st2" d="M488.2,15.5c0.7,0.4,1.7,0,2.1-0.7c0.4-0.7,0-1.7-0.7-2.1s-1.7,0-2.1,0.7C487.1,14.3,487.4,15.1,488.2,15.5
					z"/>
				<path class="st2" d="M560.1,37.8L487.1,3.1c-2.9-1.4-6.4-0.1-7.8,2.8l-34.8,72.9c-1.4,2.9-0.1,6.4,2.8,7.8l72.9,34.8
					c2.9,1.4,6.4,0.1,7.8-2.8l34.8-72.9C564.2,42.8,562.9,39.2,560.1,37.8L560.1,37.8z M485.8,5.8l72.9,34.8c1.4,0.7,2,2.3,1.3,3.7
					l-4.2,8.7l-77.9-37.2l4.2-8.7C482.8,5.8,484.4,5.2,485.8,5.8L485.8,5.8z M521.6,118.5l-72.9-34.8c-1.4-0.7-2-2.3-1.3-3.7
					l29.3-61.4l77.9,37.2l-29.3,61.4C524.6,118.6,523,119.2,521.6,118.5L521.6,118.5z"/>
				<path class="st2" d="M523.1,32.2l26.6,12.7c0.7,0.4,1.7,0,2.1-0.7c0.4-0.7,0-1.7-0.7-2.1l-26.6-12.7c-0.7-0.4-1.7,0-2.1,0.7
					S522.4,31.8,523.1,32.2L523.1,32.2z"/>
				<path class="st2" d="M546.6,57.5l-66.2-31.6c-0.7-0.4-1.7,0-2.1,0.7l-13.6,28.6c-0.4,0.7,0,1.7,0.7,2.1l66.2,31.6
					c0.7,0.4,1.7,0,2.1-0.7l13.6-28.6C547.7,58.7,547.3,57.8,546.6,57.5z M517.7,78.8l-1.4-5.4l9.7-4.5l4,15.8L517.7,78.8z
					 M514.1,77.1L484.6,63l23.2-10.8L514.1,77.1z M480.4,29.3l63.5,30.3l-11.1,23.3l-4.1-16.7c-0.1-0.4-0.4-0.8-0.9-1
					c-0.5-0.2-0.9-0.2-1.3-0.1l-10.8,5.1l-5.2-20.7c-0.1-0.4-0.4-0.8-0.9-1s-0.9-0.2-1.3-0.1L481,61.3l-12.9-6.1L480.4,29.3z"/>
				<path class="st2" d="M521.7,109.7l-15.7-7.5c-0.7-0.4-1.7,0-2.1,0.7c-0.4,0.7,0,1.7,0.7,2.1l15.7,7.5c0.7,0.4,1.7,0,2.1-0.7
					C522.8,111,522.4,110.1,521.7,109.7z"/>
				<path class="st2" d="M496.4,97.6l-15.7-7.5c-0.7-0.4-1.7,0-2.1,0.7c-0.4,0.7,0,1.7,0.7,2.1l15.7,7.5c0.7,0.4,1.7,0,2.1-0.7
					C497.4,99,497.2,98,496.4,97.6z"/>
				<path class="st2" d="M471.1,85.6l-15.7-7.5c-0.7-0.4-1.7,0-2.1,0.7c-0.4,0.7,0,1.7,0.7,2.1l15.7,7.5c0.7,0.4,1.7,0,2.1-0.7
					C472.2,86.9,471.9,86,471.1,85.6z"/>
				<path class="st2" d="M478.9,69.2l-15.7-7.5c-0.7-0.4-1.7,0-2.1,0.7l-4,8.4c-0.4,0.7,0,1.7,0.7,2.1l15.7,7.5
					c0.7,0.4,1.7,0,2.1-0.7l4-8.4C480.1,70.4,479.7,69.5,478.9,69.2z M473.6,76.8l-12.9-6.1l2.7-5.6l12.9,6.1L473.6,76.8z"/>
				<path class="st2" d="M504.2,81.2l-15.7-7.5c-0.7-0.4-1.7,0-2.1,0.7l-4,8.4c-0.4,0.7,0,1.7,0.7,2.1l15.7,7.5
					c0.7,0.4,1.7,0,2.1-0.7l4-8.4C505.3,82.4,505,81.6,504.2,81.2z M498.9,88.8L486,82.7l2.7-5.6l12.9,6.1L498.9,88.8z"/>
				<path class="st2" d="M529.5,93.3l-15.7-7.5c-0.7-0.4-1.7,0-2.1,0.7l-4,8.4c-0.4,0.7,0,1.7,0.7,2.1l15.7,7.5
					c0.7,0.4,1.7,0,2.1-0.7l4-8.4C530.6,94.5,530.3,93.6,529.5,93.3z M524.2,100.9l-12.9-6.1l2.7-5.6l12.9,6.1L524.2,100.9z"/>
				<path class="st2" d="M492.1,47.5c1.5-3.2,0.2-7.2-3-8.7c-3.2-1.5-7.2-0.2-8.8,3.1c-1.5,3.2-0.2,7.1,3.2,8.7
					C486.6,52.1,490.6,50.7,492.1,47.5z M483.1,43.2c0.8-1.7,2.9-2.5,4.7-1.7c1.7,0.8,2.4,2.9,1.6,4.6c-0.8,1.7-2.9,2.4-4.5,1.6
					C483,47,482.3,44.9,483.1,43.2z"/>
			</g>
		</g>
	</g>
</g>
</svg>
