<?xml version="1.0" encoding="utf-8"?>
<!-- Generator: Adobe Illustrator 25.0.0, SVG Export Plug-In . SVG Version: 6.00 Build 0)  -->
<svg version="1.1" id="Layer_1" xmlns="http://www.w3.org/2000/svg" xmlns:xlink="http://www.w3.org/1999/xlink" x="0px" y="0px"
	 viewBox="0 0 56 56" style="enable-background:new 0 0 56 56;" xml:space="preserve">
<style type="text/css">
	.st0{clip-path:url(#SVGID_2_);}
	.st1{fill:#FFDE7C;}
	.st2{fill:#FFC824;}
	.st3{fill:#FFBD85;}
	.st4{fill:#A89E9F;}
	.st5{fill:#F0EFEF;}
	.st6{fill:#D3CECF;}
	.st7{fill:#50B2D2;}
	.st8{fill:#249FC7;}
	.st9{fill:#74A2C0;}
	.st10{fill:#518BB0;}
	.st11{fill:#35414D;}
	.st12{fill:none;}
	.st13{fill:#E2DFDF;}
</style>
<g>
	<g>
		<defs>
			<rect id="SVGID_1_" x="8" y="8" width="40" height="40"/>
		</defs>
		<clipPath id="SVGID_2_">
			<use xlink:href="#SVGID_1_"  style="overflow:visible;"/>
		</clipPath>
		<g class="st0">
			<g>
				<path class="st1" d="M8.6,8.6h35.1v37H8.6V8.6z"/>
			</g>
			<g>
				<path class="st2" d="M8.6,8.6h5v37h-5V8.6z"/>
			</g>
			<g>
				<path class="st3" d="M29.9,17.4L28,16.1l-1.9,1.3l-1.9-1.3l-1.9,1.3V8.6h7.5V17.4z"/>
			</g>
			<g>
				<path class="st4" d="M19.9,31.8l-4.4,5h1.9v8.8h5v-8.8h1.9L19.9,31.8z"/>
			</g>
			<g>
				<path class="st5" d="M11.1,20.5h16.3v5H11.1V20.5z"/>
			</g>
			<g>
				<path class="st6" d="M11.1,20.5h2.5v5h-2.5V20.5z"/>
			</g>
			<g>
				<path class="st7" d="M47.4,47.4H31.1v-10c0-1,0.9-1.9,1.9-1.9h12.5c1,0,1.9,0.9,1.9,1.9L47.4,47.4L47.4,47.4z"/>
			</g>
			<g>
				<path class="st8" d="M35.5,35.5H33c-1,0-1.9,0.9-1.9,1.9v10h2.5v-10C33.6,36.3,34.5,35.5,35.5,35.5z"/>
			</g>
			<g>
				<path class="st9" d="M41.1,39.9c0-1-0.9-1.9-1.9-1.9s-1.9,0.9-1.9,1.9c0,0.7,0.4,1.3,1,1.7l-1,3.4h3.8l-1-3.4
					C40.8,41.2,41.1,40.6,41.1,39.9z"/>
			</g>
			<g>
				<path class="st10" d="M38.6,39.9c0-0.8,0.5-1.5,1.3-1.8c-0.2-0.1-0.4-0.1-0.6-0.1c-1,0-1.9,0.9-1.9,1.9c0,0.7,0.4,1.3,1,1.7
					l-1,3.4h1.3l1-3.4C39,41.2,38.6,40.6,38.6,39.9z"/>
			</g>
			<g>
				<path class="st11" d="M28,25.5v-5c0-0.3-0.3-0.6-0.6-0.6H11.1c-0.3,0-0.6,0.3-0.6,0.6v5c0,0.3,0.3,0.6,0.6,0.6h16.3
					C27.7,26.1,28,25.8,28,25.5z M26.8,24.9H11.7v-3.8h15.1L26.8,24.9L26.8,24.9z"/>
			</g>
			<g>
				<path class="st11" d="M16.7,28.6c0-0.3-0.3-0.6-0.6-0.6h-5c-0.3,0-0.6,0.3-0.6,0.6c0,0.3,0.3,0.6,0.6,0.6h5
					C16.4,29.2,16.7,29,16.7,28.6z"/>
			</g>
			<g>
				<path class="st11" d="M18,28c-0.3,0-0.6,0.3-0.6,0.6c0,0.3,0.3,0.6,0.6,0.6h2.5c0.3,0,0.6-0.3,0.6-0.6c0-0.3-0.3-0.6-0.6-0.6H18
					z"/>
			</g>
			<g>
				<path class="st11" d="M11.1,30.5c-0.3,0-0.6,0.3-0.6,0.6c0,0.3,0.3,0.6,0.6,0.6h3.1c0.3,0,0.6-0.3,0.6-0.6
					c0-0.3-0.3-0.6-0.6-0.6H11.1z"/>
			</g>
			<path class="st11" d="M46.4,34.8v-3c0-1.6-0.7-3.2-1.9-4.3V13.3c0-0.5-0.4-0.9-0.9-0.9c-0.5,0-0.9,0.4-0.9,0.9v13
				c-0.7-0.3-1.5-0.4-2.2-0.4h-2.5c-3.3,0-5.9,2.6-5.9,5.9v3c-1.1,0.4-1.9,1.4-1.9,2.6v7.2h-7v-7h1c0.3,0,0.7-0.2,0.8-0.5
				c0.1-0.3,0.1-0.7-0.1-1l-4.4-5c-0.2-0.2-0.4-0.3-0.7-0.3c-0.3,0-0.5,0.1-0.6,0.3l-4.4,5c-0.2,0.3-0.3,0.6-0.1,1
				c0.1,0.3,0.5,0.5,0.8,0.5h1v7h-7V9.5h12v7.9c0,0.3,0.2,0.6,0.5,0.8c0.3,0.2,0.6,0.1,0.9-0.1l1.4-0.9l1.4,0.9c0.3,0.2,0.7,0.2,1,0
				l1.4-0.9l1.4,0.9c0.3,0.2,0.6,0.2,0.9,0.1c0.3-0.2,0.5-0.5,0.5-0.8V9.5h12v1c0,0.5,0.4,0.9,0.9,0.9c0.5,0,0.9-0.4,0.9-0.9V8.6
				c0-0.5-0.4-0.9-0.9-0.9H8.6c-0.5,0-0.9,0.4-0.9,0.9v37c0,0.5,0.4,0.9,0.9,0.9h21.6v1c0,0.5,0.4,0.9,0.9,0.9h16.3
				c0.5,0,0.9-0.4,0.9-0.9v-10C48.3,36.2,47.5,35.1,46.4,34.8z M40.5,28.4H38c-1.9,0-3.4,1.5-3.4,3.4v2.9h-0.7v-2.9
				c0-2.3,1.9-4.1,4.1-4.1h2.5c2.3,0,4.1,1.9,4.1,4.1v2.9h-0.7v-2.9C43.9,29.9,42.4,28.4,40.5,28.4z M36.4,31.8
				c0-0.9,0.7-1.6,1.6-1.6h2.5c0.9,0,1.6,0.7,1.6,1.6v2.9h-5.7V31.8z M46.5,37.4v9.1H32v-9.1c0-0.5,0.4-1,1-1h12.5
				C46.1,36.4,46.5,36.8,46.5,37.4z M17.4,35.9l2.4-2.8l2.4,2.8c-0.5,0-0.8,0.4-0.8,0.9v7.9h-3.2v-7.9
				C18.2,36.3,17.9,35.9,17.4,35.9z M23.3,15.7V9.5H29v6.2l-0.5-0.3c-0.3-0.2-0.7-0.2-1,0l-1.4,0.9l-1.4-0.9
				c-0.1-0.1-0.3-0.2-0.5-0.2c-0.2,0-0.3,0.1-0.5,0.2L23.3,15.7z"/>
			<g>
				<path class="st11" d="M41.7,39.9c0-1.4-1.1-2.5-2.5-2.5c-1.4,0-2.5,1.1-2.5,2.5c0,0.7,0.3,1.4,0.9,1.9l-0.9,3
					c-0.1,0.4,0.2,0.7,0.6,0.7h3.8c0.4,0,0.7-0.4,0.6-0.7l-0.9-3C41.4,41.3,41.7,40.6,41.7,39.9z M39.6,41.7l0.7,2.6h-2.2l0.7-2.6
					c0.1-0.3-0.1-0.5-0.3-0.7c-0.4-0.2-0.7-0.7-0.7-1.1c0-0.7,0.6-1.3,1.3-1.3c0.7,0,1.3,0.6,1.3,1.3c0,0.5-0.3,0.9-0.7,1.1
					C39.7,41.1,39.5,41.4,39.6,41.7z"/>
			</g>
			<rect x="43.6" y="33.6" class="st6" width="1.3" height="2.8"/>
			<rect x="33.6" y="33.6" class="st6" width="1.3" height="2.8"/>
			<path class="st12" d="M40.5,28.7H38c-1.7,0-3.1,1.4-3.1,3.1v4.6h8.7v-4.6C43.6,30,42.2,28.7,40.5,28.7z"/>
			<path class="st13" d="M34.9,31.8c0-1.7,1.4-3.1,3.1-3.1h2.5c1.7,0,3.1,1.4,3.1,3.1v4.6h1.3v-4.6c0-2.4-2-4.4-4.4-4.4H38
				c-2.4,0-4.4,2-4.4,4.4v4.6h1.3V31.8z"/>
		</g>
	</g>
</g>
</svg>
