<?xml version="1.0" encoding="utf-8"?>
<!-- Generator: Adobe Illustrator 25.0.0, SVG Export Plug-In . SVG Version: 6.00 Build 0)  -->
<svg version="1.1" id="Layer_1" xmlns="http://www.w3.org/2000/svg" xmlns:xlink="http://www.w3.org/1999/xlink" x="0px" y="0px"
	 viewBox="0 0 56 56" style="enable-background:new 0 0 56 56;" xml:space="preserve">
<style type="text/css">
	.st0{fill:#FF415B;}
	.st1{fill:#FFFFFF;}
	.st2{fill:#FFB655;}
	.st3{fill:#B6BAF2;}
	.st4{fill:#5E6E82;}
	.st5{fill:#35414D;}
</style>
<g>
	<path class="st0" d="M17.9,28.9l-7.9-8c-1.5-1.5-1.5-4,0-5.5l6.8-6.8L46,38l-6.9,6.9c-1.5,1.5-3.9,1.5-5.3,0L26.9,38L17.9,28.9z"/>
	<path class="st1" d="M15.9,17c0.8,0.8,0.8,2,0,2.8c-0.8,0.8-2,0.8-2.8,0c-0.8-0.8-0.8-2,0-2.8C13.9,16.2,15.2,16.2,15.9,17z"/>
	<path class="st2" d="M35.4,11.1l9,9.1l-24,24.4l-9-9.1L35.4,11.1z"/>
	<path class="st3" d="M20.4,44.6l-1,1c-2.5,2.5-6.5,2.5-9,0c-2.5-2.5-2.5-6.6,0-9.1l1-1L20.4,44.6z"/>
	<path class="st4" d="M47.4,8.9l-5.5,1l4.1,4.2L47.4,8.9z"/>
	<path class="st1" d="M42,9.9l-6.6,1.2l9,9.1l1.6-6.2L42,9.9z"/>
	<path class="st5" d="M31.6,20.7L31.6,20.7c0.2,0.1,0.3,0.2,0.5,0.2c0.3,0,0.5-0.1,0.7-0.4c0.2-0.4,0.1-0.9-0.3-1.1l-0.1,0
		c-0.4-0.2-0.9-0.1-1.1,0.3C31.1,19.9,31.2,20.4,31.6,20.7z"/>
	<path class="st5" d="M31.8,37.4L31.8,37.4c-0.4-0.3-1-0.2-1.2,0.2c-0.2,0.4-0.1,0.9,0.3,1.1l0.1,0c0.1,0.1,0.3,0.1,0.4,0.1
		c0.3,0,0.5-0.1,0.7-0.4C32.3,38.2,32.2,37.7,31.8,37.4z"/>
	<path class="st5" d="M14.9,48c-1.9,0-3.6-0.7-4.9-2.1c-1.3-1.3-2-3.1-2-5s0.7-3.6,2-5l7.1-7.2l-7.6-7.6c-0.8-0.8-1.3-1.9-1.3-3.1
		s0.5-2.3,1.3-3.1l6.8-6.9C16.4,8.1,16.6,8,16.7,8c0.1,0,0.3,0.1,0.4,0.2l8,8l0,0c0,0,0,0,0.1,0.1c0,0,0,0,0,0.1l0,0l2.1,2.1
		l7.7-7.8c0,0,0,0,0.1-0.1l0,0l0,0c0,0,0,0,0,0c0,0,0.1,0,0.1,0c0,0,0.1,0,0.1,0l12-2.2c0,0,0.1,0,0.1,0c0.2,0,0.3,0.1,0.4,0.2
		C48,8.6,48,8.8,48,9l-3,11.4c0,0,0,0,0,0.1c0,0,0,0,0,0.1c0,0,0,0,0,0.1c0,0,0,0-0.1,0.1l-7.6,7.7l9.2,9.2c0.1,0.1,0.2,0.2,0.2,0.4
		c0,0.1-0.1,0.3-0.2,0.4l-6.9,6.9c-0.8,0.8-1.9,1.3-3,1.3c-1.1,0-2.2-0.4-3-1.3l-6.5-6.5l-7.1,7.2C18.5,47.3,16.8,48,14.9,48z
		 M10.8,36.8c-1.1,1.1-1.7,2.6-1.7,4.2c0,1.6,0.6,3.1,1.7,4.2c1.1,1.1,2.6,1.7,4.1,1.7c1.6,0,3-0.6,4.1-1.7l0.6-0.6l-8.2-8.3
		L10.8,36.8z M27.7,37.9l6.5,6.5c0.6,0.6,1.4,0.9,2.2,0.9c0.8,0,1.6-0.3,2.2-0.9l6.5-6.5L43.4,36l-1.9,1.9c-0.1,0.1-0.2,0.2-0.4,0.2
		c-0.1,0-0.3-0.1-0.4-0.2c-0.2-0.2-0.2-0.6,0-0.8l1.9-1.9l-3-3l-1.9,1.9c-0.1,0.1-0.2,0.2-0.4,0.2c-0.1,0-0.3-0.1-0.4-0.2
		c-0.2-0.2-0.2-0.6,0-0.8l1.8-1.8l-2.4-2.4L27.7,37.9z M18.3,41.6l2.1,2.1l23.3-23.6L41.6,18L18.3,41.6z M29.8,21.6
		c0.1,0,0.3,0.1,0.4,0.2c0.1,0.1,0.2,0.2,0.2,0.4c0,0.2-0.1,0.3-0.2,0.4L14.9,38.2l2.6,2.7l23.3-23.6l-2.6-2.7l-3.6,3.6
		c-0.1,0.1-0.2,0.2-0.4,0.2c-0.1,0-0.3-0.1-0.4-0.2c-0.2-0.2-0.2-0.6,0-0.8l3.6-3.6l-1.9-1.9L12.2,35.4l1.9,1.9l15.3-15.5
		C29.5,21.7,29.6,21.6,29.8,21.6z M10.3,15.8c-0.6,0.6-0.9,1.4-0.9,2.3c0,0.9,0.3,1.7,0.9,2.3l7.6,7.6l8.7-8.8l-1.8-1.8L23,19.2
		c-0.1,0.1-0.2,0.2-0.4,0.2c-0.1,0-0.3-0.1-0.4-0.2c-0.2-0.2-0.2-0.6,0-0.8l1.8-1.8l-2.7-2.7l-1.8,1.8c-0.1,0.1-0.2,0.2-0.4,0.2
		c-0.1,0-0.3-0.1-0.4-0.2c-0.1-0.1-0.2-0.2-0.2-0.4c0-0.2,0.1-0.3,0.2-0.4l1.8-1.8l-3.7-3.7L10.3,15.8z M36.6,11.4l7.6,7.7l1.3-4.9
		l-3.7-3.7L36.6,11.4z M43.1,10.2l2.7,2.7l0.9-3.4L43.1,10.2z"/>
	<path class="st5" d="M14.5,20.9c-0.7,0-1.3-0.3-1.8-0.7C12.3,19.7,12,19,12,18.3c0-0.7,0.3-1.3,0.7-1.8c0.5-0.5,1.1-0.7,1.8-0.7
		s1.3,0.3,1.8,0.7c0.5,0.5,0.7,1.1,0.7,1.8c0,0.7-0.3,1.3-0.7,1.8C15.9,20.6,15.2,20.9,14.5,20.9z M14.5,16.9c-0.4,0-0.7,0.1-1,0.4
		c-0.3,0.3-0.4,0.6-0.4,1s0.1,0.7,0.4,1c0.3,0.3,0.6,0.4,1,0.4c0.4,0,0.7-0.1,1-0.4c0.3-0.3,0.4-0.6,0.4-1s-0.1-0.7-0.4-1
		C15.3,17.1,14.9,16.9,14.5,16.9z"/>
	<path class="st5" d="M35.9,43.5c-0.1,0-0.3-0.1-0.4-0.2L33.3,41c-0.1-0.1-0.2-0.2-0.2-0.4c0-0.2,0.1-0.3,0.2-0.4
		c0.1-0.1,0.2-0.2,0.4-0.2c0.1,0,0.3,0.1,0.4,0.2l1.9,1.9l1.9-1.9c0.1-0.1,0.2-0.2,0.4-0.2c0.1,0,0.3,0.1,0.4,0.2
		c0.1,0.1,0.2,0.2,0.2,0.4s-0.1,0.3-0.2,0.4l-2.3,2.3C36.2,43.4,36.1,43.5,35.9,43.5z"/>
</g>
</svg>
