<svg width="55" height="55" viewBox="0 0 55 55" fill="none" xmlns="http://www.w3.org/2000/svg">
<path d="M48.2008 50.8V51.7C48.2008 53.1 47.1008 54.2 45.7008 54.2H3.30078C1.90078 54.2 0.800781 53.1 0.800781 51.7V44.1C0.800781 45.5 1.90078 46.6 3.30078 46.6L39.2008 49.8L48.2008 50.8Z" fill="#FFCA8C"/>
<path d="M39.9008 50.7H3.30078C1.90078 50.7 0.800781 49.6 0.800781 48.2V16.6H48.2008V50.7H39.9008Z" fill="#FFEBD2"/>
<path d="M48.2008 16.6V24.2C35.4008 35.9 18.0008 40.7 0.800781 36.8V16.6H48.2008Z" fill="#FFF7ED"/>
<path d="M27.5996 41.8H32.4996V46.7H27.5996V41.8Z" fill="#FFD9AD"/>
<path d="M16.5996 41.8H21.4996V46.7H16.5996V41.8Z" fill="#FFD9AD"/>
<path d="M5.5 41.8H10.4V46.7H5.5V41.8Z" fill="#FFD9AD"/>
<path d="M38.5996 32.3H43.4996V37.2H38.5996V32.3Z" fill="#FFD9AD"/>
<path d="M27.5996 32.3H32.4996V37.2H27.5996V32.3Z" fill="#FFD9AD"/>
<path d="M16.5996 32.3H21.4996V37.2H16.5996V32.3Z" fill="#FFD9AD"/>
<path d="M5.5 32.3H10.4V37.2H5.5V32.3Z" fill="#FFD9AD"/>
<path d="M38.5996 22.8H43.4996V27.7H38.5996V22.8Z" fill="#FFD9AD"/>
<path d="M27.5996 22.8H32.4996V27.7H27.5996V22.8Z" fill="#FFD9AD"/>
<path d="M16.5996 22.8H21.4996V27.7H16.5996V22.8Z" fill="#FFD9AD"/>
<path d="M5.5 22.8H10.4V27.7H5.5V22.8Z" fill="#FFD9AD"/>
<path d="M48.2008 12.8V18.6H0.800781V12.8C0.800781 11.4 1.90078 10.3 3.30078 10.3H45.8008C47.1008 10.4 48.2008 11.5 48.2008 12.8Z" fill="#FF646F"/>
<path d="M34.7005 9.09999C34.3005 5.99999 39.3005 5.99999 38.9005 9.09999L38.4005 13.2C38.2005 15 35.5005 15 35.3005 13.2L34.7005 9.09999Z" fill="#CBE3FA"/>
<path d="M37.1008 14.5C36.3008 14.7 35.3008 14.2 35.2008 13.2L34.7008 9.09999C34.4008 6.49999 37.7008 6.09999 38.7008 7.79999C37.5008 7.79999 36.4008 8.59999 36.6008 10.2C37.1008 14.5 37.1008 14.3 37.1008 14.5Z" fill="#EEF7FF"/>
<path d="M22.3998 9.09999C21.9998 5.99999 26.9998 5.99999 26.5998 9.09999L26.0998 13.2C25.8998 15 23.1998 15 22.9998 13.2L22.3998 9.09999Z" fill="#CBE3FA"/>
<path d="M24.8997 14.5C24.0997 14.7 23.0997 14.2 22.9997 13.2L22.4997 9.09999C22.1997 6.49999 25.4997 6.09999 26.4997 7.79999C25.2997 7.79999 24.1997 8.59999 24.3997 10.2C24.8997 14.5 24.7997 14.3 24.8997 14.5Z" fill="#EEF7FF"/>
<path d="M10.2005 9.09999C9.80054 5.99999 14.8005 5.99999 14.3005 9.09999L13.8005 13.2C13.6005 15 10.9005 15 10.7005 13.2L10.2005 9.09999Z" fill="#CBE3FA"/>
<path d="M12.6008 14.5C11.8008 14.7 10.8008 14.2 10.7008 13.2L10.2008 9.09999C9.90084 6.49999 13.2008 6.09999 14.2008 7.79999C13.0008 7.79999 11.9008 8.59999 12.1008 10.2C12.6008 14.5 12.6008 14.3 12.6008 14.5Z" fill="#EEF7FF"/>
<path d="M45.8 9.49999H39.7V9.19999C40.3 4.89999 33.3 4.79999 33.9 9.19999V9.49999H30.3C29.8 9.49999 29.5 9.89999 29.5 10.3C29.5 10.8 29.9 11.1 30.3 11.1H34.1L34.4 13.2C34.8 16 38.8 16 39.1 13.2L39.4 11.1H45.8C46.7 11.1 47.4 11.8 47.4 12.7V17.7H1.6V12.7C1.6 11.8 2.3 11.1 3.2 11.1H9.6L9.9 13.2C10.3 16 14.3 16 14.6 13.2L15.1 9.09999C15.7 4.79999 8.7 4.69999 9.3 9.09999V9.39999H3.3C1.5 9.49999 0 11 0 12.8V51.7C0 53.5 1.5 55 3.3 55H45.8C47.6 55 49.1 53.5 49.1 51.7V12.8C49 11 47.6 9.49999 45.8 9.49999ZM38.1 8.99999L37.6 13.1C37.5 14 36.2 14 36.1 13.1L35.5 8.99999C35.3 7.09999 38.3 6.99999 38.1 8.99999ZM13.5 8.99999L13 13.1C12.9 14 11.6 14 11.5 13.1L11 8.99999C10.7 6.99999 13.8 7.09999 13.5 8.99999ZM47.4 41.2V41.6V44.4V46.8V51.8C47.4 52.7 46.7 53.4 45.8 53.4H3.3C2.4 53.4 1.7 52.7 1.7 51.8V51.2C2.2 51.5 2.7 51.6 3.3 51.6H47.8C48 51.6 47.8 50 47.8 50H3.3C2.4 50 1.7 49.3 1.7 48.4V19.5H47.5V41.2H47.4Z" fill="#35414D"/>
<path d="M17.8004 11.2H21.8004L22.1004 13.3C22.5004 16.1 26.5004 16.1 26.8004 13.3L27.3004 9.2C27.9004 4.9 20.9004 4.8 21.5004 9.2V9.5H17.7004C17.2004 9.5 16.9004 9.9 16.9004 10.3C16.9004 10.7 17.4004 11.2 17.8004 11.2ZM25.8004 9L25.3004 13.1C25.2004 14 23.9004 14 23.8004 13.1L23.2004 9C23.0004 7.1 26.1004 7 25.8004 9Z" fill="#35414D"/>
<path d="M16.6006 28.5H21.5006C22.0006 28.5 22.3006 28.1 22.3006 27.7V22.8C22.3006 22.3 21.9006 22 21.5006 22H16.6006C16.1006 22 15.8006 22.4 15.8006 22.8V27.7C15.7006 28.2 16.1006 28.5 16.6006 28.5ZM17.4006 23.6H20.7006V26.9H17.4006V23.6Z" fill="#35414D"/>
<path d="M5.49922 28.5H10.3992C10.8992 28.5 11.1992 28.1 11.1992 27.7V22.8C11.1992 22.3 10.7992 22 10.3992 22H5.49922C4.99922 22 4.69922 22.4 4.69922 22.8V27.7C4.69922 28.2 5.09922 28.5 5.49922 28.5ZM6.29922 23.6H9.59922V26.9H6.29922V23.6Z" fill="#35414D"/>
<path d="M27.6008 28.5H32.5008C33.0008 28.5 33.3008 28.1 33.3008 27.7V22.8C33.3008 22.3 32.9008 22 32.5008 22H27.6008C27.1008 22 26.8008 22.4 26.8008 22.8V27.7C26.8008 28.2 27.1008 28.5 27.6008 28.5ZM28.4008 23.6H31.7008V26.9H28.4008V23.6Z" fill="#35414D"/>
<path d="M38.6008 28.5H43.5008C44.0008 28.5 44.3008 28.1 44.3008 27.7V22.8C44.3008 22.3 43.9008 22 43.5008 22H38.6008C38.1008 22 37.8008 22.4 37.8008 22.8V27.7C37.8008 28.2 38.2008 28.5 38.6008 28.5ZM39.4008 23.6H42.7008V26.9H39.4008V23.6Z" fill="#35414D"/>
<path d="M16.6006 38.1H21.5006C22.0006 38.1 22.3006 37.7 22.3006 37.3V32.4C22.3006 31.9 21.9006 31.6 21.5006 31.6H16.6006C16.1006 31.6 15.8006 32 15.8006 32.4V37.3C15.7006 37.7 16.1006 38.1 16.6006 38.1ZM17.4006 33.1H20.7006V36.4H17.4006V33.1Z" fill="#35414D"/>
<path d="M5.49922 38.1H10.3992C10.8992 38.1 11.1992 37.7 11.1992 37.3V32.4C11.1992 31.9 10.7992 31.6 10.3992 31.6H5.49922C4.99922 31.6 4.69922 32 4.69922 32.4V37.3C4.69922 37.7 5.09922 38.1 5.49922 38.1ZM6.29922 33.1H9.59922V36.4H6.29922V33.1Z" fill="#35414D"/>
<path d="M27.6008 38.1H32.5008C33.0008 38.1 33.3008 37.7 33.3008 37.3V32.4C33.3008 31.9 32.9008 31.6 32.5008 31.6H27.6008C27.1008 31.6 26.8008 32 26.8008 32.4V37.3C26.8008 37.7 27.1008 38.1 27.6008 38.1ZM28.4008 33.1H31.7008V36.4H28.4008V33.1Z" fill="#35414D"/>
<path d="M38.6008 38.1H43.5008C44.0008 38.1 44.3008 37.7 44.3008 37.3V32.4C44.3008 31.9 43.9008 31.6 43.5008 31.6H38.6008C38.1008 31.6 37.8008 32 37.8008 32.4V37.3C37.8008 37.7 38.2008 38.1 38.6008 38.1ZM39.4008 33.1H42.7008V36.4H39.4008V33.1Z" fill="#35414D"/>
<path d="M16.6006 47.6H21.5006C22.0006 47.6 22.3006 47.2 22.3006 46.8V41.9C22.3006 41.4 21.9006 41.1 21.5006 41.1H16.6006C16.1006 41.1 15.8006 41.5 15.8006 41.9V46.8C15.7006 47.2 16.1006 47.6 16.6006 47.6ZM17.4006 42.7H20.7006V46H17.4006V42.7Z" fill="#35414D"/>
<path d="M5.49922 47.6H10.3992C10.8992 47.6 11.1992 47.2 11.1992 46.8V41.9C11.1992 41.4 10.7992 41.1 10.3992 41.1H5.49922C4.99922 41.1 4.69922 41.5 4.69922 41.9V46.8C4.69922 47.2 5.09922 47.6 5.49922 47.6ZM6.29922 42.7H9.59922V46H6.29922V42.7Z" fill="#35414D"/>
<path d="M27.6008 47.6H32.5008C33.0008 47.6 33.3008 47.2 33.3008 46.8V41.9C33.3008 41.4 32.9008 41.1 32.5008 41.1H27.6008C27.1008 41.1 26.8008 41.5 26.8008 41.9V46.8C26.8008 47.2 27.1008 47.6 27.6008 47.6ZM28.4008 42.7H31.7008V46H28.4008V42.7Z" fill="#35414D"/>
<path d="M38.5996 41.8H43.4996V46.7H38.5996V41.8Z" fill="#FFD9AD"/>
<path d="M38.6008 47.6H43.5008C44.0008 47.6 44.3008 47.2 44.3008 46.8V41.9C44.3008 41.4 43.9008 41.1 43.5008 41.1H38.6008C38.1008 41.1 37.8008 41.5 37.8008 41.9V46.8C37.8008 47.2 38.2008 47.6 38.6008 47.6ZM39.4008 42.7H42.7008V46H39.4008V42.7Z" fill="#35414D"/>
<path d="M32.5 11.6C32.5 5.6 37.4 0.699997 43.4 0.699997C49.4 0.699997 54.3 5.6 54.3 11.6C54.3 17.6 49.4 22.5 43.4 22.5C37.4 22.5 32.5 17.7 32.5 11.6Z" fill="#98DB7C"/>
<path d="M35.4004 11.6C35.4004 7.2 39.0004 3.6 43.4004 3.6C47.8004 3.6 51.4004 7.2 51.4004 11.6C51.4004 16 47.8004 19.6 43.4004 19.6C39.0004 19.6 35.4004 16.1 35.4004 11.6Z" fill="#98DB7C"/>
<path d="M43.4004 0.699997C43.1004 0.699997 42.7004 0.699997 42.4004 0.699997C48.0004 1.2 52.3004 5.9 52.3004 11.6C52.3004 17.3 47.9004 22 42.4004 22.5C42.7004 22.5 43.1004 22.5 43.4004 22.5C49.4004 22.5 54.3004 17.6 54.3004 11.6C54.3004 5.6 49.4004 0.699997 43.4004 0.699997Z" fill="#6ACB44"/>
<path d="M43.4004 3.6C43.1004 3.6 42.7004 3.6 42.4004 3.7C46.3004 4.2 49.4004 7.6 49.4004 11.6C49.4004 15.7 46.4004 19 42.4004 19.5C42.7004 19.5 43.1004 19.6 43.4004 19.6C47.8004 19.6 51.4004 16 51.4004 11.6C51.4004 7.2 47.8004 3.6 43.4004 3.6Z" fill="#98DB7C"/>
<path d="M43.4008 23.3C37.0008 23.3 31.8008 18.1 31.8008 11.7C31.8008 5.2 37.0008 0 43.4008 0C49.8008 0 55.0008 5.2 55.0008 11.6C55.0008 18 49.8008 23.3 43.4008 23.3ZM43.4008 1.4C37.8008 1.4 33.2008 6 33.2008 11.6C33.2008 17.2 37.8008 21.8 43.4008 21.8C49.0008 21.8 53.6008 17.2 53.6008 11.6C53.6008 6 49.0008 1.4 43.4008 1.4Z" fill="#35414D"/>
<path d="M43.4016 19.9C38.8016 19.9 35.1016 16.2 35.1016 11.6C35.1016 7 38.8016 3.3 43.4016 3.3C48.0016 3.3 51.7016 7 51.7016 11.6C51.7016 16.2 48.0016 19.9 43.4016 19.9ZM43.4016 3.9C39.2016 3.9 35.7016 7.4 35.7016 11.6C35.7016 15.8 39.2016 19.3 43.4016 19.3C47.6016 19.3 51.1016 15.8 51.1016 11.6C51.1016 7.4 47.6016 3.9 43.4016 3.9Z" fill="#98DB7C"/>
<path d="M40.9016 18.3L42.6016 10.6C42.7016 10.4 42.7016 10.1 42.8016 9.8C42.8016 9.6 42.9016 9.3 43.0016 9C43.1016 8.7 43.2016 8.5 43.3016 8.2C43.1016 8.4 42.9016 8.5 42.7016 8.7C42.5016 8.9 42.3016 9 42.1016 9.1L40.2016 10.3L38.6016 8L44.5016 4.3H47.5016L44.6016 18.3H40.9016Z" fill="#35414D"/>
</svg>
