<svg width="309" height="428" viewBox="0 0 309 428" fill="none" xmlns="http://www.w3.org/2000/svg">
<path d="M63.4009 166.163L35.1797 149.838V117.314L63.4009 100.989L91.622 117.314V149.965L63.4009 166.163ZM35.3062 149.711L63.2743 165.91L91.2424 149.711V117.441L63.4009 101.242L35.3062 117.441V149.711Z" fill="#DBDBDB"/>
<path d="M91.4985 312.458L63.2773 296.132V263.482L91.4985 247.157L119.72 263.482V296.132L91.4985 312.458ZM63.5304 295.879L91.4985 312.078L119.467 295.879V263.482L91.4985 247.283L63.5304 263.482V295.879Z" fill="#DBDBDB"/>
<path d="M63.4009 361.18L35.1797 344.855V312.205L63.4009 295.879L91.622 312.205V344.855L63.4009 361.18ZM35.3062 344.729L63.2743 360.927L91.2424 344.729V312.331L63.4009 296.132L35.4328 312.331V344.729H35.3062Z" fill="#DBDBDB"/>
<path d="M119.592 361.18L91.3711 344.855V312.205L119.592 295.879L147.813 312.205V344.855L119.592 361.18ZM91.6242 344.729L119.592 360.927L147.56 344.729V312.331L119.592 296.132L91.6242 312.331V344.729Z" fill="#DBDBDB"/>
<path d="M175.909 361.18L147.688 344.855V312.205L175.909 295.879L204.13 312.205V344.855L175.909 361.18ZM147.814 344.729L175.782 360.927L203.75 344.729V312.331L175.909 296.132L147.941 312.331V344.729H147.814Z" fill="#DBDBDB"/>
<path d="M232.096 361.18L203.875 344.855V312.205L232.096 295.879L260.317 312.205V344.855L232.096 361.18ZM204.128 344.729L232.096 360.927L260.064 344.729V312.331L232.096 296.132L204.128 312.331V344.729Z" fill="#DBDBDB"/>
<path d="M91.4985 409.903L63.2773 393.578V360.927L91.4985 344.602L119.72 360.927V393.578L91.4985 409.903ZM63.5304 393.451L91.4985 409.65L119.467 393.451V361.054L91.4985 344.855L63.5304 361.054V393.451Z" fill="#DBDBDB"/>
<path d="M147.686 409.903L119.465 393.578V360.927L147.686 344.602L175.907 360.927V393.578L147.686 409.903ZM119.718 393.451L147.686 409.65L175.654 393.451V361.054L147.686 344.855L119.718 361.054V393.451Z" fill="#DBDBDB"/>
<path d="M204.002 409.903L175.781 393.578V360.927L204.002 344.602L232.224 360.927V393.578L204.002 409.903ZM176.034 393.451L204.002 409.65L231.97 393.451V361.054L204.002 344.855L176.034 361.054V393.451Z" fill="#DBDBDB"/>
<path d="M35.3078 428V409.776L63.4024 393.578L91.3705 409.776V428H91.6236V409.65L63.4024 393.325L35.1812 409.65H35.0547V428H35.3078Z" fill="#DBDBDB"/>
<path d="M91.6242 428V409.776L119.592 393.578L147.687 409.776V428H147.813V409.65L119.719 393.325H119.592L91.3711 409.65V428H91.6242Z" fill="#DBDBDB"/>
<path d="M147.814 428V409.776L175.909 393.578L203.877 409.776V428H204.13V409.65L175.909 393.325L147.688 409.65V428H147.814Z" fill="#DBDBDB"/>
<path d="M204.128 428V409.776L232.096 393.578L260.191 409.776V428H260.444V409.65L232.223 393.325H232.096L204.002 409.65H203.875V428H204.128Z" fill="#DBDBDB"/>
<path d="M0 165.277V166.669L17.0846 176.541V218.176L0 228.047V229.566L18.4766 218.936V175.908L0 165.277Z" fill="#DBDBDB"/>
<path d="M54.4189 240.449L17.0859 218.936V175.908L54.4189 154.394L91.7518 175.908V218.936L54.4189 240.449ZM18.478 218.176L54.4189 239.057L90.4863 218.303V176.667L54.4189 155.786L18.3515 176.541V218.176H18.478Z" fill="#DBDBDB"/>
<path d="M127.817 240.449L90.4844 218.936V175.908L127.817 154.394L165.15 175.908V218.936L127.817 240.449ZM91.7499 218.176L127.817 238.931L163.885 218.176V176.541L127.817 155.786L91.7499 176.541V218.176Z" fill="#DBDBDB"/>
<path d="M17.7173 217.797L0 228.047V229.566L17.7173 219.315L53.7847 240.07V281.705L17.7173 302.46L0 292.209V293.728L17.7173 303.979L55.0503 282.465V239.437L17.7173 217.797Z" fill="#DBDBDB"/>
<path d="M91.1181 303.979L53.7852 282.465V239.437L91.1181 217.923L128.451 239.437V282.465L91.1181 303.979ZM55.0507 281.705L91.1181 302.46L127.186 281.705V240.07L91.1181 219.315L55.0507 240.07V281.705Z" fill="#DBDBDB"/>
<path d="M164.392 303.979L127.059 282.465V239.437L164.392 217.923L201.724 239.437V282.465L164.392 303.979ZM128.451 281.705L164.518 302.46L200.585 281.705V240.07L164.518 219.315L128.451 240.07V281.705Z" fill="#DBDBDB"/>
<path d="M0 292.209V293.728L17.0846 303.599V345.235L0 355.106V356.624L18.4766 345.994V302.84L0 292.209Z" fill="#DBDBDB"/>
<path d="M54.4189 367.508L17.0859 345.994V302.966L54.4189 281.452L91.7518 302.966V345.994L54.4189 367.508ZM18.478 345.235L54.4189 365.989L90.4863 345.235V303.599L54.4189 282.844L18.3515 303.599V345.235H18.478Z" fill="#DBDBDB"/>
<path d="M127.817 367.508L90.4844 345.994V302.966L127.817 281.452L165.15 302.966V345.994L127.817 367.508ZM91.7499 345.235L127.817 365.989L163.885 345.235V303.599L127.817 282.844L91.7499 303.599V345.235Z" fill="#DBDBDB"/>
<path d="M0 420.787L12.6552 428H15.1863L0 419.268V420.787Z" fill="#DBDBDB"/>
<path d="M17.7173 344.855L0 355.106V356.624L17.7173 346.374L53.7847 367.128V408.764L20.3749 428H22.906L55.0503 409.523V366.369L17.7173 344.855Z" fill="#DBDBDB"/>
<path d="M88.587 428L55.0507 408.764V367.128L91.1181 346.374L127.186 367.128V408.764L93.6491 428H96.1802L128.451 409.523V366.369L91.1181 344.855L53.7852 366.369V409.523L86.056 428H88.587Z" fill="#DBDBDB"/>
<path d="M161.859 428L128.449 408.764V367.128L164.39 346.374L200.457 367.128V408.764L167.048 428H169.579L201.723 409.523V366.369L164.39 344.855L127.184 366.369V409.523L159.328 428H161.859Z" fill="#DBDBDB"/>
<path d="M0 419.268V420.786L12.6552 428H15.1863L0 419.268Z" fill="#DBDBDB"/>
<path d="M22.906 428L54.4176 409.776L86.0557 428H88.5867L54.4176 408.384L20.375 428H22.906Z" fill="#DBDBDB"/>
<path d="M96.1795 428L127.818 409.776L159.329 428H161.86L127.818 408.384L93.6484 428H96.1795Z" fill="#DBDBDB"/>
<path d="M169.582 428L201.093 409.776L232.731 428H235.262L201.093 408.384L167.051 428H169.582Z" fill="#DBDBDB"/>
<path d="M242.855 428L274.493 409.776L306.005 428H308.536L274.493 408.384L240.324 428H242.855Z" fill="#DBDBDB"/>
<path d="M91.4975 119.339C92.6365 119.339 93.5223 118.453 93.5223 117.314C93.5223 116.175 92.6365 115.289 91.4975 115.289C90.3585 115.289 89.4727 116.175 89.4727 117.314C89.4727 118.453 90.3585 119.339 91.4975 119.339Z" fill="#DBDBDB"/>
<path d="M63.4021 163.506C62.0101 163.506 60.8711 164.645 60.8711 166.037C60.8711 167.429 62.0101 168.568 63.4021 168.568C64.7942 168.568 65.9332 167.429 65.9332 166.037C65.9332 164.645 64.7942 163.506 63.4021 163.506Z" fill="#DBDBDB"/>
<path d="M35.1803 151.483C36.0889 151.483 36.8255 150.747 36.8255 149.838C36.8255 148.929 36.0889 148.193 35.1803 148.193C34.2717 148.193 33.5352 148.929 33.5352 149.838C33.5352 150.747 34.2717 151.483 35.1803 151.483Z" fill="#DBDBDB"/>
<path d="M35.1835 118.58C35.8163 118.58 36.449 118.073 36.449 117.314C36.449 116.681 35.9428 116.048 35.1835 116.048C34.5507 116.048 33.918 116.555 33.918 117.314C33.918 118.073 34.5507 118.58 35.1835 118.58Z" fill="#DBDBDB"/>
<path d="M63.402 104.912C65.4988 104.912 67.1986 103.212 67.1986 101.115C67.1986 99.0185 65.4988 97.3188 63.402 97.3188C61.3053 97.3188 59.6055 99.0185 59.6055 101.115C59.6055 103.212 61.3053 104.912 63.402 104.912Z" fill="#DBDBDB"/>
<path d="M91.4958 153.002C93.2676 153.002 94.6596 151.61 94.6596 149.838C94.6596 148.066 93.2676 146.674 91.4958 146.674C89.7241 146.674 88.332 148.066 88.332 149.838C88.332 151.61 89.7241 153.002 91.4958 153.002Z" fill="#DBDBDB"/>
<path d="M63.4029 260.571C61.7577 260.571 60.4922 261.837 60.4922 263.482C60.4922 265.127 61.7577 266.393 63.4029 266.393C65.0481 266.393 66.3136 265.127 66.3136 263.482C66.3136 261.837 64.9215 260.571 63.4029 260.571Z" fill="#DBDBDB"/>
<path d="M35.1828 247.536C35.3226 247.536 35.4359 247.423 35.4359 247.283C35.4359 247.143 35.3226 247.03 35.1828 247.03C35.043 247.03 34.9297 247.143 34.9297 247.283C34.9297 247.423 35.043 247.536 35.1828 247.536Z" fill="#DBDBDB"/>
<path d="M35.1818 217.164C36.5098 217.164 37.5863 216.087 37.5863 214.759C37.5863 213.431 36.5098 212.355 35.1818 212.355C33.8539 212.355 32.7773 213.431 32.7773 214.759C32.7773 216.087 33.8539 217.164 35.1818 217.164Z" fill="#DBDBDB"/>
<path d="M63.4037 196.536C62.2648 196.536 61.3789 197.422 61.3789 198.561C61.3789 199.7 62.2648 200.585 63.4037 200.585C64.5427 200.585 65.4286 199.7 65.4286 198.561C65.4286 197.422 64.4162 196.536 63.4037 196.536Z" fill="#DBDBDB"/>
<path d="M117.82 263.482C117.82 264.494 118.706 265.38 119.719 265.38C120.731 265.38 121.617 264.494 121.617 263.482C121.617 262.47 120.731 261.584 119.719 261.584C118.58 261.71 117.82 262.47 117.82 263.482Z" fill="#DBDBDB"/>
<path d="M91.4966 250.827C93.5214 250.827 95.0401 249.182 95.0401 247.283C95.0401 245.385 93.3949 243.74 91.4966 243.74C89.4718 243.74 87.9531 245.385 87.9531 247.283C87.9531 249.182 89.4718 250.827 91.4966 250.827Z" fill="#DBDBDB"/>
<path d="M119.592 299.043C121.237 299.043 122.629 297.651 122.629 296.006C122.629 294.361 121.237 292.969 119.592 292.969C117.947 292.969 116.555 294.361 116.555 296.006C116.555 297.651 117.947 299.043 119.592 299.043Z" fill="#DBDBDB"/>
<path d="M177.3 296.006C177.3 295.247 176.667 294.614 175.908 294.614C175.148 294.614 174.516 295.247 174.516 296.006C174.516 296.765 175.148 297.398 175.908 297.398C176.667 297.398 177.3 296.765 177.3 296.006Z" fill="#DBDBDB"/>
<path d="M204.003 315.115C205.522 315.115 206.787 313.85 206.787 312.331C206.787 310.813 205.522 309.547 204.003 309.547C202.484 309.547 201.219 310.813 201.219 312.331C201.219 313.85 202.484 315.115 204.003 315.115Z" fill="#DBDBDB"/>
<path d="M234.882 296.006C234.882 294.487 233.616 293.348 232.224 293.348C230.832 293.348 229.566 294.614 229.566 296.006C229.566 297.525 230.832 298.663 232.224 298.663C233.616 298.663 234.882 297.525 234.882 296.006Z" fill="#DBDBDB"/>
<path d="M260.32 315.368C262.092 315.368 263.484 313.976 263.484 312.205C263.484 310.433 262.092 309.041 260.32 309.041C258.548 309.041 257.156 310.433 257.156 312.205C257.156 313.976 258.548 315.368 260.32 315.368Z" fill="#DBDBDB"/>
<path d="M63.4045 362.699C64.383 362.699 65.1763 361.906 65.1763 360.927C65.1763 359.949 64.383 359.155 63.4045 359.155C62.426 359.155 61.6328 359.949 61.6328 360.927C61.6328 361.906 62.426 362.699 63.4045 362.699Z" fill="#DBDBDB"/>
<path d="M35.1827 346.247C36.0214 346.247 36.7013 345.567 36.7013 344.729C36.7013 343.89 36.0214 343.21 35.1827 343.21C34.344 343.21 33.6641 343.89 33.6641 344.729C33.6641 345.567 34.344 346.247 35.1827 346.247Z" fill="#DBDBDB"/>
<path d="M34.5469 312.205C34.5469 312.584 34.8 312.837 35.1796 312.837C35.5593 312.837 35.8124 312.584 35.8124 312.205C35.8124 311.825 35.5593 311.572 35.1796 311.572C34.8 311.572 34.5469 311.825 34.5469 312.205Z" fill="#DBDBDB"/>
<path d="M63.4029 298.917C65.0104 298.917 66.3136 297.613 66.3136 296.006C66.3136 294.398 65.0104 293.095 63.4029 293.095C61.7954 293.095 60.4922 294.398 60.4922 296.006C60.4922 297.613 61.7954 298.917 63.4029 298.917Z" fill="#DBDBDB"/>
<path d="M89.0938 344.729C89.0938 345.994 90.1062 347.133 91.4982 347.133C92.7638 347.133 93.9027 346.121 93.9027 344.729C93.9027 343.336 92.8903 342.324 91.4982 342.324C90.2327 342.324 89.0938 343.463 89.0938 344.729Z" fill="#DBDBDB"/>
<path d="M93.1419 312.205C93.1419 311.319 92.3826 310.559 91.4967 310.559C90.6109 310.559 89.8516 311.319 89.8516 312.205C89.8516 313.09 90.6109 313.85 91.4967 313.85C92.3826 313.85 93.1419 313.09 93.1419 312.205Z" fill="#DBDBDB"/>
<path d="M147.687 310.939C146.928 310.939 146.422 311.572 146.422 312.205C146.422 312.964 147.055 313.47 147.687 313.47C148.447 313.47 148.953 312.837 148.953 312.205C149.079 311.572 148.447 310.939 147.687 310.939Z" fill="#DBDBDB"/>
<path d="M173.629 360.927C173.629 362.193 174.641 363.205 175.907 363.205C177.172 363.205 178.185 362.193 178.185 360.927C178.185 359.662 177.172 358.649 175.907 358.649C174.641 358.776 173.629 359.788 173.629 360.927Z" fill="#DBDBDB"/>
<path d="M147.687 341.565C145.916 341.565 144.523 342.957 144.523 344.729C144.523 346.5 145.916 347.892 147.687 347.892C149.459 347.892 150.851 346.5 150.851 344.729C150.851 342.957 149.459 341.565 147.687 341.565Z" fill="#DBDBDB"/>
<path d="M260.318 348.145C262.217 348.145 263.735 346.627 263.735 344.729C263.735 342.83 262.217 341.312 260.318 341.312C258.42 341.312 256.901 342.83 256.901 344.729C256.775 346.627 258.42 348.145 260.318 348.145Z" fill="#DBDBDB"/>
<path d="M117.441 360.927C117.441 362.066 118.454 363.079 119.593 363.079C120.732 363.079 121.744 362.066 121.744 360.927C121.744 359.788 120.732 358.776 119.593 358.776C118.454 358.902 117.441 359.788 117.441 360.927Z" fill="#DBDBDB"/>
<path d="M119.59 396.995C121.489 396.995 123.134 395.476 123.134 393.451C123.134 391.553 121.615 389.908 119.59 389.908C117.692 389.908 116.047 391.426 116.047 393.451C116.173 395.349 117.692 396.995 119.59 396.995Z" fill="#DBDBDB"/>
<path d="M204.002 348.399C206.029 348.399 207.672 346.755 207.672 344.729C207.672 342.702 206.029 341.059 204.002 341.059C201.975 341.059 200.332 342.702 200.332 344.729C200.332 346.755 201.975 348.399 204.002 348.399Z" fill="#DBDBDB"/>
<path d="M232.095 362.319C232.864 362.319 233.487 361.696 233.487 360.927C233.487 360.158 232.864 359.535 232.095 359.535C231.326 359.535 230.703 360.158 230.703 360.927C230.703 361.696 231.326 362.319 232.095 362.319Z" fill="#DBDBDB"/>
<path d="M260.319 412.434C261.837 412.434 262.976 411.169 262.976 409.776C262.976 408.258 261.711 407.119 260.319 407.119C258.8 407.119 257.661 408.384 257.661 409.776C257.535 411.169 258.8 412.434 260.319 412.434Z" fill="#DBDBDB"/>
<path d="M232.097 397.501C234.333 397.501 236.146 395.688 236.146 393.451C236.146 391.215 234.333 389.402 232.097 389.402C229.86 389.402 228.047 391.215 228.047 393.451C228.047 395.688 229.86 397.501 232.097 397.501Z" fill="#DBDBDB"/>
<path d="M35.6882 409.776C35.6882 409.523 35.4351 409.27 35.182 409.27C34.9289 409.27 34.6758 409.523 34.6758 409.776C34.6758 410.03 34.9289 410.283 35.182 410.283C35.4351 410.283 35.6882 410.03 35.6882 409.776Z" fill="#DBDBDB"/>
<path d="M63.4045 391.679C62.3921 391.679 61.6328 392.439 61.6328 393.451C61.6328 394.464 62.3921 395.223 63.4045 395.223C64.417 395.223 65.1763 394.464 65.1763 393.451C65.0497 392.565 64.2904 391.679 63.4045 391.679Z" fill="#DBDBDB"/>
<path d="M91.4957 405.221C88.9647 405.221 87.0664 407.245 87.0664 409.65C87.0664 412.181 89.0912 414.079 91.4957 414.079C94.0268 414.079 95.9251 412.054 95.9251 409.65C95.9251 407.245 93.9002 405.221 91.4957 405.221Z" fill="#DBDBDB"/>
<path d="M147.685 406.992C146.166 406.992 145.027 408.258 145.027 409.65C145.027 411.169 146.293 412.307 147.685 412.307C149.204 412.307 150.343 411.042 150.343 409.65C150.469 408.258 149.204 406.992 147.685 406.992Z" fill="#DBDBDB"/>
<path d="M175.909 396.488C177.554 396.488 178.946 395.096 178.946 393.451C178.946 391.806 177.554 390.414 175.909 390.414C174.263 390.414 172.871 391.806 172.871 393.451C172.745 395.223 174.137 396.488 175.909 396.488Z" fill="#DBDBDB"/>
<path d="M207.544 409.776C207.544 407.878 206.025 406.233 204 406.233C201.976 406.233 200.457 407.752 200.457 409.776C200.457 411.675 201.976 413.32 204 413.32C206.025 413.32 207.544 411.675 207.544 409.776Z" fill="#DBDBDB"/>
<g opacity="0.2">
<path d="M4.68244 0V34.4222L0 37.0798V37.4595L4.93554 34.5488V0H4.68244Z" fill="#DBDBDB"/>
</g>
<g opacity="0.2">
<path d="M4.93554 153.255H4.80899L0 156.039V156.419L4.80899 153.635L38.9781 173.377V212.861L4.80899 232.603L0 229.819V230.072L4.68244 232.856H4.80899L39.2312 212.988H39.3578V173.124L4.93554 153.255Z" fill="#DBDBDB"/>
</g>
<g opacity="0.2">
<path d="M0 229.819V230.072L4.68244 232.856V272.341L0 274.998V275.378L4.93554 272.467V232.603L0 229.819Z" fill="#DBDBDB"/>
</g>
<g opacity="0.2">
<path d="M39.1058 292.336L4.68359 272.467V232.603H4.81015L39.2324 212.734H39.3589L73.7812 232.603V272.467H73.6546L39.1058 292.336ZM4.9367 272.341L39.1058 292.083L73.2749 272.341V232.856L39.1058 213.114L4.9367 232.856V272.341Z" fill="#DBDBDB"/>
</g>
<g opacity="0.2">
<path d="M107.821 292.336L73.3984 272.467V232.603H73.525L107.947 212.734H108.074L142.496 232.603V272.467H142.369L107.821 292.336ZM73.6515 272.341L107.821 292.083L141.99 272.341V232.856L107.821 213.114L73.6515 232.856V272.341Z" fill="#DBDBDB"/>
</g>
<g opacity="0.2">
<path d="M176.541 292.336L141.992 272.467V232.603H142.119L176.541 212.734H176.668L211.09 232.603V272.467H210.963L176.541 292.336ZM142.372 272.341L176.541 292.083L210.71 272.341V232.856L176.541 213.114L142.372 232.856V272.341Z" fill="#DBDBDB"/>
</g>
<g opacity="0.2">
<path d="M4.93554 272.214H4.80899L0 274.998V275.378L4.80899 272.594L38.9781 292.336V331.82L4.80899 351.436L0 348.778V349.031L4.68244 351.815H4.80899L39.2312 331.947H39.3578V292.083L4.93554 272.214Z" fill="#DBDBDB"/>
</g>
<g opacity="0.2">
<path d="M73.5253 351.815L38.9766 331.947V292.083H39.1031L73.5253 272.214H73.6519L108.074 292.083V331.947H107.948L73.5253 351.815ZM39.3562 331.82L73.5253 351.562L107.694 331.82V292.336L73.5253 272.594L39.3562 292.336V331.82Z" fill="#DBDBDB"/>
</g>
<g opacity="0.2">
<path d="M142.119 351.815L107.57 331.947V292.083H107.697L142.119 272.214H142.246L176.668 292.083V331.947H176.541L142.119 351.815ZM107.95 331.82L142.119 351.562L176.288 331.82V292.336L142.119 272.594L107.95 292.336V331.82Z" fill="#DBDBDB"/>
</g>
<g opacity="0.2">
<path d="M0 348.778V349.031L4.68244 351.815V391.173L0 393.957V394.337L4.93554 391.426V351.562L0 348.778Z" fill="#DBDBDB"/>
</g>
<g opacity="0.2">
<path d="M39.1058 411.295L4.68359 391.426V351.562H4.81015L39.2324 331.694H39.3589L73.7812 351.562V391.426H73.6546L39.1058 411.295ZM4.9367 391.173L39.1058 410.915L73.2749 391.173V351.815L39.1058 332.073L4.9367 351.815V391.173Z" fill="#DBDBDB"/>
</g>
<g opacity="0.2">
<path d="M107.821 411.295L73.3984 391.426V351.562H73.525L107.947 331.694H108.074L142.496 351.562V391.426H142.369L107.821 411.295ZM73.6515 391.173L107.821 410.915L141.99 391.173V351.815L107.821 332.073L73.6515 351.815V391.173Z" fill="#DBDBDB"/>
</g>
<g opacity="0.2">
<path d="M176.541 411.295L141.992 391.426V351.562H142.119L176.541 331.694H176.668L211.09 351.562V391.426H210.963L176.541 411.295ZM142.372 391.173L176.541 410.915L210.71 391.173V351.815L176.541 332.073L142.372 351.815V391.173Z" fill="#DBDBDB"/>
</g>
<g opacity="0.2">
<path d="M4.93554 391.173H4.80899L0 393.957V394.337L4.80899 391.553L38.9781 411.295V422.685H39.3578V411.042L4.93554 391.173Z" fill="#DBDBDB"/>
</g>
<g opacity="0.2">
<path d="M39.3562 422.685V411.295L73.5253 391.553L107.694 411.295V422.685H107.948V411.042L73.5253 391.173L39.1031 411.042H38.9766V422.685H39.3562Z" fill="#DBDBDB"/>
</g>
<g opacity="0.2">
<path d="M107.948 422.685V411.295L142.118 391.553L176.413 411.295V422.685H176.666V411.042L142.244 391.173H142.118L107.822 411.042H107.695V422.685H107.948Z" fill="#DBDBDB"/>
</g>
<g opacity="0.2">
<path d="M176.667 422.685V411.295L210.836 391.553L245.005 411.295V422.685H245.385V411.042L210.963 391.173H210.836L176.414 411.042V422.685H176.667Z" fill="#DBDBDB"/>
</g>
<g opacity="0.2">
<path d="M0 63.2762V65.0479L3.54347 67.1993V117.947L0 119.972V121.743L5.18865 118.833V66.1869L0 63.2762Z" fill="#DBDBDB"/>
</g>
<g opacity="0.2">
<path d="M49.1018 145.156L3.54297 118.833V66.1869L49.1018 39.864L94.6606 66.1869V118.706L49.1018 145.156ZM5.18815 117.947L49.1018 143.384L93.0155 117.947V67.1993L49.1018 41.7623L5.18815 67.1993V117.947Z" fill="#DBDBDB"/>
</g>
<g opacity="0.2">
<path d="M4.42933 117.441L0 119.972V121.743L4.42933 119.212L48.343 144.649V195.397L4.42933 220.834L0 218.303V220.074L4.42933 222.606L49.8616 196.283V143.763L4.42933 117.441Z" fill="#DBDBDB"/>
</g>
<g opacity="0.2">
<path d="M93.9026 222.606L48.3438 196.283V143.763L93.9026 117.441L139.461 143.763V196.283L93.9026 222.606ZM49.8624 195.397L93.776 220.834L137.69 195.397V144.649L93.9026 119.212L49.9889 144.649V195.397H49.8624Z" fill="#DBDBDB"/>
</g>
<g opacity="0.2">
<path d="M0 218.303V220.074L3.54347 222.226V272.973L0 274.998V276.77L5.18865 273.859V221.34L0 218.303Z" fill="#DBDBDB"/>
</g>
<g opacity="0.2">
<path d="M49.1018 300.182L3.54297 273.859V221.34L49.1018 195.017L94.6606 221.34V273.859L49.1018 300.182ZM5.18815 272.973L49.1018 298.41L93.0155 272.973V222.226L49.1018 196.789L5.18815 222.226V272.973Z" fill="#DBDBDB"/>
</g>
<g opacity="0.2">
<path d="M4.42933 272.467L0 274.998V276.77L4.42933 274.239L48.343 299.676V350.423L4.42933 375.86L0 373.329V375.101L4.42933 377.632L49.8616 351.309V298.79L4.42933 272.467Z" fill="#DBDBDB"/>
</g>
<g opacity="0.2">
<path d="M93.9026 377.632L48.3438 351.309V298.79L93.9026 272.467L139.461 298.79V351.309L93.9026 377.632ZM49.8624 350.423L93.9026 375.86L137.816 350.423V299.676L93.9026 274.239L49.9889 299.676V350.423H49.8624Z" fill="#DBDBDB"/>
</g>
<g opacity="0.2">
<path d="M0 373.329V375.101L3.54347 377.253V422.685H5.18865V376.367L0 373.329Z" fill="#DBDBDB"/>
</g>
<g opacity="0.2">
<path d="M5.18815 422.685V377.253L49.1018 351.815L93.142 377.253V422.685H94.6606V376.367L49.1018 350.044L3.54297 376.367V422.685H5.18815Z" fill="#DBDBDB"/>
</g>
<g opacity="0.2">
<path d="M94.6593 422.685V377.253L138.573 351.815L182.613 377.253V422.685H184.132V376.367L138.573 350.044L93.1406 376.367V422.685H94.6593Z" fill="#DBDBDB"/>
</g>
<g opacity="0.2">
<path d="M184.132 422.685V377.253L228.172 351.815L272.086 377.253V422.685H273.731V376.367L228.172 350.044L182.613 376.367V422.685H184.132Z" fill="#DBDBDB"/>
</g>
<path opacity="0.2" d="M4.80984 38.3454C6.96123 38.3454 8.73296 36.5736 8.73296 34.4222C8.73296 32.2708 6.96123 30.4991 4.80984 30.4991C2.65845 30.4991 0.886719 32.2708 0.886719 34.4222C0.886719 36.5736 2.65845 38.3454 4.80984 38.3454Z" fill="#DBDBDB"/>
<path opacity="0.2" d="M36.9531 173.25C36.9531 174.516 37.9655 175.528 39.2311 175.528C40.4966 175.528 41.509 174.516 41.509 173.25C41.509 171.985 40.4966 170.972 39.2311 170.972C37.9655 170.972 36.9531 171.985 36.9531 173.25Z" fill="#DBDBDB"/>
<path opacity="0.2" d="M4.80824 157.811C7.21273 157.811 9.23757 155.912 9.23757 153.381C9.23757 150.977 7.33928 148.952 4.80824 148.952C2.40374 148.952 0.378906 150.85 0.378906 153.381C0.378906 155.786 2.40374 157.811 4.80824 157.811Z" fill="#DBDBDB"/>
<path opacity="0.2" d="M39.1036 216.658C41.1284 216.658 42.7736 215.012 42.7736 212.988C42.7736 210.963 41.1284 209.318 39.1036 209.318C37.0788 209.318 35.4336 210.963 35.4336 212.988C35.4336 214.886 37.0788 216.658 39.1036 216.658Z" fill="#DBDBDB"/>
<path opacity="0.2" d="M109.594 212.861C109.594 211.849 108.835 211.089 107.823 211.089C106.81 211.089 106.051 211.849 106.051 212.861C106.051 213.873 106.81 214.633 107.823 214.633C108.835 214.633 109.594 213.873 109.594 212.861Z" fill="#DBDBDB"/>
<path opacity="0.2" d="M142.12 236.147C144.007 236.147 145.537 234.617 145.537 232.73C145.537 230.843 144.007 229.313 142.12 229.313C140.233 229.313 138.703 230.843 138.703 232.73C138.703 234.617 140.233 236.147 142.12 236.147Z" fill="#DBDBDB"/>
<path opacity="0.2" d="M179.831 212.861C179.831 211.089 178.312 209.571 176.54 209.571C174.769 209.571 173.25 211.089 173.25 212.861C173.25 214.633 174.769 216.151 176.54 216.151C178.312 216.151 179.831 214.759 179.831 212.861Z" fill="#DBDBDB"/>
<path opacity="0.2" d="M210.837 236.653C213.004 236.653 214.76 234.896 214.76 232.73C214.76 230.563 213.004 228.807 210.837 228.807C208.671 228.807 206.914 230.563 206.914 232.73C206.914 234.896 208.671 236.653 210.837 236.653Z" fill="#DBDBDB"/>
<path opacity="0.2" d="M1.89844 272.341C1.89844 273.986 3.16396 275.251 4.80914 275.251C6.45432 275.251 7.71984 273.986 7.71984 272.341C7.71984 270.695 6.45432 269.43 4.80914 269.43C3.29051 269.43 1.89844 270.822 1.89844 272.341Z" fill="#DBDBDB"/>
<path opacity="0.2" d="M6.83483 232.73C6.83483 231.591 5.94896 230.705 4.80999 230.705C3.67102 230.705 2.78516 231.591 2.78516 232.73C2.78516 233.869 3.67102 234.755 4.80999 234.755C5.94896 234.628 6.83483 233.869 6.83483 232.73Z" fill="#DBDBDB"/>
<path opacity="0.2" d="M73.528 234.375C74.4366 234.375 75.1732 233.638 75.1732 232.73C75.1732 231.821 74.4366 231.085 73.528 231.085C72.6194 231.085 71.8828 231.821 71.8828 232.73C71.8828 233.638 72.6194 234.375 73.528 234.375Z" fill="#DBDBDB"/>
<path opacity="0.2" d="M105.164 292.209C105.164 293.728 106.43 294.867 107.822 294.867C109.34 294.867 110.479 293.601 110.479 292.209C110.479 290.817 109.214 289.552 107.822 289.552C106.303 289.425 105.164 290.691 105.164 292.209Z" fill="#DBDBDB"/>
<path opacity="0.2" d="M73.5286 268.418C71.3772 268.418 69.6055 270.189 69.6055 272.341C69.6055 274.492 71.3772 276.264 73.5286 276.264C75.68 276.264 77.4517 274.492 77.4517 272.341C77.4517 270.189 75.68 268.418 73.5286 268.418Z" fill="#DBDBDB"/>
<path opacity="0.2" d="M210.836 276.517C213.143 276.517 215.013 274.647 215.013 272.341C215.013 270.034 213.143 268.164 210.836 268.164C208.53 268.164 206.66 270.034 206.66 272.341C206.66 274.647 208.53 276.517 210.836 276.517Z" fill="#DBDBDB"/>
<path opacity="0.2" d="M39.1029 294.867C40.5707 294.867 41.7605 293.677 41.7605 292.209C41.7605 290.742 40.5707 289.552 39.1029 289.552C37.6352 289.552 36.4453 290.742 36.4453 292.209C36.4453 293.677 37.6352 294.867 39.1029 294.867Z" fill="#DBDBDB"/>
<path opacity="0.2" d="M39.1036 336.123C41.5081 336.123 43.4063 334.225 43.4063 331.82C43.4063 329.416 41.5081 327.517 39.1036 327.517C36.6991 327.517 34.8008 329.416 34.8008 331.82C34.9273 334.225 36.8256 336.123 39.1036 336.123Z" fill="#DBDBDB"/>
<path opacity="0.2" d="M142.117 276.77C144.563 276.77 146.546 274.787 146.546 272.341C146.546 269.894 144.563 267.911 142.117 267.911C139.671 267.911 137.688 269.894 137.688 272.341C137.688 274.787 139.671 276.77 142.117 276.77Z" fill="#DBDBDB"/>
<path opacity="0.2" d="M174.895 292.209C174.895 293.095 175.654 293.854 176.54 293.854C177.426 293.854 178.185 293.095 178.185 292.209C178.185 291.323 177.426 290.564 176.54 290.564C175.654 290.564 174.895 291.323 174.895 292.209Z" fill="#DBDBDB"/>
<path opacity="0.2" d="M210.837 354.979C212.654 354.979 214.128 353.506 214.128 351.689C214.128 349.872 212.654 348.399 210.837 348.399C209.02 348.399 207.547 349.872 207.547 351.689C207.547 353.506 209.02 354.979 210.837 354.979Z" fill="#DBDBDB"/>
<path opacity="0.2" d="M176.539 326.885C173.755 326.885 171.477 329.163 171.477 331.947C171.477 334.731 173.755 337.009 176.539 337.009C179.323 337.009 181.601 334.731 181.601 331.947C181.474 329.036 179.323 326.885 176.539 326.885Z" fill="#DBDBDB"/>
<path opacity="0.2" d="M4.80899 346.247C2.6576 346.247 0.885866 347.386 0 349.158V354.22C0.885866 355.992 2.6576 357.131 4.80899 357.131C7.84624 357.131 10.2507 354.726 10.2507 351.689C10.2507 348.652 7.84624 346.247 4.80899 346.247Z" fill="#DBDBDB"/>
<path opacity="0.2" d="M39.1037 413.446C40.3692 413.446 41.5082 412.434 41.5082 411.042C41.5082 409.776 40.4958 408.637 39.1037 408.637C37.7116 408.637 36.6992 409.65 36.6992 411.042C36.8258 412.434 37.8382 413.446 39.1037 413.446Z" fill="#DBDBDB"/>
<path opacity="0.2" d="M73.5262 395.982C76.0572 395.982 78.2086 393.957 78.2086 391.3C78.2086 388.642 76.1838 386.617 73.5262 386.617C70.8686 386.617 68.8438 388.642 68.8438 391.3C68.8438 393.957 70.8686 395.982 73.5262 395.982Z" fill="#DBDBDB"/>
<path opacity="0.2" d="M73.5286 348.399C71.7569 348.399 70.2383 349.917 70.2383 351.689C70.2383 353.461 71.7569 354.979 73.5286 354.979C75.3004 354.979 76.819 353.461 76.819 351.689C76.819 349.791 75.3004 348.399 73.5286 348.399Z" fill="#DBDBDB"/>
<path opacity="0.2" d="M107.824 335.617C109.849 335.617 111.62 333.972 111.62 331.82C111.62 329.795 109.975 328.024 107.824 328.024C105.799 328.024 104.027 329.669 104.027 331.82C104.027 333.972 105.799 335.617 107.824 335.617Z" fill="#DBDBDB"/>
<path opacity="0.2" d="M146.422 351.689C146.422 349.284 144.524 347.386 142.119 347.386C139.715 347.386 137.816 349.284 137.816 351.689C137.816 354.093 139.715 355.992 142.119 355.992C144.524 355.992 146.422 354.093 146.422 351.689Z" fill="#DBDBDB"/>
<path opacity="0.2" d="M176.542 414.585C178.44 414.585 179.959 413.067 179.959 411.169C179.959 409.27 178.44 407.752 176.542 407.752C174.644 407.752 173.125 409.27 173.125 411.169C173.125 413.067 174.644 414.585 176.542 414.585Z" fill="#DBDBDB"/>
<path opacity="0.2" d="M210.836 394.843C212.793 394.843 214.38 393.257 214.38 391.3C214.38 389.343 212.793 387.756 210.836 387.756C208.879 387.756 207.293 389.343 207.293 391.3C207.293 393.257 208.879 394.843 210.836 394.843Z" fill="#DBDBDB"/>
<path opacity="0.2" d="M4.81079 389.528C3.79838 389.528 3.03906 390.287 3.03906 391.3C3.03906 392.312 3.79838 393.072 4.81079 393.072C5.82321 393.072 6.58253 392.312 6.58253 391.3C6.58253 390.287 5.82321 389.528 4.81079 389.528Z" fill="#DBDBDB"/>
<path opacity="0.2" d="M107.824 406.739C105.419 406.739 103.395 408.764 103.395 411.169C103.395 413.573 105.419 415.598 107.824 415.598C110.228 415.598 112.253 413.573 112.253 411.169C112.253 408.637 110.355 406.739 107.824 406.739Z" fill="#DBDBDB"/>
<path opacity="0.2" d="M142.119 393.325C143.237 393.325 144.143 392.418 144.143 391.3C144.143 390.182 143.237 389.275 142.119 389.275C141 389.275 140.094 390.182 140.094 391.3C140.094 392.418 141 393.325 142.119 393.325Z" fill="#DBDBDB"/>
<path opacity="0.2" d="M245.13 413.826C246.598 413.826 247.788 412.636 247.788 411.169C247.788 409.701 246.598 408.511 245.13 408.511C243.662 408.511 242.473 409.701 242.473 411.169C242.473 412.636 243.662 413.826 245.13 413.826Z" fill="#DBDBDB"/>
</svg>
