<svg width="303" height="475" viewBox="0 0 303 475" fill="none" xmlns="http://www.w3.org/2000/svg">
<path d="M45.0858 130.337L13.7656 112.219V76.1236L45.0858 58.0056L76.4061 76.1236V112.36L45.0858 130.337ZM13.9061 112.079L44.9454 130.056L75.9847 112.079V76.264L45.0858 58.2865L13.9061 76.264V112.079Z" fill="#DBDBDB"/>
<path d="M107.445 130.337L76.125 112.219V76.1236L107.445 58.0056L138.765 76.1236V112.36L107.445 130.337ZM76.4059 112.079L107.445 130.056L138.485 112.079V76.264L107.445 58.2865L76.4059 76.264V112.079Z" fill="#DBDBDB"/>
<path d="M169.945 130.337L138.625 112.219V76.1236L169.945 58.0056L201.265 76.1236V112.36L169.945 130.337ZM138.906 112.079L169.945 130.056L200.985 112.079V76.264L169.945 58.2865L138.906 76.264V112.079Z" fill="#DBDBDB"/>
<path d="M232.445 130.337L201.125 112.219V76.1236L232.445 58.0056L263.765 76.1236V112.36L232.445 130.337ZM201.265 112.079L232.305 130.056L263.344 112.079V76.264L232.305 58.2865L201.265 76.264V112.079Z" fill="#DBDBDB"/>
<path d="M302.529 125.702L294.805 130.056L263.765 112.079V76.264L294.805 58.2865L302.529 62.6404V62.3596L294.945 58.0056H294.805L263.625 75.9831L263.484 76.1236V112.219L294.805 130.337L302.529 125.983V125.702Z" fill="#DBDBDB"/>
<path d="M76.2655 184.41L44.9453 166.292V130.197L76.2655 112.079L107.586 130.197V166.433L76.2655 184.41ZM45.2262 166.152L76.2655 184.129L107.305 166.152V130.337L76.2655 112.36L45.2262 130.337V166.152Z" fill="#DBDBDB"/>
<path d="M138.766 184.41L107.445 166.292V130.197L138.766 112.079L170.086 130.197V166.433L138.766 184.41ZM107.586 166.152L138.625 184.129L169.664 166.152V130.337L138.766 112.36L107.586 130.337V166.152Z" fill="#DBDBDB"/>
<path d="M201.125 184.41L169.805 166.292V130.197L201.125 112.079L232.445 130.197V166.433L201.125 184.41ZM170.086 166.152L201.125 184.129L232.164 166.152V130.337L201.125 112.36L170.086 130.337V166.152Z" fill="#DBDBDB"/>
<path d="M263.625 184.41L232.305 166.292V130.197L263.625 112.079L294.945 130.197V166.433L263.625 184.41ZM232.586 166.152L263.625 184.129L294.664 166.152V130.337L263.625 112.36L232.586 130.337V166.152Z" fill="#DBDBDB"/>
<path d="M302.529 170.506L294.945 166.152V130.337L302.529 125.983V125.702L294.804 130.056L294.664 130.197V166.292L302.529 170.787V170.506Z" fill="#DBDBDB"/>
<path d="M169.945 238.483L138.625 220.365V184.129L169.945 166.011L201.265 184.129V220.365L169.945 238.483ZM138.906 220.225L169.945 238.202L200.985 220.225V184.27L169.945 166.433L138.906 184.41V220.225Z" fill="#DBDBDB"/>
<path d="M232.445 238.483L201.125 220.365V184.129L232.445 166.011L263.765 184.129V220.365L232.445 238.483ZM201.265 220.225L232.305 238.202L263.344 220.225V184.27L232.305 166.292L201.265 184.27V220.225Z" fill="#DBDBDB"/>
<path d="M302.529 233.848L294.805 238.202L263.765 220.225V184.41L294.805 166.433L302.529 170.787V170.506L294.945 166.152H294.805L263.625 184.129L263.484 184.27V220.365L294.805 238.483L302.529 234.129V233.848Z" fill="#DBDBDB"/>
<path d="M201.125 292.556L169.805 274.438V238.202L201.125 220.084L232.445 238.202V274.438L201.125 292.556ZM170.086 274.298L201.125 292.275L232.164 274.298V238.343L201.125 220.506L170.086 238.483V274.298Z" fill="#DBDBDB"/>
<path d="M263.625 292.556L232.305 274.438V238.202L263.625 220.084L294.945 238.202V274.438L263.625 292.556ZM232.586 274.298L263.625 292.275L294.664 274.298V238.343L263.625 220.506L232.586 238.483V274.298Z" fill="#DBDBDB"/>
<path d="M302.529 278.652L294.945 274.298V238.483L302.529 234.129V233.848L294.804 238.202L294.664 238.343V274.579L302.529 279.073V278.652Z" fill="#DBDBDB"/>
<path d="M232.445 346.77L200.984 328.652V292.416L232.305 274.298L263.625 292.416V328.652L232.445 346.77ZM201.265 328.371L232.305 346.348L263.344 328.371V292.416L232.305 274.438L201.265 292.416V328.371Z" fill="#DBDBDB"/>
<path d="M302.529 341.994L294.805 346.348L263.765 328.371V292.556L294.805 274.579L302.529 279.073V278.652L294.945 274.298H294.805L263.625 292.275L263.484 292.416V328.652L294.805 346.629V346.77L302.529 342.275V341.994Z" fill="#DBDBDB"/>
<path d="M302.529 386.798L294.945 382.584V346.629L302.529 342.275V341.994L294.804 346.489H294.664V382.725L302.529 387.219V386.798Z" fill="#DBDBDB"/>
<path d="M170.086 475V454.775L201.125 436.798L232.305 454.775V475H232.586V454.635L201.265 436.517H201.125L169.945 454.635H169.805V475H170.086Z" fill="#DBDBDB"/>
<path d="M232.586 475V454.775L263.625 436.798L294.664 454.775V475H294.945V454.635L263.765 436.517H263.625L232.305 454.635V475H232.586Z" fill="#DBDBDB"/>
<path d="M160.394 0V30.7584L120.366 53.7921L80.4787 30.7584V0H79.0742V31.6011L120.366 55.4775L161.799 31.6011V0H160.394Z" fill="#DBDBDB"/>
<path d="M241.855 0V30.7584L201.827 53.7921L161.799 30.7584V0H160.395V31.6011L201.827 55.4775L243.26 31.6011V0H241.855Z" fill="#DBDBDB"/>
<path d="M243.26 30.7584V0H241.855V31.6011L283.148 55.4775L302.53 44.2416V42.6966L283.148 53.7921L243.26 30.7584Z" fill="#DBDBDB"/>
<path d="M161.097 125.983L119.664 102.107V54.3539L161.097 30.4775L202.529 54.3539V102.107L161.097 125.983ZM121.069 101.264L161.097 124.298L201.125 101.264V55.0562L161.097 32.0225L121.069 55.0562V101.264Z" fill="#DBDBDB"/>
<path d="M242.558 125.983L201.125 102.107V54.3539L242.558 30.4775L283.99 54.3539V102.107L242.558 125.983ZM202.529 101.264L242.558 124.298L282.586 101.264V55.0562L242.558 32.0225L202.529 55.0562V101.264Z" fill="#DBDBDB"/>
<path d="M302.53 111.938L283.85 101.264V55.0562L302.53 44.2416V42.6966L282.445 54.2135V101.966L302.53 113.624V111.938Z" fill="#DBDBDB"/>
<path d="M201.827 196.348L160.395 172.472V124.719L201.827 100.843L243.26 124.719V172.472L201.827 196.348ZM161.799 171.629L201.827 194.663L241.855 171.629V125.562L201.827 102.528L161.799 125.562V171.629Z" fill="#DBDBDB"/>
<path d="M302.53 183.567L283.148 194.803L243.26 171.629V125.562L283.148 102.388L302.53 113.624V111.938L283.148 100.843L241.855 124.719V172.472L283.148 196.348L302.53 185.253V183.567Z" fill="#DBDBDB"/>
<path d="M302.53 252.949L283.85 242.135V195.927L302.53 185.253V183.567L282.445 195.225V242.978L302.53 254.494V252.949Z" fill="#DBDBDB"/>
<path d="M242.558 407.865L201.125 383.989V336.236L242.558 312.36L283.99 336.236V383.989L242.558 407.865ZM202.529 383.146L242.558 406.18L282.586 383.146V336.938L242.558 313.904L202.529 336.938V383.146Z" fill="#DBDBDB"/>
<path d="M199.018 475L161.799 453.652V407.444L201.827 384.41L241.855 407.444V453.652L204.636 475H207.445L243.26 454.494V406.601L201.827 382.725L160.395 406.601V454.494L196.209 475H199.018Z" fill="#DBDBDB"/>
<path d="M283.148 384.41L302.53 395.506V393.82L283.148 382.725L241.855 406.601V454.494L277.53 475H280.339L243.26 453.652V407.444L283.148 384.41Z" fill="#DBDBDB"/>
<path d="M302.53 465.59L285.957 475H288.906L302.53 467.135V465.59Z" fill="#DBDBDB"/>
<path d="M44.6645 475L79.7768 454.775L114.749 475H117.558L79.7768 453.23L41.8555 475H44.6645Z" fill="#DBDBDB"/>
<path d="M126.125 475L161.097 454.775L196.209 475H199.018L161.097 453.23L123.176 475H126.125Z" fill="#DBDBDB"/>
<path d="M207.446 475L242.558 454.775L277.53 475H280.339L242.558 453.23L204.637 475H207.446Z" fill="#DBDBDB"/>
<path d="M302.526 465.59L285.953 475H288.903L302.526 467.135V465.59Z" fill="#DBDBDB"/>
<path d="M13.9047 71.7697C11.5171 71.7697 9.55078 73.7359 9.55078 76.1236C9.55078 78.5112 11.5171 80.4775 13.9047 80.4775C16.2924 80.4775 18.2586 78.5112 18.2586 76.1236C18.1182 73.7359 16.1519 71.7697 13.9047 71.7697Z" fill="#DBDBDB"/>
<path d="M13.9058 114.888C15.4507 114.888 16.5743 113.624 16.5743 112.219C16.5743 110.674 15.3103 109.551 13.9058 109.551C12.3608 109.551 11.2372 110.815 11.2372 112.219C11.0968 113.624 12.3608 114.888 13.9058 114.888Z" fill="#DBDBDB"/>
<path d="M45.083 132.584C46.4874 132.584 47.4706 131.461 47.4706 130.197C47.4706 128.792 46.347 127.809 45.083 127.809C43.6785 127.809 42.6953 128.933 42.6953 130.197C42.6953 131.601 43.6785 132.584 45.083 132.584Z" fill="#DBDBDB"/>
<path d="M45.0844 59.4101C45.7825 59.4101 46.3484 58.8442 46.3484 58.1461C46.3484 57.448 45.7825 56.882 45.0844 56.882C44.3862 56.882 43.8203 57.448 43.8203 58.1461C43.8203 58.8442 44.3862 59.4101 45.0844 59.4101Z" fill="#DBDBDB"/>
<path d="M76.2625 78.6517C77.667 78.6517 78.7906 77.5281 78.7906 76.1236C78.7906 74.7191 77.667 73.5955 76.2625 73.5955C74.858 73.5955 73.7344 74.7191 73.7344 76.1236C73.8748 77.5281 74.858 78.6517 76.2625 78.6517Z" fill="#DBDBDB"/>
<path d="M76.2641 107.865C73.8764 107.865 71.9102 109.831 71.9102 112.219C71.9102 114.607 73.8764 116.573 76.2641 116.573C78.6517 116.573 80.618 114.607 80.618 112.219C80.618 109.831 78.6517 107.865 76.2641 107.865Z" fill="#DBDBDB"/>
<path d="M107.443 59.9719C108.426 59.9719 109.269 59.1292 109.269 58.1461C109.269 57.1629 108.426 56.3202 107.443 56.3202C106.46 56.3202 105.617 57.1629 105.617 58.1461C105.617 59.1292 106.46 59.9719 107.443 59.9719Z" fill="#DBDBDB"/>
<path d="M138.765 79.4944C140.591 79.4944 142.136 77.9494 142.136 76.1236C142.136 74.2978 140.591 72.7528 138.765 72.7528C136.939 72.7528 135.395 74.2978 135.395 76.1236C135.395 77.9494 136.939 79.4944 138.765 79.4944Z" fill="#DBDBDB"/>
<path d="M138.764 116.292C141.014 116.292 142.837 114.469 142.837 112.219C142.837 109.97 141.014 108.146 138.764 108.146C136.515 108.146 134.691 109.97 134.691 112.219C134.691 114.469 136.515 116.292 138.764 116.292Z" fill="#DBDBDB"/>
<path d="M169.943 60.2528C171.066 60.2528 172.049 59.2697 172.049 58.1461C172.049 57.0225 171.066 56.0393 169.943 56.0393C168.819 56.0393 167.836 57.0225 167.836 58.1461C167.836 59.2697 168.819 60.2528 169.943 60.2528Z" fill="#DBDBDB"/>
<path d="M201.122 78.5112C202.527 78.5112 203.51 77.3876 203.51 76.1236C203.51 74.7191 202.386 73.736 201.122 73.736C199.718 73.736 198.734 74.8596 198.734 76.1236C198.734 77.5281 199.858 78.5112 201.122 78.5112Z" fill="#DBDBDB"/>
<path d="M201.123 113.904C202.054 113.904 202.808 113.15 202.808 112.219C202.808 111.288 202.054 110.534 201.123 110.534C200.192 110.534 199.438 111.288 199.438 112.219C199.438 113.15 200.192 113.904 201.123 113.904Z" fill="#DBDBDB"/>
<path d="M232.443 59.691C233.286 59.691 234.129 58.9888 234.129 58.0056C234.129 57.1629 233.426 56.3202 232.443 56.3202C231.601 56.3202 230.758 57.0225 230.758 58.0056C230.758 58.9888 231.46 59.691 232.443 59.691Z" fill="#DBDBDB"/>
<path d="M263.622 78.6517C265.026 78.6517 266.15 77.5281 266.15 76.1236C266.15 74.7191 265.026 73.5955 263.622 73.5955C262.217 73.5955 261.094 74.7191 261.094 76.1236C261.094 77.5281 262.217 78.6517 263.622 78.6517Z" fill="#DBDBDB"/>
<path d="M263.625 115.169C265.254 115.169 266.575 113.848 266.575 112.219C266.575 110.59 265.254 109.27 263.625 109.27C261.996 109.27 260.676 110.59 260.676 112.219C260.676 113.848 261.996 115.169 263.625 115.169Z" fill="#DBDBDB"/>
<path d="M294.802 60.5337C296.206 60.5337 297.189 59.4101 297.189 58.1461C297.189 56.7416 296.066 55.7584 294.802 55.7584C293.397 55.7584 292.414 56.882 292.414 58.1461C292.414 59.4101 293.538 60.5337 294.802 60.5337Z" fill="#DBDBDB"/>
<path d="M45.0858 169.522C46.9116 169.522 48.3161 168.118 48.3161 166.292C48.3161 164.466 46.9116 163.062 45.0858 163.062C43.26 163.062 41.8555 164.466 41.8555 166.292C41.8555 168.118 43.26 169.522 45.0858 169.522Z" fill="#DBDBDB"/>
<path d="M107.443 128.511C106.46 128.511 105.758 129.213 105.758 130.197C105.758 131.18 106.46 131.882 107.443 131.882C108.426 131.882 109.129 131.18 109.129 130.197C109.129 129.354 108.426 128.511 107.443 128.511Z" fill="#DBDBDB"/>
<path d="M107.445 169.382C109.131 169.382 110.535 167.978 110.535 166.292C110.535 164.607 109.131 163.202 107.445 163.202C105.76 163.202 104.355 164.607 104.355 166.292C104.355 167.978 105.76 169.382 107.445 169.382Z" fill="#DBDBDB"/>
<path d="M138.763 186.236C139.849 186.236 140.729 185.356 140.729 184.27C140.729 183.184 139.849 182.303 138.763 182.303C137.677 182.303 136.797 183.184 136.797 184.27C136.797 185.356 137.677 186.236 138.763 186.236Z" fill="#DBDBDB"/>
<path d="M169.944 125.702C167.416 125.702 165.449 127.809 165.449 130.197C165.449 132.725 167.556 134.691 169.944 134.691C172.472 134.691 174.438 132.584 174.438 130.197C174.578 127.669 172.472 125.702 169.944 125.702Z" fill="#DBDBDB"/>
<path d="M232.445 133.567C234.271 133.567 235.816 132.022 235.816 130.197C235.816 128.371 234.271 126.826 232.445 126.826C230.619 126.826 229.074 128.371 229.074 130.197C229.074 132.022 230.479 133.567 232.445 133.567Z" fill="#DBDBDB"/>
<path d="M263.625 187.64C265.451 187.64 266.995 186.096 266.995 184.27C266.995 182.444 265.451 180.899 263.625 180.899C261.799 180.899 260.254 182.444 260.254 184.27C260.254 186.096 261.799 187.64 263.625 187.64Z" fill="#DBDBDB"/>
<path d="M232.444 170.225C234.691 170.225 236.377 168.399 236.377 166.292C236.377 164.045 234.551 162.36 232.444 162.36C230.197 162.36 228.512 164.185 228.512 166.292C228.371 168.399 230.197 170.225 232.444 170.225Z" fill="#DBDBDB"/>
<path d="M294.804 133.848C296.77 133.848 298.456 132.163 298.456 130.197C298.456 128.23 296.77 126.545 294.804 126.545C292.838 126.545 291.152 128.23 291.152 130.197C291.293 132.163 292.838 133.848 294.804 133.848Z" fill="#DBDBDB"/>
<path d="M78.9312 184.27C78.9312 182.865 77.8076 181.742 76.4031 181.742C74.9986 181.742 73.875 182.865 73.875 184.27C73.875 185.674 74.9986 186.798 76.4031 186.798C77.6671 186.938 78.9312 185.674 78.9312 184.27Z" fill="#DBDBDB"/>
<path d="M169.943 168.399C171.106 168.399 172.049 167.456 172.049 166.292C172.049 165.129 171.106 164.185 169.943 164.185C168.779 164.185 167.836 165.129 167.836 166.292C167.836 167.456 168.779 168.399 169.943 168.399Z" fill="#DBDBDB"/>
<path d="M201.122 186.517C202.386 186.517 203.369 185.534 203.369 184.27C203.369 183.006 202.386 182.022 201.122 182.022C199.858 182.022 198.875 183.006 198.875 184.27C198.875 185.534 199.999 186.517 201.122 186.517Z" fill="#DBDBDB"/>
<path d="M294.802 240.59C296.043 240.59 297.049 239.584 297.049 238.343C297.049 237.102 296.043 236.096 294.802 236.096C293.561 236.096 292.555 237.102 292.555 238.343C292.555 239.584 293.561 240.59 294.802 240.59Z" fill="#DBDBDB"/>
<path d="M263.625 217.416C262.08 217.416 260.676 218.68 260.676 220.365C260.676 221.91 261.94 223.315 263.625 223.315C265.17 223.315 266.575 222.051 266.575 220.365C266.575 218.82 265.17 217.416 263.625 217.416Z" fill="#DBDBDB"/>
<path d="M294.805 169.101C296.356 169.101 297.614 167.843 297.614 166.292C297.614 164.741 296.356 163.483 294.805 163.483C293.254 163.483 291.996 164.741 291.996 166.292C291.996 167.843 293.254 169.101 294.805 169.101Z" fill="#DBDBDB"/>
<path d="M138.765 216.994C136.939 216.994 135.395 218.539 135.395 220.365C135.395 222.191 136.939 223.736 138.765 223.736C140.591 223.736 142.136 222.191 142.136 220.365C142.136 218.539 140.591 216.994 138.765 216.994Z" fill="#DBDBDB"/>
<path d="M166.434 238.343C166.434 240.309 167.979 241.854 169.945 241.854C171.911 241.854 173.456 240.309 173.456 238.343C173.456 236.376 171.911 234.831 169.945 234.831C167.979 234.972 166.434 236.517 166.434 238.343Z" fill="#DBDBDB"/>
<path d="M201.122 294.522C202.286 294.522 203.229 293.579 203.229 292.416C203.229 291.252 202.286 290.309 201.122 290.309C199.959 290.309 199.016 291.252 199.016 292.416C199.016 293.579 199.959 294.522 201.122 294.522Z" fill="#DBDBDB"/>
<path d="M169.942 277.107C171.416 277.107 172.611 275.912 172.611 274.438C172.611 272.964 171.416 271.77 169.942 271.77C168.468 271.77 167.273 272.964 167.273 274.438C167.273 275.912 168.468 277.107 169.942 277.107Z" fill="#DBDBDB"/>
<path d="M201.125 223.315C202.754 223.315 204.075 221.994 204.075 220.365C204.075 218.736 202.754 217.416 201.125 217.416C199.496 217.416 198.176 218.736 198.176 220.365C198.176 221.994 199.496 223.315 201.125 223.315Z" fill="#DBDBDB"/>
<path d="M232.444 278.511C234.694 278.511 236.517 276.688 236.517 274.438C236.517 272.189 234.694 270.365 232.444 270.365C230.195 270.365 228.371 272.189 228.371 274.438C228.371 276.688 230.195 278.511 232.444 278.511Z" fill="#DBDBDB"/>
<path d="M263.622 294.803C264.886 294.803 266.01 293.82 266.01 292.416C266.01 291.152 265.027 290.028 263.622 290.028C262.358 290.028 261.234 291.011 261.234 292.416C261.234 293.82 262.358 294.803 263.622 294.803Z" fill="#DBDBDB"/>
<path d="M232.444 242.416C234.691 242.416 236.517 240.59 236.517 238.343C236.517 236.095 234.691 234.27 232.444 234.27C230.197 234.27 228.371 236.095 228.371 238.343C228.371 240.59 230.197 242.416 232.444 242.416Z" fill="#DBDBDB"/>
<path d="M294.802 276.264C295.811 276.264 296.628 275.447 296.628 274.438C296.628 273.43 295.811 272.612 294.802 272.612C293.794 272.612 292.977 273.43 292.977 274.438C292.977 275.447 293.794 276.264 294.802 276.264Z" fill="#DBDBDB"/>
<path d="M201.123 398.736C199.999 398.736 199.156 399.579 199.156 400.702C199.156 401.826 199.999 402.669 201.123 402.669C202.246 402.669 203.089 401.826 203.089 400.702C203.089 399.579 202.246 398.736 201.123 398.736Z" fill="#DBDBDB"/>
<path d="M201.122 330.758C202.386 330.758 203.369 329.775 203.369 328.511C203.369 327.247 202.386 326.264 201.122 326.264C199.858 326.264 198.875 327.247 198.875 328.511C198.875 329.775 199.999 330.758 201.122 330.758Z" fill="#DBDBDB"/>
<path d="M232.444 342.135C230.056 342.135 228.09 344.101 228.09 346.489C228.09 348.876 230.056 350.843 232.444 350.843C234.831 350.843 236.798 348.876 236.798 346.489C236.798 344.101 234.831 342.135 232.444 342.135Z" fill="#DBDBDB"/>
<path d="M263.622 330.899C264.886 330.899 266.01 329.775 266.01 328.511C266.01 327.247 264.886 326.124 263.622 326.124C262.358 326.124 261.234 327.247 261.234 328.511C261.234 329.775 262.358 330.899 263.622 330.899Z" fill="#DBDBDB"/>
<path d="M294.804 350.14C296.77 350.14 298.315 348.596 298.315 346.629C298.315 344.663 296.77 343.118 294.804 343.118C292.838 343.118 291.293 344.663 291.293 346.629C291.293 348.455 292.838 350.14 294.804 350.14Z" fill="#DBDBDB"/>
<path d="M294.803 377.809C292.134 377.809 290.027 379.916 290.027 382.584C290.027 385.253 292.134 387.36 294.803 387.36C297.471 387.36 299.578 385.253 299.578 382.584C299.578 379.916 297.471 377.809 294.803 377.809Z" fill="#DBDBDB"/>
<path d="M203.791 436.657C203.791 435.253 202.667 434.129 201.262 434.129C199.858 434.129 198.734 435.253 198.734 436.657C198.734 438.062 199.858 439.185 201.262 439.185C202.667 439.326 203.791 438.062 203.791 436.657Z" fill="#DBDBDB"/>
<path d="M263.625 403.933C265.451 403.933 266.995 402.388 266.995 400.562C266.995 398.736 265.451 397.191 263.625 397.191C261.799 397.191 260.254 398.736 260.254 400.562C260.254 402.528 261.799 403.933 263.625 403.933Z" fill="#DBDBDB"/>
<path d="M263.625 433.286C261.799 433.286 260.254 434.831 260.254 436.657C260.254 438.483 261.799 440.028 263.625 440.028C265.451 440.028 266.995 438.483 266.995 436.657C266.995 434.831 265.451 433.286 263.625 433.286Z" fill="#DBDBDB"/>
<path d="M169.942 457.444C171.487 457.444 172.611 456.18 172.611 454.775C172.611 453.23 171.346 452.107 169.942 452.107C168.537 452.107 167.273 453.371 167.273 454.775C167.273 456.18 168.537 457.444 169.942 457.444Z" fill="#DBDBDB"/>
<path d="M232.446 457.725C234.131 457.725 235.395 456.461 235.395 454.775C235.395 453.09 234.131 451.826 232.446 451.826C230.76 451.826 229.496 453.09 229.496 454.775C229.496 456.32 230.76 457.725 232.446 457.725Z" fill="#DBDBDB"/>
<g opacity="0.2">
<path d="M80.057 0V38.2022L42.1357 60.1124L4.07387 38.2022V0H3.79297V38.3427L41.9952 60.3933H42.1357L80.3379 38.3427V0H80.057Z" fill="#DBDBDB"/>
</g>
<g opacity="0.2">
<path d="M156.178 0V38.2022L118.257 60.1124L80.3356 38.2022V0H80.0547V38.3427L118.257 60.3933L156.459 38.3427H156.6V0H156.178Z" fill="#DBDBDB"/>
</g>
<g opacity="0.2">
<path d="M232.444 0V38.2022L194.522 60.1124L156.601 38.2022V0H156.18V38.3427L194.382 60.3933H194.522L232.725 38.3427H232.865V0H232.444Z" fill="#DBDBDB"/>
</g>
<g opacity="0.2">
<path d="M232.867 38.2022V0H232.445V38.3427L270.648 60.3933H270.788L294.805 46.4888V46.0674L270.788 60.1124L232.867 38.2022Z" fill="#DBDBDB"/>
</g>
<g opacity="0.2">
<path d="M156.46 126.404L118.117 104.354V60.1124H118.258L156.46 38.0618H156.6L194.803 60.1124V104.354H194.662L156.46 126.404ZM118.539 104.213L156.46 126.124L194.381 104.213V60.3933L156.46 38.4831L118.539 60.3933V104.213Z" fill="#DBDBDB"/>
</g>
<g opacity="0.2">
<path d="M232.585 126.404L194.242 104.354V60.1124H194.383L232.585 38.0618H232.725L270.928 60.1124V104.354H270.787L232.585 126.404ZM194.664 104.213L232.585 126.124L270.506 104.213V60.3933L232.585 38.4831L194.664 60.3933V104.213Z" fill="#DBDBDB"/>
</g>
<g opacity="0.2">
<path d="M294.802 117.978L270.925 104.213V60.3933L294.802 46.4888V46.0674L270.645 60.1124V104.354L294.802 118.399V117.978Z" fill="#DBDBDB"/>
</g>
<g opacity="0.2">
<path d="M194.522 192.416L156.18 170.365V126.124H156.32L194.522 104.073H194.663L232.865 126.124V170.365H232.725L194.522 192.416ZM156.601 170.225L194.522 192.135L232.444 170.225V126.404L194.522 104.494L156.601 126.404V170.225Z" fill="#DBDBDB"/>
</g>
<g opacity="0.2">
<path d="M294.805 178.09L270.788 192.135L232.867 170.225V126.404L270.788 104.494L294.805 118.399V117.978L270.788 104.073L232.586 126.124H232.445V170.365L270.648 192.416H270.788L294.805 178.511V178.09Z" fill="#DBDBDB"/>
</g>
<g opacity="0.2">
<path d="M232.585 258.427L194.242 236.376V192.135H194.383L232.585 170.084H232.725L270.928 192.135V236.376H270.787L232.585 258.427ZM194.664 236.236L232.585 258.146L270.506 236.236V192.416L232.585 170.506L194.664 192.416V236.236Z" fill="#DBDBDB"/>
</g>
<g opacity="0.2">
<path d="M294.802 250L270.925 236.236V192.416L294.802 178.511V178.09L270.645 192.135V236.376L294.802 250.421V250Z" fill="#DBDBDB"/>
</g>
<g opacity="0.2">
<path d="M194.522 456.461L156.18 434.41V390.169H156.32L194.522 368.118H194.663L232.865 390.169V434.41H232.725L194.522 456.461ZM156.601 434.129L194.522 456.039L232.444 434.129V390.449L194.522 368.539L156.601 390.449V434.129Z" fill="#DBDBDB"/>
</g>
<g opacity="0.2">
<path d="M294.805 442.135L270.788 456.039L232.867 434.129V390.449L270.788 368.539L294.805 382.444V382.022L270.788 368.118L232.586 390.169H232.445V434.41L270.648 456.461H270.788L294.805 442.556V442.135Z" fill="#DBDBDB"/>
</g>
<g opacity="0.2">
<path d="M194.664 469.101V456.461L232.585 434.551L270.647 456.461V469.101H270.928V456.18L232.726 434.129H232.585L194.383 456.18V469.101H194.664Z" fill="#DBDBDB"/>
</g>
<g opacity="0.2">
<path d="M294.802 442.135L270.645 456.18V469.101H270.925V456.461L294.802 442.556V442.135Z" fill="#DBDBDB"/>
</g>
<g opacity="0.2">
<path d="M244.102 0V44.8034L195.226 73.0337L146.49 44.8034V0H144.805V45.7865L195.226 75L245.788 45.7865V0H244.102Z" fill="#DBDBDB"/>
</g>
<g opacity="0.2">
<path d="M245.787 44.8034V0H244.102V45.7865L294.663 75L294.804 74.8595V72.8933L294.663 73.0337L245.787 44.8034Z" fill="#DBDBDB"/>
</g>
<g opacity="0.2">
<path d="M294.803 72.8932L293.82 73.455V131.882L294.803 132.584V72.8932Z" fill="#DBDBDB"/>
</g>
<g opacity="0.2">
<path d="M294.804 245.225L244.945 216.433L194.383 245.646V303.933L244.945 333.146L294.804 304.354V245.225ZM244.945 331.039L196.209 302.809V246.489L244.945 218.258L293.681 246.489V302.809L244.945 331.039Z" fill="#DBDBDB"/>
</g>
<g opacity="0.2">
<path d="M195.226 419.101L144.664 389.888V331.601L195.226 302.388L245.788 331.601V389.888L195.226 419.101ZM146.49 388.904L195.226 417.135L243.962 388.904V332.584L195.226 304.354L146.49 332.584V388.904Z" fill="#DBDBDB"/>
</g>
<g opacity="0.2">
<path d="M294.804 416.994L294.663 417.135L245.787 388.904V332.584L294.663 304.354L294.804 304.635V302.528L294.663 302.388L244.102 331.601V389.888L294.663 419.101L294.804 418.961V416.994Z" fill="#DBDBDB"/>
</g>
<g opacity="0.2">
<path d="M96.7713 469.101V418.68L145.648 390.449L194.384 418.68V469.101H196.21V417.697L145.648 388.483L95.0859 417.697V469.101H96.7713Z" fill="#DBDBDB"/>
</g>
<g opacity="0.2">
<path d="M294.804 469.101V417.275L244.945 388.483L194.383 417.697V469.101H196.209V418.68L244.945 390.449L293.821 418.68V469.101H294.804Z" fill="#DBDBDB"/>
</g>
<g opacity="0.2">
<path d="M294.803 416.994L293.82 417.697V469.101H294.803V416.994Z" fill="#DBDBDB"/>
</g>
<path opacity="0.2" d="M3.93258 42.1348C6.10449 42.1348 7.86517 40.3741 7.86517 38.2022C7.86517 36.0303 6.10449 34.2697 3.93258 34.2697C1.76068 34.2697 0 36.0303 0 38.2022C0 40.3741 1.76068 42.1348 3.93258 42.1348Z" fill="#DBDBDB"/>
<path opacity="0.2" d="M80.1984 41.9944C82.3051 41.9944 83.9905 40.309 83.9905 38.2022C83.9905 36.0955 82.3051 34.4101 80.1984 34.4101C78.0916 34.4101 76.4062 36.0955 76.4062 38.2022C76.4062 40.309 78.0916 41.9944 80.1984 41.9944Z" fill="#DBDBDB"/>
<path opacity="0.2" d="M118.259 62.6405C119.577 62.6405 120.646 61.5715 120.646 60.2528C120.646 58.9342 119.577 57.8652 118.259 57.8652C116.94 57.8652 115.871 58.9342 115.871 60.2528C115.871 61.5715 116.94 62.6405 118.259 62.6405Z" fill="#DBDBDB"/>
<path opacity="0.2" d="M270.787 64.3258C273.034 64.3258 274.86 62.5 274.86 60.2528C274.86 58.0056 273.034 56.1798 270.787 56.1798C268.54 56.1798 266.714 58.0056 266.714 60.2528C266.574 62.5 268.54 64.3258 270.787 64.3258Z" fill="#DBDBDB"/>
<path opacity="0.2" d="M232.584 43.118C235.299 43.118 237.499 40.9171 237.499 38.2023C237.499 35.4874 235.299 33.2865 232.584 33.2865C229.869 33.2865 227.668 35.4874 227.668 38.2023C227.668 40.9171 229.869 43.118 232.584 43.118Z" fill="#DBDBDB"/>
<path opacity="0.2" d="M45.2263 60.2528C45.2263 58.5674 43.8218 57.0225 41.996 57.0225C40.1701 57.0225 38.7656 58.427 38.7656 60.2528C38.7656 61.9382 40.1701 63.4831 41.996 63.4831C43.8218 63.4831 45.2263 61.9382 45.2263 60.2528Z" fill="#DBDBDB"/>
<path opacity="0.2" d="M156.462 40.7303C157.858 40.7303 158.99 39.5985 158.99 38.2023C158.99 36.806 157.858 35.6742 156.462 35.6742C155.065 35.6742 153.934 36.806 153.934 38.2023C153.934 39.5985 155.065 40.7303 156.462 40.7303Z" fill="#DBDBDB"/>
<path opacity="0.2" d="M194.524 62.9213C195.998 62.9213 197.193 61.7266 197.193 60.2528C197.193 58.779 195.998 57.5843 194.524 57.5843C193.05 57.5843 191.855 58.779 191.855 60.2528C191.855 61.7266 193.05 62.9213 194.524 62.9213Z" fill="#DBDBDB"/>
<path opacity="0.2" d="M270.785 100.702C268.818 100.702 267.273 102.247 267.273 104.213C267.273 106.18 268.818 107.725 270.785 107.725C272.751 107.725 274.296 106.18 274.296 104.213C274.296 102.247 272.751 100.702 270.785 100.702Z" fill="#DBDBDB"/>
<path opacity="0.2" d="M118.257 108.287C120.506 108.287 122.33 106.463 122.33 104.213C122.33 101.964 120.506 100.14 118.257 100.14C116.007 100.14 114.184 101.964 114.184 104.213C114.184 106.463 116.007 108.287 118.257 108.287Z" fill="#DBDBDB"/>
<path opacity="0.2" d="M152.246 126.264C152.246 128.652 154.072 130.478 156.46 130.478C158.847 130.478 160.673 128.652 160.673 126.264C160.673 123.876 158.847 122.051 156.46 122.051C154.072 122.051 152.246 123.876 152.246 126.264Z" fill="#DBDBDB"/>
<path opacity="0.2" d="M194.524 194.803C195.92 194.803 197.052 193.671 197.052 192.275C197.052 190.879 195.92 189.747 194.524 189.747C193.128 189.747 191.996 190.879 191.996 192.275C191.996 193.671 193.128 194.803 194.524 194.803Z" fill="#DBDBDB"/>
<path opacity="0.2" d="M156.461 166.994C154.635 166.994 153.09 168.539 153.09 170.365C153.09 172.191 154.635 173.736 156.461 173.736C158.286 173.736 159.831 172.191 159.831 170.365C159.691 168.399 158.286 166.994 156.461 166.994Z" fill="#DBDBDB"/>
<path opacity="0.2" d="M194.523 107.725C196.462 107.725 198.034 106.153 198.034 104.213C198.034 102.274 196.462 100.702 194.523 100.702C192.584 100.702 191.012 102.274 191.012 104.213C191.012 106.153 192.584 107.725 194.523 107.725Z" fill="#DBDBDB"/>
<path opacity="0.2" d="M232.584 175.281C235.376 175.281 237.64 173.017 237.64 170.225C237.64 167.432 235.376 165.169 232.584 165.169C229.791 165.169 227.527 167.432 227.527 170.225C227.527 173.017 229.791 175.281 232.584 175.281Z" fill="#DBDBDB"/>
<path opacity="0.2" d="M270.788 195.084C272.333 195.084 273.597 193.82 273.597 192.275C273.597 190.73 272.333 189.466 270.788 189.466C269.243 189.466 267.979 190.73 267.979 192.275C267.839 193.82 269.103 195.084 270.788 195.084Z" fill="#DBDBDB"/>
<path opacity="0.2" d="M232.584 131.18C235.393 131.18 237.64 128.933 237.64 126.124C237.64 123.315 235.393 121.067 232.584 121.067C229.775 121.067 227.527 123.315 227.527 126.124C227.668 129.073 229.915 131.18 232.584 131.18Z" fill="#DBDBDB"/>
<path opacity="0.2" d="M194.524 321.91C193.26 321.91 192.137 322.893 192.137 324.298C192.137 325.702 193.12 326.685 194.524 326.685C195.929 326.685 196.912 325.702 196.912 324.298C196.912 322.893 195.788 321.91 194.524 321.91Z" fill="#DBDBDB"/>
<path opacity="0.2" d="M194.524 239.045C196.075 239.045 197.333 237.787 197.333 236.236C197.333 234.685 196.075 233.427 194.524 233.427C192.972 233.427 191.715 234.685 191.715 236.236C191.715 237.787 192.972 239.045 194.524 239.045Z" fill="#DBDBDB"/>
<path opacity="0.2" d="M232.583 263.624C235.531 263.624 237.92 261.234 237.92 258.286C237.92 255.339 235.531 252.949 232.583 252.949C229.636 252.949 227.246 255.339 227.246 258.286C227.246 261.234 229.636 263.624 232.583 263.624Z" fill="#DBDBDB"/>
<path opacity="0.2" d="M270.785 239.185C272.33 239.185 273.735 237.921 273.735 236.236C273.735 234.691 272.471 233.287 270.785 233.287C269.24 233.287 267.836 234.551 267.836 236.236C267.836 237.921 269.1 239.185 270.785 239.185Z" fill="#DBDBDB"/>
<path opacity="0.2" d="M197.754 368.258C197.754 366.573 196.349 365.028 194.523 365.028C192.838 365.028 191.293 366.433 191.293 368.258C191.293 369.944 192.697 371.489 194.523 371.489C196.209 371.489 197.754 370.084 197.754 368.258Z" fill="#DBDBDB"/>
<path opacity="0.2" d="M270.787 328.371C273.034 328.371 274.86 326.545 274.86 324.298C274.86 322.051 273.034 320.225 270.787 320.225C268.54 320.225 266.714 322.051 266.714 324.298C266.574 326.545 268.54 328.371 270.787 328.371Z" fill="#DBDBDB"/>
<path opacity="0.2" d="M270.788 364.185C268.541 364.185 266.715 366.011 266.715 368.258C266.715 370.506 268.541 372.331 270.788 372.331C273.035 372.331 274.861 370.506 274.861 368.258C274.861 366.011 273.035 364.185 270.788 364.185Z" fill="#DBDBDB"/>
<path opacity="0.2" d="M156.462 393.539C158.288 393.539 159.692 392.135 159.692 390.309C159.692 388.483 158.288 387.079 156.462 387.079C154.636 387.079 153.232 388.483 153.232 390.309C153.091 392.135 154.636 393.539 156.462 393.539Z" fill="#DBDBDB"/>
<path opacity="0.2" d="M232.585 393.961C234.602 393.961 236.237 392.326 236.237 390.309C236.237 388.292 234.602 386.657 232.585 386.657C230.569 386.657 228.934 388.292 228.934 390.309C228.934 392.326 230.569 393.961 232.585 393.961Z" fill="#DBDBDB"/>
<path opacity="0.2" d="M156.46 430.618C154.494 430.618 152.809 432.303 152.809 434.27C152.809 436.236 154.494 437.921 156.46 437.921C158.427 437.921 160.112 436.236 160.112 434.27C160.112 432.303 158.427 430.618 156.46 430.618Z" fill="#DBDBDB"/>
<path opacity="0.2" d="M192.414 456.32C192.414 457.444 193.397 458.427 194.521 458.427C195.644 458.427 196.628 457.444 196.628 456.32C196.628 455.197 195.644 454.213 194.521 454.213C193.397 454.213 192.414 455.197 192.414 456.32Z" fill="#DBDBDB"/>
<path opacity="0.2" d="M232.585 430.478C230.478 430.478 228.793 432.163 228.793 434.27C228.793 436.376 230.478 438.062 232.585 438.062C234.692 438.062 236.377 436.376 236.377 434.27C236.377 432.163 234.692 430.478 232.585 430.478Z" fill="#DBDBDB"/>
<path opacity="0.2" d="M270.787 451.826C268.259 451.826 266.293 453.792 266.293 456.32C266.293 458.848 268.259 460.815 270.787 460.815C273.315 460.815 275.282 458.848 275.282 456.32C275.282 453.792 273.175 451.826 270.787 451.826Z" fill="#DBDBDB"/>
</svg>
