<svg width="55" height="55" viewBox="0 0 55 55" fill="none" xmlns="http://www.w3.org/2000/svg">
<g clip-path="url(#clip0_3918_3381)">
<path d="M42.3984 10.6H6.09844C4.29844 10.6 2.89844 12.4 2.89844 14.6V50H6.19844H42.2984H45.5984V14.7C45.5984 12.4 44.1984 10.6 42.3984 10.6Z" fill="#F9F3F1"/>
<path d="M38.4129 50.0395L37.9129 43.3395C37.8129 41.2395 36.3129 39.5395 34.2129 39.1395L27.6129 37.7395H21.5129L14.9129 39.1395C12.9129 39.5395 11.4129 41.2395 11.2129 43.3395L10.7129 50.0395H38.4129Z" fill="#FF646F"/>
<path d="M37.9184 43.2737C37.8184 41.1737 36.3184 39.4737 34.2184 39.0737L27.6183 37.6737H23.3184L29.9184 39.0737C31.9184 39.4737 33.4183 41.1737 33.6183 43.2737L34.1183 49.9737H38.4184L37.9184 43.2737Z" fill="#FF4755"/>
<path d="M27.6059 37.7335V33.5335H21.5059V37.7335C21.5059 39.4335 22.9059 40.8335 24.6059 40.8335C26.3059 40.7335 27.6059 39.4335 27.6059 37.7335Z" fill="#FFF3DE"/>
<path d="M32.1562 25.7262H30.6562V24.9262C30.6562 23.3262 29.9563 21.7262 28.7563 20.7262C27.7563 19.9262 26.4563 19.1262 24.6562 19.1262C22.8562 19.1262 21.5563 19.8262 20.5563 20.7262C19.3563 21.8262 18.6562 23.3262 18.6562 24.9262V25.5262H17.1562V28.4262C17.1562 29.2262 17.8562 29.9262 18.6562 29.9262C18.6562 31.5262 19.3563 33.0262 20.5563 34.0262C21.5563 34.8262 22.8562 35.9262 24.6562 35.9262C26.4563 35.9262 27.7563 34.8262 28.7563 34.0262C29.9563 33.0262 30.6562 31.5262 30.6562 29.9262C31.4563 29.9262 32.1562 29.2262 32.1562 28.4262V25.7262Z" fill="#FFF3DE"/>
<path d="M30.6082 25.7262V24.9262C30.6082 23.3262 29.9082 21.7262 28.7082 20.7262C28.3082 20.3262 27.8082 20.0262 27.2082 19.7262C27.6082 20.2262 27.8082 20.9262 27.8082 21.7262V28.5262C27.8082 32.8262 26.7082 34.6262 24.4082 36.0262C24.5082 36.0262 24.5082 36.0262 24.6082 36.0262C26.4082 36.0262 27.7082 34.9262 28.7082 34.1262C29.9082 33.1262 30.6082 31.6262 30.6082 30.0262C31.4082 30.0262 32.1082 29.3262 32.1082 28.5262V25.8262L30.6082 25.7262Z" fill="#FFE5C2"/>
<path d="M32.1562 26.8615C32.1562 26.8615 30.6563 26.4615 29.5563 25.1615C28.8563 24.4615 27.8563 24.2615 26.9563 24.7615C24.7563 26.0615 20.6562 27.7615 17.1562 26.0615V23.8615C17.1562 21.0615 19.4563 18.6615 22.3563 18.6615H25.4563C26.1563 18.6615 26.7563 18.8615 27.3563 19.2615C27.8563 19.6615 28.5562 19.8615 29.1562 19.8615C30.8562 19.8615 32.2563 21.2615 32.2563 22.9615V26.8615H32.1562Z" fill="#FFC265"/>
<path d="M29.1187 20.0119C28.4187 20.0119 27.8188 19.8119 27.3188 19.4119C27.0188 19.2119 26.6188 19.0119 26.2188 18.9119C27.2188 19.4119 27.9188 20.5119 27.9188 21.8119V24.6119C28.5188 24.6119 29.2187 24.8119 29.6187 25.3119C30.7187 26.5119 32.2188 27.0119 32.2188 27.0119V23.3119C32.1188 21.4119 30.8187 20.0119 29.1187 20.0119Z" fill="#FFA812"/>
<path d="M38.169 47.8607C37.769 47.8607 37.369 47.5607 37.369 47.1607L37.069 43.4607C36.969 41.7607 35.669 40.3607 34.069 39.9607L27.469 38.5607C27.069 38.4607 26.769 38.0607 26.869 37.6607C26.969 37.2607 27.369 36.9607 27.769 37.0607L34.369 38.4607C36.769 38.9607 38.469 40.9607 38.669 43.3607L38.969 47.0607C39.069 47.4607 38.669 47.7607 38.169 47.8607Z" fill="#35414D"/>
<path d="M10.9504 47.8335C10.4504 47.8335 10.1504 47.4335 10.1504 46.9335L10.4504 43.2335C10.6504 40.8335 12.3504 38.7335 14.7504 38.3335L21.3504 36.9335C21.7504 36.8335 22.2504 37.1335 22.2504 37.5335C22.3504 37.9335 22.0504 38.4335 21.6504 38.4335L15.0504 39.8335C13.3504 40.1335 12.1504 41.6335 12.0504 43.3335L11.7504 47.0335C11.7504 47.5335 11.4504 47.8335 10.9504 47.8335Z" fill="#35414D"/>
<path d="M24.5504 41.5787C22.4504 41.5787 20.6504 39.8787 20.6504 37.6787V34.7787C20.6504 34.3787 21.0504 33.9787 21.4504 33.9787C21.8504 33.9787 22.2504 34.3787 22.2504 34.7787V37.6787C22.2504 38.8787 23.2504 39.9787 24.5504 39.9787C25.7504 39.9787 26.8504 38.9787 26.8504 37.6787V34.8787C26.8504 34.4787 27.2504 34.0787 27.6504 34.0787C28.0504 34.0787 28.4504 34.4787 28.4504 34.8787V37.6787C28.4504 39.8787 26.7504 41.5787 24.5504 41.5787Z" fill="#35414D"/>
<path d="M32.1574 27.6615C32.0574 27.6615 31.9574 27.6615 31.9574 27.6615C31.8574 27.6615 30.2574 27.1615 29.0574 25.7615C28.6574 25.2615 27.9574 25.1615 27.4574 25.4615C25.1574 26.7615 20.8574 28.6615 16.8574 26.7615C16.5574 26.6615 16.3574 26.3615 16.3574 26.0615V23.8615C16.3574 20.5615 19.0574 17.8615 22.3574 17.8615H25.4574C26.3574 17.8615 27.1574 18.1615 27.8574 18.6615C28.2574 18.9615 28.7574 19.1615 29.1574 19.1615C31.2574 19.1615 32.9574 20.9615 32.9574 23.0615V26.7615C32.9574 27.0615 32.8574 27.2615 32.6574 27.3615C32.4574 27.5615 32.3574 27.6615 32.1574 27.6615ZM17.9574 25.4615C21.1574 26.6615 24.6574 25.0615 26.5574 23.9615C27.7574 23.2615 29.1574 23.5615 30.1574 24.5615C30.5574 24.9615 30.9574 25.2615 31.3574 25.4615V22.9615C31.3574 21.6615 30.3574 20.6615 29.0574 20.6615C28.2574 20.6615 27.4574 20.3615 26.7574 19.8615C26.3574 19.5615 25.8574 19.3615 25.3574 19.3615H22.2574C19.8574 19.3615 17.8574 21.3615 17.8574 23.7615V25.4615H17.9574Z" fill="#35414D"/>
<path d="M24.6629 36.7544C22.6629 36.7544 21.1629 35.6544 20.0629 34.6544C18.8629 33.6544 18.1629 32.1544 17.9629 30.5544C17.0629 30.2544 16.4629 29.3544 16.4629 28.3544V25.9544C16.4629 25.5544 16.8629 25.1544 17.2629 25.1544C17.6629 25.1544 18.0629 25.5544 18.0629 25.9544V28.3544C18.0629 28.7544 18.3629 29.0544 18.7629 29.0544C19.1629 29.0544 19.5629 29.3544 19.5629 29.8544C19.5629 31.2544 20.1629 32.5544 21.1629 33.3544C22.1629 34.2544 23.2629 35.0544 24.7629 35.0544C26.1629 35.0544 27.3629 34.2544 28.3629 33.3544C29.3629 32.4544 29.9629 31.2544 29.9629 29.8544C29.9629 29.4544 30.3629 29.0544 30.7629 29.0544C31.1629 29.0544 31.4629 28.7544 31.4629 28.3544V26.7544C31.4629 26.3544 31.8629 25.9544 32.2629 25.9544C32.6629 25.9544 33.0629 26.3544 33.0629 26.7544V28.3544C33.0629 29.3544 32.4629 30.2544 31.5629 30.5544C31.3629 32.1544 30.6629 33.5544 29.4629 34.6544C28.0629 35.6544 26.6629 36.7544 24.6629 36.7544Z" fill="#35414D"/>
<path d="M43.5902 11.1198H39.4902C40.1902 11.1198 40.7903 11.7198 40.7903 12.5198V49.9198H44.8902V12.5198C44.8902 11.8198 44.2902 11.1198 43.5902 11.1198Z" fill="#EFE2DD"/>
<path d="M44.4535 54.1951H4.6535C2.5535 54.1951 0.853516 51.8951 0.853516 48.9951C0.853516 48.0951 1.3535 47.3951 2.0535 47.3951H47.1535C47.8535 47.3951 48.3535 48.0951 48.3535 48.9951C48.2535 51.8951 46.5535 54.1951 44.4535 54.1951Z" fill="#FFCA8C"/>
<path d="M15.5 47.3607V48.0607C15.5 49.5607 16.7 50.7607 18.2 50.7607H30.9C32.4 50.7607 33.6 49.5607 33.6 48.0607V47.3607H15.5Z" fill="#FFF5F5"/>
<path d="M44.4528 54.9951H4.65274C2.05274 54.9951 0.0527344 52.2951 0.0527344 48.9951C0.0527344 47.5951 0.952734 46.5951 2.05273 46.5951H47.1527C48.2527 46.5951 49.1527 47.6951 49.1527 48.9951C49.0527 52.2951 46.9528 54.9951 44.4528 54.9951ZM1.95276 48.1951C1.85276 48.1951 1.55273 48.4951 1.55273 48.9951C1.55273 51.3951 2.95273 53.3951 4.55273 53.3951H44.3528C45.9528 53.3951 47.3528 51.3951 47.3528 48.9951C47.3528 48.4951 47.0528 48.1951 46.9528 48.1951H1.95276Z" fill="#35414D"/>
<path d="M30.8992 51.5607H18.1992C16.2992 51.5607 14.6992 49.9607 14.6992 48.0607V47.3607C14.6992 46.9607 15.0992 46.5607 15.4992 46.5607C15.8992 46.5607 16.2992 46.9607 16.2992 47.3607V48.0607C16.2992 49.1607 17.1992 49.9607 18.1992 49.9607H30.8992C31.9992 49.9607 32.7992 49.0607 32.7992 48.0607V47.3607C32.7992 46.9607 33.1992 46.5607 33.5992 46.5607C33.9992 46.5607 34.3992 46.9607 34.3992 47.3607V48.0607C34.3992 50.0607 32.7992 51.5607 30.8992 51.5607Z" fill="#35414D"/>
<path d="M3.19846 47.5298C2.79846 47.5298 2.39844 47.1298 2.39844 46.7298V14.3298C2.39844 11.6298 4.59846 9.52979 7.19846 9.52979H33.6984C34.0984 9.52979 34.4984 9.92977 34.4984 10.3298C34.4984 10.7298 34.0984 11.1298 33.6984 11.1298H7.19846C5.39846 11.1298 3.99844 12.6298 3.99844 14.3298V46.7298C3.99844 47.1298 3.69846 47.5298 3.19846 47.5298Z" fill="#35414D"/>
<path d="M45.5992 47.5298C45.1992 47.5298 44.7992 47.1298 44.7992 46.7298V14.3298C44.7992 12.5298 43.2992 11.1298 41.5992 11.1298H14.9992C14.5992 11.1298 14.1992 10.7298 14.1992 10.3298C14.1992 9.92977 14.5992 9.52979 14.9992 9.52979H41.4992C44.1992 9.52979 46.2992 11.7298 46.2992 14.3298V46.7298C46.3992 47.1298 45.9992 47.5298 45.5992 47.5298Z" fill="#35414D"/>
<path d="M9.80078 21.3C12.2861 21.3 14.3008 19.2853 14.3008 16.8C14.3008 14.3147 12.2861 12.3 9.80078 12.3C7.3155 12.3 5.30078 14.3147 5.30078 16.8C5.30078 19.2853 7.3155 21.3 9.80078 21.3Z" fill="#5D748A"/>
<path d="M9.8 12.5C12.2 12.5 14.1 14.4 14.1 16.8C14.1 19.2 12.2 21.1 9.8 21.1C7.4 21.1 5.5 19.2 5.5 16.8C5.5 14.4 7.4 12.5 9.8 12.5ZM9.8 12C7.1 12 5 14.1 5 16.8C5 19.5 7.2 21.6 9.8 21.6C12.4 21.6 14.6 19.4 14.6 16.8C14.6 14.1 12.4 12 9.8 12Z" fill="#35414D"/>
<path d="M7.40039 15.6V17.3C7.40039 17.7 7.70039 18 8.10039 18H10.6004C10.7004 18 10.7004 17.9 10.7004 17.9V16.2C10.7004 15.8 10.4004 15.5 10.0004 15.5H7.60039C7.50039 15.5 7.40039 15.6 7.40039 15.6ZM10.9004 16.3L11.9004 15.6C12.0004 15.5 12.1004 15.5 12.1004 15.7V18C12.1004 18.2 12.0004 18.1 11.9004 18.1L10.9004 17.4V16.3Z" fill="white"/>
<path d="M1.63577 28.4049H10.3358C11.1358 28.4049 11.7357 29.0049 11.7357 29.8049V34.1049C11.7357 34.9049 11.1358 35.5049 10.3358 35.5049H9.43576L10.5358 37.6049C10.6358 37.9049 10.3358 38.2049 10.0358 38.0049L5.53576 35.4049H1.73575C0.935746 35.4049 0.335752 34.8049 0.335752 34.0049V29.7049C0.235752 29.0049 0.93577 28.4049 1.63577 28.4049Z" fill="#98DB7C"/>
<path d="M9.74374 36.8887L10.0437 37.3887C10.1437 37.5887 9.84374 37.8887 9.64374 37.7887L5.84375 35.6887H7.64374L9.74374 36.8887Z" fill="#6ACB44"/>
<path d="M1.33633 28.4049H2.93634C2.33634 28.4049 1.83633 29.0049 1.83633 29.8049V34.0049C1.83633 34.8049 2.33634 35.4049 2.93634 35.4049H1.33633C0.736334 35.4049 0.236328 34.8049 0.236328 34.0049V29.8049C0.236328 29.0049 0.736334 28.4049 1.33633 28.4049Z" fill="#6ACB44"/>
<path d="M9.29492 30.9716H2.69495C2.49495 30.9716 2.29492 30.7716 2.29492 30.5716C2.29492 30.3716 2.49495 30.1716 2.69495 30.1716H9.29492C9.49492 30.1716 9.69495 30.3716 9.69495 30.5716C9.69495 30.7716 9.49492 30.9716 9.29492 30.9716Z" fill="#35414D"/>
<path d="M5.99493 33.4899H2.69495C2.49495 33.4899 2.29492 33.2899 2.29492 33.0899C2.29492 32.8899 2.49495 32.6899 2.69495 32.6899H5.99493C6.19493 32.6899 6.39493 32.8899 6.39493 33.0899C6.39493 33.2899 6.19493 33.4899 5.99493 33.4899Z" fill="#35414D"/>
<path d="M10.5356 29.0049C10.9356 29.0049 11.2355 29.3049 11.2355 29.7049V34.2049C11.2355 34.6049 10.9356 34.9049 10.5356 34.9049H9.53555C9.23555 34.9049 9.03554 35.0049 8.83554 35.3049C8.73554 35.5049 8.63554 35.8049 8.83554 36.1049L9.33554 37.0049L5.93555 35.0049C5.83555 34.9049 5.63555 34.9049 5.53555 34.9049H1.53555C1.13555 34.9049 0.835541 34.6049 0.835541 34.2049V29.7049C0.835541 29.3049 1.13555 29.0049 1.53555 29.0049H10.5356ZM10.5356 28.1049H1.43555C0.635547 28.1049 -0.0644531 28.8049 -0.0644531 29.6049V34.1049C-0.0644531 34.9049 0.635547 35.6049 1.43555 35.6049H5.43555L10.1356 38.3049C10.2356 38.3049 10.2355 38.3049 10.3355 38.3049C10.5355 38.3049 10.7356 38.0049 10.6356 37.8049L9.53555 35.6049H10.5356C11.3356 35.6049 12.0356 34.9049 12.0356 34.1049V29.6049C12.0356 28.8049 11.4356 28.1049 10.5356 28.1049Z" fill="#35414D"/>
<path d="M32.498 11.6C32.498 5.6 37.398 0.699997 43.398 0.699997C49.398 0.699997 54.298 5.6 54.298 11.6C54.298 17.6 49.398 22.5 43.398 22.5C37.398 22.5 32.498 17.7 32.498 11.6Z" fill="#98DB7C"/>
<path d="M35.3984 11.6C35.3984 7.2 38.9984 3.6 43.3984 3.6C47.7984 3.6 51.3984 7.2 51.3984 11.6C51.3984 16 47.7984 19.6 43.3984 19.6C38.9984 19.6 35.3984 16.1 35.3984 11.6Z" fill="#98DB7C"/>
<path d="M43.3984 0.699997C43.0984 0.699997 42.6984 0.699997 42.3984 0.699997C47.9984 1.2 52.2984 5.9 52.2984 11.6C52.2984 17.3 47.8984 22 42.3984 22.5C42.6984 22.5 43.0984 22.5 43.3984 22.5C49.3984 22.5 54.2984 17.6 54.2984 11.6C54.2984 5.6 49.3984 0.699997 43.3984 0.699997Z" fill="#6ACB44"/>
<path d="M43.3984 3.6C43.0984 3.6 42.6984 3.6 42.3984 3.7C46.2984 4.2 49.3984 7.6 49.3984 11.6C49.3984 15.7 46.3984 19 42.3984 19.5C42.6984 19.5 43.0984 19.6 43.3984 19.6C47.7984 19.6 51.3984 16 51.3984 11.6C51.3984 7.2 47.7984 3.6 43.3984 3.6Z" fill="#98DB7C"/>
<path d="M43.3988 23.3C36.9988 23.3 31.7988 18.1 31.7988 11.7C31.7988 5.2 36.9988 0 43.3988 0C49.7988 0 54.9988 5.2 54.9988 11.6C54.9988 18 49.7988 23.3 43.3988 23.3ZM43.3988 1.4C37.7988 1.4 33.1988 6 33.1988 11.6C33.1988 17.2 37.7988 21.8 43.3988 21.8C48.9988 21.8 53.5988 17.2 53.5988 11.6C53.5988 6 48.9988 1.4 43.3988 1.4Z" fill="#35414D"/>
<path d="M43.3996 19.9C38.7996 19.9 35.0996 16.2 35.0996 11.6C35.0996 7 38.7996 3.3 43.3996 3.3C47.9996 3.3 51.6996 7 51.6996 11.6C51.6996 16.2 47.9996 19.9 43.3996 19.9ZM43.3996 3.9C39.1996 3.9 35.6996 7.4 35.6996 11.6C35.6996 15.8 39.1996 19.3 43.3996 19.3C47.5996 19.3 51.0996 15.8 51.0996 11.6C51.0996 7.4 47.5996 3.9 43.3996 3.9Z" fill="#98DB7C"/>
<path d="M41.6996 18.4C40.9996 18.4 40.3996 18.3 39.6996 18.2C38.9996 18.1 38.4996 17.9 38.0996 17.7V14.6C38.6996 14.9 39.1996 15.2 39.7996 15.3C40.3996 15.4 40.9996 15.5 41.5996 15.5C41.9996 15.5 42.2996 15.5 42.5996 15.4C42.8996 15.3 43.1996 15.2 43.3996 15.1C43.5996 15 43.7996 14.8 43.8996 14.6C43.9996 14.4 44.0996 14.1 44.0996 13.8C44.0996 13.5 43.9996 13.3 43.8996 13.1C43.7996 12.9 43.4996 12.8 43.0996 12.7C42.6996 12.6 42.1996 12.6 41.4996 12.6H40.6996L41.1996 9.9H41.9996C42.3996 9.9 42.7996 9.9 43.1996 9.8C43.5996 9.7 43.8996 9.6 44.0996 9.5C44.3996 9.4 44.4996 9.2 44.6996 9C44.7996 8.8 44.8996 8.6 44.8996 8.3C44.8996 8.1 44.7996 7.9 44.5996 7.7C44.3996 7.5 44.0996 7.4 43.5996 7.4C43.1996 7.4 42.7996 7.5 42.3996 7.6C41.9996 7.7 41.5996 7.9 41.0996 8.2L39.5996 5.9C40.2996 5.5 40.8996 5.1 41.5996 4.9C42.2996 4.7 43.1996 4.5 44.1996 4.5C44.9996 4.5 45.6996 4.6 46.2996 4.9C47.0996 5 47.5996 5.4 47.9996 5.9C48.2996 6.4 48.4996 7 48.4996 7.6C48.4996 8.3 48.3996 8.8 48.0996 9.3C47.7996 9.8 47.4996 10.2 46.9996 10.4C46.4996 10.7 45.9996 10.9 45.3996 11V11.1C46.1996 11.3 46.8996 11.6 47.2996 12.2C47.6996 12.8 47.8996 13.4 47.8996 14.1C47.8996 14.8 47.6996 15.5 47.3996 16C47.0996 16.5 46.5996 17 46.0996 17.3C45.4996 17.6 44.8996 17.9 44.0996 18.1C43.2996 18.3 42.4996 18.4 41.6996 18.4Z" fill="#35414D"/>
</g>
<defs>
<clipPath id="clip0_3918_3381">
<rect width="55" height="55" fill="white"/>
</clipPath>
</defs>
</svg>
