<svg width="48" height="16" viewBox="0 0 48 16" fill="none" xmlns="http://www.w3.org/2000/svg">
<path d="M47.7071 8.70711C48.0976 8.31658 48.0976 7.68342 47.7071 7.29289L41.3431 0.928932C40.9526 0.538408 40.3195 0.538408 39.9289 0.928932C39.5384 1.31946 39.5384 1.95262 39.9289 2.34315L45.5858 8L39.9289 13.6569C39.5384 14.0474 39.5384 14.6805 39.9289 15.0711C40.3195 15.4616 40.9526 15.4616 41.3431 15.0711L47.7071 8.70711ZM0 9H2.35V7H0V9ZM7.05 9H11.75V7H7.05V9ZM16.45 9H21.15V7H16.45V9ZM25.85 9H30.55V7H25.85V9ZM35.25 9H39.95V7H35.25V9ZM44.65 9H47V7H44.65V9Z" fill="#35414D"/>
</svg>
