<svg width="60" height="100" viewBox="0 0 60 100" fill="none" xmlns="http://www.w3.org/2000/svg">
<g clip-path="url(#clip0_3414_2533)">
<mask id="mask0_3414_2533" style="mask-type:luminance" maskUnits="userSpaceOnUse" x="-20" y="0" width="100" height="100">
<path d="M-20 7.62939e-06H80V100H-20V7.62939e-06Z" fill="white"/>
</mask>
<g mask="url(#mask0_3414_2533)">
<path d="M58.3203 5.88673V94.1133C58.3203 96.5566 56.3418 98.5352 53.8984 98.5352H6.10176C3.90039 98.5352 2.07617 96.9297 1.73633 94.8242C1.69942 94.5938 1.67969 94.3555 1.67969 94.1133V5.88673C1.67969 3.44337 3.6582 1.46485 6.10176 1.46485H53.8984C56.3418 1.46485 58.3203 3.44337 58.3203 5.88673Z" fill="#B3F6FF"/>
<path d="M58.3184 5.88673V94.1133C58.3184 96.5566 56.3398 98.5352 53.8965 98.5352H6.0998C3.89843 98.5352 2.07422 96.9297 1.73438 94.8242H49.209C51.6523 94.8242 53.6309 92.8457 53.6309 90.4023V5.88673C53.6309 3.44337 51.6523 1.46485 49.209 1.46485H53.8965C56.3398 1.46485 58.3184 3.44337 58.3184 5.88673Z" fill="#A0DBF2"/>
<path d="M58.3203 91.6992V94.1133C58.3203 96.5566 56.3418 98.5352 53.8984 98.5352H6.10176C3.90039 98.5352 2.07617 96.9297 1.73633 94.8242C1.69942 94.5938 1.67969 94.3555 1.67969 94.1133V91.6992H58.3203Z" fill="#616270"/>
<path d="M44.6484 1.46484V5.77148C44.6484 7.0918 43.5783 8.16406 42.2559 8.16406H17.7441C16.4219 8.16406 15.3516 7.0918 15.3516 5.77148V1.46484H44.6484Z" fill="#616270"/>
<path d="M44.6484 2.45117V5.77148C44.6484 7.0918 43.5783 8.16406 42.2559 8.16406H17.7441C16.4219 8.16406 15.3516 7.0918 15.3516 5.77148V4.84375H42.2559C43.5783 4.84375 44.6484 3.77148 44.6484 2.45117Z" fill="#40414C"/>
<path d="M58.3184 91.6992V94.1133C58.3184 96.5566 56.3398 98.5352 53.8965 98.5352H6.0998C3.89843 98.5352 2.07422 96.9297 1.73438 94.8242H49.209C51.2014 94.8242 52.8848 93.5078 53.4375 91.6992H58.3184Z" fill="#40414C"/>
<path d="M46.7308 63.3836L45.344 65.6961L44.8538 66.5144C44.3538 67.3621 43.5491 67.9832 42.6058 68.2527C39.4827 69.1082 32.5979 69.282 21.5608 58.2449C10.5257 47.2078 10.6976 40.323 11.553 37.2C11.8226 36.2566 12.4437 35.45 13.2913 34.9519L14.1897 34.4129L16.4222 33.073C17.1368 32.6453 18.0608 32.8543 18.5237 33.5476L23.514 41.034C23.9671 41.7136 23.8185 42.6277 23.1741 43.1297L20.9241 44.7586C20.3147 45.2273 20.1409 46.0691 20.512 46.741C21.336 48.2195 22.1155 49.9656 25.9747 53.8308C29.8362 57.6961 31.5862 58.4695 33.0647 59.2937C33.7366 59.6648 34.5784 59.491 35.0472 58.8816L36.6761 56.6316C37.178 55.9871 38.0921 55.8386 38.7718 56.2918L46.2581 61.282C46.9515 61.7449 47.1604 62.6687 46.7308 63.3836Z" fill="#51E08B"/>
<path d="M46.7291 63.3836L45.3424 65.6961C42.2213 66.5515 35.4323 66.6375 24.3971 55.6004C13.3598 44.5633 13.3327 37.534 14.1881 34.4129L16.4205 33.073C17.1352 32.6453 18.0592 32.8543 18.5221 33.5476L23.5123 41.034C23.9655 41.7136 23.8168 42.6277 23.1725 43.1297L20.9225 44.7586C20.3131 45.2273 20.1393 46.0691 20.5104 46.741C21.3344 48.2195 22.1139 49.9656 25.9731 53.8308C29.8346 57.6961 31.5846 58.4695 33.0631 59.2937C33.735 59.6648 34.5768 59.491 35.0455 58.8816L36.6744 56.6316C37.1764 55.9871 38.0905 55.8386 38.7701 56.2918L46.2565 61.282C46.9498 61.7449 47.1588 62.6687 46.7291 63.3836Z" fill="#1BC18A"/>
<path d="M43.1836 5.77155C43.1836 6.28288 42.7676 6.69889 42.2562 6.69889H17.7437C17.2324 6.69889 16.8164 6.28288 16.8164 5.77155V2.92976H43.1836V5.77155ZM58.3203 11.6319C59.1295 11.6319 59.7852 10.976 59.7852 10.1671V5.886C59.7852 2.6405 57.1445 6.86646e-05 53.899 6.86646e-05H6.10098C2.85547 6.86646e-05 0.214844 2.6405 0.214844 5.886V94.1139C0.214844 97.3596 2.85547 100 6.10098 100H53.899C57.1445 100 59.7852 97.3596 59.7852 94.1139V17.0094C59.7852 16.2005 59.1295 15.5446 58.3203 15.5446C57.5111 15.5446 56.8555 16.2005 56.8555 17.0094V90.2344H18.7812C17.9721 90.2344 17.3164 90.8903 17.3164 91.6993C17.3164 92.5083 17.9721 93.1641 18.7812 93.1641H56.8555V94.1139C56.8555 95.7442 55.5293 97.0704 53.899 97.0704H6.10098C4.4707 97.0704 3.14453 95.7442 3.14453 94.1139V93.1641H12.0238C12.8328 93.1641 13.4887 92.5083 13.4887 91.6993C13.4887 90.8903 12.8328 90.2344 12.0238 90.2344H3.14453V5.886C3.14453 4.25593 4.4707 2.92976 6.10098 2.92976H13.8867V5.77155C13.8867 7.89831 15.617 9.62858 17.7437 9.62858H42.2562C44.383 9.62858 46.1133 7.89831 46.1133 5.77155V2.92976H53.899C55.5293 2.92976 56.8555 4.25593 56.8555 5.886V10.1671C56.8555 10.976 57.5111 11.6319 58.3203 11.6319Z" fill="#35414D"/>
<path d="M19.2327 47.4532C19.3036 47.5809 19.3745 47.7108 19.4472 47.844C20.2607 49.3369 21.2732 51.1946 24.9394 54.8655C28.5972 58.5282 30.4573 59.5403 31.9517 60.3535C32.0886 60.428 32.222 60.5006 32.3554 60.5748C33.671 61.3032 35.2913 60.967 36.2083 59.7758C36.2171 59.7643 36.2259 59.7526 36.2345 59.7408L37.838 57.524C37.8698 57.4914 37.9212 57.485 37.9591 57.51L45.4466 62.5016C45.4892 62.5301 45.5019 62.5867 45.4755 62.6305L43.5911 65.7719C43.2823 66.2961 42.7898 66.6768 42.2177 66.8397C35.3968 68.711 26.997 61.6092 22.5972 57.2096C18.1972 52.8098 11.0954 44.41 12.9624 37.602C13.1292 37.0162 13.5099 36.5237 14.0444 36.2088L17.1751 34.3305C17.1907 34.3213 17.2077 34.3168 17.2247 34.3168C17.2558 34.3168 17.2861 34.3319 17.3046 34.3596L22.2954 41.8461C22.3212 41.8848 22.3148 41.9364 22.2821 41.9682L20.0655 43.5717C20.0536 43.5803 20.0419 43.5889 20.0304 43.5979C18.839 44.5153 18.503 46.1354 19.2327 47.4532ZM24.0329 44.3174C24.047 44.3074 24.0611 44.2969 24.0745 44.2864C25.3165 43.3188 25.6066 41.534 24.7337 40.2221L19.7421 32.7344C18.8448 31.3887 17.0558 30.9862 15.6683 31.818L12.5472 33.6907C11.3716 34.3832 10.5185 35.4873 10.1411 36.8133C8.95461 41.1393 9.79308 48.5487 20.5253 59.2813C29.0167 67.7725 35.4273 70.0699 39.8835 70.0699C41.0597 70.0699 42.1001 69.9098 43.0064 69.6612C44.3189 69.2875 45.4232 68.4342 46.1095 67.2688L47.988 64.1377C48.8198 62.7506 48.4175 60.9612 47.0718 60.0639L39.5827 55.0715C38.2724 54.2 36.4878 54.4895 35.52 55.7313C35.5095 55.7449 35.4989 55.7588 35.4886 55.7729L33.8814 57.9951C33.8536 58.0244 33.8107 58.0315 33.7771 58.0131C33.6382 57.936 33.497 57.859 33.3521 57.7803C32.0236 57.0573 30.3702 56.1576 27.0122 52.7951C23.6439 49.4225 22.7433 47.7699 22.0196 46.442C21.9429 46.3014 21.8681 46.1641 21.7943 46.0315C21.7745 45.9957 21.7818 45.9522 21.8111 45.9246L24.0329 44.3174Z" fill="#35414D"/>
<path d="M38.4961 50.7293C38.4961 51.5383 39.1518 52.1942 39.9609 52.1942C40.7701 52.1942 41.4258 51.5383 41.4258 50.7293C41.4258 43.9186 35.885 38.3777 29.0742 38.3777C28.265 38.3777 27.6094 39.0336 27.6094 39.8426C27.6094 40.6516 28.265 41.3074 29.0742 41.3074C34.2693 41.3074 38.4961 45.534 38.4961 50.7293Z" fill="#35414D"/>
<path d="M50.2656 50.7293C50.2656 39.0443 40.7592 29.5379 29.0742 29.5379C28.265 29.5379 27.6094 30.1938 27.6094 31.0027C27.6094 31.8117 28.265 32.4676 29.0742 32.4676C39.1437 32.4676 47.3359 40.6598 47.3359 50.7293C47.3359 51.5383 47.9916 52.1942 48.8008 52.1942C49.61 52.1942 50.2656 51.5383 50.2656 50.7293Z" fill="#35414D"/>
</g>
</g>
<defs>
<clipPath id="clip0_3414_2533">
<rect width="60" height="100" fill="white"/>
</clipPath>
</defs>
</svg>
