<svg width="55" height="55" viewBox="0 0 55 55" fill="none" xmlns="http://www.w3.org/2000/svg">
<path d="M47.2992 54H1.69922C1.39922 54 1.19922 53.8 1.19922 53.5V15.5H47.7992V53.5C47.8992 53.8 47.5992 54 47.2992 54Z" fill="#F9F3F1"/>
<path d="M47.6008 15.5H1.30078V10.7C1.30078 10.4 1.50078 10.2 1.80078 10.2H47.1008C47.4008 10.2 47.6008 10.4 47.6008 10.7V15.5Z" fill="#FD9468"/>
<path d="M48.0996 15.5V53.4C48.0996 53.7 47.7996 53.9 47.4996 53.9H45.0996C45.3996 53.9 45.6996 53.7 45.6996 53.4V15.5H48.0996Z" fill="#EFE2DD"/>
<path d="M47.6992 10.6V15.4H45.6992V10.6C45.6992 10.3 45.4992 10.1 45.1992 10.1H47.1992C47.4992 10.2 47.6992 10.4 47.6992 10.6Z" fill="#FE7D43"/>
<path d="M40.3996 23.2H8.69961C8.39961 23.2 8.09961 22.9 8.09961 22.6V19.3C8.09961 19 8.39961 18.7 8.69961 18.7H40.3996C40.6996 18.7 40.9996 19 40.9996 19.3V22.6C40.9996 22.9 40.6996 23.2 40.3996 23.2Z" fill="#E1D3CE"/>
<path d="M40.3996 30.6H8.69961C8.39961 30.6 8.09961 30.3 8.09961 30V26.7C8.09961 26.4 8.39961 26.1 8.69961 26.1H40.3996C40.6996 26.1 40.9996 26.4 40.9996 26.7V30C40.9996 30.3 40.6996 30.6 40.3996 30.6Z" fill="#E1D3CE"/>
<path d="M40.3996 44.1H8.69961C8.39961 44.1 8.09961 43.8 8.09961 43.5V34.1C8.09961 33.8 8.39961 33.5 8.69961 33.5H40.3996C40.6996 33.5 40.9996 33.8 40.9996 34.1V43.5C40.9996 43.8 40.6996 44.1 40.3996 44.1Z" fill="#FFD9AD"/>
<path d="M40.9996 19.3V22.6C40.9996 22.9 40.6996 23.2 40.3996 23.2H38.5996C38.8996 23.2 39.1996 22.9 39.1996 22.6V19.3C39.1996 19 38.8996 18.7 38.5996 18.7H40.3996C40.6996 18.7 40.9996 19 40.9996 19.3Z" fill="#CDBFBA"/>
<path d="M40.9996 26.7V30C40.9996 30.3 40.6996 30.6 40.3996 30.6H38.5996C38.8996 30.6 39.1996 30.3 39.1996 30V26.7C39.1996 26.4 38.8996 26.1 38.5996 26.1H40.3996C40.6996 26.2 40.9996 26.4 40.9996 26.7Z" fill="#CDBFBA"/>
<path d="M40.9996 34.2V43.6C40.9996 43.9 40.6996 44.2 40.3996 44.2H38.5996C38.8996 44.2 39.1996 43.9 39.1996 43.6V34.2C39.1996 33.9 38.8996 33.6 38.5996 33.6H40.3996C40.6996 33.6 40.9996 33.8 40.9996 34.2Z" fill="#FFCA8C"/>
<path d="M28.3004 51.1H20.8004C19.8004 51.1 18.9004 50.3 18.9004 49.2C18.9004 48.2 19.7004 47.3 20.8004 47.3H28.3004C29.3004 47.3 30.2004 48.1 30.2004 49.2C30.1004 50.2 29.3004 51.1 28.3004 51.1Z" fill="#FF646F"/>
<path d="M28.3 47.4H26.5C27.5 47.4 28.4 48.2 28.4 49.3C28.4 49.8 28.2 50.3 27.9 50.6C27.6 50.9 27.1 51.1 26.6 51.1H28.4C28.9 51.1 29.4 50.9 29.7 50.6C30 50.3 30.2 49.8 30.2 49.3C30.1 48.2 29.3 47.4 28.3 47.4Z" fill="#E5485B"/>
<path d="M7.89922 13.9C8.28582 13.9 8.59922 13.5866 8.59922 13.2C8.59922 12.8134 8.28582 12.5 7.89922 12.5C7.51262 12.5 7.19922 12.8134 7.19922 13.2C7.19922 13.5866 7.51262 13.9 7.89922 13.9Z" fill="#35414D"/>
<path d="M11.2996 13.9C11.6862 13.9 11.9996 13.5866 11.9996 13.2C11.9996 12.8134 11.6862 12.5 11.2996 12.5C10.913 12.5 10.5996 12.8134 10.5996 13.2C10.5996 13.5866 10.913 13.9 11.2996 13.9Z" fill="#35414D"/>
<path d="M14.7996 13.9C15.1862 13.9 15.4996 13.5866 15.4996 13.2C15.4996 12.8134 15.1862 12.5 14.7996 12.5C14.413 12.5 14.0996 12.8134 14.0996 13.2C14.0996 13.5866 14.413 13.9 14.7996 13.9Z" fill="#35414D"/>
<path d="M20.8008 46.7C19.4008 46.7 18.3008 47.8 18.3008 49.2C18.3008 50.6 19.4008 51.7 20.8008 51.7H28.3008C29.7008 51.7 30.8008 50.6 30.8008 49.2C30.8008 47.8 29.7008 46.7 28.3008 46.7H20.8008ZM29.5008 49.2C29.5008 49.9 29.0008 50.4 28.3008 50.4H20.8008C20.1008 50.4 19.6008 49.9 19.6008 49.2C19.6008 48.5 20.1008 48 20.8008 48H28.3008C28.9008 48 29.5008 48.6 29.5008 49.2Z" fill="#35414D"/>
<path d="M8.70039 23.9H40.4004C41.1004 23.9 41.7004 23.3 41.7004 22.6V19.3C41.7004 18.6 41.1004 18 40.4004 18H8.70039C8.00039 18 7.40039 18.6 7.40039 19.3V22.6C7.40039 23.3 8.00039 23.9 8.70039 23.9ZM8.70039 19.4H40.3004V22.5H8.70039V19.4Z" fill="#35414D"/>
<path d="M8.70039 31.3H40.4004C41.1004 31.3 41.7004 30.7 41.7004 30V26.7C41.7004 26 41.1004 25.4 40.4004 25.4H8.70039C8.00039 25.4 7.40039 26 7.40039 26.7V30C7.40039 30.7 8.00039 31.3 8.70039 31.3ZM8.70039 26.8H40.3004V29.9H8.70039V26.8Z" fill="#35414D"/>
<path d="M7.40039 43.5C7.40039 44.2 8.00039 44.8 8.70039 44.8H40.4004C41.1004 44.8 41.7004 44.2 41.7004 43.5V34.1C41.7004 33.4 41.1004 32.8 40.4004 32.8H8.70039C8.00039 32.8 7.40039 33.4 7.40039 34.1V43.5ZM8.70039 34.2H40.3004V43.4H8.70039V34.2Z" fill="#35414D"/>
<path d="M45.7 11.1C46.6 11.1 47.4 11.9 47.4 12.8V51.7C47.4 52.6 46.6 53.4 45.7 53.4H3.3C2.4 53.4 1.6 52.6 1.6 51.7V12.8C1.6 11.9 2.4 11.1 3.3 11.1H45.7ZM45.7 9.5H3.3C1.5 9.5 0 11 0 12.8V51.7C0 53.5 1.5 55 3.3 55H45.7C47.5 55 49 53.5 49 51.7V12.8C49 11 47.6 9.5 45.7 9.5Z" fill="#35414D"/>
<path d="M49 15H0V16.6H49V15Z" fill="#35414D"/>
<path d="M32.5 11.6C32.5 5.6 37.4 0.699997 43.4 0.699997C49.4 0.699997 54.3 5.6 54.3 11.6C54.3 17.6 49.4 22.5 43.4 22.5C37.4 22.5 32.5 17.7 32.5 11.6Z" fill="#98DB7C"/>
<path d="M35.4004 11.6C35.4004 7.2 39.0004 3.6 43.4004 3.6C47.8004 3.6 51.4004 7.2 51.4004 11.6C51.4004 16 47.8004 19.6 43.4004 19.6C39.0004 19.6 35.4004 16.1 35.4004 11.6Z" fill="#98DB7C"/>
<path d="M43.4004 0.699997C43.1004 0.699997 42.7004 0.699997 42.4004 0.699997C48.0004 1.2 52.3004 5.9 52.3004 11.6C52.3004 17.3 47.9004 22 42.4004 22.5C42.7004 22.5 43.1004 22.5 43.4004 22.5C49.4004 22.5 54.3004 17.6 54.3004 11.6C54.3004 5.6 49.4004 0.699997 43.4004 0.699997Z" fill="#6ACB44"/>
<path d="M43.4004 3.6C43.1004 3.6 42.7004 3.6 42.4004 3.7C46.3004 4.2 49.4004 7.6 49.4004 11.6C49.4004 15.7 46.4004 19 42.4004 19.5C42.7004 19.5 43.1004 19.6 43.4004 19.6C47.8004 19.6 51.4004 16 51.4004 11.6C51.4004 7.2 47.8004 3.6 43.4004 3.6Z" fill="#98DB7C"/>
<path d="M43.4008 23.3C37.0008 23.3 31.8008 18.1 31.8008 11.7C31.8008 5.2 37.0008 0 43.4008 0C49.8008 0 55.0008 5.2 55.0008 11.6C55.0008 18 49.8008 23.3 43.4008 23.3ZM43.4008 1.4C37.8008 1.4 33.2008 6 33.2008 11.6C33.2008 17.2 37.8008 21.8 43.4008 21.8C49.0008 21.8 53.6008 17.2 53.6008 11.6C53.6008 6 49.0008 1.4 43.4008 1.4Z" fill="#35414D"/>
<path d="M43.4016 19.9C38.8016 19.9 35.1016 16.2 35.1016 11.6C35.1016 7 38.8016 3.3 43.4016 3.3C48.0016 3.3 51.7016 7 51.7016 11.6C51.7016 16.2 48.0016 19.9 43.4016 19.9ZM43.4016 3.9C39.2016 3.9 35.7016 7.4 35.7016 11.6C35.7016 15.8 39.2016 19.3 43.4016 19.3C47.6016 19.3 51.1016 15.8 51.1016 11.6C51.1016 7.4 47.6016 3.9 43.4016 3.9Z" fill="#98DB7C"/>
<path d="M37.5 17.9L38 15.5L42.6 11.4C43.1 11 43.4 10.6 43.7 10.3C44 10 44.2 9.6 44.4 9.4C44.6 9.1 44.7 8.9 44.8 8.6C44.9 8.4 44.9 8.2 44.9 8C44.9 7.7 44.8 7.5 44.7 7.3C44.5 7.1 44.3 7.1 44.1 7.1C43.8 7.1 43.6 7.2 43.3 7.3C43 7.4 42.7 7.6 42.4 7.8C42.1 8 41.8 8.3 41.5 8.6L39.6 6C40.3 5.4 41 4.9 41.9 4.5C42.7 4.1 43.7 3.9 44.7 3.9C45.5 3.9 46.1 4 46.7 4.3C47.3 4.6 47.7 5 48 5.5C48.3 6 48.5 6.6 48.5 7.4C48.5 8 48.4 8.6 48.2 9.1C48 9.7 47.6 10.2 47.1 10.9C46.6 11.5 45.8 12.2 44.9 13.1L43 14.7V14.8H47.6L47 17.9H37.5Z" fill="#35414D"/>
</svg>
