<?xml version="1.0" encoding="utf-8"?>
<!-- Generator: Adobe Illustrator 25.0.0, SVG Export Plug-In . SVG Version: 6.00 Build 0)  -->
<svg version="1.1" id="Layer_1" xmlns="http://www.w3.org/2000/svg" xmlns:xlink="http://www.w3.org/1999/xlink" x="0px" y="0px"
	 viewBox="0 0 56 56" style="enable-background:new 0 0 56 56;" xml:space="preserve">
<style type="text/css">
	.st0{fill:#BDD3DD;}
	.st1{fill:#FFFFFF;}
	.st2{fill:#35414D;}
	.st3{fill:#E0E7EF;}
	.st4{fill:#FF7E96;}
	.st5{fill:#FFCE62;}
	.st6{fill:#5C90AE;}
</style>
<g>
	<g>
		<polygon class="st0" points="35.3,44.3 35.3,47.2 20.7,47.2 20.7,44.3 24.7,42.9 24.7,39.2 31.2,39.2 31.2,42.9 		"/>
	</g>
	<g>
		<g>
			<path class="st1" d="M46.1,8.8c1.2,0,2.1,1,2.1,2.2v23.3H7.8V11c0-1.2,0.9-2.2,2.1-2.2H46.1z"/>
		</g>
		<g>
			<path class="st2" d="M48.2,35.1H7.8c-0.4,0-0.8-0.3-0.8-0.8V11c0-1.7,1.3-3,2.9-3h36.2c1.6,0,2.9,1.4,2.9,3v23.3
				C49,34.8,48.6,35.1,48.2,35.1z M8.6,33.6h38.8V11c0-0.8-0.6-1.5-1.3-1.5H9.9c-0.7,0-1.3,0.7-1.3,1.5V33.6z"/>
		</g>
		<g>
			<path class="st3" d="M20.4,39.2h25.7c1.2,0,2.1-1,2.1-2.2v-2.6H7.8V37c0,1.2,0.9,2.2,2.1,2.2h3.3H20.4z"/>
		</g>
		<g>
			<path class="st2" d="M35.3,48H20.7c-0.4,0-0.8-0.3-0.8-0.8v-2.9c0-0.3,0.2-0.6,0.5-0.7l3.5-1.2v-3.2c0-0.4,0.3-0.8,0.8-0.8h6.6
				c0.4,0,0.8,0.3,0.8,0.8v3.2l3.6,1.3c0.3,0.1,0.5,0.4,0.5,0.7v2.9C36.1,47.7,35.7,48,35.3,48z M21.5,46.5h13.1v-1.6L31,43.6
				c-0.3-0.1-0.5-0.4-0.5-0.7V40h-5v2.9c0,0.3-0.2,0.6-0.5,0.7l-3.5,1.2V46.5z"/>
		</g>
		<g>
			<path class="st2" d="M46.1,40H20.4c-0.4,0-0.8-0.3-0.8-0.8c0-0.4,0.3-0.8,0.8-0.8h25.7c0.7,0,1.3-0.7,1.3-1.5v-1.9H8.6V37
				c0,0.8,0.6,1.5,1.3,1.5h3.3c0.4,0,0.8,0.3,0.8,0.8c0,0.4-0.3,0.8-0.8,0.8H9.9C8.3,40,7,38.6,7,37v-2.6c0-0.4,0.3-0.8,0.8-0.8
				h40.4c0.4,0,0.8,0.3,0.8,0.8V37C49,38.6,47.7,40,46.1,40z"/>
		</g>
	</g>
	<g>
		<path class="st4" d="M36.8,25.4h-4.1c-0.8,0-1.5-0.7-1.5-1.6V21c0-0.9,0.7-1.6,1.5-1.6h9.8c0.8,0,1.5,0.7,1.5,1.6v2.8
			c0,0.9-0.7,1.6-1.5,1.6H36.8z"/>
	</g>
	<g>
		<path class="st2" d="M36,26.1h-3.3c-1.2,0-2.1-1-2.1-2.2V21c0-1.2,1-2.2,2.1-2.2h9.8c1.2,0,2.1,1,2.1,2.2v0.6
			c0,0.3-0.3,0.6-0.6,0.6c-0.3,0-0.6-0.3-0.6-0.6V21c0-0.6-0.4-1-0.9-1h-9.8c-0.5,0-0.9,0.5-0.9,1v2.8c0,0.6,0.4,1,0.9,1H36
			c0.3,0,0.6,0.3,0.6,0.6C36.6,25.8,36.3,26.1,36,26.1z"/>
	</g>
	<g>
		<path class="st2" d="M16.8,40c-0.1,0-0.2,0-0.3-0.1c-0.1,0-0.2-0.1-0.2-0.2c-0.1-0.1-0.1-0.2-0.2-0.2c0-0.1-0.1-0.2-0.1-0.3
			c0-0.1,0-0.2,0.1-0.3c0-0.1,0.1-0.2,0.2-0.2c0.3-0.3,0.8-0.3,1.1,0c0.1,0.1,0.2,0.3,0.2,0.5c0,0.1,0,0.2-0.1,0.3
			c0,0.1-0.1,0.2-0.2,0.2c-0.1,0.1-0.2,0.1-0.3,0.2C17,40,16.9,40,16.8,40z"/>
	</g>
	<g>
		<path class="st5" d="M25.9,30.4H13.7c-0.8,0-1.5-0.7-1.5-1.6V14.5c0-0.9,0.7-1.6,1.5-1.6h12.3c0.8,0,1.5,0.7,1.5,1.6v14.3
			C27.4,29.6,26.7,30.4,25.9,30.4z"/>
	</g>
	<g>
		<path class="st2" d="M25.9,31H13.7c-1.1,0-2.1-1-2.1-2.2V14.5c0-1.2,0.9-2.2,2.1-2.2h12.3c1.1,0,2.1,1,2.1,2.2v14.3
			C28,30,27.1,31,25.9,31z M13.7,13.6c-0.5,0-0.8,0.4-0.8,1v14.3c0,0.5,0.4,1,0.8,1h12.3c0.5,0,0.8-0.4,0.8-1V14.5
			c0-0.5-0.4-1-0.8-1H13.7z"/>
	</g>
	<g>
		<g>
			<g>
				<path class="st2" d="M19.7,25.7c-0.8,0-1.3-0.1-2-0.6c-0.3-0.2-0.3-0.6-0.1-0.9c0.2-0.3,0.6-0.3,0.9-0.1
					c0.5,0.4,0.7,0.4,1.4,0.4c0.7,0,1.1-0.5,1.2-1.1c0-0.2,0.1-1-0.7-1.3c-1-0.4-1.6-0.7-2-1c-0.5-0.4-0.7-1.1-0.6-1.9
					c0.2-0.8,0.7-1.4,1.4-1.6c1.5-0.5,2.5,0.5,2.5,0.5c0.2,0.2,0.2,0.6,0,0.9c-0.2,0.2-0.6,0.2-0.9,0c-0.1-0.1-0.5-0.5-1.3-0.2
					c-0.3,0.1-0.5,0.4-0.5,0.7c-0.1,0.3,0,0.6,0.2,0.7c0.3,0.3,0.8,0.5,1.7,0.8c1.1,0.4,1.7,1.5,1.4,2.6
					C21.9,24.9,20.9,25.7,19.7,25.7C19.7,25.7,19.7,25.7,19.7,25.7z"/>
			</g>
			<g>
				<path class="st2" d="M19.7,18.7c-0.3,0-0.6-0.3-0.6-0.6v-1.2c0-0.3,0.3-0.6,0.6-0.6s0.6,0.3,0.6,0.6v1.2
					C20.3,18.4,20.1,18.7,19.7,18.7z"/>
			</g>
		</g>
		<g>
			<path class="st2" d="M19.7,27c-0.3,0-0.6-0.3-0.6-0.6v-1.2c0-0.3,0.3-0.6,0.6-0.6s0.6,0.3,0.6,0.6v1.2C20.3,26.7,20.1,27,19.7,27
				z"/>
		</g>
	</g>
	<g>
		<polygon class="st6" points="38.3,22.8 39.6,28 41.3,26.1 43.1,24.2 		"/>
	</g>
	<g>
		<path class="st2" d="M39.6,28.7c-0.1,0-0.1,0-0.2,0c-0.2-0.1-0.4-0.2-0.4-0.4L37.7,23c-0.1-0.2,0-0.4,0.2-0.6
			c0.2-0.2,0.4-0.2,0.6-0.1l4.8,1.4c0.2,0.1,0.4,0.2,0.4,0.4c0.1,0.2,0,0.4-0.1,0.6L40,28.5C39.9,28.6,39.7,28.7,39.6,28.7z
			 M39.1,23.7l0.8,3.1l2.1-2.2L39.1,23.7z"/>
	</g>
	<g>
		<path class="st2" d="M44,29.6c-0.2,0-0.3-0.1-0.5-0.2l-2.7-2.9c-0.2-0.2-0.2-0.6,0-0.9c0.2-0.2,0.6-0.2,0.9,0l2.7,2.9
			c0.2,0.2,0.2,0.6,0,0.9C44.3,29.6,44.2,29.6,44,29.6z"/>
	</g>
	<g>
		<path class="st2" d="M43.6,16.3H31.8c-0.4,0-0.7-0.3-0.7-0.7s0.3-0.7,0.7-0.7h11.8c0.4,0,0.7,0.3,0.7,0.7S44,16.3,43.6,16.3z"/>
	</g>
</g>
</svg>
