<?xml version="1.0" encoding="utf-8"?>
<!-- Generator: Adobe Illustrator 25.0.0, SVG Export Plug-In . SVG Version: 6.00 Build 0)  -->
<svg version="1.1" id="Layer_1" xmlns="http://www.w3.org/2000/svg" xmlns:xlink="http://www.w3.org/1999/xlink" x="0px" y="0px"
	 viewBox="0 0 56 56" style="enable-background:new 0 0 56 56;" xml:space="preserve">
<style type="text/css">
	.st0{fill:#C81E1E;}
	.st1{fill:#F44335;}
	.st2{fill:#0377BC;}
	.st3{fill:#02A9F4;}
	.st4{fill:#DFC49C;}
	.st5{fill:#FFE0B2;}
	.st6{fill:#FEC108;}
	.st7{fill:#FFDC00;}
	.st8{fill:#CFD8DC;}
	.st9{fill:#F5F5F5;}
	.st10{fill:#37474F;}
	.st11{fill:#707070;}
	.st12{fill:#9E9E9E;}
	.st13{fill:#624421;}
	.st14{fill:#825A2C;}
	.st15{fill:#35414D;}
</style>
<g id="_x30_35---Creative-Thinking_2_" transform="translate(0.000000, -1.000000)">
	<g id="Shape_65_">
		<path class="st0" d="M45.2,26.7c-0.1,0.2-0.2,0.4-0.3,0.6l-3.1,7.5l-1-1.4l-2.6-3.7l1.8-4.4c0.1-0.2,0.2-0.4,0.2-0.6l3.6,1.5
			L45.2,26.7z"/>
	</g>
	<g id="Shape_64_">
		<path class="st1" d="M43.8,26.2c-0.1,0.2-0.1,0.3-0.2,0.5l-2.8,6.8l-2.6-3.7l1.8-4.4c0.1-0.2,0.2-0.4,0.2-0.6L43.8,26.2z"/>
	</g>
	<g id="Shape_63_">
		<path class="st2" d="M35.2,24.4c-0.1,1.3-0.2,2.7-0.4,4l-4.6,0.8c0-0.1,0-0.1,0-0.2c-0.1-1.6,0-3.2,0.1-4.8c0,0,0-0.1,0-0.1v0
			L35.2,24.4z"/>
	</g>
	<g id="Shape_62_">
		<path class="st3" d="M33.8,24.4c-0.1,1.3-0.2,2.7-0.4,4l-3.3,0.5c-0.1-1.6,0-3.2,0.1-4.8L33.8,24.4z"/>
	</g>
	<g id="Shape_61_">
		<path class="st4" d="M22.5,21.9c-0.1,0-0.3,0-0.4,0c-1.8-0.2-3.4-4.4-3.4-4.4l0.1-3.4c0.3,0.1,0.4-0.5,0.6-1.1
			c0.2-0.5,0.3-1.1,0.6-1.2c0.6-0.1,1.8,1.9,2.2,1.4l1.6,3C23.9,16.3,24.5,21.4,22.5,21.9z"/>
	</g>
	<g id="Shape_60_">
		<path class="st5" d="M22.1,21.9c-1.8-0.2-3.4-4.4-3.4-4.4l0.1-3.4c0.3,0.1,0.4-0.5,0.6-1.1c0.6,0.5,1.2,1.4,1.5,1.1l1.6,3
			C22.6,17.1,22.9,20.3,22.1,21.9z"/>
	</g>
	<g id="Shape_59_">
		<path class="st0" d="M27.4,31.2L26,35.7l-0.4-0.3l-1.2-1l-2.3-2L19,18.9l-0.3-1.4c0.4,0.5,0.9,0.9,1.4,1.2
			c0.5,0.2,1.1,0.3,1.6,0.1c0.2-0.1,0.5-0.1,0.7-0.3c0.8-0.5,1.3-1.3,1.5-2.3L27.4,31.2z"/>
	</g>
	<g id="Shape_39_">
		<path class="st1" d="M25.4,31.2l-0.9,3.1l-2.3-2L19,18.9c0.2,0,0.5,0,0.7-0.1c0.1,0,0.3-0.1,0.4-0.1c0.5,0.2,1.1,0.3,1.6,0.1
			c0.2-0.1,0.5-0.1,0.7-0.3L25.4,31.2z"/>
	</g>
	<g id="Shape_38_">
		<path class="st6" d="M19.4,32.7L19.4,41l-2-0.7L14.1,39L8.8,26.2c-0.1-0.2-0.1-0.3,0-0.5c0.1-0.2,0.2-0.3,0.4-0.4l4-1.7l1.6-0.6
			c0.3-0.1,0.7,0,0.9,0.4l0.5,1.2l0.3,0.6l0.3,0.6l0.5,1.2l0.3,0.6l0.3,0.6l0.5,1.2l0.3,0.6l0.3,0.6L19.4,32.7L19.4,32.7z"/>
	</g>
	<g id="Shape_18_">
		<path class="st7" d="M17.4,33.4l0,6.9L14.1,39L8.8,26.2c-0.1-0.2-0.1-0.3,0-0.5c0.1-0.2,0.2-0.3,0.4-0.4l4-1.7
			c0.2,0.1,0.3,0.2,0.4,0.4l0.5,1.2l0.3,0.6l0.3,0.6l0.5,1.2l0.3,0.6l0.3,0.6l0.5,1.2l0.3,0.6l0.3,0.6L17.4,33.4L17.4,33.4z"/>
	</g>
	<g id="Shape_17_">
		<path class="st8" d="M47.3,43.6c0,1.2-0.5,2.4-1.4,3.3c-0.9,0.9-2.1,1.4-3.3,1.4H13.4c-2.4,0-4.4-1.8-4.6-4.2
			c-0.3-2.4,1.3-4.5,3.6-5.1h0c0.1,0,0.2,0,0.3-0.1c0.2,0,0.4-0.1,0.7-0.1c0.5,0,0.9,0.1,1.3,0.2c0.1-3.4,2.6-6.3,6-6.8
			c0.3,0,0.7-0.1,1-0.1c0.9,0,1.8,0.2,2.6,0.5c0.6,0.2,1.1,0.5,1.6,0.9c1.1-2.9,3.7-5,6.8-5.3c0.3,0,0.7-0.1,1-0.1
			c2.6,0,5.1,1.3,6.7,3.4c1.6,2.1,2,4.9,1.3,7.4c0,0,0,0,0,0c0,0,0,0,0,0c0.3-0.1,0.7-0.1,1-0.1c1.2,0,2.4,0.5,3.3,1.4
			C46.8,41.2,47.3,42.4,47.3,43.6z"/>
	</g>
	<g id="Shape_16_">
		<path class="st9" d="M45.3,43.6c0,1.2-0.5,2.4-1.4,3.3s-2.1,1.4-3.3,1.4H13.4c-2.4,0-4.4-1.8-4.6-4.2c-0.3-2.4,1.3-4.5,3.6-5.1h0
			c0.1,0,0.2,0.1,0.3,0.1c0,0,0-0.1,0-0.1c0.2,0,0.4-0.1,0.7-0.1c0.5,0,0.9,0.1,1.3,0.2c0.1-3.4,2.6-6.3,6-6.8
			c1.2,0.2,2.3-0.1,3.2,0.6c0.1-0.3,0.3,0.2,0.4-0.1c0.6,0.2,1.1,0.5,1.6,0.9c1.1-2.9,3.7-5,6.8-5.3c4.2,0.5,7.3,4.1,7.3,8.3
			c0,0.8-0.1,1.7-0.4,2.4c0.3-0.1,0.7-0.1,1-0.1c0.3,0,0.7,0,1,0.1c0,0,0,0,0,0C43.8,39.6,45.3,41.5,45.3,43.6z"/>
	</g>
	<g id="Shape_15_">
		<path class="st10" d="M22.3,13.3c-0.4,0.5-1,0.8-1.6,1c-0.6,0.1-1.3,0-1.9-0.2l0.1-3.5c0-0.4,0.3-0.7,0.7-0.8c0.1,0,0.1,0,0.2,0
			c0.3,0,0.6,0.2,0.8,0.5L22.3,13.3z"/>
	</g>
	<g id="Shape_7_">
		<path class="st11" d="M35.2,24.4c-0.6,0.1-1.2,0.1-1.8,0c-1.1,0-2.1-0.2-3.1-0.3c0.1-1.1,0.2-2.1,0.4-3.1c0,0,0-0.1,0-0.1
			c1.5,0.1,3,0.2,4.5,0.3C35.2,22.2,35.2,23.3,35.2,24.4z"/>
	</g>
	<g id="Shape_6_">
		<path class="st12" d="M33.8,24.4c-0.2,0-0.3,0-0.5,0c-1.1,0-2.1-0.2-3.1-0.3c0.1-1.1,0.2-2.1,0.4-3.1c1.1,0.1,2.1,0.1,3.2,0.2
			C33.9,22.2,33.9,23.3,33.8,24.4z"/>
	</g>
	<g id="Shape_5_">
		<path class="st13" d="M35.1,21.1L33.2,21l-2.6-0.2c0,0-2.7-2.4-0.2-5.1c1.5-1.6,2.3-2.9,2.6-4c0.1-0.4,0.2-0.8,0.2-1.2
			c0-0.1,0.1-0.3,0.2-0.3s0.3,0,0.4,0.1C35.3,11.9,39,16.4,35.1,21.1z"/>
	</g>
	<g id="Shape_4_">
		<path class="st14" d="M33.2,21l-2.6-0.2c0,0-2.7-2.4-0.2-5.1c1.5-1.6,2.3-2.9,2.6-4C34.6,13.9,36.1,17.4,33.2,21z"/>
	</g>
	<g id="Shape_3_">
		<path class="st6" d="M47.3,23.1c0,0.1,0,0.2-0.1,0.3c-0.9,1-1.5,2.1-2,3.3c-0.2,0.2-0.5,0.3-0.8,0.4c-0.6,0.2-1.1,0.1-1.7,0
			c-0.2,0-0.3-0.1-0.5-0.2c0,0,0,0,0,0c-0.7-0.3-1.3-0.8-1.7-1.4c-0.1-0.2-0.2-0.5-0.3-0.8c0.5-1.2,0.8-2.5,0.9-3.8
			c0-0.1,0.1-0.2,0.2-0.3l3.2-2l0.6-0.3l1-0.6l0.3,1.1L47.3,23.1z"/>
	</g>
	<g id="Shape_2_">
		<path class="st7" d="M45.5,23.1c0,0.1,0,0.2-0.1,0.3c-0.9,1-1.5,2.1-2,3.3c-0.2,0.2-0.5,0.3-0.7,0.4c-0.2,0-0.3-0.1-0.5-0.2
			c0,0,0,0,0,0c-0.7-0.3-1.3-0.8-1.7-1.4c-0.1-0.2-0.2-0.5-0.3-0.8c0.5-1.2,0.8-2.5,0.9-3.8c0-0.1,0.1-0.2,0.2-0.3l3.2-2l0,0.2
			L45.5,23.1z"/>
	</g>
	<g>
		<path class="st15" d="M42.6,38.3L42.6,38.3c0.2-1.1,0.2-2.3-0.1-3.4l3-7.4c0,0,0,0,0,0c0.5-1.4,1.2-2.6,2.1-3.7
			c0.2-0.3,0.3-0.6,0.3-0.9l-1.2-5.4c0,0,0,0,0,0c0-0.1,0-0.1-0.1-0.2c0,0,0,0,0,0c0-0.1-0.1-0.1-0.1-0.2C46.4,17,46.2,17,46.1,17
			c0,0,0,0,0,0c0,0-0.1,0-0.1,0c0,0,0,0-0.1,0c0,0-0.1,0-0.1,0c0,0-0.1,0-0.1,0L41,20c-0.3,0.2-0.5,0.5-0.5,0.8
			c-0.1,1.2-0.4,2.4-0.8,3.5c0,0,0,0,0,0c-0.1,0.2-0.2,0.4-0.3,0.6c0,0,0,0,0,0l-1.5,3.6c-0.4-0.2-0.9-0.4-1.3-0.6
			c-0.3-0.1-0.7-0.2-1-0.3c0.3-2.1,0.4-4.3,0.3-6.5c1.2-1.5,1.8-3.4,1.7-5.4c-0.4-3.9-3.9-6.7-4.1-6.8c-0.2-0.2-0.6-0.2-0.8,0
			c-0.3,0.2-0.4,0.5-0.3,0.8c0.3,1.3,0,2.6-2.5,5.4c-1.2,1.1-1.5,2.8-0.9,4.3c0.2,0.6,0.6,1,0.9,1.5c-0.2,1-0.3,2-0.4,3
			c-0.2,1.6-0.2,3.1-0.1,4.7c-0.6,0.3-1.1,0.7-1.6,1.1l-3.2-13.8c0,0,0,0,0,0c0,0,0-0.1-0.1-0.1l-3.3-6.1C20.9,9.3,20.4,9,19.8,9
			c-0.1,0-0.2,0-0.4,0c-0.7,0.2-1.2,0.8-1.2,1.5L18,17.4c0,0.1,0,0.1,0,0.2c0,0,0,0,0,0l3.3,14c-0.5,0-1,0.1-1.5,0.2L17,25
			c0,0,0,0,0,0s0,0,0,0l-0.8-1.8c-0.3-0.7-1.1-1-1.8-0.7l-5.5,2.3c-0.7,0.3-1,1.1-0.7,1.8l4.9,11.8c-1.6,0.1-3.1,0.9-4.1,2.2
			c-1.2,1.6-1.3,3.8-0.4,5.5c0.9,1.8,2.7,2.9,4.7,2.9h0h29.3c1.9,0,3.7-1.1,4.6-2.7c0.9-1.7,0.9-3.7-0.1-5.4
			C46.2,39.3,44.5,38.3,42.6,38.3z M13,25.9c-0.3,0.1-0.5,0.5-0.4,0.8c0.1,0.3,0.4,0.6,0.7,0.6h0c0.1,0,0.2,0,0.3-0.1l2.4-1l0.5,1.2
			l-1.2,0.5c-0.3,0.1-0.5,0.5-0.4,0.8c0.1,0.3,0.4,0.6,0.7,0.6c0.1,0,0.2,0,0.3-0.1l1.2-0.5l0.5,1.2l-2.4,1
			c-0.3,0.1-0.5,0.5-0.4,0.8c0.1,0.3,0.4,0.6,0.7,0.6h0h0c0.1,0,0.2,0,0.3-0.1l2.4-1l0.5,1.3c-2.1,1-3.7,2.9-4.3,5.2L9.4,26l5.5-2.3
			l0.5,1.2L13,25.9z M14.5,39.8c0.2,0.1,0.4,0,0.6-0.1c0.2-0.1,0.3-0.3,0.3-0.5c0-2.4,1.4-4.5,3.5-5.5c2.1-1,4.7-0.8,6.5,0.6
			c0.2,0.1,0.4,0.2,0.6,0.1c0.2-0.1,0.4-0.2,0.5-0.4c1.1-3,4-4.9,7.1-4.9c0.5,0,0.9,0,1.4,0.1c3.6,0.7,6.3,3.8,6.3,7.5
			c0,0.8-0.1,1.5-0.3,2.2c-0.1,0.2,0,0.5,0.2,0.7c0.2,0.2,0.5,0.3,0.7,0.2c0.3-0.1,0.6-0.1,0.9-0.1c2.2,0,4,1.8,4,4c0,2.2-1.8,4-4,4
			H13.4c-2.2,0-4-1.8-4-4c0-2.2,1.8-4,4-4h0C13.8,39.7,14.1,39.7,14.5,39.8z M21.6,18.1C21.6,18.1,21.6,18.1,21.6,18.1
			C21.6,18.1,21.6,18.1,21.6,18.1c-0.8,0.2-1.7-0.2-2.2-0.9l0.1-2.3c0.2,0,0.4,0.1,0.7,0.1h0c0.2,0,0.4,0,0.7-0.1
			c0.4-0.1,0.9-0.3,1.2-0.6l1.1,2C23,17.2,22.4,17.9,21.6,18.1z M20.5,13.6c-0.3,0.1-0.7,0-1-0.1l0.1-3c0-0.1,0.1-0.1,0.1-0.2
			c0,0,0,0,0,0c0.1,0,0.1,0,0.2,0.1l1.4,2.6C21.1,13.3,20.8,13.5,20.5,13.6z M21.1,19.6L21.1,19.6L21.1,19.6c0,0,0.1,0,0.1,0l0.5,2
			c0.1,0.3,0.4,0.5,0.7,0.5h0c0.2,0,0.4-0.1,0.5-0.3c0.1-0.2,0.2-0.4,0.1-0.6l-0.5-2c0.5-0.2,0.8-0.5,1.1-0.8l3,12.7
			c-0.4,0.5-0.7,1-1,1.5l-1.9-8.1c-0.1-0.3-0.4-0.5-0.7-0.5c-0.1,0-0.1,0-0.2,0c-0.4,0.1-0.6,0.5-0.5,0.8l1.7,7.3
			c-0.5-0.2-0.9-0.3-1.4-0.3l-2.9-12.5C20.2,19.4,20.6,19.6,21.1,19.6z M30.8,24.9l0.1,0c0.9,0.1,1.7,0.2,2.6,0.2h0
			c0.3,0,0.5,0,0.8,0c-0.1,0.9-0.2,1.7-0.3,2.6c-0.2,0-0.3,0-0.5,0c-1,0-2,0.2-2.9,0.5C30.7,27,30.8,25.9,30.8,24.9z M34.8,20.4
			c-1.3-0.1-2.6-0.2-3.9-0.2c-0.5-0.5-0.8-1.1-0.8-1.9c0-0.8,0.3-1.5,0.8-2.1c1.8-2,2.7-3.5,2.9-4.9c1.3,1.3,2.1,3,2.4,4.8
			C36.3,17.7,35.8,19.2,34.8,20.4z M31.2,21.6c0.1,0,3.3,0.2,3.3,0.2c0,0.6,0,1.3,0,1.9c-1.1,0.1-2.2,0-3.3-0.2c-0.1,0-0.1,0-0.2,0
			C31,22.9,31.1,22.3,31.2,21.6z M41.8,21.1l2.7-1.8l-1,2.4c-0.1,0.4,0,0.8,0.4,0.9c0.3,0.1,0.6,0,0.8-0.2c0.1-0.1,0.1-0.1,0.2-0.2
			l0,0c0,0,0,0,0,0l1-2.3l0.7,3.1c-0.8,1-1.4,2-1.9,3.2c-0.6,0.4-1.4,0.4-2.2,0.1c-0.7-0.2-1.3-0.8-1.5-1.6
			C41.4,23.5,41.7,22.3,41.8,21.1z M41.9,27.6c0.5,0.2,1.1,0.3,1.6,0.3h0.1c0.1,0,0.2,0,0.3,0l-2.1,5c-0.6-1.4-1.6-2.6-2.8-3.5
			l1.3-3C40.7,26.9,41.3,27.3,41.9,27.6z M32.8,9.4L32.8,9.4L32.8,9.4L32.8,9.4L32.8,9.4z"/>
		<path class="st15" d="M34.8,14.8c-0.2-0.1-0.5,0-0.7,0.2c-0.2,0.2-0.2,0.4-0.2,0.7c0.2,1-0.1,2-0.7,2.8c-0.2,0.2-0.2,0.5-0.1,0.7
			c0.1,0.2,0.4,0.4,0.6,0.4c0.2,0,0.4-0.1,0.6-0.3c0.8-1.1,1.2-2.6,0.9-3.9C35.2,15,35,14.9,34.8,14.8z"/>
		<path class="st15" d="M25.2,44.3L25.2,44.3c0.1,0,0.2,0,0.3-0.1c0.2-0.1,0.3-0.2,0.4-0.4c0.1-0.2,0.1-0.4,0-0.5
			c-0.1-0.3-0.2-0.7-0.2-1.1c0-1.5,1.2-2.6,2.7-2.6c1,0,1.9,0.6,2.4,1.5c0,0,0,0,0,0c0,0,0,0.1,0,0.1c0,0,0,0,0.1,0
			c0,0,0.1,0,0.1,0.1c0,0,0.1,0.1,0.1,0.1c0,0,0.1,0,0.1,0c0,0,0.1,0,0.1,0c0,0,0.1,0,0.1,0c0,0,0.1,0,0.1,0c0,0,0,0,0.1,0
			c0,0,0,0,0.1-0.1c0,0,0,0,0.1,0c0.3-0.3,0.8-0.4,1.2-0.4c0.8,0,1.5,0.5,1.8,1.1c0.1,0.2,0.4,0.4,0.6,0.4c0.2,0,0.5-0.1,0.6-0.3
			c0.1-0.2,0.1-0.4,0-0.7c-0.5-1.2-1.7-2-3.1-2c-0.5,0-1,0.1-1.4,0.3c-0.7-1-2-1.7-3.2-1.7c-0.3,0-0.6,0-0.9,0.1
			c-1.9,0.4-3.1,2-3.1,3.9c0,0.6,0.1,1.1,0.3,1.6C24.7,44.2,24.9,44.3,25.2,44.3z"/>
		<path class="st15" d="M18,39c0.4,0,0.7-0.3,0.7-0.7c0.1-0.9,0.7-1.7,1.5-2c0.2-0.1,0.3-0.2,0.4-0.4c0.1-0.2,0.1-0.4,0-0.5
			c-0.1-0.4-0.5-0.6-0.9-0.4c-0.1,0-2.5,0.9-2.5,3.3C17.3,38.7,17.6,39,18,39z"/>
		<path class="st15" d="M29.2,34.3c0.1,0,0.1,0,0.2,0h0c0.3,0,0.6-0.2,0.7-0.5c0.3-1.2,1.4-2.1,2.7-2.1c0.2,0,0.4-0.1,0.5-0.2
			c0.1-0.1,0.2-0.3,0.2-0.5c0-0.4-0.3-0.7-0.7-0.7c-1.9,0-3.6,1.3-4,3.2c0,0.2,0,0.4,0.1,0.5C28.8,34.2,29,34.3,29.2,34.3z"/>
	</g>
</g>
</svg>
