<?xml version="1.0" encoding="utf-8"?>
<!-- Generator: Adobe Illustrator 25.0.0, SVG Export Plug-In . SVG Version: 6.00 Build 0)  -->
<svg version="1.1" id="Layer_1" xmlns="http://www.w3.org/2000/svg" xmlns:xlink="http://www.w3.org/1999/xlink" x="0px" y="0px"
	 viewBox="0 0 56 56" style="enable-background:new 0 0 56 56;" xml:space="preserve">
<style type="text/css">
	.st0{fill:#FFCD57;}
	.st1{fill:#F4BA43;}
	.st2{fill:#35414D;}
	.st3{fill:#FFFFFF;}
	.st4{fill:#E5E8EC;}
	.st5{fill:#EF5564;}
	.st6{fill:#DB4554;}
</style>
<g>
	<g>
		<g>
			<path class="st0" d="M47.9,26.5v16.8c0,1.2-0.5,2.3-1.4,3.1c-0.7,0.6-1.6,1-2.7,1H12.2c-1,0-1.9-0.4-2.7-1
				c-0.9-0.7-1.4-1.8-1.4-3.1V26.5c0-1.2,0.5-2.3,1.4-3.1L25.3,9.7c1.5-1.3,3.8-1.3,5.3,0l15.8,13.7C47.4,24.2,47.9,25.3,47.9,26.5
				L47.9,26.5z"/>
		</g>
	</g>
	<g>
		<g>
			<path class="st1" d="M47.9,38v5.2c0,1.2-0.5,2.3-1.4,3.1c-0.7,0.6-1.6,1-2.7,1H12.2c-1,0-1.9-0.4-2.7-1c-0.9-0.7-1.4-1.8-1.4-3.1
				V26.5c0-0.6,0.1-1.2,0.4-1.7c2.7,8,15.4,14,30.6,14C42.2,38.7,45.1,38.5,47.9,38L47.9,38z"/>
		</g>
	</g>
	<g>
		<g>
			<path class="st0" d="M46.5,46.3c-0.7,0.6-1.6,1-2.7,1H12.2c-1,0-1.9-0.4-2.7-1l14.9-10.4l2.7,1.9c0.5,0.4,1.2,0.4,1.7,0l2.7-1.9
				L46.5,46.3z"/>
		</g>
	</g>
	<path class="st2" d="M48.2,24.9c0-0.2,0-0.4-0.1-0.5c-0.1-0.2-0.3-0.3-0.5-0.3c-0.2,0-0.4,0-0.5,0.1l-18.7,13
		c-0.3,0.2-0.6,0.2-0.9,0L9,24.2c-0.3-0.2-0.8-0.1-1,0.2c-0.2,0.3-0.1,0.8,0.2,1l15,10.5L9.1,45.7c-0.2,0.1-0.3,0.3-0.3,0.5
		c0,0.2,0.1,0.4,0.2,0.6c0.9,0.7,2,1.2,3.1,1.2h31.6c1.2,0,2.3-0.4,3.1-1.2c0.2-0.1,0.2-0.4,0.2-0.6c0-0.2-0.1-0.4-0.3-0.5l-14-9.8
		l15.1-10.6C48.1,25.2,48.2,25.1,48.2,24.9z M26.7,38.4L26.7,38.4C26.8,38.4,26.8,38.4,26.7,38.4L26.7,38.4
		C26.8,38.4,26.8,38.4,26.7,38.4c0.4,0.3,0.8,0.4,1.3,0.4c0.4,0,0.9-0.1,1.2-0.4l2.3-1.6l13.6,9.5c-0.4,0.2-0.9,0.3-1.4,0.3H12.2
		c-0.5,0-1-0.1-1.4-0.3l13.6-9.5L26.7,38.4z"/>
	<path class="st2" d="M46.9,22.9L31.1,9.2c-1.8-1.6-4.5-1.6-6.2,0L9.1,22.9c-1,0.9-1.6,2.2-1.6,3.6v16.8c0,1.4,0.6,2.7,1.7,3.6
		c0.9,0.7,2,1.2,3.1,1.2h31.6c1.2,0,2.3-0.4,3.1-1.2c1.1-0.9,1.7-2.2,1.7-3.6V26.5C48.6,25.1,48,23.8,46.9,22.9z M47.2,26.5v16.8
		c0,1-0.4,1.9-1.2,2.5c-0.6,0.5-1.4,0.8-2.2,0.8H12.2c-0.8,0-1.6-0.3-2.2-0.8c-0.7-0.6-1.2-1.6-1.2-2.5V26.5c0-1,0.4-1.9,1.2-2.5
		l15.8-13.7c0.6-0.5,1.4-0.8,2.2-0.8s1.6,0.3,2.2,0.8L46,23.9C46.7,24.6,47.2,25.5,47.2,26.5z"/>
	<g>
		<g>
			<path class="st3" d="M43.5,14.7v12.8L28.8,37.8c-0.5,0.4-1.2,0.4-1.7,0L12.5,27.6V14.7c0-2,1.6-3.6,3.6-3.6h23.8
				C41.9,11.1,43.5,12.7,43.5,14.7L43.5,14.7z"/>
		</g>
	</g>
	<g>
		<g>
			<path class="st4" d="M43.5,25.3v2.2L28.8,37.8c-0.5,0.4-1.2,0.4-1.7,0L12.5,27.6V14.7c0-2,1.6-3.6,3.6-3.6h13.1
				c-4.6,1.4-7.6,3.8-7.6,6.6c0,4.4,7.8,7.9,17.4,7.9C40.6,25.6,42.1,25.5,43.5,25.3L43.5,25.3z"/>
		</g>
	</g>
	<path class="st2" d="M39.9,10.4H16.1c-2.4,0-4.3,1.9-4.3,4.3v12.8c0,0.2,0.1,0.5,0.3,0.6l14.6,10.3c0.4,0.3,0.8,0.4,1.3,0.4
		c0.4,0,0.9-0.1,1.2-0.4l14.6-10.2c0.2-0.1,0.3-0.4,0.3-0.6V14.7C44.2,12.3,42.3,10.4,39.9,10.4z M42.8,14.7v12.5l-14.3,10
		c-0.3,0.2-0.6,0.2-0.9,0l-14.3-10V14.7c0-1.6,1.3-2.9,2.9-2.9h23.8C41.5,11.8,42.8,13.1,42.8,14.7z"/>
	<g>
		<g>
			<g>
				<g>
					<path class="st5" d="M35.7,22.9c0,1.9-0.7,3.6-1.8,4.9c-1.4,1.7-3.6,2.8-5.9,2.8c-2.4,0-4.5-1.1-5.9-2.8
						c-1.1-1.3-1.8-3.1-1.8-4.9c0-4.3,3.5-7.7,7.7-7.7C32.3,15.1,35.7,18.6,35.7,22.9L35.7,22.9z"/>
				</g>
			</g>
			<g>
				<g>
					<path class="st6" d="M35.7,23.7c-0.2,1.6-0.8,3-1.7,4.1c-1.4,1.7-3.6,2.8-5.9,2.8c-2.4,0-4.5-1.1-5.9-2.8
						c-1.1-1.3-1.8-3.1-1.8-4.9c0-3.8,2.8-7,6.4-7.6c0,0.3,0,0.5,0,0.8c0,1.9,0.7,3.6,1.8,4.9c1.4,1.7,3.6,2.8,5.9,2.8
						C34.8,23.8,35.3,23.7,35.7,23.7L35.7,23.7z"/>
				</g>
			</g>
			<path class="st2" d="M28,14.4c-4.7,0-8.4,3.8-8.4,8.4c0,2,0.7,3.9,1.9,5.4c1.6,1.9,4,3,6.5,3c2.5,0,4.9-1.1,6.5-3
				c1.3-1.5,1.9-3.4,1.9-5.4C36.4,18.2,32.7,14.4,28,14.4z M35,22.9c0,1.7-0.6,3.2-1.6,4.5c-1.3,1.6-3.3,2.5-5.4,2.5
				c-2.1,0-4.1-0.9-5.4-2.5c-1.1-1.3-1.6-2.8-1.6-4.5c0-3.9,3.1-7,7-7C31.9,15.8,35,19,35,22.9z"/>
		</g>
		<path class="st2" d="M27.9,17.8c-2.7,0-5,2.2-5,5v0.3c0,2.7,2.2,5,5,5H29c0.2,0,0.4-0.1,0.5-0.2c0.1-0.1,0.2-0.3,0.2-0.5
			c0-0.4-0.3-0.7-0.7-0.7h-1.1c-2,0-3.5-1.6-3.5-3.5v-0.3c0-2,1.6-3.5,3.5-3.5c2,0,3.5,1.6,3.5,3.5v0.7c0,0.1-0.1,0.2-0.2,0.2
			S31,23.6,31,23.5V23c0,0,0-0.1,0-0.1c0-1.7-1.3-3-3-3c-1.7,0-3,1.3-3,3c0,1.7,1.3,3,3,3c0.9,0,1.7-0.4,2.3-1.1
			c0.3,0.2,0.6,0.3,0.9,0.3c0.9,0,1.6-0.7,1.6-1.6v-0.7C32.9,20.1,30.6,17.8,27.9,17.8z M29.6,22.9L29.6,22.9c0,0.9-0.7,1.6-1.6,1.6
			c-0.9,0-1.6-0.7-1.6-1.6c0-0.9,0.7-1.6,1.6-1.6C28.9,21.3,29.6,22,29.6,22.9C29.6,22.9,29.6,22.9,29.6,22.9z"/>
	</g>
</g>
</svg>
