<?xml version="1.0" encoding="utf-8"?>
<!-- Generator: Adobe Illustrator 25.0.0, SVG Export Plug-In . SVG Version: 6.00 Build 0)  -->
<svg version="1.1" id="Layer_1" xmlns="http://www.w3.org/2000/svg" xmlns:xlink="http://www.w3.org/1999/xlink" x="0px" y="0px"
	 viewBox="0 0 56 56" style="enable-background:new 0 0 56 56;" xml:space="preserve">
<style type="text/css">
	.st0{fill:#1976D2;}
	.st1{fill:#35414D;}
	.st2{fill:#FAFAFA;}
</style>
<g>
	<g>
		<path class="st0" d="M42.4,8.8H13.6c-2.7,0-4.8,2.2-4.8,4.8v28.8c0,2.7,2.2,4.8,4.8,4.8h28.8c2.7,0,4.8-2.2,4.8-4.8V13.6
			C47.2,10.9,45.1,8.8,42.4,8.8z"/>
		<path class="st1" d="M42.4,48H13.6C10.5,48,8,45.5,8,42.4V13.6C8,10.5,10.5,8,13.6,8h28.8c3.1,0,5.6,2.5,5.6,5.6v28.8
			C48,45.5,45.5,48,42.4,48z M13.6,9.5c-2.2,0-4,1.8-4,4v28.8c0,2.2,1.8,4,4,4h28.8c2.2,0,4-1.8,4-4V13.6c0-2.2-1.8-4-4-4H13.6z"/>
	</g>
	<g>
		<path class="st2" d="M41.2,28h-6v-4.8c0-1.3,1.1-1.2,2.4-1.2H40v-6h-4.8l0,0c-4,0-7.2,3.2-7.2,7.2V28h-4.8v6H28v13.2h7.2V34h3.6
			L41.2,28z"/>
		<path class="st1" d="M36,48h-8.7V34.8h-4.8v-7.5h4.8v-4c0-4.4,3.6-8,8-8h5.6v7.5l-3.5,0c-0.4,0-1.1,0-1.3,0.1c0,0-0.1,0.1-0.1,0.3
			v4h6.4l-3,7.5H36V48z M28.8,46.5h5.7V33.2h3.9l1.8-4.5h-5.6v-5.6c0-0.6,0.2-1.1,0.5-1.4c0.6-0.6,1.4-0.6,2.4-0.6l1.9,0v-4.5h-4
			c-3.6,0-6.4,2.9-6.4,6.4v5.6H24v4.5h4.8V46.5z"/>
	</g>
</g>
</svg>
