<?xml version="1.0" encoding="utf-8"?>
<!-- Generator: Adobe Illustrator 25.0.0, SVG Export Plug-In . SVG Version: 6.00 Build 0)  -->
<svg version="1.1" id="Layer_1" xmlns="http://www.w3.org/2000/svg" xmlns:xlink="http://www.w3.org/1999/xlink" x="0px" y="0px"
	 viewBox="0 0 56 56" style="enable-background:new 0 0 56 56;" xml:space="preserve">
<style type="text/css">
	.st0{fill:#FFCC66;}
	.st1{fill:#6FABE6;}
	.st2{fill:#82BCF4;}
	.st3{fill:#FFDE76;}
	.st4{fill:#9DCC6B;}
	.st5{fill:#B5E08C;}
	.st6{fill:#35414D;}
</style>
<g id="_18._google_ads_logo_4_">
	<path class="st0" d="M20.7,43.5c2-3.5,0.9-7.9-2.5-10c-3.4-2-7.9-0.9-9.9,2.6l13.4-23.3c-1.2,2.3-1.2,5.1,0.2,7.3
		c-0.1,0,0.2,0.3,6.2,10.8L20.7,43.5z"/>
	<path class="st1" d="M48.8,39.8c0,7.4-9.8,10-13.5,3.6C21.4,19.2,21.7,19.9,21.8,19.9c-2.2-3.4-1.3-7.9,2.1-10.1s7.8-1.3,10,2.1
		c0.2,0.3,0.3,0.5,0.4,0.8C48.8,37.9,48.8,37.1,48.8,39.8z"/>
	<path class="st2" d="M48.8,39.8c0,0.9-0.2,1.8-0.5,2.6c-2.9,2.8-7.5,2.6-10.2-0.3c-0.4-0.4-0.7-0.9-1-1.3
		C23.2,16.5,23.5,17.2,23.6,17.2c-1.2-1.9-1.4-4.3-0.6-6.4c2.9-2.7,7.5-2.6,10.2,0.4c0.4,0.4,0.8,0.9,1.1,1.5
		C48.8,37.9,48.8,37.1,48.8,39.8z"/>
	<path class="st3" d="M27,28.9c-3.2,5.5-9.4,8.5-15.7,7.6l-3-0.5l13.4-23.3c-1.2,2.3-1.2,5.1,0.2,7.3C21.7,19.9,21.7,19.9,27,28.9
		L27,28.9z"/>
	<path class="st4" d="M21.7,39.8c0,1.3-0.3,2.5-1,3.6C17,49.9,7.2,47.2,7.2,39.8c0-4,3.2-7.3,7.2-7.3S21.7,35.8,21.7,39.8z"/>
	<path class="st5" d="M20.8,43.5c-6.4,3.6-13.6-3.6-9.9-10C17.1,29.8,24.4,37.1,20.8,43.5z"/>
	<path class="st6" d="M48.6,35.7C38.1,17.4,34,10.3,32.2,9.2c-3.8-2.3-8.9-1.1-11.2,2.7c-0.1,0.1-0.1,0.2-0.2,0.3
		c-1.4,2.4,4.9-8.6-13.4,23.3c-0.8,1.3-1.2,2.7-1.2,4.2c0,8.4,11.1,11.3,15.2,4.1c0.6-1.1-2.3,4,6.5-11.4l6.5,11.4
		c2.2,3.9,7.2,5.3,11.1,3C49.5,44.6,50.9,39.6,48.6,35.7L48.6,35.7z M14.4,46.2c-3.5,0-6.3-2.8-6.3-6.4c0-1.1,0.3-2.2,0.8-3.2
		c0,0,0-0.1,0.1-0.1c3.8-6.3,13.7-2,11.4,5.2C19.6,44.4,17.2,46.2,14.4,46.2z M22.5,38.5c-0.7-4.5-4.9-7.5-9.3-6.8
		c-0.6,0.1-1.1,0.2-1.7,0.4L20,17.5c0.3,2.1,1,2.8,7,13.3L22.5,38.5z M41.6,46.2c-2.3,0-4.4-1.2-5.5-3.2
		c-15-26.1-14.4-24.5-14.4-26.8c0-3.5,2.8-6.4,6.3-6.4c1.1,0,2.1,0.3,3.1,0.8c1.9,0.9,1.6,1,15.9,25.9c1.8,3,0.9,6.9-2.1,8.7
		C43.9,45.9,42.7,46.2,41.6,46.2z"/>
	<path class="st6" d="M48.6,35.7L48.6,35.7C38.1,17.4,34,10.3,32.2,9.2c-3.8-2.3-8.9-1.1-11.2,2.7c-0.1,0.1-0.1,0.2-0.2,0.3
		c-1.4,2.4,4.9-8.6-13.4,23.3c-0.8,1.3-1.2,2.7-1.2,4.2c0,8.4,11.1,11.3,15.2,4.1c0.1-0.2,0.1-0.2,0.1-0.1c0.3-0.5,1.6-2.7,6.4-11.2
		l6.5,11.4c2.2,3.9,7.2,5.3,11.1,3C49.5,44.6,50.9,39.6,48.6,35.7z M20.4,41.7c-0.8,2.6-3.3,4.4-6,4.4c-3.5,0-6.3-2.8-6.3-6.4
		c0-1.1,0.3-2.2,0.8-3.2c0,0,0-0.1,0.1-0.1C12.8,30.2,22.7,34.5,20.4,41.7z M22.5,38.5c-0.7-4.5-4.9-7.5-9.3-6.8
		c-0.6,0.1-1.1,0.2-1.7,0.4L20,17.5c0.3,2.1,1,2.8,7,13.3L22.5,38.5z M44.9,45.3c-1,0.6-2.1,0.9-3.3,0.9c-2.3,0-4.4-1.2-5.5-3.2
		c-15-26.1-14.4-24.5-14.4-26.8c0-3.5,2.8-6.4,6.3-6.4c1.1,0,2.1,0.3,3.1,0.8c1.9,0.9,1.6,1,15.9,25.9
		C48.8,39.5,47.9,43.4,44.9,45.3z"/>
</g>
</svg>
