<?xml version="1.0" encoding="utf-8"?>
<!-- Generator: Adobe Illustrator 25.0.0, SVG Export Plug-In . SVG Version: 6.00 Build 0)  -->
<svg version="1.1" id="Layer_1" xmlns="http://www.w3.org/2000/svg" xmlns:xlink="http://www.w3.org/1999/xlink" x="0px" y="0px"
	 viewBox="0 0 56 56" style="enable-background:new 0 0 56 56;" xml:space="preserve">
<style type="text/css">
	.st0{fill:#FFFFFF;}
	.st1{fill-rule:evenodd;clip-rule:evenodd;fill:#00D387;}
	.st2{fill:#35414D;}
</style>
<g>
	<polygon class="st0" points="8.5,17.9 47.5,17.9 47.5,39 45.8,40.2 9.1,39.5 8.5,37.3 	"/>
	<g>
		<g>
			<g>
				<path class="st1" d="M8.5,17.9v-7.4C8.5,9.7,9,9,9.7,9h36.6c0.7,0,1.3,0.6,1.3,1.4v7.4H8.5z"/>
			</g>
		</g>
		<g>
			<g>
				<path class="st1" d="M37.3,27.5l2.2,3.8l-2.8,2.2c-0.2,0.2-0.4,0.5-0.3,0.8c0.1,0.7,0.1,1.4,0,2.2c0,0.3,0.1,0.6,0.3,0.8
					l2.8,2.2l-2.2,3.8L34,41.9c-0.3-0.1-0.6-0.1-0.9,0.1c-0.6,0.4-1.2,0.8-1.9,1.1c-0.3,0.1-0.5,0.4-0.5,0.7l-0.5,3.5h-4.4l-0.5-3.5
					c0-0.3-0.2-0.6-0.5-0.7c-0.7-0.3-1.3-0.6-1.9-1.1c-0.2-0.2-0.6-0.2-0.9-0.1l-3.3,1.3l-2.2-3.8l2.8-2.2c0.2-0.2,0.4-0.5,0.3-0.8
					c-0.1-0.7-0.1-1.4,0-2.2c0-0.3-0.1-0.6-0.3-0.8l-2.8-2.2l2.2-3.8l3.3,1.3c0.3,0.1,0.6,0.1,0.9-0.1c0.6-0.4,1.2-0.8,1.9-1.1
					c0.3-0.1,0.5-0.4,0.5-0.7l0.5-3.5h4.4l0.5,3.5c0,0.3,0.2,0.6,0.5,0.7c0.7,0.3,1.3,0.6,1.9,1.1c0.2,0.2,0.6,0.2,0.9,0.1
					L37.3,27.5z"/>
			</g>
		</g>
		<g>
			<path class="st2" d="M28,40.2c2.7,0,4.8-2.2,4.8-4.8c0-2.7-2.2-4.8-4.8-4.8c-2.7,0-4.8,2.2-4.8,4.8C23.2,38,25.3,40.2,28,40.2z
				 M24.9,35.3c0-1.7,1.4-3.1,3.1-3.1s3.1,1.4,3.1,3.1c0,1.7-1.4,3.1-3.1,3.1C26.3,38.4,24.9,37,24.9,35.3z"/>
			<path class="st2" d="M12.8,14.4L12.8,14.4c0.5,0,0.9-0.4,0.9-0.9c0-0.5-0.4-0.9-0.9-0.9c-0.5,0-0.9,0.4-0.9,0.9
				C11.9,14,12.3,14.4,12.8,14.4z"/>
			<path class="st2" d="M45.7,8H10.3c-1.6,0-2.9,1.3-2.9,2.9v26.9c0,1.6,1.3,2.9,2.9,2.9h6.2l1.9,3.3c0.2,0.4,0.7,0.5,1.1,0.4
				l3.2-1.3l0,0c0.4,0.2,0.7,0.5,1.1,0.7l0,0l0.5,3.4c0.1,0.4,0.4,0.8,0.9,0.8h5.4c0.4,0,0.8-0.3,0.9-0.8l0.5-3.4l0,0
				c0.4-0.2,0.8-0.4,1.1-0.7l0,0l3.2,1.3c0.4,0.2,0.9,0,1.1-0.4l1.9-3.3h6.2c1.6,0,2.9-1.3,2.9-2.9V10.9C48.6,9.3,47.3,8,45.7,8z
				 M20.1,37.1c0.2-0.2,0.4-0.5,0.3-0.8c-0.1-0.7-0.1-1.3,0-2c0-0.3-0.1-0.6-0.3-0.8l-2.5-2l1.9-3.4l3,1.2c0.3,0.1,0.6,0.1,0.9-0.1
				c0.5-0.4,1.1-0.7,1.7-1c0.3-0.1,0.5-0.4,0.5-0.7l0.5-3.2h3.9l0.5,3.2c0,0.3,0.2,0.6,0.5,0.7c0.6,0.3,1.2,0.6,1.7,1
				c0.2,0.2,0.6,0.2,0.9,0.1l3-1.2l1.9,3.4l-2.5,2c-0.2,0.2-0.4,0.5-0.3,0.8c0.1,0.7,0.1,1.3,0,2c0,0.3,0.1,0.6,0.3,0.8l2.5,2
				l-1.9,3.4l-3-1.2c-0.3-0.1-0.6-0.1-0.9,0.1c-0.5,0.4-1.1,0.7-1.7,1c-0.3,0.1-0.5,0.4-0.5,0.7l-0.5,3.2h-3.9l-0.5-3.2
				c0-0.3-0.2-0.6-0.5-0.7c-0.6-0.3-1.2-0.6-1.7-1c-0.2-0.2-0.6-0.2-0.9-0.1l-3,1.2l-1.9-3.4L20.1,37.1z M37.4,34.7L37.4,34.7
				l2.7-2.2c0.3-0.3,0.4-0.8,0.2-1.1l-2.7-4.7c-0.2-0.4-0.7-0.5-1.1-0.4l-3.2,1.3l0,0c-0.4-0.2-0.7-0.5-1.1-0.7l0,0l-0.5-3.4
				c-0.1-0.4-0.4-0.8-0.9-0.8h-5.4c-0.4,0-0.8,0.3-0.9,0.8l-0.5,3.4l0,0c-0.4,0.2-0.8,0.4-1.1,0.7l0,0l-3.2-1.3
				c-0.4-0.2-0.9,0-1.1,0.4l-2.7,4.7c-0.2,0.4-0.1,0.9,0.2,1.1l2.7,2.1l0,0c0,0.2,0,0.4,0,0.7c0,0.2,0,0.4,0,0.7l0,0l-2.7,2.1
				c-0.2,0.2-0.3,0.4-0.3,0.7l0,0.1h-5.3c-0.6,0-1.1-0.5-1.1-1.1V19.1h37.8v18.7c0,0.6-0.5,1.1-1.1,1.1h-5.3l0-0.1
				c0-0.3-0.1-0.5-0.3-0.7L37.4,36l0,0c0-0.2,0-0.4,0-0.7C37.4,35.1,37.4,34.9,37.4,34.7z M10.3,9.8h35.5c0.6,0,1.1,0.5,1.1,1.1v6.5
				H9.1v-6.5C9.1,10.3,9.6,9.8,10.3,9.8z"/>
			<path class="st2" d="M16,14.4L16,14.4c0.5,0,0.9-0.4,0.9-0.9c0-0.5-0.4-0.9-0.9-0.9c-0.5,0-0.9,0.4-0.9,0.9
				C15.2,14,15.6,14.4,16,14.4z"/>
			<path class="st2" d="M31.7,14.4h11.5c0.5,0,0.9-0.4,0.9-0.9c0-0.5-0.4-0.9-0.9-0.9H31.7c-0.2,0-0.5,0.1-0.6,0.3
				c-0.2,0.2-0.3,0.4-0.3,0.6C30.9,14,31.2,14.4,31.7,14.4z"/>
			<path class="st2" d="M19.3,14.4L19.3,14.4c0.5,0,0.9-0.4,0.9-0.9c0-0.5-0.4-0.9-0.9-0.9c-0.5,0-0.9,0.4-0.9,0.9
				C18.4,14,18.8,14.4,19.3,14.4z"/>
		</g>
	</g>
</g>
</svg>
