<svg width="143" height="25" viewBox="0 0 143 25" fill="none" xmlns="http://www.w3.org/2000/svg">
<path d="M22.4561 25.8311H4.27432C2.34251 25.8311 0.865234 24.3538 0.865234 22.422V4.24015C0.865234 2.30833 2.34251 0.831055 4.27432 0.831055H22.4561C24.388 0.831055 25.8652 2.30833 25.8652 4.24015V22.422C25.8652 24.3538 24.2743 25.8311 22.4561 25.8311Z" fill="#008E5B"/>
<path d="M16.6626 14.4304L22.1172 10.5668H15.4126L13.3672 4.20312L12.5717 6.58949L11.3217 10.5668H4.61719L10.0717 14.4304L8.02628 20.794V20.6804V20.794L13.3672 16.9304L18.7081 20.794H18.8217L16.6626 14.4304Z" fill="white"/>
<path d="M51.5479 25.8311H33.3661C31.4343 25.8311 29.957 24.3538 29.957 22.422V4.24015C29.957 2.30833 31.4343 0.831055 33.3661 0.831055H51.5479C53.4798 0.831055 54.957 2.30833 54.957 4.24015V22.422C54.957 24.2401 53.3661 25.8311 51.5479 25.8311Z" fill="#008E5B"/>
<path d="M45.7544 14.4304L51.209 10.5668H44.5044L42.459 4.20312L41.6635 6.58949L40.4135 10.5668H40.2999H33.709L39.0499 14.4304L37.0044 20.794L37.1181 20.6804V20.794L42.459 16.8168L47.7999 20.794L45.7544 14.4304Z" fill="white"/>
<path d="M80.5265 25.8311H62.3446C60.4128 25.8311 58.9355 24.3538 58.9355 22.422V4.24015C58.9355 2.30833 60.4128 0.831055 62.3446 0.831055H80.5265C82.4583 0.831055 83.9355 2.30833 83.9355 4.24015V22.422C83.9355 24.2401 82.4583 25.8311 80.5265 25.8311Z" fill="#008E5B"/>
<path d="M74.8466 14.4304L80.1875 10.5668H73.483H73.5966L71.4375 4.20312L70.7557 6.58949L69.392 10.5668H62.8011H62.6875L68.142 14.4304L66.0966 20.794V20.6804V20.794L71.4375 16.8168L76.892 20.794L74.8466 14.4304Z" fill="white"/>
<path d="M109.614 25.8311H91.4325C89.5007 25.8311 88.0234 24.3538 88.0234 22.422V4.24015C88.0234 2.30833 89.5007 0.831055 91.4325 0.831055H109.614C111.546 0.831055 113.023 2.30833 113.023 4.24015V22.422C113.023 24.2401 111.546 25.8311 109.614 25.8311Z" fill="#008E5B"/>
<path d="M103.821 14.4304H103.934L109.275 10.5668H102.571L100.525 4.20312L99.7299 6.58949L98.4799 10.5668H91.7754H91.889H91.7754L97.2299 14.4304L95.1845 20.794V20.6804V20.794L100.525 16.8168L105.866 20.794H105.98L103.821 14.4304Z" fill="white"/>
<path d="M138.706 25.8311H120.524C118.593 25.8311 117.115 24.3538 117.115 22.422V4.24015C117.115 2.30833 118.593 0.831055 120.524 0.831055H138.706C140.638 0.831055 142.115 2.30833 142.115 4.24015V22.422C142.115 24.2401 140.524 25.8311 138.706 25.8311Z" fill="#008E5B"/>
<path d="M132.913 14.4304L138.367 10.5668H131.663L129.617 4.20312L128.822 6.58949L127.572 10.5668H127.458H120.867L126.208 14.4304L124.163 20.794L124.276 20.6804V20.794L129.617 16.8168L134.958 20.794L132.913 14.4304Z" fill="white"/>
</svg>
