<?xml version="1.0" encoding="utf-8"?>
<!-- Generator: Adobe Illustrator 25.0.0, SVG Export Plug-In . SVG Version: 6.00 Build 0)  -->
<svg version="1.1" id="Layer_1" xmlns="http://www.w3.org/2000/svg" xmlns:xlink="http://www.w3.org/1999/xlink" x="0px" y="0px"
	 viewBox="0 0 220.3 150" style="enable-background:new 0 0 220.3 150;" xml:space="preserve">
<style type="text/css">
	.st0{clip-path:url(#SVGID_2_);}
	.st1{fill:#FEE55A;}
	.st2{fill:#FFD301;}
	.st3{fill:#35414D;}
</style>
<g>
	<defs>
		<rect id="SVGID_1_" x="0" y="25" width="220.3" height="100"/>
	</defs>
	<clipPath id="SVGID_2_">
		<use xlink:href="#SVGID_1_"  style="overflow:visible;"/>
	</clipPath>
	<g class="st0">
		<path class="st1" d="M217.1,50.9c1.8-1.7,0.8-4.8-1.6-5L201,43.8c-1-0.1-1.8-0.8-2.3-1.6L192.2,29c-1-2.2-4.3-2.2-5.3,0l-6.5,13.1
			c-0.5,0.9-1.2,1.5-2.3,1.6l-14.5,2.1c-2.5,0.4-3.4,3.3-1.6,5l10.5,10.2c0.7,0.7,1,1.7,0.9,2.7l-2.5,14.4c-0.4,2.5,2.1,4.3,4.3,3.1
			l13-6.8c0.9-0.5,1.9-0.5,2.8,0l13,6.8c2.2,1.1,4.8-0.7,4.3-3.1l-2.5-14.4c-0.2-1,0.2-1.9,0.9-2.7L217.1,50.9z"/>
		<path class="st2" d="M188.1,68.4c0.2-1-0.2-1.9-0.9-2.7l-10.5-10.2c-1.8-1.7-0.8-4.8,1.6-5l14.5-2.1c1-0.1,1.8-0.8,2.3-1.6l3-5.9
			l-5.8-11.8c-1-2.2-4.3-2.2-5.3,0l-6.5,13.1c-0.5,0.9-1.2,1.5-2.3,1.6l-14.5,2.1c-2.5,0.4-3.4,3.3-1.6,5l10.5,10.2
			c0.7,0.7,1,1.7,0.9,2.7L171,78.2c-0.4,2.5,2.1,4.3,4.3,3.1l11.7-6.2L188.1,68.4z"/>
		<path class="st1" d="M3.3,50.9c-1.8-1.7-0.8-4.8,1.6-5l14.5-2.1c1-0.1,1.8-0.8,2.3-1.6L28.2,29c1-2.2,4.3-2.2,5.3,0L40,42.2
			c0.5,0.9,1.2,1.5,2.3,1.6l14.5,2.1c2.5,0.4,3.4,3.3,1.6,5L47.9,61.1c-0.7,0.7-1,1.7-0.9,2.7l2.5,14.4c0.4,2.5-2.1,4.3-4.3,3.1
			l-13-6.8c-0.9-0.5-1.9-0.5-2.8,0l-13,6.8c-2.2,1.1-4.8-0.7-4.3-3.1l2.5-14.4c0.2-1-0.2-1.9-0.9-2.7L3.3,50.9z"/>
		<path class="st2" d="M26,67.2c0.2-1-0.2-1.9-0.9-2.7L14.7,54.3c-1.8-1.7-0.8-4.8,1.6-5l14.5-2.1c1-0.1,1.8-0.8,2.3-1.6l4.3-8.8
			L33.5,29c-1-2.2-4.3-2.2-5.3,0l-6.5,13.1c-0.5,0.9-1.2,1.5-2.3,1.6L5,45.8c-2.5,0.4-3.4,3.3-1.6,5l10.5,10.2
			c0.7,0.7,1,1.7,0.9,2.7l-2.5,14.4c-0.4,2.5,2.1,4.3,4.3,3.1l7.8-4.1L26,67.2z"/>
		<path class="st1" d="M188.5,61.9c2.2-2.1,1-5.8-2-6.2l-17.8-2.6c-1.1-0.2-2.2-1-2.8-2L158,35.1c-1.3-2.7-5.2-2.7-6.6,0l-7.9,16.1
			c-0.6,1-1.5,1.8-2.8,2L123,55.7c-3,0.5-4.2,4.1-2,6.2l12.9,12.6c0.9,0.9,1.2,2,1,3.2l-3,17.7c-0.5,3,2.7,5.2,5.3,3.8l15.9-8.4
			c1-0.6,2.4-0.6,3.4,0l15.9,8.4c2.7,1.4,5.8-0.9,5.3-3.8l-3-17.7c-0.2-1.1,0.2-2.4,1-3.2L188.5,61.9z"/>
		<path class="st2" d="M149.6,82.2c0.2-1.1-0.2-2.4-1-3.2l-12.9-12.6c-2.2-2.1-1-5.8,2-6.2l17.8-2.6c1.1-0.2,2.2-1,2.8-2l5-10.2
			L158.1,35c-1.3-2.7-5.2-2.7-6.6,0l-7.9,16.1c-0.6,1-1.5,1.8-2.8,2l-17.8,2.6c-3,0.5-4.2,4.1-2,6.2l12.9,12.6
			c0.9,0.9,1.2,2.1,1,3.2l-3,17.7c-0.5,3,2.7,5.2,5.3,3.8l10.4-5.4L149.6,82.2z"/>
		<path class="st1" d="M31.8,61.9c-2.2-2.1-1-5.8,2-6.2l17.8-2.6c1.1-0.2,2.2-1,2.8-2l7.9-16.1c1.3-2.7,5.2-2.7,6.6,0l7.9,16.1
			c0.6,1,1.5,1.8,2.8,2l17.8,2.6c3,0.5,4.2,4.1,2,6.2L86.5,74.5c-0.9,0.9-1.2,2-1,3.2l3,17.7c0.5,3-2.7,5.2-5.3,3.8l-15.8-8.4
			c-1-0.6-2.4-0.6-3.4,0L48,99.2c-2.7,1.4-5.8-0.9-5.3-3.8l3-17.7c0.2-1.1-0.2-2.4-1-3.2L31.8,61.9z"/>
		<path class="st2" d="M61.9,82.2c0.2-1.1-0.2-2.4-1-3.2L48,66.4c-2.2-2.1-1-5.8,2-6.2l17.8-2.6c1.1-0.2,2.2-1,2.8-2l4.2-8.6
			l-5.9-12c-1.3-2.7-5.2-2.7-6.6,0l-7.9,16.1c-0.6,1-1.5,1.8-2.8,2l-17.8,2.6c-3,0.5-4.2,4.1-2,6.2l12.9,12.6c0.9,0.9,1.2,2.1,1,3.2
			l-3,17.7c-0.5,3,2.7,5.2,5.3,3.8l12.1-6.4L61.9,82.2z"/>
		<path class="st1" d="M153.3,74.4c2.8-2.7,1.2-7.4-2.6-8l-22.7-3.3c-1.5-0.2-2.9-1.1-3.5-2.6l-10.2-20.6c-1.7-3.4-6.7-3.4-8.4,0
			L95.8,60.5c-0.7,1.3-2,2.3-3.5,2.6l-22.7,3.3c-3.8,0.6-5.3,5.2-2.6,8l16.5,16c1.1,1,1.6,2.6,1.3,4.1l-3.9,22.6
			c-0.7,3.8,3.3,6.8,6.8,5l20.3-10.7c1.3-0.8,3-0.8,4.4,0l20.3,10.7c3.4,1.8,7.4-1.1,6.8-5l-3.9-22.6c-0.3-1.5,0.3-3,1.3-4.1
			L153.3,74.4z"/>
		<path class="st2" d="M106.4,100.7c0.3-1.5-0.3-3-1.3-4.1l-16.5-16c-2.8-2.7-1.2-7.4,2.6-8l22.7-3.3c1.5-0.2,2.9-1.1,3.5-2.6
			l5.1-10.3L114.4,40c-1.7-3.4-6.7-3.4-8.4,0L95.8,60.5c-0.7,1.3-2,2.3-3.5,2.6l-22.7,3.3c-3.8,0.6-5.3,5.2-2.6,8l16.5,16
			c1.1,1,1.6,2.6,1.3,4.1L81,117.1c-0.7,3.8,3.3,6.8,6.8,5l16.5-8.7L106.4,100.7z"/>
		<path class="st3" d="M174,102.1c-1,0-1.9-0.2-2.9-0.7L155.3,93c-0.4-0.2-0.9-0.2-1.1,0l-15.9,8.4c-0.4,0.2-0.8,0.4-1.1,0.5
			c-0.7,0.2-1.3,0.1-1.9-0.3c-0.6-0.4-1-1-1-1.6l-0.9-5c-0.4-2.3,0.4-4.6,2-6.2l16.4-16c0.7-0.7,0.9-1.5,0.6-2.4
			c-0.3-0.9-1-1.4-1.8-1.5l-22.7-3.3c-2.3-0.3-4.3-1.8-5.3-3.8l-2.3-4.7c-0.3-0.6-0.3-1.3-0.1-1.9c0.2-0.6,0.8-1.1,1.4-1.3
			c0.5-0.2,0.9-0.3,1.2-0.3l17.8-2.6c0.4-0.1,0.8-0.3,1-0.7l7.9-16.1c1-2.1,3.1-3.3,5.4-3.3c2.3,0,4.4,1.3,5.4,3.3l8,16.1
			c0.2,0.4,0.6,0.7,1,0.7l17.8,2.6c2.3,0.3,4.2,1.9,4.9,4.1c0.8,2.2,0.1,4.6-1.5,6.2l-12.9,12.6c-0.3,0.3-0.5,0.7-0.4,1.1l3,17.7
			c0.4,2.3-0.6,4.6-2.4,5.9C176.5,101.7,175.3,102.1,174,102.1z M154.7,88.1c1,0,1.9,0.2,2.8,0.7l15.9,8.4c0.7,0.4,1.1,0,1.3-0.1
			c0.2-0.1,0.7-0.6,0.5-1.2l-3-17.7c-0.4-2,0.3-4,1.7-5.3l12.9-12.6c0.5-0.5,0.4-1,0.3-1.3c-0.1-0.3-0.3-0.8-1-0.9l-17.8-2.6
			c-2-0.3-3.6-1.5-4.6-3.3l-8-16.1c-0.3-0.7-0.9-0.7-1.1-0.7c-0.3,0-0.9,0.1-1.1,0.7l-7.9,16.1c-0.9,1.8-2.6,3-4.6,3.3l-15.3,2.2
			l1,1.8c0.3,0.7,1,1.1,1.7,1.2l22.7,3.3c2.7,0.4,4.9,2.2,5.7,4.8c0.9,2.6,0.2,5.3-1.8,7.2l-16.4,16c-0.6,0.6-0.8,1.2-0.7,2l0.3,1.9
			l13.7-7.2C152.8,88.4,153.7,88.1,154.7,88.1z"/>
		<path class="st3" d="M46.3,102.1c-1.2,0-2.5-0.4-3.5-1.1c-1.9-1.3-2.8-3.6-2.4-5.9l3-17.7c0.1-0.4-0.1-0.9-0.4-1.1L30.2,63.6
			c-1.6-1.6-2.3-4-1.5-6.2c0.8-2.2,2.6-3.8,4.9-4.1l17.8-2.6c0.4-0.1,0.8-0.3,1-0.7l8-16.1c1-2.1,3.1-3.3,5.4-3.3s4.4,1.3,5.4,3.3
			l8,16.1c0.2,0.4,0.6,0.7,1,0.7l17.8,2.6c0.4,0.1,0.9,0.2,1.2,0.3c0.7,0.2,1.1,0.8,1.4,1.3c0.3,0.7,0.2,1.3-0.1,1.9l-2.3,4.7
			c-1,2.1-3,3.5-5.3,3.8l-22.7,3.3c-0.9,0.1-1.5,0.7-1.8,1.5c-0.3,0.9-0.1,1.7,0.6,2.4l16.5,16c1.6,1.6,2.4,3.9,2,6.2l-0.9,5
			c-0.1,0.7-0.5,1.2-1,1.6c-0.6,0.4-1.2,0.5-1.9,0.3c-0.5-0.1-0.9-0.3-1.1-0.5L66.2,93c-0.4-0.2-0.9-0.2-1.1,0l-15.9,8.4
			C48.2,101.9,47.3,102.1,46.3,102.1z M65.7,35.4c-0.2,0-0.9,0.1-1.1,0.7l-8,16.1c-0.9,1.8-2.6,3-4.6,3.3l-17.8,2.6
			c-0.7,0.1-1,0.7-1,0.9c-0.1,0.2-0.2,0.8,0.3,1.3l12.9,12.6c1.4,1.4,2.1,3.4,1.7,5.3l-3,17.7c-0.1,0.7,0.3,1.1,0.5,1.2
			c0.2,0.1,0.7,0.5,1.3,0.1l15.9-8.4c1.7-1,3.8-1,5.6,0l13.7,7.2l0.3-1.9c0.1-0.8-0.1-1.5-0.7-2l-16.5-16c-1.9-1.9-2.6-4.7-1.8-7.2
			c0.9-2.6,3-4.4,5.7-4.8l22.7-3.3c0.8-0.1,1.4-0.6,1.7-1.2l1-1.8L79,55.6c-2-0.3-3.6-1.5-4.6-3.3l-8-16.1
			C66.4,35.4,65.8,35.4,65.7,35.4z"/>
		<path class="st3" d="M15,84.1c-1.1,0-2.2-0.4-3.1-1c-1.6-1.2-2.5-3.2-2.1-5.2l2.5-14.4c0-0.2,0-0.4-0.2-0.6L1.6,52.7
			c-1.4-1.4-2-3.5-1.3-5.5c0.7-1.9,2.3-3.3,4.3-3.6L19,41.4c0.2,0,0.4-0.2,0.5-0.3L26,28c1-1.8,2.8-3,4.8-3c2,0,3.9,1.1,4.8,3
			L42,41.2c0.1,0.2,0.3,0.3,0.5,0.3l14.5,2.1c0.2,0,0.3,0.1,0.5,0.1c0.7,0.2,1.3,0.7,1.6,1.3c0.3,0.7,0.3,1.4,0,2.1l-2.6,5.1
			c-0.9,1.8-2.6,3-4.6,3.3l-17.8,2.6c-0.7,0.1-1,0.7-1,0.9c-0.1,0.2-0.2,0.8,0.3,1.3l12.9,12.6c1.4,1.4,2.1,3.4,1.7,5.3l-0.7,3.6
			c-0.1,0.8-0.6,1.4-1.3,1.7c-0.7,0.4-1.5,0.3-2.2,0l-13-6.8c-0.2-0.1-0.4-0.1-0.6,0l-13,6.8C16.7,83.9,15.9,84.1,15,84.1z
			 M30.8,29.7c-0.2,0-0.4,0.1-0.6,0.3l-6.5,13.1c-0.8,1.6-2.3,2.7-4,3L5.3,48.2c-0.3,0-0.4,0.3-0.5,0.4C4.7,48.7,4.7,49,5,49.2
			l10.5,10.2c1.2,1.2,1.8,3,1.5,4.8l-2.5,14.4c-0.1,0.3,0.1,0.5,0.2,0.6c0.1,0.1,0.4,0.2,0.7,0l13-6.8c1.5-0.9,3.4-0.9,5,0l10,5.2
			l0.1-0.4c0.1-0.4-0.1-0.9-0.4-1.1L30.2,63.4c-1.6-1.6-2.3-4-1.5-6.2c0.8-2.2,2.6-3.8,4.9-4.1l17.8-2.6c0.4-0.1,0.8-0.3,1-0.7
			l1.1-2.3l-11.5-1.7c-1.7-0.3-3.2-1.3-4-3l-6.5-13.1C31.2,29.8,30.9,29.7,30.8,29.7z"/>
		<path class="st3" d="M205.3,84.1c-0.9,0-1.7-0.2-2.5-0.7l-13-6.8c-0.2-0.1-0.4-0.1-0.6,0l-13,6.8c-0.7,0.4-1.5,0.4-2.2,0
			c-0.7-0.4-1.1-1-1.3-1.7l-0.7-3.6c-0.4-2,0.3-4,1.7-5.3l12.9-12.6c0.5-0.5,0.4-1,0.3-1.3c-0.1-0.3-0.3-0.8-1-0.9l-17.8-2.6
			c-2-0.3-3.6-1.5-4.6-3.3L161,47c-0.3-0.7-0.3-1.4,0-2.1c0.3-0.7,0.9-1.1,1.6-1.3c0.2,0,0.3-0.1,0.5-0.1l14.5-2.1
			c0.2,0,0.4-0.2,0.5-0.3l6.5-13.1c1-1.8,2.8-3,4.8-3c2.1,0,3.9,1.1,4.8,3l6.5,13.1c0.1,0.2,0.3,0.3,0.5,0.3l14.5,2.1
			c2,0.3,3.7,1.7,4.3,3.6c0.6,1.9,0.1,4.1-1.3,5.5l-5.3,5.2c-1,1-2.5,0.9-3.3,0c-1-1-0.9-2.5,0-3.3l5.3-5.2c0.2-0.2,0.2-0.5,0.2-0.6
			c-0.1-0.2-0.2-0.4-0.5-0.4l-14.5-2.1c-1.7-0.3-3.2-1.3-4-3l-6.5-13.1c-0.1-0.3-0.4-0.3-0.6-0.3c-0.2,0-0.4,0.1-0.6,0.3l-6.5,13.1
			c-0.8,1.6-2.3,2.7-4,3l-11.5,1.7l1.1,2.3c0.2,0.4,0.6,0.7,1,0.7l17.8,2.6c2.3,0.3,4.2,1.9,4.9,4.1c0.8,2.2,0.1,4.6-1.5,6.2
			l-12.9,12.6c-0.3,0.3-0.5,0.7-0.4,1.1l0.1,0.4l10-5.2c1.5-0.9,3.4-0.9,5,0l13,6.8c0.3,0.1,0.5,0.1,0.7,0c0.2-0.1,0.3-0.3,0.2-0.6
			l-1.3-7.5c-0.2-1.3,0.7-2.6,1.9-2.8c1.3-0.2,2.6,0.7,2.8,1.9l1.3,7.5c0.4,2-0.5,4-2.1,5.2C207.5,83.7,206.3,84.1,205.3,84.1z"/>
		<path class="st3" d="M85.5,125c-1.4,0-2.9-0.5-4.1-1.3c-2.2-1.6-3.2-4.2-2.8-6.9l3.9-22.6c0.1-0.8-0.1-1.5-0.7-2l-16.5-16
			c-1.9-1.9-2.6-4.7-1.8-7.2c0.9-2.6,3-4.4,5.7-4.8L92,60.9c0.8-0.1,1.4-0.6,1.7-1.2l10.2-20.6c1.2-2.4,3.6-3.9,6.3-3.9
			c2.7,0,5.1,1.5,6.3,3.9l10.2,20.6c0.3,0.7,1,1.1,1.7,1.2l22.7,3.3c2.7,0.4,4.9,2.2,5.7,4.8c0.9,2.6,0.2,5.3-1.8,7.2l-16.4,15.9
			c-0.6,0.6-0.8,1.2-0.7,2l3.9,22.6c0.5,2.7-0.6,5.3-2.8,6.9c-2.2,1.6-5,1.8-7.4,0.6l-14.9-7.8c-1.1-0.6-1.6-2.1-1-3.2
			c0.6-1.1,2.1-1.6,3.2-1l14.9,7.8c0.8,0.4,1.7,0.4,2.4-0.2c0.8-0.5,1-1.3,1-2.2L133.3,95c-0.4-2.3,0.4-4.6,2-6.2l16.4-16
			c0.7-0.7,0.9-1.5,0.6-2.4c-0.3-0.9-1-1.4-1.8-1.5l-22.7-3.3c-2.3-0.3-4.3-1.8-5.3-3.8l-10.2-20.6c-0.4-0.8-1.1-1.2-2-1.2
			c-0.9,0-1.6,0.5-2,1.2L98.1,61.8c-1,2.1-3,3.5-5.3,3.8l-22.7,3.3c-0.9,0.1-1.5,0.7-1.8,1.5c-0.3,0.9-0.1,1.7,0.6,2.4l16.5,16
			c1.6,1.6,2.4,3.9,2,6.2l-3.9,22.6c-0.2,0.9,0.2,1.7,1,2.2c0.8,0.5,1.6,0.6,2.4,0.2l14.7-7.8c1.1-0.6,2.6-0.2,3.2,1
			c0.6,1.1,0.2,2.6-1,3.2l-14.9,7.8C87.7,124.7,86.7,125,85.5,125z"/>
	</g>
</g>
</svg>
