<svg width="99" height="100" viewBox="0 0 99 100" fill="none" xmlns="http://www.w3.org/2000/svg">
<g clip-path="url(#clip0_1055_682)">
<path opacity="0.1" d="M88.9016 54.8001C88.9016 78.9001 69.3016 98.5001 45.2016 98.5001C39.3016 98.5001 33.6016 97.3001 28.5016 95.2001C14.5016 89.3001 4.10156 76.4001 2.00156 60.8001C1.70156 58.8001 1.60156 56.8001 1.60156 54.8001C1.60156 30.7001 21.2016 11.1001 45.3016 11.1001C69.4016 11.1001 88.9016 30.6001 88.9016 54.8001Z" fill="#00B67A"/>
<path opacity="0.15" d="M45.1984 11.1001C42.8984 11.1001 40.5984 11.3001 38.3984 11.6001C59.2984 14.9001 75.2984 33.0001 75.2984 54.8001C75.2984 76.6001 59.2984 94.7001 38.3984 98.0001C40.5984 98.3001 42.8984 98.5001 45.1984 98.5001C69.2984 98.5001 88.8984 78.9001 88.8984 54.8001C88.8984 30.6001 69.3984 11.1001 45.1984 11.1001Z" fill="#00B67A"/>
<path d="M94.4008 51.5001L69.4008 68.1001C67.6008 69.3001 65.5008 69.7001 63.4008 69.4001C61.3008 69.1001 59.1008 69.5001 57.4008 70.7001L54.0008 72.9001L35.3008 45.3001L39.9008 25.5001C40.3008 24.0001 40.4008 22.4001 40.4008 20.8001C40.4008 16.8001 39.2008 12.8001 37.0008 9.40011C36.4008 8.60011 36.2008 7.60011 36.2008 6.70011C36.2008 5.10011 37.0008 3.50011 38.4008 2.60011C40.3008 1.30011 42.9008 1.60011 44.6008 3.20011L47.6008 6.10011C51.0008 9.40011 53.6008 13.4001 55.3008 17.8001L56.9008 22.1001L73.5008 11.1001C76.1008 9.30011 79.7008 10.1001 81.4008 12.8001C83.0008 15.4001 82.2008 18.9001 79.6008 20.6001V20.7001C79.6008 20.7001 79.6008 20.7001 79.7008 20.7001C80.4008 20.4001 81.0008 20.3001 81.7008 20.3001C82.8008 20.3001 83.9008 20.6001 84.8008 21.2001C85.4008 21.6001 86.0008 22.2001 86.4008 22.8001C87.3008 24.1001 87.5008 25.6001 87.2008 27.0001C86.8008 29.2001 85.1008 30.4001 84.8008 30.6001C84.7008 30.6001 84.7008 30.7001 84.8008 30.8001C84.8008 30.9001 84.9008 30.9001 85.0008 30.8001C85.5008 30.7001 85.9008 30.6001 86.4008 30.6001C87.5008 30.6001 88.6008 30.9001 89.6008 31.5001C90.2008 31.9001 90.8008 32.5001 91.3008 33.1001C93.0008 35.7001 92.3008 39.2001 89.7008 40.9001C89.6008 40.9001 89.6008 41.0001 89.5008 41.0001V41.1001H89.6008C91.2008 40.5001 93.0008 40.8001 94.4008 41.7001C95.1008 42.1001 95.6008 42.7001 96.1008 43.4001C97.7008 46.3001 97.0008 49.8001 94.4008 51.5001Z" fill="#FDD7BD"/>
<path d="M54.2 78.1001L43.7 85.1001L28.5 95.1001C14.5 89.3001 4.1 76.4001 2 60.8001L19.6 49.1001L30.3 42.0001C31.5 41.2001 33.2 41.5001 34 42.8001L55 74.4001C55.8 75.6001 55.5 77.3001 54.2 78.1001Z" fill="#87DBFF"/>
<path d="M54.2016 78.1001L43.7016 85.1001L19.6016 49.1001L30.3016 42.0001C31.5016 41.2001 33.2016 41.5001 34.0016 42.8001L55.0016 74.4001C55.8016 75.6001 55.5016 77.3001 54.2016 78.1001Z" fill="#6FC7FF"/>
<path d="M84.7 21.3001L76.4 25.7001C75.2 26.4001 73.8 26.0001 73 25.0001L79.5 20.8001C79.5 20.8001 79.5 20.8001 79.6 20.8001C80.3 20.5001 80.9 20.4001 81.6 20.4001C82.7 20.4001 83.8 20.7001 84.7 21.3001Z" fill="#FAC5AA"/>
<path d="M89.5 31.7001L81.4 36.0001C80.2 36.6001 78.8 36.3001 78 35.2001L84.5 31.0001L84.8 30.9001C84.8 31.0001 84.9 31.0001 85 30.9001C85.5 30.8001 85.9 30.7001 86.4 30.7001C87.4 30.8001 88.5 31.1001 89.5 31.7001Z" fill="#FAC5AA"/>
<path d="M94.2992 42.0001L87.0992 45.8001C85.8992 46.4001 84.4992 46.1001 83.6992 45.0001L89.3992 41.3001H89.4992C91.0992 40.9001 92.7992 41.1001 94.2992 42.0001Z" fill="#FAC5AA"/>
<path d="M97.3 42.8001C96.3 41.2001 94.7 40.2001 92.9 39.7001C94.1 37.4001 94 34.6001 92.5 32.4001C91.4 30.8001 89.8 29.7001 88.1 29.3001C88.4 28.7001 88.6 28.1001 88.8 27.4001C89.2 25.5001 88.8 23.6001 87.7 22.0001C86.7 20.4001 85.1 19.4001 83.3 18.9001C84.5 16.6001 84.4 13.8001 82.9 11.6001C80.7 8.30011 76.2 7.40011 72.9 9.60011L65.7 14.4001C61.9 12.5001 57.8 11.1001 53.6 10.3001C52.3 8.30011 50.7 6.40011 49 4.70011L46 1.80011C43.8 -0.299887 40.4 -0.599887 37.9 1.00011C34.9 3.00011 34.1 7.00011 36.1 10.0001C36.2 10.1001 36.3 10.2001 36.3 10.4001C26.6 12.4001 17.7 17.5001 11.1 25.1001C3.9 33.4001 0 43.9001 0 54.8001C0 56.9001 0.1 59.0001 0.4 61.0001C2.6 76.8001 13.1 90.5001 27.9 96.6001C33.4 98.9001 39.2 100 45.2 100C54.7 100 63.8 97.1001 71.5 91.6001C79 86.2001 84.7 78.8001 87.8 70.1001C88.1 69.3001 87.7 68.4001 86.9 68.1001C86.1 67.8001 85.2 68.2001 84.9 69.0001C82 77.1001 76.7 84.0001 69.7 89.0001C62.5 94.1001 54.1 96.8001 45.2 96.8001C40.6 96.8001 36.2 96.1001 31.9 94.7001L44.6 86.3001L55.1 79.3001C56 78.7001 56.7 77.7001 56.9 76.6001C57.1 75.5001 56.9 74.4001 56.3 73.4001L56.2 73.2001L58.2 71.8001C59.7 70.8001 61.4 70.5001 63.1 70.7001C65.6 71.1001 68.1 70.6001 70.2 69.2001L87.1 58.0001C87 59.5001 86.8 60.9001 86.5 62.4001C86.3 63.2001 86.9 64.1001 87.7 64.2001C87.8 64.2001 87.9 64.2001 88 64.2001C88.7 64.2001 89.4 63.7001 89.5 62.9001C89.9 60.6001 90.2 58.2001 90.2 55.8001L95 52.6001C96.6 51.5001 97.7 49.9001 98.1 48.0001C98.7 46.4001 98.3 44.4001 97.3 42.8001ZM62.6 16.4001L57.8 19.5001L57 17.0001C56.6 15.9001 56.2 14.9001 55.7 13.9001C58 14.5001 60.4 15.4001 62.6 16.4001ZM13.4 27.2001C19.7 19.9001 28.3 15.0001 37.7 13.3001C39.2 17.0001 39.6 21.0001 38.7 24.9001L34.9 41.3001C34.3 40.7001 33.5 40.2001 32.7 40.0001C31.6 39.8001 30.5 40.0001 29.5 40.6001L18.8 47.7001L3.2 58.1001C3.1 57.0001 3.1 55.9001 3.1 54.8001C3.1 44.6001 6.8 34.8001 13.4 27.2001ZM53.9 76.1001C53.8 76.4001 53.7 76.7001 53.4 76.8001L44.2 82.9001L27 57.4001C26.5 56.7001 25.6 56.5001 24.8 57.0001C24.1 57.5001 23.9 58.4001 24.4 59.2001L41.5 84.7001L28.3 93.4001C15.3 87.6001 5.9 75.5001 3.6 61.5001L19.1 51.3001L20.9 54.0001C21.2 54.4001 21.7 54.7001 22.2 54.7001C22.5 54.7001 22.8 54.6001 23.1 54.4001C23.8 53.9001 24 53.0001 23.5 52.2001L21.7 49.6001L31.1 43.4001C31.4 43.2001 31.7 43.2001 31.9 43.2001C32.1 43.2001 32.5 43.4001 32.6 43.7001L53.6 75.3001C53.9 75.5001 53.9 75.8001 53.9 76.1001ZM95.3 47.6001C95.1 48.7001 94.5 49.6001 93.5 50.2001L88 53.9001L68.6 66.8001C67.1 67.8001 65.4 68.1001 63.7 67.9001C61.2 67.5001 58.7 68.0001 56.6 69.4001L54.6 70.8001L37.3 44.8001L41.7 25.6001C42.8 20.7001 42.2 15.5001 40.1 10.9001C40.1 10.9001 40.1 10.8001 40 10.8001C39.6 9.90011 39.1 9.10011 38.6 8.30011C37.6 6.70011 38 4.60011 39.6 3.60011C40.9 2.70011 42.7 2.90011 43.8 4.00011L46.8 6.90011C50 10.0001 52.5 13.9001 54.1 18.1001L55.7 22.5001V22.6001C55.7 22.7001 55.8 22.7001 55.8 22.8001C56.3 23.5001 57.2 23.7001 58 23.2001L74.6 12.2001C76.5 11.0001 79 11.5001 80.3 13.4001C81.5 15.3001 81 17.8001 79.1 19.1001L77.7 20.1001L74.5 22.2001C74.5 22.2001 74.5 22.2001 74.4 22.2001C73.7 22.7001 73.6 23.6001 74 24.3001C74.5 25.0001 75.4 25.2001 76.2 24.7001L79.4 22.6001C80.3 22.0001 81.4 21.8001 82.5 22.0001C83.6 22.2001 84.5 22.8001 85.1 23.8001C85.7 24.7001 85.9 25.8001 85.7 26.9001C85.5 28.0001 84.9 28.9001 83.9 29.5001L79.2 32.6001C78.5 33.1001 78.3 34.0001 78.8 34.8001C79.1 35.3001 79.6 35.5001 80.1 35.5001C80.4 35.5001 80.7 35.4001 81 35.2001L81.7 34.7001L84.2 33.0001C86.1 31.8001 88.6 32.3001 89.9 34.2001C91.1 36.1001 90.6 38.6001 88.7 39.9001L86.4 41.4001L84 42.9001C83.3 43.4001 83.1 44.3001 83.6 45.1001C83.9 45.6001 84.4 45.8001 84.9 45.8001C85.2 45.8001 85.5 45.7001 85.8 45.5001L86.5 45.0001L89 43.4001C89.9 42.8001 91 42.6001 92.1 42.8001C93.2 43.0001 94.1 43.6001 94.7 44.6001C95.3 45.5001 95.5 46.6001 95.3 47.6001Z" fill="#35414D"/>
</g>
<defs>
<clipPath id="clip0_1055_682">
<rect width="98.5" height="99.7967" fill="white"/>
</clipPath>
</defs>
</svg>
