<?xml version="1.0" encoding="utf-8"?>
<!-- Generator: Adobe Illustrator 25.0.0, SVG Export Plug-In . SVG Version: 6.00 Build 0)  -->
<svg version="1.1" id="Layer_1" xmlns="http://www.w3.org/2000/svg" xmlns:xlink="http://www.w3.org/1999/xlink" x="0px" y="0px"
	 viewBox="0 0 140 150" style="enable-background:new 0 0 140 150;" xml:space="preserve">
<style type="text/css">
	.st0{clip-path:url(#SVGID_2_);}
	.st1{fill:#FFE0B2;}
	.st2{fill:#DFC49C;}
	.st3{fill:#FFDF00;}
	.st4{fill:#FEC108;}
	.st5{fill:#02A9F4;}
	.st6{fill:#0377BC;}
	.st7{fill:#35414D;}
</style>
<g>
	<defs>
		<rect id="SVGID_1_" width="140" height="150"/>
	</defs>
	<clipPath id="SVGID_2_">
		<use xlink:href="#SVGID_1_"  style="overflow:visible;"/>
	</clipPath>
	<g class="st0">
		<path class="st1" d="M102.5,65v22.5c0,17.5,0,20-5,27.5c-2.7,4.1-5,7.5-5,12.5h-40c0-10-3.2-12.5-8.7-16.8
			c-1.8-1.3-3.5-2.8-5.1-4.4c-2.4-2.3-3.8-5.6-3.7-8.9V75.3c0-5,2.9-9.5,7.5-11.4c0.3-0.1,0.6-0.3,0.9-0.3c4.6-1.6,9.3-2.7,14.1-3.2
			c2.6-0.3,5.3-0.4,8-0.2c3.6,0.2,6.6,3,7,6.6c0,0.3,0,0.5,0,0.8v0.1c0,4.1,3.4,7.5,7.5,7.5s7.5-3.4,7.5-7.5V65
			c0,4.1,3.4,7.5,7.5,7.5S102.5,69.1,102.5,65z"/>
		<path class="st2" d="M95,72.5v15c0,17.5,0,20-5,27.5c-2.7,4.1-5,7.5-5,12.5h7.5c0-5,2.3-8.4,5-12.5c5-7.5,5-10,5-27.5V65
			C102.5,69.1,99.1,72.5,95,72.5z"/>
		<path class="st1" d="M57.5,50v10.3c-4.8,0.5-9.6,1.6-14.1,3.2c-0.3,0.1-0.6,0.2-0.9,0.3V50c0-4.1,3.4-7.5,7.5-7.5
			S57.5,45.9,57.5,50z"/>
		<path class="st2" d="M57.5,50v10.3c-0.8,0.1-1.7,0.2-2.5,0.3c-1.7,0.2-3.3,0.6-5,1V50c0-2-0.8-3.9-2.2-5.3c-0.5-0.4-1-0.8-1.6-1.1
			c1.1-0.7,2.4-1,3.8-1C54.1,42.5,57.5,45.9,57.5,50z"/>
		<path class="st1" d="M87.5,50v17.5c0,4.1-3.3,7.5-7.5,7.5c-4.1,0-7.5-3.3-7.5-7.5V50c0-4.1,3.4-7.5,7.5-7.5S87.5,45.9,87.5,50z"/>
		<path class="st2" d="M85.3,44.7c-2.4-2.4-6.1-2.9-9.1-1.2c0.6,0.3,1.1,0.7,1.6,1.2C79.2,46.1,80,48,80,50v17.5
			c0,2.7-1.4,5.1-3.8,6.5c3.5,2.1,8.1,0.9,10.2-2.6c0.7-1.2,1-2.5,1-3.8V50C87.5,48,86.7,46.1,85.3,44.7z"/>
		<path class="st1" d="M102.5,52.5V65c0,4.1-3.4,7.5-7.5,7.5s-7.5-3.4-7.5-7.5V52.5c0-4.1,3.4-7.5,7.5-7.5S102.5,48.4,102.5,52.5z"
			/>
		<path class="st2" d="M100.3,47.2c-2.4-2.4-6.1-2.9-9.1-1.2c0.6,0.3,1.1,0.7,1.6,1.2c1.4,1.4,2.2,3.3,2.2,5.3V65
			c0,2.7-1.4,5.1-3.8,6.5c3.5,2.1,8.1,0.9,10.2-2.6c0.7-1.2,1-2.5,1-3.8V52.5C102.5,50.5,101.7,48.6,100.3,47.2z"/>
		<path class="st1" d="M72.5,47.5v20c0-0.3,0-0.5,0-0.8c-0.4-3.6-3.4-6.4-7-6.6c-2.7-0.2-5.3-0.1-8,0.2V47.5c0-4.1,3.4-7.5,7.5-7.5
			S72.5,43.4,72.5,47.5z"/>
		<path class="st2" d="M70.3,42.2c-2.4-2.4-6.1-2.9-9.1-1.2c0.6,0.3,1.1,0.7,1.6,1.2c1.4,1.4,2.2,3.3,2.2,5.3v12.6h0.5
			c3.6,0.2,6.6,3,7,6.6c0,0.3,0,0.5,0,0.8v-20C72.5,45.5,71.7,43.6,70.3,42.2z"/>
		<path class="st3" d="M71.8,3.7l2.8,5.9l6.2,0.9c1.1,0.2,1.9,1.3,1.7,2.4c-0.1,0.4-0.3,0.8-0.6,1.1l-4.5,4.6l1.1,6.5
			c0.2,1.1-0.5,2.1-1.6,2.4c-0.5,0.1-0.9,0-1.3-0.2l-5.5-3l-5.5,3c-1,0.5-2.2,0.1-2.7-0.9c-0.2-0.4-0.3-0.9-0.2-1.3l1.1-6.5L58.1,14
			c-0.8-0.8-0.8-2.2,0-3c0.3-0.3,0.7-0.5,1.1-0.6l6.2-0.9l2.8-5.9c0.5-1,1.6-1.4,2.6-1C71.3,2.9,71.6,3.2,71.8,3.7z"/>
		<path class="st4" d="M80.8,10.5l-6.2-0.9l-2.8-5.9c-0.5-1-1.6-1.4-2.6-1c-0.4,0.2-0.8,0.5-1,1l-1.9,4.1l0.8,1.7l6.2,0.9
			c1.1,0.2,1.9,1.3,1.7,2.4c-0.1,0.4-0.3,0.8-0.6,1.1l-4.5,4.6l1,6.1l4.7,2.6c1,0.5,2.2,0.2,2.7-0.8c0.2-0.4,0.3-0.9,0.2-1.3
			l-1.1-6.5l4.5-4.6c0.8-0.8,0.8-2.1,0-3C81.6,10.7,81.2,10.5,80.8,10.5z"/>
		<path class="st3" d="M3.7,58.2l5.9-2.8l0.9-6.2c0.2-1.1,1.3-1.9,2.4-1.7c0.4,0.1,0.8,0.3,1.1,0.6l4.6,4.5l6.5-1.1
			c1.1-0.2,2.1,0.5,2.4,1.6c0.1,0.5,0,0.9-0.2,1.3l-3,5.5l3,5.5c0.5,1,0.1,2.2-0.9,2.7c-0.4,0.2-0.9,0.3-1.3,0.2l-6.5-1.1L14,71.9
			c-0.8,0.8-2.2,0.8-3,0c-0.3-0.3-0.5-0.7-0.6-1.1l-0.9-6.2l-5.9-2.8c-1-0.5-1.4-1.6-1-2.6C2.9,58.8,3.2,58.4,3.7,58.2z"/>
		<path class="st4" d="M24.2,60l3-5.5c0.5-1,0.2-2.2-0.8-2.7c-0.4-0.2-0.9-0.3-1.3-0.2l-5.4,0.9c0.4,0.6,0.4,1.4,0.1,2l-3,5.5l3,5.5
			c0.4,0.6,0.3,1.4-0.1,2l5.4,0.9c1.1,0.2,2.2-0.5,2.4-1.6c0.1-0.5,0-0.9-0.2-1.3L24.2,60z"/>
		<path class="st4" d="M11.1,67.4l-1,1l0.4,2.4c0.2,1.1,1.3,1.9,2.4,1.7c0.4-0.1,0.8-0.3,1.1-0.6l3.5-3.4L11.1,67.4z"/>
		<path class="st3" d="M41.3,28.5l-6.1,1.8l-1.8,6c-0.3,1.1-1.5,1.7-2.5,1.3c-0.4-0.1-0.8-0.4-1.1-0.8L26,31.5l-6.4-0.1
			c-1.2,0-2.1-0.9-2.1-2.1c0-0.4,0.1-0.9,0.4-1.2l3.7-5L19.4,17c-0.4-1,0.1-2.2,1.1-2.5c0.4-0.2,0.9-0.2,1.4,0l6.1,2.2l5.1-3.7
			c0.9-0.7,2.2-0.4,2.9,0.5c0.2,0.4,0.4,0.8,0.4,1.2v6.5l5.3,3.8c0.9,0.6,1.2,1.9,0.5,2.8C42.1,28.1,41.7,28.3,41.3,28.5z"/>
		<path class="st3" d="M41.3,28.5l-6.1,1.8l-1.8,6c-0.3,1.1-1.5,1.7-2.5,1.3c-0.4-0.1-0.8-0.4-1.1-0.8L26,31.5l-6.4-0.1
			c-1.2,0-2.1-0.9-2.1-2.1c0-0.4,0.1-0.9,0.4-1.2l3.7-5L19.4,17c-0.4-1,0.1-2.2,1.1-2.5c0.4-0.2,0.9-0.2,1.4,0l6.1,2.2l5.1-3.7
			c0.9-0.7,2.2-0.4,2.9,0.5c0.2,0.4,0.4,0.8,0.4,1.2v6.5l5.3,3.8c0.9,0.6,1.2,1.9,0.5,2.8C42.1,28.1,41.7,28.3,41.3,28.5z"/>
		<path class="st4" d="M41.8,24.9l-5.3-3.8v-6.4c0-1.2-0.9-2.1-2.1-2.1c-0.4,0-0.8,0.1-1.2,0.4l-4.3,3v5l5.4,3.8
			c0.9,0.6,1.2,1.9,0.5,2.8c-0.3,0.4-0.6,0.7-1.1,0.8l-6.1,1.8L27,32.8l2.9,4c0.6,0.9,1.9,1.2,2.8,0.5c0.4-0.3,0.7-0.6,0.8-1.1
			l1.8-6l6.1-1.8c1.1-0.3,1.7-1.5,1.3-2.5C42.5,25.5,42.2,25.1,41.8,24.9z"/>
		<path class="st3" d="M136.3,58.2l-5.9-2.8l-0.9-6.2c-0.2-1.1-1.3-1.9-2.4-1.7c-0.4,0.1-0.8,0.3-1.1,0.6l-4.6,4.5l-6.5-1.1
			c-1.1-0.2-2.1,0.5-2.4,1.6c-0.1,0.5,0,0.9,0.2,1.3l3,5.5l-3,5.5c-0.5,1-0.1,2.2,0.9,2.7c0.4,0.2,0.9,0.3,1.3,0.2l6.5-1.1l4.6,4.5
			c0.8,0.8,2.2,0.8,3,0c0.3-0.3,0.5-0.7,0.6-1.1l0.9-6.2l5.9-2.8c1-0.5,1.4-1.6,1-2.6C137.1,58.7,136.8,58.4,136.3,58.2z"/>
		<path class="st4" d="M136.3,58.2l-5.9-2.8l-0.9-6.2c-0.2-1.1-1.3-1.9-2.4-1.7c-0.4,0.1-0.8,0.3-1.1,0.6l-3.6,3.5l0.6,3.8l5.9,2.8
			c1,0.5,1.4,1.6,1,2.6c-0.2,0.4-0.5,0.8-1,1l-5.9,2.8l-0.6,3.8l3.6,3.5c0.8,0.8,2.2,0.8,3,0c0.3-0.3,0.5-0.7,0.6-1.1l0.9-6.2
			l5.9-2.8c1-0.5,1.4-1.6,1-2.6C137.1,58.8,136.8,58.4,136.3,58.2z"/>
		<path class="st3" d="M98.7,28.5l6.1,1.8l1.8,6.1c0.3,1.1,1.5,1.7,2.5,1.3c0.4-0.1,0.8-0.4,1.1-0.8l3.8-5.3l6.4-0.1
			c1.2,0,2.1-0.9,2.1-2.1c0-0.4-0.1-0.9-0.4-1.2l-3.7-5.1l2.2-6.1c0.4-1-0.1-2.2-1.1-2.5c-0.4-0.2-0.9-0.2-1.4,0l-6.1,2.2l-5-3.7
			c-0.9-0.7-2.2-0.4-2.9,0.5c-0.2,0.4-0.4,0.8-0.4,1.2v6.5L98.4,25c-0.9,0.6-1.2,1.9-0.5,2.8C97.9,28.1,98.3,28.3,98.7,28.5z"/>
		<path class="st4" d="M122.1,28.1l-3.7-5l2.2-6.1c0.4-1-0.1-2.2-1.1-2.5c-0.4-0.2-0.9-0.2-1.4,0l-4.9,1.7c0,0.3,0,0.5-0.1,0.8
			l-2.2,6.1l3.7,5.1c0.7,0.9,0.5,2.2-0.5,2.9c-0.4,0.3-0.8,0.4-1.2,0.4l-6.4,0.1l-0.9,1.3l1,3.5c0.3,1.1,1.5,1.7,2.5,1.3
			c0.4-0.1,0.8-0.4,1.1-0.8l3.8-5.3l6.4-0.1c1.2,0,2.1-0.9,2.1-2.1C122.5,28.9,122.4,28.5,122.1,28.1z"/>
		<path class="st5" d="M52.5,127.5h40c1.4,0,2.5,1.1,2.5,2.5v15c0,1.4-1.1,2.5-2.5,2.5h-40c-1.4,0-2.5-1.1-2.5-2.5v-15
			C50,128.6,51.1,127.5,52.5,127.5z"/>
		<path class="st6" d="M92.5,127.5H85c1.4,0,2.5,1.1,2.5,2.5v15c0,1.4-1.1,2.5-2.5,2.5h7.5c1.4,0,2.5-1.1,2.5-2.5v-15
			C95,128.6,93.9,127.5,92.5,127.5z"/>
		<path class="st7" d="M40,50v12.4c-4.6,2.7-7.5,7.6-7.5,13v22.2c0,4,1.6,7.9,4.5,10.7c1.6,1.7,3.4,3.2,5.3,4.5
			c4.9,3.8,7.4,5.7,7.7,13c-1.5,0.9-2.5,2.5-2.5,4.3v15c0,2.8,2.2,5,5,5h40c2.8,0,5-2.2,5-5v-15c0-1.7-0.9-3.3-2.4-4.2
			c0.7-3.4,2.3-6.6,4.5-9.4c5.4-8.1,5.4-11.3,5.4-28.9v-35c0-5.5-4.5-10-10-10c-2.4,0-4.6,0.9-6.4,2.4c-2.7-4.7-8.8-6.3-13.5-3.6
			c-0.5,0.3-1,0.7-1.5,1.1c-0.4-0.7-0.9-1.4-1.5-2c-3.9-3.9-10.2-3.9-14.1,0c-0.6,0.6-1.1,1.3-1.6,2c-1.8-1.6-4-2.5-6.4-2.5
			C44.5,40,40,44.5,40,50z M52.5,145v-15h40v15H52.5z M95.4,113.6c-2.6,3.3-4.4,7.2-5.2,11.4H54.9c-0.6-9.2-4.4-12.2-9.7-16.3
			c-1.7-1.2-3.3-2.6-4.7-4.1c-1.9-1.9-3-4.5-3-7.2V75.3c0-4.2,2.7-8,6.7-9.5c6.8-2.5,13.9-3.6,21.1-3.3c2.8,0.1,4.9,2.4,4.8,5.2
			c-0.1,2.5-2,4.5-4.4,4.8c-4.8,0.1-9.6,1.1-13.9,3.2c-2.6,1.2-4.3,3.9-4.3,6.8v10c0,1.4,1.1,2.5,2.5,2.5s2.5-1.1,2.5-2.5v-10
			c0-1,0.6-1.8,1.4-2.3c3.8-1.8,8-2.7,12.2-2.7c2.5-0.3,4.8-1.5,6.4-3.4c3.6,4.1,9.8,4.6,14,1c0.8-0.7,1.5-1.5,2.1-2.5
			c3.2,2.8,7.8,3.2,11.4,1v13.9C100,104.9,100,106.7,95.4,113.6z M95,47.5c2.8,0,5,2.2,5,5V65c0,2.8-2.2,5-5,5s-5-2.2-5-5V52.5
			C90,49.7,92.2,47.5,95,47.5z M80,45c2.8,0,5,2.2,5,5v17.5c0,2.8-2.2,5-5,5s-5-2.2-5-5V50C75,47.2,77.2,45,80,45z M60,47.5
			c0-2.8,2.2-5,5-5c2.8,0,5,2.2,5,5V59c-1.3-0.8-2.8-1.3-4.4-1.4c-1.9-0.1-3.8-0.1-5.6,0V47.5z M50,45c2.8,0,5,2.2,5,5v8.1
			c-3.4,0.5-6.7,1.2-10,2.2V50C45,47.2,47.2,45,50,45z"/>
		<path class="st7" d="M59.9,19.4L59,24.6c-0.3,1.7,0.4,3.5,1.9,4.5c1.4,1,3.2,1.1,4.7,0.3l4.3-2.4l4.3,2.4c1.5,0.8,3.3,0.7,4.7-0.3
			s2.2-2.8,1.9-4.5l-0.9-5.2l3.6-3.7c1.2-1.2,1.6-3.1,1.1-4.7S82.7,8.2,81,7.9l-4.9-0.8l-2.2-4.7C73.3,1,71.7,0,70,0
			c-1.7,0-3.3,1-4.1,2.6l-2.2,4.7L58.9,8c-1.7,0.3-3.1,1.4-3.6,3.1c-0.6,1.6-0.1,3.5,1.1,4.7L59.9,19.4z M65.8,12
			c0.8-0.1,1.5-0.7,1.9-1.4L70,5.7l2.3,4.9c0.4,0.8,1.1,1.3,1.9,1.4l5.4,0.8l-4,4c-0.6,0.6-0.8,1.4-0.7,2.2l0.9,5.6L71.2,22
			c-0.7-0.4-1.7-0.4-2.4,0l-4.6,2.5l0.9-5.6c0.1-0.8-0.1-1.6-0.7-2.2l-4-4L65.8,12z"/>
		<path class="st7" d="M2.6,64.1l4.7,2.2L8,71.1c0.3,1.7,1.4,3.1,3.1,3.6c1.6,0.6,3.5,0.1,4.7-1.1l3.7-3.6l5.2,0.9
			c1.7,0.3,3.5-0.4,4.5-1.9c1-1.4,1.1-3.2,0.3-4.7L27.1,60l2.4-4.3c0.8-1.5,0.7-3.3-0.3-4.7s-2.8-2.2-4.5-1.9L19.5,50l-3.7-3.6
			c-1.2-1.2-3.1-1.6-4.7-1.1c-1.6,0.5-2.8,1.9-3.1,3.6l-0.8,4.9L2.6,56c-2.2,1-3.2,3.7-2.2,5.9C0.9,62.9,1.6,63.6,2.6,64.1z
			 M10.6,57.7c0.8-0.4,1.3-1.1,1.4-1.9l0.8-5.4l4,4c0.6,0.6,1.4,0.8,2.2,0.7l5.6-0.9L22,58.8c-0.4,0.7-0.4,1.7,0,2.4l2.5,4.6
			L19,64.9c-0.8-0.1-1.6,0.1-2.2,0.7l-4,4L12,64.2c-0.1-0.8-0.7-1.5-1.4-1.9L5.7,60L10.6,57.7z"/>
		<path class="st7" d="M19.6,33.9l5.2,0.1l3.1,4.3c0.9,1.2,2.2,1.9,3.7,1.9c0.3,0,0.5,0,0.8-0.1c1.7-0.3,3-1.5,3.5-3.1l1.4-4.7
			l4.8-1.4c1.6-0.5,2.9-1.9,3.1-3.5c0.3-1.7-0.4-3.5-1.9-4.5L39,19.8v-5.2c0-1.7-1-3.3-2.6-4.1c-1.5-0.8-3.3-0.6-4.7,0.4l-4,2.9
			l-4.9-1.7c-1.6-0.6-3.5-0.2-4.7,1c-1.2,1.2-1.7,3.1-1,4.7l1.7,4.8l-2.9,4c-1.5,2-1,4.9,1,6.4C17.7,33.6,18.6,33.9,19.6,33.9z
			 M23.6,24.6c0.5-0.7,0.6-1.5,0.3-2.3l-1.8-5.1l5.1,1.8c0.8,0.3,1.7,0.2,2.3-0.3l4.4-3.2v5.7c0,0.8,0.4,1.5,1,2l4.6,3.3L34.4,28
			c-0.8,0.2-1.5,0.9-1.7,1.7l-1.5,5.1L28.1,30c-0.5-0.6-1.2-1-2-1l-5.6-0.1L23.6,24.6z"/>
		<path class="st7" d="M120.6,49.9l-5.2-0.9c-1.7-0.3-3.5,0.4-4.5,1.9c-1,1.4-1.1,3.2-0.3,4.7l2.4,4.3l-2.4,4.3
			c-0.8,1.5-0.7,3.4,0.3,4.8s2.8,2.2,4.5,1.9l5.2-0.9l3.7,3.6c0.9,0.8,2,1.3,3.2,1.3c0.5,0,1-0.1,1.5-0.2c1.6-0.5,2.8-1.9,3.1-3.6
			l0.8-4.9l4.7-2.2c2.2-1,3.2-3.7,2.2-5.9c-0.4-1-1.2-1.7-2.2-2.2l-4.7-2.2l-0.8-4.9c-0.3-1.7-1.4-3.1-3.1-3.6
			c-1.6-0.6-3.5-0.1-4.7,1.1L120.6,49.9z M128,55.8c0.1,0.8,0.7,1.5,1.4,1.9l4.9,2.3l-4.9,2.3c-0.8,0.4-1.3,1.1-1.4,1.9l-0.8,5.4
			l-4-4c-0.5-0.5-1.1-0.7-1.8-0.7c-0.1,0-0.3,0-0.4,0l-5.6,0.9l2.5-4.6c0.4-0.7,0.4-1.7,0-2.4l-2.5-4.6l5.6,0.9
			c0.8,0.1,1.6-0.1,2.2-0.7l4-4L128,55.8z"/>
		<path class="st7" d="M98,30.9l4.8,1.4l1.4,4.7c0.5,1.6,1.8,2.9,3.5,3.2c0.3,0,0.5,0.1,0.8,0.1c1.5,0,2.9-0.7,3.7-1.9l3.1-4.3
			l5.1-0.1c1.7,0,3.3-1,4.1-2.5s0.6-3.4-0.4-4.7l-2.9-4l1.7-4.9c0.9-2.3-0.3-4.9-2.7-5.7c-1-0.4-2.1-0.4-3.1,0l-4.9,1.8l-4-2.9
			c-1.4-1-3.2-1.2-4.7-0.4c-1.6,0.8-2.6,2.4-2.6,4.1V20l-4.3,3.1c-1.4,1-2.2,2.8-1.9,4.5C95.1,29,96.4,30.4,98,30.9z M105,23.1
			c0.7-0.5,1-1.2,1-2v-5.7l4.4,3.2c0.7,0.5,1.5,0.6,2.3,0.3l5.1-1.8l-1.8,5.1c-0.3,0.8-0.2,1.6,0.3,2.3l3.2,4.4L114,29
			c-0.8,0-1.5,0.4-2,1l-3.3,4.6l-1.5-5.1c-0.2-0.8-0.9-1.5-1.7-1.7l-5.1-1.5L105,23.1z"/>
	</g>
</g>
</svg>
