<?xml version="1.0" encoding="utf-8"?>
<!-- Generator: Adobe Illustrator 25.0.0, SVG Export Plug-In . SVG Version: 6.00 Build 0)  -->
<svg version="1.1" id="Layer_1" xmlns="http://www.w3.org/2000/svg" xmlns:xlink="http://www.w3.org/1999/xlink" x="0px" y="0px"
	 viewBox="0 0 130 150" style="enable-background:new 0 0 130 150;" xml:space="preserve">
<style type="text/css">
	.st0{clip-path:url(#SVGID_2_);}
	.st1{fill:#FF9801;}
	.st2{fill:#F57C00;}
	.st3{fill:#FFE0B2;}
	.st4{fill:#DFC49C;}
	.st5{fill:#FFDC00;}
	.st6{fill:#35414D;}
</style>
<g>
	<defs>
		<rect id="SVGID_1_" width="130" height="150"/>
	</defs>
	<clipPath id="SVGID_2_">
		<use xlink:href="#SVGID_1_"  style="overflow:visible;"/>
	</clipPath>
	<g class="st0">
		<path class="st1" d="M10,82.5h12.5c4.1,0,7.5,3.4,7.5,7.5v50c0,4.1-3.4,7.5-7.5,7.5H10c-4.1,0-7.5-3.4-7.5-7.5V90
			C2.5,85.9,5.9,82.5,10,82.5z"/>
		<path class="st2" d="M22.5,82.5H15c4.1,0,7.5,3.4,7.5,7.5v50c0,4.1-3.4,7.5-7.5,7.5h7.5c4.1,0,7.5-3.4,7.5-7.5V90
			C30,85.9,26.6,82.5,22.5,82.5z"/>
		<path class="st3" d="M112.5,117.5h-5c4.1,0,7.5,3.4,7.5,7.5c0,4.1-3.4,7.5-7.5,7.5h-5c4.1,0,7.5,3.4,7.5,7.5s-3.4,7.5-7.5,7.5h-45
			c-3.8,0.1-7.6-0.6-11.2-2c-2.4-1-4.6-2.5-7-3.7c-2.5-1.2-5.3-1.8-8.1-1.8H30V90c5.1,0,10.1-1.5,14.3-4.2
			c9-5.7,22.7-16.2,19.7-29.5c-1-4.5-1.4-8.8,3.4-11.3c5.3-2.7,10.4,0.7,12.8,5C88.5,64.6,74,87.4,74,87.4h36c4.1,0,7.5,3.4,7.5,7.5
			s-3.4,7.5-7.5,7.5h2.5c4.1,0,7.5,3.4,7.5,7.5C120,114.1,116.6,117.5,112.5,117.5z"/>
		<path class="st4" d="M117.8,115.3c2.1-2.1,2.8-5.4,1.6-8.2c-1.2-2.8-3.9-4.6-6.9-4.6H110c4.1,0,7.5-3.4,7.5-7.5s-3.4-7.5-7.5-7.5
			h-7.5c4.1,0,7.5,3.4,7.5,7.5s-3.4,7.5-7.5,7.5h2.5c4.1,0,7.5,3.4,7.5,7.5s-3.4,7.5-7.5,7.5h-5c4.1,0,7.5,3.4,7.5,7.5
			c0,4.1-3.4,7.5-7.5,7.5h-5c4.1,0,7.5,3.4,7.5,7.5s-3.4,7.5-7.5,7.5h7.5c4.1,0,7.5-3.4,7.5-7.5s-3.4-7.5-7.5-7.5h5
			c4.1,0,7.5-3.4,7.5-7.5c0-4.1-3.4-7.5-7.5-7.5h5C114.5,117.5,116.4,116.7,117.8,115.3z"/>
		<path class="st4" d="M72.8,50c5.6,9.7,0.9,23.1-2.8,31c-0.7,1.4-0.6,3,0.2,4.3c0.8,1.3,2.3,2.1,3.8,2.1c0,0,14.5-22.9,6.2-37.4
			c-2.5-4.3-7.5-7.7-12.7-5.1C69.8,46.1,71.6,47.9,72.8,50z"/>
		<path class="st5" d="M120,27.5c-22.5,0-22.5-25-22.5-25s0,25-22.5,25c22.5,0,22.5,25,22.5,25S97.5,27.5,120,27.5z"/>
		<path class="st5" d="M45,50c-15,0-15-17.5-15-17.5S30,50,15,50c15,0,15,17.5,15,17.5S30,50,45,50z"/>
		<path class="st6" d="M122.5,110c0-3.5-1.9-6.8-4.9-8.6c1.5-1.8,2.4-4.1,2.4-6.4c0-5.5-4.5-10-10-10H78.4c3.9-7.4,11-24.1,4.1-36.2
			c-3-5.3-9.4-9.5-16.2-6c-7,3.6-5.5,10.7-4.7,14c1.9,8.7-4.3,17.7-18.6,26.8c-3.3,2.1-7,3.3-10.9,3.7C30.9,83,27,80,22.5,80H10
			C4.5,80,0,84.5,0,90v50c0,5.5,4.5,10,10,10h12.5c4.5,0,8.5-3.1,9.6-7.4c2.1,0.1,4.2,0.6,6.1,1.5c1,0.5,1.9,1,2.8,1.5
			c1.4,0.8,2.8,1.6,4.3,2.2c3.9,1.5,8,2.2,12.1,2.1h45c3.7,0,7.1-2,8.8-5.3c1.7-3.3,1.5-7.2-0.5-10.3c2.9-1,5.2-3.3,6.2-6.3
			c1-2.9,0.5-6.2-1.2-8.7C119.8,118,122.5,114.3,122.5,110z M22.5,145H10c-2.8,0-5-2.2-5-5V90c0-2.8,2.2-5,5-5h12.5c2.8,0,5,2.2,5,5
			v50C27.5,142.8,25.3,145,22.5,145z M116,113.5c-0.9,0.9-2.2,1.5-3.5,1.5H95c-1.4,0-2.5,1.1-2.5,2.5s1.1,2.5,2.5,2.5h12.5
			c2.8,0,5,2.2,5,5s-2.2,5-5,5H95c-1.4,0-2.5,1.1-2.5,2.5s1.1,2.5,2.5,2.5h7.5c2.8,0,5,2.2,5,5s-2.2,5-5,5h-45
			c-3.5,0.1-7-0.5-10.2-1.8c-1.3-0.6-2.5-1.2-3.7-1.9c-1-0.6-2.1-1.2-3.2-1.7c-2.5-1.2-5.2-1.8-7.9-2V92.4c4.7-0.4,9.2-2,13.2-4.5
			C62,77.5,69,66.7,66.5,55.7c-1.1-5.1-0.6-7.1,2.1-8.5c4.4-2.2,8.1,1.5,9.5,4.1c7.5,13.1-6,34.7-6.2,34.9c-0.5,0.8-0.5,1.7-0.1,2.5
			c0.4,0.8,1.3,1.3,2.2,1.3h36c2.8,0,5,2.2,5,5s-2.2,5-5,5H95c-1.4,0-2.5,1.1-2.5,2.5s1.1,2.5,2.5,2.5h17.5c2,0,3.8,1.2,4.6,3.1
			C117.9,110,117.5,112.1,116,113.5z"/>
		<path class="st6" d="M97.5,0C96.1,0,95,1.1,95,2.4v0.1C95,3.4,94.8,25,75,25c-1.4,0-2.5,1.1-2.5,2.5S73.6,30,75,30
			c19.7,0,20,21.6,20,22.5c0,1.4,1.1,2.5,2.5,2.5s2.5-1.1,2.5-2.5v-0.1c0-0.9,0.2-22.5,20-22.5c1.4,0,2.5-1.1,2.5-2.5
			s-1.1-2.5-2.5-2.5c-19.7,0-20-21.6-20-22.5C100,1.1,98.9,0,97.5,0z M108.6,27.5c-5.1,2.7-9.1,7.2-11.1,12.6
			c-2-5.4-6-9.9-11.1-12.6c5.1-2.7,9.1-7.2,11.1-12.6C99.6,20.3,103.5,24.8,108.6,27.5z"/>
		<path class="st6" d="M32.5,32.5c0-1.4-1.1-2.5-2.5-2.5s-2.5,1.1-2.5,2.5c0,0.6-0.2,15-12.5,15c-1.4,0-2.5,1.1-2.5,2.5
			s1.1,2.5,2.5,2.5c12.3,0,12.5,14.4,12.5,15c0,1.4,1.1,2.5,2.5,2.5s2.5-1.1,2.5-2.5c0-0.6,0.2-15,12.5-15c1.4,0,2.5-1.1,2.5-2.5
			s-1.1-2.5-2.5-2.5C32.7,47.5,32.5,33.1,32.5,32.5z M35.9,50c-2.5,1.7-4.6,4-5.9,6.8c-1.3-2.7-3.3-5.1-5.9-6.8
			c2.5-1.7,4.6-4,5.9-6.8C31.3,46,33.3,48.3,35.9,50z"/>
		<path class="st6" d="M120,55c0-1.4-1.1-2.5-2.5-2.5S115,53.6,115,55v5c0,1.4,1.1,2.5,2.5,2.5s2.5-1.1,2.5-2.5V55z"/>
		<path class="st6" d="M117.5,77.5c1.4,0,2.5-1.1,2.5-2.5v-5c0-1.4-1.1-2.5-2.5-2.5S115,68.6,115,70v5
			C115,76.4,116.1,77.5,117.5,77.5z"/>
		<path class="st6" d="M127.5,67.5c1.4,0,2.5-1.1,2.5-2.5s-1.1-2.5-2.5-2.5h-5c-1.4,0-2.5,1.1-2.5,2.5s1.1,2.5,2.5,2.5H127.5z"/>
		<path class="st6" d="M112.5,62.5h-5c-1.4,0-2.5,1.1-2.5,2.5s1.1,2.5,2.5,2.5h5c1.4,0,2.5-1.1,2.5-2.5S113.9,62.5,112.5,62.5z"/>
		<path class="st6" d="M54.5,23l3.7,3.7c1,0.9,2.5,0.9,3.5,0c1-0.9,1-2.5,0-3.5L58,19.5c-0.6-0.6-1.6-0.9-2.4-0.7
			c-0.9,0.2-1.6,0.9-1.8,1.8C53.6,21.5,53.8,22.4,54.5,23z"/>
		<path class="st6" d="M47,15.5c1,0.9,2.5,0.9,3.5,0c1-1,1-2.5,0-3.5l-3.7-3.7c-1-0.9-2.5-0.9-3.5,0s-1,2.5,0,3.5L47,15.5z"/>
		<path class="st6" d="M43.2,26.8c1,1,2.6,1,3.5,0l3.7-3.7c0.6-0.6,0.9-1.6,0.7-2.4c-0.2-0.9-0.9-1.6-1.8-1.8
			c-0.9-0.2-1.8,0-2.4,0.7l-3.7,3.7C42.3,24.2,42.3,25.8,43.2,26.8z"/>
		<path class="st6" d="M56.2,16.2c0.7,0,1.3-0.3,1.8-0.7l3.7-3.7c0.6-0.6,0.9-1.6,0.7-2.4c-0.2-0.9-0.9-1.6-1.8-1.8
			c-0.9-0.2-1.8,0-2.4,0.7L54.5,12c-0.7,0.7-0.9,1.8-0.5,2.7C54.4,15.6,55.2,16.2,56.2,16.2z"/>
	</g>
</g>
</svg>
