<?xml version="1.0" encoding="utf-8"?>
<!-- Generator: Adobe Illustrator 25.0.0, SVG Export Plug-In . SVG Version: 6.00 Build 0)  -->
<svg version="1.1" id="Layer_1" xmlns="http://www.w3.org/2000/svg" xmlns:xlink="http://www.w3.org/1999/xlink" x="0px" y="0px"
	 viewBox="0 0 56 56" style="enable-background:new 0 0 56 56;" xml:space="preserve">
<style type="text/css">
	.st0{fill:#FFF2E8;}
	.st1{fill-rule:evenodd;clip-rule:evenodd;fill:#FFE4CF;}
	.st2{fill:#35414D;}
	.st3{fill:none;stroke:#35414D;stroke-width:1.9312;stroke-linecap:round;stroke-linejoin:round;stroke-miterlimit:13.3333;}
	.st4{fill:none;stroke:#35414D;stroke-width:0.6476;stroke-linecap:round;stroke-linejoin:round;stroke-miterlimit:13.3333;}
	.st5{fill-rule:evenodd;clip-rule:evenodd;fill:#CECECE;}
	.st6{fill-rule:evenodd;clip-rule:evenodd;fill:#838383;}
	.st7{fill-rule:evenodd;clip-rule:evenodd;fill:#FE9737;}
	.st8{fill-rule:evenodd;clip-rule:evenodd;fill:#B5ADB6;}
	.st9{fill-rule:evenodd;clip-rule:evenodd;fill:#F36B37;}
	.st10{fill-rule:evenodd;clip-rule:evenodd;fill:#595959;}
</style>
<g>
	<g>
		<path class="st0" d="M8.1,47.1c-1.3,0-2.3-1.1-2.3-2.5V11.3c0-1.4,1-2.5,2.3-2.5h39.7c1.3,0,2.3,1.1,2.3,2.5v33.3
			c0,1.4-1,2.5-2.3,2.5H8.1z"/>
		<g id="g7754_17_" transform="translate(257.3203,504.5)">
			<path id="path7756_17_" class="st1" d="M-224.6-494.8c5.5,4,9.1,10.5,9.1,17.8c0,1.6-0.2,3.1-0.5,4.6c-0.1,0.5-0.2,1-0.4,1.4
				c-0.2,0.6-0.3,1.1-0.5,1.7c-1.9,5.1-5.6,9.3-10.4,11.8h13.8h4.9c0.4,0,0.7-0.2,0.7-0.5v-5.6v-7.5v-17.4l0-0.3c0,0,0-0.1,0-0.1
				l0-5.8c-0.1,0-8.8,0-8.9,0h-0.5H-224.6z"/>
		</g>
		<path class="st2" d="M47.9,9.7c0.8,0,1.5,0.7,1.5,1.6v33.3c0,0.9-0.7,1.6-1.5,1.6H8.1c-0.8,0-1.5-0.7-1.5-1.6V11.3
			c0-0.9,0.7-1.6,1.5-1.6H47.9 M47.9,8H8.1C6.4,8,5,9.5,5,11.3v33.3C5,46.5,6.4,48,8.1,48h39.7c1.7,0,3.1-1.5,3.1-3.3V11.3
			C51,9.5,49.6,8,47.9,8L47.9,8z"/>
	</g>
	<g id="g1337" transform="translate(120,399)">
		<path id="path1339" class="st3" d="M-110.2-382.3h27.3"/>
	</g>
	<g id="g1341" transform="translate(120,319)">
		<path id="path1343" class="st3" d="M-110.2-296h23.6"/>
	</g>
	<g id="g1345" transform="translate(120,239)">
		<path id="path1347" class="st3" d="M-110.2-209.7h18"/>
	</g>
	<g id="g1345_1_" transform="translate(120,239)">
		<path id="path1347_1_" class="st3" d="M-110.2-204.4h14.6"/>
	</g>
	<g id="g1345_2_" transform="translate(120,239)">
		<path id="path1347_2_" class="st3" d="M-110.2-198.8h9.9"/>
	</g>
	<g>
		<g id="g7770_8_" transform="translate(330.2446,64.9756)">
			<path id="path7772_8_" class="st4" d="M-295.3-20.8c-1.6,0.2-1.7-1.8-2.3-1.6c-0.4,0.1-0.6,0.8-1.1,1.4c-0.6,0.7-1.1,0.4-1.6-0.1
				c-1.2-1.2-1.4,1.4-2.9,0"/>
		</g>
		<g id="g7774_8_" transform="translate(423.1602,447.0527)">
			<path id="path7776_8_" class="st5" d="M-381.2-431.9l2.9,0.9l0.8-2.5c0.2-0.8-0.2-1.7-1-1.9c-0.8-0.2-1.7,0.2-1.9,1L-381.2-431.9
				z"/>
		</g>
		<g id="g7778_8_" transform="translate(325.644,101.1182)">
			<path id="path7780_8_" class="st6" d="M-291-59.7l0.3,2.6c0,0.2,0,0.2,0.2,0l1.7-2l1.8-2.2l-1.7-2.1l-2.5,0.8L-291-59.7z"/>
		</g>
		<g id="g7782_8_" transform="translate(412.0854,441.0947)">
			<path id="path7784_8_" class="st7" d="M-370.9-425.4l-6.9,23l2.1,0.6l2.1,0.6l6.4-21.3l0.5-1.7c0.1-0.4-0.1-0.7-0.5-0.8l-2.9-0.9
				C-370.5-426-370.8-425.8-370.9-425.4"/>
		</g>
		<g id="g7786_8_" transform="translate(452.5229,474.4854)">
			<path id="path7788_8_" class="st8" d="M-408.3-461.4l-0.8,2.5l1.5,0.4l0.8-2.5c0.2-0.8-0.2-1.7-1-1.9c-0.3-0.1-0.5-0.1-0.8,0
				C-408.3-462.5-408.1-461.9-408.3-461.4"/>
		</g>
		<g id="g7790_8_" transform="translate(441.9307,407.96)">
			<path id="path7792_8_" class="st9" d="M-398.5-389.8l-6.1,20.3l-0.3,1l1.5,0.4l6.4-21.3l0.5-1.7c0.1-0.4-0.1-0.7-0.5-0.8
				l-1.5-0.4c0.4,0.1,0.6,0.5,0.5,0.8L-398.5-389.8z"/>
		</g>
		<g id="g7794_8_" transform="translate(357.9888,127.2178)">
			<path id="path7796_8_" class="st10" d="M-320.9-87.8l-1.8,2.2l-0.6,0.7l0.2,1.7c0,0.2,0,0.2,0.2,0l1.7-2l1.8-2.2L-320.9-87.8z"/>
		</g>
		<g id="g7798_8_" transform="translate(461.3545,402.1719)">
			<path id="path7800_8_" class="st4" d="M-416.5-383.6l2.4,0.7l-2.5,8.3"/>
		</g>
		<g id="g7802_8_" transform="translate(374.0615,313.9443)">
			<path id="path7804_8_" class="st4" d="M-335.8-288.7l2.9-9.6c0.1-0.4,0.5-0.6,0.8-0.5l2.9,0.9c0.4,0.1,0.6,0.5,0.5,0.8l-6.9,23
				l-4.2-1.3l3.2-10.8"/>
		</g>
		<g id="g7806_8_" transform="translate(331.5225,66.168)">
			<path id="path7808_8_" class="st4" d="M-296.5-22.1l1.7-2l1.8-2.2l-2.1-0.6l-2.1-0.6l0.3,2.8l0.3,2.6
				C-296.6-22-296.6-22-296.5-22.1z"/>
		</g>
		<g id="g7810_8_" transform="translate(423.1602,447.0527)">
			<path id="path7812_8_" class="st4" d="M-381.2-431.9l2.9,0.9l0.8-2.5c0.2-0.8-0.2-1.7-1-1.9c-0.8-0.2-1.7,0.2-1.9,1L-381.2-431.9
				z"/>
		</g>
	</g>
</g>
</svg>
