<?xml version="1.0" encoding="utf-8"?>
<!-- Generator: Adobe Illustrator 25.0.0, SVG Export Plug-In . SVG Version: 6.00 Build 0)  -->
<svg version="1.1" id="Layer_1" xmlns="http://www.w3.org/2000/svg" xmlns:xlink="http://www.w3.org/1999/xlink" x="0px" y="0px"
	 viewBox="0 0 56 56" style="enable-background:new 0 0 56 56;" xml:space="preserve">
<style type="text/css">
	.st0{fill:#FFE27A;}
	.st1{fill:#F9CF58;}
	.st2{fill:#8BCAFF;}
	.st3{fill:#98DB7C;}
	.st4{fill:#82D361;}
	.st5{fill:#6CC4FF;}
	.st6{fill:#FFBA57;}
	.st7{fill:#FFAC3E;}
	.st8{fill:#35414D;}
	.st9{fill:#FD646F;}
	.st10{fill:#CC5266;}
</style>
<g>
	<g>
		<path class="st0" d="M28,8.1L28,8.1C17.7,8.1,9.3,15.9,8.2,26l5.3-0.2c1.1-7,7.2-12.5,14.5-12.5l0,0v2l5.1-4.1L28,6.3L28,8.1"/>
		<path class="st1" d="M28,15.3l3.8-3.1c-1.2-0.3-2.5-0.5-3.8-0.5c-7.9,0-14.3,6.2-14.7,14l0.2,0c1.1-7,7.2-12.5,14.5-12.5l0,0V15.3
			z"/>
		<path class="st2" d="M8.1,28C8.1,28,8.1,28,8.1,28C8.1,38.3,16,46.8,26,47.8l-0.3-5.3c-7-1.1-12.4-7.2-12.4-14.5c0,0,0,0,0,0h0h2
			l-4.1-5.1L6.3,28H8.1"/>
		<path class="st3" d="M28,42.7C28,42.7,28,42.7,28,42.7c7.4,0,13.5-5.4,14.6-12.4l5.3-0.4C46.8,40,38.3,47.9,28,47.9c0,0,0,0,0,0v0
			v1.8l-5.1-4.9l5.1-4.1L28,42.7L28,42.7z"/>
		<path class="st4" d="M28,46.3c-1.4,0-2.7-0.1-3.9-0.4l3.9,3.8v-1.8c0,0,0,0,0,0c10.3,0,18.8-7.9,19.8-17.9l-0.3,0.3
			C45.8,39.4,37.7,46.3,28,46.3L28,46.3z"/>
		<path class="st5" d="M24.1,45.9c-8.6-1.7-15.2-9-15.9-18H8.1c0,0,0,0,0,0C8.1,38.3,16,46.8,26,47.8L24.1,45.9z"/>
		<path class="st6" d="M47.9,28C47.9,28,47.9,28,47.9,28C47.9,17.7,40,9.2,30,8.2l3.1,3l-2.8,2.3c7,1.1,12.4,7.2,12.4,14.5
			c0,0,0,0,0,0h0h-2l4.1,5.1l4.9-5.1H47.9z"/>
		<g>
			<path class="st7" d="M31.8,12.2l-1.5,1.2c6.8,1.1,12,6.8,12.4,13.8c0-0.3,0-0.5,0-0.8C42.7,19.6,38.1,13.9,31.8,12.2L31.8,12.2z"
				/>
		</g>
		<g>
			<path class="st8" d="M50.3,27.8c-0.1-0.2-0.3-0.4-0.6-0.4h-1.1c-0.2-4.9-2-9.6-5.4-13.2c-3.4-3.7-8-6.1-13-6.6l-1.8-1.7
				c-0.4-0.4-1.1-0.1-1.1,0.5v1.1c-4,0.1-7.9,1.4-11.2,3.7c-0.3,0.2-0.4,0.6-0.2,0.9c0.2,0.3,0.6,0.4,0.9,0.2
				C20.2,9.9,24,8.7,28,8.7c0.4,0,0.7-0.3,0.7-0.7V7.8l3.4,3.3l-3.4,2.8v-0.6c0-0.4-0.3-0.7-0.7-0.7c-3.7,0-7.3,1.3-10.1,3.7
				c-2.4,2.1-4.1,4.8-4.9,7.9l-1.4-1.7c-0.2-0.3-0.7-0.3-1,0L9.2,24c0.8-3.9,2.8-7.5,5.8-10.2c0.3-0.2,0.3-0.7,0-0.9
				c-0.2-0.3-0.7-0.3-0.9,0c-3.6,3.4-6,7.9-6.5,12.8l-1.8,1.8c-0.4,0.4-0.1,1.1,0.5,1.1h1.2c0.2,4.9,2,9.6,5.3,13.2
				c3.4,3.7,8,6.1,12.9,6.6l1.8,1.7c0.4,0.4,1.1,0.1,1.1-0.5v-1.1c4.1-0.1,8-1.4,11.4-3.8c0.3-0.2,0.4-0.6,0.2-0.9
				c-0.2-0.3-0.6-0.4-0.9-0.2C36,46,32.1,47.3,28,47.3l0,0c-0.4,0-0.7,0.3-0.7,0.7v0.3l-3.4-3.3l3.4-2.8v0.6c0,0.4,0.3,0.7,0.7,0.7
				l0,0c3.7,0,7.3-1.3,10-3.7c2.4-2.1,4.1-4.8,4.9-7.9l1.4,1.7c0.2,0.3,0.7,0.3,1,0l1.6-1.7c-0.8,3.9-2.8,7.4-5.7,10.1
				c-0.3,0.2-0.3,0.7,0,0.9c0.2,0.3,0.7,0.3,0.9,0c3.6-3.4,5.8-7.9,6.4-12.8l1.7-1.8C50.4,28.3,50.4,28,50.3,27.8L50.3,27.8z
				 M22.5,44.3c-0.3,0.2-0.3,0.7,0,1l1.6,1.6C20.1,46,16.5,44,13.8,41c-3.2-3.6-5-8.2-5-13l0,0c0-0.4-0.3-0.7-0.7-0.7H7.8l3.3-3.4
				l2.8,3.4h-0.6c-0.4,0-0.7,0.3-0.7,0.7l0,0c0,3.7,1.3,7.3,3.7,10.1c2.1,2.4,4.8,4.1,7.9,4.9L22.5,44.3z M37.2,38.7
				c-2.4,2.1-5.4,3.3-8.6,3.4v-1.4c0-0.5-0.7-0.9-1.1-0.5l-2,1.7c-3.2-0.6-6.1-2.2-8.2-4.7c-2.1-2.4-3.3-5.4-3.4-8.6h1.3
				c0.5,0,0.9-0.7,0.5-1.1l-1.6-2c0.6-3.2,2.2-6.1,4.7-8.2c2.4-2.1,5.4-3.3,8.5-3.4v1.4c0,0.5,0.7,0.9,1.1,0.5l2.1-1.7
				c3.2,0.6,6.1,2.2,8.2,4.7c2.1,2.4,3.3,5.4,3.4,8.6h-1.4c-0.5,0-0.9,0.7-0.5,1.1l1.7,2.1C41.3,33.7,39.7,36.6,37.2,38.7L37.2,38.7
				z M44.9,32.1l-2.8-3.4h0.7c0.4,0,0.7-0.3,0.7-0.7l0,0c0-3.7-1.3-7.3-3.7-10.1c-2.1-2.4-4.8-4.1-7.9-4.9l1.7-1.4
				c0.3-0.2,0.3-0.7,0-1l-1.6-1.6c4,0.8,7.6,2.9,10.3,5.9c3.2,3.6,5,8.2,5,13l0,0c0,0.4,0.3,0.7,0.7,0.7h0.2L44.9,32.1z"/>
			<path class="st8" d="M28,50.5c-0.2,0-0.4-0.1-0.5-0.2l-1.8-1.7c-5-0.6-9.6-2.9-13-6.6c-3.3-3.6-5.2-8.3-5.4-13.2H6.3
				c-0.3,0-0.6-0.2-0.7-0.5c-0.1-0.3-0.1-0.6,0.2-0.8l1.7-1.8c0.6-4.9,2.9-9.5,6.5-12.9c0.3-0.3,0.8-0.3,1.1,0
				c0.3,0.3,0.3,0.8,0,1.1c-2.9,2.6-4.8,6-5.7,9.8l1.3-1.3c0.1-0.2,0.4-0.2,0.6-0.2c0.2,0,0.4,0.1,0.6,0.3L13,24
				c0.8-3,2.5-5.7,4.8-7.7c2.8-2.4,6.4-3.8,10.1-3.8c0.4,0,0.8,0.3,0.8,0.8v0.4l3.2-2.6l-3.2-3c0,0.4-0.3,0.8-0.8,0.8
				c-4,0-7.8,1.2-11,3.5c-0.2,0.1-0.4,0.2-0.6,0.1c-0.2,0-0.4-0.1-0.5-0.3c-0.1-0.2-0.2-0.4-0.1-0.6c0-0.2,0.1-0.4,0.3-0.5
				c3.3-2.3,7.1-3.6,11.1-3.8v-1c0-0.3,0.2-0.6,0.5-0.7c0.3-0.1,0.6-0.1,0.8,0.2l1.8,1.7c5,0.6,9.6,2.9,13,6.6
				c3.3,3.6,5.2,8.3,5.4,13.2h1c0.3,0,0.6,0.2,0.7,0.5l0,0c0.1,0.3,0.1,0.6-0.2,0.8l-1.7,1.8c-0.5,4.9-2.8,9.4-6.4,12.8
				c-0.1,0.1-0.3,0.2-0.5,0.2c0,0,0,0,0,0c-0.2,0-0.4-0.1-0.5-0.2c-0.1-0.2-0.2-0.3-0.2-0.6c0-0.2,0.1-0.4,0.2-0.5
				c2.8-2.6,4.7-6,5.6-9.7l-1.3,1.4c-0.1,0.2-0.4,0.2-0.6,0.2c-0.2,0-0.4-0.1-0.6-0.3L43,32.1c-0.8,3-2.5,5.7-4.9,7.7
				c-2.8,2.4-6.4,3.8-10.1,3.8h0c-0.4,0-0.8-0.3-0.8-0.8v-0.4l-3.2,2.6l3.2,3c0-0.4,0.3-0.8,0.8-0.8l0,0c4,0,7.9-1.2,11.2-3.6
				c0.3-0.2,0.8-0.2,1.1,0.2c0.1,0.2,0.2,0.4,0.1,0.6c0,0.2-0.1,0.4-0.3,0.5c-3.3,2.4-7.2,3.7-11.3,3.9v1c0,0.3-0.2,0.6-0.5,0.7
				C28.2,50.5,28.1,50.5,28,50.5z M7.4,28.5h0.1l0,0.1c0.1,4.9,2,9.5,5.3,13.1c3.4,3.7,7.9,6,12.9,6.6l0,0l0,0l1.8,1.7
				c0.2,0.2,0.4,0.2,0.6,0.1c0.2-0.1,0.3-0.2,0.3-0.5v-1.3l0.1,0c4.1-0.1,8-1.4,11.3-3.8c0.1-0.1,0.2-0.2,0.2-0.4s0-0.3-0.1-0.4
				c-0.2-0.2-0.5-0.3-0.8-0.1c-3.3,2.4-7.2,3.6-11.3,3.6l0,0c-0.3,0-0.5,0.2-0.5,0.5v0.5l-3.7-3.6l0.1-0.1l3.6-2.9v0.9
				c0,0.3,0.2,0.5,0.5,0.5h0c3.7,0,7.2-1.3,10-3.7c2.4-2.1,4.1-4.8,4.8-7.8l0.1-0.2l1.5,1.9c0.1,0.1,0.2,0.2,0.4,0.2
				c0.2,0,0.3-0.1,0.4-0.2l1.9-1.9L47,31.9c-0.8,3.9-2.8,7.5-5.7,10.2c-0.1,0.1-0.2,0.2-0.2,0.4c0,0.1,0,0.3,0.1,0.4
				c0.1,0.1,0.2,0.2,0.4,0.2c0,0,0,0,0,0c0.1,0,0.3-0.1,0.4-0.1c3.6-3.3,5.8-7.8,6.3-12.7l0,0l1.7-1.8c0.2-0.2,0.2-0.4,0.1-0.6l0,0
				c-0.1-0.2-0.3-0.3-0.5-0.3h-1.2l0-0.1c-0.1-4.9-2-9.6-5.3-13.2c-3.4-3.7-7.9-6-12.9-6.6l0,0l0,0l-1.8-1.7
				c-0.2-0.2-0.4-0.2-0.6-0.1c-0.2,0.1-0.3,0.2-0.3,0.5v1.3l-0.1,0c-4,0.1-7.9,1.4-11.1,3.7c-0.1,0.1-0.2,0.2-0.2,0.4
				c0,0.1,0,0.3,0.1,0.4c0.1,0.1,0.2,0.2,0.4,0.2c0.1,0,0.3,0,0.4-0.1C20.1,9.8,24,8.6,28,8.6c0.3,0,0.5-0.2,0.5-0.5V7.5l3.7,3.6
				l-0.1,0.1l-3.6,2.9v-0.9c0-0.3-0.2-0.5-0.5-0.5c-3.7,0-7.2,1.3-10,3.7c-2.4,2.1-4.1,4.8-4.8,7.8l-0.1,0.2l-1.5-1.9
				c-0.1-0.1-0.2-0.2-0.4-0.2c0,0,0,0,0,0c-0.2,0-0.3,0.1-0.4,0.2L9,24.4L9,24c0.8-4,2.8-7.5,5.8-10.3c0.2-0.2,0.2-0.6,0-0.8
				c-0.2-0.2-0.6-0.2-0.8,0c-3.6,3.3-5.9,7.9-6.5,12.8l0,0l0,0l-1.8,1.8c-0.2,0.2-0.2,0.4-0.1,0.6c0.1,0.2,0.2,0.3,0.5,0.3
				c0,0,0,0,0,0H7.4z M24.4,47.1L24,47c-4-0.8-7.6-2.9-10.4-5.9c-3.3-3.6-5-8.2-5-13c0-0.3-0.2-0.6-0.5-0.6H7.5l3.6-3.7l0.1,0.1
				l2.9,3.6h-0.9c-0.3,0-0.5,0.2-0.5,0.5c0,3.7,1.3,7.2,3.7,10c2.1,2.4,4.8,4.1,7.8,4.8l0.2,0.1l-1.9,1.5c-0.1,0.1-0.2,0.2-0.2,0.4
				c0,0.2,0.1,0.3,0.2,0.4L24.4,47.1z M8.1,27.2L8.1,27.2c0.4,0,0.8,0.3,0.8,0.8c0,4.8,1.8,9.4,5,12.9c2.6,2.9,6,4.9,9.9,5.8
				l-1.3-1.3c-0.2-0.1-0.2-0.4-0.2-0.6c0-0.2,0.1-0.4,0.3-0.6L24,43c-3-0.8-5.7-2.5-7.7-4.9c-2.4-2.8-3.8-6.4-3.8-10.1
				c0-0.4,0.3-0.8,0.8-0.8h0.4l-2.6-3.2L8.1,27.2z M28.5,42.2v-1.5c0-0.2-0.2-0.4-0.3-0.5c-0.2-0.1-0.4-0.1-0.6,0.1L25.5,42l-0.1,0
				c-3.2-0.6-6.1-2.2-8.2-4.7c-2.1-2.4-3.3-5.5-3.4-8.6l0-0.1h1.4c0,0,0,0,0,0c0.2,0,0.4-0.2,0.5-0.3c0.1-0.2,0.1-0.4-0.1-0.6
				L14,25.6l0,0c0.6-3.2,2.2-6.1,4.7-8.3c2.4-2.1,5.5-3.3,8.6-3.4l0.1,0v1.5c0,0.2,0.2,0.4,0.3,0.5c0.2,0.1,0.4,0.1,0.6-0.1l2.1-1.7
				l0,0c3.2,0.6,6.1,2.2,8.3,4.7c2.1,2.4,3.3,5.5,3.4,8.6l0,0.1h-1.5c0,0,0,0,0,0c-0.2,0-0.4,0.2-0.5,0.3c-0.1,0.2-0.1,0.4,0.1,0.6
				l1.7,2.1l0,0.1c-0.6,3.2-2.2,6.1-4.7,8.2l0,0c-2.4,2.1-5.5,3.3-8.6,3.4L28.5,42.2z M28,40c0.1,0,0.2,0,0.3,0.1
				c0.3,0.1,0.4,0.4,0.4,0.7V42c3.1-0.2,6.1-1.4,8.4-3.4l0,0c2.4-2.1,4.1-4.9,4.6-8.1l-1.6-2c-0.2-0.2-0.2-0.5-0.1-0.8
				c0.1-0.3,0.4-0.4,0.7-0.4c0,0,0,0,0,0H42c-0.2-3.1-1.4-6.1-3.4-8.4c-2.1-2.4-5-4.1-8.1-4.6l-2,1.6c-0.2,0.2-0.5,0.2-0.8,0.1
				c-0.3-0.1-0.5-0.4-0.4-0.7V14c-3.1,0.2-6,1.4-8.4,3.4c-2.4,2.1-4.1,5-4.6,8.1l1.6,2c0.2,0.2,0.2,0.5,0.1,0.8
				c-0.1,0.3-0.4,0.4-0.7,0.4h-1.2c0.2,3.1,1.4,6,3.4,8.4c2.1,2.4,4.9,4.1,8.1,4.6l2-1.6C27.6,40,27.8,40,28,40z M44.9,32.3
				L44.9,32.3l-3-3.7h0.9c0.3,0,0.5-0.2,0.5-0.5c0-3.7-1.3-7.2-3.7-10c-2.1-2.4-4.8-4.1-7.8-4.8l-0.2-0.1l1.9-1.5
				c0.1-0.1,0.2-0.2,0.2-0.4c0-0.2-0.1-0.3-0.2-0.4l-1.9-1.8L32,9c4,0.8,7.6,2.9,10.4,5.9c3.3,3.6,5.1,8.2,5.1,13.1
				c0,0.3,0.2,0.6,0.5,0.6h0.5L44.9,32.3z M42.3,28.8l2.6,3.2l3-3.2c-0.4,0-0.7-0.4-0.7-0.8c0-4.8-1.8-9.4-5-12.9
				c-2.7-2.9-6.1-4.9-9.9-5.8l1.4,1.3c0.2,0.1,0.2,0.4,0.2,0.6c0,0.2-0.1,0.4-0.3,0.6L32,13c3,0.8,5.7,2.5,7.7,4.8
				c2.4,2.8,3.8,6.4,3.8,10.1c0,0.4-0.3,0.8-0.8,0.8H42.3z"/>
		</g>
	</g>
	<g>
		<g>
			<path class="st8" d="M30.7,31.4v2.3c0,0.8,0.7,1.5,1.5,1.5c0.8,0,1.5-0.7,1.5-1.5v-2.3c0-0.8-0.7-1.5-1.5-1.5
				C31.4,29.9,30.7,30.6,30.7,31.4z M33.1,31.4v2.3c0,0.5-0.4,1-1,1c-0.5,0-1-0.4-1-1v-2.3c0-0.5,0.4-1,1-1
				C32.7,30.4,33.1,30.9,33.1,31.4z"/>
			<path class="st8" d="M32.2,35.6c-1.1,0-1.9-0.9-1.9-1.9v-2.3c0-1.1,0.9-1.9,1.9-1.9c1.1,0,1.9,0.9,1.9,1.9v2.3
				C34.1,34.8,33.3,35.6,32.2,35.6z M32.2,30.9c-0.3,0-0.5,0.2-0.5,0.5v2.3c0,0.3,0.2,0.5,0.5,0.5c0.3,0,0.5-0.2,0.5-0.5v-2.3
				C32.7,31.1,32.5,30.9,32.2,30.9z"/>
		</g>
		<g>
			<path class="st8" d="M23.8,26.1c0.8,0,1.5-0.7,1.5-1.5v-0.7c0-0.1-0.1-0.3-0.3-0.3s-0.3,0.1-0.3,0.3v0.7c0,0.5-0.4,1-1,1
				s-1-0.4-1-1v-2.3c0-0.5,0.4-1,1-1s1,0.4,1,1v0.6c0,0.1,0.1,0.3,0.3,0.3s0.3-0.1,0.3-0.3v-0.6c0-0.8-0.7-1.5-1.5-1.5
				s-1.5,0.7-1.5,1.5v2.3C22.3,25.4,23,26.1,23.8,26.1z"/>
			<path class="st8" d="M23.8,26.5c-1.1,0-1.9-0.9-1.9-1.9v-2.3c0-1.1,0.9-1.9,1.9-1.9c1.1,0,1.9,0.9,1.9,1.9v0.6
				c0,0.2-0.1,0.4-0.2,0.5c0.1,0.1,0.2,0.3,0.2,0.5v0.7C25.7,25.7,24.9,26.5,23.8,26.5z M23.8,21.8c-0.3,0-0.5,0.2-0.5,0.5v2.3
				c0,0.3,0.2,0.5,0.5,0.5c0.3,0,0.5-0.2,0.5-0.5v-0.7c0-0.2,0.1-0.4,0.2-0.5c-0.1-0.1-0.2-0.3-0.2-0.5v-0.6
				C24.3,22,24.1,21.8,23.8,21.8z"/>
		</g>
		<g>
			<path class="st8" d="M23.8,27.8c1.8,0,3.2-1.4,3.2-3.2v-2.3c0-0.9-0.3-1.7-0.9-2.3c-0.6-0.6-1.4-0.9-2.3-0.9
				c-1.8,0-3.2,1.4-3.2,3.2v2.3C20.6,26.4,22,27.8,23.8,27.8z M21.1,22.3c0-1.5,1.2-2.7,2.7-2.7c0.7,0,1.4,0.3,1.9,0.8c0,0,0,0,0,0
				c0.5,0.5,0.8,1.2,0.8,1.9v2.3c0,1.5-1.2,2.7-2.7,2.7s-2.7-1.2-2.7-2.7L21.1,22.3L21.1,22.3z"/>
			<path class="st8" d="M23.8,28.3c-2,0-3.7-1.6-3.7-3.7v-2.3c0-2,1.6-3.7,3.7-3.7c1,0,1.9,0.4,2.6,1.1s1.1,1.6,1.1,2.6v2.3
				C27.5,26.6,25.8,28.3,23.8,28.3z M23.8,20c-1.2,0-2.3,1-2.3,2.3v2.3c0,1.2,1,2.3,2.3,2.3s2.3-1,2.3-2.3v-2.3
				c0-0.6-0.2-1.2-0.7-1.6C25,20.3,24.4,20,23.8,20z"/>
		</g>
		<g>
			<path class="st8" d="M34.5,29.1c-0.6-0.6-1.4-0.9-2.3-0.9c-1.8,0-3.2,1.4-3.2,3.2v2.3c0,1.8,1.4,3.2,3.2,3.2c0.7,0,1.5-0.3,2-0.7
				c0.1-0.1,0.1-0.3,0-0.4c-0.1-0.1-0.3-0.1-0.4,0c-0.5,0.4-1.1,0.6-1.7,0.6c-1.5,0-2.7-1.2-2.7-2.7v-2.3c0-1.5,1.2-2.7,2.7-2.7
				c0.7,0,1.4,0.3,1.9,0.8c0.5,0.5,0.8,1.2,0.8,1.9v2.3c0,0.5-0.1,1-0.4,1.4c-0.1,0.1,0,0.3,0.1,0.4c0.1,0.1,0.3,0,0.4-0.1
				c0.3-0.5,0.5-1.1,0.5-1.6v-2.3C35.4,30.5,35.1,29.7,34.5,29.1L34.5,29.1z"/>
			<path class="st8" d="M32.2,37.4c-2,0-3.7-1.6-3.7-3.7v-2.3c0-2,1.6-3.7,3.7-3.7c1,0,1.9,0.4,2.6,1.1l0,0l0,0l0,0
				c0.7,0.7,1.1,1.6,1.1,2.6v2.3c0,0.7-0.2,1.3-0.5,1.9c-0.1,0.2-0.4,0.3-0.6,0.3c0,0.2-0.1,0.5-0.3,0.6
				C33.9,37.1,33,37.4,32.2,37.4z M34.2,36.2C34.2,36.2,34.2,36.2,34.2,36.2C34.2,36.2,34.2,36.2,34.2,36.2z M32.2,29.1
				c-1.2,0-2.3,1-2.3,2.3v2.3c0,1.2,1,2.3,2.3,2.3c0.5,0,1-0.2,1.4-0.5c0.1-0.1,0.3-0.2,0.4-0.2c0-0.1,0-0.3,0.1-0.4
				c0.2-0.3,0.3-0.7,0.3-1.2v-2.3c0-0.6-0.2-1.2-0.7-1.6C33.4,29.4,32.8,29.1,32.2,29.1z"/>
		</g>
		<g>
			<path class="st8" d="M34.7,22.3c0-0.3-0.1-0.5-0.3-0.7c-0.2-0.2-0.4-0.3-0.7-0.3s-0.5,0.1-0.7,0.3L21.6,33c-0.4,0.4-0.4,1,0,1.3
				c0.2,0.2,0.4,0.3,0.7,0.3s0.5-0.1,0.7-0.3L34.4,23C34.6,22.8,34.7,22.5,34.7,22.3L34.7,22.3z M34,22.6L22.6,34
				c-0.1,0.1-0.2,0.1-0.3,0.1s-0.2,0-0.3-0.1c-0.2-0.2-0.2-0.4,0-0.6L33.4,22c0.1-0.1,0.2-0.1,0.3-0.1c0.1,0,0.2,0,0.3,0.1
				c0.1,0.1,0.1,0.2,0.1,0.3C34.1,22.4,34.1,22.5,34,22.6L34,22.6z"/>
			<path class="st8" d="M22.3,35.1c-0.4,0-0.7-0.1-1-0.4c-0.3-0.3-0.4-0.6-0.4-1c0-0.4,0.1-0.7,0.4-1l11.4-11.4c0.5-0.5,1.4-0.5,2,0
				c0.3,0.3,0.4,0.6,0.4,1c0,0.4-0.1,0.7-0.4,1L23.3,34.7C23,35,22.7,35.1,22.3,35.1z"/>
		</g>
		<g>
			<g>
				<path class="st9" d="M22.3,34.4c-0.2,0-0.3-0.1-0.5-0.2c-0.3-0.3-0.3-0.7,0-1l11.4-11.4c0.3-0.3,0.7-0.3,1,0
					c0.3,0.3,0.3,0.7,0,1L22.8,34.2C22.6,34.3,22.5,34.4,22.3,34.4L22.3,34.4z"/>
			</g>
			<g>
				<path class="st10" d="M34.4,22.1c-0.2-0.1-0.5,0-0.7,0.2L22.2,33.6c-0.2,0.2-0.2,0.5-0.2,0.7c-0.1,0-0.2-0.1-0.3-0.2
					c-0.3-0.3-0.3-0.7,0-1l11.4-11.4c0.3-0.3,0.7-0.3,1,0C34.3,21.9,34.3,22,34.4,22.1z"/>
			</g>
			<g>
				<g>
					<path class="st9" d="M25.9,20.2c-0.5-0.5-1.3-0.9-2.1-0.9c-1.6,0-3,1.3-3,3v2.3c0,1.6,1.3,3,3,3s3-1.3,3-3v-2.3
						C26.8,21.5,26.4,20.7,25.9,20.2L25.9,20.2z M25,24.6c0,0.7-0.5,1.2-1.2,1.2s-1.2-0.5-1.2-1.2v-2.3c0-0.7,0.5-1.2,1.2-1.2
						s1.2,0.5,1.2,1.2V24.6z"/>
				</g>
				<g>
					<path class="st9" d="M34.3,29.3c-0.5-0.5-1.3-0.9-2.1-0.9c-1.6,0-3,1.3-3,3v2.3c0,1.6,1.3,3,3,3s3-1.3,3-3v-2.3
						C35.2,30.6,34.8,29.8,34.3,29.3L34.3,29.3z M33.4,33.7c0,0.7-0.5,1.2-1.2,1.2c-0.7,0-1.2-0.5-1.2-1.2v-2.3
						c0-0.7,0.5-1.2,1.2-1.2c0.7,0,1.2,0.5,1.2,1.2V33.7z"/>
				</g>
			</g>
			<g>
				<g>
					<g>
						<path class="st10" d="M24.2,25.8c0.1,0,0.2,0.1,0.4,0.1c0.7,0,1.2-0.5,1.2-1.2v-2.3c0-0.7-0.5-1.2-1.2-1.2
							c-0.1,0-0.3,0-0.4,0.1c0.5,0.2,0.9,0.6,0.9,1.2v2.3C25,25.2,24.7,25.6,24.2,25.8L24.2,25.8z"/>
					</g>
					<g>
						<path class="st10" d="M21.6,24.6v-2.3c0-1.5,1.1-2.8,2.6-2.9c-0.1,0-0.2,0-0.4,0c-1.6,0-3,1.3-3,3v2.3c0,1.6,1.3,3,3,3
							c0.1,0,0.2,0,0.4,0C22.7,27.4,21.6,26.1,21.6,24.6L21.6,24.6z"/>
					</g>
				</g>
				<g>
					<g>
						<path class="st10" d="M32.6,34.9c0.1,0,0.2,0.1,0.4,0.1c0.7,0,1.2-0.5,1.2-1.2v-2.3c0-0.7-0.5-1.2-1.2-1.2
							c-0.1,0-0.3,0-0.4,0.1c0.5,0.2,0.9,0.6,0.9,1.2v2.3C33.4,34.3,33.1,34.7,32.6,34.9z"/>
					</g>
					<g>
						<path class="st10" d="M30,33.7v-2.3c0-1.5,1.1-2.8,2.6-2.9c-0.1,0-0.2,0-0.4,0c-1.6,0-3,1.3-3,3v2.3c0,1.6,1.3,3,3,3
							c0.1,0,0.2,0,0.4,0C31.1,36.5,30,35.2,30,33.7L30,33.7z"/>
					</g>
				</g>
			</g>
		</g>
	</g>
</g>
</svg>
