<?xml version="1.0" encoding="utf-8"?>
<!-- Generator: Adobe Illustrator 25.0.0, SVG Export Plug-In . SVG Version: 6.00 Build 0)  -->
<svg version="1.1" id="Layer_1" xmlns="http://www.w3.org/2000/svg" xmlns:xlink="http://www.w3.org/1999/xlink" x="0px" y="0px"
	 viewBox="0 0 56 56" style="enable-background:new 0 0 56 56;" xml:space="preserve">
<style type="text/css">
	.st0{fill:#1C74BB;}
	.st1{fill:#035FA1;}
	.st2{fill:#E5E5E5;}
	.st3{fill:#35414D;}
	.st4{fill:#FFFFFF;}
</style>
<g>
	<g>
		<path class="st0" d="M44.4,47H11.6C10.2,47,9,45.8,9,44.4V11.6C9,10.2,10.2,9,11.6,9h32.8c1.4,0,2.6,1.2,2.6,2.6v32.8
			C47,45.8,45.8,47,44.4,47z"/>
	</g>
	<g>
		<g>
			<path class="st1" d="M11.6,43.1V9C10.2,9,9,10.2,9,11.6v32.8c0,1.4,1.2,2.6,2.6,2.6h32.8c1.4,0,2.6-1.2,2.6-2.6H12.9
				C12.2,44.4,11.6,43.8,11.6,43.1z"/>
		</g>
		<g>
			<path class="st1" d="M25.4,47V33.9h-2.6c-0.4,0-0.7-0.3-0.7-0.7v-7.9c0-0.4,0.3-0.7,0.7-0.7h2.6v-2c0-5.4,4.4-9.8,9.8-9.8h6.6
				c0.4,0,0.7,0.3,0.7,0.7v7.9c0,0.4-0.3,0.7-0.7,0.7h-6.6c-0.4,0-0.7,0.3-0.7,0.7v2h7.2c0.4,0,0.7,0.3,0.7,0.7v7.9
				c0,0.4-0.3,0.7-0.7,0.7h-7.2V47L25.4,47L25.4,47z"/>
		</g>
	</g>
	<g>
		<rect x="27.3" y="44.4" class="st2" width="5.2" height="2.6"/>
	</g>
	<path class="st3" d="M44.4,48H11.6c-2,0-3.6-1.6-3.6-3.6V11.6C8,9.6,9.6,8,11.6,8h2.6c0.5,0,1,0.4,1,1c0,0.5-0.4,1-1,1h-2.6
		c-0.9,0-1.6,0.7-1.6,1.6v32.8c0,0.9,0.7,1.6,1.6,1.6h14.8V32.9h-2.3c-0.5,0-1-0.4-1-1v-5.2c0-0.5,0.4-1,1-1h2.3v-3
		c0-4.9,4-8.9,8.9-8.9h5.2c0.5,0,1,0.4,1,1v5.2c0,0.5-0.4,1-1,1h-5.2c-0.9,0-1.6,0.7-1.6,1.6v3h6.9c0.5,0,1,0.4,1,1v5.2
		c0,0.5-0.4,1-1,1h-6.9v3c0,0.5-0.4,1-1,1s-1-0.4-1-1v-3.9c0-0.5,0.4-1,1-1h6.9v-3.3h-6.9c-0.5,0-1-0.4-1-1v-3.9
		c0-2,1.6-3.6,3.6-3.6h4.3v-3.3h-4.3c-3.8,0-6.9,3.1-6.9,6.9v3.9c0,0.5-0.4,1-1,1H25V31h2.3c0.5,0,1,0.4,1,1V46h3.3v-7.5
		c0-0.5,0.4-1,1-1s1,0.4,1,1V46h10.8c0.9,0,1.6-0.7,1.6-1.6V11.6c0-0.9-0.7-1.6-1.6-1.6H16.9c-0.5,0-1-0.4-1-1c0-0.5,0.4-1,1-1h27.5
		c2,0,3.6,1.6,3.6,3.6v32.8C48,46.4,46.4,48,44.4,48z"/>
	<g>
		<path class="st4" d="M35.2,20.1h5.2v-5.2h-5.2c-4.3,0-7.9,3.5-7.9,7.9v3.9h-3.3v5.2h3.3V46h5.2V31.9h7.9v-5.2h-7.9v-3.9
			C32.6,21.3,33.8,20.1,35.2,20.1z"/>
	</g>
</g>
</svg>
