<?xml version="1.0" encoding="utf-8"?>
<!-- Generator: Adobe Illustrator 25.0.0, SVG Export Plug-In . SVG Version: 6.00 Build 0)  -->
<svg version="1.1" id="Layer_1" xmlns="http://www.w3.org/2000/svg" xmlns:xlink="http://www.w3.org/1999/xlink" x="0px" y="0px"
	 viewBox="0 0 56 56" style="enable-background:new 0 0 56 56;" xml:space="preserve">
<style type="text/css">
	.st0{fill:#F5F5FA;}
	.st1{fill:#E5E8EC;}
	.st2{fill:#35414D;}
	.st3{fill:#FFCD57;}
	.st4{fill:#F4BA43;}
</style>
<g>
	<g>
		<g>
			<ellipse class="st0" cx="31.4" cy="28" rx="19" ry="19"/>
		</g>
		<g>
			<path class="st1" d="M49.8,32.6C47.8,40.9,40.3,47,31.4,47c-10.5,0-19-8.5-19-19c0-6.6,3.4-12.4,8.5-15.8c-0.4,1.5-0.6,3-0.6,4.6
				c0,10.5,8.5,19,19,19C43.2,35.8,46.8,34.6,49.8,32.6L49.8,32.6z"/>
		</g>
		<g>
			<path class="st2" d="M31.4,48c-11,0-20-9-20-20s9-20,20-20c11,0,20,9,20,20S42.4,48,31.4,48z M31.4,9.9c-10,0-18.1,8.1-18.1,18.1
				s8.1,18.1,18.1,18.1c10,0,18.1-8.1,18.1-18.1S41.3,9.9,31.4,9.9z"/>
		</g>
		<g>
			<g>
				<ellipse class="st3" cx="31.4" cy="28" rx="14.3" ry="14.3"/>
			</g>
			<g>
				<path class="st4" d="M45.5,30.5c-1.2,6.7-7.1,11.8-14.1,11.8C23.5,42.3,17,35.9,17,28c0-6.4,4.2-11.8,10-13.6
					c-0.1,0.8-0.2,1.7-0.2,2.5c0,7.9,6.4,14.3,14.3,14.3C42.6,31.2,44.1,31,45.5,30.5L45.5,30.5z"/>
			</g>
			<g>
				<path class="st2" d="M31.4,43.4c-8.5,0-15.4-6.9-15.4-15.4s6.9-15.4,15.4-15.4S46.8,19.5,46.8,28S39.9,43.4,31.4,43.4L31.4,43.4
					z M31.4,14.8c-7.3,0-13.2,5.9-13.2,13.2s5.9,13.2,13.2,13.2S44.6,35.3,44.6,28C44.6,20.7,38.7,14.8,31.4,14.8L31.4,14.8z"/>
			</g>
			<g>
				<path class="st2" d="M31.4,29.1c-2.4,0-4.3-1.9-4.3-4.3s1.9-4.3,4.3-4.3s4.3,1.9,4.3,4.3c0,0.6-0.5,1.1-1.1,1.1
					c-0.6,0-1.1-0.5-1.1-1.1c0-1.1-0.9-2.1-2.1-2.1c-1.1,0-2.1,0.9-2.1,2.1s0.9,2.1,2.1,2.1c0.6,0,1.1,0.5,1.1,1.1
					C32.5,28.6,32,29.1,31.4,29.1L31.4,29.1z"/>
			</g>
			<g>
				<path class="st2" d="M31.4,35.5c-2.4,0-4.3-1.9-4.3-4.3c0-0.6,0.5-1.1,1.1-1.1s1.1,0.5,1.1,1.1c0,1.1,0.9,2.1,2.1,2.1
					c1.1,0,2.1-0.9,2.1-2.1c0-1.1-0.9-2.1-2.1-2.1c-0.6,0-1.1-0.5-1.1-1.1s0.5-1.1,1.1-1.1c2.4,0,4.3,1.9,4.3,4.3
					C35.7,33.5,33.7,35.5,31.4,35.5L31.4,35.5z"/>
			</g>
			<g>
				<path class="st2" d="M31.4,22.7c-0.6,0-1.1-0.5-1.1-1.1v-2c0-0.6,0.5-1.1,1.1-1.1s1.1,0.5,1.1,1.1v2
					C32.5,22.2,32,22.7,31.4,22.7z"/>
			</g>
			<g>
				<path class="st2" d="M31.4,37.3c-0.6,0-1.1-0.5-1.1-1.1v-1.9c0-0.6,0.5-1.1,1.1-1.1s1.1,0.5,1.1,1.1v1.9
					C32.5,36.8,32,37.3,31.4,37.3z"/>
			</g>
		</g>
	</g>
	<g>
		<g>
			<path class="st2" d="M9.1,26.4c-0.1,0-0.2,0-0.3-0.1l-3.9-3c-0.2-0.2-0.3-0.5-0.1-0.8c0.2-0.2,0.5-0.3,0.8-0.1l3.9,3
				c0.2,0.2,0.3,0.5,0.1,0.8C9.4,26.3,9.3,26.4,9.1,26.4z"/>
		</g>
		<g>
			<path class="st2" d="M5.2,33.8c-0.2,0-0.3-0.1-0.5-0.2c-0.2-0.2-0.1-0.6,0.1-0.8l3.9-3c0.2-0.2,0.6-0.1,0.8,0.1
				c0.2,0.2,0.1,0.6-0.1,0.8l-3.9,3C5.4,33.7,5.3,33.8,5.2,33.8L5.2,33.8z"/>
		</g>
		<g>
			<path class="st2" d="M9.1,28.6H5.2c-0.3,0-0.6-0.3-0.6-0.6c0-0.3,0.3-0.6,0.6-0.6h3.9c0.3,0,0.6,0.3,0.6,0.6
				C9.7,28.3,9.4,28.6,9.1,28.6z"/>
		</g>
	</g>
</g>
</svg>
