<?xml version="1.0" encoding="utf-8"?>
<!-- Generator: Adobe Illustrator 25.0.0, SVG Export Plug-In . SVG Version: 6.00 Build 0)  -->
<svg version="1.1" id="Layer_1" xmlns="http://www.w3.org/2000/svg" xmlns:xlink="http://www.w3.org/1999/xlink" x="0px" y="0px"
	 viewBox="0 0 56 56" style="enable-background:new 0 0 56 56;" xml:space="preserve">
<style type="text/css">
	.st0{fill:#FD646F;}
	.st1{fill:#FC4755;}
	.st2{fill:#F5F5F5;}
	.st3{fill:#E6E6E6;}
	.st4{fill:#50758D;}
	.st5{fill:#2B597F;}
	.st6{fill:#918291;}
	.st7{fill:#7A6E79;}
	.st8{fill:#35414D;}
</style>
<g id="g367_1_">
	<g id="g373_1_" transform="translate(439.5,223.5)">
		<g id="path375_1_">
			<path class="st0" d="M-398.4-189c-3.6,10-14.6,15.2-24.7,11.6c-10-3.6-15.2-14.6-11.6-24.7c3.6-10,14.6-15.2,24.7-11.6
				C-400-210-394.8-199-398.4-189"/>
		</g>
	</g>
	<g id="g377_1_" transform="translate(439.5,223.5)">
		<g id="path379_1_">
			<path class="st1" d="M-398.4-189c-3.6,10-14.6,15.2-24.7,11.6c-5.4-2-9.5-6.1-11.4-11.1c2.2,3.9,5.8,7.1,10.3,8.8
				c10,3.6,21.1-1.6,24.7-11.6c1.6-4.6,1.4-9.4-0.2-13.6C-397-200.2-396.4-194.4-398.4-189"/>
		</g>
	</g>
	<g id="g381_1_" transform="translate(386.5,223.5)">
		<g id="path383_1_">
			<path class="st2" d="M-349.8-190.6c2.7-7.6-1.2-15.9-8.8-18.6c-7.6-2.7-15.9,1.2-18.6,8.8c-2.7,7.6,1.2,15.9,8.8,18.6
				C-360.8-179.1-352.5-183-349.8-190.6"/>
		</g>
	</g>
	<g id="g385_1_" transform="translate(386.5,223.5)">
		<g id="path387_1_">
			<path class="st3" d="M-349.8-190.6c-2.7,7.6-11,11.5-18.6,8.8c-4.2-1.5-7.3-4.8-8.7-8.6c1.7,2.9,4.3,5.2,7.7,6.4
				c7.6,2.7,15.9-1.2,18.6-8.8c1.2-3.4,1.1-6.9,0-10C-348.8-199.2-348.3-194.8-349.8-190.6"/>
		</g>
	</g>
	<g id="g389_1_" transform="translate(333.5,223.5)">
		<g id="path391_1_">
			<path class="st0" d="M-301.3-192.2c1.8-5.1-0.8-10.7-5.9-12.6c-5.1-1.8-10.7,0.8-12.6,5.9c-1.8,5.1,0.8,10.7,5.9,12.6
				C-308.7-184.4-303.1-187.1-301.3-192.2"/>
		</g>
	</g>
	<g id="g393_1_" transform="translate(333.5,223.5)">
		<g id="path395_1_">
			<path class="st1" d="M-301.3-192.2c-1.8,5.1-7.5,7.8-12.6,5.9c-3-1.1-5.1-3.4-6-6.2c1.1,1.8,2.8,3.2,4.9,3.9
				c5.1,1.8,10.7-0.8,12.6-5.9c0.8-2.1,0.7-4.3,0.1-6.3C-300.6-198.3-300.2-195.2-301.3-192.2"/>
		</g>
	</g>
	<g id="g397_1_" transform="translate(167.5,223.5)">
		<g id="path399_1_">
			<path class="st2" d="M-149.2-197.2c0.9-2.6,3.8-3.9,6.4-3c2.6,0.9,3.9,3.8,3,6.4c-0.9,2.6-3.8,3.9-6.4,3
				C-148.8-191.7-150.1-194.6-149.2-197.2"/>
		</g>
	</g>
	<g id="g401_1_" transform="translate(427.8701,153.4102)">
		<g id="path403_1_">
			<path class="st1" d="M-389.8-113.4c-0.7,0.9-1.5,1.8-2.4,2.5l-3.4-3.3c0.9-0.7,1.7-1.6,2.4-2.5L-389.8-113.4z"/>
		</g>
	</g>
	<g id="g405_1_" transform="translate(379.46,175.98)">
		<g id="path407_1_">
			<path class="st3" d="M-344.8-139.3c-0.7,0.9-1.5,1.8-2.4,2.5l-3.4-3.4c0.9-0.7,1.7-1.5,2.4-2.5L-344.8-139.3z"/>
		</g>
	</g>
	<g id="g409_1_" transform="translate(330.6895,198.7202)">
		<g id="path411_1_">
			<path class="st1" d="M-299.4-165.4c-0.6,1-1.4,1.9-2.4,2.5l-3.5-3.5c1-0.6,1.9-1.5,2.3-2.6L-299.4-165.4z"/>
		</g>
	</g>
	<g id="g413_1_" transform="translate(279.4902,222.6001)">
		<g id="path415_1_">
			<path class="st3" d="M-251.8-192.8c-0.4,1.2-1.3,2.1-2.3,2.6l-3.3-3.2c-0.6-0.6-0.7-1.6-0.1-2.3c0,0,0.1-0.1,0.1-0.1
				c0.3-0.3,0.8-0.5,1.2-0.5c0.4,0,0.9,0.2,1.2,0.5L-251.8-192.8z"/>
		</g>
	</g>
	<g id="g417_1_" transform="translate(500.6787,412.1377)">
		<g id="path419_1_">
			<path class="st4" d="M-448.7-391.6c0.1,0.1,0.1,0.3,0,0.3l-2.4,1.1l-1.5,0.7l-4.1,1.9c-0.3,0.1-0.6,0.1-0.8,0l-4.2-2.3l4.5-2.1
				l1.5-0.7l2.8-1.3L-448.7-391.6z"/>
		</g>
	</g>
	<g id="g421_1_" transform="translate(480.6104,387.5)">
		<g id="path423_1_">
			<path class="st5" d="M-431.1-365.5l-1.5,0.7l-4.5-2.5l1.5-0.7L-431.1-365.5z"/>
		</g>
	</g>
	<g id="g425_1_" transform="translate(422.1299,444.1099)">
		<g id="path427_1_">
			<path class="st4" d="M-375.8-428.6l-2.7,1.3l-1.5,0.7l-4.5,2.1l0.9-4.8c0.1-0.3,0.2-0.5,0.5-0.6l4.1-1.9l1.5-0.7l2.5-1.2
				c0.1-0.1,0.3,0.1,0.3,0.2L-375.8-428.6z"/>
		</g>
	</g>
	<g id="g429_2_" transform="translate(398.0996,420.6001)">
		<g id="path431_2_">
			<path class="st5" d="M-354.5-403.9l-1.5,0.7l1-5.3l1.5-0.7L-354.5-403.9z"/>
		</g>
	</g>
	<g id="g433_2_" transform="translate(467.8398,447.3398)">
		<g id="path435_2_">
			<path class="st6" d="M-417.6-430.8c-0.2,0.4-0.5,0.8-0.9,1l-25.3,11.9c-0.8,0.4-1.8,0.1-2.2-0.7c0,0-0.1-0.1-0.1-0.2
				c-0.2-0.4-0.2-0.9-0.1-1.3c0.2-0.4,0.5-0.8,0.9-1l25.3-11.9c0.9-0.4,1.9,0,2.3,0.8c0,0.1,0,0.1,0.1,0.2
				C-417.4-431.6-417.4-431.1-417.6-430.8"/>
		</g>
	</g>
	<g id="g437_1_" transform="translate(467.8398,447.3398)">
		<g id="path439_1_">
			<path class="st7" d="M-417.6-430.8c-0.2,0.4-0.5,0.8-0.9,1l-25.3,11.9c-0.8,0.4-1.8,0.1-2.2-0.7l28.4-13.4
				C-417.4-431.6-417.4-431.1-417.6-430.8"/>
		</g>
	</g>
	<g id="g441_1_" transform="translate(381.9443,261.9277)">
		<g id="path443_1_">
			<path class="st8" d="M-344.5-231.7C-344.5-231.7-344.5-231.7-344.5-231.7c-0.5,0-0.8-0.4-0.7-0.8c0.2-2,0-3.9-0.6-5.8
				c-0.1-0.4,0.1-0.8,0.5-0.9c0.4-0.1,0.8,0.1,0.9,0.5c0.7,2.1,0.9,4.2,0.7,6.4C-343.8-231.9-344.1-231.7-344.5-231.7z"/>
		</g>
	</g>
	<g id="g445_1_" transform="translate(324.7061,351.2832)">
		<g id="path447_1_">
			<path class="st8" d="M-301.7-308c-1.7,0-3.5-0.3-5.2-0.9c-3.8-1.4-6.9-4.2-8.7-7.9c-1.7-3.7-1.9-7.8-0.6-11.7
				c2.8-7.9,11.6-12.1,19.5-9.2c3.3,1.2,6,3.4,7.8,6.3c0.2,0.3,0.1,0.8-0.2,1c-0.3,0.2-0.8,0.1-1-0.2c-1.7-2.7-4.1-4.6-7.1-5.7
				c-7.2-2.6-15.1,1.2-17.7,8.3c-1.2,3.5-1.1,7.2,0.5,10.6c1.6,3.3,4.4,5.9,7.8,7.1c3.5,1.2,7.2,1.1,10.6-0.5
				c3.3-1.6,5.9-4.4,7.1-7.8c0-0.1,0.1-0.2,0.1-0.4c0.1-0.4,0.5-0.6,0.9-0.5c0.4,0.1,0.6,0.5,0.5,0.9c0,0.1-0.1,0.3-0.1,0.4
				c-1.4,3.8-4.2,6.9-7.9,8.6C-297.3-308.5-299.5-308-301.7-308z"/>
		</g>
	</g>
	<g id="g449_1_" transform="translate(314.7051,285.0156)">
		<g id="path451_1_">
			<path class="st8" d="M-291.7-246.5c-1.2,0-2.4-0.2-3.6-0.6c-3.6-1.3-6.2-4.4-6.8-8.2c-0.1-0.4,0.2-0.8,0.6-0.8
				c0.4-0.1,0.8,0.2,0.8,0.6c0.5,3.2,2.8,5.9,5.9,7c2.3,0.8,4.8,0.7,7-0.3c2.2-1,3.9-2.9,4.7-5.2c0.6-1.7,0.7-3.6,0.3-5.3
				c-0.1-0.4,0.1-0.8,0.5-0.9c0.4-0.1,0.8,0.1,0.9,0.5c0.5,2,0.4,4.2-0.3,6.2c-1,2.6-2.9,4.8-5.4,6
				C-288.6-246.8-290.2-246.5-291.7-246.5z"/>
		</g>
	</g>
	<g id="g453_1_" transform="translate(115.627,201.8657)">
		<g id="path455_1_">
			<path class="st8" d="M-102.3-174.6c0,0-0.1,0-0.1,0c-0.4-0.1-0.7-0.4-0.6-0.8c0.1-0.7,0.3-1.4,0.5-2c1-2.6,2.9-4.8,5.4-6
				c2.5-1.2,5.4-1.3,8.1-0.4c2.1,0.7,3.8,2.1,5.1,3.9c0.2,0.3,0.1,0.8-0.2,1c-0.3,0.2-0.8,0.2-1-0.2c-1.1-1.5-2.6-2.7-4.4-3.3
				c-2.3-0.8-4.8-0.7-7,0.3c-2.2,1-3.9,2.9-4.7,5.2c-0.2,0.6-0.4,1.2-0.4,1.7C-101.7-174.8-102-174.6-102.3-174.6z"/>
		</g>
	</g>
	<g id="g457_1_" transform="translate(105.9727,404.7573)">
		<g id="path459_1_">
			<path class="st8" d="M-67.7-387.8c-0.2,0-0.4-0.1-0.6-0.3c-2.2-2.8-5.1-4.9-8.4-6.1c-3.4-1.2-7-1.4-10.5-0.6
				c-0.4,0.1-0.8-0.1-0.9-0.5c-0.1-0.4,0.1-0.8,0.5-0.9c3.8-0.9,7.7-0.7,11.3,0.6c3.6,1.3,6.7,3.6,9.1,6.6c0.2,0.3,0.2,0.8-0.1,1
				C-67.4-387.9-67.6-387.8-67.7-387.8z"/>
		</g>
	</g>
	<g id="g461_1_" transform="translate(406.1338,338.8818)">
		<g id="path463_1_">
			<path class="st8" d="M-383.1-290.9c-2.2,0-4.5-0.4-6.7-1.2c-5-1.8-9.1-5.5-11.3-10.3c-2.3-4.8-2.5-10.3-0.7-15.3
				c1.9-5.3,6-9.6,11.3-11.8c0.4-0.2,0.8,0,0.9,0.4c0.2,0.4,0,0.8-0.4,0.9c-4.9,2-8.7,6-10.4,10.9c-1.7,4.7-1.4,9.7,0.7,14.2
				c2.1,4.5,5.8,7.9,10.5,9.5c4.7,1.7,9.7,1.4,14.2-0.7c4.5-2.1,7.9-5.8,9.5-10.5c1.2-3.3,1.4-6.9,0.7-10.3
				c-0.1-0.4,0.2-0.8,0.5-0.9c0.4-0.1,0.8,0.2,0.9,0.5c0.8,3.7,0.6,7.5-0.7,11.1C-367.2-296-374.9-290.9-383.1-290.9z"/>
		</g>
	</g>
	<g id="g465_1_" transform="translate(274.7295,246.1509)">
		<g id="path467_1_">
			<path class="st8" d="M-251.7-212.4c-0.7,0-1.3-0.1-1.9-0.3c-3-1.1-4.5-4.3-3.5-7.3c1.1-3,4.3-4.5,7.3-3.5
				c0.8,0.3,1.5,0.7,2.1,1.3c0.3,0.3,0.3,0.7,0,1c-0.3,0.3-0.7,0.3-1,0c-0.4-0.4-1-0.8-1.6-1c-2.2-0.8-4.7,0.4-5.5,2.6
				c-0.8,2.2,0.4,4.7,2.6,5.5c1.1,0.4,2.2,0.3,3.3-0.2c1-0.5,1.8-1.3,2.2-2.4c0.2-0.6,0.3-1.2,0.2-1.8c0-0.4,0.3-0.7,0.7-0.8
				c0.4,0,0.7,0.3,0.8,0.7c0.1,0.8-0.1,1.6-0.3,2.3c-0.5,1.4-1.6,2.6-2.9,3.2C-250.1-212.6-250.9-212.4-251.7-212.4z"/>
		</g>
	</g>
	<g id="g469_1_" transform="translate(212.8672,239.4443)">
		<g id="path471_1_">
			<path class="st8" d="M-189.5-209.1c-0.9,0-1.8-0.5-2.2-1.4c-0.6-1.2-0.1-2.7,1.2-3.3l25.3-11.9c1.2-0.6,2.7,0,3.3,1.2
				c0.6,1.2,0.1,2.7-1.2,3.3l-25.3,11.9C-188.8-209.1-189.2-209.1-189.5-209.1z M-164.2-224.5c-0.1,0-0.3,0-0.4,0.1l-25.3,11.9
				c0,0,0,0,0,0c-0.2,0.1-0.4,0.3-0.5,0.6c-0.1,0.3-0.1,0.5,0,0.8c0.2,0.5,0.8,0.7,1.4,0.5l25.3-11.9c0.5-0.2,0.7-0.8,0.5-1.4
				C-163.5-224.3-163.8-224.5-164.2-224.5z M-190.3-213.1L-190.3-213.1L-190.3-213.1z"/>
		</g>
	</g>
	<g id="g473_1_" transform="translate(390.6611,419.603)">
		<g id="path475_1_">
			<path class="st8" d="M-347.7-402.3c0,0-0.1,0-0.1,0c-0.4-0.1-0.7-0.4-0.6-0.8l0.9-4.7c0.1-0.4,0.5-0.7,0.8-0.6
				c0.4,0.1,0.7,0.4,0.6,0.8l-0.9,4.7C-347.1-402.6-347.4-402.3-347.7-402.3z"/>
		</g>
	</g>
	<g id="g477_1_" transform="translate(421.46,448.3306)">
		<g id="path479_1_">
			<path class="st8" d="M-383.8-428.4c0,0-0.1,0-0.1,0c-0.4-0.1-0.7-0.4-0.6-0.8l0.9-5c0-0.2,0.2-0.4,0.4-0.5l8.7-4.1
				c0.2-0.1,0.5-0.1,0.8,0.1s0.3,0.4,0.3,0.7l-0.9,5c-0.1,0.4-0.5,0.6-0.8,0.6c-0.4-0.1-0.7-0.5-0.6-0.8l0.7-3.6l-7.1,3.4l-0.8,4.6
				C-383.1-428.7-383.4-428.4-383.8-428.4z"/>
		</g>
	</g>
	<g id="g481_1_" transform="translate(420.3096,389.9541)">
		<g id="path483_1_">
			<path class="st8" d="M-371.6-366.9c-0.1,0-0.2,0-0.4-0.1l-4.2-2.3c-0.3-0.2-0.5-0.6-0.3-1c0.2-0.3,0.6-0.5,1-0.3l4.2,2.3
				c0.3,0.2,0.5,0.6,0.3,1C-371.1-367.1-371.3-366.9-371.6-366.9z"/>
		</g>
	</g>
	<g id="g485_4_" transform="translate(449.2891,420.7114)">
		<g id="path487_1_">
			<path class="st8" d="M-405.7-395.2c-0.1,0-0.2,0-0.4-0.1l-4.4-2.4c-0.3-0.2-0.5-0.6-0.3-1c0.2-0.3,0.6-0.5,1-0.3l4.1,2.3l7.1-3.4
				l-3.1-1.8c-0.3-0.2-0.5-0.6-0.3-1c0.2-0.3,0.6-0.5,1-0.3l4.4,2.4c0.2,0.1,0.4,0.4,0.4,0.7c0,0.3-0.2,0.5-0.4,0.6l-8.7,4.1
				C-405.5-395.2-405.6-395.2-405.7-395.2z"/>
		</g>
	</g>
</g>
</svg>
