<?xml version="1.0" encoding="utf-8"?>
<!-- Generator: Adobe Illustrator 25.0.0, SVG Export Plug-In . SVG Version: 6.00 Build 0)  -->
<svg version="1.1" id="Layer_1" xmlns="http://www.w3.org/2000/svg" xmlns:xlink="http://www.w3.org/1999/xlink" x="0px" y="0px"
	 viewBox="0 0 56 56" style="enable-background:new 0 0 56 56;" xml:space="preserve">
<style type="text/css">
	.st0{fill:#E74339;}
	.st1{fill:#4489F1;}
	.st2{fill:#38A856;}
	.st3{fill:#FABC2D;}
	.st4{fill:#5D6D7E;}
	.st5{fill:#FF8E31;}
	.st6{fill:#35414D;}
	.st7{fill:#FECE59;}
	.st8{opacity:5.000000e-02;fill:#34495E;}
	.st9{opacity:0.2;fill:#FFFFFF;}
</style>
<g>
	<g id="_x34_4.Google_Search_1_">
		<path class="st0" d="M22.4,12.6c5.2,0,9.3,4.2,9.3,9.5v-0.4h4.7c-0.2-7.5-6.2-13.6-13.6-13.8v4.7L22.4,12.6z"/>
		<path class="st1" d="M43.1,39.8l-3.3,3.3L28.6,31.8l3.3-3.3L43.1,39.8z"/>
		<path class="st1" d="M36.4,21.7h-4.7v0.4c0,5.2-4.2,9.5-9.3,9.5h0.4v4.7c7.4-0.2,13.4-6.3,13.6-13.8c0-0.1,0-0.3,0-0.4v0
			L36.4,21.7L36.4,21.7L36.4,21.7z"/>
		<path class="st2" d="M22.4,31.5c-5.2,0-9.3-4.2-9.3-9.5v0.4l-0.4,0H8.3C8.5,30,14.5,36.1,22,36.3c0.1,0,0.3,0,0.4,0h0h0.4v0v-4.7
			H22.4z"/>
		<path class="st3" d="M13,22.5v-0.4v0c0-5.2,4.2-9.5,9.3-9.5h0h0.4V7.9v0h-0.4c-0.1,0-0.3,0-0.4,0C14.5,8.1,8.5,14.2,8.3,21.7
			c0,0.1,0,0.3,0,0.4v0.4h0h4.3L13,22.5z"/>
	</g>
	<polygon class="st4" points="31.4,35.7 33.3,37.6 35.4,39.7 43.1,47.5 45.4,41.2 35.7,31.4 	"/>
	<g>
		<path class="st5" d="M45.5,50.1c-1.1,0-2.1-0.4-2.9-1.2l-8.8-8.9c-0.2-0.2-0.2-0.5,0-0.6L39,34c0.1-0.1,0.2-0.1,0.3-0.1
			s0.2,0,0.3,0.1l8.8,8.9c0.8,0.8,1.2,1.8,1.2,2.9c0,1.1-0.4,2.2-1.2,2.9C47.6,49.6,46.6,50.1,45.5,50.1z"/>
		<path class="st6" d="M39.3,34.4l8.8,8.9c0.7,0.7,1.1,1.6,1.1,2.6c0,1-0.4,2-1.1,2.6c-0.7,0.7-1.6,1.1-2.6,1.1
			c-1,0-1.9-0.4-2.6-1.1l-8.8-8.9L39.3,34.4 M39.3,33.5C39.3,33.5,39.3,33.5,39.3,33.5c-0.2,0-0.5,0.1-0.6,0.3L33.5,39
			c-0.3,0.4-0.3,0.9,0,1.3l8.8,8.9c0.9,0.9,2,1.3,3.2,1.3c1.2,0,2.4-0.5,3.2-1.3c0.9-0.9,1.3-2,1.3-3.3c0-1.2-0.5-2.4-1.3-3.3
			l-8.8-8.9C39.8,33.6,39.5,33.5,39.3,33.5L39.3,33.5z"/>
	</g>
	<path class="st7" d="M38.1,35.6L38.1,35.6l0.7-0.7l8.8,8.9c0.6,0.6,0.9,1.3,0.9,2.1c0,0.8-0.3,1.6-0.9,2.1
		c-0.1,0.1-0.2,0.1-0.4,0.1c-0.1,0-0.3,0-0.4-0.1c-0.2-0.2-0.2-0.5,0-0.7c0.4-0.4,0.6-0.9,0.6-1.4c0-0.5-0.2-1-0.6-1.4L38.1,35.6z"
		/>
	<path class="st6" d="M33.6,40.3l6.4-6.5l-0.5-0.5c-0.3-0.3-0.7-0.5-1.1-0.5c-0.4,0-0.8,0.2-1.1,0.5l-4.2,4.2
		c-0.3,0.3-0.5,0.7-0.5,1.1c0,0.4,0.2,0.8,0.5,1.1L33.6,40.3z"/>
	<path class="st8" d="M22.5,8.5C15,8.5,8.9,14.7,8.9,22.2C8.9,29.8,15,36,22.5,36C30,36,36,29.8,36,22.2C36,14.7,30,8.5,22.5,8.5z"
		/>
	<path class="st6" d="M22.5,5.5C13.3,5.5,5.9,13,5.9,22.2c0,9.2,7.4,16.7,16.5,16.7C31.6,39,39,31.5,39,22.2
		C39,13,31.6,5.5,22.5,5.5z M22.5,37.2c-8.1,0-14.7-6.7-14.7-14.9c0-8.2,6.6-14.9,14.7-14.9c8.1,0,14.7,6.7,14.7,14.9
		C37.2,30.5,30.6,37.2,22.5,37.2z"/>
	<path class="st4" d="M22.5,7.3C14.3,7.3,7.7,14,7.7,22.2c0,8.2,6.6,14.9,14.7,14.9c8.1,0,14.7-6.7,14.7-14.9
		C37.2,14,30.6,7.3,22.5,7.3z M22.5,36C15,36,8.9,29.8,8.9,22.2c0-7.6,6.1-13.7,13.6-13.7C30,8.5,36,14.7,36,22.2
		C36,29.8,30,36,22.5,36z"/>
	<g>
		<path class="st9" d="M22.8,10.8c-0.2-0.3-0.6-0.6-1.1-0.5c-1.9,0.1-3.6,0.6-5.3,1.6c-0.6,0.3-0.8,1.1-0.4,1.7
			c0.3,0.6,1.1,0.8,1.6,0.4c1.3-0.8,2.7-1.2,4.2-1.3c0.7,0,1.2-0.6,1.1-1.3C23,11.1,23,10.9,22.8,10.8z"/>
		<path class="st9" d="M15.2,14.7c-0.1-0.1-0.1-0.2-0.2-0.3c-0.5-0.4-1.3-0.3-1.7,0.2c-1.2,1.5-2.1,3.3-2.4,5.3
			c-0.4,2.3-0.2,4.7,0.7,6.8c0.3,0.6,1,0.9,1.6,0.7c0.6-0.3,0.9-1,0.7-1.6c-0.7-1.7-0.9-3.6-0.5-5.4c0.3-1.5,1-3,1.9-4.2
			C15.4,15.8,15.4,15.2,15.2,14.7z"/>
	</g>
</g>
</svg>
