<?xml version="1.0" encoding="utf-8"?>
<!-- Generator: Adobe Illustrator 25.0.0, SVG Export Plug-In . SVG Version: 6.00 Build 0)  -->
<svg version="1.1" id="Layer_1" xmlns="http://www.w3.org/2000/svg" xmlns:xlink="http://www.w3.org/1999/xlink" x="0px" y="0px"
	 viewBox="0 0 406 430" style="enable-background:new 0 0 406 430;" xml:space="preserve">
<style type="text/css">
	.st0{fill:#6F6571;}
	.st1{fill:#35414D;}
	.st2{fill:#8CC826;}
	.st3{fill:#82B922;}
	.st4{fill:#855151;}
	.st5{fill:#704444;}
	.st6{fill:#98D829;}
	.st7{fill:#9C5E5E;}
	.st8{fill:#FFD475;}
	.st9{fill:#FFDE9B;}
	.st10{fill:#AA6256;}
	.st11{fill:#8A4852;}
	.st12{fill:#51383C;}
	.st13{fill:#FFB961;}
	.st14{fill:#F3A250;}
	.st15{opacity:0.7;}
	.st16{fill:#DD8536;}
	.st17{opacity:0.8;}
	.st18{fill:#FFFFFF;}
	.st19{opacity:0.9;}
	.st20{fill:#BF7D5A;}
	.st21{fill:#DBA660;}
</style>
<g>
	<g>
		<path class="st0" d="M142.3,427.7c-15.4,0-29.2-2.2-39.9-6.4c-14.6-5.7-29.8-8.1-43.2-10.3c-18.7-3-32.2-5.1-34.3-14.8
			c-1.1-5.1-3.8-9.4-6.2-13.2c-4-6.3-8.1-12.8-0.5-19.2c0.3-0.3,0.7-0.6,1.3-1.2c30.7-27.5,59-33.9,77.2-34.4
			c2.6-0.1,6.1-0.1,10.3-0.1c28.9,0,99.7,1.9,166.9,6.2c122,7.7,126.2,16.2,127.8,19.4c2.1,4.2,1.9,9.1-0.5,14.1
			c-7.4,15.4-36.7,32.8-65.3,38.8c-15.1,3.2-40.4,3.4-62.9,3.4c-3.9,0-7.7,0-11.5,0c-3.7,0-7.4,0-11,0c-13.6,0-45.6,0-48.3,3.7
			C197,421,168.4,427.7,142.3,427.7z"/>
		<path class="st1" d="M107.1,330.5c62.4,0,284.7,8.4,292.6,24.3c8.5,17-29.1,42.2-64.2,49.6c-14.4,3-38.5,3.4-62.5,3.4
			c-7.6,0-15.3,0-22.5,0c-25.7,0-47.1,0.5-50.1,4.6c-4.4,6-30.8,13-58.1,13c-13.7,0-27.6-1.7-39.1-6.2c-34.3-13.4-73-9.1-76-23.4
			c-3.1-14.3-17.4-21.7-7.5-30.1c4.3-3.6,34.8-33.8,77.1-35C99.5,330.5,103,330.5,107.1,330.5 M107.1,325.9v4.6V325.9
			c-4.2,0-7.7,0-10.3,0.1c-17.4,0.5-34.9,5.7-52,15.4C31.3,349.1,22,357.4,18,361c-0.5,0.5-1,0.9-1.3,1.1c-4.1,3.5-5.7,7.5-4.9,12.1
			c0.7,3.5,2.7,6.7,4.9,10.1c2.4,3.8,4.9,7.7,5.9,12.4c2.4,11.2,17.3,13.6,36.2,16.6c13.3,2.1,28.3,4.5,42.7,10.1
			c10.9,4.3,25,6.6,40.7,6.6c24.4,0,54.8-5.9,61.6-14.6c0.6-0.4,3.6-1.6,14.9-2.3c9-0.6,20.5-0.6,31.6-0.6c3.6,0,7.3,0,11,0
			c3.8,0,7.7,0,11.6,0c22.7,0,48.1-0.3,63.4-3.5c29.7-6.2,59-23.8,66.9-40c3.5-7.2,2.2-12.8,0.5-16.2c-1.9-3.8-7-8.2-43.8-13.1
			c-21.2-2.8-50.1-5.4-85.9-7.6C206.9,327.8,136,325.9,107.1,325.9L107.1,325.9z"/>
	</g>
	<g>
		<g>
			<path class="st2" d="M147.7,192.6C129.3,153.8,88.9,158,88.9,158c24.2,15.9,30.7,36.4,32.2,43.3c0.2,0.9,1.4,1.2,2,0.5l1.6-1.9
				c0.5-0.6,1.6-0.5,1.9,0.2c6.4,13.5,2,32,0.2,38.1c-0.3,0.9,0.6,1.7,1.5,1.4C136.6,236.9,161.8,222.6,147.7,192.6z"/>
			<path class="st3" d="M144.5,228.7c1.4-8.3,2-19.6-2.3-28.7c-0.4-0.8-1.4-0.9-1.9-0.2l-1.6,1.9c-0.6,0.7-1.8,0.4-2-0.5
				c-1.5-6.6-7.7-26.1-30.1-41.8c-10.1-2.2-17.6-1.5-17.6-1.5c24.2,15.9,30.7,36.4,32.2,43.3c0.2,0.9,1.4,1.2,2,0.5l1.6-1.9
				c0.5-0.6,1.6-0.5,1.9,0.2c6.4,13.5,2,32,0.2,38.1c-0.3,0.9,0.6,1.7,1.5,1.4C132,238.4,139,234.9,144.5,228.7z"/>
			<path class="st2" d="M62.3,111.6C91.9,126.8,88.9,158,88.9,158c-11.7-19.2-28.7-24.6-34-26c-0.7-0.2-0.9-1.1-0.3-1.6l1.5-1.2
				c0.5-0.4,0.4-1.2-0.1-1.5c-10.3-5.3-24.8-2.4-29.6-1.1c-0.7,0.2-1.3-0.5-1.1-1.2C27.6,119,39.4,99.8,62.3,111.6z"/>
			<path class="st3" d="M54.9,122.5c-0.7-0.2-0.9-1.1-0.3-1.6l1.5-1.2c0.5-0.4,0.4-1.2-0.1-1.5c-7.9-4.1-18.3-3.3-24.9-2.1
				c-3.1,3.4-5,7.1-5.8,9.3c-0.2,0.7,0.4,1.3,1.1,1.2c4.8-1.2,19.3-4.2,29.6,1.1c0.6,0.3,0.6,1.1,0.1,1.5l-1.5,1.2
				c-0.6,0.5-0.4,1.4,0.3,1.6c5.3,1.4,22.2,6.8,34,26c0,0,0.4-4.2-0.5-10.3C76.6,129.1,60.1,123.8,54.9,122.5z"/>
			<path class="st2" d="M41.2,206.7c7.5-42.2,47.7-48.8,47.7-48.8c-19.2,21.7-20,43.2-19.8,50.2c0,0.9-1,1.5-1.8,1l-2.1-1.4
				c-0.7-0.5-1.6-0.1-1.8,0.7c-2.7,14.7,6.5,31.4,9.8,36.8c0.5,0.8-0.1,1.8-1,1.8C63.4,246.6,35.4,239.4,41.2,206.7z"/>
			<path class="st3" d="M71.4,242.1c-9.4-5.3-18.2-15.7-14.7-35.4c3.5-19.8,14.2-31.8,24.6-38.9c2.1-3.3,4.6-6.6,7.6-9.9
				c0,0-40.1,6.6-47.7,48.8c-5.8,32.7,22.2,39.9,31,40.3c0.9,0,1.5-1,1-1.7C72.7,244.5,72.1,243.4,71.4,242.1z"/>
			<path class="st2" d="M19.3,161.9c35.1-26.9,69.6-3.9,69.6-3.9c-29.7,3.2-44.6,18.9-49.3,24.4c-0.6,0.8-1.9,0.5-2.1-0.5l-0.6-2.5
				c-0.2-0.8-1.2-1.2-1.9-0.7c-12.3,9.3-16.9,28.4-18.2,34.9c-0.2,0.9-1.3,1.3-2,0.6C8.5,207.8-7.9,182.7,19.3,161.9z"/>
			<path class="st3" d="M34.7,161.9c10.1-7.7,20.1-11.3,29.2-12.6c-12.6-1.6-28.6,0.2-44.7,12.6c-27.2,20.8-10.8,45.9-4.4,52.3
				c0.7,0.7,1.8,0.3,2-0.6c0.6-3,1.9-8.7,4.3-14.9C17.8,188.1,18.6,174.3,34.7,161.9z"/>
			<path class="st2" d="M114,122.5l-1.8-0.8c-0.6-0.3-0.7-1-0.3-1.5c3.2-3,8.8-4.9,13-6.3c-0.3-4.8,0.2-9.9,1.9-14.9
				c-6.7-1.8-16.4-0.7-25.2,7.3C76.9,128.8,88.9,158,88.9,158c6.3-21.6,20.5-31.2,25.2-33.9C114.7,123.7,114.7,122.8,114,122.5z"/>
			<path class="st3" d="M111,108.4c5-4.6,10.4-6.9,15.3-7.7c0.2-0.5,0.3-1.1,0.5-1.6c-6.7-1.8-16.4-0.7-25.2,7.3
				C76.9,128.8,88.9,158,88.9,158c1.7-5.8,4-10.8,6.5-15C95.4,132.8,98.5,119.7,111,108.4z"/>
			<path class="st2" d="M169.4,148.3c-2.8-2.1-7.6-4-11.6-5.6c-7.2-2.9-13.9-5.1-20.2-5.6c-0.5,1.2-0.9,2.4-1.2,3.3
				c-0.4,1.2-2,1.5-2.8,0.5c-0.8-1-1.6-2.3-2.5-3.8c-25.9,1.2-42.2,20.9-42.2,20.9c29.5-4.7,48.8,6.4,54.7,10.6c0.8,0.6,1.9,0,1.9-1
				l-0.1-2.6c0-0.9,0.8-1.5,1.6-1.2c14.3,5.8,23.8,23,26.7,28.9c0.4,0.9,1.6,0.9,2.1,0.1c1.1-2,3.3-6,4.3-10
				C172.4,175.2,167.5,164.1,169.4,148.3z"/>
			<path class="st3" d="M154.7,154.8c-0.8-0.3-1.7,0.3-1.6,1.2l0.1,2.6c0,1-1.1,1.6-1.9,1c-5.8-4-24.1-14.6-52.1-11
				c-6.7,4.8-10.4,9.3-10.4,9.3c29.5-4.7,48.8,6.4,54.7,10.6c0.8,0.6,1.9,0,1.9-1l-0.1-2.6c0-0.9,0.8-1.5,1.6-1.2
				c14.3,5.8,23.8,23,26.7,28.9c0.4,0.9,1.6,0.9,2.1,0.1c1.1-2,3.3-6,4.3-10c-4.1-4-7.4-9.1-9.3-15.4
				C166.4,162.2,161.1,157.4,154.7,154.8z"/>
			<path class="st4" d="M147.5,335.1c-29.1-62.5-48.9-138.4-55.7-178.6c-0.7-4-6.7-3.4-6.5,0.7c2.8,71,28.5,150,48.1,198.2
				C138.2,348.8,142.9,342,147.5,335.1z"/>
			<path class="st5" d="M102.3,204.9c-4.8-18.7-8.3-35.4-10.5-48.4c-0.7-4-6.7-3.4-6.5,0.7c2.8,71,28.5,150,48.1,198.2
				c2.7-3.6,5.3-7.3,7.8-10.9C126.8,307.4,110.4,256.3,102.3,204.9z"/>
			<path class="st6" d="M339.6,72.5c-52.3-30.1-95.8,7.2-95.8,7.2c40.7-1,64.8,17.5,72.1,24.2c1,0.9,2.6,0.3,2.7-1.1l0.3-3.5
				c0.1-1.2,1.4-1.9,2.4-1.3c18.3,10.4,28,35.4,30.9,43.9c0.4,1.2,2,1.5,2.8,0.5C362.4,132.6,380.1,95.8,339.6,72.5z"/>
			<path class="st2" d="M331.3,90.4c-1-0.6-2.3,0.1-2.4,1.3l-0.3,3.5c-0.1,1.3-1.7,2-2.7,1.1c-7.2-6.6-30.7-24.7-70.5-24.2
				c-7.3,4.1-11.5,7.7-11.5,7.7c40.7-1,64.8,17.5,72.1,24.2c1,0.9,2.6,0.3,2.7-1.1l0.3-3.5c0.1-1.2,1.4-1.9,2.4-1.3
				c18.3,10.4,28,35.4,30.9,43.9c0.4,1.2,2,1.5,2.8,0.5c1.8-2.3,4.1-6.2,6.1-11C357.3,121,347.8,99.8,331.3,90.4z"/>
			<path class="st6" d="M317.1,137.1c-17.8-55.7-73.3-57.4-73.3-57.4c29.8,25.9,34.9,54.8,35.8,64.3c0.1,1.3,1.7,1.9,2.6,1l2.5-2.3
				c0.8-0.8,2.2-0.4,2.6,0.7c6.3,19.4-3.1,43.6-6.6,51.6c-0.5,1.2,0.5,2.4,1.7,2.2C294.2,195,330.8,180.2,317.1,137.1z"/>
			<path class="st2" d="M305.1,143.4c-0.4-1.1-1.7-1.4-2.6-0.7l-2.5,2.3c-1,0.9-2.5,0.3-2.6-1c-0.8-8.9-5.3-34.8-30.3-59.3
				c-13.1-4.7-23.3-5.1-23.3-5.1c29.8,25.9,34.9,54.8,35.8,64.3c0.1,1.3,1.7,1.9,2.6,1l2.5-2.3c0.8-0.8,2.2-0.4,2.6,0.7
				c6.3,19.4-3.1,43.6-6.6,51.6c-0.5,1.2,0.5,2.4,1.7,2.2c4.1-0.8,11.3-3.1,18.3-7.6C304.8,178.8,310.3,159.5,305.1,143.4z"/>
			<path class="st6" d="M270.3,12.2c-37.4,25.9-26.5,67.5-26.5,67.5c12.4-28.1,33.3-38.4,40.2-41.3c0.9-0.4,1-1.7,0.2-2.2l-2.3-1.4
				c-0.8-0.5-0.8-1.5-0.1-2.1c13-9.1,33.1-7.6,39.8-6.9c1,0.1,1.7-0.9,1.2-1.8C318.6,16,299.2-7.9,270.3,12.2z"/>
			<path class="st2" d="M283.6,19.5c11.6-8,21.7-9,29.8-6.8c-9.2-7.9-24.1-13.8-43.2-0.6c-37.4,25.9-26.5,67.5-26.5,67.5
				c3.9-8.7,8.6-15.8,13.4-21.4C260,45.6,267,31,283.6,19.5z"/>
			<path class="st6" d="M216.2,12.2c37.4,25.9,27.6,67.5,27.6,67.5c-12.4-28.1-34.4-38.4-41.3-41.3c-0.9-0.4-1-1.7-0.2-2.2l2.3-1.4
				c0.8-0.5,0.8-1.5,0.1-2.1c-13-9.1-33.1-7.6-39.8-6.9c-1,0.1-1.7-0.9-1.2-1.8C168,16,187.3-7.9,216.2,12.2z"/>
			<path class="st2" d="M205.4,27c-0.9-0.4-1-1.7-0.2-2.2l2.3-1.4c0.8-0.5,0.8-1.5,0.1-2.1c-11.1-7.8-27.6-7.8-36.2-7.2
				c-3.8,3.7-6.5,7.5-7.7,10c-0.5,0.9,0.3,1.9,1.2,1.8c6.7-0.8,26.8-2.2,39.8,6.9c0.7,0.5,0.7,1.6-0.1,2.1l-2.3,1.4
				c-0.9,0.5-0.8,1.8,0.2,2.2c6.9,2.8,28.9,13.2,41.3,41.3c0,0,1.5-6.2,1.1-15.3C232.2,39.3,212,29.7,205.4,27z"/>
			<path class="st6" d="M170.6,137.1c17.8-55.7,73.2-57.4,73.2-57.4C214,105.6,208.9,134.5,208,144c-0.1,1.3-1.7,1.9-2.6,1l-2.5-2.3
				c-0.8-0.8-2.2-0.4-2.6,0.7c-6.3,19.4,3.1,43.6,6.6,51.6c0.5,1.2-0.5,2.4-1.7,2.2C193.5,195,156.8,180.2,170.6,137.1z"/>
			<path class="st2" d="M204.7,189.5c-12.9-8.4-25.2-24.5-16.3-52.4c10.1-31.8,32.6-46,49.9-52.3c1.7-1.7,3.6-3.4,5.5-5.1
				c0,0-55.4,1.7-73.2,57.4c-13.8,43.1,22.9,57.9,34.6,60.1c1.2,0.2,2.2-1,1.7-2.2C206.3,193.6,205.5,191.7,204.7,189.5z"/>
			<path class="st6" d="M149,72.5c52.3-30.1,94.8,7.2,94.8,7.2c-40.7-1-63.8,17.5-71.1,24.2c-1,0.9-2.6,0.3-2.7-1.1l-0.3-3.5
				c-0.1-1.2-1.4-1.9-2.4-1.3c-18.3,10.4-28,35.4-30.9,43.9c-0.4,1.2-2,1.5-2.8,0.5C126.2,132.6,108.5,95.8,149,72.5z"/>
			<path class="st2" d="M166.8,72.5c11.6-6.7,22.7-10,33-11.2c-14.7-1.7-32.1,0.5-50.8,11.2c-40.5,23.3-22.9,60.1-15.4,69.9
				c0.8,1,2.4,0.8,2.8-0.5c1.1-3.4,3.4-9.4,6.9-16.2C138.6,110.1,139.4,88.2,166.8,72.5z"/>
			<path class="st7" d="M240.5,79.8c-11.6,68.8-42.3,194-119.6,290c-1.6,2-0.2,4.9,2.3,4.9h31.5c2.7,0,5.3-1.5,6.6-3.8
				c13.3-23.1,80.9-147.4,86.5-290.2C248.1,75.9,241.2,75.2,240.5,79.8z"/>
			<path class="st4" d="M133,369.8c64.1-79.6,96.2-179.3,111.8-250.3c1.5-12.8,2.5-25.8,3-38.9c0.2-4.7-6.6-5.4-7.4-0.8
				c-11.6,68.8-42.3,194-119.6,290c-1.6,2-0.2,4.9,2.3,4.9h12.1C132.8,374.6,131.4,371.7,133,369.8z"/>
			<path class="st1" d="M124.1,378.2c-2.7,0-5.1-1.5-6.2-3.9c-1.2-2.5-0.9-5.2,0.8-7.3c3-3.7,5.9-7.5,9.1-11.7
				c0.3-0.5,0.4-1.1,0.2-1.6c-14-35-38.5-104-45.5-173.5c-0.1-0.7-0.6-1.3-1.4-1.5c-0.1,0-0.2,0-0.3,0c-0.6,0-1.2,0.4-1.5,1
				c-6,13.1-6.2,24-6.1,28c0.1,2.7-1.9,5.1-4.7,5.3c-0.9,0.1-1.5,0.8-1.5,1.7c0.3,11.7,6.9,23.6,9.7,28.2c1,1.6,1,3.5,0.1,5.1
				c-0.9,1.6-2.6,2.6-4.4,2.6c-0.1,0-0.2,0-0.3,0c-6.6-0.3-20.1-3.7-28.4-14.1c-11-13.9-7.6-34.1-0.7-48.4c0.3-0.6,0.2-1.4-0.3-1.9
				c-0.3-0.3-0.7-0.5-1.2-0.5c-0.2,0-0.5,0-0.7,0.1c-0.7,0.3-1.4,0.5-2.1,0.5c-0.4,0-0.8,0-1.2-0.1c-0.8-0.2-1.4-0.5-2-1
				c-0.3-0.2-0.7-0.4-1-0.4c-0.5,0-0.9,0.2-1.2,0.6c-8.2,9.4-11.6,24.2-12.4,28.5c-0.6,2.9-3,4.2-5.1,4.2c-1.4,0-2.6-0.5-3.6-1.5
				c-4.8-4.8-12.7-16.7-11.8-30.4c0.7-10.5,6.3-19.8,16.6-27.8c12-9.2,25.4-13.9,39.7-13.9c3.4,0,6.9,0.3,10.4,0.8
				c0.1,0,0.2,0,0.3,0c0.7,0,1.3-0.4,1.5-1c0.3-0.7,0-1.5-0.6-2c-6.5-4.5-12.2-6.3-14.3-6.9c-1.8-0.5-3.1-1.9-3.5-3.7
				c-0.1-0.4-0.1-0.7-0.1-1.1c0-0.8-0.5-1.5-1.3-1.6c-2.3-0.5-4.9-0.8-7.7-0.8c-6.1,0-11.8,1.3-14,1.8c-0.4,0.1-0.8,0.2-1.2,0.2
				c-1.5,0-3-0.8-3.9-2.1c-0.9-1.3-1.1-2.9-0.6-4.4c1.8-5,7.5-14.5,17.5-18.4c2.9-1.1,6-1.7,9.3-1.7c13.8,0,27.4,10.2,34.1,19.7
				c0.3,0.4,0.8,0.7,1.3,0.7c0.1,0,0.1,0,0.2,0c0.6-0.1,1.1-0.5,1.3-1.1c2.8-7.4,7.3-14.1,13.6-19.8c6.6-6,13.6-9,20.8-9
				c0.6,0,1.3,0,1.9,0.1c0,0,0.1,0,0.1,0c0.6,0,1.2-0.4,1.5-1c4.3-9.6,12.4-17.8,23.8-24.5c14.1-8.1,29-12.2,44.1-12.2
				c10.9,0,21.9,2.2,32.6,6.4c0.2,0.1,0.4,0.1,0.6,0.1c0.5,0,1-0.2,1.3-0.7c0.4-0.6,0.4-1.4-0.1-2c-10.1-11.8-20.6-16.9-24.6-18.5
				c-1.8-0.7-3-2.4-3.2-4.4c-0.1-0.8,0.1-1.6,0.4-2.3c0.3-0.8,0-1.8-0.9-2.1c-5.9-2.6-13.3-3.9-22.1-3.9c-4.4,0-8.1,0.4-9.8,0.6
				c-0.2,0-0.4,0-0.6,0c-1.8,0-3.4-0.9-4.4-2.5c-1-1.6-1-3.4-0.2-5.1c3.2-6.2,12.3-17.6,26-21c2.5-0.6,5.1-0.9,7.8-0.9
				c20.5,0,39.9,18.5,47.8,35.9c0.3,0.6,0.8,1,1.5,1s1.2-0.4,1.5-1c4.9-10.9,12.8-20.1,23.3-27.4c8.2-5.7,16.3-8.5,24.3-8.5
				c17.9,0,30,14.4,34,22c0.8,1.6,0.8,3.5-0.2,5c-1,1.6-2.6,2.5-4.4,2.5c-0.2,0-0.4,0-0.6,0c-1.8-0.2-5.4-0.6-9.8-0.6
				c-8.8,0-16.2,1.3-22.1,3.9c-0.8,0.4-1.2,1.3-0.9,2.1c0.3,0.7,0.4,1.5,0.4,2.4c-0.1,2-1.4,3.7-3.2,4.4
				c-4.3,1.7-15.3,7.2-25.7,19.8c-0.5,0.6-0.5,1.4,0,2c0.3,0.4,0.8,0.7,1.3,0.7c0.2,0,0.4,0,0.7-0.1c11.7-5.1,23.7-7.7,35.8-7.7
				c0.9,0,1.8,0,2.8,0c2.2,0.1,3.9,1.9,3.8,4.1c-0.1,2.1-1.9,3.8-4,3.8l-0.1,0c-0.8,0-1.7,0-2.5,0c-12,0-24.5,3-36.2,8.8
				c-0.7,0.3-1,1-0.9,1.7c0.1,0.7,0.7,1.3,1.4,1.4c24.8,2.9,41.8,12.6,51.7,20.2c0.3,0.2,0.6,0.3,1,0.3c0.1,0,0.2,0,0.3,0
				c0.4-0.1,0.8-0.3,1.1-0.7c0.5-0.8,1.2-1.4,2.1-1.9c0.8-0.4,1.7-0.6,2.6-0.6c1,0,1.9,0.3,2.7,0.7c15,8.5,24.5,25.6,29.8,38.4
				c0.2,0.6,0.8,1,1.5,1c0,0,0,0,0.1,0c0.6,0,1.2-0.4,1.5-0.9c6.1-12.4,7.1-24,2.9-34.4c-4.9-12.4-16.9-22.4-34.6-29
				c-1-0.4-1.8-1.1-2.2-2.1c-0.4-1-0.5-2-0.1-3c0.6-1.5,2.1-2.6,3.7-2.6c0.5,0,0.9,0.1,1.4,0.3c4.9,1.8,9.8,4.1,14.4,6.8
				c15,8.6,24,19.9,26.8,33.6c3.6,17.9-4.7,34.9-10.2,42.1c-1.1,1.4-2.6,2.2-4.4,2.2c-2.4,0-4.5-1.5-5.3-3.8
				c-2.1-6.1-9.9-27.1-24.1-38.3c-0.3-0.2-0.7-0.4-1-0.4c-0.1,0-0.2,0-0.3,0c-0.5,0.1-0.9,0.4-1.1,0.8c-0.6,1.2-1.7,2.1-2.9,2.5
				c-0.7,0.3-1.3,0.4-2,0.4c-1.4,0-2.7-0.5-3.7-1.5c-2.1-1.9-5.7-4.9-11-8.2c-0.3-0.2-0.6-0.2-0.9-0.2c-0.5,0-1,0.2-1.3,0.6
				c-0.5,0.6-0.5,1.6,0.1,2.2c9.3,9.4,16.3,21.1,20.6,34.7c5.1,16,4.2,30-2.8,41.6c-8.5,14.2-24.1,21.5-34.9,23.5
				c-0.3,0.1-0.7,0.1-1,0.1c-1.8,0-3.6-0.9-4.6-2.5c-1-1.6-1.2-3.5-0.4-5.2c2.5-5.7,10.5-25.7,7.8-42.9c-0.1-0.5-0.4-0.9-0.8-1.1
				c-0.3-0.2-0.6-0.2-0.9-0.2c-0.2,0-0.3,0-0.5,0.1c-0.5,0.2-1.1,0.3-1.6,0.3c-2.9,0-5.3-2.2-5.5-5c-0.6-6.1-3.8-27.7-22.3-49.4
				c-0.3-0.4-0.8-0.6-1.3-0.6c-0.2,0-0.3,0-0.5,0.1c-0.6,0.2-1.1,0.8-1.1,1.5c-2.6,40.6-10.3,83.2-22.9,126.5
				c-0.5,1.7-3.5,14.9-5.2,14.9c-0.4,0-2.4,1.1-2.8,1c-1-0.3-2.9,1.9-3.4,0.9c-0.5-0.9,3.6-18,3.9-19
				c10.3-35.5,17.3-70.5,20.8-104.2c0.1-0.9-0.5-1.7-1.4-1.8c-0.1,0-0.2,0-0.3,0c-0.8,0-1.4,0.5-1.6,1.3
				c-14.9,70.4-46,171.3-109.7,252.5c-0.4,0.5-0.5,1.2-0.2,1.7c0.3,0.6,0.8,0.9,1.5,0.9h25.8c1.3,0,2.5-0.7,3.1-1.8
				c7.4-12.8,33-59.6,54.2-123.9c0.5-1.6,2-2.7,3.7-2.7c0.4,0,0.8,0.1,1.2,0.2c2.1,0.7,3.2,2.9,2.5,5
				c-21.5,65-47.4,112.3-54.9,125.3c-2,3.6-5.9,5.8-10,5.8H124.1z M94.2,195.8c-0.1,0-0.2,0-0.3,0c-0.9,0.2-1.4,1-1.3,1.8
				c8.6,59.7,28.8,117.3,40.1,146.4c0.2,0.6,0.7,1,1.3,1c0.1,0,0.1,0,0.2,0c0.5,0,1-0.3,1.3-0.7c1.9-2.7,3.9-5.7,6-8.8l0.3-0.5
				c0.3-0.5,0.4-1.1,0.1-1.6C124.4,295,107.5,245.2,95.8,197C95.6,196.3,95,195.8,94.2,195.8z M100.4,172.7c-0.3,0-0.5,0.1-0.8,0.2
				c-0.7,0.3-1,1.1-0.9,1.8c8.1,38.4,24.8,97.7,47.5,149.1c0.2,0.6,0.8,0.9,1.4,1c0,0,0.1,0,0.1,0c0.6,0,1.1-0.3,1.4-0.8
				c22.1-35.4,41.1-76.2,56.5-121.2c0.2-0.4,0.1-0.9-0.1-1.4c-0.2-0.4-0.6-0.7-1.1-0.8c-2.6-0.5-11.8-2.6-21.4-9.4
				c-0.3-0.2-0.6-0.3-1-0.3c-0.1,0-0.3,0-0.4,0.1c-0.5,0.1-0.9,0.5-1.1,0.9c-0.4,0.9-0.8,1.7-1.2,2.5c-0.9,1.6-2.6,2.6-4.5,2.6
				l-0.2,0c-1.9-0.1-3.6-1.2-4.4-2.9c-1.9-3.9-9.1-17.3-19.4-24.2c-0.3-0.2-0.6-0.3-0.9-0.3c-0.5,0-1,0.2-1.3,0.7
				c-0.4,0.6-1,1.1-1.7,1.5c-0.8,0.4-1.6,0.6-2.5,0.6c-0.5,0-1.1-0.1-1.6-0.3c-0.2-0.1-0.3-0.1-0.5-0.1c-0.5,0-1.1,0.3-1.4,0.7
				c-0.4,0.6-0.3,1.4,0.1,2c4.1,4.6,7.5,9.9,10.3,15.8c5.4,11.4,6.1,22,2,31.4c-4.9,11.4-15.8,18.5-23.7,21
				c-0.5,0.2-1.1,0.3-1.6,0.3c-1.6,0-3.1-0.8-4.1-2.1c-1-1.3-1.3-2.9-0.8-4.5c1.5-5.2,4.7-18.4,1.9-29.8c-0.2-0.7-0.8-1.3-1.6-1.3
				c-0.1,0-0.2,0-0.3,0c-0.3,0.1-0.6,0.1-0.9,0.1c-2.4,0-4.4-1.6-5-4c-1-4.6-4.6-16.4-15.9-28.5
				C101.3,172.8,100.9,172.7,100.4,172.7z M74,167.4c-0.3,0-0.5,0.1-0.8,0.2C62.7,173.4,49.3,185,45.3,207
				c-1.8,10.1-0.2,18.4,4.7,24.5c4,5.1,9.6,7.8,13.5,9.2c0.2,0.1,0.4,0.1,0.5,0.1c0.5,0,0.9-0.2,1.2-0.5c0.4-0.5,0.6-1.2,0.3-1.8
				c-3.8-8-7.8-20-5.8-31.2c0.4-2.2,2.1-3.8,4.3-4.1c0.8-0.1,1.4-0.7,1.4-1.5c0.5-7.5,2.6-19.1,9.9-31.8c0.4-0.6,0.3-1.4-0.3-2
				C74.8,167.6,74.4,167.4,74,167.4z M125.9,195c2,0,3.7,1.1,4.6,2.9c4.9,10.3,4.1,22.8,2.6,31.6c-0.1,0.7,0.2,1.3,0.7,1.7
				c0.3,0.2,0.6,0.3,0.9,0.3c0.3,0,0.7-0.1,0.9-0.3c13-9,16-21.9,8.7-37.3c-9.5-20-25.4-27.7-37.1-30.6c-0.1,0-0.3,0-0.4,0
				c-0.6,0-1.1,0.3-1.4,0.8c-0.4,0.6-0.3,1.4,0.3,2c10.3,10.4,15.3,21,17.8,28c0.2,0.7,0.9,1.1,1.5,1.1c0.1,0,0.1,0,0.2,0
				C125.4,195,125.6,195,125.9,195z M56.9,152.3c-12.5,0-24.3,4.2-35,12.3c-14,10.7-17.3,24.5-9.4,38.9c0.3,0.5,0.8,0.9,1.4,0.9
				c0.1,0,0.1,0,0.2,0c0.7-0.1,1.2-0.5,1.4-1.2c2.7-8.9,7.9-20.9,17.4-28.1c0.9-0.7,2-1,3.1-1c0.6,0,1.2,0.1,1.8,0.3
				c0.4,0.2,0.9,0.4,1.2,0.7c0.3,0.2,0.6,0.3,1,0.3c0.4,0,0.8-0.2,1.1-0.5c5.7-5.5,15.6-13,30.4-17.6c0.7-0.2,1.2-0.9,1.1-1.6
				c0-0.7-0.5-1.4-1.2-1.5C66.5,152.9,61.7,152.3,56.9,152.3z M227.5,86.4c-0.2,0-0.3,0-0.5,0.1c-26,7.8-44.2,25.5-52.4,51.4
				c-7.8,24.3,0.9,43.5,23.7,52.6c0.2,0.1,0.4,0.1,0.6,0.1c0.4,0,0.8-0.2,1.1-0.5c0.5-0.4,0.6-1.1,0.4-1.7
				c-4.5-12.5-8.8-30.8-3.6-46.6c0.7-2.3,2.9-3.8,5.3-3.8c0.4,0,0.8,0,1.2,0.1c0.1,0,0.2,0,0.4,0c0.3,0,0.6-0.1,0.9-0.3
				c0.4-0.2,0.6-0.6,0.7-1.1c2.1-11.8,7.9-29.6,23.5-47.7c0.5-0.6,0.5-1.4,0.1-2C228.5,86.7,228,86.4,227.5,86.4z M286.1,138
				c2.4,0,4.5,1.5,5.3,3.8c5.1,15.8,0.8,34.1-3.6,46.6c-0.2,0.6-0.1,1.3,0.4,1.7c0.3,0.3,0.7,0.5,1.1,0.5c0.2,0,0.4,0,0.6-0.1
				c22.8-9.1,31.5-28.3,23.7-52.6c-8.3-25.9-26.4-43.6-52.4-51.4c-0.2,0-0.3-0.1-0.5-0.1c-0.5,0-1.1,0.3-1.4,0.7
				c-0.4,0.6-0.3,1.4,0.1,2c15.5,18.1,21.3,35.9,23.5,47.7c0.1,0.4,0.3,0.8,0.7,1.1c0.3,0.2,0.6,0.3,0.9,0.3c0.1,0,0.2,0,0.4,0
				C285.3,138,285.7,138,286.1,138z M204.6,148.7c-0.3,0-0.6,0.1-0.9,0.2c-0.4,0.3-0.7,0.7-0.8,1.1c-2,12.7,1.7,26.6,5.1,36.1
				c0.2,0.7,0.9,1.1,1.5,1.1c0,0,0,0,0,0c0.7,0,1.3-0.5,1.5-1.1c8.6-27.1,15.7-55.4,21.4-84.1c0.1-0.8-0.2-1.5-1-1.8
				c-0.2-0.1-0.4-0.1-0.7-0.1c-0.5,0-1,0.2-1.3,0.7c-13.9,19.1-16.8,36.6-17.4,43.2c-0.3,2.9-2.6,5-5.5,5c-0.6,0-1.1-0.1-1.6-0.3
				C204.9,148.7,204.7,148.7,204.6,148.7z M146.8,159.3c0.7,0,1.3,0.1,1.9,0.4c5,2,9.8,5.4,14.4,10.1c0.3,0.3,0.7,0.5,1.2,0.5
				c0.3,0,0.6-0.1,0.8-0.2c0.7-0.4,0.9-1.2,0.7-1.9c-1.6-5.1-2.2-10.7-1.9-16.6c0-0.6-0.3-1.2-0.8-1.5c-5.7-3.5-13.9-6.3-21.4-7.4
				c-0.1,0-0.2,0-0.2,0c-0.6,0-1.2,0.3-1.5,0.9c-0.9,1.8-2.9,3-4.8,3c-2,0-3.9-1.2-5.5-3.5c-0.3-0.4-0.8-0.7-1.3-0.7
				c-0.1,0-0.1,0-0.2,0c-7.6,0.8-15,3.2-22,7.1c-0.6,0.4-1,1.1-0.8,1.8c0.2,0.7,0.8,1.2,1.5,1.3c15.4,0.6,26.9,5.3,33.8,9.1
				c0.2,0.1,0.5,0.2,0.8,0.2c0.5,0,0.9-0.2,1.3-0.6c0.3-0.4,0.6-0.7,1-1C144.7,159.6,145.7,159.3,146.8,159.3z M41.4,120.3
				c6.5,0,12.1,1.2,16.6,3.5c1.5,0.8,2.4,2.2,2.6,3.8c0,0.2,0,0.3,0,0.5c0,0.7,0.4,1.3,1,1.5c4.4,1.8,11,5.2,17.7,11.3
				c0.3,0.3,0.7,0.4,1.1,0.4c0.3,0,0.6-0.1,0.9-0.3c0.6-0.4,0.9-1.2,0.7-1.9c-4.9-15.3-19.7-27.7-33-27.7c-5.5,0-10.4,2.1-14.2,6.2
				c-0.5,0.5-0.6,1.2-0.3,1.8c0.3,0.6,0.9,0.9,1.5,0.9c0.1,0,0.1,0,0.2,0C37.9,120.3,39.7,120.3,41.4,120.3z M165.5,104
				c-0.4,0-0.7,0.1-1,0.4c-9.6,7.7-16.3,19.7-20.3,28.5c-0.2,0.5-0.2,1,0,1.4c0.2,0.4,0.7,0.8,1.2,0.8c6.2,1.2,12.6,3.3,18,6
				c0.2,0.1,0.5,0.2,0.7,0.2c0.2,0,0.5,0,0.7-0.1c0.5-0.2,0.8-0.6,0.9-1.1c3.5-14.1,10.8-27.5,20.4-37.7c0.6-0.6,0.6-1.5,0.1-2.2
				c-0.3-0.4-0.8-0.6-1.2-0.6c-0.3,0-0.6,0.1-0.9,0.3c-4,2.7-6.7,5-8.4,6.5c-1,0.9-2.4,1.5-3.7,1.5c-0.7,0-1.4-0.1-2-0.4
				c-1.2-0.5-2.3-1.4-2.9-2.5c-0.2-0.4-0.6-0.7-1.1-0.8C165.8,104.1,165.6,104,165.5,104z M119.9,123.7c-0.7,0-1.3,0.4-1.5,1
				c-0.4,1-1.1,1.9-2.1,2.4c-2.1,1.2-7.4,4.6-12.7,11.2c-0.5,0.6-0.5,1.5,0,2c0.3,0.4,0.8,0.6,1.3,0.6c0.2,0,0.5-0.1,0.7-0.2
				c5.6-2.8,11.5-4.7,17.4-5.7c0.5-0.1,0.9-0.4,1.2-0.8s0.3-1,0.1-1.4c-1.1-2.6-2-5.3-2.7-8C121.3,124.2,120.7,123.7,119.9,123.7
				C120,123.7,119.9,123.7,119.9,123.7z M118.4,102c-4.7,0.4-9.4,2.7-14,6.9c-8.8,8-13.6,17.9-14.1,29.3c0,0.7,0.4,1.4,1.1,1.6
				c0.2,0.1,0.3,0.1,0.5,0.1c0.6,0,1.1-0.3,1.4-0.8c4.8-7.7,10.3-12.7,14.1-15.6c0.5-0.4,0.8-1.1,0.6-1.7c0-0.2-0.1-0.3-0.1-0.5
				c-0.3-1.6,0.3-3.3,1.5-4.4c2.5-2.3,5.5-4.2,9.1-5.7c0.6-0.2,1-0.8,1-1.5c0.1-2,0.3-4.1,0.6-5.9c0.1-0.5-0.1-1-0.4-1.4
				c-0.3-0.3-0.7-0.5-1.2-0.5C118.5,101.9,118.5,101.9,118.4,102z M191.5,64.2c-13.7,0-27.3,3.8-40.2,11.2
				c-23.1,13.3-29.8,34.1-18.4,57.2c0.3,0.6,0.8,0.9,1.5,0.9c0,0,0,0,0.1,0c0.6,0,1.2-0.4,1.5-1c5.3-12.8,14.8-29.9,29.8-38.4
				c0.8-0.5,1.8-0.7,2.7-0.7c0.9,0,1.8,0.2,2.6,0.6c0.8,0.4,1.6,1.1,2.1,1.9c0.3,0.4,0.6,0.6,1.1,0.7c0.1,0,0.2,0,0.3,0
				c0.4,0,0.7-0.1,1-0.3c9.9-7.6,27-17.3,51.8-20.2c0.7-0.1,1.3-0.6,1.4-1.4c0.1-0.7-0.2-1.4-0.9-1.7
				C215.8,67.2,203.6,64.2,191.5,64.2z M175.5,21c9.1,0,22.1,1.4,31.7,8.2c1.9,1.3,2.7,3.7,1.9,5.9c-0.3,0.8,0.1,1.6,0.8,2
				c7,3.7,17.2,10.8,26.3,23.4c0.3,0.4,0.8,0.7,1.3,0.7c0.2,0,0.3,0,0.5-0.1c0.7-0.2,1.1-0.8,1.2-1.5c0.1-1.2,0.2-2.5,0.3-3.8
				c0-0.1,0-0.3,0-0.4c-2.3-16.8-10.8-30.4-25.3-40.4c-6.8-4.7-13.5-7.1-19.9-7.1c-7.9,0-15.1,3.5-21.5,10.4
				c-0.4,0.5-0.6,1.2-0.3,1.8c0.3,0.6,0.9,1,1.5,1c0,0,0,0,0,0C174.5,21,175,21,175.5,21z M292.7,7.9c-6.4,0-13.1,2.4-19.9,7.1
				c-18,12.5-23.6,28.9-25.3,40.6c0,0.1,0,0.3,0,0.4c0.1,1.2,0.2,2.4,0.3,3.6c0,0.7,0.5,1.3,1.2,1.5c0.2,0,0.3,0.1,0.5,0.1
				c0.5,0,1-0.2,1.3-0.7c9.1-12.6,19.3-19.7,26.2-23.4c0.7-0.4,1-1.2,0.8-2c-0.8-2.2,0-4.6,1.9-5.9c9.7-6.8,22.6-8.2,31.7-8.2
				c0.5,0,1,0,1.5,0c0,0,0,0,0,0c0.6,0,1.2-0.4,1.5-1c0.3-0.6,0.1-1.3-0.3-1.8C307.8,11.4,300.6,7.9,292.7,7.9z"/>
		</g>
		<g>
			<g>
				<path class="st1" d="M277.4,228.9c6.6,0,12.7,2.5,17.9,7.3c12.3,10.8,19.9,33.9,16.9,68.1c-0.3,3-2.1,5.8-4.8,7.2
					c-0.9,0.5-1.8,0.9-2.6,1.4c0.2,4-0.2,7.8-1.1,11.6c-0.3,1-1.1,1.7-2,2c-0.5,0.2-1,0.4-1.5,0.6c0,0.4,0,0.7,0.1,1.1
					c0,0.3,0,0.6,0.1,0.9c0,0.6,0.1,1.1,0.1,1.7c0,0.4,0.1,0.7,0.1,1.1c0.1,0.5,0.1,1.1,0.2,1.6c0,0.3,0.1,0.7,0.1,1
					c0.1,0.8,0.2,1.7,0.3,2.5c0,0.2,0,0.3,0.1,0.5c0.1,0.7,0.2,1.4,0.3,2.1c0,0.3,0.1,0.5,0.1,0.8c0.1,0.6,0.2,1.2,0.3,1.8
					c0,0.3,0.1,0.6,0.1,0.8c0.1,0.6,0.2,1.2,0.3,1.7c0.1,0.3,0.1,0.6,0.2,1c0.1,0.4,0.1,0.8,0.2,1.2c0.9,5,2,9.9,3.2,14.7
					c0.3,1.3-0.5,2.5-1.8,2.6c-3.5,0.4-6.9,0.9-10.4,1.3l-72.5,14.7c-3.7,1-7.3,2-11,3c-0.2,0-0.4,0.1-0.6,0.1c-0.4,0-1-0.1-1.4-0.3
					c-3.8-1.4-7.7-2.8-11.5-4.3c0,0,0,0,0,0c-11.7-4.4-22.6-9-32.4-13.7c0,0,0,0,0,0c-2.4-1.1-4.7-2.3-7.1-3.5
					c-0.6-0.3-0.9-1-0.8-1.6l7.5-33.4c-1-0.3-1.9-0.7-2.8-1c-1-0.4-1.8-1.3-1.9-2.4c-0.4-3.6-0.6-7.2-0.5-10.8l-2.6-0.7
					c-1.9-0.5-3.3-2.2-3.7-4.1c-3.2-15.8-6.5-58.6,7.3-70.2c0.2-0.2,9.3-8.2,21.2-8.2c7.7,0,16.6,3.4,25.1,14.5
					c2.9-0.6,6.4-1,10.8-1.3c0,0,0,0,0,0c1.2-0.1,2.4-0.2,3.6-0.2h-0.2c0,0,0.4-2.3,2.6-3.5c1.6-1,5.6-3.2,10.4-3.2
					c4,0,8.6,1.6,12.6,6.9c3.7,0.2,6,0.4,6,0.4c0,0,0,0,0,0c2.1-3.5,4.7-5.9,7.7-7.4c-0.7,0.3-1.3,0.7-1.9,1.1c0,0,0.1-0.1,0.1-0.1
					c0,0-0.1,0-0.1,0.1C264.2,231.3,271,228.9,277.4,228.9 M277.4,224C277.4,224,277.4,224,277.4,224c-7.6,0-15.4,2.8-22.9,8.3
					c-0.2,0.1-0.4,0.3-0.6,0.5c-1.8,1.3-3.4,2.9-4.8,4.8c-0.4,0-0.8,0-1.2-0.1c-5.2-5.7-10.9-7-15-7c-5.7,0-10.4,2.4-12.8,3.8
					c-1.4,0.8-2.5,1.8-3.3,3c-0.1,0-0.2,0-0.3,0c-0.1,0-0.1,0-0.2,0c-3.2,0.2-5.9,0.5-8.4,0.9c-7.9-9.3-17-14-27.1-14
					c-13.3,0-23.4,8.5-24.4,9.4c-17,14.4-11.3,62.7-8.9,74.9c0.7,3.6,3,6.4,6.2,7.6c0.1,2.6,0.2,5.2,0.6,7.7
					c0.3,2.5,1.8,4.6,3.9,5.8l-6.6,29.3c-0.6,2.9,0.7,5.8,3.3,7.1c2.1,1.1,4.3,2.2,6.6,3.2c0.2,0.1,0.4,0.2,0.6,0.3
					c9.8,4.7,20.9,9.3,32.8,13.8c0.1,0,0.2,0.1,0.3,0.1c3.4,1.3,7,2.7,11.2,4.2c1,0.4,2.1,0.6,3.2,0.6c0.7,0,1.3-0.1,2-0.3
					c3.7-1,7.3-2,10.8-3l72.2-14.7c3.6-0.5,6.9-0.9,10.1-1.3c2-0.2,3.8-1.3,5-3c1.1-1.7,1.5-3.8,1-5.7c-1.2-4.7-2.3-9.5-3.1-14.4
					l-0.1-0.6l-0.1-0.5c-0.1-0.3-0.1-0.6-0.2-0.9l-0.1-0.7l-0.1-0.9c0-0.3-0.1-0.6-0.1-0.9c-0.1-0.6-0.2-1.2-0.3-1.8l-0.1-0.4
					l-0.1-0.4c-0.1-0.7-0.2-1.4-0.3-2.1l0-0.3l0-0.2c-0.1-0.8-0.2-1.6-0.3-2.4c0-0.3-0.1-0.6-0.1-0.9c-0.1-0.6-0.1-1.1-0.2-1.6
					l0-0.5l0-0.5c0-0.1,0-0.1,0-0.2c1.6-1.1,2.7-2.6,3.2-4.4c0.8-3.1,1.2-6.4,1.3-9.9c4.2-2.2,7-6.4,7.4-11.1
					c3-32.8-3.8-59.1-18.5-72.2C292.4,227,285.1,224,277.4,224L277.4,224z"/>
			</g>
			<g id="_x38_">
				<g>
					<g>
						<g>
							<g>
								<g>
									<g>
										<path class="st8" d="M207.9,383.1c0.7,0.3,1.5,0.3,2,0.2c31.3-8.9,61.4-15.2,93.9-19.1c1.3-0.2,2.1-1.4,1.8-2.6
											c-3-11.6-5-23.9-5.7-36.1c0.6-0.1-16.8,2.4-86.8,12.4C213.1,337.9,199.1,376.9,207.9,383.1z"/>
									</g>
									<g>
										<path class="st9" d="M230.6,335.4c7.3,25.3,50.5,32.8,72,12.8c-1.3-7.3-2.3-14.8-2.7-22.6
											C278.1,328.6,252.4,332.3,230.6,335.4z"/>
									</g>
									<g>
										<path class="st10" d="M293.9,365.5c-23.7,3.3-48,8.1-73.1,14.8c0.3-13.2,1.3-33.5,8.2-44.7c11.9-1.7-29.3,4.2,53.9-7.7
											c3.4,0.6,5.6,1,5.6,1C288.7,329.4,294.9,347.7,293.9,365.5z"/>
									</g>
									<g>
										<path class="st11" d="M228.7,336.4c13.3,26.8,46.6,28.5,64.8,15.6c0.5,4.4,0.7,9,0.4,13.5c-23.7,3.3-48,8.1-73.1,14.8
											C221,367.4,222.3,347.6,228.7,336.4z"/>
									</g>
									<g>
										<g>
											<path class="st11" d="M222.2,359.8c25.6-3.2,44.9-6.9,68.2-11.6l-1.1-5.2c-1.6,0.5-36.3,7.4-66.3,11.3
												C222.6,356.2,222.3,358,222.2,359.8z"/>
										</g>
									</g>
									<g>
										<path class="st12" d="M222.2,359.8c8.9-1.1,18.1-2.5,26.8-3.9c-2.7-1.2-5.1-2.6-7.4-4.3c-6.2,1-12.4,1.9-18.6,2.7
											C222.6,356.2,222.3,358,222.2,359.8z"/>
									</g>
									<g>
										<path class="st13" d="M293.9,365.5c-2.2-1.3-6.1-3.5-10.4-5c0.6-10.1-1.4-22.2-4-32c0.5-0.1,3.9-0.6,3.4-0.5
											c2.2,0.4-0.2,0,5.6,1c0,0,0.2,0.7,0.6,1.9C290.8,336.1,294.8,351.3,293.9,365.5z"/>
									</g>
									<g>
										<path class="st13" d="M156.2,360c-0.1,0.7,0.2,1.3,0.8,1.6c16.2,8.2,33.7,15.1,51,21.5c0.6,0.2,1.3-0.1,1.4-0.8
											c0.8-5.9,4.3-31.9,3.8-44.5c-0.5-0.1-49.7-12.5-49.1-12.3L156.2,360z"/>
									</g>
									<g>
										<path class="st11" d="M196.5,378.8c-11.7-4.4-22.6-9-32.4-13.7c0.3-2.7,0.6-5.2,1-7.7c0-0.1,0-0.1,0.1-0.2
											c2.2-13.9,6.2-24.9,8-29.4l29.5,7.4C204.3,348.6,200.6,365.9,196.5,378.8z"/>
									</g>
									<g>
										<g>
											<path class="st12" d="M168.1,348.2c0.5,0.2,17.5,4.6,33.3,11.4c0.3-1.8,0.6-3.6,0.8-5.5c-12.1-5.2-28.8-10.2-32.7-11.1
												L168.1,348.2z"/>
										</g>
									</g>
									<g>
										<path class="st14" d="M172.9,360.3c-0.1-0.3-0.2-0.7-0.1-1c1.3-12.4,4.4-23.1,6.8-29.9l-6.4-1.6
											c-2.2,5.4-7.6,19.4-9.1,37.3C165.3,364.2,168.2,362.1,172.9,360.3z"/>
									</g>
									<g>
										<path class="st13" d="M164.9,357.4c-0.9,2.4-1.2,5-0.9,7.7c10.3,4.8,21.1,9.4,32.4,13.7c2.3-2.5,2.9-5.5,2.6-9
											L164.9,357.4z"/>
									</g>
									<g>
										<path class="st8" d="M200.5,363.7c-0.4,2.2-1,4.2-1.4,6.1c-10.8-2.7-34.1-12.5-34.1-12.5c3.5-3.5,8-3.8,8.6-4.1
											L200.5,363.7z"/>
									</g>
									<g>
										<g>
											<path class="st10" d="M301.9,299c0,0-8.1,3.3-19.2,7.2c-12.8,4.5-44.6,14.9-57.7,11.2c-19-5.4-13.5-14.1-12.5-31.8
												c1-17.8-26.5-33.2-13.6-39.7c13-6.5,52.6-3.2,52.6-3.2C287.4,238.1,291.8,271.9,301.9,299z"/>
										</g>
										<g>
											<path class="st11" d="M216.5,242.2c1.5,23.8,17.7,46.5,48.4,46.5c12.5,0,22.5-3.8,30.2-9.8c2.3,6.7,4.4,13.5,6.8,20
												c0,0-57.9,23.8-76.9,18.4c-19-5.4-13.5-14.1-12.5-31.8C213.7,263.1,170.9,245.5,216.5,242.2z"/>
										</g>
										<g>
											<g>
												<path class="st12" d="M282.7,306.1c-13.9,4.9-32.6,10.6-46.2,11.8c-6.3-15.8,2.7-38.5,20.5-37
													c12.8,1.1,18.5,5.6,24.4,20.6C282.1,303.1,282.5,304.7,282.7,306.1z"/>
											</g>
										</g>
										<g>
											<g>
												<path class="st11" d="M194.7,263.6l1.9,5c7.3-2.8,15.7-5.4,24.7-7.2c38.4-8,71.8-0.7,72.2-0.6l1.2-5.2
													c-1.7-0.4-35.7-7.7-75.3,0.8C210.5,258.2,202.8,260.6,194.7,263.6z"/>
											</g>
										</g>
										<g>
											<g>
												<path class="st11" d="M202.7,282l1.4,5.2c11.5-3.1,21.6-5,33-6.5c34.9-4.5,64-1.8,64.4-1.8l0.5-5.3
													c-0.4-0.1-32.8-3.2-70.6,2.5C222.6,277.3,211.9,279.4,202.7,282z"/>
											</g>
										</g>
										<g>
											<path class="st12" d="M231.5,276c-6.4,0.9-13,2.1-19.6,3.6c0.5,1.8,0.7,3.6,0.6,5.4c8.3-2,16.7-3.4,24.7-4.4
												C235.1,279.2,233.2,277.7,231.5,276z"/>
										</g>
										<g>
											<path class="st12" d="M201.1,261.3c1.1,1.4,2.2,2.9,3.4,4.5c5.6-1.8,11.2-3.3,16.8-4.4c-0.8-1.7-1.4-3.3-2-5.1
												C213.4,257.6,207.3,259.2,201.1,261.3z"/>
										</g>
										<g>
											<g>
												<path class="st12" d="M209.3,309.3c47.4-14,96.7-10.2,97.2-10.1l0.4-5.3c-0.5,0-50.9-3.9-99.2,10.3L209.3,309.3z"/>
											</g>
										</g>
										<g>
											<path class="st13" d="M303.6,324.5c-0.3,1-1.1,1.7-2,2c-30.4,11.6-62.3,15.9-91,14v-18.7c24.4-2.9,98.8-11.7,94-11.1
												C305,315.4,304.7,320,303.6,324.5z"/>
										</g>
										<g>
											<g class="st15">
												<path class="st16" d="M289.7,325.8c-2.5,2.5-3.2,3.3-5.1,5.1c0,0-0.1,0-0.1,0.1c-0.9,1.9-0.2,2.1,0.8,5.6
													c0.4,1.1,1.6,5.5,1.4,6.2c0,0.4-0.1,0.8-0.3,1.3v0.1c-0.1,0.1-0.1,0.2-0.1,0.2c-0.6,1.1-1.7,2.5-3.1,3.4
													c-0.5-5.4-1.5-10.4-2.4-14.4c-8.7,2.4-17.5,4.2-26.4,5.4c-0.2-0.5-0.4-0.9-0.9-1.1c-3.4-2.3-12.7-8.8-16.7-18.9
													l51.4-6.1c-0.3,1.8-1,2.7-0.1,3.7c0.1,0.1,0.2,0.2,0.2,0.3c0.1,0,0.1-0.1,0.1-0.1c0,0.1,0.1,0.1,0.1,0.1v0.1v0.1
													C290.1,318.5,292.6,322.6,289.7,325.8z"/>
											</g>
										</g>
										<g>
											<path class="st14" d="M210.5,321.7l0,18.7c-17.5-4.3-34.1-9.3-49.6-14.9c-1-0.4-1.8-1.3-1.9-2.4
												c-0.5-4.2-0.7-8.4-0.5-12.6L210.5,321.7z"/>
										</g>
										<g>
											<path class="st8" d="M312.1,304.3c-0.3,3-2.1,5.8-4.8,7.2c-31.1,16.7-66.5,21.6-104.4,12.3l-9.5-65.1l-34-21.5
												c0,0,26.9-24.1,49.2,10.4c10.7,16.4,13.4,48.2,14.1,59.1c0.2,2.3,1.8,4.3,4,4.9c25.5,6.9,46.7,1.2,68.6-12.9
												c0,0,0.2-4.2,0.1-10.6c-0.5-18.5-4.5-54.7-27.9-54.7c-4,0-7.4,1.1-10.2,2.9C286.1,215.4,317.9,240.6,312.1,304.3z"/>
										</g>
										<g>
											<path class="st9" d="M310.8,268.3c-3.9,4.2-9.6,7.8-16,11.4c-1.5-19.3-7.3-46.2-27.4-46.2c-4,0-7.4,1.1-10.2,2.9
												C281.1,219.1,304.2,233.1,310.8,268.3z"/>
										</g>
										<g>
											<path class="st14" d="M254.2,313.4v1c14.9-0.7,29.1-5.2,42.1-13.2c0.4-0.2,0.7-0.5,1-0.8c-3.6-0.2-7-0.8-8.9-1.2
												c-0.5,1.1-1.3,2-2.4,2.6C276,307.8,265.3,311.6,254.2,313.4z"/>
										</g>
										<g>
											<path class="st13" d="M289,296.1c0,1.1-0.2,2.1-0.7,3c1.9,0.4,5.2,1,8.9,1.2c0.8-0.9,1.2-2,1.2-3.2
												c-0.3-12.2-3.3-63.8-30.9-63.8c-6.5,0-12,2.8-16,9.3C284.3,242.2,288.6,282.1,289,296.1z"/>
										</g>
										<g>
											<g>
												<path class="st13" d="M155.9,311.6l45.8,12c3.1,0.8,5.9-1.4,5.8-4.6c-0.7-20.5-2.1-79.7-37.9-84.6
													c-25.2-3.4-21.2,54.1-17.4,73C152.6,309.5,153.9,311.1,155.9,311.6z"/>
											</g>
										</g>
										<g>
											<g>
												<path class="st11" d="M159.3,303.4c0.2,1.3,1.1,2.3,2.3,2.6l29.1,6.7c1.9,0.4,3.7-1.1,3.7-3
													c-0.8-20.2-7.9-55.5-27.1-61.9C156,244,157.8,292.6,159.3,303.4z"/>
											</g>
										</g>
										<g>
											<g>
												<g>
													<path class="st12" d="M161.6,268.7c0.5,0.2,29.2,9.4,27.3,8.8c-0.6-2.1-1.4-4.3-2.2-6.3c-0.5-0.2-25-8-23.5-7.5
														L161.6,268.7z"/>
												</g>
											</g>
											<g>
												<g>
													<path class="st12" d="M161.6,287.6c0.5,0.2,33.7,10.8,31.6,10.1c-0.2-1.9-0.5-3.9-0.9-5.9c-0.5-0.2-31-9.9-29.1-9.3
														L161.6,287.6z"/>
												</g>
											</g>
										</g>
										<g>
											<g>
												<path class="st16" d="M160.3,305.3c0.9,0.9,0,0.3,30.4,7.4c2,0.5,4.1-1.2,3.6-4.3c-23.8-5.8-23.7-4.7-24.8-6.6
													L160.3,305.3z"/>
											</g>
											<g>
												<path class="st14" d="M159.3,303.4c0.1,0.8,0.4,1.5,1,1.8l9.2-3.4c-1.7-2.5-3.2-39.7,1.7-52.3c-1.2-0.8-2.5-1.3-3.9-1.8
													C156,244,157.8,292.6,159.3,303.4z"/>
											</g>
										</g>
									</g>
								</g>
								<g class="st17">
									<path class="st18" d="M296.3,258.8c1.9,6.8,2.1,12.4,4.8,11.8c2.7-0.6,3.4-6.7,1.5-13.5c-1.9-6.8-5.9-10.8-8.6-10.2
										C291.3,247.5,294.4,252,296.3,258.8z"/>
								</g>
								<g class="st17">
									<path class="st18" d="M289,238.3c-1.1,0.8-1.1,2.8,0.1,4.3s2.9,2.1,4,1.3c1.1-0.8,1.1-2.7-0.1-4.2
										C291.9,238.1,290.1,237.5,289,238.3z"/>
								</g>
								<g>
									<path class="st18" d="M203.4,282.3c-0.1-0.6-0.9-0.7-1.2-0.2c-4,5.8-4.7,6.1-0.8-0.5c0.3-0.5-0.1-1.1-0.7-1
										c-15.3,2.8-15,2-0.4-1.7c0.6-0.1,0.7-0.9,0.2-1.2c-6-4.2-5.9-4.5,0.5-0.8c0.5,0.3,1.1-0.1,1-0.7
										c-2.8-15.2-2.1-15.1,1.7-0.4c0.2,0.6,0.9,0.7,1.2,0.2c4.3-6.2,4.4-5.7,0.8,0.5c-0.3,0.5,0.1,1.1,0.7,1
										c14.7-2.7,15.6-2.2,0.4,1.7c-0.6,0.1-0.7,0.9-0.2,1.2c6.3,4.4,5.6,4.4-0.5,0.8c-0.5-0.3-1.1,0.1-1,0.7
										C207.9,297,207.3,297.2,203.4,282.3z"/>
								</g>
							</g>
						</g>
					</g>
					<g>
						<g>
							<g>
								<g>
									<path class="st14" d="M286.9,320.5c-14.3,5.1-29.1,7.7-44.2,7.9c-3.4-4-6.4-9-7.3-15c18.1,3,33.7-0.4,49.2-8.5
										c2.3,8.9-1.4,10.6,0.3,12.3C285.1,317.8,286.1,318.7,286.9,320.5z"/>
								</g>
							</g>
							<g>
								<g>
									<path class="st8" d="M221.7,239c0,0,13.6-10.1,23.7,3.2c9.7,12.8,14.1,30.7,18.2,48.4s-10,0.8-10,0.8
										C244.9,259.2,234.5,240.6,221.7,239z"/>
								</g>
								<g>
									<path class="st13" d="M255.3,291l-4.3,0.4c-4.2-17.1-13.3-39.6-22-48.4c-2.1-2-4.5-0.9-9-1.1c0,0,0.7-4.1,5.2-4.1
										C236.2,237.9,250.5,265.8,255.3,291z"/>
								</g>
								<g>
									<g>
										<path class="st9" d="M283.5,345.3c-2.5,1.9-8.8,4.9-21.5,3.9c-8.1-1.1-6.4,0.2-5.5-11.1c0.1-0.9-0.3-1.7-0.9-2.2
											c-4.1-2.8-17.3-12.6-17.3-27.7c-0.5-34,35.7-34.6,46.8-6.7c3.8,9.8-0.4,12.9,1.2,14.8c0.1,0.1,0.2,0.2,0.3,0.3
											c0,0,0,0,0,0c1.5,1.9,4,6,1.2,9.1c-1.9,2.1-3.3,3.5-4.4,4.4c-0.8,0.7-1.2,1.8-1,2.8c0.7,2.3,2.1,6.1,2.4,9.1
											C285,343.3,284.5,344.5,283.5,345.3z"/>
									</g>
								</g>
								<g class="st19">
									<g>
										<path class="st8" d="M284.9,342.1c0.1,1.1-0.4,2.4-1.3,3.1c-6.6,5-17.9,4.5-26,3.3c-1.2-0.2-2-1.2-1.8-2.6
											c0.9-7.8,1.1-8.8,0.3-9.7c-0.6-0.9-17.8-10.6-17.8-28.2c-0.1-10.3,3.2-20.2,12.4-24.8c0,0,0,0.1-0.1,0.1
											c-9.4,14.5-7.9,41.8,14,44.3c9.6,1,17.2-3.7,21.9-11.2c0,0,0,0.1,0,0.1c0,0,0,0.1,0,0.1c1.6,1.8,4,6,1.2,9.1
											c-1.8,2.1-3.3,3.5-4.4,4.4c-0.8,0.7-1.2,1.9-1,2.8C282.7,333.5,284.5,339.3,284.9,342.1z"/>
									</g>
								</g>
								<g class="st19">
									<g>
										<path class="st13" d="M273.1,349c-5.4,0.8-10.7,0.3-15.6-0.4c-1.2-0.2-2-1.2-1.8-2.6c0.9-7.8,1.1-8.8,0.3-9.7
											c-0.8-0.9-17.8-10.9-17.8-28.2c-0.1-10.4,3.2-20.2,12.4-24.8c0,0,0,0.1-0.1,0.1c1.9-0.9,3.9-1.6,6-1.9
											c-10,4-13.6,14.9-13.4,25.6c0.1,15.3,13.4,25.2,17.5,28.1c0.7,0.5,1,1.3,0.9,2.2c-0.2,2.7-0.4,5.4-0.8,8
											c-0.2,1.4,0.6,2.5,1.8,2.6c1.5,0.2,3,0.4,4.5,0.6c0.1,0,0.1,0,0.2,0C268,348.9,271.7,349,273.1,349z"/>
									</g>
								</g>
								<g>
									<g>
										<path class="st16" d="M278.5,315.9c-2.5,1.3-5.7-1.1-7.1-5.3c-1.5-4.2-0.8-8.8,1.6-10.2c2.4-1.4,5.7,0.9,7.3,5.2
											C281.9,309.9,281,314.6,278.5,315.9z"/>
									</g>
									<g>
										<path class="st14" d="M278.5,315.9c-0.6,0.3-1.3,0.4-1.9,0.3c3.2-4.5-0.1-14-4.9-14.5c2.4-3.9,6.9-0.8,8.6,3.9
											C281.9,309.9,281,314.6,278.5,315.9z"/>
									</g>
								</g>
								<g>
									<g>
										<path class="st16" d="M262.2,320c-3.2,1.6-7-1.3-8.7-6.3c-1.7-5.1-0.8-10.6,2.2-12.3c3-1.8,7.2,1,9.1,6.2
											C266.6,312.8,265.4,318.4,262.2,320z"/>
									</g>
								</g>
								<g>
									<g>
										<path class="st14" d="M260.2,320.5c2.9-1.8,4-7.1,2.2-12.1c-1.5-4.1-4.5-6.7-7.1-6.7c0.1-0.1,0.2-0.2,0.4-0.3
											c2.9-1.8,7.2,1,9.1,6.2C266.7,313.1,265.2,320.5,260.2,320.5z"/>
									</g>
								</g>
								<g>
									<path class="st14" d="M271.5,325.4c-5.5,2.1-4.6,2.7-1.9-5.4c0.2-0.5,0.8-0.6,0.9-0.1c0.5,1.6,0.9,3.2,1.3,4.8
										C271.9,325,271.7,325.3,271.5,325.4z"/>
								</g>
								<g>
									<path class="st14" d="M276.5,325c-3.2-0.4-2.4,0.5-3.6-4.9c-0.1-0.4,0.3-0.6,0.5-0.4c1.1,1.5,2.2,3.1,3.3,4.6
										C277,324.6,276.8,325,276.5,325z"/>
								</g>
								<g>
									<path class="st13" d="M287.7,325.7c-1.9,2.1-3.3,3.5-4.4,4.4c-0.8,0.7-1.2,1.8-1,2.8c-0.8-3.1-3.4-7.2,0.7-8.8
										c5.9-2.3,3.4-7.6,3.3-7.6c0,0,0,0,0,0C288.1,318.5,290.6,322.6,287.7,325.7z"/>
								</g>
							</g>
							<g>
								<path class="st16" d="M281,346.8c-0.2,0.2-0.5,0.3-1,0.5c-0.4-2.6-0.7-5.2-1.1-7.8C279.6,341.9,280.3,344.3,281,346.8z"/>
							</g>
							<g>
								<path class="st16" d="M275.7,348.5c-0.4,0.4-0.8,0.4-1.1,0.2c0.1-2.7,0.1-5.4,0.1-8C275.1,343.3,275.4,345.9,275.7,348.5z"
									/>
							</g>
							<g>
								<path class="st16" d="M268.4,349.3c-0.5,0.3-0.8,0.2-1.2,0c0.5-2.2,0.9-3.6,1.9-8.5C269,342.5,268.6,347.9,268.4,349.3z"/>
							</g>
						</g>
						<g class="st15">
							<path class="st18" d="M244.7,304.6c-0.4,4.8,0.1,8.5-1.6,8.6c-1.7,0.1-2.7-3.7-2.3-8.5c0.4-4.8,2.3-8.3,3.9-8.4
								C246.4,296.1,245.1,299.7,244.7,304.6z"/>
						</g>
						<g class="st15">
							<path class="st18" d="M247.1,292.4c-1.1,2.9-3.9,1.9-2.8-1.1C245.5,288.3,248.2,289.4,247.1,292.4z"/>
						</g>
					</g>
				</g>
				<g>
					<path class="st8" d="M293.9,365.5l-73.1,14.8c-0.8-3.2-0.2-6.4,0.3-9.8l72.7-13.7C294.6,359.5,294.6,362.4,293.9,365.5z"/>
				</g>
				<g>
					<path class="st9" d="M293.9,356.7c-22.6,4.7-47,9.6-72.7,13.7c0.1-1.2,0.2-2.5,0.3-3.8l41.6-7.3l0.1-0.1l20.5-3.6
						C287,355,293.2,356.6,293.9,356.7z"/>
				</g>
				<g>
					<path class="st13" d="M263.2,359.4c-9.6,2.5-44.2,11.7-42,11.1c0.1-1.2,0.2-2.5,0.3-3.8L263.2,359.4z"/>
				</g>
				<g>
					<path class="st14" d="M200.5,363.7c-0.3,1.8-0.9,3.9-1.4,6.1l-25.6-16.5L200.5,363.7z"/>
				</g>
			</g>
			<g>
				<path class="st1" d="M154.1,287c1.8,0,3.4,0.3,4.8,0.9v0c0.1,0,0.1,0.1,0.2,0.1c0,0,0.1,0,0.1,0c0.1,0,0.2,0.1,0.3,0.1
					c0.4,0.2,0.8,0.5,1.1,0.8c0.1,0,0.1,0.1,0.2,0.1c0,0,0.1,0.1,0.1,0.1c0.1,0.1,0.2,0.2,0.3,0.3c0,0,0,0,0,0c0,0,0.1,0.1,0.1,0.1
					c0.1,0.1,0.2,0.2,0.2,0.3l0,0c0,0,1.7,2.1,1.7,8.9c1.7,0.4,3.4,1.2,4.9,2.2c0.1,0.1,0.2,0.1,0.3,0.2c0.4,0.3,0.8,0.6,1.1,0.9
					c0,0,0,0,0,0c0.5,0.4,1.1,0.9,1.4,1.6c0,0,0,0,0,0c0.1,0.1,0.1,0.2,0.2,0.4c0.7,1.5,0.9,3.6,0.8,5.9c0,0.1,0,0.1,0,0.2
					c0,0.1,0,0.2,0,0.4c-0.1,1.5-0.3,3-0.6,4.5c-0.1,0.3-0.1,0.6-0.2,0.9c-0.1,0.3-0.1,0.5-0.2,0.8c0,0.1-0.1,0.3-0.1,0.4l0.1,0
					c0,0,0.2,0.1,0.6,0.3c0,0,0,0,0,0c1.1,0.5,2,1.5,2.7,2.6l0.6,0.1c0,0,0.3,0.1,0.7,0.4c2.7,1.3,4.9,4.9,3.8,8.2
					c0.1,0,0.1,0,0.2,0.1c0,0,0,0,0,0c0.6,0.3,1.2,0.5,1.8,0.8c6.2,3.3,12.4,9.2,15.9,16c0,0,0,0,0,0c1.3,2.5,2.3,5,3,7.6
					c1.3,3.2,2,6.2,2.3,9c0,0,0,0,0,0c0.6,3.3,0.5,6.3,0.5,8.7c0.1,2.5,0.2,4.4,1,5.6c0,0,0,0,0,0c0,0,0,0.1,0.1,0.1
					c0.1,0.1,0.1,0.1,0.2,0.2c0.9,1,2.4,1.3,3.1,2.6c0.9,1.6,0.2,4.4-1.2,5.9c-2.2,2.5-4.6,2.3-15.5,8c-7.5,5.2-17.4,9-26.6,11.6
					c-0.1,0-0.3,0.2-0.5,0.2c-9.9,2.9-14.5,3.2-16.5,3.2c-0.5,0-0.9,0-1.1,0c0,0-0.1,0-0.1,0c-12.7-0.4-19.9-9.9-29-12
					c-1.9-0.4-3.9-0.5-5.6-1.6c-2.5-1.6-3.3-5.5-0.3-7c1.2-0.7,2.9-0.9,4.1-1.8c3.2-2.5,2.2-7.7,3.9-14.2c0-0.2,0-0.2,0-0.2
					c1.3-5.1,4-11.1,7.2-16.9c1.9-3.6,4.1-7.1,6.3-10.4c1.4-2.1,2.8-4,4.1-5.8c0.1-0.1,0.1-0.1,0.2-0.2c0.2-0.3,0.4-0.6,0.6-0.9
					c2.1-2.6,3.8-3.9,5-5.3c-1-1.8-0.9-3.2-0.9-3.2c-0.4-2,1.5-3.2,2-3.5c-0.1-0.6-0.1-1-0.1-1c-0.4-1.8,1.5-2.8,1.8-2.9
					c-1.6-1-3.5-1.9-5.4-2.4c-3.7-0.9-7.3-3.7-8.5-4.7c0,0,0,0,0,0c0,0,0,0,0,0c0,0-0.1-0.1-0.1-0.1c-0.1-0.1-0.2-0.2-0.3-0.3
					c-0.1-0.1-0.1-0.1-0.2-0.2c-0.1-0.1-0.1-0.1-0.1-0.2c0-0.1-0.1-0.1-0.1-0.2c0-0.1-0.1-0.1-0.1-0.2c-0.1-0.1-0.1-0.2-0.2-0.3
					c0-0.1-0.1-0.2-0.1-0.3c0,0,0,0,0-0.1c0-0.1-0.1-0.2-0.1-0.2c0-0.1-0.1-0.2-0.1-0.2c0-0.1,0-0.1-0.1-0.2c0,0,0,0,0-0.1
					c0-0.1,0-0.1,0-0.2c0,0,0,0,0,0c0-0.1,0-0.1,0-0.2c0-0.1,0-0.1,0-0.2c0,0,0-0.1,0-0.1c0,0,0,0,0,0c0,0,0-0.1,0-0.1
					c0-0.1,0-0.1,0-0.2c0-0.1,0-0.2,0-0.3c0,0,0,0,0,0c0-0.1,0-0.2,0-0.2v-0.1c0-0.2,0-0.4,0-0.6c0-0.1,0-0.2,0-0.3c0,0,0-0.1,0-0.1
					c0,0,0-0.1,0-0.1v0c0-0.1,0-0.1,0-0.2c0-0.1,0-0.1,0-0.2c0-0.2,0.1-0.5,0.2-0.7c0-0.1,0.1-0.2,0.1-0.3c0.2-0.5,0.4-1.1,0.7-1.6
					c0.1-0.1,0.1-0.2,0.2-0.4c0.4-0.6,0.8-1.2,1.4-1.7c0.3-0.3,0.6-0.6,1-0.9c0.3-0.2,0.6-0.4,0.9-0.6c0.1-0.1,0.2-0.1,0.3-0.2
					c0.1-0.1,0.2-0.1,0.3-0.2c0.1,0,0.2-0.1,0.3-0.1c0.1,0,0.1-0.1,0.2-0.1c0.1-0.1,0.2-0.1,0.3-0.1c0.1-0.1,0.2-0.1,0.3-0.2
					c0,0,0,0,0.1,0c0.2-0.1,0.4-0.2,0.6-0.3c0,0,0,0,0.1,0c1.6-0.7,3.3-1.1,4.9-1.7c0,0,0,0,0.1,0c1.6-0.5,3.2-1.2,5.1-2.2
					c0.1,0,0.1-0.1,0.2-0.1c0,0,0,0,0,0c0.3-0.2,0.5-0.3,0.7-0.4c0,0,0,0,0,0c0,0,0.1,0,0.1-0.1c0,0,0,0,0.1-0.1c0,0,0,0,0,0
					c0,0,0,0,0,0c0,0,0.1-0.1,0.1-0.1c0,0,0-0.1,0.1-0.1c0,0,0,0,0,0c0,0,0,0,0-0.1c0,0,0,0,0-0.1c0,0,0,0,0,0c0,0,0,0,0-0.1
					c0-0.2,0-0.4,0-0.5c0,0,0,0,0,0c0,0,0-0.1,0-0.1c-0.1-0.2-0.4-0.3-0.6-0.3c-0.2,0-0.4,0-0.5,0.1c-0.1,0-0.2,0.1-0.3,0.1
					c-0.1,0-0.1,0.1-0.2,0.1c-0.1,0.1-0.2,0.1-0.3,0.2c-0.5,0.3-1.1,0.6-1.8,0.6c-0.3,0-0.6-0.1-0.8-0.2l0,0c-0.1,0-0.1-0.1-0.2-0.1
					c-0.1-0.1-0.2-0.1-0.3-0.2c-0.1-0.1-0.1-0.1-0.2-0.2c-0.2-0.2-0.3-0.4-0.4-0.7c-0.2-0.5-0.2-1.1,0-1.7c0-0.1,0.1-0.2,0.1-0.3
					c0.2-0.4,0.5-0.9,0.8-1.3c0.1-0.1,0.2-0.2,0.3-0.3c0.1-0.1,0.1-0.1,0.2-0.2c0.2-0.2,0.3-0.3,0.5-0.5c0.1-0.1,0.2-0.2,0.3-0.2
					c0.1-0.1,0.2-0.2,0.3-0.2c0.1-0.1,0.2-0.2,0.3-0.3c0.1-0.1,0.2-0.2,0.3-0.3c0.2-0.2,0.4-0.3,0.6-0.4c0.2-0.1,0.3-0.2,0.5-0.3
					c0.1,0,0.1-0.1,0.2-0.1c1.6-0.9,3.3-1.6,5.1-1.8c0.2,0,0.4-0.1,0.6-0.1c0,0,0,0,0.1,0c0.2,0,0.4,0,0.6-0.1
					C153.3,287,153.7,287,154.1,287 M154.1,282.9c-0.4,0-0.9,0-1.4,0c-0.3,0-0.5,0-0.8,0.1c0,0-0.1,0-0.1,0c0,0,0,0,0,0
					c-0.2,0-0.4,0.1-0.7,0.1c-2.4,0.4-4.6,1.2-6.7,2.4l-0.2,0.1c-0.2,0.1-0.4,0.3-0.6,0.4c-0.3,0.2-0.5,0.4-0.8,0.6
					c-0.2,0.1-0.3,0.2-0.4,0.3c-0.2,0.1-0.3,0.2-0.5,0.4c-0.1,0.1-0.2,0.2-0.4,0.3c-0.1,0.1-0.2,0.2-0.4,0.3
					c-0.2,0.2-0.4,0.4-0.6,0.6c-0.1,0.1-0.2,0.2-0.3,0.3c-0.1,0.1-0.2,0.2-0.3,0.3c-0.7,0.8-1.2,1.6-1.5,2.4
					c-0.1,0.2-0.2,0.4-0.2,0.6c-0.5,1.4-0.5,2.9,0,4.2c-1.1,0.3-2.2,0.7-3.4,1.2c-0.1,0-0.2,0.1-0.3,0.1c-0.2,0.1-0.4,0.2-0.6,0.3
					c0,0,0,0-0.1,0c0,0,0,0-0.1,0c-0.1,0.1-0.3,0.1-0.4,0.2c-0.1,0.1-0.2,0.1-0.4,0.2c-0.1,0-0.2,0.1-0.3,0.1
					c-0.1,0.1-0.2,0.1-0.4,0.2c-0.1,0.1-0.2,0.1-0.3,0.2c-0.1,0.1-0.3,0.2-0.4,0.3c-0.4,0.2-0.8,0.5-1.2,0.8c-0.5,0.4-1,0.8-1.4,1.2
					c-0.7,0.7-1.4,1.5-2,2.4c-0.1,0.2-0.2,0.3-0.3,0.5c0,0,0,0,0,0.1c-0.4,0.7-0.8,1.5-1,2.3c0,0.1-0.1,0.2-0.1,0.3
					c-0.1,0.4-0.2,0.7-0.3,1.1c0,0.1,0,0.2-0.1,0.3c0,0.1,0,0.2,0,0.3c0,0,0,0.1,0,0.1c0,0.1,0,0.2,0,0.2c0,0.1,0,0.2,0,0.4
					c0,0.4,0,0.7,0,1c0,0,0,0,0,0.1v0.1l0,0.2c0,0.1,0,0.2,0,0.2c0,0.1,0,0.3,0,0.4c0,0.1,0,0.2,0,0.3c0,0,0,0,0,0
					c0,0.1,0,0.2,0,0.2c0,0,0,0.1,0,0.1c0,0.1,0,0.3,0.1,0.4l0,0.1c0,0.1,0,0.1,0,0.2c0,0.1,0,0.2,0.1,0.3c0,0,0,0.1,0,0.1
					c0,0.1,0.1,0.2,0.1,0.4l0,0.1l0.1,0.2c0,0.1,0,0.1,0.1,0.2c0.1,0.1,0.1,0.3,0.2,0.4c0,0,0,0.1,0.1,0.1c0.1,0.1,0.1,0.3,0.2,0.4
					c0.1,0.2,0.2,0.4,0.3,0.6c0,0,0,0,0,0.1c0.1,0.1,0.2,0.2,0.2,0.3c0.1,0.1,0.2,0.2,0.3,0.4c0.1,0.1,0.2,0.3,0.3,0.4
					c0.1,0.1,0.2,0.2,0.3,0.3c0,0,0.1,0.1,0.1,0.1c0.2,0.1,0.3,0.3,0.5,0.4c0.1,0.1,0.2,0.1,0.2,0.2c1.6,1.3,5.6,4.4,10,5.5
					c0.2,0,0.3,0.1,0.5,0.1c0,0.1,0,0.2,0,0.3c-1.5,1.6-2.2,3.6-1.9,5.7c0,0.4,0.1,1,0.3,1.8c-1,1-2.1,2.1-3.4,3.7
					c0,0-0.1,0.1-0.1,0.1c-0.2,0.3-0.4,0.6-0.6,0.8l-0.1,0.1l0,0.1c0,0,0,0,0,0.1c-1.4,1.8-2.8,3.8-4.2,6c-2.6,3.8-4.8,7.4-6.5,10.7
					c-2.5,4.6-5.9,11.5-7.5,17.8c0,0,0,0.1,0,0.1l0,0.1c-0.6,2.5-0.9,4.8-1.2,6.8c-0.3,2.3-0.6,4.6-1.3,5.1
					c-0.2,0.1-0.8,0.3-1.2,0.5c-0.7,0.2-1.4,0.5-2.2,0.9c-2.4,1.2-4,3.6-4.1,6.3c-0.2,3.1,1.5,6.1,4.1,7.8c2,1.3,4.1,1.6,5.7,1.9
					c0.4,0.1,0.8,0.1,1.2,0.2c3,0.7,6.1,2.6,9.4,4.6c5.5,3.4,11.8,7.2,20.4,7.5c0,0,0.1,0,0.1,0c0,0,0.1,0,0.1,0l0.1,0
					c0.2,0,0.5,0,0.9,0c4,0,9.8-1.1,17.4-3.3c0.4-0.1,0.7-0.2,0.9-0.3c7.8-2.2,18.7-6.1,27.3-12c4.6-2.4,7.5-3.6,9.7-4.6
					c3.1-1.3,5-2.2,6.8-4.3c2.2-2.6,3.6-7.1,1.7-10.5c-0.9-1.7-2.4-2.6-3.2-3.1c-0.1-0.1-0.3-0.2-0.4-0.2c-0.2-0.5-0.3-1.6-0.3-3.2
					c0-0.3,0-0.7,0-1c0-2.3,0-5.2-0.5-8.3c0,0,0-0.1,0-0.1c-0.5-3.3-1.3-6.4-2.5-9.5c-0.8-2.9-1.9-5.7-3.3-8.2c0,0-0.1-0.1-0.1-0.1
					c-3.7-7-10-13.4-17-17.2c-0.2-4-2.9-7.7-6.1-9.4c-0.3-0.2-0.6-0.4-0.9-0.5c-0.4-0.4-0.8-0.8-1.2-1.2c0.3-1.5,0.5-3,0.6-4.4
					c0-0.1,0-0.2,0-0.4c0-0.1,0-0.2,0-0.3c0.1-3.1-0.2-5.6-1-7.6c-0.1-0.3-0.2-0.5-0.4-0.8c-0.7-1.3-1.7-2.2-2.3-2.7
					c0,0-0.1-0.1-0.1-0.1l0,0c-0.5-0.4-0.9-0.8-1.4-1.1c-0.1-0.1-0.2-0.1-0.3-0.2l-0.1,0c-1-0.7-2.1-1.3-3.2-1.8
					c-0.4-5.4-1.9-7.7-2.6-8.6c0,0,0,0,0,0c-0.1-0.1-0.1-0.2-0.2-0.3c0,0-0.1-0.1-0.1-0.1c0,0-0.1-0.1-0.1-0.1l0,0
					c-0.1-0.1-0.3-0.3-0.4-0.4c0,0-0.1-0.1-0.1-0.1c-0.1-0.1-0.2-0.2-0.3-0.3c-0.6-0.5-1.2-0.9-1.8-1.3c-0.1-0.1-0.3-0.1-0.4-0.2
					c0,0-0.1,0-0.1,0l0,0l0,0c-0.1-0.1-0.3-0.1-0.4-0.2c0,0,0,0-0.1,0C158.5,283.3,156.3,282.9,154.1,282.9L154.1,282.9z"/>
			</g>
			<g>
				<g>
					<g>
						<g>
							<g>
								<g>
									<g>
										<g>
											<path class="st20" d="M198.3,374.7c-8.9,14.8-30.4,30.1-43.9,29.8c-16.3-0.3-37.7-25.8-32.6-39.3
												c2.1-9.1,9.9-20.6,15.4-27.9c3.4-4.2,5.8-5.1,6.7-8.3l14.5-3.6c6.9,0.1,16.4,0.9,22.5,4.2c6.2,3.3,12.4,9.3,15.9,16
												C202.3,356,202,367.6,198.3,374.7z"/>
										</g>
										<g>
											<path class="st11" d="M179.1,328.8c-0.8,5.3-11.4,10.2-17.1,11c-5.4,0.7-8.9,0-14.9-2.6c-3.1-1.3-4.5-3.2-5.2-4.8
												c1.1-1.2,1.7-2.3,1.9-3.3l14.5-3.6C164.4,325.5,173.5,326.3,179.1,328.8z"/>
										</g>
										<g>
											<path class="st10" d="M205.9,385.3c-2.2,2.5-4.6,2.3-15.5,8c-7.5,5.2-17.4,9-26.6,11.6c-0.1,0-0.3,0.2-0.5,0.2
												c-13.1,3.8-16.9,3.1-17.6,3.1c-12.7-0.4-19.9-9.9-29-12c-1.9-0.4-3.9-0.5-5.6-1.6c-2.5-1.6-3.3-5.5-0.3-7
												c1.3-0.7,2.9-0.9,4.1-1.8c3.2-2.5,2.2-7.7,3.9-14.2c0-0.2,0-0.2,0-0.2c2.8-10.7,11.6-25.3,18.4-34.1
												c-3.2,8.8-4.9,20.7-2,29.1c4.9,14.2,23.2,21.3,46.1,6.7c10.2-6.6,17.7-15.6,15.5-27.5c1.3,2.5,2.3,5,3,7.6
												c4.7,11.7,1.4,20.5,4.1,23.6c0.9,1,2.4,1.3,3.1,2.6C208,381,207.2,383.8,205.9,385.3z"/>
										</g>
									</g>
								</g>
								<g>
									<g>
										<g>
											<g>
												<g>
													<g>
														<g>
															<g>
																<g>
																	<g>
																		<g>
																			<g>
																				<path class="st13" d="M141.3,328.8c0,0-0.1,4.9,5.9,7.5s9.6,3.3,14.9,2.6c4.8-0.6,12.8-3.9,16.2-8.9
																					c2.4-3.5,0-8-3.1-9.5L141.3,328.8z"/>
																			</g>
																			<g>
																				<path class="st8" d="M143.5,325.2c0,0,8.4,6.6,18.1,4.7c9.7-1.9,10.6-5.6,10.6-5.6l-1.3-1.8l1.3-2.5l2.3,0.2
																					c0,0,3.6,1.4,2.4,5.6c-1.2,4.2-9.3,9.8-15.2,10.5c-8.8,1.2-19.7-3.7-20.5-7.5
																					C140.8,326.4,143.5,325.2,143.5,325.2z"/>
																			</g>
																		</g>
																	</g>
																</g>
															</g>
														</g>
													</g>
												</g>
											</g>
										</g>
									</g>
								</g>
								<g>
									<g>
										<g>
											<g>
												<g>
													<g>
														<g>
															<g>
																<g>
																	<g>
																		<g>
																			<g>
																				<path class="st13" d="M143.2,324.3c0,0-0.1,4.1,4.9,6.2s7.9,2.7,12.3,2.1c3.9-0.5,10.6-3.2,13.4-7.3
																					c2-2.9,0-6.6-2.6-7.8L143.2,324.3z"/>
																			</g>
																			<g>
																				<path class="st8" d="M145,321.4c0,0,6.9,5.4,15,3.9c8.1-1.6,8.7-4.6,8.7-4.6l-1.1-1.5l1.1-2.1l1.9,0.2
																					c0,0,3,1.2,2,4.6s-7.7,8.1-12.5,8.7c-7.3,1-16.3-3.1-16.9-6.2C142.8,322.3,145,321.4,145,321.4z"/>
																			</g>
																			<g>
																				<path class="st14" d="M148.1,322.7c0,0,0,1.3,2.6,2.3s5.9,2,12,0.3c5.1-1.4,6.6-3.6,5.8-4.9
																					C167.7,319.1,148.1,322.7,148.1,322.7z"/>
																			</g>
																		</g>
																	</g>
																</g>
															</g>
														</g>
													</g>
												</g>
											</g>
										</g>
									</g>
								</g>
							</g>
							<g>
								<g>
									<path class="st20" d="M163,300.8c-0.4,8.2-15.5,0.6-15.5,0.6l1.9-3.7l7.5-5.7l4.5-2.1C161.3,289.9,163.4,292.3,163,300.8z"
										/>
								</g>
								<g>
									<path class="st20" d="M168.6,321.8c-3,4.8-16.3,6-19.4,2.4c0,0-5-4.1-9.6-5.2c-4.6-1.1-8.9-5.1-8.9-5.1l2.9-5.7l9.9-7.5
										c3.4,0.7,10.9,0.6,19.8,0.2c3.3-0.2,7.4,1,8,4.4C172.7,310.7,170.5,318.7,168.6,321.8z"/>
								</g>
								<g>
									<g>
										<path class="st10" d="M168.6,321.8c-1.3,2.1-4.5,3.5-7.9,4.1c1.6-9.3,1.3-23.5,1.3-23.5l1.3-1.5c2.2,0.3,6.9,1.1,7.6,3.2
											C172.8,308.3,171.1,317.7,168.6,321.8z"/>
									</g>
									<g>
										<path class="st10" d="M154,326.2c-0.4-0.1-1.5-0.2-2.5-0.6c-2.1-2.9-5-7.1-7.3-8.3c-3.9-2.2-6.5-5-6.5-5s5.2-3.2,5-5.7
											c-0.2-2.6,1.9-5.1,1.9-5.1c0.5,2.1,1.9,7.6,1.8,7.2l1.4,3.2l0,0C148.3,312.9,154.4,327.1,154,326.2z"/>
									</g>
									<g>
										<path class="st10" d="M155.3,326.3c-0.2,0-0.8,0-1-0.1c-0.2-0.4-6.9-15.2-6.5-14.3l0,0c-0.1-0.4-3.2-8.5-3-8
											c0.2-0.4,1.3-2.6,1.1-2.3c0.2,0.4,0.5,0.8,0.6,1.6c0.1,0.4,0.1,0.9,0,1.4c-0.3,1.6,2.6,1,3.3,0.5c0.7-0.5,2.1-0.8,2.1-0.8
											s-2.8,2.7-1.4,6.8C151.8,314.6,153.3,321.6,155.3,326.3z"/>
									</g>
									<g>
										<path class="st12" d="M154.7,326.3c-0.8,0-1.4-0.1-1.8-0.2c-1.6-4.6-4.6-12.5-6.3-15.3c-2.1-3.6-3.1-6.7-2-8.4
											c0.1-0.1,0.2-0.2,0.2-0.3c0.8-1.3,0.8-0.6,0.8-0.6l0.3,0.4l0.4,0.5l0.4,0.5l-0.2,0.4l-0.6,1c0,0,0,2.3,2,5.3
											C149.5,312.2,153,321.3,154.7,326.3z"/>
									</g>
								</g>
								<g>
									<g>
										<path class="st11" d="M170.5,306.5c-0.4,0.5-1.4,0.8-2.4,0.5c-0.7-0.3-1.3-0.8-1.8-1.2c-4.8-3.7-11.3-3.9-15.6-0.6
											c-0.8,0.6-1.4,1.1-2.2,1.2c-0.6,0.1-1.3-0.1-1.8-0.5c-1.7-1.5,0.1-3.2-0.8-3.8c-0.9-0.6-1.6,0.5-1.9,1.6
											c-0.3,1.1-0.3,1.9-0.6,2.9c-0.6,2.2-4,5.5-6,6.8c-2.3,1.5-4.8,2.6-6.8,0.6c-2.3-2.3-1.9-8,3.3-11.3
											c3.6-2.3,7.3-2.3,12.5-5.1c0.4-0.2,0.9-0.5,1.2-0.8c0.2-0.2,0.2-0.7,0-0.9c-0.2-0.3-0.7-0.3-1.2-0.2
											c-0.8,0.3-2.7,1.8-3.9,0.3c-0.8-0.9-0.9-2.4,0.5-4c3.5-4,8.9-5.7,14.1-4.5c5.6,1.3,6.2,6.4,3.1,8.8
											c-2.2,1.7-8.8,2.4-9.8,3.3c-0.8,0.7-0.2,1.6,0.7,1.5c1.2-0.2,3.2-2.6,8.1-2.7c3.1-0.1,7,1.1,10,3.7
											C169.9,302.6,171.3,305.6,170.5,306.5z"/>
									</g>
								</g>
								<g>
									<path class="st10" d="M159.1,296.9l-0.7-7.7l0.4-1.3C163.1,289.8,163.4,295,159.1,296.9z"/>
								</g>
								<g>
									<path class="st10" d="M137.4,313.3c-2.3,1.5-4.8,2.6-6.8,0.6c-1.3-1.3-1.5-3.4-1.2-5c0-0.1,0-0.3,0.1-0.4l0.7-0.3
										C130.2,308.3,133.7,311.4,137.4,313.3z"/>
								</g>
								<g>
									<path class="st10" d="M147.7,295.9c0.1,0.3,0.1,0.6-0.1,0.8c-0.5,0.6-2.8,1.7-3.6,2c0.1,0.4,0.9,3.7,0.8,3.3
										c0.6-0.4,1.3,0,1.3,0.4c0.1,0.4-0.3,1.2-0.2,2.1c0.2,1.2,1.4,2,2.5,1.9c1.1-0.2,1.8-1,3.3-1.9c-1-1-1.9-2.1-2.6-3.2
										l0.9-0.3c-0.3-0.4-0.2-1,0.5-1.4c-0.2-0.4-2-4.4-1.9-4L147.7,295.9z"/>
								</g>
								<g>
									<path class="st11" d="M149.4,305.9l-1.3,0.5c-1.1,0-2.1-0.8-2.2-1.9c-0.2-1.2,0.6-2-0.1-2.5c0,0-0.1,0-0.1-0.1l0.6-1.1
										C147.8,302.1,149.2,305.5,149.4,305.9z"/>
								</g>
								<g>
									<g>
										<path class="st21" d="M169.3,302.1c-4.9-4.2-11.7-4.9-16.6-1.8c-0.5,0.3-1,0.7-1.4,0.8c-0.6,0.2-1.1-0.2-1.2-0.5
											c-0.1-0.4,0.2-0.9,0.5-1c1.2-0.8,7.4-1.5,9.7-3.2c2.5-1.9,2.6-5.5,0-7.5c-3.4-2.7-11.9-2.8-17.1,3.1
											c-1.4,1.6-1.3,3.1-0.5,4c1.3,1.6,3.1,0.1,3.9-0.3c0.4-0.1,1-0.1,1.2,0.2c0.1,0.2,0.1,0.7,0,0.9c-0.6,0.6-2.9,1.7-3.9,2.1
											c-3.3,1.3-6.8,1.9-9.8,3.8c-5.2,3.3-5.6,9.1-3.3,11.3c3,2.8,7.4-0.8,10.3-3.8c2.9-3,2.5-4.6,3-6.6
											c0.3-1.1,0.8-2.1,1.9-1.6c0.7,0.5-0.1,1.3,0.1,2.5c0.1,1,1.1,2,2.5,1.9c1.4-0.2,2-1.4,4.2-2.4c4.2-2,9.5-1.4,13.7,1.8
											c0.6,0.4,1.1,0.9,1.8,1.2c2.2,0.8,3.5-1.3,2.7-3.1C170.5,303.1,169.9,302.6,169.3,302.1z M169.6,304.4L169.6,304.4
											c0.4,1-0.2,1.7-1.1,1.3c-0.4-0.1-0.7-0.4-1.5-1c-5.3-4.1-12.3-4.1-16.8-0.8c-1,0.8-1.5,1.1-2,1.2
											c-0.5,0.1-1.1-0.2-1.2-0.7c-0.1-0.6,0.8-2.1-0.4-3.3c0,0,0.1,0.1-0.3-0.2c-0.6-0.4-1.3-0.5-1.8-0.2l0,0
											c-1.8,0.8-1.7,3.6-2.2,5.2c-0.2,0.9-1.5,2.5-2.2,3.2c-2.3,2.4-3,2.9-5.4,4.1c-5.1,2.6-6.6-5.6-0.3-9.6
											c3.2-2.1,8.8-3,9.8-3.7c1-0.4,3.4-1.6,4.1-2.3c0.5-0.5,0.6-1.5,0.3-2.3c0,0,0,0,0,0c-0.4-1.1-1.6-1.4-2.6-1
											c-0.6,0.2-1,0.6-1.6,0.8c-1.2,0.4-2-0.6-0.5-2.4c4.7-5.3,12.6-5.4,15.6-3c1.9,1.5,1.7,3.9,0,5.2c-1.1,0.9-2,1-8.2,2.6
											c-4,1-2.5,4.9,0,4.6c0.8-0.1,1.4-0.6,2-0.9c4.5-2.8,10.7-2.2,15.2,1.7C169,303.5,169.4,303.9,169.6,304.4z"/>
									</g>
								</g>
							</g>
						</g>
						<g>
							<g>
								<g>
									<path class="st12" d="M135.6,384.9c0.4,2.6-2.2,3.3-2.6,0.7C132.5,383.1,135.2,382.3,135.6,384.9z"/>
								</g>
								<g>
									<path class="st12" d="M138.5,391.4c0.5,2.3-1.9,3-2.4,0.8C135.7,389.9,138.1,389.1,138.5,391.4z"/>
								</g>
								<g>
									<g>
										<path class="st8" d="M136.9,392.7c-2.4-2.2-3-3.5-3.4-7.3c-0.2-1.5,1.5-1.8,1.7-0.3c0.4,3.2,0.7,3.9,2.7,5.7
											C138.7,391.7,137.8,393.6,136.9,392.7z"/>
									</g>
								</g>
							</g>
							<g>
								<g>
									<path class="st12" d="M134.4,374.2c-1.5-1.1-0.1-4.6,1.4-3.4C136.5,371.2,135.9,375.3,134.4,374.2z"/>
								</g>
								<g>
									<path class="st12" d="M133.7,381.7c-1.5-1-0.3-4.2,1.1-3.2C136.3,379.4,135.2,382.6,133.7,381.7z"/>
								</g>
								<g>
									<g>
										<path class="st8" d="M133.4,380.3c-0.7-3.7-0.5-5.2,1-8.5c0.6-1.3,2-0.1,1.4,1.2c-1.3,2.7-1.4,3.6-0.8,6.7
											C135.3,381.2,133.7,381.8,133.4,380.3z"/>
									</g>
								</g>
							</g>
							<g>
								<g>
									<path class="st12" d="M142.2,368.1c0.6-2.2,3.2-1.2,2.6,1.1C144.2,371.4,141.6,370.3,142.2,368.1z"/>
								</g>
								<g>
									<path class="st12" d="M136.8,368.4c0.5-2.1,2.9-1.1,2.4,1C139,370.3,136.3,370.6,136.8,368.4z"/>
								</g>
								<g>
									<g>
										<path class="st8" d="M137.7,367.9c2.6-1.6,3.6-1.5,6.1-0.2c1,0.5,0.3,2.5-0.7,2c-2.1-1.1-2.7-1.1-4.8,0.3
											C137.3,370.6,136.7,368.5,137.7,367.9z"/>
									</g>
								</g>
							</g>
							<g>
								<g>
									<path class="st12" d="M150.6,374.2c-1.1-1.8,1-3.8,2.1-2C153.8,374,151.7,376,150.6,374.2z"/>
								</g>
								<g>
									<path class="st12" d="M146.5,368c1.3-1.2,2.8,1.4,1.4,2.6C146.6,371.9,145.1,369.2,146.5,368z"/>
								</g>
								<g>
									<g>
										<path class="st8" d="M147.4,368.3c2.7,0.8,3.5,1.5,4.9,4.4c0.6,1.2-0.8,2.2-1.4,1.1c-1.3-2.4-1.7-2.8-3.9-3.4
											C145.9,370,146.4,367.9,147.4,368.3z"/>
									</g>
								</g>
							</g>
							<g>
								<g>
									<path class="st12" d="M154.3,381.9c1.7,0.6,1,3.8-0.7,3.2C152.8,384.9,152.6,381.3,154.3,381.9z"/>
								</g>
								<g>
									<path class="st12" d="M154.1,375.4c1.5,0.7,0.7,3.6-0.8,2.9C152.6,378.1,152.6,374.8,154.1,375.4z"/>
								</g>
								<g>
									<g>
										<path class="st8" d="M154.5,376.6c1,3.1,1.1,4.3,0.2,7.3c-0.4,1.2-2,0.5-1.6-0.7c0.8-2.6,0.8-3.3-0.1-5.9
											C152.6,376.1,154.1,375.3,154.5,376.6z"/>
									</g>
								</g>
							</g>
							<g>
								<g>
									<path class="st12" d="M149.6,391.8c1.5-1.3,3.2,1.3,1.7,2.7C149.9,395.8,148.1,393.1,149.6,391.8z"/>
								</g>
								<g>
									<path class="st12" d="M154.6,386.8c1,1.6-1.1,3.4-2.1,1.7C151.5,386.9,153.6,385.1,154.6,386.8z"/>
								</g>
								<g>
									<g>
										<path class="st8" d="M154.4,387.9c-0.6,3.2-1.1,4.2-3.4,6.1c-0.9,0.7-1.9-1.1-1-1.8c2-1.5,2.2-2.1,2.8-4.8
											C153,386.1,154.6,386.7,154.4,387.9z"/>
									</g>
								</g>
							</g>
							<g>
								<g>
									<path class="st12" d="M142.3,394.5c-0.7,2.1-3.4,0.4-2.6-1.7C140.4,390.7,143,392.4,142.3,394.5z"/>
								</g>
								<g>
									<path class="st12" d="M147.9,395.3c-0.6,1.9-3.1,0.4-2.4-1.5C146.1,392,148.5,393.5,147.9,395.3z"/>
								</g>
								<g>
									<g>
										<path class="st8" d="M146.9,395.7c-2.7,0.9-3.7,0.8-6.3-1.1c-1-0.8-0.2-2.7,0.8-1.9c2.1,1.6,2.7,1.7,4.9,0.9
											C147.4,393.3,147.9,395.3,146.9,395.7z"/>
									</g>
								</g>
							</g>
							<g>
								<g>
									<path class="st12" d="M130.5,360c-0.8,0.2-1.5-0.5-1.5-1.7c-0.1-1.2,0.5-2.3,1.3-2.5C132.1,355.3,132.3,359.4,130.5,360z"
										/>
								</g>
								<g>
									<path class="st12" d="M133.6,368.1c-0.7,0.3-1.4-0.4-1.6-1.5c-0.1-1.1,0.4-2.2,1.1-2.4
										C134.9,363.6,135.3,367.5,133.6,368.1z"/>
								</g>
								<g>
									<g>
										<path class="st8" d="M131.3,357.4c0.9,3.5,1.5,5,2.8,8.1c0.6,1.4-1,2.8-1.5,1.4c-1.4-3.3-2.1-4.9-3.1-8.5
											C129.2,356.8,130.9,355.8,131.3,357.4z"/>
									</g>
								</g>
							</g>
							<g>
								<g>
									<path class="st12" d="M158.6,387.3c1.8,1.1,0.5,3.9-1.3,2.9C155.5,389,156.8,386.1,158.6,387.3z"/>
								</g>
								<g>
									<path class="st12" d="M165.4,388.6c1.8,1,0.5,3.6-1.2,2.6C162.4,390.3,163.6,387.6,165.4,388.6z"/>
								</g>
								<g>
									<g>
										<path class="st8" d="M158.2,387.7c6.1,1.7,7.4,0.7,7.6,2.2c0.1,0.6-0.4,1.1-1,1.1c-2.9-0.3-4.3-0.5-7.1-1.2
											C156.5,389.3,157,387.2,158.2,387.7z"/>
									</g>
								</g>
							</g>
							<g>
								<g>
									<g>
										<path class="st12" d="M141.1,376.3c-1.8,0.1-1.8-3.7,0-3.7C142.8,372.6,142.8,376.2,141.1,376.3z"/>
									</g>
									<g>
										<path class="st12" d="M147.5,389.4c-1.7,0.3-2.1-3.2-0.4-3.4C148.8,385.8,149.2,389.1,147.5,389.4z"/>
									</g>
								</g>
								<g>
									<g>
										<path class="st8" d="M146.6,388.4c-2.5-3.2-4.9-7.9-6.4-13.5c-0.4-1.4,1.2-2.2,1.6-0.8c1.3,4.9,3.4,9.3,6.1,12.9
											C148.2,387.4,147.4,389.5,146.6,388.4z"/>
									</g>
								</g>
								<g>
									<path class="st14" d="M145.4,382.9c-0.5,0.4-0.9,0.9-1.4,1.3c-0.6-1-1.1-2.1-1.6-3.2c0.5-0.4,1-0.8,1.4-1.2
										C144.2,380.9,144.8,381.9,145.4,382.9z"/>
								</g>
							</g>
							<g>
								<g>
									<g>
										<path class="st12" d="M148.1,378.6c1.5,1.1,2.9-1.9,1.4-3C148,374.4,146.6,377.5,148.1,378.6z"/>
									</g>
									<g>
										<path class="st12" d="M138.5,387.3c1.5,1.1,2.8-2.1,1.2-3.2C139,383.6,136.9,386.2,138.5,387.3z"/>
									</g>
								</g>
								<g>
									<g>
										<path class="st8" d="M139.5,386.7c3.5-2.4,6.8-5.4,9.9-8.8c0.4-0.4,0.4-1.1,0.1-1.5c-1.2-1.7-2.3,2.6-10.8,8.2
											C137.6,385.3,138.5,387.4,139.5,386.7z"/>
									</g>
								</g>
							</g>
						</g>
					</g>
					<g>
						<g class="st17">
							<path class="st18" d="M190.3,348.7c2.4,4.6,4,11,6.3,9.6c4.4-2.6-5.5-21.7-10.1-19C184.2,340.8,187.9,344.1,190.3,348.7z"/>
						</g>
						<g class="st17">
							<path class="st18" d="M182.4,338.5c1.5,0.6,3,0.3,3.3-0.9c0.3-1.1-0.6-2.5-2.1-3.2c-1.5-0.6-3-0.3-3.3,0.8
								C180,336.4,180.9,337.8,182.4,338.5z"/>
						</g>
					</g>
					<g>
						<path class="st18" d="M172.4,362.6c0.1-0.4-0.3-0.6-0.6-0.4c-1.5,0.8-2.9,1.4-3,1.3c0.1-0.2,1.3-0.9,2.8-1.8
							c0.3-0.2,0.3-0.7,0-0.8c-3.3-1.1-6.3-2.1-6.2-2.3c0.2-0.2,3.2,0.5,6.5,1.3c0.3,0.1,0.6-0.3,0.5-0.6c-0.6-1.6-1.2-2.8-1.1-3
							c0.2,0,0.9,1.2,1.7,2.7c0.1,0.3,0.6,0.3,0.7-0.1c1.3-3.4,2.5-6.5,2.7-6.4c0.2,0.2-0.7,3.3-1.8,6.7c-0.1,0.4,0.3,0.6,0.6,0.5
							c1.4-0.8,2.7-1.3,2.9-1.3c-0.2,0.2-1.4,0.9-2.7,1.8c-0.3,0.2-0.3,0.6,0,0.7c3.2,1.1,6.3,2.1,6.1,2.4c-0.2,0.1-3.2-0.5-6.5-1.3
							c-0.3-0.1-0.7,0.3-0.5,0.6c0.7,1.6,1.2,2.8,1.1,3c-0.2,0-0.9-1.2-1.7-2.7c-0.1-0.3-0.6-0.3-0.7,0.1c-1.3,3.4-2.5,6.5-2.7,6.4
							C170.5,369.1,171.3,365.9,172.4,362.6z"/>
					</g>
				</g>
				<g>
					<path class="st11" d="M205.9,385.3c-2.2,2.5-4.6,2.3-15.5,8c-7.5,5.2-17.4,9-26.6,11.6c-0.1,0-0.3,0.2-0.5,0.2
						c-13.1,3.8-16.9,3.1-17.6,3.1c-12.7-0.4-19.9-9.9-29-12c-1.9-0.4-3.9-0.5-5.6-1.6c-2.5-1.6-3.3-5.5-0.3-7
						c7,1.6,13.7,5.6,20.5,8.5c26.5,11.1,52.2,1,61.2-18.3c2.6-5.5,4-12.3,9.7-15.6c1.1,6.8-0.4,12.2,1.8,14.7
						c0.9,1,2.4,1.3,3.1,2.6C208,381,207.2,383.8,205.9,385.3z"/>
				</g>
			</g>
		</g>
	</g>
</g>
</svg>
