<?xml version="1.0" encoding="utf-8"?>
<!-- Generator: Adobe Illustrator 25.0.0, SVG Export Plug-In . SVG Version: 6.00 Build 0)  -->
<svg version="1.1" id="Layer_1" xmlns="http://www.w3.org/2000/svg" xmlns:xlink="http://www.w3.org/1999/xlink" x="0px" y="0px"
	 viewBox="0 0 412 430" style="enable-background:new 0 0 412 430;" xml:space="preserve">
<style type="text/css">
	.st0{fill:#FFCACF;}
	.st1{fill:#E5838B;}
	.st2{fill:#A02A39;}
	.st3{fill:#FFFFFF;}
	.st4{fill:#76769B;}
	.st5{fill:#BFCEE8;}
	.st6{fill:#E54C5B;}
	.st7{fill:#505072;}
	.st8{fill:#FFB664;}
	.st9{fill:#E87B40;}
	.st10{fill:#E8808F;}
	.st11{fill:#35414D;}
	.st12{fill:#9EA9C9;}
	.st13{fill:#B0B8CF;}
	.st14{fill:#E3E7F0;}
	.st15{fill:#C9CEE2;}
	.st16{fill:#4C5C75;}
	.st17{fill:#1D2943;}
	.st18{opacity:0.2;}
	.st19{fill:#111D33;}
	.st20{fill:#DD8536;}
	.st21{fill:#F3A250;}
	.st22{fill:#FFD475;}
	.st23{fill:#FFB961;}
	.st24{fill:#31445B;}
	.st25{fill:#8A4852;}
	.st26{fill:#51383C;}
	.st27{fill:#BF7D5A;}
	.st28{fill:#AA6256;}
	.st29{fill:#DBA660;}
	.st30{fill:#FFDE9B;}
	.st31{fill:#36712D;}
	.st32{fill:#6EB954;}
</style>
<g>
	<g>
		<path class="st0" d="M68.6,334.8c2.7,42.1,32.5,38.5,32.5,38.5l7.2-2l3.9-59c-11.8-9.4-30.3-1.7-30.3-1.7L68.6,334.8z"/>
		<path class="st1" d="M109.4,354.5c-29.8,0.2-34.6-30.9-34.6-30.9l-6.1,11.1c2.7,42.1,32.5,38.5,32.5,38.5l7.2-2L109.4,354.5
			L109.4,354.5z"/>
		<path class="st2" d="M136.6,97.1c-2.9,5-8.9,13.2-8.9,13.2l-24,23.1c-9.3-3.1-13.5-13.1-15.3-19.1c-0.1-0.2-0.1-0.4-0.1-0.6
			c-0.3-2.3,1.3-4.4,3.6-4.7C107.2,106.8,122.2,102.8,136.6,97.1L136.6,97.1z"/>
		<path class="st2" d="M141.5,93.6L123,116.3l-14.4-10.4c23.5-6.5,24.2-24.9,24.2-24.9L141.5,93.6z"/>
		<path class="st0" d="M300,127.4l-9.8,30.8l-4.1,15.3l40,10.7l5.7-33.4l1.5-19.3L300,127.4z"/>
		<path class="st3" d="M117.7,273.6c6-58.8-14.1-90.7-14-90.7c-54.8,37.9-83.4,74.5-95.4,92.6c-4.5,6.7-3.8,15.6,1.5,21.7
			c11.3,12.7,30.7,33.7,39,37.5c12.1,5.6,19.8,0,19.8,0l13.3-24.2l-17.7-24.7c24.9-23.5,47.8-17.1,47.8-17.1L117.7,273.6
			L117.7,273.6z"/>
		<path class="st4" d="M105.8,366.4C91.4,380.8,91.4,430,91.4,430h145.9c0,0-2.4-25.6-5.1-45.3c-2.7-19.7-10.3-24-10.3-24
			L105.8,366.4z"/>
		<path class="st5" d="M64.2,285.9c24.9-23.5,47.9-15,47.9-15l5.6,2.7c1.4-8.8,1.8-17.6,1.3-26.5c-0.6-10.7-15.1-13.7-19.9-4.1
			c-3,5.9-6.7,10.4-11,12.1c-8.2,3-15.7,7.5-22.2,13.4c-3,2.5-5.7,5.5-7.9,8.8L64.2,285.9z"/>
		<path class="st6" d="M111.2,316.1c-3.2,16.6-5.1,33.4-5.4,50.3c68.4,6.6,116-5.6,116-5.6l-1.5-39L111.2,316.1z"/>
		<path class="st3" d="M234.7,182.9c-6.9,27-7.8,78.1-7.8,78.1l42.6,16.1c10.4,3.9,22.1-0.6,27.1-10.6c7.4-14.7,17-34.4,22.8-46.5
			c2.8-6,6.9-11.2,11.9-15.5c3.5-2.7,6.1-6.2,7.8-10.3c0.1-0.4,0.3-0.8,0.3-1.2c1.2-5.5-2.2-10.9-7.7-12.2l-44.8-10.4
			c-2.6-0.7-5.4-0.4-7.8,0.6c-9.5,4.3-5.7,16.6-5.7,16.6L262,213.4L234.7,182.9L234.7,182.9z"/>
		<path class="st5" d="M241.5,242.9c-1.5-1.4-3.4-2.3-5.5-2.4c-4.6-0.2-8.5,3.4-8.7,8c-0.3,7.5-0.4,12.4-0.4,12.4l42.6,16.1
			c10.4,3.9,22.1-0.6,27.1-10.6c7.4-14.7,17-34.4,22.9-46.6c2.9-6,7-11.3,12.1-15.6c3.4-2.7,6-6.2,7.6-10.2l-0.2-0.1
			c-3.5,4.2-9.3,5.4-14.6,5.3c-7.5,0-14.2,4.6-17,11.5l-3.3,7.8c-4.5,11.8-10.6,22.9-18.3,32.9c-5.3,7.1-14.9,9.6-23,6
			C254.8,254,247.6,249,241.5,242.9L241.5,242.9z"/>
		<path class="st3" d="M234.7,182.9c-15.7-5-47.6-14.2-47.6-14.2l-28.6-6.7c-7.8,3.9-54.9,20.9-54.9,20.9c7.7,34,8.6,81.7,8.6,101.8
			c-0.1,4.9-1.1,9.8-3,14.3c-3.4,8.7,2,17.1,2,17.1c36.3,14.1,109,5.7,109,5.7c9.8-6.6,8.7-15.1,6.4-20.5c-1.7-4.1-2.1-8.7-1.1-13
			C234.6,248.2,234.7,182.9,234.7,182.9L234.7,182.9z"/>
		<path class="st0" d="M192.9,155.8c-18.3-33.5-36.9-28.3-36.9-28.3V182c0,5.4,1,10.7,2.9,15.8c8.4,22.2,21.6,34.5,21.6,34.5
			C198,200.6,192.9,155.8,192.9,155.8L192.9,155.8z"/>
		<path class="st1" d="M160,127.3c-1.3-0.1-2.7,0-4,0.2v29.4c7.3,16.5,23.5,23.7,37.3,25.2c0.6-8.8,0.4-17.5-0.4-26.3
			c-5.7-10.5-11.5-17.1-16.7-21.4c-3.3-2.8-7.1-4.9-11.1-6.2c-1.1-0.3-2.2-0.6-3.3-0.8C161.1,127.4,160.5,127.3,160,127.3L160,127.3
			z"/>
		<path class="st6" d="M152.3,106.9c0,0-14.3,6.5-24.2,25c-3.5,6.9-8.3,13-14.2,18.1c-7,5.8-16.5,7.4-25,4.1
			c-5.5-2.1-10.4-5.4-14.5-9.7c-0.3-0.3-0.4-0.6-0.5-1c-0.2-1.1,0.5-2.1,1.6-2.4c13.2-2.7,31.8-14.3,42.8-29.7
			c12-16.7,27.1-20.7,27.1-20.7L152.3,106.9z"/>
		<path class="st4" d="M242.8,48.7C208.4,69.3,138.5,66,138.5,66l-5.2-7.8c-9.8-5.8-13.3-11.5-13.3-11.5c6.8-6.1,19.9-8.8,19.9-8.8
			l-6.6-13.3c6.5-2.5,16.5-5.3,16.5-5.3c8-0.9,16-0.6,23.9,0.8V4.8c27.1,0.7,43.1,21.4,43.1,21.4L220,15
			C238.2,23.1,242.8,48.7,242.8,48.7L242.8,48.7z"/>
		<path class="st7" d="M224.1,56.8c-15,0.8-59.3-0.3-74.2-37.6c-6.4,0.6-12.7,2.1-18.8,4.4l7.4,13.8c0,0-13.5,2.9-20.2,9
			c3.7,5.4,8.9,9.5,15.1,11.8l5.2,7.8C138.5,66,187.9,68.3,224.1,56.8L224.1,56.8z"/>
		<path class="st6" d="M155.5,113.3l-11.8-5.2c-14.2-12.8-10.5-49.9-10.5-49.9c48.6,3.5,109.5-9.5,109.5-9.5
			c5.3,14.7,8,30.2,7.9,45.8L155.5,113.3z"/>
		<path class="st2" d="M155.5,113.3l95.2-18.8c0.1-5.7-0.2-11.3-1-16.9c-29.9-7.8-65-0.7-81.3,3.5c-6.1,1.6-12.6-1.1-15.7-6.6
			c-2.8-4.9-4.9-10.2-6.3-15.7c-4.4-0.1-8.8-0.2-13.1-0.6c0,0-5,37.9,10.5,49.9L155.5,113.3z"/>
		<path class="st0" d="M250.7,94.4c0,13.2,0,32.8-12,49.1c-10.8,14.6-28.9,18.5-39.8,18.5c-32.4,0-39.4-31.1-39.4-31.1
			c-18.3-1.1-21.4-11.7-21-20c0-0.5,0.1-0.9,0.2-1.4c1-5.9,6.7-9.9,12.6-8.9c6,1,8,4.3,8,4.3C194.6,77.6,250.7,94.4,250.7,94.4
			L250.7,94.4z"/>
		<path class="st1" d="M290.2,158.2l41.6-7.5l3.2-19.1l-36.5-4.3L290.2,158.2z"/>
		<ellipse class="st8" cx="244.6" cy="114.6" rx="20.9" ry="28.7"/>
		<path class="st1" d="M159.4,105.3c1.9,2.2,6.6,3.6,9.1,2.3c26-13.1,41.7-6,41.7-6c-5.3,29.9,18.5,41.7,29.2,40.9
			c11.3-16.1,11.3-35.1,11.3-48c0,0-58.1-20-91.5,10.6L159.4,105.3L159.4,105.3z"/>
		<path class="st8" d="M223.7,114.6c0-15.9,9.4-28.7,20.9-28.7c11.5,0,20.9,12.9,20.9,28.7s-10.2,27.5-21.7,26
			C228.2,138.5,223.7,114.6,223.7,114.6L223.7,114.6z"/>
		<path class="st9" d="M256.3,114.4l-13.5,1.2c0,0-2.1,6.1-9.5,4.7c-4.9-0.9-8-3.1-9.6-6c0,0.1,0,0.2,0,0.3
			c0,15.9,9.4,28.7,20.9,28.7c10.9,0,19.9-11.5,20.8-26.2L256.3,114.4z"/>
		<path class="st10" d="M197.8,118l-4.7-1.5c-2.5-0.8-3.9-3.5-3.1-6c0.8-2.6,3.5-4,6-3.2l4.7,1.5c2,0.6,3.4,2.5,3.4,4.6
			c0,2.7-2.2,4.8-4.8,4.8C198.8,118.3,198.3,118.2,197.8,118z"/>
		<path class="st5" d="M164.1,250.1c0-2.3,1.9-4.1,4.1-4.1h2.5c2.3,0,4.1,1.9,4.1,4.1c0,2.3-1.9,4.1-4.1,4.1h-2.5
			C166,254.3,164.1,252.4,164.1,250.1z"/>
		<path class="st5" d="M164.2,268.1c0-2.3,1.8-4.2,4.1-4.2h2.5c2.2,0,4,1.8,4.1,4.1c0,2.3-1.8,4.2-4.1,4.2h-2.5
			C166,272.1,164.2,270.3,164.2,268.1z"/>
		<path class="st4" d="M255,101.6c-5.7,0.7-10.3,4.8-11.7,10.3c-0.1,0.3-0.2,0.7-0.2,1c0,0.1-0.1,0.3-0.1,0.4
			c-1.3,7.6,3.9,14.8,11.5,16.1c33.3,5.5,99.8,10.4,99.8,10.4V89.4C354.3,89.4,305.5,94.9,255,101.6L255,101.6z"/>
		<path class="st7" d="M242.8,115.6c0,6.8,4.9,12.7,11.6,13.8c33.3,5.5,99.8,10.4,99.8,10.4v-11.9l-103.5-7.1
			C247.5,120.2,244.6,118.3,242.8,115.6L242.8,115.6z"/>
		<path class="st8" d="M349.2,96c1.5-4.9,5.5-8.6,10.4-9.7c10.7-1.9,21.5-2.7,32.3-2.5V147c-10.4-0.6-23.6-2.1-32-3.1
			c-5.1-0.6-10.7-4.9-12.2-9.7C344,121.7,346.1,106.3,349.2,96L349.2,96z"/>
		<path class="st0" d="M323.9,75.9c0,0-41.7-2.5-45.5,13.5c-2,8.3,0.9,13.3,4.3,16.2c3.1,2.6,7,3.9,11,3.7l24.7-0.9
			c9.5-0.3,17.2-7.7,18.1-17.1c0-0.2,0-0.3,0-0.5C337.5,75.3,323.9,75.9,323.9,75.9L323.9,75.9z"/>
		<path class="st9" d="M346.3,127.3c0.3,2.3,0.8,4.5,1.4,6.7c2,5.2,6.6,9,12.1,9.9c8.3,1,21.6,2.4,32.1,3.1v-21.5l-13.2-2.2
			c-0.3,2-1.6,3.6-3.4,4.4c-2.2,0.9-4.5,1.2-6.8,1.1L346.3,127.3z"/>
		<path class="st9" d="M391.9,83.7c8.2,0,14.8,14.4,14.8,31.6s-6.6,31.6-14.8,31.6c-8.2,0-13.6-14.5-13.6-31.6
			C378.3,98.2,383.8,83.7,391.9,83.7z"/>
		<path class="st3" d="M378.3,115.4c0-16,5.5-29.5,13.6-29.5c8.2,0,14.8,13.5,14.8,29.5s-6.6,29.5-14.8,29.5
			S378.3,131.4,378.3,115.4L378.3,115.4z"/>
		<path class="st3" d="M372.6,95c0-0.6-0.5-1-1-1c-3.2,0.1-6.3,0.5-9.4,1.1c-1.3,0.2-2.5,1-3.2,2c-0.7,1.1-1.2,2.2-1.6,3.4
			c-0.1,0.2-0.1,0.5-0.1,0.8c0.1,1.2,1.1,2,2.3,2l7.7-0.5c1.4-0.1,2.5-1,2.9-2.3c0.6-1.7,1.3-3.4,2.3-4.9
			C372.5,95.3,372.6,95.1,372.6,95z"/>
		<path class="st1" d="M157.4,116c0.4,0.7,0.5,1.6,0.3,2.4c-0.5,1.5-2.2,2.4-3.7,1.9l-0.1,0c-0.7-0.3-1.2-0.8-1.6-1.4
			c-0.4-0.7-0.4-1.6-0.2-2.4c0.3-1.1,0-2.2-0.8-3c-0.6-0.6-1.3-1-2.1-1.3c-0.2-0.1-0.4-0.3-0.4-0.5c0-0.3,0.2-0.6,0.5-0.6
			C153.5,110.8,156.1,113.8,157.4,116L157.4,116z"/>
		<path class="st5" d="M8.2,275.6c-4.5,6.7-3.8,15.6,1.5,21.7c11.3,12.7,30.7,33.7,39,37.5c12.1,5.6,19.8,0,19.8,0l6.1-11.1
			c-7.1,1.8-20,0.5-36.6-16c-19.9-19.8-23.9-29.1-21.3-44.1C13.3,268.1,10.5,272.2,8.2,275.6L8.2,275.6z"/>
		<g>
			<path class="st11" d="M392,151.8c12.8,0,19.6-18.8,19.6-36.5c0-17.6-6.8-36.2-19.4-36.4c0,0,0,0-0.1,0
				c-11.2-0.2-22.4,0.6-33.4,2.6c-2.7,0.5-5.2,1.7-7.3,3.4c-2.1,0.2-5.6,0.6-10.3,1.2c-0.4-3.7-2-7.3-4.6-10c-3.4-3.2-7.9-5-12.6-5
				c-8.1-0.5-45.8-1.6-50.3,17.2c-0.5,2-0.7,4-0.8,6c-2.4,0.3-4.8,0.6-7.3,0.9C260.9,86.4,253,81,244.6,81
				c-14.2,0-25.7,15.1-25.7,33.6c0,12.6,5.4,23.6,13.2,29.3c-11.8,12.6-29.5,13.3-33.2,13.3c-28,0-34.4-26.2-34.7-27.3
				c-0.5-2.1-2.3-3.6-4.4-3.8c-15.4-0.9-16.7-8.9-16.4-14.9c0.1-1.8,0.9-3.4,2.3-4.5c1.3-1.1,3.1-1.5,4.8-1.2
				c1.8,0.2,3.4,0.9,4.7,2.1c0.7,1.3,1.9,2.1,3.3,2.3c1.5,0.2,3-0.3,4.1-1.4c12.6-11.6,30.7-16.8,53.7-15.6c0.1,0,0.1,0,0.2,0
				c2.7,0.1,4.9-2,5-4.7c0.1-2.7-2-4.9-4.7-5c-23.4-1.3-43.2,4-57.4,15.3c-2.2-1.3-4.6-2.2-7.2-2.6c-3.5-0.6-7.1,0-10.3,1.7
				c-4.7-9.8-4.8-25.4-4.2-34.5c40.9,2.1,87.9-6.2,102-9c1.9,5.8,3.3,11.6,4.3,17.6c0.5,2.6,3,4.4,5.6,3.9s4.4-3,3.9-5.6
				c-1.3-7.8-3.3-15.4-6-22.8c-0.7-3.5-6.2-28.3-25.6-36.9c-0.2-0.1-0.4-0.2-0.7-0.2c-2.6-0.7-5.2,0.8-6,3.4l-0.9,3.1
				C207,10.1,193,0.5,173.8,0c0,0-0.1,0-0.1,0c-2.7,0-4.8,2.2-4.8,4.8v9.5c-13.4-1.5-26.9,0.1-39.5,4.7c-0.2,0.1-0.4,0.2-0.6,0.3
				c-2.4,1.3-3.2,4.2-2,6.6l4.5,8.4c-4.9,1.6-11.8,4.3-16.3,8.5c-1.7,1.5-2.1,4.1-0.9,6.1c3.5,5.3,8.4,9.5,14,12.3
				c-0.5,6.2-1.1,19.4,1.7,31.3c-13.9,5.3-28.3,8.9-43.1,10.5c-0.1,0-0.1,0-0.2,0c-2.6,0.4-4.5,2.9-4.1,5.5
				c0.1,0.6,1.9,12.3,9.3,20.6c-7.4,4.5-14.7,7.3-20.1,7.7c-0.8,0.1-1.6,0.3-2.3,0.8c-2.2,1.5-2.8,4.5-1.3,6.7
				c4.9,6.5,11.5,11.5,19.1,14.3c3.4,1.3,7.1,2,10.8,2c7,0,13.7-2.4,19.1-6.9c6.3-5.5,11.5-12.1,15.3-19.5c0,0,0,0,0-0.1
				c1.2-2.4,0.3-5.3-2-6.5c-2.4-1.2-5.3-0.3-6.5,2c-3.3,6.3-7.7,12-13,16.7c-5.6,4.7-13.4,5.9-20.2,3.3c-3.2-1.2-6.2-2.9-9-5.1
				c14.3-4.6,30.7-16.5,40.5-30.2c3.2-4.4,7-8.4,11.3-11.7c0.5,0.9,1,1.8,1.5,2.7c-0.7,1.7-1.2,3.6-1.3,5.5
				c-0.3,6.2,1,19.6,17.5,23.8V160c-14.6,5.9-48.8,18.3-49.2,18.4c0,0-0.1,0-0.1,0.1c-0.2,0.1-0.3,0.1-0.5,0.2
				c-0.1,0.1-0.3,0.2-0.4,0.2c0,0-0.1,0-0.1,0.1c-55.3,38.2-84.3,75.3-96.7,94c-5.7,8.6-4.9,19.9,1.9,27.6
				c20,22.5,33.6,35.5,40.6,38.7c3.9,1.9,8.2,2.9,12.5,2.9c1.7,0,3.5-0.2,5.2-0.5c1.8,13,6.6,22.8,14.2,29.2c4.4,3.6,9.6,6,15.2,7
				c-5.2,14.4-6.9,33.4-7.4,45.7c0,0.1,0,0.1,0,0.2v6.4h9.7v-6.3c0.7-17,3.5-37,9.1-48.1c0-0.1,0.1-0.2,0.1-0.3
				c0.7-1.4,1.5-2.7,2.4-3.9c13.9,1.3,26.9,1.8,38.7,1.8c38.7,0,65.7-5.3,73.9-7.2c1.8,2.1,5.3,7.5,6.9,19.3
				c2.8,21.4,4.1,44.7,4.1,44.7h9.7c0,0-0.7-20.4-4.2-46c-2.1-15.4-7.3-22.6-10.4-25.7l-0.7-18.1v0l-0.6-16.1
				c4.1-3.1,6.8-7.7,7.6-12.7c1.1-7-2-13.3-4-16.4c2.2-8.6,3.9-17.3,5-26.1l33.8,12.8c12.7,4.8,27-0.8,33.1-12.9
				c7.2-14.3,16.4-33.2,22.9-46.6c2.5-5.3,6.1-10.1,10.7-13.9c4.1-3.2,7.3-7.5,9.2-12.4c1.5-4,1.2-8.4-0.8-12.1
				c-2.1-3.9-5.7-6.6-10-7.6l-0.3-0.1l5.5-32.7c4.7,0.4,8.6,0.7,11.4,0.9c2.9,2.4,6.3,3.9,10,4.5c8.7,1,21.1,2.4,31.2,3
				c0.3,0,0.5,0,0.8,0l0.2,0C391.7,151.8,391.8,151.8,392,151.8L392,151.8L392,151.8z M93.2,111.9c7.5-1.1,14.8-2.6,22.1-4.6
				c-0.3,0.5-0.7,0.9-1.1,1.4c-4.1,5.6-9,10.6-14.5,14.8C96.7,120.2,94.5,116.2,93.2,111.9z M236.9,44.9
				c-15.3,2.9-63.2,11.1-102.5,8.4c-3.4-1.4-6.5-3.5-9.1-6.1c4.5-2.4,9.3-4.1,14.2-5.3c0.4-0.1,0.9-0.2,1.2-0.5
				c2.4-1.3,3.2-4.2,2-6.6l-4.7-8.7c11.3-3.1,23.1-3.6,34.7-1.7c0.3,0.1,0.7,0.1,1,0.1c2.7,0,4.8-2.2,4.8-4.8v-9.9
				c21.4,2.8,34.3,19,34.4,19.2c0.6,0.8,1.5,1.4,2.5,1.7c2.6,0.7,5.2-0.8,6-3.3l1.5-5.2C231,28.5,235.1,38.9,236.9,44.9L236.9,44.9z
				 M323,173.9l-30.1-7l7.2-27c10,1,19.7,1.9,28.2,2.6L323,173.9z M216.8,356.9c-12.2,2.5-52.5,9.6-106.1,5.1
				c0.1-3.8,0.5-10,1.3-17.7c2.4,0.9,5,1.8,7.6,2.6l0,0c2.6,0.8,5.3-0.7,6-3.3c0.8-2.6-0.7-5.3-3.3-6c-3.1-0.9-6.2-2-9.2-3.3
				c0.5-3.7,1.1-7.7,1.8-11.8c16.8,5.2,38.7,6.6,58.3,6.6c18.2,0,34.4-1.3,42.4-2l0.4,9.5c-10.7,2.3-42.5,8.3-72.8,5
				c-2.7-0.3-5,1.6-5.3,4.3c-0.3,2.7,1.6,5,4.3,5.3c6.7,0.7,13.5,1.1,20.2,1c18.1-0.1,36.2-2.1,54-5.8L216.8,356.9L216.8,356.9z
				 M84.7,363.2c-6.4-5.4-10.2-14.6-11.2-27.3l11.7-21.3c2.6-0.9,5.3-1.5,8-1.8l0,0c2.7-0.3,4.5-2.7,4.2-5.4
				c-0.3-2.7-2.7-4.5-5.4-4.2c-2.8,0.4-5.6,0.9-8.3,1.8l-13-18.2c16.1-13.5,30.5-13,36.6-11.9c0.1,8.6,0.1,15,0,17.8
				c-6.3,8.8-4,18.8-1.2,24.4c-3,15.7-4.7,31.6-5.2,47.5c-1,1.3-2,2.6-2.8,4C93.2,368.2,88.5,366.3,84.7,363.2L84.7,363.2z
				 M160.8,146.1c6.2,10.1,16.3,17.2,27.9,19.7c0.4,12.9-0.3,37.4-9.4,57.9c-6.8-8.3-12.1-17.7-15.9-27.7c-1.7-4.5-2.6-9.3-2.6-14.1
				L160.8,146.1L160.8,146.1z M198.9,166.9c13.4,0,31.3-5,42.5-19c1,0.2,2.1,0.3,3.2,0.3c7.9,0,15.2-4.6,20-12.4
				c7.9,1.1,16.8,2.1,25.8,3.1l-7.1,26.4c-2.2,0-4.3,0.5-6.3,1.4c-9.6,4.3-10.1,14.5-8.8,20.6l-7.6,17.3l-22.3-24.8
				c0,0-0.1,0-0.1-0.1c-0.2-0.2-0.4-0.4-0.6-0.5c0,0-0.1-0.1-0.1-0.1c-0.2-0.2-0.5-0.3-0.7-0.4c-0.1,0-0.2-0.1-0.3-0.1
				c-0.1-0.1-0.3-0.1-0.4-0.2c-5.7-1.8-14.1-4-24.8-6.4c-2.6-0.6-5.2,1.1-5.8,3.7c-0.6,2.6,1.1,5.2,3.7,5.8
				c8.5,1.9,15.4,3.6,20.6,5.1c0,3.5-0.1,9.3-0.4,16.5c-0.1,2.7,2,4.9,4.7,5h0.2c2.6,0,4.7-2.1,4.8-4.7c0.1-2.9,0.2-5.6,0.2-7.9
				l19,21.2c0.5,0.5,1,0.9,1.7,1.2c2.4,1.1,5.3,0,6.4-2.5l11.3-25.7c0.5-1.1,0.5-2.3,0.2-3.4c-0.1-0.3-2.4-8.2,3.1-10.7
				c1.5-0.6,3.2-0.7,4.7-0.3h0l44.8,10.4c1.6,0.4,2.9,1.4,3.6,2.8c0.7,1.3,0.8,2.8,0.3,4.2c-1.3,3.3-3.5,6.1-6.3,8.3
				c-5.6,4.7-10.1,10.5-13.2,17.1c-6.5,13.3-15.7,32.2-22.8,46.5c-3.9,7.7-13,11.3-21,8.2L235.2,259c0.6-4.9,1.1-10,1.6-15.4
				c0.2-2.6-1.7-4.9-4.3-5.2c-2.7-0.3-5,1.7-5.3,4.3c-1.9,22-4.6,39.4-8.1,51.7c-0.4,1.5-0.1,3.1,0.9,4.3c0,0,4.3,5.5,3.4,11.1
				c-0.6,2.9-2.3,5.5-4.8,7.1c-9.4,1-71.2,6.8-103.9-4.9c-1.3-2.7-3.5-9.2,1.2-14.8c0.7-0.8,1.1-1.9,1.2-3c0-0.2,0.4-19.2-0.7-43.3
				c0,0,0,0,0-0.1c-0.1-2.7-2.4-4.7-5.1-4.6c-2.7,0.1-4.7,2.4-4.6,5.1c0.2,4.7,0.4,9.3,0.5,13.5c-8.7-1.1-24.7-0.4-42.1,13.8
				l-5.3-7.4c-1.6-2.2-4.6-2.7-6.7-1.1c-2.2,1.6-2.7,4.6-1.1,6.7l8.4,11.8l15.9,22.2L65,331.3c-1.8,0.9-6.9,2.5-14.2-0.9
				c-5.4-2.5-19.4-16.1-37.4-36.4c-3.9-4.4-4.4-10.9-1.1-15.8c11.9-18.1,40-53.8,93.6-91c4.4-1.6,30.4-11,45.3-16.9V182
				c0,6,1.1,11.9,3.2,17.5c8.4,22.2,21.4,34.9,22.7,36.2l1.3,1.4c2.1,2.2,3.3,5.2,3.2,8.2l-0.6,28.8c-0.1,2.7,2.1,4.9,4.7,4.9h0.1
				c2.6,0,4.8-2.1,4.8-4.7l0.6-28.8c0.1-5.1-1.6-10.1-4.9-14c11.1-22.4,12.4-49.8,12-64.6C198.5,166.9,198.7,166.9,198.9,166.9
				L198.9,166.9z M255.1,96.7l-0.7,0.1c-7.7,1-13.9,6.5-15.8,14c-0.1,0.4-0.2,0.8-0.3,1.2c0,0.2-0.1,0.4-0.1,0.6
				c-1.7,10.2,5.2,19.9,15.4,21.6c-2.3,2.6-5.6,4.2-9.1,4.3c-8.7,0-16.1-10.9-16.1-23.9s7.4-23.9,16.1-23.9
				C248.4,90.7,252.2,92.9,255.1,96.7z M329.7,82.9c1.5,1.6,2.1,4.1,1.9,7.6l0,0.4c-0.6,7-6.4,12.5-13.4,12.7l-24.7,0.9
				c-2.8,0.2-5.5-0.7-7.6-2.5c-3.1-2.6-3.9-6.4-2.7-11.4c2-8.2,25.3-10.7,40.5-9.8h0.5h0C326.2,80.8,328.2,81.5,329.7,82.9
				L329.7,82.9z M356.5,93.2c1.1-1.1,2.5-1.9,4-2.2c6-1.1,12.1-1.8,18.2-2.1c-3.6,7.1-5.3,17-5.3,26.5c0,9.1,1.6,18.6,4.9,25.7
				c-6.4-0.6-12.7-1.3-17.8-1.9c-3.3-0.4-7.2-3.5-8.1-6.4c-1.6-5.6-2.2-11.4-1.8-17.1c0,0,0,0,0,0c0.1-2.7-1.9-4.9-4.6-5.1
				c-2.7-0.1-4.9,1.9-5.1,4.6c-0.4,6.4,0.2,12.7,1.7,18.9c-20.9-1.7-63.1-5.4-87.5-9.4c-2.4-0.4-4.6-1.8-6-3.8c-1.4-2-2-4.6-1.5-7
				c0.1-0.3,0.1-0.6,0.2-0.9c0.9-3.6,3.9-6.2,7.6-6.6c6.6-0.9,13.1-1.7,19.5-2.5c1.1,2.1,2.6,4,4.4,5.5c3.7,3.2,8.5,4.9,13.4,4.9
				c0.3,0,0.6,0,0.9,0l24.7-0.9c10.3-0.4,19.2-7.4,22-17.4c5.6-0.6,9.8-1.1,12.1-1.4c0,0,0.1,0,0.1,0c0.2,0,0.3,0,0.5,0.1
				C354.5,94.5,355.6,94,356.5,93.2L356.5,93.2z M391.9,88.6c4,0,10,10.7,10,26.8c0,15.5-5.9,26.7-9.9,26.8l-0.1,0
				c-3.6-0.2-8.7-10.5-8.7-26.8C383.1,99,388.4,88.6,391.9,88.6L391.9,88.6z"/>
			<path class="st11" d="M168.7,430v-20.1h6.1c0.1,0,0.1,0,0.2,0c2.7,0,4.8-2.2,4.8-4.9c0-2.7-2.2-4.8-4.9-4.8h-22.5
				c-0.1,0-0.1,0-0.2,0c-2.7,0-4.8,2.2-4.8,4.9c0,2.7,2.2,4.8,4.9,4.8h6.7V430H168.7z"/>
		</g>
	</g>
	<g>
		<g>
			<path class="st11" d="M332.8,283.8c2.3,0,4.5,1.4,5.3,3.7c1.5,4.3,3,8.4,4.3,12.2c0.6,0,1.3,0.2,1.9,0.4l5.4,2.2c0,0,0,0,0,0
				l6.7,2.7v0l42.7,17.2c3,1.2,4.4,4.6,3.2,7.6l-19.8,49.1h0l-10.9,27.1c-0.9,2.3-3.1,3.6-5.3,3.6c-0.7,0-1.5-0.1-2.2-0.4l-5.4-2.2
				l-44.1-17.7l-0.7-0.3c-2.1,3-5.1,2.4-12.7,4.5l5.6,5.7c0.7,0.7,1.2,1.2,1.2,1.2c0.2,1.5,0.6,2.8,1.1,4.1c0.1,0.2,0.2,0.4,0.3,0.6
				c0,0,0,0,0,0v0c0.2,0.1,0.5,0.2,0.8,0.3c0.2,0.1,0.4,0.1,0.5,0.2c0.3,0.1,0.5,0.2,0.8,0.4c0.1,0.1,0.1,0.1,0.2,0.1
				c0.1,0.1,0.2,0.2,0.2,0.3c0.1,0.2,0.2,0.5,0.3,0.8c0.1,1.9-0.8,2.8-1.9,3c-3.2,0.6-12.6,2.2-23.3,4.2c-0.4,1.5-1.3,4.6-3.2,11.3
				c-0.1,0.3-0.3,0.4-0.6,0.4c-0.1,0-0.3-0.1-0.4-0.2c-6.3-6.4-8.4-8-9.1-9c-10.5,2-20.6,4.1-26,5.7c-4.6,1.3-8.7,2.2-12.4,2.2
				c-3.2,0-6.2-0.7-9-2.5c0,0.1,0.1,0.1,0.1,0.1c-0.5-0.3-1.3-0.9-2.2-1.7c-0.2-0.1-0.3-0.3-0.5-0.5c-0.2-0.1-0.3-0.3-0.5-0.5
				c-0.2-0.1-0.3-0.3-0.5-0.5h0c0,0,0,0,0,0c-2.9-3-3.7-5.8-4.1-8.4c-1.3-1.4-1.7-3.2-1.7-3.2l0-0.1l-2.8-7.3l-0.5-1.3l0,0l0-0.1
				c-1.2-3.3-0.7-5.9,0.1-9.3c0.2-0.6,0.3-1.2,0.5-1.8c-3.9-15.8-8.9-28.7-13.2-39.9c-2.6-1.1-3.3-4.4-3.3-4.4l0-0.1
				c-1.1-3.3-2.2-5.6-2.9-7.6v0c-0.1-0.2-0.2-0.5-0.3-0.7c0-0.1,0-0.1-0.1-0.2c-0.7-2.1-1-3.9-0.6-6.2c0-0.2,0.1-0.5,0.1-0.7
				c-0.7-2.5-1.3-4.9-1.7-7.2v0c-0.1-0.7-0.3-1.4-0.4-2.1c-0.1-0.7-0.2-1.4-0.3-2.1c0,0,0,0,0,0c-0.1-0.7-0.2-1.4-0.2-2.2
				c-0.4-5.7,1.1-10.4,3.9-14.2c3.8-5.1,9.9-8,16.2-8c0.7,0,1.4,0,2.1,0.1c1.2,0.1,2.3,0.2,3.5,0.3c0.6,0.1,1.2,0.1,1.8,0.1
				c0.6,0,1.2,0.1,1.8,0.1c0,0,0,0,0,0c3.4,0.2,6.9,0.3,10.3,0.3c16.2,0,32.2-2.2,47.7-6c0.1,0,0.3-0.1,0.4-0.1
				c0.8,0,1.5,0.5,1.7,1.3c1.2,4.1,2.5,8.2,3.9,12.3l0.4-0.2c0.3-0.1,0.7-0.2,1-0.4l0.5-0.2c0.2-0.1,0.5-0.2,0.8-0.3l0.2-0.1
				c0.1,0,0.2-0.1,0.4-0.1l0.8-0.3v0c2.2-0.8,5.1-1.8,8.9-3.2c0.6-0.2,1.2-0.4,1.8-0.6c1.4-0.5,2.8-1,4.4-1.6c1-0.4,2.1-0.7,3.2-1.1
				c0.2-0.1,0.4-0.1,0.6-0.2c0.8-0.3,1.6-0.6,2.5-0.9c0.1,0,0.2-0.1,0.3-0.1c0.9-0.3,1.9-0.7,2.9-1c0.1,0,0.2-0.1,0.3-0.1
				c3.3-1.2,7-2.5,11-3.9c0,0,0,0,0,0c0,0,0.1,0,0.1,0c0,0,0.1,0,0.1,0c0.1,0,0.1,0,0.1-0.1l0.1,0c0,0,0.1,0,0.1,0c0,0,0,0,0,0
				c0.1,0,0.1-0.1,0.2-0.1c1.7-0.6,3.5-1.2,5.3-1.9C331.6,283.9,332.2,283.8,332.8,283.8 M301.3,393.4L301.3,393.4
				C301.3,393.4,301.3,393.4,301.3,393.4L301.3,393.4 M227.1,414.4c0,0.2,0,0.4,0,0.6c0-0.2,0-0.3,0-0.5
				C227.1,414.5,227.1,414.5,227.1,414.4C227.1,414.4,227.1,414.4,227.1,414.4C227.1,414.4,227.1,414.4,227.1,414.4 M332.8,276.8
				c-1.5,0-2.9,0.3-4.3,0.8l-1.9,0.7c-1.1,0.4-2.2,0.8-3.3,1.2c-0.1,0-0.2,0.1-0.3,0.1c-0.1,0-0.2,0.1-0.2,0.1
				c-0.1,0-0.2,0.1-0.3,0.1c-0.1,0-0.1,0.1-0.2,0.1c-4,1.4-7.6,2.7-10.8,3.9c-0.2,0.1-0.3,0.1-0.5,0.2l-0.9,0.3
				c-0.6,0.2-1.2,0.4-1.8,0.6c-0.2,0.1-0.3,0.1-0.4,0.2c-0.4,0.1-0.8,0.3-1.2,0.4c-0.4,0.1-0.7,0.3-1.1,0.4c0,0,0,0-0.1,0l-0.2,0.1
				c-0.1,0-0.3,0.1-0.4,0.1l-1.5,0.5c-0.5,0.2-1.1,0.4-1.6,0.6c-1.3,0.5-2.5,0.9-3.6,1.3l-0.9,0.3c-0.6,0.2-1.2,0.4-1.8,0.6
				l-5.2,1.9l-1,0.4c-0.5-1.7-1.1-3.5-1.6-5.3c-1.1-3.7-4.5-6.2-8.4-6.2c-0.7,0-1.4,0.1-2.1,0.3c-15.7,3.9-31.2,5.8-46,5.8
				c-3.3,0-6.6-0.1-9.9-0.3c0,0-0.1,0-0.1,0c-0.5,0-1-0.1-1.5-0.1c0,0-0.1,0-0.1,0c-0.5,0-1-0.1-1.5-0.1c0,0-0.1,0-0.1,0
				c-1.1-0.1-2.2-0.2-3.3-0.3c-0.9-0.1-1.9-0.1-2.8-0.1c-8.7,0-16.8,4-21.8,10.8c-3.9,5.3-5.7,11.8-5.2,18.8c0,0.7,0.1,1.4,0.2,2.1
				c0,0.1,0,0.2,0,0.4c0.1,0.8,0.2,1.6,0.3,2.3l0,0.1c0.1,0.7,0.2,1.4,0.4,2.2c0,0.1,0,0.1,0,0.2c0.4,2,0.9,4.1,1.4,6.3
				c-0.5,3.7,0.2,6.6,1,8.8c0,0.1,0,0.1,0.1,0.2c0,0.1,0.1,0.2,0.1,0.2l0.1,0.2c0.1,0.2,0.1,0.3,0.2,0.5c0,0,0,0.1,0,0.1
				c0.3,0.7,0.6,1.5,0.9,2.3c0.6,1.4,1.2,2.9,1.8,4.8c0.3,1.2,1.4,4.6,4.3,7.1c3.9,10.2,8.2,21.6,11.7,35.2c0,0.1,0,0.1,0,0.2
				c-1,3.9-1.9,8.2,0,13.4c0,0.1,0.1,0.2,0.1,0.2l0.5,1.3l2.6,6.8c0.2,0.9,0.8,2.4,1.8,4c0.6,2.8,2,6.5,5.4,10.2
				c0.1,0.2,0.3,0.3,0.5,0.5c0.2,0.2,0.3,0.3,0.5,0.5c0.2,0.2,0.4,0.4,0.6,0.5c0.2,0.2,0.4,0.3,0.6,0.5c0,0,0,0,0.1,0.1
				c1,0.9,2.1,1.7,3,2.3c0.3,0.2,0.7,0.4,1.1,0.6c3.5,1.9,7.3,2.9,11.6,2.9c4.7,0,9.7-1.2,14.3-2.5c4.1-1.1,11.4-2.7,21.8-4.8
				c1.4,1.3,3.4,3.2,6.4,6.3c0,0,0.1,0.1,0.1,0.1c1.4,1.4,3.3,2.1,5.3,2.1c3.3,0,6.3-2.2,7.3-5.4c0.7-2.6,1.3-4.7,1.8-6.3
				c0.1-0.3,0.2-0.6,0.2-0.9c9.1-1.7,16.6-3,19-3.4c4.8-0.8,8-5.1,7.7-10.3c0-0.1,0-0.2,0-0.3c-0.2-1.4-0.6-2.7-1.3-3.8
				c-0.2-0.4-0.6-0.9-1.2-1.5c-0.2-0.2-0.3-0.3-0.5-0.5c-0.3-0.3-0.7-0.5-1-0.8c0-0.1,0-0.3-0.1-0.4c-0.1-0.8-0.3-1.5-0.7-2.2
				c0.2-0.1,0.5-0.2,0.7-0.3l41,16.5l5.3,2.1c1.5,0.6,3.2,0.9,4.8,0.9c5.2,0,9.9-3.2,11.8-8l10.9-27.1c0-0.1,0.1-0.2,0.1-0.3
				l19.6-48.8c2.6-6.5-0.5-14-7-16.6l-42.4-17.1c-0.1,0-0.2-0.1-0.3-0.1l-6.6-2.6c-0.1,0-0.1-0.1-0.2-0.1l-4.5-1.8
				c-1-2.8-2.1-5.8-3.2-8.8C342.9,280.1,338.1,276.8,332.8,276.8L332.8,276.8z"/>
		</g>
		<g>
			<g id="_x38_6_1_">
				<g>
					<g>
						<g>
							<g>
								<g>
									<g>
										<path class="st12" d="M356.3,371.4c-5,1.8,18-6.4-48.6,17.4c-3,1-6.2-0.5-7.3-3.4c-0.2-0.4-28.5-79.9-26.7-74.9
											c-1.1-3,0.5-6.1,3.4-7.2c66.5-23.7,43.6-15.5,48.5-17.3c2.9-1.1,6.1,0.5,7.2,3.4c36.6,102.6,24,67.2,26.7,74.8
											C360.6,367.2,359.1,370.3,356.3,371.4z"/>
									</g>
									<g>
										<g>
											<g>
												<path class="st13" d="M307.6,321.3l-26.7,9.5l-4.8-13.4l26.7-9.5L307.6,321.3z"/>
											</g>
										</g>
										<g>
											<g>
												<path class="st13" d="M323.7,371.6l-25.1,8.9l-4-11.2l25.1-8.9L323.7,371.6z"/>
											</g>
										</g>
										<g>
											<g>
												<path class="st13" d="M317.8,350.4l-26.6,9.4l-8-22.4l26.6-9.4L317.8,350.4z"/>
											</g>
										</g>
									</g>
									<g>
										<g>
											<g>
												<path class="st14" d="M361.5,369.5c-66.6,23.8-43.6,15.6-48.6,17.3c-3,1.1-6.1-0.4-7.2-3.4
													c-36.6-102.6-24-67.2-26.7-74.8c-1-2.9,0.5-6.1,3.4-7.2c5-1.8-18,6.4,48.6-17.3c2.9-1.1,6.1,0.5,7.2,3.4
													c35.3,98.8,23.9,66.9,26.7,74.9C365.9,365.3,364.4,368.6,361.5,369.5L361.5,369.5z"/>
											</g>
											<g>
												<path class="st15" d="M355.3,335.8l9.5,26.6c1.1,2.9-0.5,6.2-3.4,7.2l-48.6,17.3c-2.9,1.1-6.1-0.4-7.2-3.4L279,308.6
													c-1.1-2.9,0.4-6.1,3.4-7.2l6.6-2.4c3.2,9.7,6.6,19.4,12.2,27.8c6.2,9.5,15.6,17.6,26.8,19.7
													C338.2,348.5,349.9,344.5,355.3,335.8L355.3,335.8z"/>
											</g>
										</g>
									</g>
								</g>
							</g>
						</g>
						<g>
							<path class="st16" d="M339.4,329.7c-7.6,4.4-12.4,13.3-10.9,23c0.1,0.4-0.5,0.6-0.7,0.3c-4.7-8-13.8-12.4-23-10.9
								c-0.4,0.1-0.6-0.5-0.3-0.7c8.4-5,12.3-14.2,10.9-23c-0.1-0.4,0.5-0.6,0.7-0.3c4.7,8,13.9,12.4,23,10.9
								C339.5,328.8,339.7,329.4,339.4,329.7z"/>
						</g>
						<g>
							<path class="st16" d="M289.9,306.6c-1.6,0.9-2.5,2.8-2.2,4.6c0,0.1-0.1,0.1-0.1,0.1c-0.9-1.6-2.8-2.5-4.6-2.2
								c-0.1,0-0.1-0.1-0.1-0.1c1.6-0.9,2.5-2.8,2.2-4.6c0-0.1,0.1-0.1,0.1,0c0.9,1.6,2.8,2.5,4.6,2.2
								C289.9,306.5,289.9,306.6,289.9,306.6z"/>
						</g>
						<g>
							<path class="st16" d="M360.9,362c-1.6,0.9-2.5,2.8-2.2,4.6c0,0.1-0.1,0.1-0.1,0.1c-0.9-1.6-2.8-2.5-4.6-2.2
								c-0.1,0-0.1-0.1-0.1-0.1c1.6-0.9,2.5-2.8,2.2-4.6c0-0.1,0.1-0.1,0.1,0c0.9,1.6,2.8,2.5,4.6,2.2
								C360.9,361.9,361,362,360.9,362z"/>
						</g>
						<g>
							<path class="st17" d="M328.3,346.7c-0.2,2-0.2,4,0.1,6c0.1,0.4-0.5,0.6-0.7,0.3c-4.7-8-13.8-12.4-23-10.9
								c-0.4,0.1-0.6-0.5-0.3-0.7c2-1.2,3.8-2.6,5.3-4.3c5.2,4.7,11.4,8.3,18.3,9.6C328.1,346.7,328.2,346.7,328.3,346.7z"/>
						</g>
					</g>
					<g class="st18">
						<path class="st19" d="M361.5,369.5c0.5-0.2-5.5,2-53.8,19.3c-3,1-6.2-0.5-7.3-3.4l-1.7-4.9c51.9-107.1,34-70.2,37.9-78.1
							c1.5-3,5.2-4.7,5.8-3l22.5,63.1C365.9,365.3,364.4,368.6,361.5,369.5L361.5,369.5z"/>
					</g>
					<g>
						<g>
							<g>
								<g>
									<path class="st20" d="M397,327.6l-30.7,76.1c-1.2,3-4.6,4.4-7.5,3.2l-49.4-19.9c-3-1.2-4.4-4.6-3.3-7.6
										c0.2-0.4,11.2-27.8,10.5-26c0.2-0.4,20.4-50.6,20.2-50.1c1.2-3,4.5-4.4,7.6-3.2l49.4,19.9
										C396.7,321.2,398.1,324.5,397,327.6z"/>
								</g>
								<g>
									<g>
										<g>
											<path class="st21" d="M355.6,334.9l-27.1-11l5.5-13.7l27.2,11L355.6,334.9z"/>
										</g>
									</g>
									<g>
										<g>
											<path class="st21" d="M333.6,384.8l-25.5-10.4l4.6-11.4l25.5,10.4L333.6,384.8z"/>
										</g>
									</g>
									<g>
										<g>
											<path class="st21" d="M343.6,364.4l-27-10.9l9.2-22.8l27,10.9L343.6,364.4z"/>
										</g>
									</g>
								</g>
								<g>
									<g>
										<g>
											<path class="st22" d="M402.4,329.7l-30.7,76.2c-1.2,3-4.6,4.4-7.5,3.2l-49.4-19.9c-3-1.2-4.4-4.5-3.2-7.6l30.7-76.1
												c1.2-3,4.5-4.4,7.6-3.2l49.4,19.9C402.1,323.4,403.6,326.7,402.4,329.7L402.4,329.7z"/>
										</g>
										<g>
											<path class="st23" d="M382.6,378.8l-10.9,27.1c-1.2,3-4.6,4.4-7.5,3.2l-49.4-19.9c-3-1.2-4.4-4.5-3.2-7.6l30.7-76.1
												c1.2-3,4.5-4.4,7.6-3.2l6.7,2.7c-4.2,9.7-8.2,19.5-9.6,29.9c-1.7,11.6,0,24.3,7.2,33.7
												C360.6,377,372.4,381.8,382.6,378.8z"/>
										</g>
									</g>
								</g>
							</g>
						</g>
						<g>
							<g>
								<path class="st16" d="M378.9,356c-4.4-2.4-8.9-4.5-13.3-6.3c0-4.2-0.2-8.2-0.5-12c-0.1-1.1-1.6-1.8-2.5-0.9
									c-2.8,2.7-5.6,5.6-8.6,8.7c-4.3-1.4-9-2.6-13.4-3.5c-1.1-0.3-2.2,0.7-1.7,1.9c1.9,4,3.9,8,6.1,11.9
									c-2.8,3.5-5.8,7.2-8.7,11.1c-0.7,0.8-0.3,2.6,1.4,2.5c4.7-0.5,9.5-1.3,14.4-2.4c2.9,4.1,6,8.1,9.3,12
									c0.4,0.5,1.1,0.7,1.7,0.5c1.1-0.3,1-1.6,1.1-2.6c0.5-4.6,0.9-9,1.1-13.3c4.5-1.4,9.1-3,13.5-4.9
									C380.2,358.2,380,356.5,378.9,356z M362.2,341.1c0.1-0.1,0.2,0,0.2,0.1c0.2,2.3,0.2,4.7,0.2,7.1c0,0.5-1-0.5-5.4-1.7
									c-0.1,0-0.1-0.2-0.1-0.3C358.9,344.5,360.6,342.7,362.2,341.1z M354.8,348.9c0.1-0.1,0.3-0.1,0.5-0.1
									c2.4,0.8,4.7,1.7,7.1,2.6c0.2,0.1,0.3,0.2,0.3,0.4c-0.3,9.7-0.2,9.3-0.6,9.5c-8.4,2.2-8.5,2.4-8.7,1.9
									c-1.7-2.2-3.1-4.6-4.5-7c-0.1-0.2,0-0.4,0-0.5C350.9,353.3,352.8,351.1,354.8,348.9z M361.7,364.6c0.2,0,0.4,0.1,0.4,0.3
									c-0.1,2.6-0.4,5.4-0.7,8.2c0,0.2-0.3,0.3-0.5,0.1c-1.8-2.1-3.6-4.4-5.2-6.7c-0.1-0.2,0-0.4,0.2-0.4
									C357.8,365.6,359.7,365.1,361.7,364.6z M343,345.6c-0.1-0.1,0.1-0.3,0.2-0.3c2.2,0.5,6.3,1.7,8.5,2.3c0.1,0,0.2,0.2,0.1,0.3
									c-1.5,1.7-3,3.4-4.5,5.2c0,0-0.1,0.1-0.1,0c-0.1,0-0.2,0-0.3-0.1C345.6,350.6,344.3,348.1,343,345.6z M349.9,364.3
									c-2.8,0.5-5.5,1-8.2,1.4c-0.2,0-0.4-0.3-0.2-0.5c1.6-2.2,3.3-4.3,4.9-6.4c0.1-0.2,0.4-0.1,0.5,0c1,1.6,2.1,3.3,3.2,5
									C350.1,364,350,364.3,349.9,364.3z M374.2,357.2c-8,2.9-8.8,3.1-8.7,2.6c0.1-2.3,0.1-4.5,0.2-6.7c0-0.2,0.1-0.3,0.3-0.2
									c2.7,1.1,5.5,2.5,8.2,3.9C374.3,356.9,374.3,357.1,374.2,357.2z"/>
							</g>
						</g>
						<g>
							<g>
								<path class="st24" d="M353,310.7c-0.9,0.3-1.7,0.6-2.6,0.9c-0.1,0.9-0.1,1.8-0.2,2.8c-0.1,0.3-0.4,0.4-0.5,0.2
									c-0.6-0.7-1.2-1.5-1.8-2.3c-4.3,0.9-3.5,0.6-1.4-2.2c-0.4-0.8-0.8-1.5-1.2-2.3c-0.1-0.2,0.1-0.4,0.3-0.4
									c0.9,0.2,1.7,0.4,2.6,0.7c0.6-0.6,1.1-1.1,1.7-1.6c0.2-0.2,0.5,0,0.5,0.2c0.1,0.7,0.1,1.5,0.1,2.3c0.9,0.4,1.7,0.8,2.6,1.2
									c0.1,0.1,0.2,0.2,0.2,0.3S353.1,310.6,353,310.7z"/>
							</g>
						</g>
						<g>
							<g>
								<path class="st24" d="M369.3,401.9c-0.9,0.3-1.7,0.6-2.6,0.9c-0.1,0.9-0.1,1.8-0.2,2.8c-0.1,0.3-0.4,0.4-0.5,0.2
									c-0.6-0.7-1.2-1.5-1.8-2.3c-4.3,0.9-3.5,0.6-1.4-2.2c-0.4-0.8-0.8-1.5-1.2-2.3c-0.1-0.2,0.1-0.4,0.3-0.4
									c0.9,0.2,1.7,0.4,2.6,0.7c0.6-0.6,1.1-1.1,1.7-1.6c0.2-0.2,0.5,0,0.5,0.2c0.1,0.7,0.1,1.5,0.1,2.3c0.9,0.4,1.7,0.8,2.6,1.2
									C369.5,401.5,369.5,401.8,369.3,401.9z"/>
							</g>
						</g>
						<g>
							<path class="st24" d="M364.3,376.8c-9.6-4.7-15-13.5-17.1-23.7c-0.1,0-0.2,0-0.3-0.1c-1.4-2.5-2.6-4.9-4-7.5
								c-0.1-0.1,0.1-0.3,0.2-0.3c1.1,0.3,2.1,0.5,3.1,0.8c-0.1-0.9-0.1-1.9-0.1-2.9c-1.9-0.5-3.7-0.9-5.6-1.3
								c-1.1-0.3-2.2,0.7-1.7,1.9c1.9,4,3.9,8,6.1,11.9c-2.8,3.5-5.8,7.2-8.7,11.1c-0.7,0.8-0.3,2.6,1.4,2.5
								c4.7-0.5,9.5-1.3,14.4-2.4c2.9,4.1,6,8.1,9.3,12c0.4,0.5,1.1,0.7,1.7,0.5C364.2,379,364.2,377.8,364.3,376.8z M349.9,364.3
								c-2.8,0.5-5.5,1-8.2,1.4c-0.2,0-0.4-0.3-0.2-0.5c1.6-2.2,3.3-4.3,4.9-6.4c0.1-0.2,0.4-0.1,0.5,0c1,1.6,2.1,3.3,3.2,5
								C350.1,364,350,364.3,349.9,364.3z"/>
						</g>
					</g>
				</g>
				<g>
					<path class="st3" d="M352,326.8c-0.2-0.4,0.2-0.7,0.5-0.6c1.9,0.5,3.5,0.9,3.6,0.8c0-0.1-1.5-0.7-3.4-1.4
						c-0.4-0.1-0.4-0.6-0.1-0.8c8.8-5.1,8.5-5.4-0.5-1c-0.4,0.2-0.7-0.2-0.6-0.5c1.3-4.7,1.1-4.8-0.6-0.2c-0.1,0.4-0.6,0.4-0.8,0.1
						c-5-8.9-5.3-8.6-1,0.6c0.2,0.4-0.2,0.7-0.5,0.6c-4.8-1.3-4.7-1-0.2,0.6c0.4,0.1,0.4,0.6,0.1,0.8c-8.6,4.9-8.9,5.6,0.5,1
						c0.4-0.2,0.7,0.2,0.6,0.5c-1.3,4.8-1,4.7,0.6,0.2c0.1-0.4,0.6-0.4,0.8-0.1c1.9,3.5,3.8,6.6,4,6.5
						C355.2,333.8,353.7,330.4,352,326.8z"/>
				</g>
			</g>
			<g id="_x34_9_1_">
				<g>
					<path class="st22" d="M317.6,383.7l-3.6,5.2c-2.1,3-5.1,2.4-12.7,4.5l1.2-4.9L317.6,383.7z"/>
				</g>
				<g>
					<g>
						<g>
							<g>
								<g>
									<path class="st25" d="M224.3,411.9c-5.7,2.1-7.2-4.3-7.2-4.3l-0.4-2.4l0.2-5.8C216.9,399.5,230,409.9,224.3,411.9z"/>
								</g>
								<g>
									<path class="st25" d="M205.1,347.9c-5.7,2.1-7.2-4.3-7.2-4.3l-0.4-2.4l0.2-5.8C197.8,335.4,210.9,345.8,205.1,347.9z"/>
								</g>
								<g>
									<path class="st26" d="M200.6,346.3c-1.6-1.3-1.5-4-1.5-4l3.4-1C202.4,341.3,202.2,347.6,200.6,346.3z"/>
								</g>
								<g>
									<path class="st26" d="M218.2,406.4c0,0-0.2,1.8,0.3,2.5c0.5,0.6,1.6-0.7,1.6-0.7L218.2,406.4z"/>
								</g>
								<g>
									<path class="st27" d="M317.6,383.7c-3.9,0.7-7.9,1.3-12.1,1.8c-10.5,0.7-34.3,6.5-61.6,8.7c-6.3,0.5-11,3-13.1,9
										c-0.8,2.3-3.5,8.9-3.5,8.9c-1.6,5.1,2.5,9.6,7.7,8.4c28.8-6.3,52.5-10.6,74.4-15.6l0,0c1,0.4,2.6,0.5,2.7,2.2
										c0.1,1.9-0.8,2.8-1.9,3c-7.5,1.3-49.1,8.6-62.6,12.4c-10.3,2.9-18,4-24.9-3.2l0,0c-4.5-4.7-4.1-8.9-4.7-12.8
										c-6.5-40.8-21.9-64.7-25.8-85.7c-0.3-1.4-0.5-2.9-0.6-4.3c-0.1-0.7-0.1-1.5-0.2-2.2c-0.4-5.7,1.1-10.4,3.9-14.2
										c4.2-5.7,11.3-8.6,18.3-7.9c22.1,2.2,44,0,65-5.2c0.9-0.2,1.8,0.3,2.1,1.2c9.6,32.1,22.6,62.3,38.6,91.1
										C320.6,381.1,319.6,383.3,317.6,383.7z"/>
								</g>
								<g>
									<path class="st28" d="M317.6,383.7c-3.9,0.7-7.9,1.3-12.1,1.8c-10.5,0.7-34.3,6.5-61.6,8.7c-6.3,0.5-11,3-13.1,9
										c-0.8,2.3-3.5,8.9-3.5,8.9c-1.6,5.1,2.5,9.6,7.7,8.4c28.8-6.3,52.5-10.6,74.4-15.6l0,0c1,0.4,2.6,0.5,2.7,2.2
										c0.1,1.9-0.8,2.8-1.9,3c-7.5,1.3-49.1,8.6-62.6,12.4c-10.3,2.9-18,4-24.9-3.2l0,0c-4.5-4.7-4.1-8.9-4.7-12.8
										c-6.5-40.8-21.9-64.7-25.8-85.7c-0.3-1.4-0.5-2.9-0.6-4.3c-0.1-0.7-0.1-1.5-0.2-2.2c-0.4-5.7,1.1-10.4,3.9-14.2
										c4.2-5.7,11.3-8.6,18.3-7.9c2.3,0.2,4.7,0.4,7,0.6c-3.9,0.8-7.5,2.6-8,5.1c-1.5,8.3,8.6,13.5,11.8,20.1
										c4.2,8.5-0.8,19.4,3.7,27.7c3.6,6.7,12.1,9.3,17,15.2c4.4,5.4,6.2,13.7,12.7,16.1c5.4,2,11.2-1.2,17-2
										c10.8-1.4,21.8,6.4,32.3,2.4c3.3-1.3,6.2-4.1,7.2-7.4c1.6,3.1,3.2,6,5,9.3C320.6,381.1,319.6,383.3,317.6,383.7z"/>
								</g>
								<g>
									<path class="st25" d="M313.2,372.8c-14.1-26.4-25.5-53.8-33.9-81.6c-0.2-0.8-1.1-1.3-1.9-1.1c-36.5,8.6-63,4.7-64.1,4.7
										c-6.1-0.5-12.1,2.2-15.6,6.9c-1.9,2.5-4.2,7.6-5.7,14.9c0.2,1.4,0.4,2.8,0.6,4.3c1.3-8.6,4-15.3,6.2-18.3
										c1.3-1.8,3-3.2,5-4.3c0.4-0.2,1-0.1,1.1,0.4c12.6,31,10.8,48.7,28.8,91.7c0.2,0.5,0,1-0.4,1.3c-5.7,3.5-7,8.1-8.8,12.5
										c-0.8,1.9-1.7,4.1-2,5.3c-1.1,4.7-0.4,7.8,0.6,10l0,0c1.2,1.2,2.8,2.5,3.6,3c-0.2-0.3-0.5-0.7-0.7-1
										c-5.7-7.6-1-14.2,0.9-19.6c2.5-7.2,8.2-11.2,16.9-11.9c15.9-1.3,30.5-3.8,42.3-5.9c7.2-1.2,20.9-3,28.8-4.2
										c0.5-0.1,0.9-0.4,1.1-0.8C316.3,377.9,315.7,377.5,313.2,372.8L313.2,372.8z M314.5,378.3c-7.2,1.1-21.5,2.9-28.8,4.2
										c-11.7,2-26.3,4.6-42.2,5.9c-2.8,0.2-5.2,0.8-7.4,1.6c-0.5,0.2-1.1,0-1.3-0.5c-9.8-23.5-13.5-38.9-17.2-53.8
										c-9.1-37.5-13.1-38.1-11.1-38.8c4.1-1.3,6.5-0.7,11-0.4c19.3,1.5,39.5-0.2,60.1-5.1c0.1,0,0.2,0,0.3,0.2
										C286.8,320.8,299,349.8,314.5,378.3L314.5,378.3z"/>
								</g>
								<g>
									<path class="st26" d="M314.7,379.7c-7.9,1.2-21.6,3-28.8,4.2c-11.8,2-26.4,4.6-42.3,5.9c-8.7,0.7-14.4,4.7-16.9,11.9
										c-1.9,5.4-6.6,12-0.9,19.6c0.2,0.3,0.5,0.8,0.7,1c-0.8-0.5-2.4-1.8-3.6-3l0,0c-3.3-7,1-13.9,2.5-18
										c1.5-4.4,4.1-7.6,7.7-9.8c0.4-0.3,0.6-0.8,0.4-1.3c-18-43.1-16.1-60.6-28.8-91.7c-0.2-0.5-0.7-0.6-1.1-0.4
										c-1.9,1.1-3.7,2.5-5,4.3c-2.2,3-4.9,9.7-6.2,18.3c-0.3-1.4-0.5-2.9-0.6-4.3c1.5-7.2,3.9-12.4,5.7-14.9
										c3.5-4.7,9.5-7.4,15.6-6.9c0.8,0.1,1.3,0.1,2.1,0.2c-0.6,0.4-1.1,0.8-1.5,1.3c-2.3-0.2-4.3-0.2-7.2,0.7
										c-2.1,0.7,1.8,1,11.1,38.8c3.6,14.9,7.4,30.4,17.2,53.8c0.2,0.5,0.8,0.7,1.3,0.5c2.2-0.9,4.7-1.4,7.4-1.6
										c15.9-1.3,30.5-3.8,42.2-5.9c7.4-1.3,21.6-3.1,28.8-4.2l0-0.1c-0.8-1.4-1.5-2.8-2.3-4.2c0.3-0.4,0.6-0.8,0.9-1.2
										c0.8,1.6,1.7,3.2,2.6,4.8C316.2,378.5,315.7,379.5,314.7,379.7z"/>
								</g>
								<g>
									<path class="st25" d="M317.6,383.7c-3.9,0.7-7.9,1.3-12.1,1.8c-10.5,0.7-34.3,6.5-61.6,8.7c-6.3,0.5-11,3-13.1,9
										c-0.8,2.3-3.5,8.9-3.5,8.9c-1.6,5.1,2.5,9.6,7.7,8.4c28.8-6.3,52.5-10.6,74.4-15.6l0,0c1.1,0.5,1.9,0.5,2.5,1.4
										c-0.5,0.1-75.6,15.8-76.5,16c-3.5,0.8-7-0.5-8.9-3.4c-2.4-3.5-1-7.1-1-7.5c0.7-1.8,2.8-7.1,3.5-8.9
										c2.2-6.3,7-9.6,14.7-10.3c16-1.3,30.7-3.9,42.6-5.9c8.2-1.4,27.1-3.8,30.9-4.5c2.2-0.4,2.5-2.2,1.5-4
										c0.3,0.5,0.6,1,0.8,1.5C320.6,381.1,319.6,383.3,317.6,383.7z"/>
								</g>
								<g>
									<path class="st22" d="M308.2,400.3c0.2,1.8,0.7,3.1,1.4,4.7c-18.7,4.2-49,10-74.4,15.6c-5.2,1.1-9.3-3.4-7.7-8.4
										c0,0,2.7-6.6,3.5-8.9c2.1-6,6.7-8.5,13.1-9c0.5,0,1.1-0.1,1.6-0.1c26.3-2.4,50-7.9,60-8.6c4.1-0.4,8.2-1.1,12-1.7
										c-2.7,2.5-14.4,7.1-16.3,9.7L308.2,400.3z"/>
								</g>
								<g>
									<path class="st21" d="M276.5,411.6l-1.8-6.6l-4.6,1.8l-1.2,4.2L276.5,411.6z"/>
								</g>
								<g>
									<path class="st23" d="M309.6,405c-17.1,3.9-50.4,10.3-74.4,15.6c-5.2,1.1-9.3-3.3-7.7-8.4c0,0,2.7-6.7,3.5-8.9
										c2.1-6,6.7-8.5,13.1-9c0.5,0,1.1-0.1,1.6-0.1c-4.6,3.2-8.2,8-9.8,13.4c-1.9,6.2,0.7,10.1,8.2,9.4c11.5-1.1,21.9-7.4,33-9.8
										c10.4-2.3,21.5-1.2,31.6-4.8C308.8,403.1,309.2,404,309.6,405z"/>
								</g>
								<g>
									<path class="st20" d="M276.5,411.9c-2.7,0.6-5.5,1.1-8.4,1.7l1.3-4.4c2-0.7,3.9-1.3,5.9-1.8L276.5,411.9z"/>
								</g>
								<g>
									<g>
										<path class="st25" d="M220.3,320.1c-12.8,0.6-19.3,8.8-21.2,22.2c-1.4-2.5-5.7-6.2-4.7-12c0,0,0,0,0-0.1
											c3.4-18.3,16.7-23.4,28.4-24c7.4-0.4,8.5,2.7,8.9,6.2C232,315.4,229.3,319.7,220.3,320.1z"/>
									</g>
									<g>
										<path class="st29" d="M220,318.6c-12.8,0.6-22.2,11-22,25c-2.4-7.3-4.8-10-3.9-14.8c0.2-1.2,0.5-2.3,0.8-3.4
											c4.1-15.4,14.5-19.4,25.4-19.9c4.9-0.2,10.6,0.7,11.1,5.6C231.6,313.9,229,318.2,220,318.6z"/>
									</g>
									<g>
										<path class="st28" d="M226.1,311.8c0,1.6-1.8,3-4.2,3c-2.3,0-4.2-1.3-4.2-2.9c0-1.6,1.8-3,4.1-3
											C224.2,308.9,226.1,310.2,226.1,311.8z"/>
									</g>
									<g>
										<path class="st14" d="M225.6,311.8c0,1.4-1.6,2.5-3.6,2.6c-2,0-3.7-1.1-3.7-2.5c0-1.4,1.6-2.5,3.6-2.6
											C223.9,309.3,225.5,310.5,225.6,311.8z"/>
									</g>
									<g>
										<path class="st15" d="M225.3,312.7c-0.5,1-1.8,1.7-3.4,1.7c-3.5,0-5-3-2.2-4.5C218.5,312.3,222.5,314.3,225.3,312.7z"/>
									</g>
								</g>
								<g>
									<g>
										<path class="st25" d="M239.5,384.1c-12.8,0.6-19.3,8.8-21.2,22.2c-1.4-2.6-5.7-6.2-4.7-12c0,0,0,0,0-0.1
											c3.4-18.3,16.7-23.4,28.4-24c7.4-0.4,8.5,2.7,8.9,6.3C251.1,379.5,248.5,383.7,239.5,384.1z"/>
									</g>
									<g>
										<path class="st29" d="M239.1,382.6c-12.8,0.6-22.2,11-22,25l-3.3-8.7c-1.2-3.3-0.7-5.9,0.1-9.3
											c4-15.6,14.5-19.7,25.4-20.2c7-0.3,10.4,1.7,11.1,5l0,0c0,0.2,0.1,0.4,0.1,0.5C250.8,378,248.1,382.2,239.1,382.6z"/>
									</g>
									<g>
										<path class="st28" d="M245.6,376.5c0,1.6-1.9,3-4.3,3.1c-2.4,0.1-4.3-1.2-4.4-2.9c0-1.6,1.9-3,4.3-3.1
											C243.6,373.6,245.6,374.9,245.6,376.5z"/>
									</g>
									<g>
										<path class="st14" d="M244.9,376.5c0,1.4-1.6,2.5-3.6,2.6c-2,0-3.7-1-3.7-2.4c0-1.4,1.6-2.5,3.6-2.6
											C243.2,374.1,244.9,375.2,244.9,376.5z"/>
									</g>
									<g>
										<path class="st15" d="M244.7,377.4c-0.5,1-1.8,1.7-3.4,1.7c-2,0-3.7-1.1-3.7-2.4c0-0.8,0.5-1.6,1.4-2
											c-0.1,0.3-0.2,0.6-0.2,0.9c0,1.4,1.7,2.5,3.7,2.4C243.3,378,244.1,377.8,244.7,377.4z"/>
									</g>
								</g>
							</g>
							<g>
								<path class="st27" d="M220,318.6c-12.8,0.6-22.2,11-22,25c-2.4-7.3-4.8-10-3.9-14.8c0.2-1.2,0.5-2.3,0.8-3.4
									c0.5,0.8,0.3,2,0.1,2.9c-0.7,3.3,1.7,4.1,3.2,2.4c1.5-1.8,1-4.6,2.2-6.6c1.1-1.9,3.6-2.7,5-4.4c1.3-1.5,1.8-3.7,3.4-4.7
									c3.7-2.4,7.9,2.9,16.4,0.6c4.9-1.3,6.3-4.5,5.4-6.9C232.9,312.2,230.5,318.1,220,318.6z"/>
							</g>
							<g>
								<path class="st27" d="M239.1,382.6c-12.8,0.6-22.2,11-22,25l-3.3-8.7c-1.2-3.3-0.7-5.9,0.1-9.3c1.2,0.8,0.9,2.3,0.6,3.5
									c-0.6,3.1,1.5,3.9,2.8,2.8c2-1.7,1.3-4.8,2.6-7c1.1-1.9,3.6-2.7,5-4.4c1.3-1.5,1.8-3.7,3.4-4.7c2.1-1.4,4.9-0.2,7.3,0.5
									c3,0.8,6.2,0.9,9.1,0.1c3.1-0.8,5.9-2.7,5.6-5.9c0,0.2,0.1,0.4,0.1,0.5C250.8,378,248.1,382.2,239.1,382.6z"/>
							</g>
						</g>
						<g>
							<g>
								<g>
									<g>
										<g>
											<path class="st25" d="M277.6,353.2c-4.4-1.3-9-2.9-13.6-4.8c-3,3.6-6.3,7.1-10,10.5c-0.5,0.5-1.2,0.6-1.8,0.3
												c-0.6-0.3-1.1-0.9-1.1-1.7c-0.2-5.4-0.2-10.3-0.2-15c-4.6-2.3-9.3-4.9-14-7.7c-0.5-0.3-0.8-0.9-0.8-1.4
												c0.1-0.6,0.5-1,1.1-1.2c4.9-1.3,9.7-2.3,14.3-3c0.3-3.9,0.8-7.5,1.3-10.7c0.2-1,1.7-1.1,2.4-0.2c2.6,3,5.1,6.2,7.7,9.6
												c4.2-0.3,8.3-0.4,12.3-0.2c1,0,1.9,1.2,1.5,2c-1.7,3.2-3.6,6.3-5.7,9.4c2.6,3.7,5.1,7.7,7.8,11.9
												C279.6,352.3,278.8,353.6,277.6,353.2z M260.3,346.9c-1.9-0.8-3.9-1.7-5.8-2.6c-0.2-0.1-0.4,0-0.4,0.2
												c0,2.7,0.1,5.5,0.2,8.4c0,0.3,0.3,0.4,0.5,0.2c2-1.9,3.9-3.8,5.6-5.8C260.6,347.2,260.5,347,260.3,346.9z M269.3,341.6
												c-1,1.4-2.1,2.8-3.2,4.2c-0.1,0.1,0,0.4,0.2,0.4c2.6,1,5.1,2,7.7,2.8c0.2,0.1,0.4-0.2,0.2-0.4c-1.5-2.4-3-4.7-4.5-6.9
												C269.6,341.5,269.4,341.5,269.3,341.6z M267.4,338.4c-1.8-2.6-3.6-5.1-5.3-7.5c-0.1-0.1-0.3-0.2-0.4-0.2
												c-2.3,0.2-4.7,0.5-7,0.9c-0.2,0-0.3,0.1-0.3,0.3c-0.1,2.7-0.2,5.6-0.3,8.7c0,0.2,0.1,0.3,0.3,0.4
												c2.7,1.3,5.4,2.5,8.1,3.7c0.2,0.1,0.4,0,0.5-0.1c1.6-1.9,3.1-3.8,4.6-5.7C267.6,338.7,267.5,338.5,267.4,338.4z
												 M272.9,330.1c-2.6,0-5.2,0.1-7.8,0.3c-0.4,0,0,0.2,3.9,5.8c0.1,0.1,0.2,0.1,0.3,0c1.4-1.9,2.6-3.9,3.8-5.9
												C273.2,330.3,273.1,330.1,272.9,330.1z M251,332.2c-2.9,0.5-5.8,1.2-8.8,1.9c-0.2,0.1-0.2,0.3,0,0.4
												c2.8,1.6,5.7,3.2,8.5,4.6c0.2,0.1,0.3,0,0.4-0.2c0.1-2.3,0.2-4.4,0.3-6.5C251.3,332.3,251.1,332.1,251,332.2z
												 M255.2,322.2c-0.2,2-0.4,4.2-0.6,6.4c0,0.1,0.1,0.2,0.2,0.2c1.7-0.2,3.5-0.4,5.2-0.6c0.1,0,0.1-0.1,0.1-0.2
												c-1.5-2-3-3.9-4.6-5.8C255.4,322.1,255.2,322.1,255.2,322.2z"/>
										</g>
									</g>
									<g>
										<g>
											<g>
												<g>
													<path class="st21" d="M237.8,333.2c4.7,2.8,9.3,5.4,13.9,7.7c-0.1,4.6-0.1,9.6,0.1,15c0,0.7,0.5,1.4,1.1,1.7
														c0.6,0.3,1.4,0.2,1.9-0.3c3.2-3,6.1-6,8.8-9.1c0.4-0.4,0.8-0.9,1.2-1.3c4.7,1.9,9.2,3.5,13.6,4.8c1.3,0.4,2-1,1.3-2.2
														c-0.7-1.1-1.3-2.1-2-3.1c-1.9-3.1-3.9-6-5.8-8.8c2.1-3.1,4.1-6.3,5.8-9.4c0.4-0.8-0.5-2-1.5-2c-4-0.1-8.1-0.1-12.3,0.2
														c-2.6-3.4-5.1-6.6-7.7-9.6c-0.8-0.9-2.2-0.8-2.4,0.2c-0.6,3.3-1,6.9-1.4,10.8c-3.8,0.6-7.8,1.4-11.8,2.4
														c-0.8,0.2-1.7,0.4-2.5,0.6c-0.6,0.1-1,0.6-1.1,1.2C236.9,332.3,237.2,332.9,237.8,333.2z M260.9,326.5
														c0,0.1,0,0.1-0.1,0.1c-0.2,0-0.3,0-0.5,0.1l0,0c-1.5,0.1-3.1,0.3-4.6,0.5c-0.1,0-0.2-0.1-0.2-0.2
														c0.2-2.2,0.4-4.4,0.6-6.4C256.2,320.2,256.9,321.1,260.9,326.5z M270.2,334.7c-0.1,0.1-0.2,0.1-0.3-0.1
														c-3.9-5.7-4.3-5.8-3.9-5.8c0.9-0.1,4.7-0.3,7.8-0.2c0.2,0,0.3,0.2,0.2,0.3C272.8,330.8,271.5,332.7,270.2,334.7z
														 M266.9,344.3c0.2-0.2,0.4-0.5,0.5-0.7c0.9-1.1,1.8-2.3,2.6-3.5c0.1-0.1,0.3-0.1,0.4,0.1c1.9,2.9,4.1,6.3,4.5,7
														c0.1,0.2,0,0.5-0.2,0.4c-2.5-0.8-5.1-1.8-7.6-2.8C266.9,344.6,266.8,344.4,266.9,344.3z M259.1,341.2
														c-1.3-0.6-2.6-1.2-3.8-1.8c-0.2-0.1-0.3-0.3-0.3-0.4c0-3.1,0.1-6,0.3-8.7c0-0.2,0.1-0.3,0.3-0.3c0,0,0,0,0,0
														c0.4-0.1,6.9-1,7.3-0.8c0.3,0.2,5.2,7.3,5.4,7.7c0.1,0.2,0.1,0.3,0,0.4c-1.3,1.8-2.8,3.6-4.2,5.3
														c-0.1,0.1-0.2,0.3-0.3,0.4c-0.1,0.1-0.3,0.2-0.5,0.1C261.9,342.5,260.5,341.9,259.1,341.2z M255.1,351.4
														c-0.1-2.9-0.2-5.8-0.2-8.5c0-0.2,0.2-0.3,0.4-0.2c0.1,0,0.2,0.1,0.3,0.2c1.8,0.9,3.7,1.7,5.5,2.5
														c0.2,0.1,0.2,0.3,0.1,0.5c-0.4,0.4-0.7,0.8-1.1,1.2c-1.5,1.6-3,3.1-4.6,4.6C255.4,351.8,255.1,351.6,255.1,351.4z
														 M243.1,332.4c0.2,0,0.4-0.1,0.6-0.2c0.1,0,0.2,0,0.3-0.1c2.7-0.6,5.3-1.2,7.9-1.6c0.1,0,0.2,0,0.2,0.1
														c0,0.1,0.1,0.1,0.1,0.2c-0.2,2.1-0.3,4.3-0.4,6.5c0,0.2-0.2,0.3-0.4,0.2c-0.8-0.4-1.7-0.9-2.5-1.4
														c-2-1-3.9-2.1-5.9-3.3C242.8,332.7,242.8,332.5,243.1,332.4z"/>
												</g>
											</g>
											<g>
												<path class="st20" d="M265.7,327.3l1.3,1.5c0.3,0,6.7-0.3,6.9-0.1l1.6-1.7L265.7,327.3z"/>
											</g>
											<g>
												<path class="st20" d="M261.2,345.8c-0.4,0.4-0.7,0.8-1.1,1.2c1,0.4,2.2,0.8,3.4,1.3c0.4-0.4,0.8-0.9,1.2-1.3
													c4.7,1.9,9.2,3.5,13.6,4.8c1.3,0.4,2-1,1.3-2.2c-0.7-1.1-1.3-2.1-2-3.1c-0.4-0.1-10.8-3-10.2-2.9l-3.4-0.9l-5-1.4
													l-3.4-0.9l0,2.6c1.8,0.9,3.7,1.7,5.5,2.5C261.3,345.4,261.4,345.7,261.2,345.8z"/>
											</g>
											<g>
												<path class="st20" d="M237.8,333.2c4.7,2.8,9.3,5.4,13.9,7.7l1.6-1.5l-4.4-3.3l-5.2-3.9l-3.1-2.3
													c-0.8,0.2-1.7,0.4-2.5,0.6c-0.6,0.1-1,0.6-1.1,1.2C236.9,332.3,237.2,332.9,237.8,333.2z"/>
											</g>
											<g>
												<path class="st20" d="M243,330.6l1,1.6c2.7-0.6,5.3-1.2,7.9-1.6c0.1,0,0.2,0,0.2,0.1l1.8-1.6L243,330.6z"/>
											</g>
											<g>
												<path class="st20" d="M255.6,329.9c0.4-0.1,6.9-1,7.3-0.8l1.5-1.6l-8.7,0L255.6,329.9z"/>
											</g>
											<g>
												<path class="st20" d="M237.4,330.9l2.4,0.4l-0.6-1.8L237.4,330.9z"/>
											</g>
											<g>
												<path class="st20" d="M280.9,349.6l-1.2,1.7l-0.8-2.5L280.9,349.6z"/>
											</g>
											<g>
												<path class="st21" d="M255.6,315.2c-0.5,0.3-1,0.7-1.6,1.2l2,0.3L255.6,315.2z"/>
											</g>
											<g>
												<g>
													<path class="st30" d="M279.5,350.1c-4.3-1.3-8.8-2.9-13.4-4.8c-2.9,3.5-6.2,6.9-9.7,10.2c-0.5,0.5-1.2,0.5-1.8,0.2
														c-0.6-0.3-1-0.9-1.1-1.6c-0.2-5.3-0.3-10.1-0.2-14.7c-4.6-2.3-9.2-4.9-13.7-7.6c-0.5-0.3-0.8-0.9-0.8-1.4
														c0.1-0.5,0.5-1,1.1-1.1c4.8-1.2,9.5-2.2,14-2.8c0.3-3.8,0.7-7.3,1.2-10.5c0.2-0.9,1.6-1,2.4-0.1c2.5,3,5.1,6.1,7.6,9.5
														c4.1-0.3,8.1-0.3,12.1-0.1c1,0,1.9,1.2,1.5,2c-1.7,3.1-3.5,6.2-5.6,9.2c2.5,3.7,5.1,7.6,7.7,11.8
														C281.5,349.2,280.7,350.5,279.5,350.1z M262.6,343.8c-1.9-0.8-3.8-1.7-5.7-2.6c-0.2-0.1-0.4,0-0.4,0.2
														c0,2.6,0.1,5.4,0.2,8.3c0,0.3,0.3,0.4,0.5,0.2c1.9-1.8,3.8-3.7,5.5-5.6C262.8,344.1,262.8,343.9,262.6,343.8z
														 M268.3,342.7c-0.1,0.1,0,0.4,0.2,0.4c2.6,1,5.1,2,7.5,2.8c0.2,0.1,0.4-0.2,0.2-0.4c-1.5-2.4-3-4.6-4.4-6.8
														C271.4,338.2,271.4,338.8,268.3,342.7z M269.6,335.5c-1.8-2.6-3.5-5-5.3-7.4c-0.1-0.1-0.3-0.2-0.4-0.2
														c-2.3,0.2-4.6,0.5-6.9,0.8c-0.2,0-0.3,0.1-0.3,0.3c-0.1,2.7-0.2,5.5-0.2,8.5c0,0.2,0.1,0.3,0.3,0.4
														c2.7,1.3,5.3,2.5,7.9,3.7c0.2,0.1,0.4,0,0.5-0.1c1.6-1.8,3.1-3.7,4.5-5.6C269.7,335.8,269.7,335.6,269.6,335.5z
														 M274.9,327.4c-2.5,0-5.1,0.1-7.7,0.2c-0.4,0,0,0.2,3.9,5.7c0.1,0.1,0.2,0.1,0.3,0c1.3-1.9,2.6-3.8,3.7-5.7
														C275.1,327.6,275,327.4,274.9,327.4z M253.4,329.2c-2.8,0.5-5.7,1.1-8.6,1.8c-0.2,0-0.2,0.3,0,0.4
														c2.8,1.6,5.6,3.1,8.3,4.6c0.2,0.1,0.3,0,0.3-0.2c0.1-2.2,0.2-4.3,0.3-6.4C253.7,329.3,253.5,329.2,253.4,329.2z
														 M257.4,319.5c-0.2,2-0.4,4.1-0.6,6.3c0,0.1,0.1,0.2,0.2,0.2c1.7-0.2,3.4-0.4,5.1-0.5c0.1,0,0.1-0.1,0.1-0.2
														c-1.5-2-3-3.9-4.5-5.7C257.6,319.4,257.5,319.4,257.4,319.5z"/>
												</g>
											</g>
										</g>
									</g>
								</g>
							</g>
						</g>
					</g>
					<g>
						<path class="st3" d="M269.2,306.7c0.7-1.3,1.2-2.4,1.3-2.5c0.1,0.2-0.3,1.4-0.7,2.7c-0.2,0.3,0.2,0.6,0.6,0.5
							c3.4-1,6.5-1.8,6.6-1.6c0,0.2-2.9,1.3-6.1,2.5c-0.3,0.1-0.2,0.5,0.1,0.7c1.6,0.7,3.1,1.3,3.2,1.5c-0.2,0.1-1.7-0.4-3.4-1
							c-0.4-0.1-0.7,0.2-0.5,0.4c1.6,3,3,5.7,2.8,5.8c-0.3-0.1-2-2.7-3.8-5.5c-0.2-0.3-0.6-0.3-0.7,0c-0.7,1.4-1.2,2.5-1.3,2.5
							c-0.1-0.2,0.2-1.4,0.7-2.7c0.2-0.3-0.2-0.5-0.6-0.5c-3.4,1-6.5,1.8-6.6,1.6c0-0.2,2.9-1.4,6.1-2.5c0.3-0.2,0.2-0.5-0.1-0.7
							c-1.6-0.6-2.9-1.2-3.1-1.4c0.2,0,1.7,0.5,3.3,0.9c0.4,0.2,0.7-0.1,0.5-0.4c-1.5-3-3-5.7-2.8-5.8c0.2,0,1.9,2.6,3.7,5.4
							C268.7,306.9,269.2,307,269.2,306.7z"/>
					</g>
				</g>
				<g>
					<path class="st23" d="M308.2,400.3c-2.4,0.3-5.6,0.7-9.1,1.3c-14.7,2.3-35.6,6.4-37.5,6.5c0,0,0,0,0.1-0.1
						c6.2-6,22.1-10.4,39.6-14.7l0,0C301.8,393.9,308.7,400.8,308.2,400.3z"/>
				</g>
				<g>
					<path class="st20" d="M303.5,395.6c-2,0.6-6.3,1.7-14.7,3.5c-14.8,3.1-25.7,8.4-27.1,9c6.2-6,22.1-10.4,39.6-14.7l0,0
						L303.5,395.6z"/>
				</g>
				<g>
					<g>
						<path class="st20" d="M274.2,406.4c-1.4,0.2-2.7,0.3-4.1,0.4c0.2-1.1,0.7-2.6,0.7-2.6L274.2,406.4z"/>
					</g>
					<g>
						<g>
							<path class="st31" d="M283.9,425.6c-0.1,0.4-0.7,0.6-1,0.3c-8.7-8.8-9.3-8.5-9.4-10.1c-0.7-6-3.1-9.5-2.9-10.2
								c0.1-0.5,0.4-1.7,0.4-1.7l1.4,1.1c10.1-1.6,10.3-2.2,11.1-1.4c3.1,3.6,3.9,7.4,4.1,9.1C287.5,413.2,287.8,412,283.9,425.6z"
								/>
						</g>
					</g>
					<g>
						<path class="st32" d="M287.7,412.3l-3.4,11.6c-0.1,0.4-0.7,0.6-1,0.3c-9.1-9-9.3-8.8-9.4-10.1c-0.5-4.4-2.2-8.2-2.9-9.8
							c-0.2-0.4,0-0.8,0.5-0.9c11.6-2.1,11.8-2.3,12.3-1.7C286.1,404.4,288.5,409.7,287.7,412.3z"/>
					</g>
				</g>
			</g>
		</g>
	</g>
</g>
</svg>
