<?xml version="1.0" encoding="utf-8"?>
<!-- Generator: Adobe Illustrator 25.0.0, SVG Export Plug-In . SVG Version: 6.00 Build 0)  -->
<svg version="1.1" id="Layer_1" xmlns="http://www.w3.org/2000/svg" xmlns:xlink="http://www.w3.org/1999/xlink" x="0px" y="0px"
	 viewBox="0 0 566 175" style="enable-background:new 0 0 566 175;" xml:space="preserve">
<style type="text/css">
	.st0{fill:#FFFFFF;}
	.st1{fill:#35414D;}
	.st2{fill:#FAFAFA;}
	.st3{fill:#64FFDA;}
	.st4{fill:#8AC6DD;}
	.st5{fill:#D7E057;}
	.st6{fill:#F16C7A;}
	.st7{fill:#EEEEEE;}
	.st8{fill:#8C9EFF;}
	.st9{fill:#FBBC05;}
	.st10{fill:#4285F4;}
	.st11{fill:#B598F9;}
	.st12{fill:#754E34;}
	.st13{fill:#F9D0B4;}
	.st14{fill:#9BE5F9;}
	.st15{fill:#70D6F9;}
	.st16{fill:#FC657E;}
	.st17{fill:#F5C84C;}
	.st18{fill:#87D147;}
	.st19{fill:#5290DB;}
	.st20{fill:#F4F4F4;}
	.st21{fill:#E8E8E8;}
	.st22{fill:#5994CE;}
	.st23{fill:#4C7EB0;}
	.st24{fill:#FA5D72;}
	.st25{fill:#F6D867;}
	.st26{fill:#2CAB72;}
</style>
<g>
	<g>
		<g>
			<g>
				<g>
					<g>
						<path class="st0" d="M89.9,77.9L19.6,99.6c-0.5,0.2-1.1-0.1-1.3-0.7L4.7,55L77,32.7l13.6,44C90.8,77.2,90.5,77.8,89.9,77.9z"
							/>
					</g>
					<g>
						<g>
							<path class="st1" d="M28.7,97.9l-8.8,2.7c-1.1,0.3-2.2-0.3-2.6-1.4l-13.6-44c-0.2-0.5,0.1-1.1,0.7-1.3
								c0.5-0.2,1.1,0.1,1.3,0.7l13.6,44l8.8-2.7c0.5-0.2,1.1,0.1,1.3,0.7C29.5,97.2,29.2,97.7,28.7,97.9z"/>
						</g>
					</g>
					<g>
						<path class="st2" d="M84.1,76.5L21.6,95.8c-0.5,0.2-1.1-0.1-1.3-0.7L8.9,58c-0.2-0.5,0.1-1.1,0.7-1.3l62.5-19.3
							c0.5-0.2,1.1,0.1,1.3,0.7l11.5,37.1C85,75.8,84.7,76.3,84.1,76.5z"/>
					</g>
					<g>
						<path class="st3" d="M76,33L4.7,55l-3-9.8C1.4,44.1,2,43,3.1,42.7l67.4-20.8c1.1-0.3,2.2,0.3,2.6,1.4L76,33z"/>
					</g>
					<g>
						<g>
							<path class="st1" d="M51.9,41.5L5,56c-0.5,0.2-1.1-0.1-1.3-0.7l-3-9.8c-0.5-1.6,0.4-3.3,2-3.8l49.8-15.4
								c0.5-0.2,1.1,0.1,1.3,0.7s-0.1,1.1-0.7,1.3L3.4,43.6c-0.5,0.2-0.8,0.7-0.7,1.3l2.7,8.8l45.9-14.2c0.5-0.2,1.1,0.1,1.3,0.7
								C52.8,40.8,52.5,41.3,51.9,41.5z"/>
						</g>
					</g>
					<g>
						<g>
							<circle class="st4" cx="30.3" cy="40.7" r="2"/>
							<path class="st1" d="M31,43.2c-1.4,0.4-2.9-0.4-3.3-1.7c-0.4-1.4,0.4-2.9,1.7-3.3c1.4-0.4,2.9,0.4,3.3,1.7S32.4,42.8,31,43.2
								z M29.8,39.3c-0.8,0.2-1.2,1.1-1,1.8c0.2,0.8,1.1,1.2,1.8,1c0.8-0.2,1.2-1.1,1-1.8C31.4,39.5,30.6,39.1,29.8,39.3z"/>
						</g>
						<g>
							<circle class="st5" cx="20.5" cy="43.7" r="2"/>
							<path class="st1" d="M21.3,46.2c-1.4,0.4-2.9-0.4-3.3-1.7c-0.4-1.4,0.4-2.9,1.7-3.3c1.4-0.4,2.9,0.4,3.3,1.7
								S22.7,45.8,21.3,46.2z M20.1,42.3c-0.8,0.2-1.2,1.1-1,1.8c0.2,0.8,1.1,1.2,1.8,1c0.8-0.2,1.2-1.1,1-1.8
								C21.7,42.5,20.8,42.1,20.1,42.3z"/>
						</g>
						<g>
							<circle class="st6" cx="10.7" cy="46.7" r="2"/>
							<path class="st1" d="M11.5,49.2c-1.4,0.4-2.9-0.4-3.3-1.7c-0.4-1.4,0.4-2.9,1.7-3.3c1.4-0.4,2.9,0.4,3.3,1.7
								C13.7,47.3,12.9,48.8,11.5,49.2z M10.3,45.3c-0.8,0.2-1.2,1.1-1,1.8c0.2,0.8,1.1,1.2,1.8,1c0.8-0.2,1.2-1.1,1-1.8
								C11.9,45.5,11.1,45.1,10.3,45.3z"/>
						</g>
					</g>
				</g>
				<g>
					<g>
						<path class="st7" d="M79.6,75.8L24.9,92.6c-0.5,0.2-1.1-0.1-1.3-0.7l-4.2-13.7c-0.2-0.5,0.1-1.1,0.7-1.3l54.7-16.9
							c0.5-0.2,1.1,0.1,1.3,0.7l4.2,13.7C80.5,75,80.2,75.6,79.6,75.8z"/>
					</g>
					<g>
						<path class="st7" d="M73.6,56.2L18.9,73.1c-0.5,0.2-1.1-0.1-1.3-0.7l-4.2-13.7c-0.2-0.5,0.1-1.1,0.7-1.3l54.7-16.9
							c0.5-0.2,1.1,0.1,1.3,0.7l4.2,13.7C74.4,55.5,74.1,56,73.6,56.2z"/>
					</g>
				</g>
			</g>
			<g>
				<g>
					<g>
						<path class="st0" d="M109.5,99.7l-68.4,21.1c-0.5,0.2-1.1-0.1-1.3-0.7l-13.6-44l70.3-21.7l13.6,44
							C110.3,99,110,99.5,109.5,99.7z"/>
					</g>
					<g>
						<g>
							<path class="st1" d="M109.8,100.7l-68.4,21.1c-1.1,0.3-2.2-0.3-2.6-1.4l-13.6-44l2-0.6l13.6,44l68.4-21.1l-13.6-44l2-0.6
								l13.6,44C111.5,99.2,110.9,100.4,109.8,100.7z"/>
						</g>
					</g>
					<g>
						<path class="st2" d="M105.6,97.7L43.1,117c-0.5,0.2-1.1-0.1-1.3-0.7L30.4,79.2c-0.2-0.5,0.1-1.1,0.7-1.3l62.5-19.3
							c0.5-0.2,1.1,0.1,1.3,0.7l11.5,37.1C106.5,96.9,106.2,97.5,105.6,97.7z"/>
					</g>
					<g>
						<path class="st8" d="M96.6,54.5L26.2,76.2l-3-9.8c-0.3-1.1,0.3-2.2,1.4-2.6L91,43.3c1.1-0.3,2.2,0.3,2.6,1.4L96.6,54.5z"/>
					</g>
					<g>
						<g>
							<path class="st1" d="M59.8,66.9L26.5,77.1c-0.5,0.2-1.1-0.1-1.3-0.7l-3-9.8c-0.5-1.6,0.4-3.3,2-3.8l31.3-9.6
								c0.5-0.2,1.1,0.1,1.3,0.7c0.2,0.5-0.1,1.1-0.7,1.3l-31.3,9.6c-0.5,0.2-0.8,0.7-0.7,1.3l2.7,8.8l32.2-9.9
								c0.5-0.2,1.1,0.1,1.3,0.7C60.6,66.2,60.3,66.7,59.8,66.9z"/>
						</g>
					</g>
					<g>
						<g>
							<path class="st1" d="M96.9,55.4c-0.5,0.2-1.1-0.1-1.3-0.7l-3-9.8c-0.2-0.5-0.7-0.8-1.3-0.7s-1.1-0.1-1.3-0.7
								c-0.2-0.5,0.1-1.1,0.7-1.3c1.6-0.5,3.3,0.4,3.8,2l3,9.8C97.7,54.7,97.4,55.3,96.9,55.4z"/>
						</g>
					</g>
					<g>
						<g>
							<circle class="st4" cx="51.8" cy="61.9" r="2"/>
							<path class="st1" d="M52.6,64.4c-1.4,0.4-2.9-0.4-3.3-1.7c-0.4-1.4,0.4-2.9,1.7-3.3s2.9,0.4,3.3,1.7
								C54.7,62.5,53.9,64,52.6,64.4z M51.4,60.5c-0.8,0.2-1.2,1.1-1,1.8c0.2,0.8,1.1,1.2,1.8,1c0.8-0.2,1.2-1.1,1-1.8
								C52.9,60.7,52.1,60.2,51.4,60.5z"/>
						</g>
						<g>
							<circle class="st5" cx="42" cy="64.9" r="2"/>
							<path class="st1" d="M42.8,67.4c-1.4,0.4-2.9-0.4-3.3-1.7s0.4-2.9,1.7-3.3c1.4-0.4,2.9,0.4,3.3,1.7
								C45,65.5,44.2,67,42.8,67.4z M41.6,63.5c-0.8,0.2-1.2,1.1-1,1.8c0.2,0.8,1.1,1.2,1.8,1c0.8-0.2,1.2-1.1,1-1.8
								C43.2,63.7,42.4,63.3,41.6,63.5z"/>
						</g>
						<g>
							<circle class="st6" cx="32.2" cy="67.9" r="2"/>
							<path class="st1" d="M33,70.4c-1.4,0.4-2.9-0.4-3.3-1.7s0.4-2.9,1.7-3.3s2.9,0.4,3.3,1.7C35.2,68.5,34.4,70,33,70.4z
								 M31.8,66.5c-0.8,0.2-1.2,1.1-1,1.8c0.2,0.8,1.1,1.2,1.8,1c0.8-0.2,1.2-1.1,1-1.8C33.4,66.7,32.6,66.3,31.8,66.5z"/>
						</g>
					</g>
				</g>
				<g>
					<g>
						<path class="st7" d="M101.1,96.9l-54.7,16.9c-0.5,0.2-1.1-0.1-1.3-0.7l-4.2-13.7c-0.2-0.5,0.1-1.1,0.7-1.3l54.7-16.9
							c0.5-0.2,1.1,0.1,1.3,0.7l4.2,13.7C102,96.2,101.7,96.8,101.1,96.9z"/>
					</g>
					<g>
						<path class="st7" d="M95.1,77.4L40.4,94.3c-0.5,0.2-1.1-0.1-1.3-0.7l-4.2-13.7c-0.2-0.5,0.1-1.1,0.7-1.3l54.7-16.9
							c0.5-0.2,1.1,0.1,1.3,0.7l4.2,13.7C95.9,76.7,95.6,77.2,95.1,77.4z"/>
					</g>
				</g>
			</g>
		</g>
		<g>
			<g>
				<g id="path5172_3_">
					<path class="st9" d="M72.3,42.7c2.7,0.5,5.3,0.2,7.6-0.7c0,0,0,0,0,0c0.4-0.2,0.9-0.4,1.2-0.6l0,0c0.4-0.2,0.8-0.5,1.1-0.6
						c0,0,0,0,0,0c0.8-0.5,1.7-1.2,2.4-2c0,0,0,0,0,0c3.3-3.5,4.6-8.5,3.1-13.3l-3.9-12.7C81.7,5.8,74.2,1.8,67.1,4
						C60,6.2,56,13.7,58.2,20.8l3.9,12.7c0.7,2.3,2,4.3,3.7,5.9c0.3-1.1,0.7-2.3,1.2-3.3c0.6-1.1,1.3-2.1,2.2-3
						c-0.3-0.5-0.5-1-0.7-1.5l-3.9-12.7c-1.1-3.5,0.9-7.3,4.4-8.4c3.5-1.1,7.3,0.9,8.4,4.4l3.9,12.7c1.1,3.5-0.9,7.3-4.4,8.4
						C74,36.8,72.1,39.7,72.3,42.7C72.2,42.7,72.3,42.7,72.3,42.7"/>
				</g>
			</g>
			<g id="g5174_3_" transform="translate(466.8496,466.8496)">
				<g id="path5176_3_">
					<path class="st10" d="M-380-399c-7.1,2.2-14.6-1.8-16.8-8.9l-3.9-12.7c-2.2-7.1,1.8-14.6,8.9-16.8c2.3-0.7,4.6-0.8,6.7-0.3
						c0.1,3-1.7,5.8-4.7,6.7c-3.5,1.1-5.5,4.9-4.4,8.4l4,12.9l0,0c1.2,3.4,4.9,5.3,8.3,4.2c3.5-1.1,5.5-4.9,4.4-8.4l-3.9-12.7
						c-0.2-0.5-0.4-1.1-0.7-1.5c0.9-0.9,1.6-1.9,2.2-3c0.5-1,1-2.1,1.2-3.3c1.7,1.6,3,3.6,3.7,5.9l3.9,12.7
						C-368.9-408.7-372.9-401.2-380-399"/>
				</g>
			</g>
			<g id="g5178_3_" transform="translate(246.7451,328.9209)">
				<g id="path5180_3_">
					<path class="st1" d="M-167.6-285.7c-2.3,0.7-4.8,0.8-7.1,0.3c-0.3-0.1-0.6-0.3-0.7-0.6c0-0.1-0.1-0.3,0-0.4
						c0.1-0.5,0.6-0.8,1-0.7c2.1,0.4,4.2,0.3,6.3-0.3c0,0,0,0,0,0c6.6-2.1,10.3-9.1,8.3-15.7c0,0,0,0,0,0l-3.9-12.7
						c-1-3.2-3.2-5.8-6.1-7.4c-3-1.6-6.4-1.9-9.6-0.9c-3.2,1-5.8,3.2-7.4,6.1c-1.6,3-1.9,6.4-0.9,9.6c0,0,0,0,0,0l3.9,12.7
						c0.7,2.1,1.9,4,3.5,5.5c0.1,0.1,0.2,0.2,0.2,0.4c0.1,0.3,0,0.6-0.2,0.9c-0.3,0.4-0.9,0.4-1.2,0c-1.8-1.7-3.2-3.9-4-6.3
						l-3.9-12.7c0,0,0,0,0,0c-1.1-3.6-0.8-7.5,1-10.9c1.8-3.4,4.8-5.9,8.4-7c0,0,0,0,0,0c3.7-1.1,7.5-0.8,10.9,1
						c3.4,1.8,5.9,4.8,7,8.4l3.9,12.7c0,0,0,0,0,0C-155.8-296.1-160-288.1-167.6-285.7C-167.6-285.7-167.6-285.7-167.6-285.7z"/>
				</g>
			</g>
			<g id="g5182_3_" transform="translate(328.9209,246.7451)">
				<g id="path5184_3_">
					<path class="st1" d="M-243.8-184.5c-3.6,1.1-7.4-0.5-9-3.9c-0.2-0.4,0-1,0.4-1.2c0.4-0.2,1,0,1.2,0.4c1.3,2.6,4.2,3.8,6.9,3
						c0,0,0,0,0,0c1.5-0.5,2.7-1.5,3.4-2.9c0.7-1.4,0.9-3,0.4-4.5l-3.9-12.7c-0.1-0.5-0.4-0.9-0.6-1.3c-0.3-0.4-0.1-1,0.3-1.2
						c0.4-0.3,1-0.1,1.2,0.3c0.3,0.5,0.6,1.1,0.8,1.7l3.9,12.7c0.6,1.9,0.4,4-0.5,5.8C-240.3-186.4-241.9-185.1-243.8-184.5
						C-243.8-184.5-243.8-184.5-243.8-184.5z"/>
				</g>
			</g>
			<g id="g5186_3_" transform="translate(290.0762,374.9287)">
				<g id="path5188_3_">
					<path class="st1" d="M-215.7-324.6c-0.5,0.1-1-0.1-1.1-0.6l-1.6-5.2c-1.2-4,1-8.3,5-9.5c1.5-0.5,2.7-1.5,3.4-2.9
						c0.7-1.4,0.9-3,0.4-4.5l-3.9-12.7c-0.5-1.5-1.5-2.7-2.9-3.4c-1.4-0.7-3-0.9-4.4-0.4c0,0,0,0,0,0c-1.5,0.5-2.7,1.5-3.4,2.9
						c-0.7,1.4-0.9,3-0.4,4.5l3.9,12.7c0.1,0.5,0.4,0.9,0.6,1.3c0.3,0.4,0.1,1-0.3,1.2c-0.4,0.3-1,0.1-1.2-0.3
						c-0.3-0.5-0.6-1.1-0.8-1.7l-3.9-12.7c-1.2-4,1-8.3,5-9.5c0,0,0,0,0,0c4-1.2,8.3,1,9.5,5l3.9,12.7c0.6,1.9,0.4,4-0.5,5.8
						c-0.9,1.8-2.5,3.1-4.5,3.7c-1.5,0.5-2.7,1.5-3.4,2.9c-0.7,1.4-0.9,3-0.4,4.5l1.6,5.2C-215-325.2-215.2-324.7-215.7-324.6
						L-215.7-324.6z"/>
				</g>
			</g>
			<g id="path5192_3_">
				<path class="st1" d="M87.1,68.7c-3.7,1.1-7.5,0.8-10.9-1c-3.4-1.8-5.9-4.8-7-8.4l-3.9-12.7c0,0,0,0,0,0c-1.1-3.6-0.8-7.5,1-10.9
					c1.8-3.4,4.8-5.9,8.4-7c0,0,0,0,0,0c2.3-0.7,4.8-0.8,7.1-0.3c0.3,0.1,0.6,0.3,0.7,0.6c0,0.1,0.1,0.3,0,0.4
					c-0.1,0.5-0.6,0.8-1,0.7c-2.1-0.4-4.2-0.3-6.3,0.3c0,0,0,0,0,0c-3.2,1-5.8,3.2-7.4,6.1c-1.6,3-1.9,6.4-0.9,9.6c0,0,0,0,0,0
					l3.9,12.7c1,3.2,3.2,5.8,6.1,7.4c3,1.6,6.4,1.9,9.6,0.9c0,0,0,0,0,0c3.2-1,5.8-3.2,7.4-6.1c1.6-3,1.9-6.4,0.9-9.6c0,0,0,0,0,0
					l-3.9-12.7c-0.7-2.1-1.9-4-3.5-5.5c-0.1-0.1-0.2-0.2-0.2-0.4c-0.1-0.3,0-0.6,0.2-0.9c0.3-0.4,0.9-0.4,1.2,0
					c1.8,1.7,3.2,3.9,4,6.3l3.9,12.7c0,0,0,0,0,0c1.1,3.6,0.8,7.5-1,10.9C93.8,65.1,90.8,67.5,87.1,68.7
					C87.1,68.7,87.1,68.7,87.1,68.7z"/>
			</g>
			<g id="g5194_3_" transform="translate(325.4316,396.1416)">
				<g id="path5196_3_">
					<path d="M-248.9-342.7c-0.2-0.6-0.8-0.9-1.4-0.7c-0.6,0.2-0.9,0.8-0.7,1.4c0.2,0.6,0.8,0.9,1.4,0.7
						C-249.1-341.5-248.7-342.1-248.9-342.7"/>
				</g>
			</g>
			<g id="g5210_4_" transform="translate(383.2793,128.7207)">
				<g id="path5212_4_">
					<path class="st1" d="M-286.8-97.9c-0.5,0.1-1-0.1-1.1-0.6c-0.1-0.5,0.1-1,0.6-1.1l6.4-2l0,0c0.5-0.1,1,0.1,1.1,0.6
						c0.1,0.5-0.1,1-0.6,1.1L-286.8-97.9L-286.8-97.9z"/>
				</g>
			</g>
			<g id="g5214_4_" transform="translate(333,95)">
				<g id="path5216_4_">
					<path class="st1" d="M-239.7-70.2c-0.2,0.1-0.5,0.1-0.7-0.1c-0.4-0.2-0.6-0.8-0.4-1.2l3.1-5.9c0.2-0.4,0.8-0.6,1.2-0.4
						c0.4,0.2,0.6,0.8,0.4,1.2l-3.1,5.9C-239.3-70.4-239.5-70.3-239.7-70.2z"/>
				</g>
			</g>
			<g id="g5218_4_" transform="translate(417,179)">
				<g id="path5220_4_">
					<path class="st1" d="M-313.9-138.3c-0.2,0.1-0.5,0.1-0.7-0.1l-5.9-3.1c-0.4-0.2-0.6-0.8-0.4-1.2c0.2-0.4,0.8-0.6,1.2-0.4
						l5.9,3.1c0.4,0.2,0.6,0.8,0.4,1.2C-313.4-138.5-313.6-138.4-313.9-138.3z"/>
				</g>
			</g>
		</g>
	</g>
	<g id="Layer_63_1_">
		<g>
			<g>
				<circle class="st11" cx="281.6" cy="112.8" r="24.6"/>
			</g>
			<g>
				<g>
					<path class="st12" d="M271.8,108.9c0.2,0,0.4,0,0.5-0.1l-0.1-0.4c0,0,0,0,0,0c0-0.3,0.2-0.5,0.5-0.5c1.6,0,6.1-0.2,8.5-4.6
						c0.1-0.2,0.4-0.3,0.7-0.2c0.8,0.6,2.9,1.6,6.4,1.1c0.2,0,0.5,0.1,0.5,0.4c0,0,0,0.1,0,0.1l0.2,1.1c0.2-0.1,0.3-0.1,0.5-0.1
						c0.9-0.2,1.9,0.1,2.6,0.5l-1.1-6.3c-0.5-2.6-3-4.4-5.6-3.9c-0.9,0.2-1.7,0.6-2.3,1.1c-1.1-1.2-2.8-1.9-4.5-1.6l-2.4,0.4
						c-4.7,0.8-7.9,5.4-7.1,10.1l0.7,3.9C270.3,109.5,271,109.1,271.8,108.9z"/>
				</g>
			</g>
			<g>
				<path class="st13" d="M289.5,105.8c-0.2,0-0.4,0.1-0.5,0.1l1.1,6.3c0,0.2,0.1,0.4,0.1,0.6c0.2,0,0.4,0,0.6,0
					c1.9-0.3,3.2-2.2,2.9-4.1S291.4,105.5,289.5,105.8L289.5,105.8z"/>
			</g>
			<g>
				<path class="st13" d="M273.4,115.2c-0.2-0.9-0.8-4.6-1.1-6.3c-0.2,0-0.4,0-0.5,0.1c-1.9,0.3-3.2,2.2-2.9,4.1
					c0.3,1.9,2.2,3.2,4.1,2.9c0.2,0,0.4-0.1,0.5-0.1C273.5,115.6,273.5,115.4,273.4,115.2z"/>
			</g>
			<g>
				<path class="st13" d="M281.2,103.4c-2.4,4.4-6.9,4.6-8.5,4.6c-0.3,0-0.5,0.2-0.5,0.5l0,0l1.2,6.7c0.8,4.6,5.2,7.7,9.8,6.9
					c4.6-0.8,7.7-5.2,6.9-9.8l-1.3-7.4c0,0,0-0.1,0-0.1c0-0.2-0.3-0.4-0.5-0.4c-3.5,0.5-5.5-0.5-6.4-1.1
					C281.7,103.1,281.4,103.2,281.2,103.4L281.2,103.4z"/>
			</g>
			<g>
				<path class="st14" d="M279.9,131.5c0.4,0.3,1,0.2,1.3-0.2l1.8-2.5c0.3-0.4,0.2-1-0.2-1.3l-3.5-2.5c-0.2,0.3-0.4,0.6-0.7,0.9
					c0,0-0.4,0.3-0.8,0.6c-0.8,0.6-1.7,1.2-2.7,1.6L279.9,131.5z"/>
			</g>
			<g>
				<path class="st14" d="M288.4,130c0.4,0.3,1,0.2,1.3-0.2l3.4-4.9c-1.1-0.1-2.1-0.3-3.1-0.6c-0.5-0.1-0.9-0.3-1-0.3
					c-0.3-0.1-0.6-0.3-0.8-0.5l-2.5,3.5c-0.3,0.4-0.2,1,0.2,1.3L288.4,130z"/>
			</g>
			<g>
				<path class="st15" d="M285.9,137c6.4-1.1,11.8-4.7,15.4-9.6c-0.5-1.2-1.6-2.1-2.9-2.2l-5-0.4c-0.1,0-0.3,0-0.4,0l-3.4,4.9
					c-0.3,0.4-0.9,0.5-1.3,0.2l-2.5-1.8c-0.4-0.3-0.5-0.9-0.2-1.3l2.5-3.5c-0.5-0.4-0.8-1-0.9-1.7l-0.2-1.4c-1,0.8-2.3,1.4-3.7,1.6
					c-1.4,0.2-2.7,0.1-4-0.3l0.2,1.4c0.1,0.7,0,1.3-0.3,1.9l3.5,2.5c0.4,0.3,0.5,0.9,0.2,1.3l-1.8,2.5c-0.3,0.4-0.9,0.5-1.3,0.2
					l-4.9-3.4c-0.1,0.1-0.2,0.1-0.4,0.2l-4.6,2.1c-1.2,0.5-2,1.7-2,3C273.2,136.7,279.4,138.2,285.9,137z"/>
			</g>
			<g>
				<path class="st13" d="M283.1,128.3l2.5-0.4c-0.2-0.3-0.1-0.7,0.1-0.9l2.5-3.5c-0.5-0.4-0.8-1-0.9-1.7l-0.2-1.4
					c-1,0.8-2.3,1.4-3.7,1.6c-1.4,0.2-2.7,0.1-4-0.3l0.2,1.4c0.1,0.7,0,1.3-0.3,1.9l3.5,2.5C283,127.7,283.1,128,283.1,128.3
					L283.1,128.3z"/>
			</g>
			<g>
				<g>
					<path class="st1" d="M292.2,107.1c-0.6,0.1-1.2-0.3-1.3-0.9l-1-5.9c-0.4-2-2.3-3.4-4.3-3c-0.7,0.1-1.3,0.4-1.8,0.9
						c-0.2,0.2-0.5,0.3-0.8,0.3c-0.3,0-0.6-0.2-0.8-0.4c-0.9-1-2.2-1.5-3.5-1.2l-2.4,0.4c-4.1,0.7-6.9,4.7-6.2,8.8l0.6,3.6
						c0.1,0.6-0.3,1.2-0.9,1.3c-0.6,0.1-1.2-0.3-1.3-0.9l-0.6-3.6c-0.9-5.3,2.6-10.4,8-11.4l2.4-0.4c1.7-0.3,3.5,0.2,4.8,1.3
						c0.6-0.4,1.3-0.6,2-0.8c3.2-0.6,6.3,1.6,6.9,4.8l1,5.9C293.2,106.4,292.8,107,292.2,107.1L292.2,107.1z"/>
				</g>
			</g>
			<g>
				<path class="st1" d="M290.9,113.8c-0.1,0-0.2,0-0.3,0c-0.6,0.1-1.1-0.4-1.2-1c-0.1-0.6,0.4-1.1,1-1.2c0,0,0.1,0,0.1,0
					c1.3-0.2,2.2-1.5,2-2.8c-0.2-1.3-1.5-2.2-2.8-2c-0.1,0-0.1,0-0.2,0c-0.6,0.2-1.2-0.2-1.3-0.8c-0.2-0.6,0.2-1.2,0.8-1.3
					c0.1,0,0.2-0.1,0.3-0.1c2.5-0.4,4.9,1.2,5.4,3.8S293.4,113.4,290.9,113.8L290.9,113.8z"/>
			</g>
			<g>
				<path class="st1" d="M273.2,117c-2.5,0.4-4.9-1.2-5.4-3.8c-0.4-2.5,1.2-4.9,3.8-5.4c0.1,0,0.3,0,0.4-0.1c0.6,0,1.1,0.4,1.2,1
					c0,0.6-0.4,1.1-1,1.2c-0.1,0-0.2,0-0.2,0c-1.3,0.2-2.2,1.5-2,2.8c0.2,1.3,1.5,2.2,2.8,2c0.1,0,0.1,0,0.2,0
					c0.6-0.2,1.2,0.2,1.3,0.8c0.2,0.6-0.2,1.2-0.8,1.3C273.4,116.9,273.3,117,273.2,117z"/>
			</g>
			<g>
				<path class="st1" d="M283.4,123.1c-5.2,0.9-10.2-2.6-11.1-7.7l-1.2-6.7c-0.1-0.5,0-0.9,0.4-1.3c0.3-0.4,0.8-0.5,1.2-0.5
					c1.6,0,5.5-0.2,7.5-4c0.2-0.4,0.6-0.7,1-0.8c0.4-0.1,0.9,0,1.2,0.2c0.6,0.4,2.4,1.4,5.6,0.9c0.8-0.1,1.6,0.4,1.7,1.2l0,0.2
					l1.3,7.4C292.1,117.2,288.6,122.2,283.4,123.1z M273.5,109.1l1.1,5.9c0.7,4,4.5,6.7,8.5,6c4-0.7,6.7-4.5,6-8.5l-1.2-6.9
					c-2.8,0.3-4.8-0.4-5.9-1C279.5,108.3,275.5,109,273.5,109.1L273.5,109.1z M288.4,105.4L288.4,105.4
					C288.4,105.4,288.4,105.4,288.4,105.4z M281.2,103.4L281.2,103.4L281.2,103.4z"/>
			</g>
			<g>
				<path class="st1" d="M280.7,132.7c-0.5,0.1-1,0-1.5-0.3l-4.9-3.4c-0.3-0.2-0.5-0.6-0.5-1c0-0.4,0.3-0.7,0.6-0.9
					c0.9-0.4,1.7-0.9,2.5-1.5c0.4-0.3,0.7-0.5,0.7-0.5c0.2-0.1,0.3-0.3,0.5-0.6c0.1-0.3,0.4-0.5,0.7-0.5c0.3-0.1,0.6,0,0.9,0.2
					l3.5,2.5c0.9,0.6,1.1,1.9,0.5,2.8l-1.8,2.5C281.7,132.4,281.3,132.6,280.7,132.7z M280.5,130.6L280.5,130.6L280.5,130.6z
					 M277.1,128.2l3.3,2.3l1.6-2.2l-2.5-1.8c-0.1,0.1-0.2,0.2-0.3,0.3c0,0-0.4,0.3-0.8,0.6C277.9,127.7,277.5,127.9,277.1,128.2
					L277.1,128.2z"/>
			</g>
			<g>
				<path class="st1" d="M289.2,131.2c-0.5,0.1-1,0-1.5-0.3l-2.5-1.8c-0.4-0.3-0.7-0.8-0.8-1.3s0-1.1,0.3-1.5l2.5-3.5
					c0.2-0.3,0.5-0.4,0.8-0.5c0.3,0,0.6,0.1,0.9,0.3c0.2,0.1,0.3,0.2,0.5,0.3c0,0,0.2,0.1,0.9,0.3c0.9,0.3,1.9,0.5,2.9,0.6
					c0.4,0,0.7,0.3,0.9,0.6c0.2,0.4,0.1,0.8-0.1,1.1l-3.4,4.9C290.2,130.9,289.8,131.1,289.2,131.2L289.2,131.2z M289,129.1
					L289,129.1L289,129.1z M286.6,127.4l2.2,1.6l2.3-3.3c-0.5-0.1-1-0.2-1.5-0.4c-1-0.3-1.1-0.3-1.1-0.4c0,0-0.1,0-0.1,0
					L286.6,127.4z"/>
			</g>
			<g>
				<path class="st1" d="M285.6,129l-2.1,0.4c-0.6,0.1-1.2-0.3-1.3-0.9c-0.1-0.6,0.3-1.2,0.9-1.3l2.1-0.4c0.6-0.1,1.2,0.3,1.3,0.9
					C286.6,128.3,286.2,128.9,285.6,129z"/>
			</g>
			<g>
				<path class="st1" d="M268.3,134.3c-0.1,0-0.2,0-0.2,0c-0.6,0-1.1-0.5-1-1.1c0.1-1.7,1.1-3.2,2.6-3.8l4.6-2.1
					c0.1,0,0.1-0.1,0.2-0.1l0.1-0.1c0.5-0.3,1.2,0,1.5,0.5c0.3,0.5,0,1.2-0.5,1.5l-0.1,0.1c-0.1,0-0.2,0.1-0.3,0.1l-4.6,2.1
					c-0.8,0.3-1.3,1.1-1.3,1.9C269.2,133.8,268.8,134.2,268.3,134.3L268.3,134.3z"/>
			</g>
			<g>
				<path class="st1" d="M279.4,126.1c-0.2,0-0.5,0-0.7-0.1c-0.5-0.3-0.7-1-0.4-1.5c0.2-0.4,0.3-0.8,0.2-1.2l-0.2-1.1
					c-0.1-0.6,0.3-1.2,0.9-1.3c0.6-0.1,1.2,0.3,1.3,0.9l0.2,1.1c0.2,0.9,0,1.8-0.4,2.6C280,125.9,279.7,126.1,279.4,126.1
					L279.4,126.1z"/>
			</g>
			<g>
				<path class="st1" d="M288.3,124.5c-0.3,0.1-0.7,0-0.9-0.3c-0.7-0.6-1.1-1.4-1.3-2.3l-0.2-1.1c-0.1-0.6,0.3-1.2,0.9-1.3
					s1.2,0.3,1.3,0.9l0.2,1.1c0.1,0.4,0.3,0.8,0.6,1c0.5,0.4,0.5,1.1,0.1,1.5C288.7,124.4,288.5,124.5,288.3,124.5L288.3,124.5z"/>
			</g>
			<g>
				<path class="st1" d="M301.5,128.4c-0.5,0.1-1-0.2-1.2-0.6c-0.3-0.8-1.1-1.3-1.9-1.4l-5-0.4c-0.1,0-0.2,0-0.3,0l-0.1,0
					c-0.6-0.1-1-0.6-1-1.2c0.1-0.6,0.6-1,1.2-1l0.2,0c0.1,0,0.1,0,0.2,0l5,0.4c1.7,0.1,3.1,1.1,3.7,2.7c0.2,0.6,0,1.2-0.6,1.4
					C301.6,128.3,301.5,128.4,301.5,128.4L301.5,128.4z"/>
			</g>
			<g>
				<path class="st1" d="M257.8,105.3c-0.2,0-0.4,0-0.6,0l-12-4.4c-0.6-0.2-0.9-0.8-0.7-1.4c0.2-0.6,0.8-0.9,1.4-0.7l12,4.4
					c0.6,0.2,0.9,0.8,0.7,1.4C258.5,105,258.1,105.2,257.8,105.3L257.8,105.3z"/>
			</g>
			<g>
				<path class="st1" d="M319.5,127.5c-0.2,0-0.4,0-0.6,0l-13.7-5c-0.6-0.2-0.9-0.8-0.7-1.4c0.2-0.6,0.8-0.9,1.4-0.7l13.7,5
					c0.6,0.2,0.9,0.8,0.7,1.4C320.2,127.2,319.9,127.4,319.5,127.5L319.5,127.5z"/>
			</g>
			<g>
				<path class="st1" d="M290.4,89.9c-0.2,0-0.4,0-0.6,0c-0.6-0.2-0.9-0.8-0.7-1.4l4.2-11.6c0.2-0.6,0.8-0.9,1.4-0.7
					c0.6,0.2,0.9,0.8,0.7,1.4l-4.2,11.6C291.1,89.5,290.8,89.8,290.4,89.9L290.4,89.9z"/>
			</g>
			<g>
				<circle class="st15" cx="298" cy="65.8" r="11.6"/>
			</g>
			<g>
				<circle class="st13" cx="297.4" cy="62.4" r="3.3"/>
			</g>
			<g>
				<path class="st16" d="M301.7,68.5l-6.2,1.1c-2.6,0.5-4.3,2.9-3.9,5.5l0.1,0.5c2.4,1.5,5.3,2.2,8.3,1.7c3-0.5,5.5-2.2,7.2-4.4
					l-0.1-0.5C306.8,69.8,304.3,68.1,301.7,68.5z"/>
			</g>
			<g>
				<path class="st1" d="M300.2,78.4c-6.9,1.2-13.5-3.4-14.7-10.3c-1.2-6.9,3.4-13.5,10.3-14.7c6.9-1.2,13.5,3.4,14.7,10.3
					C311.8,70.5,307.2,77.1,300.2,78.4z M296.2,55.5c-5.7,1-9.5,6.5-8.5,12.2c1,5.7,6.5,9.5,12.2,8.5c5.7-1,9.5-6.5,8.5-12.2
					C307.4,58.3,301.9,54.5,296.2,55.5z"/>
			</g>
			<g>
				<path class="st1" d="M298.2,66.7c-2.4,0.4-4.7-1.2-5.1-3.6c-0.4-2.4,1.2-4.7,3.6-5.1c2.4-0.4,4.7,1.2,5.1,3.6
					C302.2,64,300.6,66.3,298.2,66.7z M297,60.2c-1.2,0.2-2,1.4-1.8,2.5c0.2,1.2,1.4,2,2.5,1.8s2-1.4,1.8-2.5
					C299.4,60.8,298.2,60,297,60.2z"/>
			</g>
			<g>
				<path class="st1" d="M307.4,73.7c-0.6,0.1-1.2-0.3-1.3-0.9l0-0.2c-0.4-2-2.3-3.3-4.2-3l-6.2,1.1c-2,0.4-3.3,2.3-3,4.2l0,0.2
					c0.1,0.6-0.3,1.2-0.9,1.3c-0.6,0.1-1.2-0.3-1.3-0.9l0-0.2c-0.6-3.2,1.6-6.2,4.7-6.8l6.2-1.1c3.2-0.6,6.2,1.6,6.8,4.7l0,0.2
					C308.4,73,308,73.6,307.4,73.7z"/>
			</g>
			<g>
				<circle class="st17" cx="234.5" cy="95.8" r="11.6"/>
			</g>
			<g>
				<circle class="st13" cx="233.9" cy="92.3" r="3.3"/>
			</g>
			<g>
				<path class="st16" d="M238.2,98.5l-6.2,1.1c-2.6,0.5-4.3,2.9-3.9,5.5l0.1,0.5c2.4,1.5,5.3,2.2,8.3,1.7c3-0.5,5.5-2.2,7.2-4.4
					l-0.1-0.5C243.2,99.7,240.7,98,238.2,98.5z"/>
			</g>
			<g>
				<path class="st1" d="M236.7,108.3c-6.9,1.2-13.5-3.4-14.7-10.3c-1.2-6.9,3.4-13.5,10.3-14.7c6.9-1.2,13.5,3.4,14.7,10.3
					C248.2,100.5,243.6,107.1,236.7,108.3z M232.7,85.4c-5.7,1-9.5,6.5-8.5,12.2c1,5.7,6.5,9.5,12.2,8.5s9.5-6.5,8.5-12.2
					S238.4,84.4,232.7,85.4z"/>
			</g>
			<g>
				<path class="st1" d="M234.7,96.6c-2.4,0.4-4.7-1.2-5.1-3.6c-0.4-2.4,1.2-4.7,3.6-5.1c2.4-0.4,4.7,1.2,5.1,3.6
					C238.6,93.9,237,96.2,234.7,96.6z M233.5,90.2c-1.2,0.2-2,1.4-1.8,2.5c0.2,1.2,1.4,2,2.5,1.8s2-1.4,1.8-2.5
					S234.7,89.9,233.5,90.2z"/>
			</g>
			<g>
				<path class="st1" d="M228.4,106.4c-0.6,0.1-1.2-0.3-1.3-0.9l0-0.2c-0.6-3.2,1.6-6.2,4.7-6.8l6.2-1.1c3.2-0.6,6.2,1.6,6.8,4.7
					l0,0.2c0.1,0.6-0.3,1.2-0.9,1.3c-0.6,0.1-1.2-0.3-1.3-0.9l0-0.2c-0.4-2-2.3-3.3-4.2-3l-6.2,1.1c-2,0.4-3.3,2.3-3,4.2l0,0.2
					C229.4,105.7,229,106.3,228.4,106.4z"/>
			</g>
			<g>
				<circle class="st16" cx="328.4" cy="129.3" r="9"/>
			</g>
			<g>
				<circle class="st13" cx="327.9" cy="126.6" r="2.6"/>
			</g>
			<g>
				<path class="st17" d="M331.2,131.4l-4.8,0.8c-2,0.4-3.3,2.3-3,4.3l0.1,0.4c1.8,1.2,4.1,1.7,6.4,1.3c2.3-0.4,4.3-1.7,5.6-3.4
					l-0.1-0.4C335.2,132.4,333.2,131,331.2,131.4L331.2,131.4z"/>
			</g>
			<g>
				<path class="st1" d="M330.2,139.2c-5.5,1-10.7-2.7-11.7-8.2c-1-5.5,2.7-10.7,8.2-11.7c5.5-1,10.7,2.7,11.7,8.2
					C339.3,133,335.7,138.3,330.2,139.2z M327,121.5c-4.3,0.8-7.2,4.9-6.4,9.2c0.8,4.3,4.9,7.2,9.2,6.4c4.3-0.8,7.2-4.9,6.4-9.2
					S331.3,120.7,327,121.5z"/>
			</g>
			<g>
				<path class="st1" d="M328.6,130.2c-2,0.4-3.9-1-4.2-3c-0.4-2,1-3.9,3-4.2c2-0.4,3.9,1,4.2,3
					C331.9,127.9,330.5,129.8,328.6,130.2z M327.7,125.2c-0.8,0.1-1.3,0.9-1.2,1.7c0.1,0.8,0.9,1.3,1.7,1.2c0.8-0.1,1.3-0.9,1.2-1.7
					C329.2,125.6,328.5,125,327.7,125.2z"/>
			</g>
			<g>
				<path class="st1" d="M323.7,137.7c-0.6,0.1-1.2-0.3-1.3-0.9l0-0.2c-0.5-2.6,1.3-5.1,3.9-5.6l4.8-0.8c2.6-0.5,5.1,1.3,5.6,3.9
					l0,0.2c0.1,0.6-0.3,1.2-0.9,1.3c-0.6,0.1-1.2-0.3-1.3-0.9l0-0.2c-0.2-1.4-1.6-2.4-3-2.1l-4.8,0.8c-1.4,0.2-2.4,1.6-2.1,3l0,0.2
					C324.7,137.1,324.3,137.6,323.7,137.7z"/>
			</g>
			<g>
				<g>
					<g>
						<path class="st16" d="M317.4,78.4c-2,0-3.8-1.2-4.5-3.1c0-0.1-0.2-0.1-0.2,0c-0.1,2-1.3,3.7-3.2,4.4c-0.1,0-0.1,0.1,0,0.2
							c2,0,3.8,1.2,4.5,3.1c0,0.1,0.2,0.1,0.2,0c0.1-2,1.3-3.7,3.2-4.4C317.5,78.5,317.5,78.4,317.4,78.4z"/>
					</g>
				</g>
			</g>
			<g>
				<path class="st1" d="M270.2,145.7c-0.2,0-0.4,0-0.6,0c-0.6-0.2-0.9-0.8-0.7-1.4l2.9-8c0.2-0.6,0.8-0.9,1.4-0.7
					c0.6,0.2,0.9,0.8,0.7,1.4l-2.9,8C270.9,145.4,270.6,145.6,270.2,145.7L270.2,145.7z"/>
			</g>
			<g>
				<circle class="st18" cx="265.3" cy="157.8" r="13.6"/>
			</g>
			<g>
				<circle class="st13" cx="264.5" cy="153.4" r="4.4"/>
			</g>
			<g>
				<path class="st19" d="M269.6,160.9l-7.2,1.3c-3,0.5-5.1,3.4-4.5,6.5l0.1,0.6c2.8,1.8,6.2,2.6,9.7,2c3.5-0.6,6.5-2.5,8.5-5.2
					l-0.1-0.6C275.5,162.4,272.6,160.4,269.6,160.9L269.6,160.9z"/>
			</g>
			<g>
				<path class="st1" d="M267.9,172.3c-8,1.4-15.6-3.9-17.1-11.9c-1.4-8,3.9-15.6,11.9-17.1c8-1.4,15.6,3.9,17.1,11.9
					C281.2,163.2,275.9,170.9,267.9,172.3z M263.1,145.4c-6.8,1.2-11.4,7.7-10.2,14.5c1.2,6.8,7.7,11.4,14.5,10.2
					c6.8-1.2,11.4-7.7,10.2-14.5C276.4,148.8,269.9,144.2,263.1,145.4z"/>
			</g>
			<g>
				<path class="st1" d="M265.5,158.9c-3,0.5-5.9-1.5-6.4-4.5c-0.5-3,1.5-5.9,4.5-6.4s5.9,1.5,6.4,4.5
					C270.5,155.5,268.5,158.3,265.5,158.9z M263.9,150.2c-1.8,0.3-3,2-2.7,3.9c0.3,1.8,2,3,3.9,2.7c1.8-0.3,3-2,2.7-3.9
					C267.5,151.1,265.8,149.8,263.9,150.2z"/>
			</g>
			<g>
				<path class="st1" d="M276.3,166.9c-0.6,0.1-1.2-0.3-1.3-0.9l-0.1-0.3c-0.4-2.4-2.8-4.1-5.2-3.6l-7.2,1.3
					c-2.4,0.4-4.1,2.8-3.6,5.2l0.1,0.3c0.1,0.6-0.3,1.2-0.9,1.3s-1.2-0.3-1.3-0.9l-0.1-0.3c-0.6-3.6,1.8-7.1,5.4-7.7l7.2-1.3
					c3.6-0.6,7.1,1.8,7.7,5.4l0.1,0.3C277.3,166.2,276.9,166.8,276.3,166.9z"/>
			</g>
			<g>
				<g>
					<g>
						<path class="st17" d="M287.5,147.3c-1,0-1.9-0.6-2.2-1.5c0,0-0.1,0-0.1,0c0,1-0.6,1.9-1.6,2.2c0,0,0,0.1,0,0.1
							c1,0,1.9,0.6,2.2,1.5c0,0,0.1,0,0.1,0C286,148.7,286.6,147.8,287.5,147.3C287.6,147.4,287.5,147.3,287.5,147.3z"/>
					</g>
				</g>
			</g>
			<g>
				<g>
					<g>
						<circle class="st18" cx="246.2" cy="131.7" r="1.5"/>
					</g>
				</g>
			</g>
			<g>
				<g>
					<g>
						<circle class="st17" cx="308.6" cy="89.1" r="1.5"/>
					</g>
				</g>
			</g>
			<g>
				<g>
					<g>
						<path class="st15" d="M245.9,142.5l-1,0.2l-0.2-1c-0.1-0.7-0.8-1.3-1.6-1.1c-0.8,0.1-1.3,0.8-1.1,1.6l0.2,1l-1,0.2
							c-0.7,0.1-1.3,0.8-1.1,1.6c0.1,0.8,0.8,1.3,1.6,1.1l1-0.2l0.2,1c0.1,0.7,0.8,1.3,1.6,1.1s1.3-0.8,1.1-1.6l-0.2-1l1-0.2
							c0.7-0.1,1.3-0.8,1.1-1.6C247.4,142.9,246.7,142.4,245.9,142.5z"/>
					</g>
				</g>
			</g>
			<g>
				<path class="st1" d="M286.1,138.1c-13.9,2.5-27.3-6.9-29.7-20.8c-2.5-13.9,6.9-27.3,20.8-29.7c13.9-2.5,27.3,6.9,29.7,20.8
					C309.3,122.3,300,135.6,286.1,138.1z M277.5,89.7c-12.7,2.3-21.3,14.4-19,27.2s14.4,21.3,27.2,19c12.7-2.3,21.3-14.4,19-27.2
					S290.3,87.5,277.5,89.7z"/>
			</g>
		</g>
	</g>
	<g>
		<path class="st20" d="M522.2,120l-75-38c-2.2-1.1-3.1-3.8-2-6l35.3-69.7c1.1-2.2,3.8-3.1,6-2l75,38c2.2,1.1,3.1,3.8,2,6L528.2,118
			C527.1,120.2,524.4,121.1,522.2,120z"/>
		<path class="st21" d="M561.6,42.4l-5.8-3c2.2,1.1,3.1,3.8,2,6l-35.3,69.7c-1.1,2.2-3.8,3.1-6,2l5.8,3c2.2,1.1,4.9,0.2,6-2
			l35.3-69.7C564.6,46.2,563.8,43.5,561.6,42.4z"/>
		<path class="st22" d="M475,17.3l83,42l5.6-11c1.1-2.2,0.2-4.9-2-6l-75-38c-2.2-1.1-4.9-0.2-6,2L475,17.3z"/>
		<path class="st23" d="M561.6,42.4l-5.8-3c2.2,1.1,3.1,3.8,2,6l-5.6,11l5.8,3l5.6-11C564.6,46.2,563.8,43.5,561.6,42.4z"/>
		<path class="st24" d="M491.7,16.4c-0.8,1.6-2.8,2.3-4.4,1.5c-1.6-0.8-2.3-2.8-1.5-4.4s2.8-2.3,4.4-1.5
			C491.9,12.8,492.5,14.7,491.7,16.4z"/>
		<path class="st25" d="M501.7,21.4c-0.8,1.6-2.8,2.3-4.4,1.5c-1.6-0.8-2.3-2.8-1.5-4.4s2.8-2.3,4.4-1.5
			C501.8,17.8,502.5,19.8,501.7,21.4z"/>
		<path class="st26" d="M511.6,26.5c-0.8,1.6-2.8,2.3-4.4,1.5c-1.6-0.8-2.3-2.8-1.5-4.4c0.8-1.6,2.8-2.3,4.4-1.5
			C511.8,22.9,512.5,24.9,511.6,26.5z"/>
		<path class="st22" d="M497.4,86.4l-8.9,2.9c-7.7,2.5-16-1.7-18.5-9.4c-2.5-7.7,1.7-16,9.4-18.5l8.9-2.9c7.7-2.5,16,1.7,18.5,9.4
			c0.4,1.2-0.3,2.5-1.5,2.9c-1.2,0.4-2.5-0.3-2.9-1.5c-1.7-5.3-7.4-8.2-12.7-6.4l-8.9,2.9c-5.3,1.7-8.2,7.4-6.5,12.7
			c1.7,5.3,7.4,8.2,12.7,6.4L496,82c1.2-0.4,2.5,0.3,2.9,1.5C499.3,84.7,498.6,86,497.4,86.4z"/>
		<path class="st23" d="M498.2,82.5c-0.3,0.3-0.6,0.6-1.1,0.7l-8.9,2.9c-7.7,2.5-16-1.7-18.5-9.4c-0.2-0.7-0.4-1.3-0.5-2
			c-0.1,1.7,0.2,3.4,0.7,5.1c2.5,7.7,10.8,11.9,18.5,9.4l8.9-2.9c1.2-0.4,1.9-1.7,1.5-2.9C498.8,83.1,498.5,82.8,498.2,82.5z"/>
		<path class="st22" d="M521.7,78.3l-8.9,2.9c-7.7,2.5-16-1.7-18.5-9.4c-0.4-1.2,0.3-2.5,1.5-2.9c1.2-0.4,2.5,0.3,2.9,1.5
			c1.7,5.3,7.4,8.2,12.7,6.4l8.9-2.9c5.3-1.7,8.2-7.4,6.4-12.7c-1.7-5.3-7.4-8.2-12.7-6.4l-8.9,2.9c-1.2,0.4-2.5-0.3-2.9-1.5
			c-0.4-1.2,0.3-2.5,1.5-2.9l8.9-2.9c7.7-2.5,16,1.7,18.5,9.4S529.4,75.8,521.7,78.3z"/>
		<path class="st23" d="M531.1,59.8c-1.3-4.1-4.3-7.2-8-8.8c1.7,1.6,3,3.7,3.8,6c0.9,2.7,0.9,5.5,0.3,8.1c-0.3,3.5-2.3,6.7-5.6,8.3
			c-1.2,0.9-2.6,1.6-4.1,2.1l-8.9,2.9c-3.6,1.2-7.3,0.9-10.5-0.6c3.8,3.6,9.4,5.1,14.7,3.4l8.9-2.9
			C529.4,75.8,533.6,67.4,531.1,59.8z"/>
		<path class="st1" d="M486.9,18.5c-2-1-2.8-3.5-1.8-5.5c1-2,3.5-2.8,5.5-1.8s2.8,3.5,1.8,5.5C491.4,18.8,488.9,19.6,486.9,18.5z
			 M489.9,12.7c-1.2-0.6-2.7-0.1-3.4,1.1s-0.1,2.7,1.1,3.4c1.2,0.6,2.7,0.1,3.4-1.1C491.6,14.8,491.1,13.3,489.9,12.7z"/>
		<path class="st1" d="M496.9,23.6c-2-1-2.8-3.5-1.8-5.5c1-2,3.5-2.8,5.5-1.8s2.8,3.5,1.8,5.5C501.4,23.8,498.9,24.6,496.9,23.6z
			 M499.8,17.7c-1.2-0.6-2.7-0.1-3.4,1.1c-0.6,1.2-0.1,2.7,1.1,3.4c1.2,0.6,2.7,0.1,3.4-1.1C501.6,19.8,501.1,18.3,499.8,17.7z"/>
		<path class="st1" d="M506.8,28.7c-2-1-2.8-3.5-1.8-5.5c1-2,3.5-2.8,5.5-1.8c2,1,2.8,3.5,1.8,5.5S508.9,29.7,506.8,28.7z
			 M509.8,22.8c-1.2-0.6-2.7-0.1-3.4,1.1c-0.6,1.2-0.1,2.7,1.1,3.4s2.7,0.1,3.4-1.1C511.5,24.9,511.1,23.4,509.8,22.8z"/>
		<path class="st1" d="M521.9,33.3l30.5,15.4c0.7,0.4,1.5,0.1,1.9-0.6c0.4-0.7,0.1-1.5-0.6-1.9l-30.5-15.4c-0.7-0.4-1.5-0.1-1.9,0.6
			C520.9,32.1,521.2,32.9,521.9,33.3z"/>
		<path class="st1" d="M562.2,41.1l-75-38c-2.9-1.5-6.4-0.3-7.9,2.6L444,75.4c-1.5,2.9-0.3,6.4,2.6,7.9l75,38
			c2.9,1.5,6.4,0.3,7.9-2.6L564.8,49C566.2,46.1,565.1,42.6,562.2,41.1z M522.9,118.7l-75-38c-1.5-0.8-2.1-2.6-1.3-4.1l29.1-57.4
			l7,3.5c0.7,0.4,1.5,0.1,1.9-0.6c0.4-0.7,0.1-1.5-0.6-1.9l-7-3.5l4.9-9.7c0.8-1.5,2.6-2.1,4.1-1.3l75,38c1.5,0.8,2.1,2.6,1.3,4.1
			l-4.9,9.7l-68.8-34.9c-0.7-0.4-1.5-0.1-1.9,0.6c-0.4,0.7-0.1,1.5,0.6,1.9L556.1,60L527,117.4C526.2,118.9,524.4,119.5,522.9,118.7
			z"/>
		<path class="st1" d="M501.2,81.1c-3.7-1.9-6.4-5.1-7.7-9c-0.5-1.6,0.4-3.4,2-3.9c0.8-0.3,1.6-0.2,2.4,0.2c0.7,0.4,1.3,1,1.5,1.8
			c0.8,2.4,2.4,4.3,4.6,5.4c2.2,1.1,4.7,1.3,7.1,0.5l8.9-2.9c4.9-1.6,7.5-6.8,5.9-11.7c-0.8-2.4-2.4-4.3-4.6-5.4
			c-2.2-1.1-4.7-1.3-7.1-0.5l-8.9,2.9c-0.8,0.3-1.6,0.2-2.4-0.2c-0.7-0.4-1.3-1-1.5-1.8c-0.3-0.8-0.2-1.6,0.2-2.4
			c0.4-0.7,1-1.3,1.8-1.5l8.9-2.9c3.9-1.3,8.1-1,11.8,0.9c3.7,1.9,6.4,5.1,7.7,9c2.7,8.1-1.8,16.9-9.9,19.5L513,82
			C509.1,83.2,504.9,82.9,501.2,81.1z M497.1,69.8c-0.4-0.2-0.8-0.2-1.1-0.1c-0.8,0.3-1.2,1.1-1,1.9c1.2,3.5,3.6,6.4,6.9,8.1
			c3.3,1.7,7.1,2,10.6,0.8l8.9-2.9c3.5-1.2,6.4-3.6,8.1-6.9c1.7-3.3,2-7.1,0.8-10.6c-1.2-3.5-3.6-6.4-6.9-8.1s-7.1-2-10.6-0.8
			l-8.9,2.9c-0.8,0.3-1.2,1.1-1,1.9c0.1,0.4,0.4,0.7,0.7,0.9c0.4,0.2,0.8,0.2,1.1,0.1l8.9-2.9c2.8-0.9,5.7-0.7,8.3,0.6
			c2.6,1.3,4.5,3.6,5.4,6.3c1.9,5.7-1.3,11.9-7,13.7l-8.9,2.9c-2.8,0.9-5.7,0.7-8.3-0.6c-2.6-1.3-4.5-3.6-5.4-6.3
			C497.7,70.3,497.4,70,497.1,69.8z"/>
		<path class="st1" d="M476.9,89.2c-0.5-0.2-0.9-0.5-1.4-0.8c-3-1.9-5.2-4.8-6.4-8.2c-2.7-8.1,1.8-16.9,9.9-19.5l8.9-2.9
			c3.9-1.3,8.1-1,11.8,0.9c3.7,1.9,6.4,5.1,7.7,9c0.3,0.8,0.2,1.6-0.2,2.4c-0.4,0.7-1,1.3-1.8,1.5c-0.8,0.3-1.6,0.2-2.4-0.2
			c-0.7-0.4-1.3-1-1.5-1.8c-0.8-2.4-2.4-4.3-4.6-5.4c-2.2-1.1-4.7-1.3-7.1-0.5l-8.9,2.9c-2.4,0.8-4.3,2.4-5.4,4.6
			c-1.1,2.2-1.3,4.7-0.5,7.1c0.8,2.4,2.4,4.3,4.6,5.4c2.2,1.1,4.7,1.3,7.1,0.5l8.9-2.9c0.8-0.3,1.6-0.2,2.4,0.2
			c0.7,0.4,1.3,1,1.5,1.8c0.3,0.8,0.2,1.6-0.2,2.4c-0.4,0.7-1,1.3-1.8,1.5l-6.9,2.3c-0.2,0.1-0.4,0.1-0.6,0
			c-0.2-0.1-0.3-0.3-0.4-0.5c-0.1-0.4,0.1-0.9,0.5-1l6.9-2.3c0.8-0.3,1.2-1.1,1-1.9c-0.1-0.4-0.4-0.7-0.7-0.9
			c-0.4-0.2-0.8-0.2-1.1-0.1l-8.9,2.9c-2.8,0.9-5.7,0.7-8.3-0.6c-2.6-1.3-4.5-3.6-5.4-6.3c-0.9-2.8-0.7-5.7,0.6-8.3
			c1.3-2.6,3.6-4.5,6.3-5.4l8.9-2.9c2.8-0.9,5.7-0.7,8.3,0.6s4.5,3.6,5.4,6.3c0.1,0.4,0.4,0.7,0.7,0.9c0.4,0.2,0.8,0.2,1.1,0.1
			c0.8-0.3,1.2-1.1,1-1.9c-1.2-3.5-3.6-6.4-6.9-8.1c-3.3-1.7-7.1-2-10.6-0.8l-8.9,2.9c-7.3,2.4-11.2,10.2-8.9,17.5
			c1.1,3.5,3.7,6.4,6.9,8c0,0,0,0,0,0c2.4,1.2,5,1.7,7.6,1.4c0.2,0,0.3,0,0.4,0.1c0.2,0.1,0.4,0.4,0.4,0.6c0,0.2,0,0.4-0.2,0.6
			c-0.1,0.2-0.3,0.3-0.5,0.3C482.5,91.1,479.6,90.5,476.9,89.2z"/>
	</g>
</g>
</svg>
