<?xml version="1.0" encoding="utf-8"?>
<!-- Generator: Adobe Illustrator 25.0.0, SVG Export Plug-In . SVG Version: 6.00 Build 0)  -->
<svg version="1.1" id="Layer_1" xmlns="http://www.w3.org/2000/svg" xmlns:xlink="http://www.w3.org/1999/xlink" x="0px" y="0px"
	 viewBox="0 0 461 250" style="enable-background:new 0 0 461 250;" xml:space="preserve">
<style type="text/css">
	.st0{fill:#FCF9F5;}
	.st1{fill:#3F597D;}
	.st2{fill:#5D748A;}
	.st3{fill:#F0E9E6;}
	.st4{fill:none;}
	.st5{fill:#35414D;}
	.st6{fill:#656D78;}
	.st7{fill:#F4F6F8;}
	.st8{fill:#E4E8EB;}
	.st9{fill:#FDF6EC;stroke:#35414D;stroke-width:2.3139;stroke-miterlimit:10;}
	.st10{fill:#F16C7A;}
	.st11{fill:#3A312A;}
	.st12{fill:#D7E057;}
	.st13{fill:#8AC6DD;}
	.st14{fill:#87796F;}
	.st15{fill:#F9EDE1;}
	.st16{fill:#FEDA9B;}
	.st17{fill:#FFB954;}
	.st18{fill:#FF5D5D;}
	.st19{fill:#FF5A5A;}
	.st20{fill:#C1A897;}
	.st21{fill:#FFFFFF;}
	.st22{fill-rule:evenodd;clip-rule:evenodd;fill:#FFB54C;}
	.st23{fill-rule:evenodd;clip-rule:evenodd;fill:#35414D;}
	.st24{fill-rule:evenodd;clip-rule:evenodd;fill:#FFA733;}
	.st25{fill-rule:evenodd;clip-rule:evenodd;fill:#2FB1D4;}
	.st26{fill-rule:evenodd;clip-rule:evenodd;fill:#FF5A5A;}
	.st27{fill:#F6C560;}
	.st28{opacity:4.000000e-02;}
</style>
<g>
	<g>
		<g>
			<path class="st0" d="M357.7,39.9v151.5H108.6l-0.2-151.1c0-5.6,1.7-10.6,7.3-10.6h231.9C353.2,29.8,357.7,34.3,357.7,39.9
				L357.7,39.9z"/>
			<path class="st1" d="M250.7,233l-4.6-14.2l0,0h0l-2.1-6.6l-12.8-12l-12,12l-6.7,20.8h12.3l0,0H250.7z"/>
			<path class="st2" d="M271.2,238.9c-2.3-4.8-7.2-8.1-12.8-8.1h-47.2l-5.8,2.1c-0.8,0-12.2,4.4-12.2,11.5c0,2.8,2.3,5.1,5.1,5.1
				l67.5-0.5c2.8,0,5.1-2.3,5.1-5.1c0-1,1.6-1,1.4-1.9C272,240.8,271.7,239.8,271.2,238.9L271.2,238.9z"/>
			<path class="st1" d="M272.6,244.9c0,2.8-2.3,5.1-5.1,5.1h-71.7c-2.8,0-5.1-2.3-5.1-5.1c0-7.1,5.2-12.9,12-14
				c0.7-0.1,1.5-0.2,2.2-0.2h6.3l-3.5,4.6c-2,2.7-0.1,6.5,3.2,6.5h61.3C272.4,242.9,272.6,243.9,272.6,244.9L272.6,244.9z"/>
			<path class="st3" d="M115.7,181.3V29.8c-5.6,0-10.1,4.5-10.1,10.1v151.5h3h7.1h242v-8.1h-240
				C116.6,183.4,115.7,182.5,115.7,181.3z"/>
			<path class="st2" d="M357.7,191.5v5.2c0,5.6-7.7,13.6-13.3,13.6l-226.1,0.1c-5.6,0-10.1-4.5-10.1-10.1l-2.5-8.7H357.7z"/>
			<path class="st4" d="M347.6,33.6H115.7c-3.5,0-6.3,2.8-6.3,6.3v162.1c0,3.5,2.8,6.3,6.3,6.3h213.6v-19.6h24.6V39.9
				C353.9,36.4,351.1,33.6,347.6,33.6z"/>
			<path class="st1" d="M115.7,208.4c-3.5,0-6.3-2.8-6.3-6.3V39.9c0-3.5,2.8-6.3,6.3-6.3h231.9c3.5,0,6.3,2.8,6.3,6.3v148.9l7.6-1.5
				V39.9c0-7.7-6.3-14-14-14H115.7c-7.7,0-14,6.3-14,14v162.1c0,7.7,6.3,14,14,14h216.7l-3.1-7.6H115.7z"/>
		</g>
		<path class="st5" d="M213.5,203.1h36.4c1.6,0,2.9-1.3,2.9-2.9c0-1.6-1.3-2.9-2.9-2.9h-36.4c-1.6,0-2.9,1.3-2.9,2.9
			C210.6,201.8,211.9,203.1,213.5,203.1z"/>
		<g>
			<polygon class="st6" points="320.3,20.7 319.5,20.7 319.5,35.8 145,35.8 145,18.9 142.7,16.6 143.9,7.2 149.4,4.1 160.7,5.5 
				301.3,5.5 301.3,4.1 319.5,5.5 			"/>
			<path class="st7" d="M319.5,35.8v125c0,8.7-7,15.7-15.7,15.7H160.7c-11.2,3.1-21.5,0-15.7-15.7l0,0v-125L319.5,35.8z"/>
			<path class="st8" d="M319.5,35.8v125c0.7,8.3,5.9,18.6-15.7,15.7H160.7c-19,1.9-19-5.9-16.9-12.1c1.2,0.3,3.9,0.3,5.1,0.3h17.9
				c73.2,0,134.3-56,140.4-128.9L319.5,35.8z"/>
			<g>
				<path class="st9" d="M300.7,25h-61.8c-2.4,0-4.4-2-4.4-4.4v0c0-2.4,2-4.4,4.4-4.4h61.8c2.4,0,4.4,2,4.4,4.4v0
					C305,23,303.1,25,300.7,25z"/>
				<g>
					<circle class="st10" cx="163.9" cy="20.6" r="5.2"/>
					<path class="st11" d="M163.9,27c-3.5,0-6.4-2.9-6.4-6.4s2.9-6.4,6.4-6.4c3.5,0,6.4,2.9,6.4,6.4S167.4,27,163.9,27z M163.9,16.6
						c-2.2,0-4.1,1.8-4.1,4.1s1.8,4.1,4.1,4.1s4.1-1.8,4.1-4.1C168,18.4,166.2,16.6,163.9,16.6z"/>
				</g>
				<g>
					<circle class="st12" cx="180.1" cy="20.6" r="5.2"/>
					<path class="st11" d="M180.1,27c-3.5,0-6.4-2.9-6.4-6.4s2.9-6.4,6.4-6.4c3.5,0,6.4,2.9,6.4,6.4S183.6,27,180.1,27z M180.1,16.6
						c-2.2,0-4.1,1.8-4.1,4.1s1.8,4.1,4.1,4.1c2.2,0,4.1-1.8,4.1-4.1C184.2,18.4,182.4,16.6,180.1,16.6z"/>
				</g>
				<g>
					<circle class="st13" cx="196.3" cy="20.6" r="5.2"/>
					<path class="st11" d="M196.3,27c-3.5,0-6.4-2.9-6.4-6.4s2.9-6.4,6.4-6.4s6.4,2.9,6.4,6.4S199.8,27,196.3,27z M196.3,16.6
						c-2.2,0-4.1,1.8-4.1,4.1s1.8,4.1,4.1,4.1s4.1-1.8,4.1-4.1C200.4,18.4,198.5,16.6,196.3,16.6z"/>
				</g>
			</g>
			<path class="st5" d="M310.3,5.5c5.1,0,9.2,4.1,9.2,9.2v152.5c0,5.1-4.1,9.2-9.2,9.2H154.2c-5.1,0-9.2-4.1-9.2-9.2V14.7
				c0-5.1,4.1-9.2,9.2-9.2H310.3 M310.3,0H154.2c-8.1,0-14.7,6.6-14.7,14.7v152.5c0,8.1,6.6,14.7,14.7,14.7h156.1
				c8.1,0,14.7-6.6,14.7-14.7V14.7C325,6.6,318.4,0,310.3,0L310.3,0z"/>
		</g>
		<g>
			<path class="st14" d="M194.6,90L181,100.9v50.4c0,4.7,3.8,8.4,8.4,8.4h84.3c4.7,0,8.4-3.8,8.4-8.4v-50.4l-13.6-10.6"/>
			<rect x="195.4" y="58.5" class="st15" width="72.4" height="78.4"/>
			<path class="st16" d="M245.4,137.8h-28.7L181,100.9v50.4c0,4.7,3.8,8.4,8.4,8.4h84.3c4.7,0,8.4-3.8,8.4-8.4v-50.4L245.4,137.8z"
				/>
			<path class="st17" d="M188,158.2l29.8-27.1c7.8-7.1,19.7-7.1,27.5,0l29.8,27.1H188z"/>
			<g>
				<path class="st18" d="M252.5,83.2c2.6-2.6,2.6-6.8,0-9.5c-2.6-2.6-6.8-2.6-9.5,0L252.5,83.2z"/>
				<path class="st19" d="M230.7,108.3l-7.7,7.7c-3.5,3.5-9.3,3.5-12.8,0l0,0c-3.5-3.5-3.5-9.3,0-12.8l7.7-7.7L230.7,108.3z"/>
			</g>
			<polygon class="st14" points="230.8,108.3 239.8,117.4 234.3,122.9 225.2,113.8 			"/>
			<polygon class="st20" points="230.8,108.3 218,95.5 232,62.6 263.7,94.3 			"/>
			<polygon class="st21" points="255.2,97.9 263.7,94.3 232,62.6 228.4,71.1 			"/>
			<path class="st5" d="M219.7,71.4c-0.4,0-0.7-0.1-1-0.4s-0.4-0.6-0.4-1s0.1-0.7,0.4-1s0.6-0.4,1-0.4c0.4,0,0.7,0.1,1,0.4
				s0.4,0.6,0.4,1s-0.1,0.7-0.4,1S220.1,71.4,219.7,71.4z"/>
			<path class="st5" d="M203.8,71.4c-0.7,0-1.4-0.6-1.4-1.4s0.6-1.4,1.4-1.4h8.3c0.7,0,1.4,0.6,1.4,1.4s-0.6,1.4-1.4,1.4H203.8z"/>
			<path class="st5" d="M203.8,82.9c-0.7,0-1.4-0.6-1.4-1.4c0-0.7,0.6-1.4,1.4-1.4h9.9c0.7,0,1.4,0.6,1.4,1.4c0,0.7-0.6,1.4-1.4,1.4
				H203.8z"/>
			<path class="st5" d="M189.5,161c-5.4,0-9.8-4.4-9.8-9.8v-50.4c0-0.4,0.2-0.8,0.5-1.1l13.6-10.9l0,0l0.3-0.2V58.5
				c0-0.7,0.6-1.4,1.4-1.4h25.1c0.7,0,1.4,0.6,1.4,1.4c0,0.7-0.6,1.4-1.4,1.4h-23.7v54.5c0,0,0,0,0,0c0,0,0,0,0,0v0.3l17.7,17.7
				l2.5-2.2c4-3.7,9.2-5.7,14.7-5.7c0.2,0,0.4,0,0.6,0l1.8,0l-8.8-8.8L224,117c-2,2-4.6,3-7.4,3c-2.8,0-5.4-1.1-7.4-3
				c-2-2-3-4.6-3-7.4c0-2.8,1.1-5.4,3-7.4l7.6-7.6l13.9-32.7c0.2-0.4,0.5-0.7,1-0.8c0.1,0,0.2,0,0.3,0c0.4,0,0.7,0.1,1,0.4
				l10.2,10.2l0.5-0.3c1.3-0.8,2.7-1.2,4.2-1.2c2.1,0,4.2,0.8,5.7,2.4c1.5,1.5,2.4,3.5,2.4,5.7c0,1.5-0.4,2.9-1.2,4.2l-0.3,0.5
				l10.2,10.2c0.3,0.3,0.5,0.8,0.4,1.2c-0.1,0.4-0.4,0.8-0.8,1l-31.1,13.2l7.6,7.6c0.5,0.5,0.5,1.4,0,1.9l-6.3,6.3l1.3,0.3
				c3.9,0.8,7.6,2.6,10.5,5.3l2.5,2.2l17.7-17.7v-0.3l0,0l0-27.9c0-0.7,0.6-1.4,1.4-1.4c0.7,0,1.4,0.6,1.4,1.4V89l0.3,0.2l0,0
				l13.1,10.2l0.5,0.4c0.3,0.3,0.5,0.6,0.5,1.1v50.4c0,5.4-4.4,9.8-9.8,9.8H189.5z M190,158.3h83.3l-28.8-26.2
				c-3.5-3.2-8.1-5-12.9-5c-4.7,0-9.3,1.8-12.9,5L201.3,148h12.4c0.7,0,1.4,0.6,1.4,1.4s-0.6,1.4-1.4,1.4h-15.4L190,158.3z
				 M250.8,134.2l25.3,23c0,0,0.1,0.1,0.1,0.1l0.4,0.4l0.5-0.3c2.3-1.2,3.8-3.6,3.8-6.3v-47.1L250.8,134.2z M182.4,151.2
				c0,2.6,1.4,5,3.8,6.3l0.5,0.3l0.4-0.4c0,0,0.1-0.1,0.1-0.1l25.3-23l-30.1-30.1V151.2z M227.2,113.8l7.1,7.1l3.6-3.6l-7.1-7.1
				L227.2,113.8z M211.2,104.2c-1.5,1.5-2.3,3.4-2.3,5.4c0,2.1,0.8,4,2.3,5.4c1.5,1.5,3.4,2.3,5.4,2.3s4-0.8,5.4-2.3l6.8-6.8
				L218,97.5L211.2,104.2z M269.2,112l11-11l-11-8.6V112z M183.1,101l11,11V92.1L183.1,101z M219.6,95.2l11.5,11.5l21.8-9.3l-24-24
				L219.6,95.2z M230,70.8l25.5,25.5l5.8-2.5L232.4,65L230,70.8z M247.8,73.1c-0.6,0-1.1,0.1-1.7,0.3l-1.1,0.4l7.5,7.5l0.4-1.1
				c0.2-0.6,0.3-1.1,0.3-1.7c0-1.4-0.6-2.8-1.6-3.8C250.6,73.7,249.2,73.1,247.8,73.1z"/>
			<path class="st19" d="M259.6,68.2c-0.4,0-0.7-0.1-1-0.4c-0.5-0.5-0.5-1.4,0-1.9l8.3-8.3c0.3-0.3,0.6-0.4,1-0.4
				c0.4,0,0.7,0.1,1,0.4c0.5,0.5,0.5,1.4,0,1.9l-8.3,8.3C260.3,68.1,260,68.2,259.6,68.2z"/>
			<path class="st19" d="M251.9,64c-0.7,0-1.4-0.6-1.4-1.4v-4.1c0-0.7,0.6-1.4,1.4-1.4s1.4,0.6,1.4,1.4v4.1
				C253.2,63.4,252.6,64,251.9,64z"/>
			<path class="st19" d="M263.7,75.8c-0.7,0-1.4-0.6-1.4-1.4s0.6-1.4,1.4-1.4h4.3c0.7,0,1.4,0.6,1.4,1.4s-0.6,1.4-1.4,1.4H263.7z"/>
			<path class="st5" d="M222.1,151.1c-0.4,0-0.9-0.2-1.2-0.5c-0.3-0.3-0.5-0.8-0.5-1.2c0-0.5,0.2-0.9,0.5-1.2
				c0.3-0.3,0.8-0.5,1.2-0.5c0.4,0,0.9,0.2,1.2,0.5c0.3,0.3,0.5,0.8,0.5,1.2s-0.2,0.9-0.5,1.2C223,150.9,222.5,151.1,222.1,151.1z"
				/>
		</g>
		<path class="st21" d="M332.2,152.2c-19,0-34.4,15.4-34.4,34.4c0,12.4,6.6,23.3,16.4,29.4H331l8.1-14.6l22.4-14.7v-18.2
			C355.4,158.7,344.6,152.2,332.2,152.2z"/>
		<g>
			<path class="st22" d="M360.5,186.7c0,8.8-4.1,17.4-11.7,22.9l-16.5-22.9h4.8H360.5z"/>
			<circle class="st23" cx="332.2" cy="186.7" r="29.3"/>
			<circle class="st23" cx="332.2" cy="186.7" r="28.3"/>
			<path class="st23" d="M332.2,158.4c15.6,0,28.3,12.7,28.3,28.3h-28.3V158.4z"/>
			<path class="st24" d="M349.2,205.6l-11.6-16.2h19.9C356.8,195.8,353.8,201.5,349.2,205.6L349.2,205.6z"/>
			<path class="st25" d="M306.7,186.7c0,14.1,11.4,25.5,25.5,25.5c4.6,0,8.9-1.2,12.6-3.3l-14.8-20.6l0,0c-0.3-0.5-0.5-1-0.5-1.6
				v-25.3C316.6,162.7,306.7,173.5,306.7,186.7z"/>
			<path class="st26" d="M357.5,183.9H335v-22.6C346.8,162.6,356.2,172,357.5,183.9z"/>
		</g>
	</g>
	<g>
		<g>
			<g>
				<g>
					<g>
						<path class="st27" d="M75.8,113.6v41.9c0,1.6-1.2,3-2.6,3H3.7c-1.6,0-2.6-1.3-2.6-3v-41.9c0-1.6,1.2-2.8,2.6-2.8H73
							C74.6,110.8,75.8,112.1,75.8,113.6L75.8,113.6z"/>
					</g>
					<g class="st28">
						<path d="M75.8,113.6v41.9c0,1.6-1.2,3-2.6,3H3.7c-1.4,0-2.6-1.3-2.6-3v-3.3h26.6c22.3,0,40.6-18.3,42.2-41.6h3.3
							C74.6,110.8,75.8,112.1,75.8,113.6L75.8,113.6z"/>
					</g>
				</g>
				<path class="st5" d="M3.7,159.6c-2.1,0-3.7-1.8-3.7-4.1v-41.9c0-2.2,1.7-3.9,3.7-3.9H73c1.1,0,2.2,0.4,2.7,1.1
					c0.6,0.8,1,1.9,1,2.8v41.9c0,2.3-1.6,4.1-3.7,4.1H3.7z M2.1,155.5c0,0.9,0.6,1.9,1.6,1.9H73c1.1,0,1.8-0.7,1.8-1.9v-42.3
					l-33.1,24.5c-1.1,0.8-2.2,1.2-3.4,1.2c-1.1,0-2.4-0.5-3.4-1.2L2.1,113.2V155.5z M36,136c0.7,0.5,1.5,0.7,2.3,0.7
					s1.6-0.2,2.3-0.7l32.4-24.1h-8.2l0,0C64.2,112,62,112,54,112c0,0,0,0,0,0c-12.2,0-30.6-0.1-30.8-0.1H3.6L36,136z"/>
			</g>
		</g>
		<g>
			<g>
				<path class="st2" d="M87.3,100.4c-5-5.7-12.8-3.6-19-1.5c-3.6,1.2-7.3,2.5-11.2,2.6c-4.9,0.1-7.9-3.6-10-7.6
					c-0.2-0.4-1-0.1-0.8,0.3c2.9,7.6,8.7,9.9,16.3,8.1c7.9-1.9,16.6-7.3,23.7-0.9C87,102.1,87.9,101.1,87.3,100.4z"/>
				<path class="st2" d="M89.2,96.7c-5.2-6.3-12.8-5-19.8-2.7c-3.8,1.2-7.5,2.7-11.5,3c-4.6,0.3-7.5-2.4-9.4-6.3
					c-0.2-0.5-1.1-0.1-0.9,0.3c7,19,29.6-6.6,40.4,6.8C88.7,98.6,89.8,97.5,89.2,96.7z"/>
				<path class="st2" d="M89.6,91.7c-0.6-0.7-1.7,0.2-1.2,1c1.5,2.3,4.4,5.8,1.9,8.5c-2,2.2-6.2,2.3-9,2.4c-0.8,0-0.8,1.2,0,1.2
					c3.5,0.1,8.3,0,10.7-2.9C94.5,98.7,91.8,94.1,89.6,91.7z"/>
			</g>
		</g>
	</g>
	<g>
		<g>
			<g>
				<g>
					<g>
						<path class="st27" d="M385.2,113.6v41.9c0,1.6,1.2,3,2.6,3h69.5c1.6,0,2.6-1.3,2.6-3v-41.9c0-1.6-1.2-2.8-2.6-2.8H388
							C386.4,110.8,385.2,112.1,385.2,113.6L385.2,113.6z"/>
					</g>
					<g class="st28">
						<path d="M385.2,113.6v41.9c0,1.6,1.2,3,2.6,3h69.5c1.4,0,2.6-1.3,2.6-3v-3.3h-26.6c-22.3,0-40.6-18.3-42.2-41.6h-3.3
							C386.4,110.8,385.2,112.1,385.2,113.6L385.2,113.6z"/>
					</g>
				</g>
				<path class="st5" d="M388,159.6c-2.1,0-3.7-1.8-3.7-4.1v-41.9c0-0.9,0.4-2,1-2.8c0.5-0.7,1.6-1.1,2.7-1.1h69.3
					c2,0,3.7,1.8,3.7,3.9v41.9c0,2.3-1.6,4.1-3.7,4.1H388z M458.9,113.2l-32.7,24.5c-1,0.8-2.3,1.2-3.4,1.2c-1.2,0-2.4-0.4-3.4-1.2
					l-33.1-24.5v42.3c0,1.1,0.7,1.9,1.8,1.9h69.3c1,0,1.6-1,1.6-1.9V113.2z M457.4,111.9h-19.6c-0.2,0-18.6,0.1-30.8,0.1
					c0,0,0,0,0,0c-8,0-10.2-0.1-10.7-0.1l0,0h-8.2l32.4,24.1c0.7,0.5,1.5,0.7,2.3,0.7s1.6-0.2,2.3-0.7L457.4,111.9z"/>
			</g>
		</g>
		<g>
			<g>
				<path class="st2" d="M373.7,100.4c5-5.7,12.8-3.6,19-1.5c3.6,1.2,7.3,2.5,11.2,2.6c4.9,0.1,7.9-3.6,10-7.6
					c0.2-0.4,1-0.1,0.8,0.3c-2.9,7.6-8.7,9.9-16.3,8.1c-7.9-1.9-16.6-7.3-23.7-0.9C374,102.1,373.1,101.1,373.7,100.4z"/>
				<path class="st2" d="M371.8,96.7c5.2-6.3,12.8-5,19.8-2.7c3.8,1.2,7.5,2.7,11.5,3c4.6,0.3,7.5-2.4,9.4-6.3
					c0.2-0.5,1.1-0.1,0.9,0.3c-7,19-29.6-6.6-40.4,6.8C372.3,98.6,371.2,97.5,371.8,96.7z"/>
				<path class="st2" d="M371.4,91.7c0.6-0.7,1.7,0.2,1.2,1c-1.5,2.3-4.4,5.8-1.9,8.5c2,2.2,6.2,2.3,9,2.4c0.8,0,0.8,1.2,0,1.2
					c-3.5,0.1-8.3,0-10.7-2.9C366.5,98.7,369.2,94.1,371.4,91.7z"/>
			</g>
		</g>
	</g>
</g>
</svg>
